<svg width="24" height="24" viewBox="0 0 24 24" fill="none" xmlns="http://www.w3.org/2000/svg">
<circle cx="12" cy="12" r="11.5" fill="white" stroke="#28ad99"/>
<path d="M12.5252 7.9166C12.5252 7.62665 12.2901 7.3916 12.0002 7.3916C11.7102 7.3916 11.4752 7.62665 11.4752 7.9166V11.475H7.91709C7.62714 11.475 7.39209 11.7101 7.39209 12C7.39209 12.29 7.62714 12.525 7.91709 12.525H11.4752V16.0833C11.4752 16.3732 11.7102 16.6083 12.0002 16.6083C12.2901 16.6083 12.5252 16.3732 12.5252 16.0833V12.525H16.0838C16.3737 12.525 16.6088 12.29 16.6088 12C16.6088 11.7101 16.3737 11.475 16.0838 11.475H12.5252V7.9166Z" fill="#28ad99"/>
</svg>
