<svg width="452" height="352" viewBox="0 0 452 352" fill="none" xmlns="http://www.w3.org/2000/svg">
<mask id="mask0_100_257" style="mask-type:luminance" maskUnits="userSpaceOnUse" x="0" y="0" width="419" height="352">
<path fill-rule="evenodd" clip-rule="evenodd" d="M0 0H418.97V352H0V0Z" fill="white"/>
</mask>
<g mask="url(#mask0_100_257)">
<path opacity="0.132949" fill-rule="evenodd" clip-rule="evenodd" d="M152.566 66.2481C156.386 58.0848 161.231 50.2028 167.312 42.7692C215.105 -15.6472 309.016 -10.7251 364.083 36.3629C425.155 88.5868 419.509 176.479 418.26 191.496C413.918 243.739 386.772 328.78 324.33 346.103C295.322 354.15 267.643 345.1 243.497 328.313C224.426 315.055 199.279 316.292 181.077 331.834C174.192 337.713 166.516 342.682 157.99 346.202C138.693 354.166 121.514 352.032 114.075 351.015C56.0721 343.077 -0.586667 277.096 -0.0531464 215.402C0.559309 144.608 76.3896 90.3057 152.566 66.2481" fill="#2e90fa"/>
</g>
<path fill-rule="evenodd" clip-rule="evenodd" d="M367.287 159.656V298.842C367.287 299.011 367.278 299.18 367.27 299.358L367.253 299.6L367.238 299.834L367.23 299.93L367.206 300.083C367.197 300.205 367.173 300.325 367.157 300.446C367.141 300.559 367.117 300.68 367.093 300.793L367.053 300.963L367.028 301.092L366.988 301.261C366.963 301.366 366.932 301.47 366.907 301.567L366.891 301.623C366.835 301.801 366.785 301.978 366.722 302.148L366.713 302.173C366.681 302.26 366.649 302.349 366.617 302.43L366.528 302.655L366.503 302.721C366.407 302.937 366.31 303.165 366.197 303.374L366.084 303.591L365.963 303.8L365.842 304.002C365.761 304.139 365.672 304.276 365.584 304.406C365.527 304.494 365.47 304.567 365.423 304.648C365.285 304.826 365.155 305.002 365.011 305.171C364.906 305.301 364.801 305.422 364.696 305.534C364.591 305.656 364.478 305.768 364.364 305.881L364.203 306.043L364.05 306.179L363.865 306.349L363.808 306.397C363.655 306.534 363.493 306.663 363.331 306.784L363.284 306.825C363.154 306.913 363.025 307.009 362.889 307.098L362.759 307.187L362.541 307.324L362.364 307.429L362.17 307.542C361.718 307.8 361.242 308.018 360.75 308.195L360.661 308.227L360.555 308.26C360.443 308.3 360.33 308.34 360.209 308.373C360.007 308.436 359.805 308.486 359.604 308.534C359.499 308.558 359.394 308.583 359.289 308.606L359.088 308.639L358.837 308.687L358.805 308.695L358.603 308.72L358.506 308.727L358.329 308.751L358.223 308.759C358.103 308.768 357.974 308.776 357.853 308.784C357.675 308.792 357.498 308.799 357.32 308.799H111.211C111.034 308.799 110.856 308.792 110.678 308.784C110.558 308.776 110.428 308.768 110.308 308.759C110.171 308.751 110.033 308.736 109.896 308.711L109.662 308.679C109.468 308.655 109.275 308.614 109.089 308.574L108.928 308.534C108.726 308.486 108.524 308.436 108.323 308.373C108.201 308.333 108.089 308.3 107.976 308.26C107.435 308.074 106.911 307.84 106.41 307.575C106.289 307.501 106.168 307.429 106.047 307.357C105.909 307.276 105.772 307.187 105.643 307.098C104.844 306.559 104.135 305.914 103.521 305.171C103.376 305.002 103.239 304.826 103.109 304.639C102.665 304.026 102.294 303.365 102.003 302.655C101.939 302.494 101.875 302.317 101.81 302.148C101.746 301.978 101.697 301.801 101.64 301.623C101.592 301.447 101.543 301.269 101.503 301.092C101.463 300.922 101.431 300.761 101.398 300.592L101.382 300.512C101.359 300.35 101.334 300.181 101.318 300.019L101.309 299.979C101.294 299.849 101.285 299.729 101.278 299.6C101.253 299.35 101.245 299.1 101.245 298.842V159.656C101.245 158.463 101.455 157.318 101.842 156.254C102.455 154.569 103.513 153.092 104.876 151.972L104.941 151.923L105.457 151.529C107.08 150.376 109.065 149.698 111.211 149.698H357.32C357.562 149.698 357.796 149.706 358.03 149.73L358.159 149.739C358.385 149.754 358.619 149.779 358.837 149.811L358.991 149.835C359.184 149.867 359.378 149.908 359.563 149.956L359.709 149.989C359.943 150.045 360.168 150.109 360.396 150.183C360.604 150.246 360.823 150.327 361.024 150.408C361.314 150.521 361.597 150.658 361.872 150.803C362.025 150.875 362.179 150.956 362.323 151.044C362.581 151.19 362.832 151.351 363.066 151.529H363.074L363.59 151.923L363.655 151.972C363.793 152.077 363.913 152.189 364.034 152.303C364.13 152.383 364.22 152.472 364.309 152.56C364.583 152.827 364.841 153.109 365.083 153.415C365.196 153.552 365.301 153.689 365.398 153.827C365.818 154.4 366.173 155.02 366.455 155.682C366.536 155.858 366.609 156.044 366.681 156.23L366.689 156.254C366.803 156.552 366.891 156.858 366.972 157.165C367.013 157.318 367.044 157.463 367.076 157.616C367.1 157.737 367.125 157.85 367.141 157.971C367.166 158.092 367.181 158.213 367.197 158.335C367.222 158.479 367.238 158.624 367.247 158.77C367.262 158.89 367.27 159.019 367.27 159.14C367.278 159.309 367.287 159.486 367.287 159.656Z" fill="#DDE4E5"/>
<path fill-rule="evenodd" clip-rule="evenodd" d="M366.689 156.254H101.842C102.455 154.569 103.512 153.092 104.876 151.972L104.941 151.923L105.457 151.529L228.161 58.4639C231.769 55.7226 236.764 55.7226 240.37 58.4639L363.066 151.529H363.074L363.59 151.923L363.655 151.972C363.793 152.077 363.913 152.189 364.034 152.303C364.13 152.383 364.22 152.472 364.309 152.56C364.583 152.827 364.841 153.109 365.083 153.415C365.196 153.552 365.301 153.689 365.398 153.827C365.818 154.4 366.173 155.02 366.455 155.682C366.536 155.858 366.608 156.044 366.681 156.23L366.689 156.254Z" fill="#2e90fa"/>
<path fill-rule="evenodd" clip-rule="evenodd" d="M348.185 301.554H117.062V92.0208C117.062 82.1756 125.049 74.1948 134.903 74.1948H330.344C340.197 74.1948 348.185 82.1756 348.185 92.0208V301.554Z" fill="#FFFFFE"/>
<path fill-rule="evenodd" clip-rule="evenodd" d="M317.537 124.505H147.709C145.33 124.505 143.384 122.56 143.384 120.182V118.345C143.384 115.967 145.33 114.022 147.709 114.022H317.537C319.916 114.022 321.863 115.967 321.863 118.345V120.182C321.863 122.56 319.916 124.505 317.537 124.505Z" fill="#E4ECF2"/>
<path fill-rule="evenodd" clip-rule="evenodd" d="M317.537 146.898H147.709C145.33 146.898 143.384 144.953 143.384 142.575V140.737C143.384 138.361 145.33 136.416 147.709 136.416H317.537C319.916 136.416 321.863 138.361 321.863 140.737V142.575C321.863 144.953 319.916 146.898 317.537 146.898Z" fill="#E4ECF2"/>
<path fill-rule="evenodd" clip-rule="evenodd" d="M317.537 169.291H147.709C145.33 169.291 143.384 167.345 143.384 164.969V163.131C143.384 160.754 145.33 158.809 147.709 158.809H317.537C319.916 158.809 321.863 160.754 321.863 163.131V164.969C321.863 167.345 319.916 169.291 317.537 169.291Z" fill="#E4ECF2"/>
<path fill-rule="evenodd" clip-rule="evenodd" d="M317.537 191.684H147.709C145.33 191.684 143.384 189.739 143.384 187.362V185.524C143.384 183.148 145.33 181.202 147.709 181.202H317.537C319.916 181.202 321.863 183.148 321.863 185.524V187.362C321.863 189.739 319.916 191.684 317.537 191.684Z" fill="#E4ECF2"/>
<path fill-rule="evenodd" clip-rule="evenodd" d="M317.537 214.078H147.709C145.33 214.078 143.384 212.133 143.384 209.755V207.917C143.384 205.54 145.33 203.595 147.709 203.595H317.537C319.916 203.595 321.863 205.54 321.863 207.917V209.755C321.863 212.133 319.916 214.078 317.537 214.078Z" fill="#E4ECF2"/>
<path fill-rule="evenodd" clip-rule="evenodd" d="M234.269 232.983V232.99C233.882 233.409 233.422 233.797 232.897 234.119L111.76 308.799H111.211C110.203 308.799 109.234 308.655 108.323 308.373C108.193 308.333 108.064 308.292 107.943 308.252C106.353 307.704 104.941 306.76 103.836 305.534C103.73 305.422 103.626 305.301 103.521 305.171C103.214 304.808 102.94 304.413 102.69 304.002C102.601 303.866 102.528 303.728 102.447 303.591C102.375 303.446 102.294 303.3 102.23 303.156C101.6 301.849 101.245 300.391 101.245 298.842V159.656C101.245 158.463 101.455 157.318 101.842 156.254C102.455 154.569 103.513 153.092 104.876 151.972L104.941 151.923L105.457 151.529C107.08 150.376 109.065 149.698 111.211 149.698H113.487L124.124 156.254L232.897 223.314C233.422 223.637 233.882 224.024 234.269 224.444V224.452C236.456 226.846 236.456 230.596 234.269 232.983" fill="#2e90fa"/>
<path fill-rule="evenodd" clip-rule="evenodd" d="M367.287 159.656V298.842C367.287 299.011 367.278 299.18 367.27 299.358L367.253 299.6L367.238 299.834L367.23 299.93L367.206 300.083C367.197 300.205 367.172 300.325 367.157 300.446C367.141 300.559 367.117 300.68 367.093 300.793L367.085 300.85L367.053 300.963L367.028 301.092L366.988 301.261C366.963 301.366 366.939 301.463 366.907 301.567L366.891 301.623C366.842 301.801 366.785 301.978 366.722 302.148L366.713 302.173C366.681 302.26 366.657 302.341 366.617 302.43L366.528 302.655L366.503 302.721C366.407 302.937 366.31 303.165 366.197 303.374L366.084 303.591L365.963 303.8L365.842 304.002C365.761 304.139 365.672 304.276 365.584 304.406C365.527 304.494 365.47 304.567 365.423 304.648C365.285 304.832 365.148 305.002 365.011 305.171C364.906 305.301 364.801 305.422 364.696 305.534C364.591 305.656 364.478 305.768 364.364 305.881L364.203 306.043L364.05 306.179L363.865 306.349L363.808 306.397C363.655 306.534 363.493 306.663 363.331 306.784L363.284 306.825C363.154 306.913 363.025 307.009 362.889 307.098L362.759 307.187L362.541 307.324L362.364 307.429L362.17 307.542C361.718 307.8 361.242 308.018 360.75 308.195L360.661 308.227L360.555 308.26C360.443 308.3 360.33 308.34 360.209 308.373C360.007 308.436 359.805 308.486 359.604 308.534C359.499 308.558 359.394 308.583 359.289 308.606L359.088 308.639L358.837 308.687H358.812L358.603 308.72L358.506 308.727L358.329 308.751L358.223 308.759C358.103 308.768 357.974 308.776 357.852 308.784C357.675 308.792 357.498 308.799 357.32 308.799H356.771L235.633 234.119C235.109 233.797 234.649 233.409 234.269 232.99V232.983C232.075 230.588 232.075 226.855 234.269 224.452V224.444C234.649 224.024 235.109 223.637 235.633 223.314L242.662 218.976L355.045 149.698H357.32C357.562 149.698 357.796 149.706 358.03 149.73L358.159 149.739C358.385 149.754 358.619 149.779 358.837 149.811L358.991 149.835C359.184 149.867 359.378 149.908 359.563 149.956L359.709 149.989C359.943 150.045 360.168 150.109 360.396 150.183C360.604 150.246 360.823 150.327 361.024 150.408C361.314 150.521 361.597 150.658 361.871 150.803C362.025 150.875 362.179 150.956 362.323 151.044C362.581 151.19 362.832 151.351 363.066 151.529H363.074L363.59 151.923L363.655 151.972C363.793 152.077 363.913 152.189 364.034 152.303C364.13 152.383 364.22 152.472 364.309 152.56C364.583 152.827 364.841 153.109 365.083 153.415C365.196 153.552 365.301 153.689 365.398 153.827C365.818 154.4 366.173 155.02 366.455 155.682C366.536 155.858 366.608 156.044 366.681 156.23L366.689 156.254C366.803 156.552 366.891 156.858 366.972 157.165C367.013 157.318 367.044 157.463 367.076 157.616C367.1 157.737 367.125 157.85 367.141 157.971C367.166 158.092 367.181 158.213 367.197 158.335C367.222 158.479 367.238 158.624 367.247 158.77C367.262 158.89 367.27 159.019 367.27 159.14C367.278 159.309 367.287 159.486 367.287 159.656Z" fill="#2e90fa"/>
<path fill-rule="evenodd" clip-rule="evenodd" d="M356.771 308.799H111.76L123.512 301.554H345.019L356.771 308.799Z" fill="#ADB0B0"/>
<path fill-rule="evenodd" clip-rule="evenodd" d="M345.019 301.554H123.512L143.363 289.317C143.626 289.496 143.942 289.6 144.281 289.6L144.362 289.598C147.27 289.458 150.233 289.187 153.173 288.793C154.067 288.675 154.694 287.854 154.575 286.961C154.465 286.141 153.768 285.544 152.962 285.544C152.888 285.544 152.814 285.549 152.74 285.559C151.401 285.738 150.057 285.891 148.716 286.016L232.897 234.119C233.422 233.797 233.882 233.409 234.269 232.99V232.983V232.99C234.649 233.409 235.109 233.797 235.634 234.119L328.121 291.137C328.383 291.523 328.801 291.78 329.262 291.841L345.019 301.554ZM312.234 290.525C311.373 290.525 310.632 291.209 310.596 292.09C310.558 292.991 311.26 293.75 312.162 293.786C312.937 293.818 313.714 293.834 314.489 293.834C316.672 293.834 318.899 293.706 321.107 293.453C322.003 293.351 322.647 292.542 322.544 291.646C322.449 290.816 321.741 290.2 320.927 290.2C320.864 290.2 320.8 290.204 320.735 290.211C318.646 290.451 316.561 290.57 314.485 290.57C313.754 290.57 313.023 290.555 312.293 290.526C312.274 290.525 312.254 290.525 312.234 290.525ZM295.271 286.944C294.619 286.944 294.004 287.334 293.749 287.975C293.418 288.814 293.829 289.762 294.668 290.094C297.452 291.193 300.342 292.062 303.256 292.676C303.37 292.701 303.483 292.712 303.595 292.712C304.351 292.712 305.029 292.185 305.192 291.416C305.377 290.535 304.812 289.669 303.931 289.482C301.195 288.907 298.482 288.09 295.87 287.057C295.673 286.98 295.471 286.944 295.271 286.944ZM169.981 281.903C169.828 281.903 169.673 281.924 169.52 281.97C166.766 282.781 163.965 283.493 161.195 284.088C160.313 284.278 159.751 285.146 159.941 286.026C160.106 286.792 160.783 287.316 161.536 287.316C161.65 287.316 161.765 287.304 161.881 287.279C164.73 286.667 167.611 285.935 170.442 285.101C171.308 284.845 171.802 283.939 171.547 283.074C171.339 282.362 170.688 281.903 169.981 281.903ZM280.333 278.118C279.858 278.118 279.387 278.325 279.064 278.724C278.496 279.424 278.604 280.452 279.305 281.02C281.665 282.928 284.13 284.65 286.632 286.138C286.893 286.293 287.181 286.368 287.465 286.368C288.022 286.368 288.564 286.083 288.871 285.569C289.332 284.795 289.077 283.793 288.302 283.333C285.935 281.924 283.599 280.293 281.361 278.483C281.058 278.238 280.695 278.118 280.333 278.118ZM186.302 275.83C186.077 275.83 185.848 275.877 185.629 275.976C183.02 277.157 180.345 278.26 177.677 279.253C176.831 279.568 176.401 280.509 176.716 281.352C176.962 282.01 177.584 282.416 178.247 282.416C178.437 282.416 178.63 282.381 178.818 282.312C181.556 281.292 184.301 280.161 186.977 278.949C187.799 278.578 188.164 277.61 187.791 276.789C187.518 276.187 186.923 275.83 186.302 275.83ZM268.256 265.611C267.909 265.611 267.559 265.721 267.262 265.949C266.547 266.499 266.413 267.523 266.962 268.238C268.801 270.627 270.749 272.897 272.752 274.983C273.072 275.318 273.501 275.486 273.931 275.486C274.337 275.486 274.745 275.334 275.062 275.031C275.713 274.406 275.733 273.373 275.109 272.722C273.187 270.723 271.319 268.544 269.553 266.249C269.23 265.831 268.746 265.611 268.256 265.611ZM200.708 268.095C200.408 268.095 200.103 268.178 199.832 268.351C197.817 269.637 195.633 270.919 193.336 272.16C192.542 272.589 192.246 273.579 192.676 274.372C192.971 274.917 193.533 275.227 194.114 275.227C194.377 275.227 194.643 275.165 194.889 275.031C197.256 273.752 199.51 272.431 201.59 271.101C202.351 270.617 202.572 269.607 202.087 268.848C201.774 268.36 201.247 268.095 200.708 268.095ZM259.029 250.846C258.785 250.846 258.538 250.9 258.305 251.017C257.496 251.419 257.168 252.397 257.569 253.204C258.864 255.806 260.324 258.41 261.907 260.947C262.216 261.442 262.75 261.715 263.295 261.715C263.59 261.715 263.888 261.635 264.157 261.468C264.923 260.991 265.156 259.984 264.679 259.22C263.15 256.771 261.743 254.259 260.495 251.751C260.209 251.178 259.63 250.846 259.029 250.846Z" fill="#C5C4BF"/>
<path fill-rule="evenodd" clip-rule="evenodd" d="M357.339 308.799C357.51 308.799 357.681 308.792 357.852 308.784C357.94 308.778 358.031 308.772 358.121 308.766C357.863 308.788 357.602 308.799 357.339 308.799Z" fill="#B6BABD"/>
<path fill-rule="evenodd" clip-rule="evenodd" d="M234.269 224.452V224.444C233.882 224.024 233.422 223.637 232.897 223.314L222.769 217.07L227.322 214.078H241.202L245.754 217.07L242.662 218.976L235.633 223.314C235.108 223.637 234.649 224.024 234.269 224.444V224.452Z" fill="#C5C4BF"/>
<path fill-rule="evenodd" clip-rule="evenodd" d="M241.202 214.078H227.322L227.829 213.744C229.794 212.452 232.028 211.806 234.262 211.806C236.495 211.806 238.728 212.452 240.693 213.744L241.202 214.078Z" fill="#B0B5B9"/>
<path fill-rule="evenodd" clip-rule="evenodd" d="M111.76 308.799H111.211C111.201 308.799 111.19 308.799 111.181 308.799C111.18 308.799 111.179 308.799 111.178 308.799C105.689 308.78 101.245 304.135 101.245 298.406V296.958L116.468 286.951C116.966 287.074 117.463 287.192 117.96 287.306C118.083 287.334 118.206 287.348 118.328 287.348C119.071 287.348 119.745 286.837 119.918 286.082C120.021 285.633 119.928 285.186 119.697 284.828L222.769 217.07L232.897 223.314C233.422 223.637 233.882 224.024 234.269 224.444V224.452C232.075 226.855 232.075 230.588 234.269 232.983V232.99C233.882 233.409 233.422 233.797 232.897 234.119L148.716 286.016C147.204 286.158 145.696 286.265 144.203 286.338C143.302 286.381 142.608 287.147 142.652 288.047C142.677 288.579 142.954 289.038 143.363 289.317L111.76 308.799ZM126.888 285.632C126.084 285.632 125.386 286.233 125.278 287.05C125.16 287.944 125.788 288.764 126.682 288.882C129.589 289.268 132.559 289.522 135.51 289.639L135.576 289.641C136.448 289.641 137.172 288.953 137.207 288.074C137.243 287.172 136.541 286.414 135.64 286.379C132.789 286.265 129.919 286.019 127.111 285.647C127.036 285.637 126.961 285.632 126.888 285.632Z" fill="#4466A2"/>
<path fill-rule="evenodd" clip-rule="evenodd" d="M357.32 308.799H356.771L329.262 291.841C329.331 291.849 329.402 291.854 329.473 291.854C329.609 291.854 329.749 291.837 329.888 291.801C332.712 291.062 335.559 290.111 338.348 288.979C339.183 288.639 339.585 287.687 339.245 286.852C338.987 286.219 338.377 285.835 337.732 285.835C337.526 285.835 337.318 285.874 337.117 285.955C334.459 287.036 331.748 287.94 329.059 288.643C328.187 288.871 327.666 289.764 327.895 290.636C327.942 290.819 328.02 290.989 328.121 291.137L235.633 234.119C235.109 233.797 234.649 233.409 234.269 232.99V232.983C232.075 230.588 232.075 226.855 234.269 224.452V224.444C234.649 224.024 235.109 223.637 235.633 223.314L242.662 218.976L245.754 217.07L344.881 282.23C344.852 282.247 344.823 282.263 344.793 282.279C344.005 282.716 343.719 283.709 344.157 284.498C344.456 285.034 345.013 285.339 345.587 285.339C345.854 285.339 346.127 285.272 346.378 285.133C346.902 284.843 347.423 284.546 347.942 284.242L367.287 296.958V298.406C367.287 303.865 363.249 308.341 358.121 308.766C358.031 308.772 357.94 308.778 357.852 308.784C357.681 308.792 357.51 308.799 357.339 308.799C357.333 308.799 357.327 308.799 357.32 308.799Z" fill="#4466A2"/>
<path fill-rule="evenodd" clip-rule="evenodd" d="M367.287 297.456V298.842C367.287 304.341 362.824 308.799 357.32 308.799H111.211C105.708 308.799 101.245 304.341 101.245 298.842V297.456L227.83 217.734C231.76 215.26 236.764 215.26 240.693 217.734L367.287 297.456Z" fill="#2e90fa"/>
<path fill-rule="evenodd" clip-rule="evenodd" d="M221.774 102.111H147.709C145.33 102.111 143.384 100.166 143.384 97.7887V95.951C143.384 93.5735 145.33 91.6284 147.709 91.6284H221.774C224.154 91.6284 226.1 93.5735 226.1 95.951V97.7887C226.1 100.166 224.154 102.111 221.774 102.111Z" fill="#2e90fa"/>
<path fill-rule="evenodd" clip-rule="evenodd" d="M65.4205 97.5815C64.7481 97.5815 64.1176 97.1625 63.8799 96.4926C63.5803 95.6431 64.0263 94.7109 64.8765 94.4097C67.6383 93.4357 70.4828 92.5634 73.3311 91.8175C74.2022 91.5885 75.0962 92.1102 75.3254 92.9825C75.5536 93.8548 75.0324 94.7461 74.1585 94.9751C71.3977 95.6973 68.6407 96.5429 65.9645 97.4875C65.7848 97.5511 65.6012 97.5815 65.4205 97.5815ZM49.5538 104.751C48.9822 104.751 48.4277 104.451 48.1282 103.917C47.6869 103.13 47.9675 102.136 48.7539 101.695C51.3093 100.263 53.9693 98.9213 56.6607 97.707C57.4824 97.3345 58.4505 97.7003 58.8214 98.5222C59.1923 99.3432 58.8271 100.311 58.0054 100.681C55.3997 101.858 52.8243 103.156 50.3517 104.542C50.0987 104.683 49.8248 104.751 49.5538 104.751ZM35.1829 114.569C34.7131 114.569 34.2452 114.367 33.9228 113.976C33.3484 113.28 33.4464 112.252 34.1425 111.678C36.4012 109.815 38.7844 108.024 41.2257 106.358C41.9694 105.849 42.987 106.041 43.4958 106.784C44.0046 107.528 43.8134 108.544 43.0688 109.053C40.7093 110.664 38.405 112.394 36.2214 114.195C35.9181 114.447 35.5491 114.569 35.1829 114.569ZM22.8616 126.849C22.4954 126.849 22.1264 126.727 21.8221 126.476C21.1269 125.902 21.029 124.873 21.6034 124.178C23.4721 121.918 25.4816 119.716 27.5767 117.629C28.2158 116.993 29.2505 116.994 29.8867 117.633C30.5239 118.272 30.522 119.304 29.8829 119.941C27.862 121.954 25.9238 124.078 24.1217 126.257C23.7983 126.648 23.3323 126.849 22.8616 126.849ZM13.1802 141.29C12.9225 141.29 12.66 141.228 12.4165 141.099C11.6196 140.677 11.3162 139.688 11.7394 138.892C13.1136 136.304 14.6476 133.744 16.2986 131.284C16.8017 130.537 17.8164 130.335 18.5649 130.838C19.3143 131.34 19.514 132.354 19.0118 133.103C17.4227 135.47 15.9467 137.932 14.6248 140.422C14.3319 140.974 13.766 141.29 13.1802 141.29ZM6.70759 157.403C6.56018 157.403 6.41182 157.383 6.26346 157.342C5.39519 157.097 4.8902 156.197 5.13366 155.329C5.93156 152.498 6.89399 149.673 7.99622 146.933C8.33193 146.097 9.28294 145.691 10.1208 146.027C10.9577 146.364 11.3638 147.314 11.0271 148.15C9.96863 150.781 9.04424 153.494 8.27867 156.213C8.0761 156.932 7.42085 157.403 6.70759 157.403ZM108.062 162.365C107.964 162.365 107.866 162.357 107.766 162.338C105.535 161.931 103.243 161.725 100.953 161.725C100.491 161.716 99.951 161.734 99.4498 161.753C98.5454 161.803 97.7903 161.086 97.7551 160.186C97.7199 159.286 98.4227 158.527 99.3243 158.492C99.8664 158.471 100.447 158.481 100.954 158.461C103.439 158.461 105.929 158.685 108.354 159.128C109.241 159.29 109.829 160.139 109.667 161.027C109.523 161.813 108.835 162.365 108.062 162.365ZM82.5531 165.771C81.9254 165.771 81.3263 165.407 81.0571 164.795C80.6939 163.97 81.0695 163.007 81.895 162.645C84.6967 161.414 87.5564 160.441 90.3961 159.75C91.273 159.537 92.1565 160.074 92.3695 160.951C92.5825 161.827 92.0452 162.709 91.1684 162.922C88.5141 163.567 85.836 164.48 83.2093 165.632C82.9963 165.726 82.7728 165.771 82.5531 165.771ZM124.025 169.006C123.709 169.006 123.391 168.914 123.11 168.724C120.756 167.13 118.283 165.783 115.757 164.723C114.925 164.374 114.535 163.417 114.884 162.586C115.234 161.754 116.193 161.365 117.023 161.714C119.747 162.859 122.412 164.308 124.943 166.023C125.69 166.529 125.884 167.544 125.378 168.29C125.063 168.755 124.548 169.006 124.025 169.006ZM3.90209 174.552L3.80699 174.549C2.90638 174.497 2.21784 173.726 2.26919 172.826C2.44133 169.832 2.75992 166.866 3.21736 164.009C3.35906 163.12 4.195 162.514 5.08801 162.655C5.97816 162.798 6.58491 163.634 6.44226 164.524C6.00289 167.272 5.69666 170.129 5.53118 173.013C5.48078 173.881 4.76086 174.552 3.90209 174.552ZM67.8818 175.043C67.4186 175.043 66.9583 174.847 66.635 174.467C66.052 173.779 66.1376 172.75 66.8252 172.167C69.1238 170.22 71.5403 168.437 74.0072 166.869C74.769 166.385 75.778 166.609 76.2621 167.369C76.7462 168.129 76.5217 169.139 75.7619 169.622C73.4195 171.111 71.1238 172.805 68.9374 174.656C68.6302 174.917 68.2555 175.043 67.8818 175.043ZM136.455 181.092C135.953 181.092 135.456 180.86 135.136 180.424C133.461 178.138 131.604 175.993 129.615 174.05C128.97 173.42 128.959 172.387 129.59 171.742C130.222 171.099 131.255 171.086 131.899 171.717C134.015 173.785 135.992 176.067 137.772 178.495C138.305 179.223 138.147 180.244 137.419 180.777C137.128 180.989 136.79 181.092 136.455 181.092ZM56.1548 187.867C55.8295 187.867 55.5014 187.77 55.2161 187.569C54.4781 187.05 54.3012 186.032 54.8205 185.296C56.519 182.884 58.3982 180.549 60.4068 178.353C61.0154 177.688 62.0482 177.641 62.7139 178.248C63.3806 178.856 63.4262 179.888 62.8185 180.553C60.9032 182.649 59.1105 184.876 57.4919 187.174C57.1733 187.626 56.6683 187.867 56.1548 187.867ZM4.60299 191.919C3.80318 191.919 3.10324 191.331 2.98816 190.516C2.57827 187.626 2.31009 184.655 2.19121 181.686C2.15602 180.786 2.85692 180.027 3.75849 179.991C4.68287 179.959 5.41991 180.656 5.45605 181.556C5.57017 184.415 5.8279 187.276 6.22257 190.058C6.34906 190.951 5.72709 191.776 4.83409 191.903L4.60299 191.919ZM144.35 196.529C143.66 196.529 143.019 196.09 142.795 195.397C141.939 192.742 140.852 190.121 139.565 187.607C139.155 186.805 139.472 185.821 140.276 185.411C141.079 185 142.062 185.318 142.474 186.121C143.84 188.79 144.995 191.575 145.905 194.396C146.182 195.254 145.71 196.174 144.851 196.451C144.685 196.504 144.517 196.529 144.35 196.529ZM48.1871 203.286C48.0131 203.286 47.8353 203.259 47.6612 203.199C46.8072 202.91 46.3507 201.983 46.6408 201.129C47.5737 198.384 48.7625 195.619 50.1729 192.909C50.5904 192.111 51.5756 191.799 52.3754 192.215C53.1762 192.631 53.4872 193.616 53.0706 194.416C51.7373 196.979 50.6141 199.591 49.7335 202.179C49.5024 202.859 48.8671 203.286 48.1871 203.286ZM8.86069 208.765C8.19878 208.765 7.57587 208.36 7.33146 207.704C6.30436 204.956 5.41706 202.102 4.69238 199.223C4.47175 198.349 5.00242 197.462 5.87735 197.242C6.75229 197.025 7.63959 197.553 7.86022 198.427C8.55542 201.19 9.40753 203.928 10.3909 206.562C10.7066 207.407 10.2777 208.346 9.43225 208.662C9.24395 208.732 9.0509 208.765 8.86069 208.765ZM146.755 213.677L146.683 213.675C145.782 213.636 145.083 212.874 145.122 211.974C145.149 211.344 145.163 210.714 145.162 210.083C145.162 207.944 145.006 205.763 144.697 203.596C144.57 202.704 145.191 201.878 146.084 201.751C146.976 201.624 147.804 202.244 147.931 203.136C148.262 205.454 148.429 207.79 148.429 210.082C148.429 210.76 148.415 211.436 148.385 212.115C148.347 212.991 147.625 213.677 146.755 213.677ZM45.7906 220.412C44.9366 220.412 44.2185 219.748 44.1624 218.885C44.1025 217.957 44.0721 217.012 44.0721 216.078C44.0721 214.013 44.2214 211.925 44.5162 209.87C44.6446 208.976 45.4672 208.358 46.365 208.486C47.258 208.614 47.8781 209.441 47.7506 210.333C47.4767 212.235 47.3379 214.167 47.3379 216.078C47.3379 216.942 47.3664 217.815 47.4225 218.674C47.4805 219.574 46.7977 220.349 45.898 220.408L45.7906 220.412ZM16.7513 224.242C16.2225 224.242 15.7033 223.984 15.3885 223.51C13.7537 221.046 12.2463 218.464 10.9073 215.837C10.4983 215.034 10.8179 214.051 11.6215 213.643C12.4242 213.232 13.4085 213.553 13.8183 214.356C15.1013 216.873 16.5449 219.347 18.1112 221.708C18.6096 222.459 18.4041 223.472 17.6528 223.97C17.3742 224.153 17.0613 224.242 16.7513 224.242ZM142.546 230.431C142.303 230.431 142.056 230.376 141.823 230.262C141.015 229.862 140.683 228.884 141.083 228.076C142.23 225.756 143.151 223.278 143.82 220.712L143.938 220.252C144.157 219.376 145.045 218.843 145.919 219.065C146.794 219.282 147.327 220.169 147.107 221.044L146.982 221.535C146.257 224.317 145.257 227.003 144.012 229.522C143.726 230.097 143.147 230.431 142.546 230.431ZM50.2119 237.127C49.5965 237.127 49.0069 236.778 48.7302 236.183C47.4339 233.402 46.3954 230.568 45.6403 227.761C45.4064 226.891 45.9228 225.996 46.7949 225.762C47.666 225.523 48.5609 226.045 48.7958 226.915C49.5014 229.54 50.4753 232.195 51.6916 234.806C52.072 235.623 51.7173 236.594 50.9004 236.974C50.6769 237.078 50.442 237.127 50.2119 237.127ZM27.8962 237.572C27.4883 237.572 27.0812 237.421 26.7636 237.116C24.6295 235.065 22.5905 232.882 20.7037 230.627C20.1255 229.935 20.2168 228.906 20.9091 228.328C21.6005 227.75 22.6314 227.841 23.2096 228.534C25.0223 230.697 26.9795 232.794 29.0289 234.764C29.6794 235.389 29.6984 236.421 29.0736 237.071C28.7522 237.404 28.3252 237.572 27.8962 237.572ZM131.774 243.931C131.307 243.931 130.845 243.732 130.521 243.348C129.941 242.658 130.032 241.629 130.722 241.048C132.92 239.206 134.896 237.199 136.596 235.084C137.161 234.383 138.189 234.271 138.891 234.835C139.595 235.399 139.707 236.426 139.142 237.129C137.309 239.409 135.182 241.568 132.823 243.548C132.517 243.806 132.144 243.931 131.774 243.931ZM41.6327 248.225C41.3389 248.225 41.0422 248.146 40.7749 247.981C38.268 246.431 35.8144 244.728 33.4816 242.919C32.7683 242.367 32.639 241.342 33.1925 240.63C33.745 239.918 34.7721 239.789 35.4844 240.341C37.7269 242.079 40.0845 243.716 42.4934 245.204C43.2609 245.678 43.4977 246.685 43.0231 247.452C42.714 247.95 42.1796 248.225 41.6327 248.225ZM59.6707 251.688C59.2047 251.688 58.7415 251.489 58.4191 251.104C56.4562 248.769 54.6645 246.372 53.0953 243.978C52.6008 243.224 52.811 242.212 53.5661 241.719C54.3212 241.225 55.3331 241.436 55.8276 242.189C57.3264 244.475 59.0401 246.769 60.9203 249.005C61.5004 249.696 61.411 250.725 60.7196 251.305C60.4134 251.561 60.0406 251.688 59.6707 251.688ZM116.891 252.876C116.258 252.876 115.655 252.506 115.39 251.888C115.033 251.06 115.416 250.101 116.245 249.744C118.936 248.589 121.488 247.299 123.828 245.908C124.602 245.449 125.605 245.702 126.067 246.477C126.527 247.252 126.272 248.253 125.496 248.714C123.035 250.177 120.356 251.533 117.535 252.743C117.325 252.834 117.106 252.876 116.891 252.876ZM57.3141 255.735C57.1343 255.735 56.9517 255.704 56.7729 255.641C54.0026 254.668 51.2409 253.524 48.5647 252.243C47.7516 251.852 47.4083 250.877 47.7991 250.065C48.189 249.251 49.1648 248.911 49.9779 249.299C52.5476 250.531 55.1971 251.629 57.8552 252.563C58.7073 252.861 59.1543 253.793 58.8547 254.643C58.6188 255.315 57.9883 255.735 57.3141 255.735ZM100.255 258.043C99.5002 258.043 98.8212 257.515 98.6595 256.747C98.4731 255.865 99.038 254.999 99.9206 254.814C102.766 254.215 105.559 253.496 108.221 252.675C109.086 252.412 109.998 252.892 110.264 253.754C110.53 254.615 110.046 255.528 109.184 255.794C106.426 256.644 103.536 257.389 100.594 258.007C100.481 258.031 100.368 258.043 100.255 258.043ZM82.9487 260.059C82.0538 260.059 81.3244 259.338 81.3158 258.441C81.3082 257.54 82.0329 256.804 82.9344 256.795C85.2102 256.775 87.5079 256.644 89.7656 256.404C90.2278 256.355 90.7737 256.296 91.4499 256.215C92.3391 256.098 93.1588 256.747 93.2653 257.642C93.3728 258.538 92.7328 259.349 91.8369 259.456C91.1446 259.538 90.5854 259.599 90.1783 259.643C87.7485 259.9 85.3434 260.038 82.9639 260.059H82.9487ZM72.0872 263.863C71.721 263.863 71.353 263.74 71.0486 263.49C68.8347 261.668 66.713 259.775 64.7367 257.863C64.5751 257.75 64.4372 257.608 64.3278 257.449C63.8133 256.814 63.8447 255.881 64.4286 255.282C64.9697 254.727 65.8104 254.641 66.4448 255.027C69.0905 255.619 71.7762 256.067 74.4352 256.362C75.332 256.461 75.9787 257.267 75.8789 258.162C75.7799 259.059 74.9801 259.706 74.0757 259.606C73.0667 259.495 72.0529 259.361 71.0391 259.208C71.7248 259.801 72.42 260.39 73.1266 260.971C73.8228 261.545 73.9226 262.573 73.3482 263.269C73.0258 263.659 72.5579 263.863 72.0872 263.863ZM86.3153 273.914C86.0262 273.914 85.7342 273.838 85.4689 273.678C82.9392 272.144 80.4542 270.518 78.0824 268.847C77.3463 268.327 77.1703 267.309 77.6896 266.573C78.2107 265.836 79.2283 265.662 79.9663 266.18C82.2763 267.809 84.6976 269.392 87.1636 270.887C87.9349 271.354 88.1812 272.359 87.7124 273.128C87.4052 273.635 86.8669 273.914 86.3153 273.914ZM194.114 275.227C193.533 275.227 192.971 274.918 192.676 274.372C192.246 273.579 192.542 272.589 193.336 272.16C195.633 270.919 197.817 269.637 199.832 268.352C200.59 267.868 201.6 268.087 202.087 268.848C202.572 269.607 202.351 270.617 201.59 271.101C199.51 272.431 197.256 273.752 194.889 275.031C194.643 275.165 194.377 275.227 194.114 275.227ZM101.797 281.899C101.582 281.899 101.363 281.856 101.154 281.767C98.5102 280.635 95.8236 279.366 93.1674 277.992C92.3666 277.579 92.0528 276.595 92.4665 275.794C92.8811 274.994 93.8673 274.678 94.6671 275.094C97.2539 276.429 99.8692 277.666 102.441 278.766C103.27 279.121 103.654 280.081 103.299 280.91C103.033 281.528 102.43 281.899 101.797 281.899ZM178.247 282.416C177.584 282.416 176.961 282.01 176.716 281.352C176.401 280.509 176.831 279.568 177.677 279.253C180.345 278.26 183.02 277.157 185.629 275.976C186.45 275.604 187.419 275.968 187.791 276.789C188.164 277.61 187.799 278.578 186.977 278.949C184.301 280.161 181.556 281.293 178.818 282.312C178.63 282.381 178.437 282.416 178.247 282.416ZM161.536 287.316C160.783 287.316 160.106 286.792 159.941 286.026C159.751 285.146 160.313 284.278 161.195 284.088C163.965 283.493 166.766 282.781 169.52 281.97C170.385 281.716 171.293 282.21 171.547 283.074C171.802 283.939 171.308 284.845 170.442 285.101C167.611 285.935 164.73 286.667 161.881 287.279C161.765 287.304 161.65 287.316 161.536 287.316ZM118.327 287.348C118.206 287.348 118.083 287.334 117.96 287.306C115.096 286.649 112.224 285.845 109.425 284.917C108.569 284.634 108.105 283.71 108.388 282.854C108.673 281.999 109.599 281.535 110.453 281.82C113.155 282.715 115.928 283.49 118.692 284.125C119.57 284.328 120.12 285.203 119.918 286.082C119.745 286.837 119.071 287.348 118.327 287.348ZM144.281 289.6C143.415 289.6 142.693 288.92 142.652 288.047C142.608 287.147 143.302 286.381 144.203 286.338C147.02 286.201 149.892 285.94 152.74 285.559C153.636 285.437 154.456 286.066 154.575 286.961C154.694 287.854 154.067 288.675 153.173 288.794C150.233 289.187 147.27 289.458 144.362 289.598L144.281 289.6ZM135.576 289.641L135.51 289.639C132.559 289.522 129.589 289.268 126.682 288.882C125.788 288.764 125.16 287.944 125.278 287.05C125.396 286.157 126.218 285.523 127.111 285.647C129.919 286.019 132.789 286.265 135.64 286.379C136.541 286.414 137.243 287.172 137.207 288.074C137.172 288.953 136.448 289.641 135.576 289.641Z" fill="#72EFE6"/>
<path fill-rule="evenodd" clip-rule="evenodd" d="M53.821 118.235L53.6479 102.777C55.0821 102.044 56.539 101.343 58.0055 100.681C58.8272 100.311 59.1923 99.3432 58.8214 98.5222C58.5485 97.9188 57.9551 97.5606 57.3331 97.5606C57.1077 97.5606 56.8785 97.6081 56.6607 97.7069C55.6365 98.1687 54.618 98.6496 53.607 99.1465L53.5224 91.5914L23.6443 68.9486L146.881 52.5194L130.654 74.02C102.74 85.0311 75.8703 99.9989 53.821 118.235ZM73.7458 91.7633C73.6088 91.7633 73.47 91.7804 73.3311 91.8175C70.4828 92.5634 67.6383 93.4357 64.8766 94.4097C64.0264 94.7109 63.5803 95.6431 63.8799 96.4926C64.1177 97.1625 64.7482 97.5815 65.4206 97.5815C65.6012 97.5815 65.7848 97.5511 65.9645 97.4874C68.6407 96.5429 71.3977 95.6972 74.1585 94.9751C75.0325 94.7461 75.5536 93.8548 75.3254 92.9825C75.1333 92.2489 74.4704 91.7633 73.7458 91.7633Z" fill="#E9E8E4"/>
<path fill-rule="evenodd" clip-rule="evenodd" d="M53.9901 133.267L53.8208 118.235C75.8701 99.9989 102.74 85.0311 130.653 74.02L130.01 74.8742C122.536 76.9989 117.062 83.8718 117.062 92.0209V92.0285L94.2038 122.315L79.736 111.416L53.9901 133.267Z" fill="#D5DBE1"/>
<path fill-rule="evenodd" clip-rule="evenodd" d="M117.062 92.0285V92.0209C117.062 83.8718 122.536 76.9989 130.01 74.8742L117.062 92.0285Z" fill="#E9E9E4"/>
<path fill-rule="evenodd" clip-rule="evenodd" d="M53.6478 102.777L53.6069 99.1465C54.6179 98.6495 55.6364 98.1687 56.6606 97.7069C56.8784 97.6081 57.1076 97.5606 57.333 97.5606C57.955 97.5606 58.5484 97.9188 58.8214 98.5222C59.1923 99.3432 58.8271 100.311 58.0054 100.681C56.5389 101.343 55.082 102.044 53.6478 102.777ZM65.4205 97.5815C64.7481 97.5815 64.1176 97.1624 63.8798 96.4925C63.5802 95.643 64.0263 94.7109 64.8765 94.4097C67.6382 93.4357 70.4827 92.5634 73.331 91.8175C73.4699 91.7804 73.6087 91.7633 73.7457 91.7633C74.4703 91.7633 75.1332 92.2489 75.3253 92.9824C75.5536 93.8547 75.0324 94.746 74.1584 94.975C71.3976 95.6972 68.6406 96.5429 65.9644 97.4874C65.7847 97.5511 65.6012 97.5815 65.4205 97.5815Z" fill="#D49F44"/>
<path fill-rule="evenodd" clip-rule="evenodd" d="M56.6787 130.739L55.9958 69.8637L149.57 49.9908L56.6787 130.739Z" fill="#38DBD0"/>
<path fill-rule="evenodd" clip-rule="evenodd" d="M56.4134 89.2177C56.887 88.9801 149.57 49.9908 149.57 49.9908L26.3328 66.421L56.4134 89.2177Z" fill="#72EFE6"/>
<path fill-rule="evenodd" clip-rule="evenodd" d="M66.6292 96.9876L56.6787 130.739L99.3537 94.5218L66.6292 96.9876Z" fill="#38DBD0"/>
<path fill-rule="evenodd" clip-rule="evenodd" d="M66.6292 96.9876L96.8934 119.788L149.57 49.9908L66.6292 96.9876Z" fill="#72EFE6"/>
<path fill-rule="evenodd" clip-rule="evenodd" d="M367.287 213.928V209.995L369.555 209.851C370.184 210.691 370.791 211.565 371.372 212.473C371.684 212.961 372.211 213.226 372.75 213.226C373.051 213.226 373.355 213.142 373.629 212.968C374.388 212.483 374.61 211.473 374.123 210.714C373.884 210.34 373.64 209.971 373.393 209.607L381.704 209.08C381.82 210.4 382.019 211.702 382.295 212.974L367.287 213.928Z" fill="#D5DBE1"/>
<path fill-rule="evenodd" clip-rule="evenodd" d="M276.357 198.205L275.941 191.684H278.989L279.288 196.397L276.357 198.205ZM278.322 181.202H275.275L274.694 172.072C274.617 170.859 275.32 169.768 276.368 169.291H277.564L278.322 181.202Z" fill="#E9E9E4"/>
<path fill-rule="evenodd" clip-rule="evenodd" d="M277.564 169.291H276.367C276.674 169.151 277.009 169.064 277.364 169.042L277.548 169.03L277.564 169.291Z" fill="#CDD5DA"/>
<path fill-rule="evenodd" clip-rule="evenodd" d="M278.988 191.684H275.941L275.275 181.202H278.322L278.988 191.684Z" fill="#CDD5DA"/>
<path fill-rule="evenodd" clip-rule="evenodd" d="M280.388 219.44C278.899 219.44 277.634 218.273 277.538 216.767L276.357 198.205L279.288 196.397L280.323 212.657C280.419 214.164 281.684 215.331 283.174 215.331C283.234 215.331 283.295 215.329 283.355 215.326L323.773 212.759C323.603 213.072 323.437 213.386 323.275 213.704C322.867 214.508 323.188 215.489 323.991 215.899C324.228 216.019 324.481 216.075 324.731 216.075C325.326 216.075 325.899 215.749 326.188 215.183C326.652 214.27 327.155 213.378 327.694 212.51L367.287 209.995V213.928L280.57 219.434C280.509 219.438 280.449 219.44 280.388 219.44Z" fill="#496AA4"/>
<path fill-rule="evenodd" clip-rule="evenodd" d="M393.479 208.332L283.355 215.326C281.787 215.425 280.422 214.225 280.323 212.657L277.479 167.962C277.38 166.395 278.581 165.032 280.15 164.932L390.273 157.938C391.841 157.839 393.206 159.039 393.305 160.606L396.149 205.302C396.249 206.869 395.047 208.231 393.479 208.332Z" fill="#FFFFFE"/>
<path fill-rule="evenodd" clip-rule="evenodd" d="M381.827 171.377L333.771 174.429C332.531 174.508 331.452 173.559 331.373 172.32L331.366 172.207C331.287 170.968 332.237 169.889 333.477 169.81L381.533 166.758C382.773 166.679 383.852 167.629 383.931 168.869L383.937 168.981C384.016 170.22 383.066 171.298 381.827 171.377Z" fill="#2e90fa"/>
<path fill-rule="evenodd" clip-rule="evenodd" d="M382.467 181.45L334.412 184.503C333.172 184.581 332.093 183.632 332.014 182.393L332.007 182.28C331.928 181.041 332.878 179.962 334.118 179.884L382.174 176.831C383.414 176.753 384.492 177.702 384.571 178.942L384.579 179.054C384.657 180.294 383.707 181.373 382.467 181.45Z" fill="#EFF4F7"/>
<path fill-rule="evenodd" clip-rule="evenodd" d="M383.108 191.524L335.053 194.576C333.813 194.655 332.734 193.705 332.655 192.466L332.648 192.353C332.569 191.115 333.519 190.037 334.758 189.958L382.815 186.906C384.055 186.827 385.133 187.776 385.212 189.016L385.22 189.128C385.298 190.367 384.348 191.445 383.108 191.524Z" fill="#EFF4F7"/>
<path fill-rule="evenodd" clip-rule="evenodd" d="M383.749 201.598L335.694 204.65C334.454 204.729 333.374 203.78 333.295 202.54L333.289 202.427C333.21 201.188 334.16 200.11 335.399 200.031L383.456 196.979C384.695 196.901 385.774 197.849 385.853 199.088L385.861 199.201C385.94 200.441 384.99 201.519 383.749 201.598Z" fill="#EFF4F7"/>
<path fill-rule="evenodd" clip-rule="evenodd" d="M326.09 187.313C326.834 198.994 317.959 209.065 306.268 209.807C294.578 210.55 284.499 201.682 283.756 190.002C283.012 178.321 291.887 168.25 303.578 167.507C315.268 166.765 325.348 175.632 326.09 187.313Z" fill="#EFF4F7"/>
<path fill-rule="evenodd" clip-rule="evenodd" d="M302.429 197.54L302.424 197.454L302.429 197.539V197.54Z" fill="#A3A8AB"/>
<path fill-rule="evenodd" clip-rule="evenodd" d="M302.442 197.749L302.429 197.54V197.539L302.442 197.749Z" fill="#4B4B48"/>
<path fill-rule="evenodd" clip-rule="evenodd" d="M308.517 197.09L308.516 197.066L308.517 197.089V197.09Z" fill="#A3A8AB"/>
<path fill-rule="evenodd" clip-rule="evenodd" d="M302.424 197.454L302.399 197.059L302.424 197.454ZM308.516 197.066L308.453 196.082L308.516 197.066Z" fill="#1D1D1B"/>
<path fill-rule="evenodd" clip-rule="evenodd" d="M305.67 200.427L305.668 200.426L305.67 200.427Z" fill="#C3957C"/>
<path fill-rule="evenodd" clip-rule="evenodd" d="M301.098 197.903V197.902L301.099 197.903H301.098Z" fill="#C2C7CA"/>
<path fill-rule="evenodd" clip-rule="evenodd" d="M393.317 160.79L393.305 160.606C393.21 159.099 391.945 157.933 390.455 157.933C390.395 157.933 390.334 157.935 390.274 157.938L367.281 159.399C367.278 159.311 367.274 159.225 367.27 159.14C367.27 159.019 367.262 158.89 367.247 158.77C367.238 158.624 367.222 158.479 367.197 158.335C367.181 158.213 367.166 158.092 367.141 157.971C367.125 157.85 367.1 157.737 367.076 157.616C367.044 157.463 367.013 157.318 366.972 157.165C366.891 156.858 366.802 156.552 366.689 156.254L366.681 156.23C366.608 156.044 366.536 155.858 366.455 155.682C366.173 155.02 365.818 154.4 365.398 153.827C365.301 153.689 365.196 153.552 365.083 153.415C364.84 153.109 364.583 152.827 364.309 152.56C364.219 152.472 364.13 152.383 364.034 152.303C363.913 152.19 363.792 152.077 363.655 151.972L363.59 151.923L363.073 151.529H363.066L348.185 140.241V119.771L386.375 110.512C386.599 110.458 386.823 110.432 387.045 110.432C388.332 110.432 389.509 111.311 389.826 112.613L400.394 156.137C400.765 157.663 399.819 159.214 398.292 159.583L393.317 160.79Z" fill="#D5DBE1"/>
<path fill-rule="evenodd" clip-rule="evenodd" d="M366.689 156.254L366.681 156.23C366.608 156.044 366.536 155.858 366.455 155.682C366.173 155.02 365.818 154.4 365.398 153.827C365.301 153.689 365.196 153.552 365.083 153.415C364.84 153.109 364.583 152.827 364.309 152.56C364.219 152.472 364.13 152.383 364.034 152.303C363.913 152.189 363.792 152.077 363.655 151.972L363.59 151.923L363.073 151.529H363.066C362.832 151.351 362.581 151.19 362.323 151.044C362.179 150.956 362.024 150.875 361.871 150.803C361.597 150.658 361.314 150.521 361.024 150.408C360.822 150.327 360.604 150.246 360.395 150.183C360.168 150.109 359.943 150.045 359.709 149.989L359.563 149.956C359.378 149.908 359.184 149.867 358.991 149.835L358.837 149.811C358.619 149.779 358.385 149.754 358.159 149.739L358.03 149.73C357.796 149.706 357.562 149.698 357.32 149.698H355.045L348.185 153.926V140.241L363.066 151.529H363.073L363.59 151.923L363.655 151.972C363.792 152.077 363.913 152.189 364.034 152.303C364.13 152.383 364.219 152.472 364.309 152.56C364.583 152.827 364.84 153.109 365.083 153.415C365.196 153.552 365.301 153.689 365.398 153.827C365.818 154.4 366.173 155.02 366.455 155.682C366.536 155.858 366.608 156.044 366.681 156.23L366.689 156.254Z" fill="#597FB3"/>
<path fill-rule="evenodd" clip-rule="evenodd" d="M321.779 162.288C321.385 160.311 319.628 158.809 317.537 158.809H281.616L278.723 146.898H317.537C319.916 146.898 321.863 144.953 321.863 142.575V140.737C321.863 138.361 319.916 136.416 317.537 136.416H279.532L348.185 119.771V153.926L336.093 161.379L321.779 162.288Z" fill="#E9E9E4"/>
<path fill-rule="evenodd" clip-rule="evenodd" d="M317.537 146.898H278.723L277.038 139.957C276.667 138.431 277.614 136.88 279.141 136.51L279.532 136.416H317.537C319.916 136.416 321.863 138.361 321.863 140.737V142.575C321.863 144.953 319.916 146.898 317.537 146.898Z" fill="#CDD5DA"/>
<path fill-rule="evenodd" clip-rule="evenodd" d="M283.058 164.748L281.616 158.809H317.537C319.628 158.809 321.385 160.311 321.779 162.288L283.058 164.748Z" fill="#CDD5DA"/>
<path fill-rule="evenodd" clip-rule="evenodd" d="M336.093 161.379L355.045 149.698H357.32C357.562 149.698 357.796 149.706 358.03 149.73L358.159 149.739C358.385 149.754 358.619 149.779 358.837 149.811L358.991 149.835C359.184 149.867 359.378 149.908 359.563 149.956L359.709 149.989C359.943 150.045 360.168 150.109 360.396 150.183C360.604 150.246 360.823 150.327 361.024 150.408C361.314 150.521 361.597 150.658 361.872 150.803C362.025 150.875 362.179 150.956 362.323 151.044C362.581 151.19 362.832 151.351 363.066 151.529H363.074L363.59 151.923L363.655 151.972C363.793 152.077 363.913 152.189 364.034 152.303C364.13 152.383 364.22 152.472 364.309 152.56C364.583 152.827 364.841 153.109 365.083 153.415C365.196 153.552 365.301 153.689 365.398 153.827C365.818 154.4 366.173 155.02 366.455 155.682C366.536 155.858 366.609 156.044 366.681 156.23L366.689 156.254C366.803 156.552 366.891 156.858 366.972 157.165C367.013 157.318 367.044 157.463 367.076 157.616C367.1 157.737 367.125 157.85 367.141 157.971C367.166 158.092 367.181 158.213 367.197 158.335C367.222 158.479 367.238 158.624 367.247 158.77C367.262 158.89 367.27 159.019 367.27 159.14C367.274 159.225 367.278 159.311 367.281 159.399L336.093 161.379Z" fill="#496AA4"/>
<path fill-rule="evenodd" clip-rule="evenodd" d="M286.369 178.383L283.058 164.748L321.779 162.288L336.093 161.379L367.281 159.399L390.274 157.938C390.334 157.934 390.395 157.933 390.455 157.933C391.945 157.933 393.21 159.099 393.305 160.606L393.317 160.79L364.141 167.863L333.477 169.81C332.237 169.889 331.287 170.968 331.366 172.207L331.373 172.32C331.449 173.51 332.448 174.433 333.627 174.433C333.675 174.433 333.723 174.432 333.771 174.429L338.225 174.146L323.145 177.802C319.419 171.569 312.603 167.464 304.945 167.464C304.492 167.464 304.035 167.478 303.578 167.507C296.092 167.983 289.76 172.284 286.369 178.383Z" fill="#E9E9E4"/>
<path fill-rule="evenodd" clip-rule="evenodd" d="M333.627 174.433C332.448 174.433 331.449 173.51 331.373 172.32L331.366 172.207C331.287 170.968 332.237 169.889 333.477 169.81L364.141 167.863L338.225 174.146L333.771 174.429C333.723 174.432 333.675 174.433 333.627 174.433Z" fill="#496AA4"/>
<path fill-rule="evenodd" clip-rule="evenodd" d="M290.387 185.662C289.1 185.662 287.923 184.782 287.606 183.48L286.369 178.383C289.76 172.284 296.091 167.983 303.578 167.507C304.035 167.478 304.492 167.464 304.944 167.464C312.603 167.464 319.419 171.569 323.145 177.802L314.242 179.96C314.236 179.911 314.23 179.862 314.223 179.813C313.665 175.542 311.317 173.512 308.999 172.564C307.301 171.868 305.619 171.749 304.659 171.749C304.153 171.749 303.848 171.782 303.848 171.782C303.848 171.782 293.96 171.953 294.601 182.023L294.714 183.807C294.28 184.096 293.923 184.488 293.675 184.946L291.057 185.581C290.833 185.636 290.609 185.662 290.387 185.662Z" fill="#D5DBE1"/>
<path fill-rule="evenodd" clip-rule="evenodd" d="M400.703 155.644L293.469 181.641C291.941 182.012 290.389 181.066 290.019 179.541L279.449 136.017C279.079 134.492 280.025 132.94 281.552 132.57L388.786 106.572C390.314 106.203 391.866 107.147 392.237 108.673L402.805 152.197C403.176 153.722 402.23 155.273 400.703 155.644Z" fill="#FFBC84"/>
<path fill-rule="evenodd" clip-rule="evenodd" d="M330.309 146.73C333.045 157.999 326.121 169.351 314.842 172.086C303.563 174.82 292.201 167.901 289.465 156.632C286.728 145.362 293.653 134.01 304.931 131.276C316.21 128.541 327.572 135.46 330.309 146.73Z" fill="#FFFFFE"/>
<path fill-rule="evenodd" clip-rule="evenodd" d="M382.697 120.83L335.902 132.174C334.694 132.467 333.467 131.72 333.174 130.513L333.147 130.403C332.854 129.197 333.603 127.97 334.809 127.677L381.604 116.332C382.812 116.039 384.04 116.787 384.333 117.994L384.359 118.104C384.652 119.31 383.904 120.537 382.697 120.83Z" fill="#FFFFFE"/>
<path fill-rule="evenodd" clip-rule="evenodd" d="M385.079 130.64L338.284 141.984C337.076 142.277 335.849 141.529 335.555 140.322L335.529 140.212C335.235 139.006 335.985 137.779 337.192 137.487L383.986 126.142C385.194 125.849 386.422 126.596 386.714 127.803L386.741 127.913C387.034 129.119 386.286 130.346 385.079 130.64Z" fill="#FFFFFE"/>
<path fill-rule="evenodd" clip-rule="evenodd" d="M387.461 140.449L340.666 151.793C339.459 152.086 338.231 151.338 337.937 150.132L337.912 150.022C337.618 148.815 338.366 147.589 339.574 147.296L386.369 135.951C387.576 135.659 388.804 136.406 389.096 137.612L389.124 137.722C389.417 138.929 388.668 140.156 387.461 140.449Z" fill="#FFFFFE"/>
<path fill-rule="evenodd" clip-rule="evenodd" d="M389.843 150.258L343.048 161.603C341.841 161.896 340.613 161.148 340.319 159.941L340.293 159.831C340 158.624 340.748 157.398 341.956 157.105L388.751 145.76C389.958 145.468 391.186 146.215 391.478 147.422L391.505 147.532C391.799 148.738 391.05 149.965 389.843 150.258Z" fill="#FFFFFE"/>
<path fill-rule="evenodd" clip-rule="evenodd" d="M360.487 213.451C360.217 213.451 359.944 213.384 359.691 213.243C357.216 211.858 354.66 210.995 352.093 210.675C351.198 210.563 350.563 209.749 350.674 208.855C350.785 207.96 351.594 207.325 352.496 207.436C355.484 207.808 358.442 208.803 361.286 210.396C362.074 210.836 362.354 211.83 361.913 212.617C361.615 213.151 361.059 213.451 360.487 213.451ZM335.919 215.293C335.405 215.293 334.901 215.052 334.583 214.602C334.063 213.865 334.24 212.847 334.976 212.328C337.613 210.469 340.387 209.097 343.222 208.253C344.085 207.998 344.996 208.486 345.254 209.35C345.512 210.213 345.021 211.123 344.156 211.38C341.661 212.124 339.206 213.34 336.859 214.994C336.573 215.195 336.244 215.293 335.919 215.293ZM372.75 225.578C372.211 225.578 371.684 225.313 371.372 224.826C369.809 222.385 368.063 220.182 366.187 218.282C365.554 217.639 365.561 216.607 366.203 215.974C366.846 215.341 367.88 215.348 368.513 215.989C370.549 218.052 372.437 220.433 374.123 223.067C374.61 223.825 374.388 224.835 373.629 225.321C373.355 225.495 373.051 225.578 372.75 225.578ZM324.731 228.428C324.481 228.428 324.228 228.372 323.991 228.251C323.188 227.842 322.867 226.86 323.275 226.056C324.655 223.346 326.342 220.804 328.288 218.5C328.869 217.81 329.899 217.725 330.59 218.306C331.279 218.888 331.366 219.918 330.784 220.607C329 222.717 327.454 225.049 326.188 227.536C325.899 228.102 325.326 228.428 324.731 228.428ZM379.285 241.621C378.523 241.621 377.841 241.085 377.685 240.309C377.152 237.645 376.329 234.948 375.24 232.288C374.897 231.454 375.298 230.501 376.133 230.159C376.967 229.819 377.922 230.217 378.264 231.052C379.431 233.903 380.315 236.802 380.889 239.668C381.066 240.552 380.491 241.412 379.608 241.59C379.499 241.611 379.391 241.621 379.285 241.621ZM320.916 245.216C320.049 245.216 319.328 244.536 319.285 243.662C319.261 243.159 319.248 242.656 319.248 242.153C319.248 239.663 319.548 237.113 320.143 234.577C320.348 233.697 321.234 233.153 322.105 233.36C322.983 233.564 323.529 234.442 323.323 235.319C322.787 237.612 322.515 239.912 322.515 242.153C322.515 242.604 322.526 243.054 322.549 243.504C322.592 244.405 321.897 245.169 320.996 245.214L320.916 245.216ZM405.678 248.082C405.425 248.082 405.169 248.024 404.93 247.899C404.128 247.487 403.814 246.502 404.228 245.701C405.513 243.214 406.654 240.598 407.618 237.924C407.924 237.076 408.859 236.636 409.708 236.941C410.558 237.247 410.998 238.182 410.692 239.03C409.68 241.839 408.481 244.586 407.129 247.199C406.839 247.76 406.269 248.082 405.678 248.082ZM378.583 258.847C378.439 258.847 378.293 258.827 378.149 258.788C377.279 258.549 376.767 257.651 377.006 256.783C377.771 253.998 378.222 251.234 378.346 248.568C378.387 247.669 379.121 246.979 380.053 247.014C380.954 247.056 381.651 247.819 381.609 248.721C381.474 251.627 380.985 254.629 380.157 257.645C379.958 258.37 379.3 258.847 378.583 258.847ZM326.912 261.264C326.419 261.264 325.931 261.041 325.61 260.619C323.706 258.112 322.206 255.429 321.152 252.641C320.832 251.797 321.258 250.855 322.102 250.537C322.945 250.219 323.888 250.641 324.207 251.486C325.151 253.98 326.498 256.389 328.213 258.644C328.758 259.362 328.618 260.386 327.9 260.931C327.604 261.156 327.257 261.264 326.912 261.264ZM395.65 262.244C395.245 262.244 394.84 262.095 394.524 261.795C393.871 261.175 393.844 260.142 394.466 259.489C396.384 257.47 398.19 255.267 399.829 252.945C400.349 252.209 401.367 252.033 402.106 252.552C402.843 253.072 403.019 254.09 402.499 254.826C400.768 257.279 398.862 259.603 396.834 261.736C396.513 262.073 396.081 262.244 395.65 262.244ZM340.197 272.328C339.934 272.328 339.668 272.265 339.421 272.131C336.709 270.662 334.189 268.978 331.929 267.124C331.232 266.552 331.131 265.523 331.704 264.827C332.278 264.129 333.307 264.029 334.003 264.602C336.103 266.324 338.448 267.892 340.977 269.262C341.771 269.691 342.064 270.681 341.635 271.474C341.339 272.019 340.778 272.328 340.197 272.328ZM381.889 272.794C381.304 272.794 380.739 272.479 380.446 271.928C380.021 271.132 380.325 270.144 381.12 269.72C383.56 268.425 385.941 266.886 388.196 265.149C388.912 264.601 389.938 264.732 390.487 265.445C391.038 266.159 390.906 267.184 390.192 267.734C387.79 269.583 385.255 271.22 382.655 272.602C382.41 272.732 382.148 272.794 381.889 272.794ZM263.295 274.068C262.75 274.068 262.216 273.795 261.907 273.3C260.324 270.763 258.864 268.159 257.569 265.557C257.168 264.75 257.496 263.771 258.305 263.37C259.111 262.968 260.093 263.297 260.495 264.104C261.743 266.612 263.15 269.124 264.678 271.573C265.156 272.337 264.923 273.344 264.157 273.821C263.888 273.988 263.589 274.068 263.295 274.068ZM356.66 277.774L356.45 277.76C353.59 277.392 350.634 276.702 347.665 275.709C346.809 275.422 346.348 274.498 346.634 273.643C346.921 272.789 347.844 272.326 348.702 272.613C351.47 273.54 354.217 274.183 356.866 274.523C357.761 274.638 358.393 275.455 358.277 276.349C358.172 277.173 357.469 277.774 356.66 277.774ZM365.346 277.899C364.516 277.899 363.804 277.269 363.723 276.426C363.634 275.529 364.291 274.73 365.189 274.643C366.753 274.49 368.325 274.24 369.892 273.895C369.467 273.353 369.417 272.577 369.823 271.975C371.44 269.576 372.859 267.109 374.041 264.642C374.43 263.828 375.406 263.482 376.219 263.874C377.033 264.263 377.378 265.237 376.988 266.05C375.855 268.414 374.519 270.776 373.009 273.081C373.132 273.044 373.256 273.006 373.38 272.967C374.246 272.702 375.157 273.18 375.426 274.038C375.694 274.899 375.216 275.814 374.354 276.083C371.435 276.995 368.457 277.603 365.507 277.891L365.346 277.899ZM359.732 287.595C359.285 287.595 358.841 287.413 358.519 287.056C357.914 286.386 357.968 285.354 358.638 284.751C360.764 282.835 362.779 280.797 364.625 278.697C365.221 278.02 366.253 277.952 366.931 278.545C367.608 279.14 367.676 280.171 367.081 280.849C365.15 283.047 363.047 285.174 360.826 287.174C360.513 287.456 360.121 287.595 359.732 287.595ZM273.931 287.839C273.501 287.839 273.072 287.67 272.752 287.336C270.749 285.25 268.801 282.98 266.962 280.591C266.413 279.876 266.547 278.851 267.262 278.302C267.978 277.752 269.002 277.887 269.552 278.602C271.318 280.897 273.187 283.076 275.109 285.075C275.733 285.726 275.713 286.759 275.062 287.383C274.745 287.687 274.337 287.839 273.931 287.839ZM345.587 297.691C345.013 297.691 344.455 297.387 344.157 296.85C343.719 296.062 344.005 295.069 344.793 294.632C347.257 293.266 349.68 291.735 351.995 290.082C352.728 289.558 353.748 289.728 354.275 290.46C354.8 291.194 354.629 292.213 353.896 292.738C351.48 294.463 348.949 296.061 346.377 297.486C346.127 297.625 345.854 297.691 345.587 297.691ZM287.465 298.72C287.18 298.72 286.893 298.646 286.632 298.49C284.129 297.002 281.664 295.281 279.305 293.373C278.604 292.805 278.496 291.777 279.063 291.077C279.632 290.376 280.659 290.267 281.361 290.836C283.599 292.646 285.935 294.277 288.302 295.685C289.077 296.146 289.332 297.148 288.87 297.922C288.564 298.435 288.022 298.72 287.465 298.72ZM329.473 304.207C328.747 304.207 328.086 303.721 327.894 302.989C327.666 302.117 328.187 301.224 329.059 300.996C331.748 300.293 334.459 299.388 337.116 298.308C337.954 297.969 338.905 298.372 339.245 299.205C339.585 300.039 339.183 300.991 338.348 301.332C335.559 302.464 332.712 303.414 329.888 304.154C329.749 304.19 329.609 304.207 329.473 304.207ZM303.595 305.065C303.483 305.065 303.37 305.054 303.255 305.029C300.341 304.415 297.452 303.546 294.668 302.447C293.829 302.115 293.418 301.167 293.749 300.328C294.082 299.489 295.03 299.082 295.87 299.41C298.482 300.443 301.195 301.259 303.931 301.835C304.812 302.021 305.377 302.888 305.192 303.769C305.029 304.538 304.351 305.065 303.595 305.065ZM314.489 306.187C313.714 306.187 312.937 306.171 312.162 306.139C311.26 306.103 310.558 305.343 310.595 304.443C310.631 303.542 311.407 302.846 312.293 302.879C315.092 302.993 317.91 302.888 320.735 302.564C321.628 302.458 322.441 303.104 322.544 303.999C322.647 304.895 322.003 305.704 321.107 305.806C318.899 306.059 316.671 306.187 314.489 306.187Z" fill="#72EFE6"/>
<path fill-rule="evenodd" clip-rule="evenodd" d="M413.442 238.044C412.683 238.044 411.918 238.018 411.149 237.963C410.708 237.931 410.269 237.891 409.834 237.843C414.382 221.341 417.115 205.278 418.26 191.496C418.506 188.533 418.924 182.732 418.967 174.932C434.825 177.722 446.321 192.101 445.154 208.501C443.96 225.252 429.991 238.045 413.442 238.044Z" fill="#E9E8E4"/>
<path fill-rule="evenodd" clip-rule="evenodd" d="M409.834 237.843C396.012 236.292 385.115 226.025 382.294 212.974L390.694 212.441C392.262 212.341 393.463 210.977 393.363 209.411L393.296 208.343L393.479 208.332C395.047 208.231 396.249 206.869 396.149 205.302L394.578 180.608C399.875 176.719 406.395 174.444 413.375 174.444C414.133 174.444 414.898 174.471 415.667 174.526C416.785 174.605 417.886 174.742 418.967 174.932C418.924 182.732 418.506 188.533 418.26 191.496C417.115 205.278 414.382 221.341 409.834 237.843ZM409.155 224.491C408.486 224.491 407.859 224.906 407.618 225.571C406.654 228.245 405.514 230.862 404.228 233.348C403.814 234.149 404.128 235.134 404.93 235.546C405.169 235.671 405.425 235.73 405.678 235.73C406.269 235.73 406.839 235.408 407.129 234.846C408.481 232.233 409.68 229.486 410.692 226.677C410.998 225.829 410.558 224.894 409.708 224.588C409.526 224.523 409.338 224.491 409.155 224.491Z" fill="#D5DBE1"/>
<path fill-rule="evenodd" clip-rule="evenodd" d="M382.294 212.974C382.019 211.702 381.82 210.4 381.704 209.08L393.296 208.343L393.363 209.411C393.463 210.977 392.262 212.341 390.694 212.441L382.294 212.974Z" fill="#C0C4C8"/>
<path fill-rule="evenodd" clip-rule="evenodd" d="M381.704 209.08C381.557 207.412 381.539 205.711 381.662 203.989C381.716 203.222 381.798 202.464 381.905 201.715L383.749 201.598C384.99 201.519 385.94 200.441 385.861 199.201L385.853 199.088C385.777 197.898 384.778 196.975 383.599 196.975C383.552 196.975 383.503 196.976 383.456 196.979L382.946 197.012C384.971 190.317 389.127 184.609 394.578 180.608L396.149 205.302C396.249 206.869 395.047 208.231 393.479 208.332L393.296 208.343L381.704 209.08Z" fill="#E9E9E4"/>
<path fill-rule="evenodd" clip-rule="evenodd" d="M381.905 201.715C382.136 200.102 382.486 198.531 382.946 197.012L383.456 196.979C383.503 196.976 383.552 196.975 383.599 196.975C384.778 196.975 385.777 197.898 385.853 199.088L385.861 199.201C385.94 200.441 384.99 201.519 383.749 201.598L381.905 201.715Z" fill="#D5DBE1"/>
<path fill-rule="evenodd" clip-rule="evenodd" d="M405.678 235.73C405.425 235.73 405.169 235.671 404.93 235.546C404.128 235.134 403.814 234.149 404.228 233.348C405.514 230.862 406.654 228.245 407.618 225.571C407.859 224.906 408.486 224.491 409.155 224.491C409.339 224.491 409.526 224.523 409.708 224.588C410.558 224.894 410.998 225.829 410.692 226.677C409.68 229.486 408.481 232.233 407.129 234.846C406.839 235.408 406.269 235.73 405.678 235.73Z" fill="#4FB8A0"/>
<path fill-rule="evenodd" clip-rule="evenodd" d="M451.919 204.702C450.671 222.22 435.447 235.411 417.914 234.165C400.381 232.918 387.18 217.707 388.427 200.189C389.675 182.671 404.898 169.481 422.431 170.727C439.965 171.973 453.165 187.185 451.919 204.702Z" fill="white"/>
<path d="M434.391 222.878C434.532 221.909 434.768 220.943 434.795 219.971C434.869 217.636 434.771 215.293 434.921 212.963C435.007 212.202 435.384 211.504 435.973 211.015C437.937 209.545 440.038 208.264 442.05 206.856C444.574 205.082 445.204 202.17 443.613 199.833C442.005 197.473 439.09 196.985 436.492 198.692C433.999 200.328 431.538 202.012 429.064 203.682C426.4 205.484 425.035 207.994 424.994 211.212C424.954 214.367 424.86 217.523 424.913 220.677C424.954 223.096 426.575 224.911 428.871 225.382C430.978 225.815 433.17 224.774 434.391 222.878Z" fill="#38DBD0"/>
<path d="M409.908 180.068C410.828 180.405 411.79 180.659 412.661 181.094C414.754 182.137 416.77 183.336 418.892 184.315C419.603 184.601 420.397 184.601 421.107 184.315C423.333 183.286 425.461 182.05 427.654 180.946C430.424 179.562 433.282 180.394 434.578 182.903C435.894 185.437 434.94 188.23 432.201 189.706C429.576 191.12 426.926 192.486 424.281 193.863C421.428 195.351 418.574 195.351 415.72 193.863C412.922 192.4 410.098 190.984 407.346 189.439C405.235 188.256 404.405 185.967 405.08 183.725C405.703 181.67 407.659 180.243 409.908 180.068Z" fill="#f1c012"/>
<path d="M405.659 222.878C405.518 221.909 405.281 220.943 405.255 219.971C405.18 217.636 405.279 215.293 405.129 212.963C405.043 212.202 404.666 211.504 404.076 211.015C402.112 209.545 400.011 208.264 397.999 206.856C395.475 205.082 394.846 202.17 396.437 199.833C398.045 197.473 400.959 196.985 403.558 198.692C406.05 200.328 408.512 202.012 410.985 203.682C413.649 205.484 415.014 207.994 415.056 211.212C415.096 214.367 415.189 217.523 415.136 220.677C415.096 223.096 413.474 224.911 411.178 225.382C409.072 225.815 406.88 224.774 405.659 222.878Z" fill="#2e90fa"/>
</svg>
