<?xml version="1.0" encoding="UTF-8"?>
<svg width="19px" height="21px" viewBox="0 0 19 21" version="1.1" xmlns="http://www.w3.org/2000/svg" xmlns:xlink="http://www.w3.org/1999/xlink">
    <!-- Generator: Sketch 59 (86127) - https://sketch.com -->
    <title>Group 15</title>
    <desc>Created with Sketch.</desc>
    <g id="Lease-Summary-" stroke="none" stroke-width="1" fill="none" fill-rule="evenodd">
        <g id="Group-15" transform="translate(0.516207, 0.614553)" fill="#B6B6B6">
            <path d="M16,0 C17.103,0 18,0.896 18,2 L18,2 L18,18 C18,19.103 17.103,20 16,20 L16,20 L4,20 C2.897,20 2,19.103 2,18 L2,18 L2,16 L0,16 L0,14 L4,14 L4,13 L2,13 L2,11 L0,11 L0,9 L4,9 L4,8 L2,8 L2,6 L0,6 L0,4 L4,4 L4,3 L2,3 L2,2 C2,0.896 2.897,0 4,0 L4,0 Z M10.2194618,5.81334982 L6.00754147,9.90592755 C5.87369601,10.0359806 5.83344877,10.2315148 5.9059874,10.4015842 C5.97852602,10.5716535 6.14934279,10.6821531 6.33841121,10.6821531 L7.2743935,10.6821531 L7.2743935,13.6012785 C7.2743935,13.9982174 7.5904041,14.32 8.00059226,14.32 L13.1000707,14.32 C13.5011392,14.32 13.8262695,13.9971654 13.8262695,13.6012785 L13.8262695,10.6821531 L14.7622518,10.6821531 C14.9513202,10.6821531 15.122137,10.5716535 15.1946756,10.4015842 C15.2672142,10.2315148 15.226967,10.0359806 15.0931215,9.90592755 L10.8812012,5.81334982 C10.6982167,5.63555006 10.4024463,5.63555006 10.2194618,5.81334982 Z" id="Combined-Shape"></path>
        </g>
    </g>
</svg>