<svg xmlns="http://www.w3.org/2000/svg" width="48" height="52" viewBox="0 0 48 52">
    <path fill="#FFF" fill-rule="evenodd" d="M42.2 0c2.868 0 5.2 2.33 5.2 5.2v41.6c0 2.868-2.332 5.2-5.2 5.2H11a5.205 5.205 0 0 1-5.2-5.2v-5.2H.6v-5.2H11v-2.6H5.8v-5.2H.6v-5.2H11v-2.6H5.8v-5.2H.6v-5.2H11V7.8H5.8V5.2C5.8 2.33 8.132 0 11 0zM27.17 15.115l-10.95 10.64a1.158 1.158 0 0 0-.264 1.29c.188.441.632.729 1.124.729h2.433v8.747c0 .393.326.711.71.711h15.615c.392 0 .71-.315.71-.71v-8.748h2.434c.491 0 .936-.288 1.124-.73.189-.442.084-.95-.264-1.289l-10.95-10.64a1.24 1.24 0 0 0-1.721 0z"/>
</svg>
