<svg xmlns="http://www.w3.org/2000/svg" width="82" height="82" viewBox="0 0 82 82">
    <defs>
        <filter id="a" width="107.9%" height="128.1%" x="-3.9%" y="-14.1%" filterUnits="objectBoundingBox">
            <feOffset dy="3" in="SourceAlpha" result="shadowOffsetOuter1"/>
            <feGaussianBlur in="shadowOffsetOuter1" result="shadowBlurOuter1" stdDeviation="2"/>
            <feColorMatrix in="shadowBlurOuter1" result="shadowMatrixOuter1" values="0 0 0 0 0 0 0 0 0 0 0 0 0 0 0 0 0 0 0.15 0"/>
            <feMerge>
                <feMergeNode in="shadowMatrixOuter1"/>
                <feMergeNode in="SourceGraphic"/>
            </feMerge>
        </filter>
    </defs>
    <g fill="none" fill-rule="evenodd" filter="url(#a)" transform="translate(-5 -8)">
        <g fill="#00A99F" transform="translate(9 9)">
            <circle cx="37" cy="37" r="30"/>
            <circle cx="37" cy="37" r="37" fill-opacity=".151"/>
        </g>
        <path d="M26 27h39v39H26z"/>
        <path fill="#FFF" fill-rule="nonzero" d="M57.975 52.534c-2 0-3.933-.325-5.737-.91a1.588 1.588 0 0 0-1.64.39l-2.552 3.201c-4.599-2.193-8.905-6.337-11.196-11.098l3.168-2.698a1.658 1.658 0 0 0 .39-1.657 18.123 18.123 0 0 1-.91-5.737c0-.877-.73-1.608-1.608-1.608h-5.623c-.877 0-1.934.39-1.934 1.608 0 15.097 12.562 27.642 27.642 27.642 1.153 0 1.608-1.024 1.608-1.918v-5.606c0-.878-.73-1.609-1.608-1.609z"/>
    </g>
</svg>
