<svg id="Layer_12" data-name="Layer 12" xmlns="http://www.w3.org/2000/svg" viewBox="0 0 682.77 199.5"><defs><style>.cls-1{fill:#ffffff;}</style></defs><title>Trudi_logo_final</title><path class="cls-1" fill="#ffffff" d="M291.4,193.9c2.9,3.5,7.3,5.8,13.7,5.8a34.43,34.43,0,0,0,11.4-2.2,9.69,9.69,0,0,1,11.8,4.8h0a9.66,9.66,0,0,1-4.3,13,6.12,6.12,0,0,1-1.2.5,55.83,55.83,0,0,1-17.6,3.2c-12.9,0-23.7-5.3-30.1-13.4-8.2-10.2-8.2-21.3-8.2-38V54.8a10.24,10.24,0,0,1,10.2-10.2h0a10.24,10.24,0,0,1,10.2,10.2V77.6h26a9.11,9.11,0,0,1,9.1,9h0a9,9,0,0,1-9,9.1h-26v71.9C287.3,183.3,287.3,188.6,291.4,193.9Z" transform="translate(-73.73 -19.7)"/><path class="cls-1" fill="#ffffff" d="M420.3,90.9l-.1.3a9.44,9.44,0,0,1-10.4,6.3,40.32,40.32,0,0,0-6-.4c-10.5,0-20.5,3.8-26,10.5-7,8.2-7,20.5-7,38.9V209a10.24,10.24,0,0,1-10.2,10.2h0A10.24,10.24,0,0,1,350.4,209h0V146.5c0-23.7,0-37.4,11.7-51.1,11.4-13.4,28.4-17.5,41.8-17.5a63.6,63.6,0,0,1,8.7.6,9.58,9.58,0,0,1,8.2,10.8C420.6,89.8,420.5,90.4,420.3,90.9Z" transform="translate(-73.73 -19.7)"/><path class="cls-1" fill="#ffffff" d="M449.7,77.6a10.24,10.24,0,0,1,10.2,10.2h0v64.6c0,18.1,0,30.4,8.5,38.9,5,5,12.6,8.5,22.2,8.5s17.2-3.5,22.2-8.5c8.5-8.5,8.5-20.8,8.5-38.9V87.8a10.24,10.24,0,0,1,10.2-10.2h0a10.24,10.24,0,0,1,10.2,10.2h0v64.6c0,20.5,0,37.4-13.7,51.7-7,7.3-19.6,14.9-37.4,14.9s-30.4-7.6-37.4-14.9c-13.7-14.3-13.7-31.3-13.7-51.7V87.8a10.18,10.18,0,0,1,10.2-10.2Z" transform="translate(-73.73 -19.7)"/><path class="cls-1" fill="#ffffff" d="M699.6,77.8c-5.6,0-10.2,5.4-10.2,10V209.3c0,4.6,4.6,9.9,10.2,9.9s10.2-5.3,10.2-9.9V87.8C709.8,83.1,705.2,77.7,699.6,77.8Z" transform="translate(-73.73 -19.7)"/><circle fill="#ffffff" class="cls-1" cx="699.57" cy="52.11" r="10.2" transform="translate(94.33 490.24) rotate(-45)"/><path class="cls-1" fill="#ffffff" d="M709.8,219" transform="translate(-73.73 -19.7)"/><path class="cls-1" d="M303,219" transform="translate(-73.73 -19.7)"/><path class="cls-1" fill="#ffffff" d="M668.3,34.9V169.3c0,27.4-23.5,49.8-53.2,49.8s-54.4-24.7-54.4-52.2c-.2-7.3-.4-14.5-.6-21.8l.6-16.8c.7-26.8,19.6-51.5,54.4-51,18.4.3,28.8,10.7,32.6,17.4V34.9A10.06,10.06,0,0,1,658,24.5,10.18,10.18,0,0,1,668.3,34.9Zm-20.6,93.3c0-14.1-14.3-30.9-32.6-30.9-21.8,0-32.7,16-34.5,31.6-1,5.3-1,11.9-1,18.7s.4,14.3,1,20c.9,22.3,19.1,31.7,34.5,31.7,4.1,0,18.4-.8,27.1-12.6,5.1-7,5.9-16.3,6.1-19.6.4-6.3.5-11.1.4-18.2C648.6,141.6,648.2,134.7,647.7,128.2Z" transform="translate(-73.73 -19.7)"/><path class="cls-1" fill="#ffffff" d="M126.8,96.1A10.33,10.33,0,0,1,122,76.7l18.5-9.8a18.29,18.29,0,0,1,17.3,0l18.5,9.7a10.36,10.36,0,1,1-9.7,18.3l-17.5-9.2-17.6,9.2A9.13,9.13,0,0,1,126.8,96.1Z" transform="translate(-73.73 -19.7)"/><path class="cls-1" fill="#ffffff" d="M110.2,157.9a10.09,10.09,0,0,1-6.2-2.1A75.6,75.6,0,0,1,149.3,19.7h0a75.6,75.6,0,0,1,45.6,135.9,10.32,10.32,0,0,1-12.8-16.2c.1-.1.2-.2.3-.2a54.9,54.9,0,0,0-33.1-98.7h0a54.88,54.88,0,0,0-32.8,98.9,10.36,10.36,0,0,1,2.1,14.5,11.1,11.1,0,0,1-8.4,4Z" transform="translate(-73.73 -19.7)"/><path class="cls-1" fill="#ffffff" d="M745,24.7a11.5,11.5,0,1,0,11.5,11.5A11.63,11.63,0,0,0,745,24.7Zm-.1,20.6a9.1,9.1,0,1,1,9.1-9.1A9.07,9.07,0,0,1,744.9,45.3Z" transform="translate(-73.73 -19.7)"/><path class="cls-1" fill="#ffffff" d="M749.7,39.8a17.38,17.38,0,0,0-1-1.9,2.73,2.73,0,0,0-1.8-1.5c.2-.1.5-.2.7-.3a2.8,2.8,0,0,0,1.5-1.7,3.67,3.67,0,0,0,.1-1.8,3,3,0,0,0-.5-1.3,3.07,3.07,0,0,0-1.5-1,5.83,5.83,0,0,0-2.3-.3H740c-.1,0-.1,0-.1.1V41.9c0,.1,0,.1.1.1h2.9c.1,0,.1,0,.1-.1V37.5a.1.1,0,0,1,.1-.1h1.2a1.74,1.74,0,0,1,1.1.6,2.18,2.18,0,0,1,.5.8l1.5,3a.1.1,0,0,0,.1.1h3.2a.1.1,0,0,0-.1-.1A17.6,17.6,0,0,0,749.7,39.8Zm-3.6-5.5a1.17,1.17,0,0,1-1,.9,1.7,1.7,0,0,1-.7.1h-1.2c-.1,0-.1,0-.1-.1v-3c0-.1,0-.1.1-.1h1.4a2.2,2.2,0,0,1,.8.1,1.08,1.08,0,0,1,.8.9A4.87,4.87,0,0,1,746.1,34.3Z" transform="translate(-73.73 -19.7)"/></svg>