<svg width="163" height="24" viewBox="0 0 163 24" fill="none" xmlns="http://www.w3.org/2000/svg">
<path d="M8.6567 24C6.60964 24 4.88022 23.5765 3.46846 22.7294C2.08022 21.8824 0.93904 20.5882 0.0449219 18.8471L4.42139 16.6588C4.72728 17.6941 5.20963 18.5294 5.86845 19.1647C6.52727 19.8 7.49199 20.1176 8.76258 20.1176C9.63316 20.1176 10.3743 19.9647 10.9861 19.6588C11.5979 19.3529 12.0685 18.9059 12.3979 18.3176C12.7508 17.7294 12.9273 17.0118 12.9273 16.1647C12.9273 15.3176 12.7626 14.6118 12.4332 14.0471C12.1273 13.4588 11.6802 13.0235 11.092 12.7412C10.5038 12.4353 9.76257 12.2824 8.86845 12.2824C8.25669 12.2824 7.68022 12.3412 7.13905 12.4588C6.6214 12.5765 6.15081 12.7647 5.72728 13.0235C5.30375 13.2588 4.92728 13.5765 4.59787 13.9765L0.786112 13.2706L2.23317 0.352941H16.3155V4.27059H5.90376L5.19788 9.95294L5.09199 10.4118H5.16257C5.65669 9.84706 6.32728 9.41176 7.17434 9.10588C8.04493 8.8 9.03317 8.64706 10.139 8.64706C11.6685 8.64706 12.9743 8.95294 14.0567 9.5647C15.1391 10.1765 15.9743 11.0353 16.5626 12.1412C17.1508 13.2235 17.4449 14.4706 17.4449 15.8824C17.4449 17.2235 17.2214 18.4118 16.7743 19.4471C16.3273 20.4588 15.692 21.3059 14.8685 21.9882C14.0685 22.6471 13.139 23.1529 12.0802 23.5059C11.0214 23.8353 9.88023 24 8.6567 24Z" fill="#646464" fill-opacity="0.6"/>
<path d="M30.3284 24C27.3401 24 25.0343 22.9882 23.4107 20.9647C21.8107 18.9412 21.0107 15.9529 21.0107 12C21.0107 8.04706 21.8107 5.05882 23.4107 3.03529C25.0343 1.01176 27.3401 0 30.3284 0C33.3166 0 35.6107 1.01176 37.2107 3.03529C38.8343 5.05882 39.646 8.04706 39.646 12C39.646 15.9529 38.8343 18.9412 37.2107 20.9647C35.6107 22.9882 33.3166 24 30.3284 24ZM30.3284 20.0824C31.3401 20.0824 32.1637 19.8 32.799 19.2353C33.4578 18.6471 33.9519 17.7647 34.2813 16.5882C34.6107 15.3882 34.7755 13.8588 34.7755 12C34.7755 10.1412 34.6107 8.62353 34.2813 7.44706C33.9519 6.24706 33.4578 5.3647 32.799 4.8C32.1637 4.21176 31.3401 3.91765 30.3284 3.91765C29.3166 3.91765 28.4813 4.21176 27.8225 4.8C27.1637 5.3647 26.6696 6.24706 26.3401 7.44706C26.0343 8.62353 25.8813 10.1412 25.8813 12C25.8813 13.8588 26.0343 15.3882 26.3401 16.5882C26.6696 17.7647 27.1637 18.6471 27.8225 19.2353C28.4813 19.8 29.3166 20.0824 30.3284 20.0824Z" fill="#646464" fill-opacity="0.6"/>
<path d="M52.7663 24C49.7781 24 47.4722 22.9882 45.8487 20.9647C44.2487 18.9412 43.4487 15.9529 43.4487 12C43.4487 8.04706 44.2487 5.05882 45.8487 3.03529C47.4722 1.01176 49.7781 0 52.7663 0C55.7546 0 58.0487 1.01176 59.6487 3.03529C61.2722 5.05882 62.084 8.04706 62.084 12C62.084 15.9529 61.2722 18.9412 59.6487 20.9647C58.0487 22.9882 55.7546 24 52.7663 24ZM52.7663 20.0824C53.7781 20.0824 54.6017 19.8 55.2369 19.2353C55.8958 18.6471 56.3899 17.7647 56.7193 16.5882C57.0487 15.3882 57.2134 13.8588 57.2134 12C57.2134 10.1412 57.0487 8.62353 56.7193 7.44706C56.3899 6.24706 55.8958 5.3647 55.2369 4.8C54.6017 4.21176 53.7781 3.91765 52.7663 3.91765C51.7546 3.91765 50.9193 4.21176 50.2605 4.8C49.6016 5.3647 49.1075 6.24706 48.7781 7.44706C48.4722 8.62353 48.3193 10.1412 48.3193 12C48.3193 13.8588 48.4722 15.3882 48.7781 16.5882C49.1075 17.7647 49.6016 18.6471 50.2605 19.2353C50.9193 19.8 51.7546 20.0824 52.7663 20.0824Z" fill="#646464" fill-opacity="0.6"/>
<path d="M77.8042 23.6471V0.352941H95.2748V4.27059H82.6748V10.0588H92.5924V13.8H82.6748V19.7294H95.7689V23.6471H77.8042Z" fill="#646464" fill-opacity="0.6"/>
<path d="M99.6446 23.6471V6H103.845L104.162 9.45882C104.633 8.23529 105.315 7.29412 106.209 6.63529C107.127 5.97647 108.268 5.64706 109.633 5.64706C110.033 5.64706 110.398 5.68235 110.727 5.75294C111.056 5.82353 111.327 5.91765 111.539 6.03529L110.974 10.0941C110.739 10 110.445 9.92941 110.092 9.88235C109.762 9.83529 109.327 9.81176 108.786 9.81176C108.08 9.81176 107.398 9.98824 106.739 10.3412C106.08 10.6706 105.539 11.1882 105.115 11.8941C104.692 12.5765 104.48 13.4471 104.48 14.5059V23.6471H99.6446Z" fill="#646464" fill-opacity="0.6"/>
<path d="M114.534 23.6471V6H118.734L119.052 9.45882C119.523 8.23529 120.205 7.29412 121.099 6.63529C122.017 5.97647 123.158 5.64706 124.523 5.64706C124.923 5.64706 125.287 5.68235 125.617 5.75294C125.946 5.82353 126.217 5.91765 126.428 6.03529L125.864 10.0941C125.628 10 125.334 9.92941 124.981 9.88235C124.652 9.83529 124.217 9.81176 123.676 9.81176C122.97 9.81176 122.287 9.98824 121.628 10.3412C120.97 10.6706 120.428 11.1882 120.005 11.8941C119.581 12.5765 119.37 13.4471 119.37 14.5059V23.6471H114.534Z" fill="#646464" fill-opacity="0.6"/>
<path d="M137.126 5.64706C138.915 5.64706 140.479 6.01176 141.821 6.74118C143.185 7.47059 144.244 8.51765 144.997 9.88235C145.773 11.2471 146.162 12.8941 146.162 14.8235C146.162 16.7294 145.773 18.3765 144.997 19.7647C144.244 21.1294 143.185 22.1765 141.821 22.9059C140.479 23.6353 138.915 24 137.126 24C135.362 24 133.797 23.6353 132.432 22.9059C131.068 22.1765 129.997 21.1294 129.221 19.7647C128.468 18.3765 128.091 16.7294 128.091 14.8235C128.091 12.8941 128.468 11.2471 129.221 9.88235C129.997 8.51765 131.068 7.47059 132.432 6.74118C133.797 6.01176 135.362 5.64706 137.126 5.64706ZM137.126 9.24706C136.232 9.24706 135.468 9.45882 134.832 9.88235C134.221 10.2824 133.75 10.8941 133.421 11.7176C133.091 12.5412 132.926 13.5765 132.926 14.8235C132.926 16.0706 133.091 17.1059 133.421 17.9294C133.75 18.7529 134.221 19.3765 134.832 19.8C135.468 20.2 136.232 20.4 137.126 20.4C137.997 20.4 138.738 20.2 139.35 19.8C139.985 19.3765 140.468 18.7529 140.797 17.9294C141.126 17.1059 141.291 16.0706 141.291 14.8235C141.291 13.5765 141.126 12.5412 140.797 11.7176C140.468 10.8941 139.985 10.2824 139.35 9.88235C138.738 9.45882 137.997 9.24706 137.126 9.24706Z" fill="#646464" fill-opacity="0.6"/>
<path d="M150.208 23.6471V6H154.408L154.725 9.45882C155.196 8.23529 155.878 7.29412 156.772 6.63529C157.69 5.97647 158.831 5.64706 160.196 5.64706C160.596 5.64706 160.961 5.68235 161.29 5.75294C161.619 5.82353 161.89 5.91765 162.102 6.03529L161.537 10.0941C161.302 10 161.008 9.92941 160.655 9.88235C160.325 9.83529 159.89 9.81176 159.349 9.81176C158.643 9.81176 157.961 9.98824 157.302 10.3412C156.643 10.6706 156.102 11.1882 155.678 11.8941C155.255 12.5765 155.043 13.4471 155.043 14.5059V23.6471H150.208Z" fill="#646464" fill-opacity="0.6"/>
</svg>
