<svg width="14" height="15" viewBox="0 0 14 15" fill="none" xmlns="http://www.w3.org/2000/svg">
<path d="M0.589579 15C0.396384 15 0.249822 14.9413 0.149893 14.8239C0.0499643 14.6999 0 14.5956 0 14.5108C0 14.4194 0.00999286 14.3477 0.0299786 14.2955L5.07637 1.00783C5.30288 0.427267 5.66595 0.101109 6.1656 0.0293542C6.33881 0.00978474 6.54532 0 6.78515 0H6.95503C7.40804 0 7.72115 0.0554468 7.89436 0.166341C8.17416 0.335943 8.39067 0.606654 8.5439 0.978474L13.97 14.3053C13.99 14.3575 14 14.4325 14 14.5303C14 14.6217 13.96 14.7228 13.8801 14.8337C13.8001 14.9446 13.6669 15 13.4804 15H12.5C12.1936 15 12.1199 14.7805 12 14.5L10.5 11H3.5L2 14.5C1.90673 14.7805 1.81311 15 1.5 15H0.589579ZM10 9.28571C9.98001 9.22048 6.91506 2 6.8551 2C6.79515 2 4.01999 9.22048 4 9.28571H10Z" fill="#999999"/>
</svg>
