<?xml version="1.0" encoding="UTF-8"?>
<svg width="50px" height="50px" viewBox="0 0 50 50" version="1.1" xmlns="http://www.w3.org/2000/svg" xmlns:xlink="http://www.w3.org/1999/xlink">
    <title>My Account</title>
    <defs>
        <path d="M113.125449,583.4375 C113.221879,582.65625 113.286167,581.84375 113.286167,581 C113.286167,580.15625 113.221879,579.34375 113.093305,578.5625 L118.525575,574.4375 C119.007729,574.0625 119.136304,573.375 118.847011,572.84375 L113.704034,564.1875 C113.382598,563.625 112.707582,563.4375 112.128997,563.625 L105.732418,566.125 C104.382386,565.125 102.968068,564.3125 101.393031,563.6875 L100.428722,557.0625 C100.332291,556.4375 99.78585,556 99.1429778,556 L88.8570222,556 C88.21415,556 87.6998522,556.4375 87.6034214,557.0625 L86.639113,563.6875 C85.0640761,564.3125 83.6176136,565.15625 82.2997255,566.125 L75.9031469,563.625 C75.3245619,563.40625 74.6495461,563.625 74.32811,564.1875 L69.1851322,572.84375 C68.8636961,573.40625 68.9922705,574.0625 69.5065683,574.4375 L74.9388386,578.5625 C74.8102641,579.34375 74.7138333,580.1875 74.7138333,581 C74.7138333,581.8125 74.7781205,582.65625 74.906695,583.4375 L69.4744247,587.5625 C68.9922705,587.9375 68.8636961,588.625 69.1529886,589.15625 L74.2959663,597.8125 C74.6174025,598.375 75.2924183,598.5625 75.8710033,598.375 L82.2675819,595.875 C83.6176136,596.875 85.0319325,597.6875 86.6069694,598.3125 L87.5712778,604.9375 C87.6998522,605.5625 88.21415,606 88.8570222,606 L99.1429778,606 C99.78585,606 100.332291,605.5625 100.396579,604.9375 L101.360887,598.3125 C102.935924,597.6875 104.382386,596.84375 105.700274,595.875 L112.096853,598.375 C112.675438,598.59375 113.350454,598.375 113.67189,597.8125 L118.814868,589.15625 C119.136304,588.59375 119.007729,587.9375 118.493432,587.5625 L113.125449,583.4375 L113.125449,583.4375 Z M94,590 C89.05,590 85,585.95 85,581 C85,576.05 89.05,572 94,572 C98.95,572 103,576.05 103,581 C103,585.95 98.95,590 94,590 Z" id="path-1"></path>
    </defs>
    <g id="New-Property-Menu" stroke="none" stroke-width="1" fill="none" fill-rule="evenodd">
        <g id="Pre-defined-Topic-Icons" transform="translate(-69.000000, -556.000000)">
            <mask id="mask-2" fill="white">
                <use xlink:href="#path-1"></use>
            </mask>
            <use id="My-Account" fill="#FFFFFF" fill-rule="nonzero" xlink:href="#path-1"></use>
        </g>
    </g>
</svg>