<svg width="21" height="21" viewBox="0 0 21 21" fill="none" xmlns="http://www.w3.org/2000/svg">
<path d="M20.9163 3.33301V5.49967H17.6663V8.74967H15.4997V5.49967H12.2497V3.33301H15.4997V0.0830078H17.6663V3.33301H20.9163ZM11.708 10.9163C12.605 10.9163 13.333 10.1883 13.333 9.29134C13.333 8.39434 12.605 7.66634 11.708 7.66634C10.811 7.66634 10.083 8.39434 10.083 9.29134C10.083 10.1883 10.811 10.9163 11.708 10.9163ZM15.4997 14.4198L14.9439 13.8023C14.0838 12.8436 12.5823 12.8436 11.7199 13.8023L11.0103 14.5932L5.74967 8.74967L2.49967 12.3604V5.49967H10.083V3.33301H2.49967C1.30259 3.33301 0.333008 4.30259 0.333008 5.49967V18.4997C0.333008 19.6968 1.30259 20.6663 2.49967 20.6663H15.4997C16.6968 20.6663 17.6663 19.6968 17.6663 18.4997V10.9163H15.4997V14.4198Z" fill="#28ad99"/>
</svg>
