<svg width="16" height="16" viewBox="0 0 16 16" fill="none" xmlns="http://www.w3.org/2000/svg">
  <path d="M8.63772 3.038C8.63772 2.68566 8.35209 2.40002 7.99975 2.40002C7.6474 2.40002 7.36177 2.68566 7.36177 3.038V7.36219H3.038C2.68566 7.36219 2.40002 7.64782 2.40002 8.00016C2.40002 8.35251 2.68566 8.63814 3.038 8.63814H7.36177V12.9621C7.36177 13.3144 7.6474 13.6 7.99975 13.6C8.35209 13.6 8.63772 13.3144 8.63772 12.9621V8.63814H12.9621C13.3144 8.63814 13.6 8.35251 13.6 8.00016C13.6 7.64782 13.3144 7.36219 12.9621 7.36219H8.63772V3.038Z" fill="#D8DCDF"/>
</svg>
