<svg width="20" height="20" viewBox="0 0 20 20" fill="none" xmlns="http://www.w3.org/2000/svg">
<rect width="20" height="20" fill="white"/>
<path d="M17.917 12.9154C17.9176 12.8307 17.8738 12.7519 17.8016 12.7076H17.8004L17.7958 12.7051L14.0421 10.483C14.0259 10.4721 14.009 10.4621 13.9917 10.4531C13.8467 10.3783 13.6746 10.3783 13.5296 10.4531C13.5123 10.4621 13.4955 10.4721 13.4792 10.483L9.72548 12.7051L9.72095 12.7076C9.60622 12.7789 9.57105 12.9298 9.64239 13.0445C9.66341 13.0783 9.69237 13.1065 9.72674 13.1265L13.4805 15.3486C13.4968 15.3594 13.5136 15.3694 13.5309 15.3786C13.6758 15.4533 13.848 15.4533 13.9929 15.3786C14.0103 15.3694 14.0271 15.3594 14.0433 15.3486L17.7971 13.1265C17.8721 13.0828 17.9179 13.0022 17.917 12.9154Z" fill="#0A2767"/>
<path d="M10.1635 11.4319H12.6269V13.69H10.1635V11.4319ZM17.4136 9.13659V8.10367C17.4195 7.84541 17.2151 7.63119 16.9568 7.625H10.5643C10.306 7.63119 10.1016 7.84541 10.1075 8.10367V9.13659L13.8865 10.1443L17.4136 9.13659Z" fill="#0364B8"/>
<path d="M10.1074 9.13672H12.6267V11.4041H10.1074V9.13672Z" fill="#0078D4"/>
<path d="M15.1463 9.13672H12.627V11.4041L15.1463 13.6715H17.4137V11.4041L15.1463 9.13672Z" fill="#28A8EA"/>
<path d="M12.627 11.4041H15.1463V13.6714H12.627V11.4041Z" fill="#0078D4"/>
<path d="M12.627 13.6714H15.1463V15.9388H12.627V13.6714Z" fill="#0364B8"/>
<path d="M10.1641 13.6899H12.6274V15.7427H10.1641V13.6899Z" fill="#14447D"/>
<path d="M15.1455 13.6714H17.4129V15.9388H15.1455V13.6714Z" fill="#0078D4"/>
<path d="M17.8019 13.1128L17.7971 13.1153L14.0433 15.2265C14.0269 15.2366 14.0103 15.2461 13.9929 15.2547C13.9292 15.2851 13.8599 15.3022 13.7894 15.3051L13.5843 15.1852C13.567 15.1765 13.5501 15.1668 13.5339 15.1562L9.72973 12.9851H9.72797L9.60352 12.9155V17.1893C9.60546 17.4744 9.83811 17.704 10.1232 17.7022H17.4056C17.4099 17.7022 17.4136 17.7002 17.4182 17.7002C17.4784 17.6964 17.5378 17.684 17.5945 17.6634C17.619 17.653 17.6427 17.6407 17.6653 17.6266C17.6822 17.6171 17.7112 17.5962 17.7112 17.5962C17.8402 17.5007 17.9166 17.3498 17.9172 17.1893V12.9155C17.9172 12.9973 17.8731 13.0726 17.8019 13.1128Z" fill="url(#paint0_linear_6167_28200)"/>
<path opacity="0.5" d="M17.7157 12.8986V13.1606L13.7906 15.8631L9.72694 12.9868C9.72694 12.9854 9.72581 12.9843 9.72442 12.9843L9.35156 12.7601V12.5711L9.50524 12.5686L9.83023 12.755L9.83778 12.7576L9.8655 12.7752C9.8655 12.7752 13.6848 14.9544 13.6949 14.9594L13.841 15.0451C13.8536 15.04 13.8662 15.035 13.8813 15.03C13.8888 15.0249 17.6728 12.8961 17.6728 12.8961L17.7157 12.8986Z" fill="#0A2767"/>
<path d="M17.8019 13.1128L17.7971 13.1156L14.0433 15.2267C14.0269 15.2368 14.0103 15.2464 13.9929 15.255C13.8471 15.3262 13.6766 15.3262 13.5309 15.255C13.5136 15.2464 13.4968 15.237 13.4805 15.2267L9.72671 13.1156L9.72218 13.1128C9.6497 13.0735 9.60427 12.998 9.60352 12.9155V17.1893C9.60532 17.4744 9.83789 17.704 10.123 17.7022C10.123 17.7022 10.123 17.7022 10.123 17.7022H17.3978C17.6829 17.704 17.9154 17.4744 17.9172 17.1893C17.9172 17.1893 17.9172 17.1893 17.9172 17.1893V12.9155C17.9172 12.9973 17.8731 13.0726 17.8019 13.1128Z" fill="#1490DF"/>
<path opacity="0.1" d="M14.0976 15.1956L14.0414 15.227C14.0251 15.2374 14.0083 15.2469 13.991 15.2555C13.9291 15.2859 13.8618 15.3037 13.793 15.3079L15.2212 16.9969L17.7125 17.5972C17.7808 17.5457 17.8351 17.4778 17.8705 17.4L14.0976 15.1956Z" fill="black"/>
<path opacity="0.05" d="M14.352 15.0525L14.0414 15.2271C14.0251 15.2374 14.0083 15.2469 13.991 15.2555C13.9291 15.2859 13.8618 15.3037 13.793 15.3079L14.4621 17.1528L17.7133 17.5965C17.8413 17.5003 17.9168 17.3495 17.9168 17.1894V17.1342L14.352 15.0525Z" fill="black"/>
<path d="M10.1301 17.7022H17.397C17.5088 17.7028 17.6179 17.6675 17.7081 17.6014L13.584 15.1857C13.5667 15.177 13.5499 15.1673 13.5336 15.1567L9.72948 12.9856H9.72771L9.60352 12.9155V17.1747C9.60323 17.4658 9.83897 17.7019 10.1301 17.7022C10.13 17.7022 10.13 17.7022 10.1301 17.7022Z" fill="#28A8EA"/>
<path opacity="0.1" d="M13.1306 10.1022V15.4759C13.1301 15.6643 13.0155 15.8336 12.8408 15.9042C12.7867 15.9274 12.7284 15.9394 12.6695 15.9394H9.60352V9.89231H10.1074V9.64038H12.6695C12.924 9.64135 13.13 9.84765 13.1306 10.1022Z" fill="black"/>
<path opacity="0.2" d="M12.8786 10.3541V15.7278C12.8793 15.7887 12.8664 15.8489 12.8408 15.9042C12.7709 16.0766 12.6037 16.1898 12.4176 16.1906H9.60352V9.89236H12.4176C12.4907 9.89162 12.5627 9.90986 12.6267 9.94526C12.7811 10.0231 12.8786 10.1812 12.8786 10.3541Z" fill="black"/>
<path opacity="0.2" d="M12.8786 10.3541V15.224C12.8774 15.4784 12.672 15.6846 12.4176 15.6868H9.60352V9.89236H12.4176C12.4907 9.89162 12.5627 9.90986 12.6267 9.94526C12.7811 10.0231 12.8786 10.1812 12.8786 10.3541Z" fill="black"/>
<path opacity="0.2" d="M12.6267 10.3541V15.224C12.6264 15.4787 12.4204 15.6855 12.1657 15.6867H9.60352V9.89233H12.1657C12.4204 9.89247 12.6268 10.0991 12.6267 10.3539C12.6267 10.354 12.6267 10.354 12.6267 10.3541Z" fill="black"/>
<path d="M7.54577 9.89233H12.1647C12.4197 9.89233 12.6265 10.0991 12.6265 10.3541V14.973C12.6265 15.2281 12.4197 15.4348 12.1647 15.4348H7.54577C7.29073 15.4348 7.08398 15.2281 7.08398 14.973V10.3541C7.08398 10.0991 7.29074 9.89233 7.54577 9.89233Z" fill="url(#paint1_linear_6167_28200)"/>
<path d="M8.52806 11.8291C8.64187 11.5866 8.82558 11.3837 9.0556 11.2464C9.31034 11.1006 9.60037 11.0279 9.89378 11.0363C10.1657 11.0304 10.4341 11.0993 10.6695 11.2356C10.8908 11.3676 11.0691 11.561 11.1827 11.7923C11.3063 12.0473 11.368 12.3278 11.3625 12.6111C11.3685 12.9072 11.3051 13.2005 11.1774 13.4677C11.0611 13.7073 10.8772 13.9076 10.6483 14.0439C10.4038 14.1843 10.1255 14.255 9.84364 14.2484C9.5659 14.2551 9.29165 14.1854 9.05082 14.0469C8.82755 13.9147 8.64704 13.7211 8.53083 13.4891C8.40642 13.2379 8.34406 12.9605 8.34894 12.6801C8.34375 12.3866 8.40499 12.0957 8.52806 11.8291ZM9.09037 13.1971C9.15105 13.3504 9.25395 13.4834 9.38714 13.5806C9.5228 13.6754 9.68524 13.7243 9.85069 13.7201C10.0269 13.7271 10.2006 13.6765 10.3455 13.576C10.477 13.4791 10.5772 13.3458 10.6337 13.1926C10.6969 13.0214 10.728 12.8401 10.7256 12.6577C10.7276 12.4736 10.6983 12.2904 10.639 12.1161C10.5866 11.9587 10.4896 11.8199 10.3598 11.7165C10.2186 11.6113 10.0454 11.5579 9.86933 11.5654C9.7003 11.561 9.53422 11.6103 9.39495 11.7062C9.25951 11.8038 9.15465 11.9379 9.09263 12.0929C8.95505 12.4482 8.95433 12.8419 9.09061 13.1976L9.09037 13.1971Z" fill="white"/>
<path d="M15.1455 9.13672H17.4129V11.4041H15.1455V9.13672Z" fill="#50D9FF"/>
<path d="M11.5645 8.13548C11.9154 8.13548 12.2 7.85084 12.2 7.5C12.2 7.14916 11.9154 6.86452 11.5645 6.86452H8.13548V3.43548C8.13548 3.08464 7.85084 2.8 7.5 2.8C7.14916 2.8 6.86452 3.08464 6.86452 3.43548V6.86452H3.43548C3.08464 6.86452 2.8 7.14916 2.8 7.5C2.8 7.85084 3.08464 8.13548 3.43548 8.13548H6.86452V11.5645C6.86452 11.9154 7.14916 12.2 7.5 12.2C7.85084 12.2 8.13548 11.9154 8.13548 11.5645V8.13548H11.5645Z" fill="#61646C" stroke="white" stroke-width="0.4"/>
<defs>
<linearGradient id="paint0_linear_6167_28200" x1="13.7604" y1="12.9155" x2="13.7604" y2="17.7022" gradientUnits="userSpaceOnUse">
<stop stop-color="#35B8F1"/>
<stop offset="1" stop-color="#28A8EA"/>
</linearGradient>
<linearGradient id="paint1_linear_6167_28200" x1="8.04683" y1="9.5315" x2="11.6636" y2="15.7957" gradientUnits="userSpaceOnUse">
<stop stop-color="#1784D9"/>
<stop offset="0.5" stop-color="#107AD5"/>
<stop offset="1" stop-color="#0A63C9"/>
</linearGradient>
</defs>
</svg>
