<svg width="14" height="17" viewBox="0 0 14 17" fill="none" xmlns="http://www.w3.org/2000/svg">
<path d="M11.3333 7.27273C11.3333 10.9848 6.66667 14.1667 6.66667 14.1667C6.66667 14.1667 2 10.9848 2 7.27273C2 6.00692 2.49167 4.79296 3.36683 3.8979C4.242 3.00284 5.42899 2.5 6.66667 2.5C7.90434 2.5 9.09133 3.00284 9.9665 3.8979C10.8417 4.79296 11.3333 6.00692 11.3333 7.27273Z" fill="#f1c012"/>
<path d="M6.66678 8.33328C7.28042 8.33328 7.77789 7.74876 7.77789 7.02772C7.77789 6.30669 7.28042 5.72217 6.66678 5.72217C6.05313 5.72217 5.55566 6.30669 5.55566 7.02772C5.55566 7.74876 6.05313 8.33328 6.66678 8.33328Z" fill="white"/>
</svg>
