<svg width="14" height="15" viewBox="0 0 14 15" fill="none" xmlns="http://www.w3.org/2000/svg">
<g id="map-pin">
<path id="Vector" d="M11.6668 6.43935C11.6668 10.1515 7.00016 13.3333 7.00016 13.3333C7.00016 13.3333 2.3335 10.1515 2.3335 6.43935C2.3335 5.17355 2.82516 3.95959 3.70033 3.06453C4.5755 2.16947 5.76249 1.66663 7.00016 1.66663C8.23784 1.66663 9.42482 2.16947 10.3 3.06453C11.1752 3.95959 11.6668 5.17355 11.6668 6.43935Z" fill="#28ad99"/>
<path id="Vector_2" d="M7.00016 7.49996C7.6445 7.49996 8.16683 6.97762 8.16683 6.33329C8.16683 5.68896 7.6445 5.16663 7.00016 5.16663C6.35583 5.16663 5.8335 5.68896 5.8335 6.33329C5.8335 6.97762 6.35583 7.49996 7.00016 7.49996Z" fill="white"/>
</g>
</svg>
