<svg width="18" height="19" viewBox="0 0 18 19" fill="none" xmlns="http://www.w3.org/2000/svg">
<path d="M5.02326 2.09302H3.76744V0.837209C3.76744 0.334884 3.43256 0 2.93023 0C2.42791 0 2.09302 0.334884 2.09302 0.837209V2.09302H0.837209C0.334884 2.09302 0 2.42791 0 2.93023C0 3.43256 0.334884 3.76744 0.837209 3.76744H2.09302V5.02326C2.09302 5.52558 2.42791 5.86047 2.93023 5.86047C3.43256 5.86047 3.76744 5.52558 3.76744 5.02326V3.76744H5.02326C5.52558 3.76744 5.86047 3.43256 5.86047 2.93023C5.86047 2.42791 5.52558 2.09302 5.02326 2.09302Z" fill="white"/>
<path d="M5.02326 14.6512H3.76744V13.3953C3.76744 12.893 3.43256 12.5581 2.93023 12.5581C2.42791 12.5581 2.09302 12.893 2.09302 13.3953V14.6512H0.837209C0.334884 14.6512 0 14.986 0 15.4884C0 15.9907 0.334884 16.3256 0.837209 16.3256H2.09302V17.5814C2.09302 18.0837 2.42791 18.4186 2.93023 18.4186C3.43256 18.4186 3.76744 18.0837 3.76744 17.5814V16.3256H5.02326C5.52558 16.3256 5.86047 15.9907 5.86047 15.4884C5.86047 14.986 5.52558 14.6512 5.02326 14.6512Z" fill="white"/>
<path d="M17.3302 8.45581L13.814 7.11628C13.3116 6.94884 13.0605 6.86512 12.893 6.69767C12.7256 6.61395 12.6419 6.44651 12.5581 6.36279C12.4744 6.19535 12.3907 5.94419 12.1395 5.44186L10.8 1.92558C10.7163 1.5907 10.3814 1.42326 10.0465 1.42326C9.71163 1.42326 9.46047 1.5907 9.29302 1.92558L7.95349 5.44186C7.78605 5.94419 7.70233 6.19535 7.53488 6.36279C7.45116 6.53023 7.36744 6.61395 7.2 6.69767C7.03256 6.86512 6.7814 6.94884 6.27907 7.11628L2.76279 8.45581C2.42791 8.53954 2.26047 8.87442 2.26047 9.2093C2.26047 9.54419 2.42791 9.79535 2.76279 9.96279L6.36279 11.3023C6.86512 11.4698 7.11628 11.5535 7.2 11.7209C7.36744 11.8047 7.45116 11.9721 7.61861 12.1395C7.70233 12.307 7.86977 12.5581 8.03721 13.0605L9.37674 16.5767C9.46047 16.9116 9.79535 17.0791 10.1302 17.0791C10.4651 17.0791 10.7163 16.9116 10.8837 16.5767L12.2233 13.0605C12.3907 12.5581 12.4744 12.307 12.6419 12.1395C12.7256 11.9721 12.893 11.8884 13.0605 11.8047C13.2279 11.7209 13.4791 11.6372 13.9814 11.386L17.4977 10.0465C17.8326 9.96279 18 9.62791 18 9.29302C17.8326 8.87442 17.6651 8.62326 17.3302 8.45581Z" fill="white"/>
</svg>
