<svg width="20" height="20" viewBox="0 0 20 20" fill="none" xmlns="http://www.w3.org/2000/svg">
    <path
        d="M6.04138 2.91683H4.79138V1.66683C4.79138 1.16683 4.45805 0.833496 3.95805 0.833496C3.45805 0.833496 3.12472 1.16683 3.12472 1.66683V2.91683H1.87472C1.37472 2.91683 1.04138 3.25016 1.04138 3.75016C1.04138 4.25016 1.37472 4.5835 1.87472 4.5835H3.12472V5.8335C3.12472 6.3335 3.45805 6.66683 3.95805 6.66683C4.45805 6.66683 4.79138 6.3335 4.79138 5.8335V4.5835H6.04138C6.54138 4.5835 6.87472 4.25016 6.87472 3.75016C6.87472 3.25016 6.54138 2.91683 6.04138 2.91683Z"
        fill="#B9BEC0" />
    <path
        d="M6.04138 15.4168H4.79138V14.1668C4.79138 13.6668 4.45805 13.3335 3.95805 13.3335C3.45805 13.3335 3.12472 13.6668 3.12472 14.1668V15.4168H1.87472C1.37472 15.4168 1.04138 15.7502 1.04138 16.2502C1.04138 16.7502 1.37472 17.0835 1.87472 17.0835H3.12472V18.3335C3.12472 18.8335 3.45805 19.1668 3.95805 19.1668C4.45805 19.1668 4.79138 18.8335 4.79138 18.3335V17.0835H6.04138C6.54138 17.0835 6.87472 16.7502 6.87472 16.2502C6.87472 15.7502 6.54138 15.4168 6.04138 15.4168Z"
        fill="#B9BEC0" />
    <path
        d="M18.2914 9.25016L14.7914 7.91683C14.2914 7.75016 14.0414 7.66683 13.8747 7.50016C13.708 7.41683 13.6247 7.25016 13.5414 7.16683C13.458 7.00016 13.3747 6.75016 13.1247 6.25016L11.7914 2.75016C11.708 2.41683 11.3747 2.25016 11.0414 2.25016C10.708 2.25016 10.458 2.41683 10.2914 2.75016L8.95805 6.25016C8.79138 6.75016 8.70805 7.00016 8.54138 7.16683C8.45805 7.3335 8.37472 7.41683 8.20805 7.50016C8.04138 7.66683 7.79138 7.75016 7.29138 7.91683L3.79138 9.25016C3.45805 9.3335 3.29138 9.66683 3.29138 10.0002C3.29138 10.3335 3.45805 10.5835 3.79138 10.7502L7.37472 12.0835C7.87472 12.2502 8.12472 12.3335 8.20805 12.5002C8.37472 12.5835 8.45805 12.7502 8.62472 12.9168C8.70805 13.0835 8.87472 13.3335 9.04138 13.8335L10.3747 17.3335C10.458 17.6668 10.7914 17.8335 11.1247 17.8335C11.458 17.8335 11.708 17.6668 11.8747 17.3335L13.2081 13.8335C13.3747 13.3335 13.458 13.0835 13.6247 12.9168C13.708 12.7502 13.8747 12.6668 14.0414 12.5835C14.208 12.5002 14.4581 12.4168 14.9581 12.1668L18.458 10.8335C18.7914 10.7502 18.958 10.4168 18.958 10.0835C18.7914 9.66683 18.6247 9.41683 18.2914 9.25016Z"
        fill="#B9BEC0" />
</svg>
    