<svg width="20" height="20" viewBox="0 0 20 20" fill="none" xmlns="http://www.w3.org/2000/svg">
<path d="M6.04239 2.91683H4.79239V1.66683C4.79239 1.16683 4.45906 0.833496 3.95906 0.833496C3.45906 0.833496 3.12572 1.16683 3.12572 1.66683V2.91683H1.87572C1.37572 2.91683 1.04239 3.25016 1.04239 3.75016C1.04239 4.25016 1.37572 4.5835 1.87572 4.5835H3.12572V5.8335C3.12572 6.3335 3.45906 6.66683 3.95906 6.66683C4.45906 6.66683 4.79239 6.3335 4.79239 5.8335V4.5835H6.04239C6.54239 4.5835 6.87572 4.25016 6.87572 3.75016C6.87572 3.25016 6.54239 2.91683 6.04239 2.91683Z" fill="url(#paint0_linear_9913_8071)"/>
<path d="M6.04239 15.4168H4.79239V14.1668C4.79239 13.6668 4.45906 13.3335 3.95906 13.3335C3.45906 13.3335 3.12572 13.6668 3.12572 14.1668V15.4168H1.87572C1.37572 15.4168 1.04239 15.7502 1.04239 16.2502C1.04239 16.7502 1.37572 17.0835 1.87572 17.0835H3.12572V18.3335C3.12572 18.8335 3.45906 19.1668 3.95906 19.1668C4.45906 19.1668 4.79239 18.8335 4.79239 18.3335V17.0835H6.04239C6.54239 17.0835 6.87572 16.7502 6.87572 16.2502C6.87572 15.7502 6.54239 15.4168 6.04239 15.4168Z" fill="url(#paint1_linear_9913_8071)"/>
<path d="M18.2924 9.25016L14.7924 7.91683C14.2924 7.75016 14.0424 7.66683 13.8757 7.50016C13.7091 7.41683 13.6257 7.25016 13.5424 7.16683C13.4591 7.00016 13.3757 6.75016 13.1257 6.25016L11.7924 2.75016C11.7091 2.41683 11.3757 2.25016 11.0424 2.25016C10.7091 2.25016 10.4591 2.41683 10.2924 2.75016L8.95906 6.25016C8.79239 6.75016 8.70906 7.00016 8.54239 7.16683C8.45906 7.3335 8.37572 7.41683 8.20906 7.50016C8.04239 7.66683 7.79239 7.75016 7.29239 7.91683L3.79239 9.25016C3.45906 9.3335 3.29239 9.66683 3.29239 10.0002C3.29239 10.3335 3.45906 10.5835 3.79239 10.7502L7.37572 12.0835C7.87572 12.2502 8.12572 12.3335 8.20906 12.5002C8.37572 12.5835 8.45906 12.7502 8.62572 12.9168C8.70906 13.0835 8.87572 13.3335 9.04239 13.8335L10.3757 17.3335C10.4591 17.6668 10.7924 17.8335 11.1257 17.8335C11.4591 17.8335 11.7091 17.6668 11.8757 17.3335L13.2091 13.8335C13.3757 13.3335 13.4591 13.0835 13.6257 12.9168C13.7091 12.7502 13.8757 12.6668 14.0424 12.5835C14.2091 12.5002 14.4591 12.4168 14.9591 12.1668L18.4591 10.8335C18.7924 10.7502 18.9591 10.4168 18.9591 10.0835C18.7924 9.66683 18.6257 9.41683 18.2924 9.25016Z" fill="url(#paint2_linear_9913_8071)"/>
<defs>
<linearGradient id="paint0_linear_9913_8071" x1="0.99942" y1="2" x2="15.4994" y2="22.5" gradientUnits="userSpaceOnUse">
<stop stop-color="#FFCA62"/>
<stop offset="0.525" stop-color="#38DBD0"/>
<stop offset="0.99375" stop-color="#4285F4"/>
</linearGradient>
<linearGradient id="paint1_linear_9913_8071" x1="0.99942" y1="2" x2="15.4994" y2="22.5" gradientUnits="userSpaceOnUse">
<stop stop-color="#FFCA62"/>
<stop offset="0.525" stop-color="#38DBD0"/>
<stop offset="0.99375" stop-color="#4285F4"/>
</linearGradient>
<linearGradient id="paint2_linear_9913_8071" x1="0.99942" y1="2" x2="15.4994" y2="22.5" gradientUnits="userSpaceOnUse">
<stop stop-color="#FFCA62"/>
<stop offset="0.525" stop-color="#38DBD0"/>
<stop offset="0.99375" stop-color="#4285F4"/>
</linearGradient>
</defs>
</svg>
