<svg width="20" height="20" viewBox="0 0 20 20" fill="none" xmlns="http://www.w3.org/2000/svg">
<path d="M5.48427 16.7C6.77385 17.5712 8.32845 18.0799 10.0019 18.0799C10.0019 18.0799 10.0019 18.0799 10.0019 18.0799C14.4644 18.0799 18.0819 14.4625 18.0819 9.99995C18.0819 8.27403 17.5407 6.67447 16.6189 5.36173C15.1572 3.28033 12.7384 1.91993 10.0019 1.91992C10.0019 1.91992 10.0019 1.91992 10.0019 1.91992C5.53944 1.91992 1.92188 5.53746 1.92188 9.99992C1.92188 9.99991 1.92188 9.99993 1.92188 9.99992C1.92188 12.789 3.33498 15.248 5.48427 16.7Z" fill="#ef6820"/>
<path fill-rule="evenodd" clip-rule="evenodd" d="M10.0035 5.4209C10.5706 5.4209 11.0304 5.88065 11.0304 6.4478V10.2538C11.0304 10.8209 10.5706 11.2807 10.0035 11.2807C9.43633 11.2807 8.97656 10.8209 8.97656 10.2538V6.4478C8.97656 5.88065 9.43633 5.4209 10.0035 5.4209Z" fill="white"/>
<path fill-rule="evenodd" clip-rule="evenodd" d="M8.97656 13.5533C8.97656 12.9862 9.43633 12.5264 10.0035 12.5264H10.0138C10.5809 12.5264 11.0407 12.9862 11.0407 13.5533C11.0407 14.1205 10.5809 14.5801 10.0138 14.5801H10.0035C9.43633 14.5801 8.97656 14.1205 8.97656 13.5533Z" fill="white"/>
</svg>
