<svg width="14" height="14" viewBox="0 0 14 14" fill="none" xmlns="http://www.w3.org/2000/svg">
<path fill-rule="evenodd" clip-rule="evenodd" d="M6.99988 4.0833C7.32205 4.0833 7.58321 4.34446 7.58321 4.66663V6.99996C7.58321 7.32213 7.32205 7.5833 6.99988 7.5833C6.67771 7.5833 6.41655 7.32213 6.41655 6.99996V4.66663C6.41655 4.34446 6.67771 4.0833 6.99988 4.0833Z" fill="#fa3939"/>
<path fill-rule="evenodd" clip-rule="evenodd" d="M6.41655 9.3333C6.41655 9.01113 6.67771 8.74996 6.99988 8.74996H7.00571C7.32788 8.74996 7.58905 9.01113 7.58905 9.3333C7.58905 9.65546 7.32788 9.91663 7.00571 9.91663H6.99988C6.67771 9.91663 6.41655 9.65546 6.41655 9.3333Z" fill="#fa3939"/>
<path fill-rule="evenodd" clip-rule="evenodd" d="M6.99999 11.76C9.62887 11.76 11.76 9.62887 11.76 6.99999C11.76 4.37112 9.62887 2.23999 6.99999 2.23999C4.37112 2.23999 2.23999 4.37112 2.23999 6.99999C2.23999 9.62887 4.37112 11.76 6.99999 11.76ZM6.99999 12.6C10.0928 12.6 12.6 10.0928 12.6 6.99999C12.6 3.9072 10.0928 1.39999 6.99999 1.39999C3.9072 1.39999 1.39999 3.9072 1.39999 6.99999C1.39999 10.0928 3.9072 12.6 6.99999 12.6Z" fill="#fa3939"/>
</svg>
