<svg width="20" height="20" viewBox="0 0 20 20" fill="none" xmlns="http://www.w3.org/2000/svg">
<path fill-rule="evenodd" clip-rule="evenodd" d="M9.99984 5.83331C10.4601 5.83331 10.8332 6.20641 10.8332 6.66665V9.99998C10.8332 10.4602 10.4601 10.8333 9.99984 10.8333C9.5396 10.8333 9.1665 10.4602 9.1665 9.99998V6.66665C9.1665 6.20641 9.5396 5.83331 9.99984 5.83331Z" fill="#646464"/>
<path fill-rule="evenodd" clip-rule="evenodd" d="M9.1665 13.3333C9.1665 12.8731 9.5396 12.5 9.99984 12.5H10.0082C10.4684 12.5 10.8415 12.8731 10.8415 13.3333C10.8415 13.7936 10.4684 14.1666 10.0082 14.1666H9.99984C9.5396 14.1666 9.1665 13.7936 9.1665 13.3333Z" fill="#646464"/>
<path d="M12.8158 18.125H7.18417C6.68717 18.1236 6.21079 17.9262 5.85833 17.5758L2.42417 14.1417C2.07377 13.7892 1.87645 13.3128 1.875 12.8158V7.18417C1.87645 6.68717 2.07377 6.21079 2.42417 5.85833L5.85833 2.42417C6.21079 2.07377 6.68717 1.87645 7.18417 1.875H12.8158C13.3128 1.87645 13.7892 2.07377 14.1417 2.42417L17.5758 5.85833C17.9262 6.21079 18.1236 6.68717 18.125 7.18417V12.8158C18.1236 13.3128 17.9262 13.7892 17.5758 14.1417L14.1417 17.5758C13.7892 17.9262 13.3128 18.1236 12.8158 18.125ZM7.18417 3.125C7.01852 3.12542 6.85975 3.19132 6.7425 3.30833L3.30833 6.7425C3.19132 6.85975 3.12542 7.01852 3.125 7.18417V12.8158C3.12542 12.9815 3.19132 13.1402 3.30833 13.2575L6.7425 16.6917C6.85975 16.8087 7.01852 16.8746 7.18417 16.875H12.8158C12.9815 16.8746 13.1402 16.8087 13.2575 16.6917L16.6917 13.2575C16.8087 13.1402 16.8746 12.9815 16.875 12.8158V7.18417C16.8746 7.01852 16.8087 6.85975 16.6917 6.7425L13.2575 3.30833C13.1402 3.19132 12.9815 3.12542 12.8158 3.125H7.18417Z" fill="#646464"/>
</svg>
