<svg width="20" height="20" viewBox="0 0 20 20" fill="none" xmlns="http://www.w3.org/2000/svg">
<path fill-rule="evenodd" clip-rule="evenodd" d="M9.99984 5.83329C10.4601 5.83329 10.8332 6.20639 10.8332 6.66662V9.99996C10.8332 10.4602 10.4601 10.8333 9.99984 10.8333C9.5396 10.8333 9.1665 10.4602 9.1665 9.99996V6.66662C9.1665 6.20639 9.5396 5.83329 9.99984 5.83329Z" fill="currentColor"/>
<path fill-rule="evenodd" clip-rule="evenodd" d="M9.1665 13.3333C9.1665 12.8731 9.5396 12.5 9.99984 12.5H10.0082C10.4684 12.5 10.8415 12.8731 10.8415 13.3333C10.8415 13.7935 10.4684 14.1666 10.0082 14.1666H9.99984C9.5396 14.1666 9.1665 13.7935 9.1665 13.3333Z" fill="currentColor"/>
<path fill-rule="evenodd" clip-rule="evenodd" d="M10 16.8C13.7555 16.8 16.8 13.7555 16.8 10C16.8 6.24446 13.7555 3.2 10 3.2C6.24446 3.2 3.2 6.24446 3.2 10C3.2 13.7555 6.24446 16.8 10 16.8ZM10 18C14.4183 18 18 14.4183 18 10C18 5.58172 14.4183 2 10 2C5.58172 2 2 5.58172 2 10C2 14.4183 5.58172 18 10 18Z" fill="currentColor"/>
</svg>
