<svg width="20" height="20" viewBox="0 0 20 20" fill="none" xmlns="http://www.w3.org/2000/svg">
<path fill-rule="evenodd" clip-rule="evenodd" d="M6.23229 2.8656C5.69958 2.8656 5.26774 3.30617 5.26774 3.84964V16.1502C5.26774 16.6937 5.69958 17.1343 6.23229 17.1343H13.7679C14.3006 17.1343 14.7324 16.6937 14.7324 16.1502V3.84964C14.7324 3.30617 14.3006 2.8656 13.7679 2.8656H6.23229ZM4.18262 3.84964C4.18262 2.69476 5.10029 1.75854 6.23229 1.75854H13.7679C14.8999 1.75854 15.8175 2.69476 15.8175 3.84964V16.1502C15.8175 17.3051 14.8999 18.2413 13.7679 18.2413H6.23229C5.10029 18.2413 4.18262 17.3051 4.18262 16.1502V3.84964Z" fill="#646464"/>
<path fill-rule="evenodd" clip-rule="evenodd" d="M9.03027 14.363C9.03027 13.8275 9.46257 13.3934 9.99583 13.3934H10.0039C10.5371 13.3934 10.9694 13.8275 10.9694 14.363C10.9694 14.8985 10.5371 15.3326 10.0039 15.3326H9.99583C9.46257 15.3326 9.03027 14.8985 9.03027 14.363Z" fill="#646464"/>
</svg>
