<svg width="36" height="36" viewBox="0 0 36 36" fill="none" xmlns="http://www.w3.org/2000/svg">
<path d="M27.0894 18.9661C27.1222 16.4112 28.489 13.9937 30.6572 12.6555C29.2893 10.6944 26.9983 9.45098 24.6147 9.37611C22.0724 9.10822 19.6078 10.9033 18.3123 10.9033C16.9917 10.9033 14.9971 9.40271 12.8492 9.44707C10.0495 9.53788 7.43946 11.1358 6.07736 13.5931C3.14937 18.6822 5.33338 26.1615 8.13815 30.2752C9.54144 32.2896 11.1815 34.5397 13.3274 34.4599C15.4274 34.3724 16.2117 33.1156 18.7465 33.1156C21.2578 33.1156 21.9936 34.4599 24.1831 34.4091C26.4364 34.3724 27.8562 32.3858 29.2102 30.3524C30.2185 28.9171 30.9943 27.3308 31.509 25.6522C28.8609 24.5278 27.0925 21.8525 27.0894 18.9661Z" fill="white"/>
<path d="M22.9538 6.67075C24.1824 5.19008 24.7877 3.28694 24.6411 1.36548C22.7641 1.5634 21.0302 2.46401 19.785 3.88786C18.5674 5.27904 17.9337 7.1487 18.0535 8.99672C19.9312 9.01613 21.7772 8.13993 22.9538 6.67075Z" fill="white"/>
</svg>
