<svg width="21" height="20" viewBox="0 0 21 20" fill="none" xmlns="http://www.w3.org/2000/svg">
<path d="M18.0357 14.2874C17.7584 14.928 17.4302 15.5175 17.05 16.0596C16.5317 16.7986 16.1073 17.3101 15.7803 17.5941C15.2733 18.0604 14.7301 18.2991 14.1484 18.3127C13.7309 18.3127 13.2273 18.1939 12.6411 17.9529C12.053 17.713 11.5125 17.5941 11.0183 17.5941C10.5 17.5941 9.94413 17.713 9.34957 17.9529C8.75409 18.1939 8.27438 18.3195 7.90762 18.332C7.34982 18.3557 6.79384 18.1102 6.23888 17.5941C5.88468 17.2852 5.44164 16.7556 4.91089 16.0053C4.34144 15.2041 3.87328 14.275 3.50651 13.2158C3.11372 12.0717 2.91681 10.9638 2.91681 9.89119C2.91681 8.66256 3.18229 7.60288 3.71406 6.71487C4.13198 6.00159 4.68796 5.43893 5.38381 5.02588C6.07966 4.61283 6.83153 4.40234 7.64122 4.38887C8.08427 4.38887 8.66526 4.52591 9.38725 4.79525C10.1072 5.06549 10.5695 5.20253 10.7722 5.20253C10.9237 5.20253 11.4372 5.04229 12.3078 4.72282C13.1311 4.42656 13.8259 4.30388 14.3951 4.35221C15.9376 4.47669 17.0964 5.08472 17.867 6.18016C16.4876 7.016 15.8052 8.1867 15.8188 9.68851C15.8312 10.8583 16.2556 11.8318 17.0896 12.6047C17.4676 12.9634 17.8897 13.2407 18.3593 13.4376C18.2575 13.7329 18.15 14.0158 18.0357 14.2874ZM14.4981 0.366977C14.4981 1.28385 14.1632 2.13994 13.4955 2.93232C12.6897 3.87431 11.7152 4.41863 10.6583 4.33274C10.6449 4.22274 10.637 4.10698 10.637 3.98532C10.637 3.10512 11.0202 2.16314 11.7007 1.39293C12.0404 1.00297 12.4725 0.678713 12.9964 0.420051C13.5192 0.165248 14.0138 0.0243365 14.4789 0.000205994C14.4925 0.122778 14.4981 0.245358 14.4981 0.366965V0.366977Z" fill="black"/>
</svg>
