<svg width="20" height="20" viewBox="0 0 20 20" fill="none" xmlns="http://www.w3.org/2000/svg">
<path fill-rule="evenodd" clip-rule="evenodd" d="M3.86341 6.16803C4.19761 6.16803 4.46852 6.43895 4.46852 6.77314V16.0296H15.5281V6.77314C15.5281 6.43895 15.799 6.16803 16.1332 6.16803C16.4674 6.16803 16.7383 6.43895 16.7383 6.77314V16.6347C16.7383 16.9689 16.4674 17.2398 16.1332 17.2398H3.86341C3.52922 17.2398 3.2583 16.9689 3.2583 16.6347V6.77314C3.2583 6.43895 3.52922 6.16803 3.86341 6.16803Z" fill="currentColor"/>
<path fill-rule="evenodd" clip-rule="evenodd" d="M1.89648 3.36488C1.89648 3.03068 2.1674 2.75977 2.5016 2.75977H17.498C17.8322 2.75977 18.1031 3.03068 18.1031 3.36488V6.77316C18.1031 7.10735 17.8322 7.37827 17.498 7.37827H2.5016C2.1674 7.37827 1.89648 7.10735 1.89648 6.77316V3.36488ZM3.10671 3.96999V6.16805H16.8929V3.96999H3.10671Z" fill="currentColor"/>
<path fill-rule="evenodd" clip-rule="evenodd" d="M8.03125 9.49978C8.03125 9.16558 8.30217 8.89467 8.63636 8.89467H11.363C11.6972 8.89467 11.9681 9.16558 11.9681 9.49978C11.9681 9.83397 11.6972 10.1049 11.363 10.1049H8.63636C8.30217 10.1049 8.03125 9.83397 8.03125 9.49978Z" fill="currentColor"/>
</svg>
