<svg width="12" height="12" viewBox="0 0 12 12" fill="none" xmlns="http://www.w3.org/2000/svg">
<path fill-rule="evenodd" clip-rule="evenodd" d="M2.14001 6C2.14001 5.80118 2.30119 5.64 2.50001 5.64H9.50002C9.69884 5.64 9.86002 5.80118 9.86002 6C9.86002 6.19882 9.69884 6.36 9.50002 6.36H2.50001C2.30119 6.36 2.14001 6.19882 2.14001 6Z" fill="#646464"/>
<path fill-rule="evenodd" clip-rule="evenodd" d="M5.74546 2.24544C5.88604 2.10485 6.11398 2.10485 6.25457 2.24544L9.75457 5.74544C9.89516 5.88603 9.89516 6.11397 9.75457 6.25456L6.25457 9.75456C6.11398 9.89515 5.88604 9.89515 5.74546 9.75456C5.60487 9.61397 5.60487 9.38603 5.74546 9.24544L8.9909 6L5.74546 2.75456C5.60487 2.61397 5.60487 2.38603 5.74546 2.24544Z" fill="#646464"/>
</svg>
