<svg width="14" height="14" viewBox="0 0 14 14" fill="none" xmlns="http://www.w3.org/2000/svg">
<path fill-rule="evenodd" clip-rule="evenodd" d="M0.566406 6.99974C0.566406 6.66837 0.835035 6.39974 1.16641 6.39974H12.8331C13.1644 6.39974 13.4331 6.66837 13.4331 6.99974C13.4331 7.33111 13.1644 7.59974 12.8331 7.59974H1.16641C0.835035 7.59974 0.566406 7.33111 0.566406 6.99974Z" fill="#646464"/>
<path fill-rule="evenodd" clip-rule="evenodd" d="M6.57548 0.742142C6.80979 0.507828 7.18969 0.507828 7.424 0.742142L13.2573 6.57548C13.4917 6.80979 13.4917 7.18969 13.2573 7.424L7.424 13.2573C7.18969 13.4917 6.80979 13.4917 6.57548 13.2573C6.34116 13.023 6.34116 12.6431 6.57548 12.4088L11.9845 6.99974L6.57548 1.59067C6.34116 1.35636 6.34116 0.976457 6.57548 0.742142Z" fill="#646464"/>
</svg>
