<svg width="14" height="14" viewBox="0 0 14 14" fill="none" xmlns="http://www.w3.org/2000/svg">
<path fill-rule="evenodd" clip-rule="evenodd" d="M0.566406 7.3806C0.566406 7.04923 0.835035 6.7806 1.16641 6.7806H12.8331C13.1644 6.7806 13.4331 7.04923 13.4331 7.3806C13.4331 7.71197 13.1644 7.9806 12.8331 7.9806H1.16641C0.835035 7.9806 0.566406 7.71197 0.566406 7.3806Z" fill="#646464"/>
<path fill-rule="evenodd" clip-rule="evenodd" d="M6.57548 1.123C6.80979 0.888687 7.18969 0.888687 7.424 1.123L13.2573 6.95634C13.4917 7.19065 13.4917 7.57055 13.2573 7.80486L7.424 13.6382C7.18969 13.8725 6.80979 13.8725 6.57548 13.6382C6.34116 13.4039 6.34116 13.024 6.57548 12.7897L11.9845 7.3806L6.57548 1.97153C6.34116 1.73722 6.34116 1.35732 6.57548 1.123Z" fill="#646464"/>
</svg>
