<svg width="10" height="7" viewBox="0 0 10 7" fill="none" xmlns="http://www.w3.org/2000/svg">
<path fill-rule="evenodd" clip-rule="evenodd" d="M6.67157 0.139208L9.85355 3.16392C10.0488 3.34953 10.0488 3.65047 9.85355 3.83608L6.67157 6.86079C6.47631 7.0464 6.15973 7.0464 5.96447 6.86079C5.7692 6.67518 5.7692 6.37424 5.96447 6.18863L8.29289 3.97529L0.475288 3.97529C0.212794 3.97529 3.28928e-07 3.76249 3.0598e-07 3.5C2.83032e-07 3.23751 0.212793 3.02471 0.475288 3.02471L8.29289 3.02471L5.96447 0.811366C5.7692 0.625755 5.7692 0.32482 5.96447 0.139208C6.15973 -0.0464034 6.47631 -0.0464034 6.67157 0.139208Z" fill="black"/>
</svg>
