<svg width="16" height="16" viewBox="0 0 16 16" fill="none" xmlns="http://www.w3.org/2000/svg">
<g id="arrows-left-right">
<path id="arrows-left-right_2" d="M14.4613 8.19142C14.436 8.25276 14.3994 8.30802 14.3534 8.35402L11.6868 11.0207C11.5894 11.118 11.4614 11.1673 11.3334 11.1673C11.2054 11.1673 11.0774 11.1187 10.9801 11.0207C10.7847 10.8254 10.7847 10.5087 10.9801 10.3133L12.7934 8.50002H3.20743L5.02075 10.3133C5.21608 10.5087 5.21608 10.8254 5.02075 11.0207C4.92341 11.118 4.79539 11.1673 4.66739 11.1673C4.53939 11.1673 4.41138 11.1187 4.31404 11.0207L1.64737 8.35402C1.60137 8.30802 1.5648 8.25276 1.53946 8.19142C1.4888 8.06942 1.4888 7.93142 1.53946 7.80942C1.5648 7.74809 1.60137 7.69266 1.64737 7.64666L4.31404 4.98C4.50937 4.78466 4.82607 4.78466 5.0214 4.98C5.21673 5.17533 5.21673 5.49202 5.0214 5.68735L3.20808 7.50067H12.794L10.9807 5.68735C10.7854 5.49202 10.7854 5.17533 10.9807 4.98C11.176 4.78466 11.4927 4.78466 11.6881 4.98L14.3547 7.64666C14.4007 7.69266 14.4375 7.74809 14.4628 7.80942C14.5121 7.93142 14.512 8.06876 14.4613 8.19142Z" fill="white"/>
</g>
</svg>
