<svg width="16" height="17" viewBox="0 0 16 17" fill="none" xmlns="http://www.w3.org/2000/svg">
<g id="resize">
<path id="vector" d="M11.02 11.4801C11.2154 11.6754 11.2154 11.9921 11.02 12.1875L8.35337 14.8541C8.30737 14.9001 8.25209 14.9369 8.19142 14.9622C8.13075 14.9875 8.06535 15.0008 8.00002 15.0008C7.93468 15.0008 7.86994 14.9875 7.80861 14.9622C7.74728 14.9369 7.69266 14.9001 7.64666 14.8541L4.98 12.1875C4.78466 11.9921 4.78466 11.6754 4.98 11.4801C5.17533 11.2848 5.49202 11.2848 5.68735 11.4801L7.50067 13.2934V3.70747L5.68735 5.52079C5.49202 5.71612 5.17533 5.71612 4.98 5.52079C4.78466 5.32545 4.78466 5.00876 4.98 4.81343L7.64666 2.14676C7.69266 2.10076 7.74809 2.06419 7.80942 2.03885C7.93142 1.98819 8.06942 1.98819 8.19142 2.03885C8.25275 2.06419 8.30802 2.10076 8.35402 2.14676L11.0207 4.81343C11.216 5.00876 11.216 5.32545 11.0207 5.52079C10.9234 5.61812 10.7953 5.66744 10.6673 5.66744C10.5393 5.66744 10.4113 5.61879 10.314 5.52079L8.50067 3.70747V13.2934L10.314 11.4801C10.5086 11.2848 10.8247 11.2848 11.02 11.4801Z" fill="white"/>
</g>
</svg>
