<svg width="21" height="20" viewBox="0 0 21 20" fill="none" xmlns="http://www.w3.org/2000/svg">
<g id="Icon">
<g id="Vector">
<path fill-rule="evenodd" clip-rule="evenodd" d="M6.10975 15.3038C5.87543 15.0695 5.87543 14.6896 6.10975 14.4553L10.6855 9.87957L6.10975 5.30383C5.87543 5.06952 5.87543 4.68962 6.10975 4.45531C6.34406 4.22099 6.72396 4.22099 6.95827 4.45531L11.9583 9.45531C12.1926 9.68962 12.1926 10.0695 11.9583 10.3038L6.95827 15.3038C6.72396 15.5382 6.34406 15.5382 6.10975 15.3038Z" fill="#646464"/>
<path fill-rule="evenodd" clip-rule="evenodd" d="M14.4664 16.0796C14.135 16.0796 13.8664 15.811 13.8664 15.4796L13.8664 4.39994C13.8664 4.06857 14.135 3.79994 14.4664 3.79994C14.7978 3.79994 15.0664 4.06857 15.0664 4.39994L15.0664 15.4796C15.0664 15.811 14.7978 16.0796 14.4664 16.0796Z" fill="#646464"/>
</g>
</g>
</svg>
