<svg width="21" height="20" viewBox="0 0 21 20" fill="none" xmlns="http://www.w3.org/2000/svg">
<g id="Icon">
<g id="Vector">
<path fill-rule="evenodd" clip-rule="evenodd" d="M14.8903 4.57605C15.1246 4.81036 15.1246 5.19026 14.8903 5.42458L10.3145 10.0003L14.8903 14.576C15.1246 14.8104 15.1246 15.1903 14.8903 15.4246C14.6559 15.6589 14.276 15.6589 14.0417 15.4246L9.04173 10.4246C8.80741 10.1903 8.80741 9.81036 9.04173 9.57605L14.0417 4.57605C14.276 4.34173 14.6559 4.34173 14.8903 4.57605Z" fill="#646464"/>
<path fill-rule="evenodd" clip-rule="evenodd" d="M6.53359 3.80029C6.86497 3.80029 7.13359 4.06892 7.13359 4.40029L7.13359 15.4799C7.13359 15.8113 6.86496 16.0799 6.53359 16.0799C6.20222 16.0799 5.93359 15.8113 5.93359 15.4799L5.93359 4.40029C5.93359 4.06892 6.20222 3.80029 6.53359 3.80029Z" fill="#646464"/>
</g>
</g>
</svg>
