<svg width="17" height="16" viewBox="0 0 17 16" fill="none" xmlns="http://www.w3.org/2000/svg">
<path d="M11.6576 10.6579C12.2246 10.6579 12.6843 10.1982 12.6843 9.6312C12.6843 9.06417 12.2246 8.60449 11.6576 8.60449C11.0905 8.60449 10.6309 9.06417 10.6309 9.6312C10.6309 10.1982 11.0905 10.6579 11.6576 10.6579Z" fill="black"/>
<path fill-rule="evenodd" clip-rule="evenodd" d="M11.6589 11.4653C10.9866 11.4653 9.65436 11.7953 9.60547 12.4554C10.0699 13.1032 10.8155 13.5187 11.6589 13.5187C12.5023 13.5187 13.2601 13.091 13.7123 12.4554C13.6634 11.7831 12.3311 11.4653 11.6589 11.4653Z" fill="black"/>
<path fill-rule="evenodd" clip-rule="evenodd" d="M12.879 6.28248V2.66455L6.76761 0L0.65625 2.66455V6.66139C0.65625 10.3649 3.25969 13.8239 6.76761 14.6673C7.19541 14.5695 7.6232 14.4228 8.01433 14.2395C8.91881 15.2417 10.2022 15.8895 11.6567 15.8895C14.3579 15.8895 16.5458 13.7017 16.5458 11.0005C16.5458 8.72703 14.9813 6.8325 12.879 6.28248ZM6.76761 13.4083C3.95639 12.5894 1.87852 9.74151 1.87852 6.67361V3.47125L6.76761 1.33228L11.6567 3.47125V6.11136C8.95548 6.11136 6.76761 8.29923 6.76761 11.0005C6.76761 11.7949 6.9754 12.5283 7.30541 13.1883C7.12207 13.2617 6.95095 13.3472 6.76761 13.4083ZM11.6567 14.6673C9.62773 14.6673 7.98989 13.0294 7.98989 11.0005C7.98989 8.97148 9.62773 7.33364 11.6567 7.33364C13.6857 7.33364 15.3235 8.97148 15.3235 11.0005C15.3235 13.0294 13.6857 14.6673 11.6567 14.6673Z" fill="black"/>
</svg>
