<svg width="14" height="14" viewBox="0 0 14 14" fill="none" xmlns="http://www.w3.org/2000/svg">
<path d="M11.1675 6.40253L6.76661 10.8034C5.92087 11.6492 4.55085 11.6492 3.70511 10.8034C2.85937 9.9577 2.85937 8.58768 3.70511 7.74194L8.48871 2.95834C9.01682 2.43023 9.87405 2.43023 10.4022 2.95834C10.9303 3.48645 10.9303 4.34367 10.4022 4.87178L5.78084 9.49309C5.57036 9.70357 5.22594 9.70357 5.01546 9.49309C4.80498 9.28261 4.80498 8.93819 5.01546 8.72771L8.651 5.09218L8.07697 4.51815L4.44143 8.15368C3.91332 8.68179 3.91332 9.53901 4.44143 10.0671C4.96954 10.5952 5.82676 10.5952 6.35487 10.0671L10.9762 5.44581C11.8219 4.60007 11.8219 3.23005 10.9762 2.38431C10.1304 1.53856 8.76042 1.53856 7.91468 2.38431L3.13107 7.1679C1.9677 8.33128 1.9677 10.2141 3.13107 11.3775C4.29445 12.5408 6.17727 12.5408 7.34065 11.3775L11.7416 6.97656L11.1675 6.40253Z" fill="#646464"/>
</svg>
