<svg xmlns="http://www.w3.org/2000/svg" width="24" height="24" viewBox="0 0 24 24" fill="none">
  <g clip-path="url(#clip0_26054_55588)">
    <rect width="24" height="24" rx="4" fill="#D6D9DB"/>
    <path d="M17.1297 10.9742L11.2305 16.8734C10.0968 18.0071 8.26035 18.0071 7.12668 16.8734C5.99301 15.7397 5.99301 13.9033 7.12668 12.7696L13.5389 6.35743C14.2468 5.64952 15.3958 5.64952 16.1037 6.35743C16.8116 7.06533 16.8116 8.21439 16.1037 8.9223L9.90909 15.1169C9.62695 15.3991 9.16528 15.3991 8.88314 15.1169C8.601 14.8348 8.601 14.3731 8.88314 14.091L13.7564 9.21773L12.9869 8.44827L8.11368 13.3215C7.40578 14.0294 7.40578 15.1785 8.11368 15.8864C8.82158 16.5943 9.97064 16.5943 10.6785 15.8864L16.8732 9.69176C18.0069 8.55809 18.0069 6.72164 16.8732 5.58797C15.7395 4.45429 13.9031 4.45429 12.7694 5.58797L6.35722 12.0001C4.79778 13.5596 4.79778 16.0834 6.35722 17.6429C7.91666 19.2023 10.4405 19.2023 11.9999 17.6429L17.8991 11.7437L17.1297 10.9742Z" fill="#202020"/>
  </g>
  <defs>
    <clipPath id="clip0_26054_55588">
      <rect width="24" height="24" rx="4" fill="white"/>
    </clipPath>
  </defs>
</svg>