<svg width="24" height="24" viewBox="0 0 24 24" fill="none" xmlns="http://www.w3.org/2000/svg">
<path d="M18.3613 11.0896L11.761 17.7957C10.4926 19.0845 8.4379 19.0845 7.16949 17.7957C5.90109 16.507 5.90108 14.4193 7.16949 13.1306L14.3437 5.84128C15.1358 5.03654 16.4214 5.03654 17.2134 5.84128C18.0055 6.64601 18.0055 7.95226 17.2134 8.75699L10.2826 15.799C9.96691 16.1197 9.45037 16.1197 9.1347 15.799C8.81903 15.4783 8.81903 14.9534 9.1347 14.6327L14.5871 9.09284L13.7262 8.21813L8.27379 13.758C7.48175 14.5627 7.48175 15.869 8.27379 16.6737C9.06583 17.4784 10.3515 17.4784 11.1435 16.6737L18.0743 9.63171C19.3427 8.34296 19.3427 6.25531 18.0743 4.96656C16.8059 3.67781 14.7512 3.67781 13.4828 4.96656L6.30858 12.2559C4.56381 14.0286 4.56381 16.8977 6.30858 18.6704C8.05336 20.4432 10.8771 20.4432 12.6219 18.6704L19.2222 11.9643L18.3613 11.0896Z" fill="#8A8A8A"/>
</svg>
