<svg xmlns="http://www.w3.org/2000/svg" width="24" height="24" viewBox="0 0 24 24" fill="none">
  <g clip-path="url(#clip0_16102_7646)">
    <path d="M17.1297 10.9743L11.2305 16.8735C10.0969 18.0071 8.26042 18.0071 7.12674 16.8735C5.99307 15.7398 5.99307 13.9033 7.12674 12.7697L13.5389 6.35749C14.2468 5.64958 15.3959 5.64958 16.1038 6.35749C16.8117 7.06539 16.8117 8.21445 16.1038 8.92236L9.90915 15.117C9.62701 15.3991 9.16534 15.3991 8.8832 15.117C8.60107 14.8349 8.60107 14.3732 8.8832 14.091L13.7565 9.2178L12.987 8.44833L8.11374 13.3216C7.40584 14.0295 7.40584 15.1786 8.11374 15.8865C8.82164 16.5944 9.97071 16.5944 10.6786 15.8865L16.8732 9.69182C18.0069 8.55815 18.0069 6.7217 16.8732 5.58803C15.7396 4.45436 13.9031 4.45436 12.7695 5.58803L6.35728 12.0002C4.79784 13.5596 4.79784 16.0835 6.35728 17.6429C7.91672 19.2024 10.4406 19.2024 12 17.6429L17.8992 11.7437L17.1297 10.9743Z" fill="#8A8A8A"/>
  </g>
  <defs>
    <clipPath id="clip0_16102_7646">
      <rect width="24" height="24" fill="white"/>
    </clipPath>
  </defs>
</svg>