<svg width="32" height="32" viewBox="0 0 32 32" fill="none" xmlns="http://www.w3.org/2000/svg">
<circle cx="16" cy="16" r="16" fill="#646464" fill-opacity="0.1"/>
<path d="M22.742 18.7293C21.676 18.7293 20.6447 18.556 19.6827 18.244C19.3793 18.14 19.0413 18.218 18.8073 18.452L17.4467 20.1593C14.994 18.9893 12.6973 16.7793 11.4753 14.24L13.1653 12.8013C13.3993 12.5587 13.4687 12.2207 13.3733 11.9173C13.0527 10.9553 12.888 9.924 12.888 8.858C12.888 8.39 12.498 8 12.03 8H9.03133C8.56333 8 8 8.208 8 8.858C8 16.9093 14.6993 23.6 22.742 23.6C23.3573 23.6 23.6 23.054 23.6 22.5773V19.5873C23.6 19.1193 23.21 18.7293 22.742 18.7293Z" fill="#646464"/>
</svg>
