<svg width="24" height="24" viewBox="0 0 24 24" fill="none" xmlns="http://www.w3.org/2000/svg">
<path fill-rule="evenodd" clip-rule="evenodd" d="M5.05113 7.96445C6.34789 6.70643 7.82713 5.3542 9.02553 4.25671C10.5898 2.95549 12.8414 3.55969 12.8414 6.32173V18.1767C12.8414 20.3475 10.5471 21.0653 8.9895 19.7172C7.72734 18.6248 6.19447 16.9757 4.98523 15.7514H1.18812C0.53194 15.7514 0 15.1703 0 14.4536V9.26227C0 8.5455 0.53194 7.96445 1.18812 7.96445H5.05113ZM9.88049 5.27045C10.3498 4.88009 11.4243 4.97915 11.4243 6.07904V17.8871C11.4243 18.8063 10.4898 19.1446 10.0225 18.7402C9.12404 18.0929 6.93313 15.7706 5.99088 14.7374V8.87262C7.11148 7.81138 8.96908 6.05833 9.88049 5.27045ZM1.30465 14.4536V9.15952H4.69705V14.4536L1.30465 14.4536Z" fill="#646464"/>
<rect x="15.3806" y="8.23218" width="1.56885" height="7.64487" rx="0.784423" fill="#646464"/>
<rect x="22.2167" y="8.23218" width="1.56885" height="7.64487" rx="0.784424" fill="#646464"/>
<rect x="18.7986" y="5.14563" width="1.56885" height="13.2688" rx="0.784424" fill="#646464"/>
</svg>
