<svg width="16" height="16" viewBox="0 0 16 16" fill="none" xmlns="http://www.w3.org/2000/svg">
<path d="M6.29774 9.55115C5.84911 9.68713 5.37315 9.76024 4.88012 9.76024C2.1849 9.76024 0 7.57534 0 4.88012C0 4.12672 0.170726 3.41319 0.475602 2.77611L4.02589 6.3264L6.3264 4.02589L2.77611 0.475602C3.41319 0.170726 4.12672 0 4.88012 0C7.57533 0 9.76024 2.1849 9.76024 4.88012C9.76024 5.5962 9.60601 6.27626 9.32895 6.88889L15.1169 12.6768C15.7521 13.3121 15.7521 14.3421 15.1169 14.9773L14.5706 15.5235C13.9354 16.1588 12.9054 16.1588 12.2701 15.5235L6.29774 9.55115Z" fill="white"/>
</svg>
