<svg width="32" height="32" viewBox="0 0 32 32" fill="none" xmlns="http://www.w3.org/2000/svg">
<rect x="0.5" y="0.5" width="31" height="31" rx="15.5" fill="white"/>
<rect x="0.5" y="0.5" width="31" height="31" rx="15.5" stroke="#D8DCDF"/>
<path fill-rule="evenodd" clip-rule="evenodd" d="M16.4242 9.74239C16.6586 9.9767 16.6586 10.3566 16.4242 10.5909L11.6152 15.4H21.8333C22.1647 15.4 22.4333 15.6686 22.4333 16C22.4333 16.3314 22.1647 16.6 21.8333 16.6H11.6152L16.4242 21.4091C16.6586 21.6434 16.6586 22.0233 16.4242 22.2576C16.1899 22.4919 15.81 22.4919 15.5757 22.2576L9.74239 16.4242C9.50807 16.1899 9.50807 15.81 9.74239 15.5757L15.5757 9.74239C15.81 9.50807 16.1899 9.50807 16.4242 9.74239Z" fill="#646464"/>
</svg>
