<svg width="21" height="20" viewBox="0 0 21 20" fill="none" xmlns="http://www.w3.org/2000/svg">
<path d="M10.5 18.125C9.67667 18.125 8.93667 17.6975 8.51833 16.9817C8.345 16.6833 8.445 16.3008 8.74334 16.1267C9.04 15.9533 9.42334 16.0533 9.59834 16.3517C9.98084 17.0075 11.0192 17.0075 11.4017 16.3517C11.5758 16.0533 11.9592 15.9533 12.2567 16.1267C12.555 16.3 12.6558 16.6833 12.4817 16.9817C12.0633 17.6975 11.3233 18.125 10.5 18.125ZM17.7292 15.2708C17.8333 15.0542 17.8042 14.7975 17.655 14.61C17.6392 14.5908 16.1208 12.6575 16.1208 10.4167V7.49583C16.1208 4.39666 13.5992 1.875 10.5 1.875C7.40084 1.875 4.87917 4.39666 4.87917 7.49583V10.4167C4.87917 12.6575 3.36084 14.5908 3.34501 14.61C3.19584 14.7975 3.16667 15.055 3.27084 15.2708C3.375 15.4867 3.59334 15.625 3.83334 15.625H17.1667C17.4067 15.625 17.625 15.4867 17.7292 15.2708ZM6.12917 10.4167V7.49583C6.12917 5.08583 8.09001 3.125 10.5 3.125C12.91 3.125 14.8708 5.08583 14.8708 7.49583V10.4167C14.8708 12.03 15.4958 13.465 16.0108 14.375H4.98834C5.50417 13.465 6.12917 12.03 6.12917 10.4167Z" fill="#61646C"/>
</svg>
