<svg width="20" height="20" viewBox="0 0 20 20" fill="none" xmlns="http://www.w3.org/2000/svg">
<g id="Frame">
<g id="Group">
<path id="Vector" d="M9.99987 19.0007C8.2281 19.0007 6.78534 17.5588 6.78534 15.7862C6.78534 15.4313 7.07336 15.1432 7.42825 15.1432C7.78313 15.1432 8.07115 15.4313 8.07115 15.7862C8.07115 16.85 8.93695 17.7149 9.99987 17.7149C11.0628 17.7149 11.9286 16.85 11.9286 15.7862C11.9286 15.4313 12.2166 15.1432 12.5715 15.1432C12.9264 15.1432 13.2144 15.4313 13.2144 15.7862C13.2144 17.5588 11.7718 19.0007 9.99987 19.0007Z" fill="#646464"/>
<path id="Vector_2" d="M17.0719 16.4291H2.92792C2.10074 16.4291 1.42786 15.7562 1.42786 14.929C1.42772 14.7123 1.47455 14.4982 1.56511 14.3014C1.65566 14.1046 1.7878 13.9297 1.95243 13.7889C1.97393 13.77 1.99703 13.7529 2.02102 13.7374C3.27935 12.6393 3.99948 11.0595 3.99948 9.39133V6.99972C3.99948 3.691 6.69197 0.999313 9.99989 0.999313C10.1371 0.999313 10.2854 1.0018 10.4226 1.02503C10.7731 1.08329 11.0098 1.41511 10.9514 1.76477C10.8931 2.11451 10.5554 2.35123 10.2116 2.2928C10.1431 2.28167 10.0677 2.28513 9.99989 2.28513C7.40094 2.28513 5.2853 4.39985 5.2853 6.99972V9.39133C5.2853 11.4624 4.37743 13.422 2.79685 14.7668C2.78399 14.7772 2.77286 14.7866 2.75903 14.796C2.72925 14.8339 2.71325 14.8808 2.71367 14.929C2.71367 15.0455 2.81147 15.1433 2.92792 15.1433H17.0719C17.1885 15.1433 17.2863 15.0455 17.2863 14.929C17.2863 14.8689 17.264 14.8253 17.24 14.796C17.2271 14.7866 17.216 14.7772 17.2031 14.7669C15.6215 13.4211 14.7146 11.4624 14.7146 9.39133V8.45711C14.7146 8.10222 15.0027 7.8142 15.3575 7.8142C15.7124 7.8142 16.0005 8.10222 16.0005 8.45711V9.39133C16.0005 11.0604 16.7214 12.641 17.9814 13.74C18.0045 13.7554 18.0268 13.7718 18.0473 13.7898C18.2121 13.9304 18.3443 14.105 18.4349 14.3017C18.5255 14.4984 18.5723 14.7124 18.5721 14.929C18.5721 15.7562 17.8992 16.4291 17.0719 16.4291Z" fill="#646464"/>
</g>
<path id="Exclude" fill-rule="evenodd" clip-rule="evenodd" d="M14.3415 6.96057C15.9877 6.96057 17.3222 5.6261 17.3222 3.97994C17.3222 2.33379 15.9877 0.999313 14.3415 0.999313C12.6954 0.999313 11.3609 2.33379 11.3609 3.97994C11.3609 5.6261 12.6954 6.96057 14.3415 6.96057ZM14.3415 5.76143C15.3254 5.76143 16.123 4.96383 16.123 3.97994C16.123 2.99605 15.3254 2.19846 14.3415 2.19846C13.3576 2.19846 12.56 2.99605 12.56 3.97994C12.56 4.96383 13.3576 5.76143 14.3415 5.76143Z" fill="#646464"/>
</g>
</svg>
