<svg width="20" height="20" viewBox="0 0 20 20" fill="none" xmlns="http://www.w3.org/2000/svg">
<path d="M10.0002 18.1242C9.52016 18.1242 9.04021 17.9417 8.67438 17.5758L6.99103 15.8933C6.77186 15.675 6.42013 15.6508 6.17346 15.8358L5.04187 16.685C4.59604 17.0183 4.01101 17.0708 3.51518 16.8225C3.01768 16.5742 2.7085 16.0742 2.7085 15.5183V5C2.7085 2.985 3.8185 1.875 5.8335 1.875H14.1668C16.1818 1.875 17.2918 2.985 17.2918 5V15.5175C17.2918 16.0733 16.9826 16.5733 16.4851 16.8217C15.9893 17.07 15.4035 17.0175 14.9585 16.6842L13.8259 15.8342C13.5801 15.6492 13.2276 15.6733 13.0093 15.8925L11.3259 17.575C10.9601 17.9417 10.4802 18.1242 10.0002 18.1242ZM6.54679 14.4633C7.03096 14.4633 7.51346 14.6483 7.87512 15.0092L9.55847 16.6925C9.7943 16.9283 10.206 16.9283 10.4427 16.6925L12.126 15.01C12.7819 14.3542 13.8368 14.2808 14.576 14.8358L15.7093 15.6858C15.7993 15.7542 15.8844 15.7267 15.9277 15.7058C15.9702 15.6842 16.0426 15.6317 16.0426 15.5192V5C16.0426 3.68583 15.4818 3.125 14.1676 3.125H5.83431C4.52014 3.125 3.95931 3.68583 3.95931 5V15.5175C3.95931 15.63 4.03186 15.6825 4.07436 15.7042C4.11853 15.7258 4.20266 15.7525 4.29266 15.6842L5.42517 14.8342C5.75684 14.5858 6.15263 14.4633 6.54679 14.4633ZM13.9585 7.5C13.9585 7.155 13.6785 6.875 13.3335 6.875H6.66683C6.32183 6.875 6.04183 7.155 6.04183 7.5C6.04183 7.845 6.32183 8.125 6.66683 8.125H13.3335C13.6785 8.125 13.9585 7.845 13.9585 7.5ZM11.4585 10.8333C11.4585 10.4883 11.1785 10.2083 10.8335 10.2083H6.66683C6.32183 10.2083 6.04183 10.4883 6.04183 10.8333C6.04183 11.1783 6.32183 11.4583 6.66683 11.4583H10.8335C11.1785 11.4583 11.4585 11.1783 11.4585 10.8333Z" fill="#61646C"/>
</svg>
