<svg width="25" height="25" viewBox="0 0 25 25" fill="none" xmlns="http://www.w3.org/2000/svg">
<path d="M6.38889 3.71321C8.1 2.49099 10.3 1.87988 12.5 1.87988C18.6111 1.87988 23.5 6.76877 23.5 12.8799C23.5 15.2021 22.7667 17.4021 21.5444 19.2354C19.4667 22.0465 16.1667 23.8799 12.5 23.8799C6.38889 23.8799 1.5 18.991 1.5 12.8799C1.5 9.09099 3.45556 5.79099 6.38889 3.71321Z" fill="#2e90fa"/>
<path fill-rule="evenodd" clip-rule="evenodd" d="M12.5 19.1132C13.2333 19.1132 13.8444 18.5021 13.8444 17.7688V12.6354C13.8444 11.9021 13.2333 11.291 12.5 11.291C11.7667 11.291 11.1556 11.9021 11.1556 12.6354V17.7688C11.1556 18.5021 11.7667 19.1132 12.5 19.1132Z" fill="white"/>
<path fill-rule="evenodd" clip-rule="evenodd" d="M11.1556 7.99099C11.1556 8.72433 11.7667 9.33544 12.5 9.33544C13.2333 9.33544 13.8444 8.72433 13.8444 7.99099C13.8444 7.25766 13.2333 6.64655 12.5 6.64655C11.7667 6.64655 11.1556 7.25766 11.1556 7.99099Z" fill="white"/>
</svg>
