<svg width="10" height="12" viewBox="0 0 10 12" fill="none" xmlns="http://www.w3.org/2000/svg">
<path fill-rule="evenodd" clip-rule="evenodd" d="M1.30728 11.5C1.07157 11.5 0.914425 11.5 0.835854 11.3429L0.678711 10.95V1.05C0.678711 0.892857 0.678711 0.735714 0.835854 0.657143L1.30728 0.5H5.23585C6.41443 0.5 7.35728 0.735714 7.98585 1.28571C8.53585 1.75714 8.85014 2.38571 8.85014 3.25C8.86766 3.78679 8.70134 4.31348 8.37871 4.74286C8.06442 5.21429 7.593 5.52857 7.12157 5.68571C7.43585 5.76429 7.82871 5.92143 8.143 6.15714C8.45728 6.39286 8.77157 6.70714 8.92871 7.1C9.243 7.41429 9.32157 7.88571 9.32157 8.35714C9.32157 9.37857 9.00728 10.1643 8.30014 10.7143C7.67157 11.2643 6.65014 11.5 5.31442 11.5H1.30728ZM5.23585 4.97857C5.70728 4.97857 6.17871 4.9 6.493 4.58571C6.80728 4.35 6.96443 4.03571 6.96443 3.56429C6.96443 2.7 6.33585 2.22857 5.15728 2.22857H2.48585V4.97857H5.15728H5.23585ZM5.62871 9.69286C6.17871 9.69286 6.65014 9.61428 6.96443 9.37857C7.27871 9.06429 7.43585 8.67143 7.43585 8.2C7.43585 7.72857 7.27871 7.41429 6.88585 7.1C6.57157 6.86429 6.10014 6.78571 5.31442 6.78571H2.56442V9.77143H5.70728L5.62871 9.69286Z" fill="#8A8A8A"/>
</svg>
