<svg width="10" height="12" viewBox="0 0 10 11" fill="none" xmlns="http://www.w3.org/2000/svg">
<path fill-rule="evenodd" clip-rule="evenodd" d="M1.30728 11C1.07157 11 0.914425 11 0.835854 10.8429L0.678711 10.45V0.55C0.678711 0.392857 0.678711 0.235714 0.835854 0.157143L1.30728 0H5.23585C6.41443 0 7.35728 0.235714 7.98585 0.785714C8.53585 1.25714 8.85014 1.88571 8.85014 2.75C8.86766 3.28679 8.70134 3.81348 8.37871 4.24286C8.06442 4.71429 7.593 5.02857 7.12157 5.18571C7.43585 5.26429 7.82871 5.42143 8.143 5.65714C8.45728 5.89286 8.77157 6.20714 8.92871 6.6C9.243 6.91429 9.32157 7.38571 9.32157 7.85714C9.32157 8.87857 9.00728 9.66429 8.30014 10.2143C7.67157 10.7643 6.65014 11 5.31442 11H1.30728ZM5.23585 4.47857C5.70728 4.47857 6.17871 4.4 6.493 4.08571C6.80728 3.85 6.96443 3.53571 6.96443 3.06429C6.96443 2.2 6.33585 1.72857 5.15728 1.72857H2.48585V4.47857H5.15728H5.23585ZM5.62871 9.19286C6.17871 9.19286 6.65014 9.11428 6.96443 8.87857C7.27871 8.56429 7.43585 8.17143 7.43585 7.7C7.43585 7.22857 7.27871 6.91429 6.88585 6.6C6.57157 6.36429 6.10014 6.28571 5.31442 6.28571H2.56442V9.27143H5.70728L5.62871 9.19286Z" fill="#202020"/>
</svg>
