<svg width="16" height="16" viewBox="0 0 16 16" fill="none" xmlns="http://www.w3.org/2000/svg">
<path fill-rule="evenodd" clip-rule="evenodd" d="M3.33301 13.798V3.53398C3.33301 2.42941 4.22844 1.53398 5.33301 1.53398H10.6663C11.7709 1.53398 12.6663 2.42941 12.6663 3.53398V13.798C12.667 14.0584 12.516 14.2953 12.2797 14.4047C12.1918 14.4447 12.0963 14.4652 11.9997 14.4647C11.8439 14.465 11.693 14.4107 11.573 14.3113L7.99968 11.3313L4.42634 14.3113C4.30626 14.4113 4.15487 14.466 3.99859 14.4657C3.6304 14.4651 3.33241 14.1662 3.33301 13.798ZM11.5463 12.8307V3.53398C11.5463 3.04797 11.1524 2.65398 10.6663 2.65398H5.33301C4.847 2.65398 4.45301 3.04797 4.45301 3.53398V12.8307L7.99968 9.87296L11.5463 12.8307ZM11.5463 13.8008C11.5463 13.7998 11.5463 13.7989 11.5463 13.798L11.5463 13.8008Z" fill="#999999"/>
</svg>
