<svg width="161" height="160" viewBox="0 0 161 160" fill="none" xmlns="http://www.w3.org/2000/svg">
<g clip-path="url(#clip0_19167_5537)">
<path fill-rule="evenodd" clip-rule="evenodd" d="M132.785 77.2798H28.2158V125.675C28.2158 127.983 29.7295 130.019 31.9411 130.683C42.4477 133.834 71.9939 142.699 78.9974 144.8C79.9778 145.093 81.0235 145.093 82.0038 144.8C89.0073 142.699 118.553 133.834 129.06 130.683C131.272 130.019 132.785 127.983 132.785 125.675C132.785 113.555 132.785 77.2798 132.785 77.2798Z" fill="url(#paint0_linear_19167_5537)"/>
<path fill-rule="evenodd" clip-rule="evenodd" d="M132.785 77.2798H28.2158V125.675C28.2158 127.983 29.7295 130.019 31.9411 130.683C42.4477 133.834 71.9939 142.699 78.9974 144.8C79.9778 145.093 81.0235 145.093 82.0038 144.8C89.0073 142.699 118.553 133.834 129.06 130.683C131.272 130.019 132.785 127.983 132.785 125.675C132.785 113.555 132.785 77.2798 132.785 77.2798Z" fill="url(#paint1_linear_19167_5537)"/>
<path fill-rule="evenodd" clip-rule="evenodd" d="M132.786 77.2798H80.5008C80.5008 77.2798 79.9936 145.02 80.5008 145.02C81.008 145.02 81.5125 144.947 82.004 144.8C89.0075 142.699 118.554 133.834 129.06 130.683C131.272 130.019 132.786 127.983 132.786 125.675C132.786 113.555 132.786 77.2798 132.786 77.2798Z" fill="url(#paint2_linear_19167_5537)"/>
<path fill-rule="evenodd" clip-rule="evenodd" d="M132.786 77.2798H80.5008C80.5008 77.2798 79.9936 145.02 80.5008 145.02C81.008 145.02 81.5125 144.947 82.004 144.8C89.0075 142.699 118.554 133.834 129.06 130.683C131.272 130.019 132.786 127.983 132.786 125.675C132.786 113.555 132.786 77.2798 132.786 77.2798Z" fill="url(#paint3_linear_19167_5537)"/>
<path fill-rule="evenodd" clip-rule="evenodd" d="M80.5 94.2436L28.2152 77.2798C28.2152 77.2798 19.0471 90.8738 14.9479 96.9493C14.4878 97.6316 14.3754 98.4865 14.6421 99.2629C14.9113 100.039 15.5257 100.643 16.3073 100.899C26.2388 104.125 55.6386 113.678 63.3506 116.182C64.4564 116.543 65.6694 116.127 66.323 115.163C69.8287 109.989 80.5 94.2436 80.5 94.2436Z" fill="url(#paint4_linear_19167_5537)"/>
<path fill-rule="evenodd" clip-rule="evenodd" d="M80.5 94.2436L28.2152 77.2798C28.2152 77.2798 19.0471 90.8738 14.9479 96.9493C14.4878 97.6316 14.3754 98.4865 14.6421 99.2629C14.9113 100.039 15.5257 100.643 16.3073 100.899C26.2388 104.125 55.6386 113.678 63.3506 116.182C64.4564 116.543 65.6694 116.127 66.323 115.163C69.8287 109.989 80.5 94.2436 80.5 94.2436Z" fill="url(#paint5_linear_19167_5537)"/>
<path fill-rule="evenodd" clip-rule="evenodd" d="M132.786 77.2798L80.501 94.2436C80.501 94.2436 91.1723 109.989 94.678 115.163C95.3316 116.127 96.5446 116.543 97.6504 116.182C105.362 113.678 134.762 104.125 144.694 100.899C145.475 100.643 146.09 100.039 146.359 99.2629C146.626 98.4865 146.513 97.6316 146.053 96.9493C141.954 90.8738 132.786 77.2798 132.786 77.2798Z" fill="url(#paint6_linear_19167_5537)"/>
<path fill-rule="evenodd" clip-rule="evenodd" d="M132.786 77.2798L80.501 94.2436C80.501 94.2436 91.1723 109.989 94.678 115.163C95.3316 116.127 96.5446 116.543 97.6504 116.182C105.362 113.678 134.762 104.125 144.694 100.899C145.475 100.643 146.09 100.039 146.359 99.2629C146.626 98.4865 146.513 97.6316 146.053 96.9493C141.954 90.8738 132.786 77.2798 132.786 77.2798Z" fill="url(#paint7_linear_19167_5537)"/>
<path fill-rule="evenodd" clip-rule="evenodd" d="M66.5 47.4995C65.3751 46.4995 64 45.8503 62 46.4995C54.2932 49.0013 25.4322 57.03 15.5007 60.2585C14.7191 60.5121 14.1021 61.116 13.8354 61.8925C13.5688 62.6689 13.6812 63.5263 14.1413 64.2061C19 68.9995 28.2157 77.2799 28.2157 77.2799L80.5004 60.2585C80.5004 60.2585 71 51.4995 66.5 47.4995Z" fill="url(#paint8_linear_19167_5537)"/>
<path fill-rule="evenodd" clip-rule="evenodd" d="M94.5 47.5347C95.6249 46.5347 97 45.8855 99 46.5347C106.707 49.0365 135.568 57.0652 145.499 60.2938C146.281 60.5473 146.898 61.1512 147.165 61.9277C147.431 62.7041 147.319 63.5616 146.859 64.2413C142 69.0348 132.784 77.3151 132.784 77.3151L80.5 60.2739C80.5 60.2739 90 51.5347 94.5 47.5347Z" fill="url(#paint9_linear_19167_5537)"/>
<path fill-rule="evenodd" clip-rule="evenodd" d="M132.785 77.2801L80.5006 60.2588L28.2158 77.2801L80.5006 94.2439L132.785 77.2801Z" fill="url(#paint10_linear_19167_5537)"/>
<path fill-rule="evenodd" clip-rule="evenodd" d="M132.785 77.2801L80.5006 60.2588L28.2158 77.2801L80.5006 94.2439L132.785 77.2801Z" fill="url(#paint11_linear_19167_5537)"/>
<path fill-rule="evenodd" clip-rule="evenodd" d="M80.5006 94.2439V60.2588L28.2158 77.2801L80.5006 94.2439Z" fill="url(#paint12_linear_19167_5537)"/>
<path fill-rule="evenodd" clip-rule="evenodd" d="M80.5006 94.2439V60.2588L28.2158 77.2801L80.5006 94.2439Z" fill="url(#paint13_linear_19167_5537)"/>
<g clip-path="url(#clip1_19167_5537)">
<path d="M83.8876 43.1258C84.4099 42.2959 85.2277 41.7074 86.137 41.3405C91.6692 39.1081 95.5731 33.6882 95.5731 27.3564C95.5731 19.0314 88.8244 12.2827 80.4995 12.2827C72.1745 12.2827 65.4258 19.0314 65.4258 27.3564C65.4258 33.6283 69.2562 39.0055 74.7054 41.2763C75.5623 41.6334 76.335 42.1883 76.8458 42.9635L80.4995 48.5088L83.8876 43.1258Z" fill="url(#paint14_linear_19167_5537)"/>
<circle cx="74.0993" cy="28.4724" r="2.22629" fill="white"/>
<circle cx="80.778" cy="28.4724" r="2.22629" fill="white"/>
<circle cx="87.4577" cy="28.4724" r="2.22629" fill="white"/>
</g>
</g>
<defs>
<linearGradient id="paint0_linear_19167_5537" x1="28.2158" y1="111.15" x2="132.785" y2="111.15" gradientUnits="userSpaceOnUse">
<stop stop-color="#CADCF0"/>
<stop offset="1" stop-color="#A4BBDB"/>
</linearGradient>
<linearGradient id="paint1_linear_19167_5537" x1="44.4241" y1="163.505" x2="35.9735" y2="85.2545" gradientUnits="userSpaceOnUse">
<stop stop-color="#E7E7E7"/>
<stop offset="1" stop-color="#C9C9C9"/>
</linearGradient>
<linearGradient id="paint2_linear_19167_5537" x1="80.276" y1="111.15" x2="132.786" y2="111.15" gradientUnits="userSpaceOnUse">
<stop stop-color="#A4BBDB"/>
<stop offset="1" stop-color="#8DA3BE"/>
</linearGradient>
<linearGradient id="paint3_linear_19167_5537" x1="91.5201" y1="89.8186" x2="186.924" y2="143.746" gradientUnits="userSpaceOnUse">
<stop stop-color="#C8C8C8"/>
<stop offset="1" stop-color="#ABABAB"/>
</linearGradient>
<linearGradient id="paint4_linear_19167_5537" x1="28.5629" y1="77.2589" x2="35.8703" y2="125.605" gradientUnits="userSpaceOnUse">
<stop stop-color="#E9F3FC"/>
<stop offset="1" stop-color="#CADCF0"/>
</linearGradient>
<linearGradient id="paint5_linear_19167_5537" x1="65.8606" y1="142.069" x2="41.8096" y2="48.4787" gradientUnits="userSpaceOnUse">
<stop stop-color="#E7E7E7"/>
<stop offset="1" stop-color="#EEEEEE"/>
</linearGradient>
<linearGradient id="paint6_linear_19167_5537" x1="80.7127" y1="94.0658" x2="135.831" y2="125.766" gradientUnits="userSpaceOnUse">
<stop stop-color="#E9F3FC"/>
<stop offset="1" stop-color="#CADCF0"/>
</linearGradient>
<linearGradient id="paint7_linear_19167_5537" x1="131.862" y1="142.069" x2="107.811" y2="48.4787" gradientUnits="userSpaceOnUse">
<stop stop-color="#E7E7E7"/>
<stop offset="1" stop-color="#EEEEEE"/>
</linearGradient>
<linearGradient id="paint8_linear_19167_5537" x1="66.198" y1="101.55" x2="44.2452" y2="12.9811" gradientUnits="userSpaceOnUse">
<stop stop-color="#E7E7E7"/>
<stop offset="1" stop-color="#EEEEEE"/>
</linearGradient>
<linearGradient id="paint9_linear_19167_5537" x1="94.802" y1="101.585" x2="116.755" y2="13.0162" gradientUnits="userSpaceOnUse">
<stop stop-color="#E7E7E7"/>
<stop offset="1" stop-color="#EEEEEE"/>
</linearGradient>
<linearGradient id="paint10_linear_19167_5537" x1="28.2158" y1="77.2513" x2="132.785" y2="77.2513" gradientUnits="userSpaceOnUse">
<stop stop-color="#CADCF0"/>
<stop offset="1" stop-color="#A4BBDB"/>
</linearGradient>
<linearGradient id="paint11_linear_19167_5537" x1="49.8131" y1="60.4722" x2="74.4421" y2="91.5112" gradientUnits="userSpaceOnUse">
<stop stop-color="#E7E7E7"/>
<stop offset="1" stop-color="#C9C9C9"/>
</linearGradient>
<linearGradient id="paint12_linear_19167_5537" x1="85.8546" y1="59.498" x2="86.9813" y2="101.726" gradientUnits="userSpaceOnUse">
<stop stop-color="#A4BBDB"/>
<stop offset="1" stop-color="#8DA3BE"/>
</linearGradient>
<linearGradient id="paint13_linear_19167_5537" x1="12.5304" y1="65.7331" x2="62.6712" y2="112.915" gradientUnits="userSpaceOnUse">
<stop stop-color="#C8C8C8"/>
<stop offset="1" stop-color="#ABABAB"/>
</linearGradient>
<linearGradient id="paint14_linear_19167_5537" x1="102.749" y1="33.4289" x2="92.4618" y2="12.4214" gradientUnits="userSpaceOnUse">
<stop stop-color="#5E6063"/>
<stop offset="1" stop-color="#8E9197"/>
</linearGradient>
<clipPath id="clip0_19167_5537">
<rect width="160" height="160" fill="white" transform="translate(0.5)"/>
</clipPath>
<clipPath id="clip1_19167_5537">
<rect width="42.6349" height="42.6349" fill="white" transform="translate(50.3525 28.1938) rotate(-45)"/>
</clipPath>
</defs>
</svg>
