<svg width="21" height="20" viewBox="0 0 21 20" fill="none" xmlns="http://www.w3.org/2000/svg">
<path d="M15.5 4.375H14.4583V3.33333C14.4583 2.52917 13.8042 1.875 13 1.875H8C7.19583 1.875 6.54167 2.52917 6.54167 3.33333V4.375H5.5C3.485 4.375 2.375 5.485 2.375 7.5V7.59918V9.37754V15C2.375 17.015 3.485 18.125 5.5 18.125H15.5C17.515 18.125 18.625 17.015 18.625 15V9.37754V7.59918V7.5C18.625 5.485 17.515 4.375 15.5 4.375ZM7.79167 3.33333C7.79167 3.21833 7.885 3.125 8 3.125H13C13.115 3.125 13.2083 3.21833 13.2083 3.33333V4.375H7.79167V3.33333ZM3.625 7.5C3.625 6.18583 4.18583 5.625 5.5 5.625H15.5C16.8142 5.625 17.375 6.18583 17.375 7.5V7.59918V9.37754C17.375 9.62838 17.2325 9.84745 17.0033 9.94995C16.2825 10.2716 15.0542 10.73 13.2983 11.0884C13.2125 11.1059 13.12 11.04 13.07 10.9667C12.4658 10.0642 11.5058 9.52586 10.5 9.52586C9.49417 9.52586 8.53417 10.0642 7.93 10.9667C7.88083 11.0409 7.79167 11.1075 7.70166 11.0884C5.94667 10.73 4.7175 10.2716 3.99667 9.94995C3.7675 9.84745 3.625 9.62838 3.625 9.37754V7.59918V7.5ZM15.5 16.875H5.5C4.18583 16.875 3.625 16.3142 3.625 15V11.15C4.41667 11.4925 5.68584 11.9517 7.45084 12.3125C8.02584 12.4292 8.62417 12.175 8.96834 11.6609C9.34 11.1059 9.9125 10.775 10.5 10.775C11.0875 10.775 11.66 11.1059 12.0308 11.6609C12.3192 12.0917 12.7842 12.3408 13.2667 12.3408C13.36 12.3408 13.4542 12.3317 13.5475 12.3125C15.3133 11.9517 16.5825 11.4925 17.3742 11.15V15C17.375 16.3142 16.8142 16.875 15.5 16.875ZM11.35 12.5C11.35 12.96 10.9767 13.3333 10.5167 13.3333C10.0567 13.3333 9.67917 12.96 9.67917 12.5C9.67917 12.04 10.0475 11.6667 10.5083 11.6667H10.5167C10.9767 11.6667 11.35 12.04 11.35 12.5Z" fill="#61646C"/>
</svg>
