<svg width="24" height="24" viewBox="0 0 24 24" fill="none" xmlns="http://www.w3.org/2000/svg">
<path d="M0.5 4C0.5 2.067 2.067 0.5 4 0.5H20C21.933 0.5 23.5 2.067 23.5 4V20C23.5 21.933 21.933 23.5 20 23.5H4C2.067 23.5 0.5 21.933 0.5 20V4Z" fill="white"/>
<path d="M0.5 4C0.5 2.067 2.067 0.5 4 0.5H20C21.933 0.5 23.5 2.067 23.5 4V20C23.5 21.933 21.933 23.5 20 23.5H4C2.067 23.5 0.5 21.933 0.5 20V4Z" stroke="#ECECED"/>
<path d="M16.25 18.5H10.4167C8.96533 18.5 8.16667 17.7013 8.16667 16.25V10.4167C8.16667 8.96533 8.96533 8.16667 10.4167 8.16667H16.25C17.7013 8.16667 18.5 8.96533 18.5 10.4167V16.25C18.5 17.7013 17.7013 18.5 16.25 18.5ZM10.4167 9.16667C9.52867 9.16667 9.16667 9.52867 9.16667 10.4167V16.25C9.16667 17.138 9.52867 17.5 10.4167 17.5H16.25C17.138 17.5 17.5 17.138 17.5 16.25V10.4167C17.5 9.52867 17.138 9.16667 16.25 9.16667H10.4167ZM6.5 14V7.75C6.5 6.862 6.862 6.5 7.75 6.5H14C14.276 6.5 14.5 6.276 14.5 6C14.5 5.724 14.276 5.5 14 5.5H7.75C6.29867 5.5 5.5 6.29867 5.5 7.75V14C5.5 14.276 5.724 14.5 6 14.5C6.276 14.5 6.5 14.276 6.5 14Z" fill="#61646C"/>
</svg>
