<svg width="20" height="20" viewBox="0 0 20 20" fill="none" xmlns="http://www.w3.org/2000/svg">
<path d="M18.3332 16.875H18.1248V9.16667C18.1248 7.71 17.2898 6.875 15.8332 6.875H15.6248V5C15.6248 2.985 14.5148 1.875 12.4998 1.875H7.49984C5.48484 1.875 4.37484 2.985 4.37484 5V6.875H4.1665C2.70984 6.875 1.87484 7.71 1.87484 9.16667V16.875H1.6665C1.3215 16.875 1.0415 17.155 1.0415 17.5C1.0415 17.845 1.3215 18.125 1.6665 18.125H18.3332C18.6782 18.125 18.9582 17.845 18.9582 17.5C18.9582 17.155 18.6782 16.875 18.3332 16.875ZM5.62484 5C5.62484 3.68583 6.18567 3.125 7.49984 3.125H12.4998C13.814 3.125 14.3748 3.68583 14.3748 5V16.875H12.2915V15C12.2915 13.7358 11.264 12.7083 9.99984 12.7083C8.73567 12.7083 7.70817 13.7358 7.70817 15V16.875H5.62484V5ZM11.0415 16.875H8.95817V15C8.95817 14.4258 9.42567 13.9583 9.99984 13.9583C10.574 13.9583 11.0415 14.4258 11.0415 15V16.875ZM3.12484 9.16667C3.12484 8.4075 3.40734 8.125 4.1665 8.125H4.37484V16.875H3.12484V9.16667ZM15.6248 16.875V8.125H15.8332C16.5923 8.125 16.8748 8.4075 16.8748 9.16667V16.875H15.6248ZM7.2915 5.83333C7.2915 5.48833 7.5715 5.20833 7.9165 5.20833H8.74984C9.09484 5.20833 9.37484 5.48833 9.37484 5.83333C9.37484 6.17833 9.09484 6.45833 8.74984 6.45833H7.9165C7.5715 6.45833 7.2915 6.17833 7.2915 5.83333ZM10.6248 5.83333C10.6248 5.48833 10.9048 5.20833 11.2498 5.20833H12.0832C12.4282 5.20833 12.7082 5.48833 12.7082 5.83333C12.7082 6.17833 12.4282 6.45833 12.0832 6.45833H11.2498C10.9048 6.45833 10.6248 6.17833 10.6248 5.83333ZM7.2915 8.33333C7.2915 7.98833 7.5715 7.70833 7.9165 7.70833H8.74984C9.09484 7.70833 9.37484 7.98833 9.37484 8.33333C9.37484 8.67833 9.09484 8.95833 8.74984 8.95833H7.9165C7.5715 8.95833 7.2915 8.67833 7.2915 8.33333ZM10.6248 8.33333C10.6248 7.98833 10.9048 7.70833 11.2498 7.70833H12.0832C12.4282 7.70833 12.7082 7.98833 12.7082 8.33333C12.7082 8.67833 12.4282 8.95833 12.0832 8.95833H11.2498C10.9048 8.95833 10.6248 8.67833 10.6248 8.33333ZM7.2915 10.8333C7.2915 10.4883 7.5715 10.2083 7.9165 10.2083H8.74984C9.09484 10.2083 9.37484 10.4883 9.37484 10.8333C9.37484 11.1783 9.09484 11.4583 8.74984 11.4583H7.9165C7.5715 11.4583 7.2915 11.1783 7.2915 10.8333ZM10.6248 10.8333C10.6248 10.4883 10.9048 10.2083 11.2498 10.2083H12.0832C12.4282 10.2083 12.7082 10.4883 12.7082 10.8333C12.7082 11.1783 12.4282 11.4583 12.0832 11.4583H11.2498C10.9048 11.4583 10.6248 11.1783 10.6248 10.8333Z" fill="#61646C"/>
</svg>
