<svg width="18" height="15" viewBox="0 0 18 15" fill="none" xmlns="http://www.w3.org/2000/svg">
  <path d="M1 13.9375H16.75" stroke="currentColor" stroke-width="1.2" stroke-linecap="round" stroke-linejoin="round" />
  <path
    d="M10 13.9375V1.5625C10 1.41332 9.94074 1.27024 9.83525 1.16475C9.72976 1.05926 9.58668 1 9.4375 1H2.6875C2.53832 1 2.39524 1.05926 2.28975 1.16475C2.18426 1.27024 2.125 1.41332 2.125 1.5625V13.9375"
    stroke="currentColor" stroke-width="1.2" stroke-linecap="round" stroke-linejoin="round" />
  <path
    d="M15.625 13.9375V6.0625C15.625 5.91332 15.5657 5.77024 15.4602 5.66475C15.3548 5.55926 15.2117 5.5 15.0625 5.5H10"
    stroke="currentColor" stroke-width="1.2" stroke-linecap="round" stroke-linejoin="round" />
  <path d="M4.375 3.8125H6.625" stroke="currentColor" stroke-width="1.2" stroke-linecap="round" stroke-linejoin="round" />
  <path d="M5.5 8.3125H7.75" stroke="currentColor" stroke-width="1.2" stroke-linecap="round" stroke-linejoin="round" />
  <path d="M4.375 11.125H6.625" stroke="currentColor" stroke-width="1.2" stroke-linecap="round" stroke-linejoin="round" />
  <path d="M12.25 11.125H13.375" stroke="currentColor" stroke-width="1.2" stroke-linecap="round" stroke-linejoin="round" />
  <path d="M12.25 8.3125H13.375" stroke="currentColor" stroke-width="1.2" stroke-linecap="round" stroke-linejoin="round" />
</svg>
