<svg width="16" height="16" viewBox="0 0 16 16" fill="none" xmlns="http://www.w3.org/2000/svg">
<path fill-rule="evenodd" clip-rule="evenodd" d="M8.2132 2.29703L2.78276 2.29707C2.51564 2.2558 2.24328 2.32803 2.03902 2.49828C1.83475 2.67369 1.71429 2.92649 1.71429 3.18961V13.1984C1.71429 13.4821 1.94998 13.7143 2.23805 13.7143H3.94027V11.5031C3.94027 11.0027 4.3488 10.6002 4.85685 10.6002H5.84056C6.34861 10.6002 6.75714 11.0027 6.75714 11.5031V13.7143H8.98313V3.18957C8.98313 2.74588 8.65839 2.36926 8.2132 2.29703ZM3.67871 4.69274C3.43077 4.69274 3.22977 4.89072 3.22977 5.13495C3.22977 5.37918 3.43077 5.57717 3.67871 5.57717H4.45032C4.69826 5.57717 4.89926 5.37918 4.89926 5.13495C4.89926 4.89072 4.69826 4.69274 4.45032 4.69274H3.67871ZM3.22977 7.08087C3.22977 6.83664 3.43077 6.63866 3.67871 6.63866H4.45032C4.69826 6.63866 4.89926 6.83664 4.89926 7.08087C4.89926 7.3251 4.69826 7.52309 4.45032 7.52309H3.67871C3.43077 7.52309 3.22977 7.3251 3.22977 7.08087ZM6.24607 4.69274C5.99813 4.69274 5.79714 4.89072 5.79714 5.13495C5.79714 5.37918 5.99813 5.57717 6.24607 5.57717H7.01769C7.26563 5.57717 7.46662 5.37918 7.46662 5.13495C7.46662 4.89072 7.26563 4.69274 7.01769 4.69274H6.24607ZM5.79714 7.08087C5.79714 6.83664 5.99813 6.63866 6.24607 6.63866H7.01769C7.26563 6.63866 7.46662 6.83664 7.46662 7.08087C7.46662 7.3251 7.26563 7.52309 7.01769 7.52309H6.24607C5.99813 7.52309 5.79714 7.3251 5.79714 7.08087Z" fill="currentColor"/>
<path fill-rule="evenodd" clip-rule="evenodd" d="M13.5629 6.92571L9.83068 6.92553L9.83375 13.7142H13.3691C13.8746 13.7142 14.2857 13.3092 14.2857 12.8113V7.80793C14.2857 7.38178 13.9567 6.92571 13.5629 6.92571ZM11.6751 8.77738C11.4272 8.77738 11.2262 8.97537 11.2262 9.21959C11.2262 9.46382 11.4272 9.66181 11.6751 9.66181H12.4467C12.6946 9.66181 12.8956 9.46382 12.8956 9.21959C12.8956 8.97537 12.6946 8.77738 12.4467 8.77738H11.6751ZM11.2262 10.9774C11.2262 10.7331 11.4272 10.5352 11.6751 10.5352H12.4467C12.6946 10.5352 12.8956 10.7331 12.8956 10.9774C12.8956 11.2216 12.6946 11.4196 12.4467 11.4196H11.6751C11.4272 11.4196 11.2262 11.2216 11.2262 10.9774Z" fill="currentColor"/>
</svg>
