<svg width="24" height="24" viewBox="0 0 24 24" fill="none" xmlns="http://www.w3.org/2000/svg">
<path d="M22 19.8799H21.5V10.6299C21.5 9.41188 20.938 8.7478 19.822 8.6438C19.65 8.6278 19.5 8.775 19.5 8.948V19.8799H18V5.62988C18 3.62988 17 2.62988 15 2.62988H9C7 2.62988 6 3.62988 6 5.62988V19.8799H4.5V8.948C4.5 8.775 4.34998 8.6278 4.17798 8.6438C3.06198 8.7478 2.5 9.41188 2.5 10.6299V19.8799H2C1.59 19.8799 1.25 20.2199 1.25 20.6299C1.25 21.0399 1.59 21.3799 2 21.3799H22C22.41 21.3799 22.75 21.0399 22.75 20.6299C22.75 20.2199 22.41 19.8799 22 19.8799ZM9.5 5.87988H10.5C10.914 5.87988 11.25 6.21588 11.25 6.62988C11.25 7.04388 10.914 7.37988 10.5 7.37988H9.5C9.086 7.37988 8.75 7.04388 8.75 6.62988C8.75 6.21588 9.086 5.87988 9.5 5.87988ZM9.5 8.87988H10.5C10.914 8.87988 11.25 9.21588 11.25 9.62988C11.25 10.0439 10.914 10.3799 10.5 10.3799H9.5C9.086 10.3799 8.75 10.0439 8.75 9.62988C8.75 9.21588 9.086 8.87988 9.5 8.87988ZM8.75 12.6299C8.75 12.2159 9.086 11.8799 9.5 11.8799H10.5C10.914 11.8799 11.25 12.2159 11.25 12.6299C11.25 13.0439 10.914 13.3799 10.5 13.3799H9.5C9.086 13.3799 8.75 13.0439 8.75 12.6299ZM14 19.8799H10V17.6299C10 16.5259 10.896 15.6299 12 15.6299C13.105 15.6299 14 16.5259 14 17.6299V19.8799ZM14.5 13.3799H13.5C13.086 13.3799 12.75 13.0439 12.75 12.6299C12.75 12.2159 13.086 11.8799 13.5 11.8799H14.5C14.914 11.8799 15.25 12.2159 15.25 12.6299C15.25 13.0439 14.914 13.3799 14.5 13.3799ZM14.5 10.3799H13.5C13.086 10.3799 12.75 10.0439 12.75 9.62988C12.75 9.21588 13.086 8.87988 13.5 8.87988H14.5C14.914 8.87988 15.25 9.21588 15.25 9.62988C15.25 10.0439 14.914 10.3799 14.5 10.3799ZM14.5 7.37988H13.5C13.086 7.37988 12.75 7.04388 12.75 6.62988C12.75 6.21588 13.086 5.87988 13.5 5.87988H14.5C14.914 5.87988 15.25 6.21588 15.25 6.62988C15.25 7.04388 14.914 7.37988 14.5 7.37988Z" fill="#61646C"/>
</svg>