<svg width="24" height="24" viewBox="0 0 24 24" fill="none" xmlns="http://www.w3.org/2000/svg">
<path fill-rule="evenodd" clip-rule="evenodd" d="M-0.0488281 20.8634V22.1765H23.8754V20.8634H22.2635V15.9021H23.9512L20.4048 13.5508L17.8167 11.9332L11.8731 15.9021H13.4022V20.8634H11.6049V1.82349H1.67458V20.8634H-0.0488281ZM4.14775 4.12485H6.0243V6.00139H4.14775V4.12485ZM6.0243 7.37739H4.14775V9.25393H6.0243V7.37739ZM4.14775 10.6304H6.0243V12.5069H4.14775V10.6304ZM17.1223 15.9021H15.2458V17.7068H17.1223V15.9021ZM4.14775 13.8832H6.0243V15.7597H4.14775V13.8832ZM9.25638 4.12485H7.37984V6.00139H9.25638V4.12485ZM7.37984 7.37739H9.25638V9.25393H7.37984V7.37739ZM9.25638 10.6304H7.37984V12.5069H9.25638V10.6304ZM18.4779 15.9021H20.3544L20.3544 17.7068H18.4779L18.4779 15.9021ZM9.25638 13.8832H7.37984V15.7597H9.25638V13.8832ZM5.39855 17.6574H7.96322V20.9103H5.39855V17.6574Z" fill="#28ad99"/>
</svg>
