<svg width="24" height="24" viewBox="0 0 24 24" fill="none" xmlns="http://www.w3.org/2000/svg">
<rect width="24" height="24" rx="3" fill="#E1F8F5"/>
<g clip-path="url(#clip0_6487_52104)">
<path fill-rule="evenodd" clip-rule="evenodd" d="M12.244 5.37511L6.03022 5.37516C5.72457 5.32721 5.41293 5.41111 5.17919 5.60889C4.94546 5.81266 4.80762 6.10632 4.80762 6.41197V18.0387C4.80762 18.3683 5.07731 18.638 5.40693 18.638H7.35471V16.0694C7.35471 15.488 7.82218 15.0206 8.40352 15.0206H9.52914C10.1105 15.0206 10.5779 15.488 10.5779 16.0694V18.638H13.125V6.41192C13.125 5.89651 12.7535 5.45901 12.244 5.37511ZM7.05543 8.15808C6.77172 8.15808 6.54172 8.38808 6.54172 8.67179C6.54172 8.95549 6.77172 9.18549 7.05543 9.18549H7.93835C8.22206 9.18549 8.45205 8.95549 8.45205 8.67179C8.45205 8.38808 8.22206 8.15808 7.93835 8.15808H7.05543ZM6.54172 10.9323C6.54172 10.6486 6.77172 10.4186 7.05543 10.4186H7.93835C8.22206 10.4186 8.45205 10.6486 8.45205 10.9323C8.45205 11.216 8.22206 11.446 7.93835 11.446H7.05543C6.77172 11.446 6.54172 11.216 6.54172 10.9323ZM9.99315 8.15808C9.70944 8.15808 9.47945 8.38808 9.47945 8.67179C9.47945 8.95549 9.70944 9.18549 9.99315 9.18549H10.8761C11.1598 9.18549 11.3898 8.95549 11.3898 8.67179C11.3898 8.38808 11.1598 8.15808 10.8761 8.15808H9.99315ZM9.47945 10.9323C9.47945 10.6486 9.70944 10.4186 9.99315 10.4186H10.8761C11.1598 10.4186 11.3898 10.6486 11.3898 10.9323C11.3898 11.216 11.1598 11.446 10.8761 11.446H9.99315C9.70944 11.446 9.47945 11.216 9.47945 10.9323Z" fill="#28ad99"/>
<path fill-rule="evenodd" clip-rule="evenodd" d="M18.3655 10.752L14.0949 10.7518L14.0984 18.6378H18.1438C18.7221 18.6378 19.1926 18.1674 19.1926 17.589V11.7769C19.1926 11.2818 18.8161 10.752 18.3655 10.752ZM16.2053 12.903C15.9216 12.903 15.6916 13.133 15.6916 13.4167C15.6916 13.7004 15.9216 13.9304 16.2053 13.9304H17.0883C17.372 13.9304 17.602 13.7004 17.602 13.4167C17.602 13.133 17.372 12.903 17.0883 12.903H16.2053ZM15.6916 15.4586C15.6916 15.1749 15.9216 14.9449 16.2053 14.9449H17.0883C17.372 14.9449 17.602 15.1749 17.602 15.4586C17.602 15.7424 17.372 15.9724 17.0883 15.9724H16.2053C15.9216 15.9724 15.6916 15.7424 15.6916 15.4586Z" fill="#28ad99"/>
</g>
<defs>
<clipPath id="clip0_6487_52104">
<rect width="15" height="15" fill="white" transform="translate(4.5 4.5)"/>
</clipPath>
</defs>
</svg>
