<svg width="36" height="30" viewBox="0 0 36 30" fill="none" xmlns="http://www.w3.org/2000/svg">
<path d="M29.3838 0.416748H11.6169C8.17186 0.416748 6.20045 2.21508 5.96379 5.46341C2.71545 5.69841 0.916992 7.66676 0.916992 11.1118V23.8884C0.916992 27.5617 2.94031 29.5834 6.61198 29.5834H24.3887C27.832 29.5834 29.8019 27.7851 30.0369 24.5367C33.2852 24.3001 35.0837 22.3284 35.0837 18.8834V6.11674C35.0837 2.44175 33.0588 0.416748 29.3838 0.416748ZM27.5837 23.8884C27.5837 26.1567 26.657 27.0834 24.3887 27.0834H6.61198C4.34365 27.0834 3.41699 26.1567 3.41699 23.8884V11.1118C3.41699 8.84343 4.34365 7.91675 6.61198 7.91675H24.3887C26.657 7.91675 27.5837 8.84343 27.5837 11.1118V23.8884ZM32.5837 18.8834C32.5837 20.9051 31.8437 21.8567 30.0837 22.0434V11.1101C30.0837 7.43675 28.0603 5.41507 24.3887 5.41507H8.45524C8.64357 3.6534 9.59523 2.91507 11.6152 2.91507H29.3822C31.6538 2.91507 32.582 3.84176 32.582 6.11509V18.8834H32.5837ZM25.067 12.1534C25.4736 12.7118 25.3502 13.4951 24.7919 13.9001L17.1503 19.4567C16.657 19.8167 16.077 19.9951 15.5003 19.9951C14.9237 19.9951 14.3437 19.8167 13.8503 19.4567L6.20874 13.9001C5.65041 13.4951 5.52701 12.7134 5.93367 12.1534C6.33867 11.5984 7.11883 11.4717 7.6805 11.8784L15.3221 17.4351C15.4288 17.5134 15.5718 17.5134 15.6802 17.4351L23.3222 11.8784C23.8822 11.4701 24.662 11.5968 25.067 12.1534Z" fill="#51525C"/>
</svg>
