<svg width="14" height="13" viewBox="0 0 14 13" fill="none" xmlns="http://www.w3.org/2000/svg">
<path fill-rule="evenodd" clip-rule="evenodd" d="M5.69987 0.416667H12.3665C12.8665 0.416667 13.1999 0.75 13.1999 1.25C13.1999 1.75 12.8665 2.08333 12.3665 2.08333H5.69987C5.47886 2.08333 5.26689 1.99554 5.11061 1.83926C4.95433 1.68298 4.86654 1.47101 4.86654 1.25C4.86654 1.02899 4.95433 0.817025 5.11061 0.660744C5.26689 0.504464 5.47886 0.416667 5.69987 0.416667ZM5.69987 5.41667H12.3665C12.8665 5.41667 13.1999 5.75 13.1999 6.25C13.1999 6.75 12.8665 7.08333 12.3665 7.08333H5.69987C5.47886 7.08333 5.26689 6.99554 5.11061 6.83926C4.95433 6.68298 4.86654 6.47101 4.86654 6.25C4.86654 6.02899 4.95433 5.81703 5.11061 5.66074C5.26689 5.50446 5.47886 5.41667 5.69987 5.41667ZM5.69987 10.4167H12.3665C12.8665 10.4167 13.1999 10.75 13.1999 11.25C13.1999 11.75 12.8665 12.0833 12.3665 12.0833H5.69987C5.47886 12.0833 5.26689 11.9955 5.11061 11.8393C4.95433 11.683 4.86654 11.471 4.86654 11.25C4.86654 11.029 4.95433 10.817 5.11061 10.6607C5.26689 10.5045 5.47886 10.4167 5.69987 10.4167ZM0.283203 1.25C0.283203 0.916667 0.366537 0.583333 0.616537 0.416667C0.866537 0.0833333 1.19987 0 1.5332 0C1.86654 0 2.19987 0.0833334 2.36654 0.333333C2.69987 0.583333 2.7832 0.916667 2.7832 1.25C2.7832 1.58333 2.69987 1.91667 2.44987 2.08333C2.19987 2.41667 1.86654 2.5 1.5332 2.5C1.19987 2.5 0.866537 2.41667 0.69987 2.16667C0.366536 1.91667 0.283203 1.58333 0.283203 1.25ZM0.283203 6.25C0.283203 5.91667 0.366537 5.58333 0.616537 5.41667C0.866537 5.08333 1.19987 5 1.5332 5C1.86654 5 2.19987 5.08333 2.36654 5.33333C2.69987 5.58333 2.7832 5.91667 2.7832 6.25C2.7832 6.58333 2.69987 6.91667 2.44987 7.08333C2.19987 7.41667 1.86654 7.5 1.5332 7.5C1.19987 7.5 0.866537 7.41667 0.69987 7.16667C0.366536 6.91667 0.283203 6.58333 0.283203 6.25ZM0.283203 11.25C0.283203 10.9167 0.366537 10.5833 0.616537 10.4167C0.866537 10.0833 1.19987 10 1.5332 10C1.86654 10 2.19987 10.0833 2.36654 10.3333C2.69987 10.5833 2.7832 10.9167 2.7832 11.25C2.7832 11.5833 2.69987 11.9167 2.44987 12.0833C2.19987 12.4167 1.86654 12.5 1.5332 12.5C1.19987 12.5 0.866537 12.4167 0.69987 12.1667C0.366536 11.9167 0.283203 11.5833 0.283203 11.25Z" fill="#8A8A8A"/>
</svg>
