<svg width="59" height="24" viewBox="0 0 59 24" fill="none" xmlns="http://www.w3.org/2000/svg">
<rect x="0.5" y="0.5" width="58" height="23" rx="5.5" fill="#E5F7F5"/>
<path d="M16.6 7.3334C16.6 7.00203 16.3314 6.7334 16 6.7334C15.6687 6.7334 15.4 7.00203 15.4 7.3334V11.4002H11.3336C11.0023 11.4002 10.7336 11.6688 10.7336 12.0002C10.7336 12.3316 11.0023 12.6002 11.3336 12.6002H15.4V16.6667C15.4 16.9981 15.6687 17.2667 16 17.2667C16.3314 17.2667 16.6 16.9981 16.6 16.6667V12.6002H20.667C20.9983 12.6002 21.267 12.3316 21.267 12.0002C21.267 11.6688 20.9983 11.4002 20.667 11.4002H16.6V7.3334Z" fill="#28ad99"/>
<path d="M35.908 16H34.192L33.532 14.068H30.496L29.836 16H28.144L31.036 8.08H33.016L35.908 16ZM30.868 12.844H33.16L32.008 9.388L30.868 12.844ZM39.0304 16.12C38.5344 16.12 38.0904 15.996 37.6984 15.748C37.3144 15.5 37.0104 15.144 36.7864 14.68C36.5704 14.216 36.4624 13.66 36.4624 13.012C36.4624 12.348 36.5784 11.784 36.8104 11.32C37.0424 10.848 37.3544 10.492 37.7464 10.252C38.1464 10.004 38.5944 9.88 39.0904 9.88C39.6184 9.88 40.0544 10.032 40.3984 10.336C40.7424 10.64 40.9664 11.032 41.0704 11.512L40.9144 11.704V7.372H42.5584V16H41.0824L40.9744 14.176L41.1784 14.272C41.1224 14.648 40.9944 14.976 40.7944 15.256C40.5944 15.528 40.3424 15.74 40.0384 15.892C39.7344 16.044 39.3984 16.12 39.0304 16.12ZM39.5104 14.86C39.7984 14.86 40.0464 14.788 40.2544 14.644C40.4624 14.492 40.6224 14.272 40.7344 13.984C40.8544 13.696 40.9144 13.352 40.9144 12.952C40.9144 12.568 40.8584 12.244 40.7464 11.98C40.6344 11.708 40.4744 11.5 40.2664 11.356C40.0584 11.212 39.8144 11.14 39.5344 11.14C39.0864 11.14 38.7344 11.3 38.4784 11.62C38.2304 11.932 38.1064 12.392 38.1064 13C38.1064 13.608 38.2304 14.072 38.4784 14.392C38.7264 14.704 39.0704 14.86 39.5104 14.86ZM46.5539 16.12C46.0579 16.12 45.6139 15.996 45.2219 15.748C44.8379 15.5 44.5339 15.144 44.3099 14.68C44.0939 14.216 43.9859 13.66 43.9859 13.012C43.9859 12.348 44.1019 11.784 44.3339 11.32C44.5659 10.848 44.8779 10.492 45.2699 10.252C45.6699 10.004 46.1179 9.88 46.6139 9.88C47.1419 9.88 47.5779 10.032 47.9219 10.336C48.2659 10.64 48.4899 11.032 48.5939 11.512L48.4379 11.704V7.372H50.0819V16H48.6059L48.4979 14.176L48.7019 14.272C48.6459 14.648 48.5179 14.976 48.3179 15.256C48.1179 15.528 47.8659 15.74 47.5619 15.892C47.2579 16.044 46.9219 16.12 46.5539 16.12ZM47.0339 14.86C47.3219 14.86 47.5699 14.788 47.7779 14.644C47.9859 14.492 48.1459 14.272 48.2579 13.984C48.3779 13.696 48.4379 13.352 48.4379 12.952C48.4379 12.568 48.3819 12.244 48.2699 11.98C48.1579 11.708 47.9979 11.5 47.7899 11.356C47.5819 11.212 47.3379 11.14 47.0579 11.14C46.6099 11.14 46.2579 11.3 46.0019 11.62C45.7539 11.932 45.6299 12.392 45.6299 13C45.6299 13.608 45.7539 14.072 46.0019 14.392C46.2499 14.704 46.5939 14.86 47.0339 14.86Z" fill="#28ad99"/>
<rect x="0.5" y="0.5" width="58" height="23" rx="5.5" stroke="#28ad99"/>
</svg>
