
<svg width="14" height="15" viewBox="0 0 14 15" fill="none" xmlns="http://www.w3.org/2000/svg">
<path fill-rule="evenodd" clip-rule="evenodd" d="M9.52965 0.666626C9.80565 0.666626 10.0297 0.890626 10.0297 1.16663L10.03 1.73183C11.0034 1.79857 11.8118 2.13199 12.384 2.70536C13.0087 3.33269 13.3373 4.23469 13.334 5.31669V11.3987C13.334 13.62 11.9233 15 9.65332 15H4.01465C1.74465 15 0.333984 13.6007 0.333984 11.348V5.31536C0.333984 3.22015 1.59202 1.87525 3.64378 1.73206L3.64418 1.16663C3.64418 0.890626 3.86818 0.666626 4.14418 0.666626C4.42018 0.666626 4.64418 0.890626 4.64418 1.16663L4.64398 1.71929H9.02932L9.02965 1.16663C9.02965 0.890626 9.25365 0.666626 9.52965 0.666626ZM12.334 6.60263H1.33398V11.348C1.33398 13.0587 2.28598 14 4.01465 14H9.65332C11.382 14 12.334 13.076 12.334 11.3987L12.334 6.60263ZM9.80145 10.7975C10.0774 10.7975 10.3014 11.0215 10.3014 11.2975C10.3014 11.5735 10.0774 11.7975 9.80145 11.7975C9.52545 11.7975 9.29878 11.5735 9.29878 11.2975C9.29878 11.0215 9.51945 10.7975 9.79545 10.7975H9.80145ZM6.84312 10.7975C7.11912 10.7975 7.34312 11.0215 7.34312 11.2975C7.34312 11.5735 7.11912 11.7975 6.84312 11.7975C6.56712 11.7975 6.34045 11.5735 6.34045 11.2975C6.34045 11.0215 6.56112 10.7975 6.83712 10.7975H6.84312ZM3.87858 10.7975C4.15458 10.7975 4.37858 11.0215 4.37858 11.2975C4.37858 11.5735 4.15458 11.7975 3.87858 11.7975C3.60258 11.7975 3.37525 11.5735 3.37525 11.2975C3.37525 11.0215 3.59658 10.7975 3.87258 10.7975H3.87858ZM9.80145 8.20636C10.0774 8.20636 10.3014 8.43036 10.3014 8.70636C10.3014 8.98236 10.0774 9.20636 9.80145 9.20636C9.52545 9.20636 9.29878 8.98236 9.29878 8.70636C9.29878 8.43036 9.51945 8.20636 9.79545 8.20636H9.80145ZM6.84312 8.20636C7.11912 8.20636 7.34312 8.43036 7.34312 8.70636C7.34312 8.98236 7.11912 9.20636 6.84312 9.20636C6.56712 9.20636 6.34045 8.98236 6.34045 8.70636C6.34045 8.43036 6.56112 8.20636 6.83712 8.20636H6.84312ZM3.87858 8.20636C4.15458 8.20636 4.37858 8.43036 4.37858 8.70636C4.37858 8.98236 4.15458 9.20636 3.87858 9.20636C3.60258 9.20636 3.37525 8.98236 3.37525 8.70636C3.37525 8.43036 3.59658 8.20636 3.87258 8.20636H3.87858ZM9.02932 2.71929H4.64398L4.64418 3.36063C4.64418 3.63663 4.42018 3.86063 4.14418 3.86063C3.86818 3.86063 3.64418 3.63663 3.64418 3.36063L3.64383 2.73443C2.15034 2.85989 1.33398 3.7652 1.33398 5.31536V5.60263H12.334L12.334 5.31536C12.3367 4.49203 12.1153 3.85203 11.676 3.41203C11.2903 3.02523 10.7266 2.79423 10.0302 2.73475L10.0297 3.36063C10.0297 3.63663 9.80565 3.86063 9.52965 3.86063C9.25365 3.86063 9.02965 3.63663 9.02965 3.36063L9.02932 2.71929Z" fill="#646464"/>
</svg>
