
<svg width="18" height="19" viewBox="0 0 18 19" fill="none" color="currentColor" xmlns="http://www.w3.org/2000/svg">
<path fill-rule="evenodd" clip-rule="evenodd" d="M5.66706 0.923828C5.99843 0.923828 6.26706 1.19246 6.26706 1.52383V2.59049H11.7337V1.52383C11.7337 1.19246 12.0024 0.923828 12.3337 0.923828C12.6651 0.923828 12.9337 1.19246 12.9337 1.52383V2.59049H14.8337C16.0856 2.59049 17.1004 3.60532 17.1004 4.85716V16.5238C17.1004 17.7757 16.0856 18.7905 14.8337 18.7905H3.16706C1.91521 18.7905 0.900391 17.7757 0.900391 16.5238V4.85716C0.900391 3.60532 1.91521 2.59049 3.16706 2.59049H5.06706V1.52383C5.06706 1.19246 5.33569 0.923828 5.66706 0.923828ZM5.06706 3.79049H3.16706C2.57795 3.79049 2.10039 4.26806 2.10039 4.85716V7.59049H15.9004V4.85716C15.9004 4.26806 15.4228 3.79049 14.8337 3.79049H12.9337V4.85716C12.9337 5.18853 12.6651 5.45716 12.3337 5.45716C12.0024 5.45716 11.7337 5.18853 11.7337 4.85716V3.79049H6.26706V4.85716C6.26706 5.18853 5.99843 5.45716 5.66706 5.45716C5.33569 5.45716 5.06706 5.18853 5.06706 4.85716V3.79049ZM15.9004 8.79049H2.10039V16.5238C2.10039 17.1129 2.57795 17.5905 3.16706 17.5905H14.8337C15.4228 17.5905 15.9004 17.1129 15.9004 16.5238V8.79049Z" fill="currentColor"/>
</svg>
