<svg width="20" height="20" viewBox="0 0 20 20" fill="none" xmlns="http://www.w3.org/2000/svg">
<path d="M9.16669 16.0416H4.16669C2.85252 16.0416 2.29169 15.4808 2.29169 14.1666V7.29163H16.0417V9.16663C16.0417 9.51163 16.3217 9.79163 16.6667 9.79163C17.0117 9.79163 17.2917 9.51163 17.2917 9.16663V5.41663C17.2917 3.40163 16.1817 2.29163 14.1667 2.29163H13.125V1.66663C13.125 1.32163 12.845 1.04163 12.5 1.04163C12.155 1.04163 11.875 1.32163 11.875 1.66663V2.29163H6.45835V1.66663C6.45835 1.32163 6.17835 1.04163 5.83335 1.04163C5.48835 1.04163 5.20835 1.32163 5.20835 1.66663V2.29163H4.16669C2.15169 2.29163 1.04169 3.40163 1.04169 5.41663V14.1666C1.04169 16.1816 2.15169 17.2916 4.16669 17.2916H9.16669C9.51169 17.2916 9.79169 17.0116 9.79169 16.6666C9.79169 16.3216 9.51169 16.0416 9.16669 16.0416ZM4.16669 3.54163H5.20835V4.16663C5.20835 4.51163 5.48835 4.79163 5.83335 4.79163C6.17835 4.79163 6.45835 4.51163 6.45835 4.16663V3.54163H11.875V4.16663C11.875 4.51163 12.155 4.79163 12.5 4.79163C12.845 4.79163 13.125 4.51163 13.125 4.16663V3.54163H14.1667C15.4809 3.54163 16.0417 4.10246 16.0417 5.41663V6.04163H2.29169V5.41663C2.29169 4.10246 2.85252 3.54163 4.16669 3.54163ZM6.68337 9.99996C6.68337 10.46 6.31087 10.8333 5.85004 10.8333C5.39004 10.8333 5.01243 10.46 5.01243 9.99996C5.01243 9.53996 5.3817 9.16663 5.8417 9.16663H5.85004C6.31004 9.16663 6.68337 9.53996 6.68337 9.99996ZM10.0167 9.99996C10.0167 10.46 9.6442 10.8333 9.18337 10.8333C8.72337 10.8333 8.34576 10.46 8.34576 9.99996C8.34576 9.53996 8.71503 9.16663 9.17503 9.16663H9.18337C9.64337 9.16663 10.0167 9.53996 10.0167 9.99996ZM16.6667 15C16.6667 15.345 16.3867 15.625 16.0417 15.625H13.9584C13.6134 15.625 13.3334 15.345 13.3334 15C13.3334 14.655 13.6134 14.375 13.9584 14.375H16.0417C16.3867 14.375 16.6667 14.655 16.6667 15ZM15 11.0416C12.8175 11.0416 11.0417 12.8175 11.0417 15C11.0417 17.1825 12.8175 18.9583 15 18.9583C17.1825 18.9583 18.9584 17.1825 18.9584 15C18.9584 12.8175 17.1825 11.0416 15 11.0416ZM15 17.7083C13.5067 17.7083 12.2917 16.4933 12.2917 15C12.2917 13.5066 13.5067 12.2916 15 12.2916C16.4934 12.2916 17.7084 13.5066 17.7084 15C17.7084 16.4933 16.4934 17.7083 15 17.7083ZM6.68337 13.3333C6.68337 13.7933 6.31087 14.1666 5.85004 14.1666C5.39004 14.1666 5.01243 13.7933 5.01243 13.3333C5.01243 12.8733 5.3817 12.5 5.8417 12.5H5.85004C6.31004 12.5 6.68337 12.8733 6.68337 13.3333Z" fill="#61646C"/>
</svg>
