<svg width="39" height="45" viewBox="0 0 39 45" fill="none" xmlns="http://www.w3.org/2000/svg">
<g clip-path="url(#clip0_3842_38974)" filter="url(#filter0_dddd_3842_38974)">
<path d="M30.0822 4.46701V12.1327H3.91772V4.46701C3.91772 3.56648 4.64821 2.83545 5.54928 2.83545H28.4507C29.3512 2.83545 30.0822 3.56593 30.0822 4.46701Z" fill="#2e90fa"/>
<path d="M30.0822 12.1327V27.3684C30.0822 28.2689 29.3517 28.9999 28.4507 28.9999H5.54928C4.64875 28.9999 3.91772 28.2695 3.91772 27.3684V12.1327H30.0822Z" fill="#B8BFC4"/>
<path d="M3.91772 11.188H30.0822V12.1334H3.91772V11.188Z" fill="#2858BA"/>
<path d="M7.40722 4.67161C7.74844 4.67161 8.02506 4.39499 8.02506 4.05376C8.02506 3.71253 7.74844 3.43591 7.40722 3.43591C7.06599 3.43591 6.78937 3.71253 6.78937 4.05376C6.78937 4.39499 7.06599 4.67161 7.40722 4.67161Z" fill="#1A3D84"/>
<path d="M7.40721 1C7.64833 1 7.84353 1.1952 7.84353 1.43632V3.98098C7.84353 4.22211 7.64833 4.4173 7.40721 4.4173C7.16608 4.4173 6.97089 4.22211 6.97089 3.98098V1.43632C6.97089 1.1952 7.16608 1 7.40721 1Z" fill="#E1EFFF"/>
<path d="M7.40723 1C7.6478 1 7.84355 1.19574 7.84355 1.43632V3.98098C7.84355 4.22156 7.6478 4.4173 7.40723 4.4173V1Z" fill="#C1D1D3"/>
<path d="M10.6064 4.67161C10.9476 4.67161 11.2242 4.39499 11.2242 4.05376C11.2242 3.71253 10.9476 3.43591 10.6064 3.43591C10.2651 3.43591 9.98853 3.71253 9.98853 4.05376C9.98853 4.39499 10.2651 4.67161 10.6064 4.67161Z" fill="#1A3D84"/>
<path d="M10.6064 1C10.8475 1 11.0427 1.1952 11.0427 1.43632V3.98098C11.0427 4.22211 10.8475 4.4173 10.6064 4.4173C10.3652 4.4173 10.17 4.22211 10.17 3.98098V1.43632C10.17 1.1952 10.3652 1 10.6064 1Z" fill="#E1EFFF"/>
<path d="M10.6064 1C10.847 1 11.0427 1.19574 11.0427 1.43632V3.98098C11.0427 4.22156 10.847 4.4173 10.6064 4.4173V1Z" fill="#C1D1D3"/>
<path d="M13.8055 4.67161C14.1467 4.67161 14.4233 4.39499 14.4233 4.05376C14.4233 3.71253 14.1467 3.43591 13.8055 3.43591C13.4642 3.43591 13.1876 3.71253 13.1876 4.05376C13.1876 4.39499 13.4642 4.67161 13.8055 4.67161Z" fill="#1A3D84"/>
<path d="M13.8055 1C14.0466 1 14.2418 1.1952 14.2418 1.43632V3.98098C14.2418 4.22211 14.0466 4.4173 13.8055 4.4173C13.5644 4.4173 13.3692 4.22211 13.3692 3.98098V1.43632C13.3692 1.1952 13.5644 1 13.8055 1Z" fill="#E1EFFF"/>
<path d="M13.8055 1C14.0461 1 14.2418 1.19574 14.2418 1.43632V3.98098C14.2418 4.22156 14.0461 4.4173 13.8055 4.4173V1Z" fill="#C1D1D3"/>
<path d="M17.0041 4.67161C17.3453 4.67161 17.6219 4.39499 17.6219 4.05376C17.6219 3.71253 17.3453 3.43591 17.0041 3.43591C16.6629 3.43591 16.3862 3.71253 16.3862 4.05376C16.3862 4.39499 16.6629 4.67161 17.0041 4.67161Z" fill="#1A3D84"/>
<path d="M17.0041 1C17.2452 1 17.4404 1.1952 17.4404 1.43632V3.98098C17.4404 4.22211 17.2452 4.4173 17.0041 4.4173C16.7629 4.4173 16.5677 4.22211 16.5677 3.98098V1.43632C16.5677 1.1952 16.7629 1 17.0041 1Z" fill="#E1EFFF"/>
<path d="M17.0041 1C17.2447 1 17.4404 1.19574 17.4404 1.43632V3.98098C17.4404 4.22156 17.2447 4.4173 17.0041 4.4173V1Z" fill="#C1D1D3"/>
<path d="M20.2032 4.67161C20.5445 4.67161 20.8211 4.39499 20.8211 4.05376C20.8211 3.71253 20.5445 3.43591 20.2032 3.43591C19.862 3.43591 19.5854 3.71253 19.5854 4.05376C19.5854 4.39499 19.862 4.67161 20.2032 4.67161Z" fill="#1A3D84"/>
<path d="M20.2032 1C20.4444 1 20.6395 1.1952 20.6395 1.43632V3.98098C20.6395 4.22211 20.4444 4.4173 20.2032 4.4173C19.9621 4.4173 19.7669 4.22211 19.7669 3.98098V1.43632C19.7669 1.1952 19.9621 1 20.2032 1Z" fill="#E1EFFF"/>
<path d="M20.2032 1C20.4438 1 20.6396 1.19574 20.6396 1.43632V3.98098C20.6396 4.22156 20.4438 4.4173 20.2032 4.4173V1Z" fill="#C1D1D3"/>
<path d="M23.4018 4.67161C23.7431 4.67161 24.0197 4.39499 24.0197 4.05376C24.0197 3.71253 23.7431 3.43591 23.4018 3.43591C23.0606 3.43591 22.784 3.71253 22.784 4.05376C22.784 4.39499 23.0606 4.67161 23.4018 4.67161Z" fill="#1A3D84"/>
<path d="M23.4018 1C23.643 1 23.8382 1.1952 23.8382 1.43632V3.98098C23.8382 4.22211 23.643 4.4173 23.4018 4.4173C23.1607 4.4173 22.9655 4.22211 22.9655 3.98098V1.43632C22.9655 1.1952 23.1607 1 23.4018 1Z" fill="#E1EFFF"/>
<path d="M23.4019 1C23.6424 1 23.8382 1.19574 23.8382 1.43632V3.98098C23.8382 4.22156 23.6424 4.4173 23.4019 4.4173V1Z" fill="#C1D1D3"/>
<path d="M26.6009 4.67161C26.9422 4.67161 27.2188 4.39499 27.2188 4.05376C27.2188 3.71253 26.9422 3.43591 26.6009 3.43591C26.2597 3.43591 25.9831 3.71253 25.9831 4.05376C25.9831 4.39499 26.2597 4.67161 26.6009 4.67161Z" fill="#1A3D84"/>
<path d="M26.601 1C26.8421 1 27.0373 1.1952 27.0373 1.43632V3.98098C27.0373 4.22211 26.8421 4.4173 26.601 4.4173C26.3599 4.4173 26.1647 4.22211 26.1647 3.98098V1.43632C26.1647 1.1952 26.3599 1 26.601 1Z" fill="#E1EFFF"/>
<path d="M26.601 1C26.8415 1 27.0373 1.19574 27.0373 1.43632V3.98098C27.0373 4.22156 26.8415 4.4173 26.601 4.4173V1Z" fill="#C1D1D3"/>
<path d="M30.0822 12.1327V22.2971C29.4737 24.3989 27.9826 25.9222 26.6009 26.7216C24.1443 28.1437 21.9846 28.5631 18.2174 28.9994H5.54928C4.64875 28.9994 3.91772 28.2689 3.91772 27.3678V12.1327H30.0822Z" fill="#DCE9F4"/>
<path d="M30.0822 12.1327V22.2971C29.2681 25.0249 27.0373 21.887 27.0373 21.887C27.0373 21.887 23.0021 28.5997 18.2179 28.9994H5.54928C4.64875 28.9994 3.91772 28.2689 3.91772 27.3678V12.1327H30.0822Z" fill="#F9F9F9"/>
<path d="M15.7035 15.875H18.2961C18.8327 15.875 19.2683 16.3026 19.2683 16.8295C19.2683 17.3565 18.8327 17.7841 18.2961 17.7841H15.7035C15.1668 17.7841 14.7312 17.3565 14.7312 16.8295C14.7312 16.3026 15.1668 15.875 15.7035 15.875Z" fill="#B9BEC0"/>
<path d="M22.1849 15.875H24.7775C25.3142 15.875 25.7498 16.3026 25.7498 16.8295C25.7498 17.3565 25.3142 17.7841 24.7775 17.7841H22.1849C21.6483 17.7841 21.2127 17.3565 21.2127 16.8295C21.2127 16.3026 21.6483 15.875 22.1849 15.875Z" fill="#B9BEC0"/>
<path d="M9.22198 20.9659H11.8146C12.3512 20.9659 12.7868 21.3935 12.7868 21.9205C12.7868 22.4474 12.3512 22.875 11.8146 22.875H9.22198C8.68531 22.875 8.24976 22.4474 8.24976 21.9205C8.24976 21.3935 8.68531 20.9659 9.22198 20.9659Z" fill="#B9BEC0"/>
<path d="M15.7035 20.9659H18.2961C18.8327 20.9659 19.2683 21.3935 19.2683 21.9205C19.2683 22.4474 18.8327 22.875 18.2961 22.875H15.7035C15.1668 22.875 14.7312 22.4474 14.7312 21.9205C14.7312 21.3935 15.1668 20.9659 15.7035 20.9659Z" fill="#B9BEC0"/>
<path d="M22.1849 20.9659H24.7775C25.3142 20.9659 25.7498 21.3935 25.7498 21.9205C25.7498 22.4474 25.3142 22.875 24.7775 22.875H22.1849C21.6483 22.875 21.2127 22.4474 21.2127 21.9205C21.2127 21.3935 21.6483 20.9659 22.1849 20.9659Z" fill="#B9BEC0"/>
<path d="M9.22198 15.875H11.8146C12.3512 15.875 12.7868 16.3026 12.7868 16.8295C12.7868 17.3565 12.3512 17.7841 11.8146 17.7841H9.22198C8.68531 17.7841 8.24976 17.3565 8.24976 16.8295C8.24976 16.3026 8.68531 15.875 9.22198 15.875Z" fill="#2e90fa"/>
</g>
<defs>
<filter id="filter0_dddd_3842_38974" x="0" y="0" width="39" height="45" filterUnits="userSpaceOnUse" color-interpolation-filters="sRGB">
<feFlood flood-opacity="0" result="BackgroundImageFix"/>
<feColorMatrix in="SourceAlpha" type="matrix" values="0 0 0 0 0 0 0 0 0 0 0 0 0 0 0 0 0 0 127 0" result="hardAlpha"/>
<feOffset dy="1"/>
<feGaussianBlur stdDeviation="1"/>
<feColorMatrix type="matrix" values="0 0 0 0 0 0 0 0 0 0 0 0 0 0 0 0 0 0 0.05 0"/>
<feBlend mode="normal" in2="BackgroundImageFix" result="effect1_dropShadow_3842_38974"/>
<feColorMatrix in="SourceAlpha" type="matrix" values="0 0 0 0 0 0 0 0 0 0 0 0 0 0 0 0 0 0 127 0" result="hardAlpha"/>
<feOffset dx="1" dy="3"/>
<feGaussianBlur stdDeviation="1.5"/>
<feColorMatrix type="matrix" values="0 0 0 0 0 0 0 0 0 0 0 0 0 0 0 0 0 0 0.04 0"/>
<feBlend mode="normal" in2="effect1_dropShadow_3842_38974" result="effect2_dropShadow_3842_38974"/>
<feColorMatrix in="SourceAlpha" type="matrix" values="0 0 0 0 0 0 0 0 0 0 0 0 0 0 0 0 0 0 127 0" result="hardAlpha"/>
<feOffset dx="1" dy="6"/>
<feGaussianBlur stdDeviation="2"/>
<feColorMatrix type="matrix" values="0 0 0 0 0 0 0 0 0 0 0 0 0 0 0 0 0 0 0.03 0"/>
<feBlend mode="normal" in2="effect2_dropShadow_3842_38974" result="effect3_dropShadow_3842_38974"/>
<feColorMatrix in="SourceAlpha" type="matrix" values="0 0 0 0 0 0 0 0 0 0 0 0 0 0 0 0 0 0 127 0" result="hardAlpha"/>
<feOffset dx="3" dy="11"/>
<feGaussianBlur stdDeviation="2.5"/>
<feColorMatrix type="matrix" values="0 0 0 0 0 0 0 0 0 0 0 0 0 0 0 0 0 0 0.01 0"/>
<feBlend mode="normal" in2="effect3_dropShadow_3842_38974" result="effect4_dropShadow_3842_38974"/>
<feBlend mode="normal" in="SourceGraphic" in2="effect4_dropShadow_3842_38974" result="shape"/>
</filter>
<clipPath id="clip0_3842_38974">
<rect width="28" height="28" fill="white" transform="translate(3 1)"/>
</clipPath>
</defs>
</svg>
