<svg width="36" height="36" viewBox="0 0 36 36" fill="none" xmlns="http://www.w3.org/2000/svg">
<rect width="36" height="36" rx="6" fill="#FFE1E7"/>
<path fill-rule="evenodd" clip-rule="evenodd" d="M14.6666 9.06689C14.9979 9.06689 15.2666 9.33552 15.2666 9.66689V10.7336H20.7332V9.66689C20.7332 9.33552 21.0019 9.06689 21.3332 9.06689C21.6646 9.06689 21.9332 9.33552 21.9332 9.66689V10.7336H23.8332C25.0851 10.7336 26.0999 11.7484 26.0999 13.0002V24.6669C26.0999 25.9187 25.0851 26.9336 23.8332 26.9336H12.1666C10.9147 26.9336 9.8999 25.9187 9.8999 24.6669V13.0002C9.8999 11.7484 10.9147 10.7336 12.1666 10.7336H14.0666V9.66689C14.0666 9.33552 14.3352 9.06689 14.6666 9.06689ZM14.0666 11.9336H12.1666C11.5775 11.9336 11.0999 12.4111 11.0999 13.0002V15.7336H24.8999V13.0002C24.8999 12.4111 24.4223 11.9336 23.8332 11.9336H21.9332V13.0002C21.9332 13.3316 21.6646 13.6002 21.3332 13.6002C21.0019 13.6002 20.7332 13.3316 20.7332 13.0002V11.9336H15.2666V13.0002C15.2666 13.3316 14.9979 13.6002 14.6666 13.6002C14.3352 13.6002 14.0666 13.3316 14.0666 13.0002V11.9336ZM24.8999 16.9336H11.0999V24.6669C11.0999 25.256 11.5775 25.7336 12.1666 25.7336H23.8332C24.4223 25.7336 24.8999 25.256 24.8999 24.6669V16.9336Z" fill="#fa3939"/>
</svg>
