<svg width="20" height="20" viewBox="0 0 20 20" fill="none" xmlns="http://www.w3.org/2000/svg">
<path fill-rule="evenodd" clip-rule="evenodd" d="M6.66666 1.06689C6.99803 1.06689 7.26666 1.33552 7.26666 1.66689V2.73356H12.7333V1.66689C12.7333 1.33552 13.002 1.06689 13.3333 1.06689C13.6647 1.06689 13.9333 1.33552 13.9333 1.66689V2.73356H15.8333C17.0852 2.73356 18.1 3.74838 18.1 5.00023V16.6669C18.1 17.9187 17.0852 18.9336 15.8333 18.9336H4.16666C2.91482 18.9336 1.89999 17.9187 1.89999 16.6669V5.00023C1.89999 3.74838 2.91482 2.73356 4.16666 2.73356H6.06666V1.66689C6.06666 1.33552 6.33529 1.06689 6.66666 1.06689ZM6.06666 3.93356H4.16666C3.57756 3.93356 3.09999 4.41112 3.09999 5.00023V7.73356H16.9V5.00023C16.9 4.41112 16.4224 3.93356 15.8333 3.93356H13.9333V5.00023C13.9333 5.3316 13.6647 5.60023 13.3333 5.60023C13.002 5.60023 12.7333 5.3316 12.7333 5.00023V3.93356H7.26666V5.00023C7.26666 5.3316 6.99803 5.60023 6.66666 5.60023C6.33529 5.60023 6.06666 5.3316 6.06666 5.00023V3.93356ZM16.9 8.93356H3.09999V16.6669C3.09999 17.256 3.57756 17.7336 4.16666 17.7336H15.8333C16.4224 17.7336 16.9 17.256 16.9 16.6669V8.93356Z" fill="#646464"/>
</svg>
