<svg width="14" height="14" viewBox="0 0 14 14" fill="none" xmlns="http://www.w3.org/2000/svg">
<path fill-rule="evenodd" clip-rule="evenodd" d="M4.66659 0.746826C4.89855 0.746826 5.08659 0.934867 5.08659 1.16683V1.91349H8.91326V1.16683C8.91326 0.934867 9.1013 0.746826 9.33326 0.746826C9.56522 0.746826 9.75326 0.934867 9.75326 1.16683V1.91349H11.0833C11.9596 1.91349 12.6699 2.62387 12.6699 3.50016V11.6668C12.6699 12.5431 11.9596 13.2535 11.0833 13.2535H2.91659C2.0403 13.2535 1.32993 12.5431 1.32993 11.6668V3.50016C1.32993 2.62387 2.0403 1.91349 2.91659 1.91349H4.24659V1.16683C4.24659 0.934867 4.43463 0.746826 4.66659 0.746826ZM4.24659 2.75349H2.91659C2.50422 2.75349 2.16993 3.08779 2.16993 3.50016V5.41349H11.8299V3.50016C11.8299 3.08779 11.4956 2.75349 11.0833 2.75349H9.75326V3.50016C9.75326 3.73212 9.56522 3.92016 9.33326 3.92016C9.1013 3.92016 8.91326 3.73212 8.91326 3.50016V2.75349H5.08659V3.50016C5.08659 3.73212 4.89855 3.92016 4.66659 3.92016C4.43463 3.92016 4.24659 3.73212 4.24659 3.50016V2.75349ZM11.8299 6.25349H2.16993V11.6668C2.16993 12.0792 2.50422 12.4135 2.91659 12.4135H11.0833C11.4956 12.4135 11.8299 12.0792 11.8299 11.6668V6.25349Z" fill="#999999"/>
</svg>
