<?xml version="1.0" encoding="utf-8"?>
<!-- Generator: Adobe Illustrator 23.0.1, SVG Export Plug-In . SVG Version: 6.00 Build 0)  -->
<svg version="1.1" id="Layer_1" xmlns="http://www.w3.org/2000/svg" xmlns:xlink="http://www.w3.org/1999/xlink" x="0px" y="0px"
	 viewBox="0 0 15.1 16" style="enable-background:new 0 0 15.1 16;" xml:space="preserve">
<style type="text/css">
	.st0{fill-rule:evenodd;clip-rule:evenodd;fill:#009688;}
	.st1{fill:#009688;}
</style>
<path class="st0" d="M2.4,2.2c-0.6,0-1.1,0.5-1.1,1.1v10.4c0,0.6,0.5,1.1,1.1,1.1h10.4c0.6,0,1.1-0.5,1.1-1.1V3.3
	c0-0.6-0.5-1.1-1.1-1.1H2.4z M0,3.3c0-1.3,1.1-2.4,2.4-2.4h10.4c1.3,0,2.4,1.1,2.4,2.4v10.4c0,1.3-1.1,2.4-2.4,2.4H2.4
	C1.1,16,0,14.9,0,13.6V3.3z"/>
<path class="st0" d="M11,0c0.4,0,0.6,0.3,0.6,0.6v1.7C11.7,2.7,11.4,3,11,3c-0.4,0-0.6-0.3-0.6-0.6V0.7C10.4,0.3,10.7,0,11,0z"/>
<path class="st0" d="M4.1,0c0.4,0,0.6,0.3,0.6,0.6v1.7C4.8,2.7,4.5,3,4.1,3C3.7,3,3.5,2.7,3.5,2.4V0.7C3.5,0.3,3.7,0,4.1,0z"/>
<path class="st0" d="M0,5.8c0-0.4,0.3-0.6,0.6-0.6h13.8c0.4,0,0.6,0.3,0.6,0.6c0,0.4-0.3,0.6-0.6,0.6H0.6C0.3,6.5,0,6.2,0,5.8z"/>
<path class="st1" d="M3.2,9.1c0,0.5,0.4,0.9,0.9,0.9C4.6,9.9,5,9.6,5,9.1c0-0.5-0.4-0.9-0.9-0.9C3.6,8.2,3.2,8.6,3.2,9.1z"/>
<path class="st1" d="M3.2,12.1c0,0.5,0.4,0.9,0.9,0.9C4.6,13,5,12.6,5,12.1c0-0.5-0.4-0.9-0.9-0.9C3.6,11.3,3.2,11.6,3.2,12.1z"/>
<path class="st1" d="M6.7,9.1c0,0.5,0.4,0.9,0.9,0.9s0.9-0.4,0.9-0.9c0-0.5-0.4-0.9-0.9-0.9S6.7,8.6,6.7,9.1z"/>
<path class="st1" d="M6.7,12.1c0,0.5,0.4,0.9,0.9,0.9s0.9-0.4,0.9-0.9c0-0.5-0.4-0.9-0.9-0.9S6.7,11.6,6.7,12.1z"/>
<path class="st1" d="M10.2,9.1c0,0.5,0.4,0.9,0.9,0.9s0.9-0.4,0.9-0.9c0-0.5-0.4-0.9-0.9-0.9S10.2,8.6,10.2,9.1z"/>
<path class="st1" d="M10.2,12.1c0,0.5,0.4,0.9,0.9,0.9s0.9-0.4,0.9-0.9c0-0.5-0.4-0.9-0.9-0.9S10.2,11.6,10.2,12.1z"/>
</svg>
