
<svg width="17" height="19" viewBox="0 0 17 19" fill="none" xmlns="http://www.w3.org/2000/svg">
<path fill-rule="evenodd" clip-rule="evenodd" d="M12.1616 0.833328C12.5066 0.833328 12.7866 1.11333 12.7866 1.45833L12.787 2.16484C14.0037 2.24826 15.0143 2.66503 15.7295 3.38175C16.5103 4.16591 16.9212 5.29341 16.917 6.64591V14.2484C16.917 17.0251 15.1537 18.7501 12.3162 18.7501H5.26783C2.43033 18.7501 0.666992 17.0009 0.666992 14.1851V6.64425C0.666992 4.02524 2.23954 2.34411 4.80423 2.16512L4.80474 1.45833C4.80474 1.11333 5.08474 0.833328 5.42974 0.833328C5.77474 0.833328 6.05474 1.11333 6.05474 1.45833L6.05449 2.14916H11.5362L11.5366 1.45833C11.5366 1.11333 11.8166 0.833328 12.1616 0.833328ZM15.667 8.25333H1.91699V14.1851C1.91699 16.3234 3.10699 17.5001 5.26783 17.5001H12.3162C14.477 17.5001 15.667 16.3451 15.667 14.2484L15.667 8.25333ZM12.5013 13.4969C12.8463 13.4969 13.1263 13.7769 13.1263 14.1219C13.1263 14.4669 12.8463 14.7469 12.5013 14.7469C12.1563 14.7469 11.873 14.4669 11.873 14.1219C11.873 13.7769 12.1488 13.4969 12.4938 13.4969H12.5013ZM8.80341 13.4969C9.14841 13.4969 9.42841 13.7769 9.42841 14.1219C9.42841 14.4669 9.14841 14.7469 8.80341 14.7469C8.45841 14.7469 8.17508 14.4669 8.17508 14.1219C8.17508 13.7769 8.45091 13.4969 8.79591 13.4969H8.80341ZM5.09774 13.4969C5.44274 13.4969 5.72274 13.7769 5.72274 14.1219C5.72274 14.4669 5.44274 14.7469 5.09774 14.7469C4.75274 14.7469 4.46858 14.4669 4.46858 14.1219C4.46858 13.7769 4.74524 13.4969 5.09024 13.4969H5.09774ZM12.5013 10.258C12.8463 10.258 13.1263 10.538 13.1263 10.883C13.1263 11.228 12.8463 11.508 12.5013 11.508C12.1563 11.508 11.873 11.228 11.873 10.883C11.873 10.538 12.1488 10.258 12.4938 10.258H12.5013ZM8.80341 10.258C9.14841 10.258 9.42841 10.538 9.42841 10.883C9.42841 11.228 9.14841 11.508 8.80341 11.508C8.45841 11.508 8.17508 11.228 8.17508 10.883C8.17508 10.538 8.45091 10.258 8.79591 10.258H8.80341ZM5.09774 10.258C5.44274 10.258 5.72274 10.538 5.72274 10.883C5.72274 11.228 5.44274 11.508 5.09774 11.508C4.75274 11.508 4.46858 11.228 4.46858 10.883C4.46858 10.538 4.74524 10.258 5.09024 10.258H5.09774ZM11.5362 3.39916H6.05449L6.05474 4.20083C6.05474 4.54583 5.77474 4.82583 5.42974 4.82583C5.08474 4.82583 4.80474 4.54583 4.80474 4.20083L4.8043 3.41808C2.93744 3.57491 1.91699 4.70654 1.91699 6.64425V7.00333H15.667L15.667 6.64425C15.6703 5.61508 15.3937 4.81508 14.8445 4.26508C14.3624 3.78159 13.6577 3.49283 12.7873 3.41848L12.7866 4.20083C12.7866 4.54583 12.5066 4.82583 12.1616 4.82583C11.8166 4.82583 11.5366 4.54583 11.5366 4.20083L11.5362 3.39916Z" fill="#202020"/>
</svg>
