<svg xmlns="http://www.w3.org/2000/svg" width="18" height="18" viewBox="0 0 18 18">
    <g fill="none" fill-rule="evenodd">
        <path d="M-3-3h24v24H-3z"/>
        <path fill="#FFFFFF" d="M17.612 1.629l-5.5 5.497h4.008v1.749H9.128V1.882h1.748v4.012l5.5-5.506 1.236 1.24zm-3.24 10.742c.484 0 .874.393.874.874v3.496c0 .48-.39.874-.874.874h-4.37c-5.31 0-9.614-4.3-9.614-9.614V3.63c0-.481.391-.875.874-.875h3.496c.483 0 .874.394.874.874v3.496c0 .481-.39.875-.874.875h-.874c.055 3.443 2.622 6.118 6.118 6.118v-.874c0-.48.392-.874.874-.874h3.496z"/>
    </g>
</svg>
