<?xml version="1.0" encoding="UTF-8"?>
<svg width="18px" height="18px" viewBox="0 0 18 18" version="1.1" xmlns="http://www.w3.org/2000/svg" xmlns:xlink="http://www.w3.org/1999/xlink">
    <title>B46A5B2A-5AF1-4386-883F-045016EF013D@1x</title>
    <g id="Video-Calls-Console" stroke="none" stroke-width="1" fill="none" fill-rule="evenodd">
        <g id="Screenshot" transform="translate(-803.000000, -73.000000)">
            <g id="Group-2" transform="translate(603.000000, 64.000000)">
                <g id="Group-40" transform="translate(200.000000, 9.000000)">
                    <rect id="Rectangle" fill-rule="nonzero" x="0" y="0" width="18" height="18"></rect>
                    <path d="M10.737,0.75 C11.3382,0.75 11.9007,1.04225 12.2346,1.52875 L12.2346,1.52875 L12.9654,2.59625 C13.2993,3.08275 13.8618,3.375 14.463,3.375 L14.463,3.375 L16.2,3.375 C17.1936,3.375 18,4.159 18,5.125 L18,5.125 L18,14.75 C18,15.716 17.1936,16.5 16.2,16.5 L16.2,16.5 L1.8,16.5 C0.8055,16.5 0,15.716 0,14.75 L0,14.75 L0,5.125 C0,4.159 0.8055,3.375 1.8,3.375 L1.8,3.375 L3.537,3.375 C4.1382,3.375 4.7007,3.08275 5.0346,2.59625 L5.0346,2.59625 L5.7654,1.52875 C6.0993,1.04225 6.6618,0.75 7.263,0.75 L7.263,0.75 Z M9,4.25 C6.0219,4.25 3.6,6.6055 3.6,9.5 C3.6,12.395375 6.0219,14.75 9,14.75 C11.9781,14.75 14.4,12.395375 14.4,9.5 C14.4,6.6055 11.9781,4.25 9,4.25 Z M9,6 C10.9854,6 12.6,7.56975 12.6,9.5 C12.6,11.43025 10.9854,13 9,13 C7.0146,13 5.4,11.43025 5.4,9.5 C5.4,7.56975 7.0146,6 9,6 Z" id="Combined-Shape-Copy-2" fill="#FFFFFF"></path>
                </g>
            </g>
        </g>
    </g>
</svg>