<svg xmlns="http://www.w3.org/2000/svg" width="51" height="51" viewBox="0 0 51 51">
    <g fill="none" fill-rule="evenodd">
        <g>
            <g transform="translate(-53.000000, -720.000000) translate(53.000000, 720.000000)">
                <circle cx="25.5" cy="25.5" r="25.5" fill="#6B696C"/>
                <g>
                    <path fill-rule="nonzero" d="M0 0H24V24H0z" transform="translate(14.000000, 13.000000)"/>
                    <path fill="#FFF" d="M14.316 1c.802 0 1.552.39 1.997 1.038l.974 1.424c.445.648 1.195 1.038 1.997 1.038H21.6c1.325 0 2.4 1.045 2.4 2.333v12.834C24 20.955 22.925 22 21.6 22H2.4C1.074 22 0 20.955 0 19.667V6.833C0 5.545 1.074 4.5 2.4 4.5h2.316c.802 0 1.552-.39 1.997-1.038l.974-1.424C8.132 1.39 8.882 1 9.684 1zM12 5.667c-3.97 0-7.2 3.14-7.2 7s3.23 7 7.2 7 7.2-3.14 7.2-7-3.23-7-7.2-7zM12 8c2.647 0 4.8 2.093 4.8 4.667 0 2.573-2.153 4.666-4.8 4.666s-4.8-2.093-4.8-4.666C7.2 10.093 9.353 8 12 8z" transform="translate(14.000000, 13.000000)"/>
                </g>
            </g>
        </g>
    </g>
</svg>
