<svg width="16" height="16" viewBox="0 0 16 16" fill="none" xmlns="http://www.w3.org/2000/svg">
<path d="M11.5971 5.20857C11.8196 4.98608 11.8196 4.62535 11.5971 4.40286C11.3747 4.18037 11.0139 4.18037 10.7914 4.40286L8 7.19429L5.20857 4.40286C4.98608 4.18037 4.62535 4.18037 4.40286 4.40286C4.18037 4.62535 4.18037 4.98608 4.40286 5.20857L7.19429 8L4.40286 10.7914C4.18037 11.0139 4.18037 11.3747 4.40286 11.5971C4.62535 11.8196 4.98608 11.8196 5.20857 11.5971L8 8.80571L10.7914 11.5971C11.0139 11.8196 11.3747 11.8196 11.5971 11.5971C11.8196 11.3747 11.8196 11.0139 11.5971 10.7914L8.80571 8L11.5971 5.20857Z" fill="#fa3939"/>
</svg>
