<svg width="24" height="24" viewBox="0 0 24 24" fill="none" xmlns="http://www.w3.org/2000/svg">
<path d="M17.3962 7.81337C17.73 7.47963 17.73 6.93853 17.3962 6.6048C17.0625 6.27106 16.5214 6.27106 16.1877 6.6048L12.0005 10.7919L7.81337 6.6048C7.47963 6.27106 6.93853 6.27106 6.6048 6.6048C6.27106 6.93853 6.27106 7.47963 6.6048 7.81337L10.7919 12.0005L6.6048 16.1877C6.27106 16.5214 6.27106 17.0625 6.6048 17.3962C6.93853 17.73 7.47963 17.73 7.81337 17.3962L12.0005 13.2091L16.1877 17.3962C16.5214 17.73 17.0625 17.73 17.3962 17.3962C17.73 17.0625 17.73 16.5214 17.3962 16.1877L13.2091 12.0005L17.3962 7.81337Z" fill="currentColor"/>
</svg>
