<svg width="24" height="24" viewBox="0 0 24 24" fill="none" xmlns="http://www.w3.org/2000/svg">
<path fill-rule="evenodd" clip-rule="evenodd" d="M6.11 8.48L9.64 6.27L10.91 6.8C11.34 6.98 11.83 6.93 12.22 6.68L16.89 3.63V4.8C16.89 5.24 17.25 5.6 17.69 5.6C18.13 5.6 18.49 5.24 18.49 4.8V2.41C18.49 1.63 17.86 1 17.08 1H14.69C14.25 1 13.89 1.36 13.89 1.8C13.89 2.24 14.25 2.6 14.69 2.6H15.53L11.43 5.28L10.17 4.76C9.75 4.58 9.27 4.62 8.88 4.87L5.27 7.12C4.9 7.35 4.78 7.85 5.02 8.22C5.26 8.59 5.74 8.71 6.11 8.48Z" fill="currentColor"/>
<path fill-rule="evenodd" clip-rule="evenodd" d="M19.16 8H15.69C14.67 8 13.85 8.76 13.85 9.7V12.01C13.81 12.01 13.78 12 13.74 12H10.27C10.23 12 10.2 12.01 10.16 12.01V11.7C10.16 10.76 9.33 10 8.31 10H4.84C3.83 10 3 10.76 3 11.7V21.9C3 22.84 3.83 23.6 4.84 23.6H8.31C8.67 23.6 9 23.5 9.29 23.34C9.57 23.5 9.91 23.6 10.27 23.6H13.74C14.1 23.6 14.43 23.5 14.72 23.34C15 23.5 15.34 23.6 15.7 23.6H19.17C20.19 23.6 21.01 22.84 21.01 21.9V9.7C21 8.76 20.17 8 19.16 8ZM8.31 22H4.84C4.78 22 4.73 21.96 4.73 21.9V11.7C4.73 11.64 4.78 11.6 4.84 11.6H8.31C8.37 11.6 8.42 11.64 8.42 11.7V21.9C8.42 21.96 8.37 22 8.31 22ZM13.73 22H10.27C10.21 22 10.16 21.96 10.16 21.9V13.7C10.16 13.64 10.21 13.6 10.27 13.6H13.74C13.8 13.6 13.85 13.64 13.85 13.7V21.9C13.84 21.96 13.79 22 13.73 22ZM19.27 21.9C19.27 21.96 19.22 22 19.16 22H15.69C15.63 22 15.58 21.96 15.58 21.9V9.7C15.58 9.64 15.63 9.6 15.69 9.6H19.16C19.22 9.6 19.27 9.64 19.27 9.7V21.9Z" fill="currentColor"/>
</svg>
