<svg xmlns="http://www.w3.org/2000/svg" width="24" height="24" viewBox="0 0 24 24" fill="none">
  <path fill-rule="evenodd" clip-rule="evenodd" d="M6.99 11H4.16C3.52 11 3 11.4 3 11.9V22.1C3 22.6 3.52 23 4.16 23H6.99C7.63 23 8.15 22.6 8.15 22.1V11.9C8.14 11.4 7.62 11 6.99 11Z" fill="currentColor"/>
  <path fill-rule="evenodd" clip-rule="evenodd" d="M13.41 13H10.59C9.95 13 9.43 13.4 9.43 13.9V22.1C9.43 22.6 9.95 23 10.59 23H13.42C14.06 23 14.58 22.6 14.58 22.1V13.9C14.57 13.4 14.05 13 13.41 13Z" fill="currentColor"/>
  <path fill-rule="evenodd" clip-rule="evenodd" d="M19.84 9H17.01C16.37 9 15.85 9.4 15.85 9.9V22.1C15.85 22.6 16.37 23 17.01 23H19.84C20.48 23 21 22.6 21 22.1V9.9C21 9.4 20.48 9 19.84 9Z" fill="currentColor"/>
  <path fill-rule="evenodd" clip-rule="evenodd" d="M6.59 9.8L10.1 7.15L11.2 7.7C11.77 7.98 12.44 7.91 12.94 7.52L17 4.3V5.5C17 6.07 17.45 6.54 18 6.54C18.55 6.54 19 6.08 19 5.5V2.73C19 1.77 18.25 1 17.33 1H14.66C14.11 1 13.66 1.46 13.66 2.04C13.66 2.61 14.11 3.08 14.66 3.08H15.24L11.88 5.73L10.8 5.19C10.24 4.91 9.59 4.97 9.09 5.34L5.41 8.12C4.97 8.46 4.87 9.11 5.19 9.57C5.52 10.04 6.14 10.14 6.59 9.8Z" fill="currentColor"/>
</svg>
