<svg id="Layer_1" data-name="Layer 1" xmlns="http://www.w3.org/2000/svg" viewBox="0 0 1000 917.38"><title>chat</title><path opacity="0.3" fill="#6B696C" d="M1000,147.66c.6-58.92-44.55-105.52-104.49-105.38-186.11.45-372.22-.6-558.33-1-60.82-.12-103.55,42.5-104,103.47-.16,23.43-.5,46.87.22,70.27.27,8.83-2.32,10.57-10.72,10.56-44.56-.11-89.18-.63-133.69,1.18-43.29,1.76-83,40.92-87.44,83.35C0,313.41,2.28,317.28,0,320.45v371a13.4,13.4,0,0,1,1.75,3.17c12.14,51.24,49.5,80.82,102.28,80.88,29,0,57.92.27,86.87-.18,7.29-.12,9.16,1.66,9.1,9.05-.36,49.78-.2,99.56-.17,149.34a65.67,65.67,0,0,0,.38,9.73c2.18,14.52,16.19,20,27.63,10.72,3-2.44,5.49-5.53,8.11-8.42q74.19-81.6,148.26-163.31c4.49-5,8.93-7.12,15.78-7.12q110.29,0,220.6-.59c18.86-.08,37.84.59,56.56-1.22,32.72-3.14,57.82-19.54,75.09-47.73,9.34-15.25,13.31-32.06,14.54-51.24,3.58,3.77,6,6.25,8.38,8.83q38.08,41.86,76.18,83.74c8,8.72,15.48,10.54,23.2,6.16,7.23-4.1,8.41-10.83,8.4-18.37-.09-51.41.09-102.82-.21-154.23,0-6.9,1.86-9,8.7-8.57,17.78,1.19,35.11-1.28,51.14-9.42,38.11-19.35,57-50.79,57-93.35C999.75,375.42,998.84,261.53,1000,147.66ZM733,664.83c0,5.84-.27,11.7-.72,17.53-2.34,30.29-28,56.7-58.52,57.75-42.25,1.45-84.57,1.34-126.85,1.6q-78.58.48-157.15.34c-10,0-17.17,3.46-23.75,10.77q-61.74,68.51-123.93,136.63c-2.36,2.59-4.66,5.23-8.86,10,0-46.2,0-89.1,0-132,0-20.63-4.58-25.2-25.18-25.2-34.81,0-69.63.06-104.44,0C61,742.1,33.32,714.59,33.29,672q-.13-171.3,0-342.61c0-42.17,27-70,69.23-70.14q281.6-1,563.2-1.36c35.31-.09,67.74,26.44,67.51,71.15C732.63,441,733,552.9,733,664.83ZM966.4,486.29c0,45.85-26.76,72.5-72.74,72.54H875.11c-20.5,0-25.56,5-25.57,25.13q0,60,0,120.06v11.57c-21.58-23.71-40.6-46.77-62-67.39-16.49-15.92-22-33-21.63-55.75,1.32-87.83.45-175.69.58-263.55,0-34.72-12.39-63.39-40.36-84.5-18.22-13.74-39-19.85-61.88-19.78Q532,225,399.74,225c-41.33.06-82.65,0-124,.37-6.87.06-9.54-1-9.35-8.81.59-24.06,0-48.15.26-72.23.44-42.71,27.87-69.76,70.66-69.75q97.62,0,195.23.3c120.39.32,240.78,1.4,361.17.7,43.54-.25,73.3,30.27,73,73C965.82,261.12,966.41,373.71,966.4,486.29Z" transform="translate(0 -41.31)"/><path opacity="0.3" fill="#6B696C" d="M591.52,491.06q-208.3,0-416.61,0a62.83,62.83,0,0,0-9.7.54c-9.48,1.48-15,7.55-15,16.21s5.55,14.86,15,16.16a77.79,77.79,0,0,0,10.69.49q103.43,0,206.84,0h208.8c16.7,0,24.81-5.49,24.79-16.69S608.12,491.06,591.52,491.06Z" transform="translate(0 -41.31)"/><path opacity="0.3" fill="#6B696C" d="M592.09,591.26H217.45c-16.59,0-33.18-.23-49.76.13-10.69.24-17.12,6.53-17.43,15.85s5.93,15.86,16.31,17.18a61.24,61.24,0,0,0,7.79.18H591.93c16.36,0,24.73-5.93,24.39-17.2C616,596.43,608.26,591.26,592.09,591.26Z" transform="translate(0 -41.31)"/><path opacity="0.3" fill="#6B696C" d="M164.11,423.92a61.83,61.83,0,0,0,9.73.44q50.25,0,100.49,0c35.77,0,71.55.12,107.32-.09,11-.06,18.11-6.93,18.18-16.3.08-8.71-6.91-15.65-17-16.79a51.83,51.83,0,0,0-5.85-.12q-102,0-203.91.06a38.21,38.21,0,0,0-11.51,1.39c-8.14,2.62-12.06,8.68-11.14,17.18C151.31,417.69,156.09,422.62,164.11,423.92Z" transform="translate(0 -41.31)"/></svg>
