<svg width="20" height="20" viewBox="0 0 20 20" fill="none" xmlns="http://www.w3.org/2000/svg">
<g id="messages-text">
<path id="messages-text_2" d="M14.1668 10.2775V4.44417C14.1668 3.14834 13.5185 2.5 12.2227 2.5H4.44515C3.14932 2.5 2.50098 3.14834 2.50098 4.44417V14.1667L4.44515 12.2225H12.2227C13.5185 12.2225 14.1668 11.5742 14.1668 10.2775ZM8.98108 9.28253H5.74011C5.39511 9.28253 5.11511 9.00253 5.11511 8.65753C5.11511 8.31253 5.39511 8.03253 5.74011 8.03253H8.98108C9.32608 8.03253 9.60608 8.31253 9.60608 8.65753C9.60608 9.00253 9.32608 9.28253 8.98108 9.28253ZM10.9261 6.68996H5.74011C5.39511 6.68996 5.11511 6.40996 5.11511 6.06496C5.11511 5.71996 5.39511 5.43996 5.74011 5.43996H10.9261C11.2711 5.43996 11.5511 5.71996 11.5511 6.06496C11.5511 6.40996 11.2711 6.68996 10.9261 6.68996ZM17.5002 9.16667V17.5L15.8335 15.8333H9.16683C8.0585 15.8333 7.50016 15.275 7.50016 14.1667C7.50016 14.1667 7.50016 13.9333 7.50016 13.7325C7.50016 13.555 7.63427 13.475 7.75427 13.475C7.83761 13.475 12.2251 13.475 12.2251 13.475C14.2251 13.475 15.4168 12.275 15.4168 10.275C15.4168 10.275 15.4168 7.94421 15.4168 7.75004C15.4168 7.55587 15.5861 7.5 15.6652 7.5C15.7444 7.5 15.8335 7.5 15.8335 7.5C16.9418 7.5 17.5002 8.05833 17.5002 9.16667Z" fill="#85888E"/>
</g>
</svg>
