<svg width="161" height="160" viewBox="0 0 161 160" fill="none" xmlns="http://www.w3.org/2000/svg">
<g clip-path="url(#clip0_19167_5145)">
<path d="M120.25 69.9795H113.625V86.542C113.625 95.6878 106.208 103.104 97.0625 103.104H67.25V109.729C67.25 117.047 73.1827 122.979 80.5 122.979H100.375L114.818 135.004C116.222 136.173 118.312 135.984 119.481 134.58C119.978 133.984 120.25 133.232 120.25 132.453V122.979C127.567 122.979 133.5 117.047 133.5 109.729V83.2295C133.5 75.9122 127.567 69.9795 120.25 69.9795Z" fill="white"/>
<path d="M120.25 69.9795H113.625V86.542C113.625 95.6878 106.208 103.104 97.0625 103.104H67.25V109.729C67.25 117.047 73.1827 122.979 80.5 122.979H100.375L114.818 135.004C116.222 136.173 118.312 135.984 119.481 134.58C119.978 133.984 120.25 133.232 120.25 132.453V122.979C127.567 122.979 133.5 117.047 133.5 109.729V83.2295C133.5 75.9122 127.567 69.9795 120.25 69.9795Z" fill="url(#paint0_linear_19167_5145)"/>
<path d="M93.75 30.2295H40.75C33.4327 30.2295 27.5 36.1622 27.5 43.4795V83.2295C27.5 90.5468 33.4327 96.4795 40.75 96.4795V109.166C40.75 110.995 42.234 112.479 44.0625 112.479C44.8509 112.479 45.6161 112.197 46.2156 111.684L63.9375 96.4795H93.75C101.067 96.4795 107 90.5468 107 83.2295V43.4795C107 36.1622 101.067 30.2295 93.75 30.2295ZM52.0456 68.0251C51.7541 68.3464 51.4196 68.6247 51.0519 68.8532C50.6941 69.095 50.3198 69.307 49.9256 69.4826C49.5149 69.635 49.0942 69.7575 48.6669 69.847C48.2429 69.9397 47.8089 69.9828 47.375 69.9795C43.7147 69.9795 40.75 67.0148 40.75 63.3545C40.6804 59.6975 43.5888 56.6732 47.2458 56.6036C47.7228 56.5937 48.1998 56.6367 48.6669 56.7295C49.0942 56.8189 49.5149 56.9415 49.9256 57.0939C50.3264 57.2595 50.7041 57.4682 51.0519 57.7232C51.4129 57.9518 51.7442 58.2168 52.0456 58.5182C53.3309 59.7969 54.0364 61.5425 54 63.3545C53.9934 65.1101 53.2911 66.7895 52.0456 68.0251ZM71.9206 68.0251C70.6851 69.2706 69.0056 69.9729 67.25 69.9795C66.8194 70.0292 66.3887 70.0292 65.9581 69.9795C65.5308 69.89 65.1101 69.7675 64.6994 69.6151C64.3052 69.4395 63.9309 69.2275 63.5731 68.9857C63.2021 68.7472 62.8576 68.4723 62.5462 68.1576C61.2809 66.8823 60.5886 65.1499 60.625 63.3545C60.5753 62.9239 60.5753 62.4932 60.625 62.0626C60.7144 61.6353 60.837 61.2146 60.9894 60.8039C61.155 60.403 61.3637 60.0254 61.6188 59.6776C61.8539 59.3132 62.1222 58.9687 62.4137 58.6507C62.7318 58.3592 63.0763 58.0909 63.4406 57.8557C63.7884 57.6007 64.1661 57.392 64.5669 57.2264C65.0174 57.021 65.4811 56.8554 65.9581 56.7295C69.5456 56.014 73.0336 58.346 73.7491 61.9334C73.8419 62.4005 73.8849 62.8775 73.875 63.3545C73.875 65.1035 73.186 66.7829 71.9538 68.0251H71.9206ZM91.7956 68.0251C91.5041 68.3464 91.1696 68.6247 90.8019 68.8532C90.4441 69.095 90.0698 69.307 89.6756 69.4826C89.2649 69.635 88.8442 69.7575 88.4169 69.847C87.9929 69.9397 87.5589 69.9828 87.125 69.9795C83.4647 69.9795 80.5 67.0148 80.5 63.3545C80.4304 59.6975 83.3388 56.6732 86.9958 56.6036C87.4728 56.5937 87.9498 56.6367 88.4169 56.7295C88.8442 56.8189 89.2649 56.9415 89.6756 57.0939C90.0764 57.2595 90.4541 57.4682 90.8019 57.7232C91.1629 57.9518 91.4942 58.2168 91.7956 58.5182C93.0809 59.7969 93.7864 61.5425 93.75 63.3545C93.7434 65.1101 93.0411 66.7895 91.7956 68.0251Z" fill="url(#paint1_linear_19167_5145)"/>
</g>
<defs>
<linearGradient id="paint0_linear_19167_5145" x1="81.437" y1="82.1576" x2="90.9796" y2="235.057" gradientUnits="userSpaceOnUse">
<stop stop-color="#BABABA"/>
<stop offset="1" stop-color="#7D7D7D"/>
</linearGradient>
<linearGradient id="paint1_linear_19167_5145" x1="-41.3007" y1="30.2295" x2="102.603" y2="-22.6592" gradientUnits="userSpaceOnUse">
<stop stop-color="#E7E7E7"/>
<stop offset="1" stop-color="#C9C9C9"/>
</linearGradient>
<clipPath id="clip0_19167_5145">
<rect width="106" height="106" fill="white" transform="translate(27.5 30)"/>
</clipPath>
</defs>
</svg>
