<svg width="20" height="20" viewBox="0 0 20 20" fill="none" xmlns="http://www.w3.org/2000/svg">
<path d="M19 6.41V14.852C19 15.41 18.55 15.86 17.992 15.86H17.344V18.29C17.344 18.452 17.254 18.614 17.092 18.686C17.038 18.722 16.966 18.74 16.894 18.74C16.804 18.74 16.696 18.704 16.624 18.65L12.88 15.86H6.706C6.148 15.86 5.698 15.41 5.698 14.852V14.618L7.426 13.34H14.554C15.598 13.34 16.444 12.494 16.444 11.45V5.42H17.992C18.55 5.42 19 5.852 19 6.41ZM7.12 12.44L3.376 15.23C3.304 15.284 3.196 15.32 3.106 15.32C3.034 15.32 2.962 15.302 2.908 15.266C2.746 15.212 2.656 15.05 2.656 14.87V12.44H2.008C1.45 12.44 1 11.99 1 11.45V2.99C1 2.432 1.45 2 2.008 2H14.554C15.112 2 15.544 2.45 15.544 2.99V11.45C15.544 11.99 15.094 12.44 14.554 12.44H7.12ZM3.34 4.97C3.34 5.222 3.538 5.42 3.79 5.42H12.772C13.024 5.42 13.222 5.222 13.222 4.97C13.222 4.718 13.024 4.52 12.772 4.52H3.79C3.538 4.52 3.34 4.718 3.34 4.97ZM3.34 7.22C3.34 7.472 3.538 7.67 3.79 7.67H12.772C13.024 7.67 13.222 7.472 13.222 7.22C13.222 6.968 13.024 6.77 12.772 6.77H3.79C3.538 6.77 3.34 6.968 3.34 7.22ZM3.79 9.92H12.772C13.024 9.92 13.222 9.722 13.222 9.47C13.222 9.218 13.024 9.02 12.772 9.02H3.79C3.538 9.02 3.34 9.218 3.34 9.47C3.34 9.704 3.538 9.92 3.79 9.92Z" fill="#999999"/>
</svg>
