<svg width="18" height="18" viewBox="0 0 18 18" fill="currentColor" xmlns="http://www.w3.org/2000/svg">
<path d="M11.9419 7.77544C12.186 7.53136 12.186 7.13563 11.9419 6.89155C11.6979 6.64748 11.3021 6.64748 11.0581 6.89155L8.16667 9.78295L6.94194 8.55822C6.69786 8.31414 6.30214 8.31414 6.05806 8.55822C5.81398 8.8023 5.81398 9.19803 6.05806 9.4421L7.72473 11.1088C7.9688 11.3528 8.36453 11.3528 8.60861 11.1088L11.9419 7.77544Z" fill="currentColor"/>
<path fill-rule="evenodd" clip-rule="evenodd" d="M9 0.875C4.51269 0.875 0.875 4.51269 0.875 9C0.875 13.4873 4.51269 17.125 9 17.125C13.4873 17.125 17.125 13.4873 17.125 9C17.125 4.51269 13.4873 0.875 9 0.875ZM2.125 9C2.125 5.20304 5.20304 2.125 9 2.125C12.797 2.125 15.875 5.20304 15.875 9C15.875 12.797 12.797 15.875 9 15.875C5.20304 15.875 2.125 12.797 2.125 9Z" fill="currentColor"/>
</svg>
