<svg width="24" height="24" viewBox="0 0 24 24" fill="none" xmlns="http://www.w3.org/2000/svg">
<path d="M12 2C6.48558 2 2 6.48651 2 12C2 17.5135 6.48558 22 12 22C17.5144 22 22 17.5135 22 12C22 6.48651 17.5144 2 12 2ZM12 20.6047C7.25488 20.6047 3.39535 16.7451 3.39535 12C3.39535 7.25488 7.25488 3.39535 12 3.39535C16.7451 3.39535 20.6047 7.25488 20.6047 12C20.6047 16.7451 16.7451 20.6047 12 20.6047ZM15.7488 9.3358C16.0214 9.60836 16.0214 10.0503 15.7488 10.3228L11.4074 14.6642C11.2716 14.8 11.093 14.8688 10.9144 14.8688C10.7358 14.8688 10.5572 14.8009 10.4214 14.6642L8.25116 12.494C7.97861 12.2214 7.97861 11.7795 8.25116 11.5069C8.52372 11.2344 8.96559 11.2344 9.23815 11.5069L10.9154 13.1842L14.7628 9.33677C15.0354 9.06421 15.4763 9.06417 15.7488 9.3358Z" fill="#61646C"/>
</svg>
