<svg xmlns="http://www.w3.org/2000/svg" width="45" height="45" viewBox="0 0 45 45" fill="none">
<path d="M30.5096 9.65715H12.6566C12.329 9.65715 12.0149 9.78726 11.7833 10.0189C11.5517 10.2504 11.45 10.4583 11.45 10.7858C11.45 11.1133 11.5044 11.3507 11.736 11.5823C11.9675 11.8139 12.2817 11.944 12.6092 11.944H30.4636C30.7911 11.9438 31.0811 11.8528 31.3125 11.6211C31.544 11.3894 31.6368 11.1914 31.6606 10.8157C31.6211 10.4102 31.5005 10.2277 31.3366 10.0234C31.1049 9.79197 30.8371 9.65697 30.5096 9.65715Z" fill="#646464"/>
<path d="M30.5096 16.0626H12.6566C12.329 16.0626 12.0149 16.1928 11.7833 16.4244C11.5517 16.6559 11.45 16.8637 11.45 17.1913C11.45 17.5188 11.5044 17.7562 11.736 17.9878C11.9675 18.2193 12.2817 18.3495 12.6092 18.3495H30.4636C30.7911 18.3493 31.0811 18.2583 31.3125 18.0266C31.544 17.7949 31.6368 17.5969 31.6606 17.2212C31.6211 16.8157 31.5005 16.6332 31.3366 16.4289C31.1049 16.1975 30.8371 16.0625 30.5096 16.0626Z" fill="#646464"/>
<path d="M20.8469 22.5253L12.6566 22.5641C12.329 22.5641 12.0149 22.6942 11.7833 22.9258C11.5517 23.1574 11.45 23.3652 11.45 23.6927C11.45 24.0202 11.5044 24.2576 11.736 24.4892C11.9675 24.7208 12.2817 24.8509 12.6092 24.8509L20.8009 24.8121C21.1284 24.8119 21.4184 24.7209 21.6499 24.4892C21.8813 24.2575 21.9741 24.0595 21.9979 23.6838C21.9585 23.2783 21.8378 23.0958 21.6739 22.8915C21.4422 22.6601 21.1744 22.5251 20.8469 22.5253Z" fill="#646464"/>
<path d="M15.8162 40.6674H7.84702C7.34067 40.6667 6.85527 40.2729 6.49723 39.9149C6.13919 39.5569 5.93772 39.0715 5.93699 38.5651L5.93837 6.07265C5.93837 5.01884 6.79596 4.16262 7.84839 4.16262H34.9001C35.9525 4.16262 36.8753 5.0197 37.0122 6.07265L37.0109 18.1599C37.0109 18.4874 37.0983 18.7599 37.2781 19.005C37.5312 19.226 37.863 19.3193 38.1905 19.3193C38.5181 19.3193 38.7006 19.1876 38.8831 19.005C39.0657 18.8225 39.1229 18.5467 39.1796 18.1599V6.4068C39.1785 5.24575 38.8246 4.04622 38.0038 3.22511C37.1829 2.40399 36.0611 2.05645 34.9001 2.055H8.17476C7.01358 2.05645 5.90038 2.51837 5.07931 3.33945C4.25823 4.16052 3.79631 5.27372 3.79486 6.4349V38.5651C3.79631 39.7263 4.25823 40.8395 5.07931 41.6606C5.90038 42.4816 7.01358 42.9435 8.17476 42.945H15.8162C16.1438 42.945 16.3927 42.8269 16.6092 42.6598C16.8121 42.5031 17.0318 42.1578 17.0318 41.7966C17.0318 41.469 16.9656 41.3394 16.753 41.0682C16.5214 40.8366 16.1438 40.6674 15.8162 40.6674Z" fill="#646464"/>
<path d="M39.354 23.7543C38.4914 22.8931 37.3223 22.4094 36.1033 22.4094C34.8844 22.4094 33.7153 22.8931 32.8527 23.7543L21.4982 35.1088C21.1398 35.4658 20.9019 35.9259 20.8176 36.4247L20.1974 40.1061C20.133 40.4888 20.161 40.8813 20.2791 41.2509C20.3971 41.6205 20.6019 41.9566 20.8762 42.231C21.1505 42.5054 21.4864 42.7103 21.856 42.8286C22.2255 42.9468 22.618 42.975 23.0007 42.9108L26.6794 42.2892C27.1816 42.2055 27.6386 41.9709 27.9981 41.61L39.3526 30.2555C40.2136 29.3929 40.6973 28.224 40.6976 27.0052C40.6979 25.7864 40.2146 24.6172 39.354 23.7543ZM26.4448 40.037L22.4136 40.635L23.0007 36.6849L31.1585 28.5087L34.5981 31.8769L26.4448 40.037ZM37.4486 28.9803L36.012 30.4183L32.5997 27.0052L34.0377 25.5671C34.4521 25.1528 35.4508 24.4926 36.012 24.4923C36.5732 24.4919 37.0986 24.6535 37.4486 24.8872C37.7987 25.121 38.257 25.7011 38.418 26.09C38.6682 26.6942 38.5004 27.1134 38.418 27.5262C38.3357 27.939 37.7465 28.6829 37.4486 28.9803Z" fill="#646464"/>
</svg>