<svg width="15" height="14" viewBox="0 0 15 14" fill="none" xmlns="http://www.w3.org/2000/svg">
<path d="M2.03125 7C2.03125 3.85888 4.57763 1.3125 7.71875 1.3125C10.8599 1.3125 13.4062 3.85888 13.4062 7C13.4062 10.1411 10.8599 12.6875 7.71875 12.6875C4.57763 12.6875 2.03125 10.1411 2.03125 7Z" fill="#16b364"/>
<path fill-rule="evenodd" clip-rule="evenodd" d="M10.1702 4.84424C10.0329 4.84424 9.91037 4.89817 9.82212 4.98641L6.73838 8.07505L5.61569 6.94745C5.52744 6.85921 5.40488 6.80528 5.2676 6.80528C4.99796 6.80528 4.77734 7.0259 4.77734 7.29554C4.77734 7.43281 4.83127 7.55538 4.91952 7.64362L6.3903 9.1144C6.47855 9.20265 6.60111 9.25658 6.73838 9.25658C6.87566 9.25658 6.99822 9.20265 7.08647 9.1144L10.5183 5.68258C10.6065 5.59434 10.6605 5.47177 10.6605 5.3345C10.6605 5.06486 10.4398 4.84424 10.1702 4.84424Z" fill="white"/>
</svg>
