<svg width="20" height="20" viewBox="0 0 20 20" fill="none" xmlns="http://www.w3.org/2000/svg">
<g clip-path="url(#clip0_1_12073)">
<rect x="2" y="2" width="16" height="16" rx="4" fill="#28ad99"/>
<path fill-rule="evenodd" clip-rule="evenodd" d="M14.4685 6.2606C14.8463 6.62042 14.8609 7.21838 14.5011 7.59619L9.25288 13.1068C9.07458 13.294 8.82734 13.4 8.5688 13.4C8.31027 13.4 8.06303 13.294 7.88472 13.1068L5.26061 10.3515C4.90079 9.97371 4.91537 9.37575 5.29318 9.01593C5.67098 8.65612 6.26894 8.6707 6.62876 9.0485L8.5688 11.0855L13.1329 6.29318C13.4928 5.91537 14.0907 5.90079 14.4685 6.2606Z" fill="white"/>
<rect x="-2597" y="-2001" width="15604" height="2536" stroke="white" stroke-width="20" stroke-dasharray="90 90"/>
</g>
<defs>
<clipPath id="clip0_1_12073">
<rect x="2" y="2" width="16" height="16" rx="4" fill="white"/>
</clipPath>
</defs>
</svg>
