<svg width="20" height="20" viewBox="0 0 20 20" fill="none" xmlns="http://www.w3.org/2000/svg">
<path d="M10 0C4.4864 0 0 4.4864 0 10C0 15.5144 4.4864 20 10 20C15.5136 20 20 15.5144 20 10C20 4.4864 15.5136 0 10 0Z" fill="#7977DB"/>
<path fill-rule="evenodd" clip-rule="evenodd" d="M14.9229 6.77586C15.3228 7.15675 15.3383 7.78973 14.9574 8.18966L9.40183 14.023C9.21308 14.2212 8.95137 14.3333 8.67769 14.3333C8.40401 14.3333 8.1423 14.2212 7.95355 14.023L5.17577 11.1063C4.79488 10.7064 4.81032 10.0734 5.21025 9.69254C5.61018 9.31166 6.24315 9.32709 6.62404 9.72702L8.67769 11.8833L13.5091 6.81035C13.89 6.41042 14.523 6.39498 14.9229 6.77586Z" fill="white"/>
</svg>
