<svg width="14" height="14" viewBox="0 0 14 14" fill="none" xmlns="http://www.w3.org/2000/svg">
<path d="M13.1937 6.29611L12.3233 5.28515C12.1568 5.0932 12.0224 4.73489 12.0224 4.47896V3.39123C12.0224 2.713 11.4656 2.15634 10.7872 2.15634H9.6991C9.44949 2.15634 9.08467 2.02197 8.89265 1.85561L7.88139 0.98543C7.43977 0.607925 6.71652 0.607925 6.2685 0.98543L5.26361 1.86201C5.0716 2.02197 4.70678 2.15634 4.45716 2.15634H3.3499C2.67145 2.15634 2.11462 2.713 2.11462 3.39123V4.48535C2.11462 4.73489 1.98021 5.0932 1.8202 5.28515L0.956151 6.3025C0.584929 6.74399 0.584929 7.46061 0.956151 7.9021L1.8202 8.91945C1.98021 9.1114 2.11462 9.46971 2.11462 9.71925V10.8134C2.11462 11.4916 2.67145 12.0483 3.3499 12.0483H4.45716C4.70678 12.0483 5.0716 12.1826 5.26361 12.349L6.2749 13.2192C6.71652 13.5967 7.43977 13.5967 7.88779 13.2192L8.89905 12.349C9.09107 12.1826 9.44949 12.0483 9.7055 12.0483H10.7936C11.472 12.0483 12.0288 11.4916 12.0288 10.8134V9.72565C12.0288 9.47611 12.1633 9.1114 12.3297 8.91945L13.2001 7.9085C13.5713 7.46701 13.5713 6.7376 13.1937 6.29611ZM9.7375 5.89301L6.64612 8.98343C6.55651 9.07301 6.43491 9.1242 6.3069 9.1242C6.17889 9.1242 6.05728 9.07301 5.96768 8.98343L4.41876 7.43502C4.23315 7.24947 4.23315 6.94234 4.41876 6.75679C4.60437 6.57124 4.91159 6.57124 5.0972 6.75679L6.3069 7.96609L9.05906 5.21477C9.24467 5.02922 9.55189 5.02922 9.7375 5.21477C9.92312 5.40032 9.92312 5.70745 9.7375 5.89301Z" fill="#28ad99"/>
</svg>
