<svg width="15" height="14" viewBox="0 0 15 14" fill="none" xmlns="http://www.w3.org/2000/svg">
<path d="M5.12437 11.1461C5.92238 11.6852 6.88439 12 7.91992 12C7.91992 12 7.91993 12 7.91992 12C10.6814 12 12.9199 9.76147 12.9199 7.00002C12.9199 5.932 12.5851 4.94217 12.0146 4.12983C11.1101 2.84184 9.61334 2.00001 7.91994 2C7.91993 2 7.91995 2 7.91994 2C5.15852 2 2.91992 4.23858 2.91992 7C2.91992 6.99999 2.91992 7.00001 2.91992 7C2.91992 8.7259 3.79437 10.2476 5.12437 11.1461Z" fill="#fa3939"/>
<path fill-rule="evenodd" clip-rule="evenodd" d="M7.92062 4.16675C8.27158 4.16675 8.55609 4.45125 8.55609 4.80221V7.15738C8.55609 7.50834 8.27158 7.79285 7.92062 7.79285C7.56967 7.79285 7.28516 7.50834 7.28516 7.15738V4.80221C7.28516 4.45125 7.56967 4.16675 7.92062 4.16675Z" fill="white"/>
<path fill-rule="evenodd" clip-rule="evenodd" d="M7.28516 9.19873C7.28516 8.84776 7.56967 8.56323 7.92062 8.56323H7.92698C8.27794 8.56323 8.56244 8.84776 8.56244 9.19873C8.56244 9.5497 8.27794 9.83413 7.92698 9.83413H7.92062C7.56967 9.83413 7.28516 9.5497 7.28516 9.19873Z" fill="white"/>
</svg>
