<svg width="24" height="24" viewBox="0 0 24 24" fill="none" xmlns="http://www.w3.org/2000/svg">
<g clip-path="url(#clip0_20819_7442)">
<rect x="2" y="2" width="20" height="20" rx="4" fill="#28ad99"/>
<path fill-rule="evenodd" clip-rule="evenodd" d="M17.5857 7.32575C18.0579 7.77552 18.0761 8.52297 17.6264 8.99523L11.0661 15.8835C10.8432 16.1175 10.5342 16.25 10.211 16.25C9.88783 16.25 9.57878 16.1176 9.35591 15.8835L6.07576 12.4394C5.62599 11.9671 5.64421 11.2197 6.11647 10.7699C6.58873 10.3201 7.33618 10.3384 7.78595 10.8106L10.211 13.3569L15.9162 7.36647C16.3659 6.89422 17.1134 6.87598 17.5857 7.32575Z" fill="white"/>
<rect x="-3249.25" y="-2504.25" width="19510" height="3175" stroke="white" stroke-width="20" stroke-dasharray="90 90"/>
</g>
<defs>
<clipPath id="clip0_20819_7442">
<rect x="2" y="2" width="20" height="20" rx="4" fill="white"/>
</clipPath>
</defs>
</svg>
