<svg width="24" height="24" viewBox="0 0 24 24" fill="none" xmlns="http://www.w3.org/2000/svg">
<rect width="24" height="24" rx="12" fill="#E7EAED"/>
<path d="M12.6377 7.03837C12.6377 6.68602 12.3521 6.40039 11.9997 6.40039C11.6474 6.40039 11.3618 6.68602 11.3618 7.03837V11.3626H7.038C6.68566 11.3626 6.40002 11.6482 6.40002 12.0005C6.40002 12.3529 6.68566 12.6385 7.038 12.6385H11.3618V16.9624C11.3618 17.3148 11.6474 17.6004 11.9997 17.6004C12.3521 17.6004 12.6377 17.3148 12.6377 16.9624V12.6385H16.9621C17.3144 12.6385 17.6 12.3529 17.6 12.0005C17.6 11.6482 17.3144 11.3626 16.9621 11.3626H12.6377V7.03837Z" fill="#B9BEC0"/>
</svg>
