<svg width="17" height="16" viewBox="0 0 17 16" fill="none" xmlns="http://www.w3.org/2000/svg">
<rect x="0.5" width="16" height="16" rx="8" fill="#DCEFEF"/>
<g clip-path="url(#clip0_6060_91578)">
<path d="M11.9545 8.66699H5.04546C4.74436 8.66699 4.5 8.44299 4.5 8.16698V7.83367C4.5 7.55766 4.74436 7.33366 5.04546 7.33366H11.9545C12.2556 7.33366 12.5 7.55766 12.5 7.83367V8.16698C12.5 8.44299 12.2556 8.66699 11.9545 8.66699Z" fill="#28ad99"/>
<path d="M7.83334 11.4545V4.54546C7.83334 4.24436 8.05735 4 8.33335 4H8.66667C8.94267 4 9.16668 4.24436 9.16668 4.54546V11.4545C9.16668 11.7556 8.94267 12 8.66667 12H8.33335C8.05735 12 7.83334 11.7556 7.83334 11.4545Z" fill="#28ad99"/>
</g>
<defs>
<clipPath id="clip0_6060_91578">
<rect width="8" height="8" fill="white" transform="matrix(1 0 0 -1 4.5 12)"/>
</clipPath>
</defs>
</svg>
