<svg width="25" height="24" viewBox="0 0 25 24" fill="none" xmlns="http://www.w3.org/2000/svg">
<rect x="1.1001" y="0.5" width="23" height="23" rx="11.5" fill="white"/>
<path fill-rule="evenodd" clip-rule="evenodd" d="M6.49658 8.15657C6.49658 7.90186 6.699 7.69539 6.9487 7.69539H18.2516C18.5013 7.69539 18.7037 7.90186 18.7037 8.15657C18.7037 8.41127 18.5013 8.61775 18.2516 8.61775H6.9487C6.699 8.61775 6.49658 8.41127 6.49658 8.15657Z" fill="#646464"/>
<path fill-rule="evenodd" clip-rule="evenodd" d="M11.3444 6.05587C11.1313 6.05587 10.9268 6.14225 10.7761 6.296C10.6254 6.44976 10.5407 6.6583 10.5407 6.87575V8.15681C10.5407 8.41151 10.3383 8.61799 10.0886 8.61799C9.83887 8.61799 9.63645 8.41151 9.63645 8.15681V6.87575C9.63645 6.41367 9.8164 5.97053 10.1367 5.64379C10.457 5.31706 10.8915 5.1335 11.3444 5.1335H13.8562C14.3092 5.1335 14.7436 5.31706 15.0639 5.64379C15.3842 5.97053 15.5642 6.41367 15.5642 6.87575V8.15681C15.5642 8.41151 15.3618 8.61799 15.1121 8.61799C14.8624 8.61799 14.66 8.41151 14.66 8.15681V6.87575C14.66 6.6583 14.5753 6.44976 14.4245 6.296C14.2738 6.14225 14.0694 6.05587 13.8562 6.05587H11.3444ZM8.20475 7.69563C8.45445 7.69563 8.65686 7.90211 8.65686 8.15681V17.1243C8.65686 17.3417 8.74155 17.5502 8.89228 17.704C9.04302 17.8578 9.24746 17.9441 9.46063 17.9441H15.74C15.9532 17.9441 16.1576 17.8578 16.3084 17.704C16.4591 17.5502 16.5438 17.3417 16.5438 17.1243V8.15681C16.5438 7.90211 16.7462 7.69563 16.9959 7.69563C17.2456 7.69563 17.448 7.90211 17.448 8.15681V17.1243C17.448 17.5863 17.2681 18.0295 16.9477 18.3562C16.6274 18.6829 16.193 18.8665 15.74 18.8665H9.46063C9.00764 18.8665 8.5732 18.6829 8.25289 18.3562C7.93258 18.0295 7.75263 17.5863 7.75263 17.1243V8.15681C7.75263 7.90211 7.95505 7.69563 8.20475 7.69563Z" fill="#646464"/>
<path fill-rule="evenodd" clip-rule="evenodd" d="M11.3442 10.8983C11.5939 10.8983 11.7963 11.1047 11.7963 11.3594V15.2026C11.7963 15.4573 11.5939 15.6638 11.3442 15.6638C11.0945 15.6638 10.8921 15.4573 10.8921 15.2026V11.3594C10.8921 11.1047 11.0945 10.8983 11.3442 10.8983Z" fill="#646464"/>
<path fill-rule="evenodd" clip-rule="evenodd" d="M13.8558 10.8983C14.1055 10.8983 14.3079 11.1047 14.3079 11.3594V15.2026C14.3079 15.4573 14.1055 15.6638 13.8558 15.6638C13.6061 15.6638 13.4037 15.4573 13.4037 15.2026V11.3594C13.4037 11.1047 13.6061 10.8983 13.8558 10.8983Z" fill="#646464"/>
<rect x="1.1001" y="0.5" width="23" height="23" rx="11.5" stroke="#D8DCDF"/>
</svg>
