<svg width="24" height="24" viewBox="0 0 24 24" fill="none" xmlns="http://www.w3.org/2000/svg">
    <rect width="24" height="24" rx="12" fill="#F2F5F7" />
    <path
        d="M16.5872 8.44022C16.8709 8.15649 16.8709 7.69648 16.5872 7.41275C16.3035 7.12902 15.8435 7.12902 15.5597 7.41275L12 10.9725L8.44028 7.41275C8.15656 7.12902 7.69654 7.12902 7.41281 7.41275C7.12908 7.69648 7.12908 8.15649 7.41281 8.44022L10.9725 12L7.41281 15.5597C7.12908 15.8434 7.12908 16.3034 7.41281 16.5872C7.69654 16.8709 8.15656 16.8709 8.44028 16.5872L12 13.0274L15.5597 16.5872C15.8435 16.8709 16.3035 16.8709 16.5872 16.5872C16.8709 16.3034 16.8709 15.8434 16.5872 15.5597L13.0275 12L16.5872 8.44022Z"
        fill="#646464" />
</svg>
    