<svg width="16" height="16" viewBox="0 0 16 16" fill="none" xmlns="http://www.w3.org/2000/svg">
<path d="M3.97519 13.9702C5.12432 14.7465 6.50961 15.1998 8.00078 15.1998C8.00077 15.1998 8.00079 15.1998 8.00078 15.1998C11.9773 15.1998 15.2008 11.9763 15.2008 7.99983C15.2008 6.46188 14.7186 5.03653 13.8971 3.86677C12.5947 2.01205 10.4393 0.799814 8.00081 0.799805C8.0008 0.799805 8.00082 0.799805 8.00081 0.799805C4.02436 0.799805 0.800781 4.02335 0.800781 7.9998C0.800781 7.99979 0.800781 7.99981 0.800781 7.9998C0.800781 10.4851 2.05998 12.6763 3.97519 13.9702Z" fill="#999999"/>
<g clip-path="url(#clip0_46165_109576)">
<path d="M9.49615 10.8224L9.39555 11.2337C9.09374 11.3528 8.85266 11.4434 8.67314 11.5058C8.49342 11.5683 8.28461 11.5994 8.04669 11.5994C7.68132 11.5994 7.39713 11.5099 7.19445 11.3321C6.99176 11.1536 6.89038 10.9275 6.89038 10.6531C6.89038 10.5469 6.89774 10.4376 6.91303 10.3263C6.92846 10.2149 6.95298 10.0894 6.98653 9.94907L7.36371 8.61409C7.39726 8.48626 7.42578 8.36513 7.44863 8.2506C7.47179 8.13677 7.48296 8.03203 7.48296 7.93776C7.48296 7.76727 7.44766 7.64802 7.37739 7.58097C7.30712 7.51412 7.17302 7.48018 6.97395 7.48018C6.87645 7.48018 6.77623 7.49579 6.67408 7.52599C6.57148 7.55632 6.48378 7.58562 6.41016 7.61285L6.51102 7.20128C6.7581 7.10068 6.99428 7.01453 7.22019 6.94304C7.44611 6.87134 7.65958 6.83546 7.86149 6.83546C8.22434 6.83546 8.50433 6.92316 8.70095 7.09855C8.89757 7.27407 8.99585 7.5016 8.99585 7.78198C8.99585 7.83999 8.9894 7.94221 8.97552 8.0883C8.96197 8.23472 8.93674 8.36888 8.89996 8.4909L8.5244 9.82053C8.49362 9.92733 8.46593 10.0494 8.44187 10.1868C8.41702 10.3233 8.40515 10.4276 8.40515 10.4975C8.40515 10.6741 8.44451 10.7946 8.52343 10.8587C8.60293 10.9228 8.73986 10.9546 8.93435 10.9546C9.02566 10.9546 9.12956 10.9384 9.245 10.9066C9.36012 10.8748 9.44407 10.8469 9.49615 10.8224ZM9.59139 5.24023C9.59139 5.47189 9.50408 5.66974 9.32863 5.83242C9.15362 5.99568 8.94274 6.07737 8.69605 6.07737C8.44858 6.07737 8.23718 5.99568 8.06017 5.83242C7.88349 5.66968 7.79496 5.47189 7.79496 5.24023C7.79496 5.00902 7.88349 4.81085 8.06017 4.64611C8.23686 4.48162 8.44864 4.39941 8.69605 4.39941C8.94268 4.39941 9.15362 4.48182 9.32863 4.64611C9.50421 4.81085 9.59139 5.00909 9.59139 5.24023Z" fill="white"/>
</g>
<defs>
<clipPath id="clip0_46165_109576">
<rect width="7.2" height="7.2" fill="white" transform="translate(4.40234 4.39941)"/>
</clipPath>
</defs>
</svg>
