<svg width="25" height="24" viewBox="0 0 25 24" fill="none" xmlns="http://www.w3.org/2000/svg">
<rect x="1.1001" y="0.5" width="23" height="23" rx="11.5" fill="white"/>
<path d="M13.2377 7.03797C13.2377 6.68562 12.9521 6.39999 12.5997 6.39999C12.2474 6.39999 11.9617 6.68562 11.9617 7.03797V11.3622H7.63797C7.28563 11.3622 7 11.6478 7 12.0001C7 12.3525 7.28563 12.6381 7.63797 12.6381H11.9617V16.962C11.9617 17.3144 12.2474 17.6 12.5997 17.6C12.9521 17.6 13.2377 17.3144 13.2377 16.962V12.6381H17.562C17.9144 12.6381 18.2 12.3525 18.2 12.0001C18.2 11.6478 17.9144 11.3622 17.562 11.3622H13.2377V7.03797Z" fill="#646464"/>
<rect x="1.1001" y="0.5" width="23" height="23" rx="11.5" stroke="#D8DCDF"/>
</svg>
