<svg width="12" height="12" viewBox="0 0 12 12" fill="none" xmlns="http://www.w3.org/2000/svg">
<g clip-path="url(#clip0_4424_87286)">
<path d="M3.14265 1.71419C3.94265 1.14276 4.97122 0.857046 5.99979 0.857046C8.85693 0.857046 11.1426 3.14276 11.1426 5.9999C11.1426 7.08562 10.7998 8.11419 10.2284 8.97133C9.25693 10.2856 7.71408 11.1428 5.99979 11.1428C3.14265 11.1428 0.856934 8.85705 0.856934 5.9999C0.856934 4.22848 1.77122 2.68562 3.14265 1.71419Z" fill="#B9BEC0"/>
<path fill-rule="evenodd" clip-rule="evenodd" d="M5.99979 8.91419C6.34265 8.91419 6.62836 8.62848 6.62836 8.28562V5.88562C6.62836 5.54276 6.34265 5.25705 5.99979 5.25705C5.65693 5.25705 5.37122 5.54276 5.37122 5.88562V8.28562C5.37122 8.62848 5.65693 8.91419 5.99979 8.91419Z" fill="white"/>
<path fill-rule="evenodd" clip-rule="evenodd" d="M5.37122 3.71419C5.37122 4.05705 5.65693 4.34276 5.99979 4.34276C6.34265 4.34276 6.62836 4.05705 6.62836 3.71419C6.62836 3.37133 6.34265 3.08562 5.99979 3.08562C5.65693 3.08562 5.37122 3.37133 5.37122 3.71419Z" fill="white"/>
</g>
<defs>
<clipPath id="clip0_4424_87286">
<rect width="12" height="12" fill="white"/>
</clipPath>
</defs>
</svg>
