<svg xmlns="http://www.w3.org/2000/svg" width="16" height="16" viewBox="0 0 16 16" fill="none">
  <path d="M12.5874 4.43949C12.8711 4.15576 12.8711 3.69575 12.5874 3.41202C12.3037 3.12829 11.8437 3.12829 11.5599 3.41202L8.0002 6.97174L4.44047 3.41202C4.15674 3.12829 3.69672 3.12829 3.41299 3.41202C3.12926 3.69575 3.12926 4.15576 3.41299 4.43949L6.97272 7.99922L3.41299 11.5589C3.12926 11.8427 3.12926 12.3027 3.41299 12.5864C3.69672 12.8702 4.15674 12.8702 4.44047 12.5864L8.0002 9.02669L11.5599 12.5864C11.8437 12.8702 12.3037 12.8702 12.5874 12.5864C12.8711 12.3027 12.8711 11.8427 12.5874 11.5589L9.02767 7.99922L12.5874 4.43949Z" fill="#646464"/>
</svg>
