<?xml version="1.0" encoding="UTF-8"?>
<svg width="12px" height="12px" viewBox="0 0 12 12" version="1.1" xmlns="http://www.w3.org/2000/svg" xmlns:xlink="http://www.w3.org/1999/xlink">
    <title>waccount</title>
    <g id="Convo" stroke="none" stroke-width="1" fill="none" fill-rule="evenodd">
        <g id="New-convo-1.1-Copy-3" transform="translate(-356.000000, -291.000000)" fill="#E12F4F">
            <g id="convo-list" transform="translate(82.000000, 68.000000)">
                <g id="Console-/-Desktop-/-Elements-/-Lists-/-Message-Unread-Copy-5" transform="translate(12.000000, 182.000000)">
                    <g id="Group-16" transform="translate(262.000000, 37.000000)">
                        <g id="waccount" transform="translate(0.000000, 4.000000)">
                            <path d="M6,1 C3.23858,1 1,3.23858 1,6 C1,8.76142 3.23858,11 6,11 C8.76142,11 11,8.76142 11,6 C11,3.23858 8.76142,1 6,1 Z M0,6 C0,2.68629 2.68629,0 6,0 C9.31371,0 12,2.68629 12,6 C12,9.31371 9.31371,12 6,12 C2.68629,12 0,9.31371 0,6 Z" id="Shape"></path>
                            <path d="M6.00002,2.83337 C6.3314,2.83337 6.60002,3.102 6.60002,3.43337 L6.60002,6.41189 L8.45641,7.28929 C8.75601,7.43089 8.88409,7.78854 8.74249,8.08814 C8.60089,8.38773 8.24323,8.51581 7.94364,8.37421 L5.40002,7.172 L5.40002,3.43337 C5.40002,3.102 5.66865,2.83337 6.00002,2.83337 Z" id="Path"></path>
                        </g>
                    </g>
                </g>
            </g>
        </g>
    </g>
</svg>