
<svg width="8" height="8" viewBox="0 0 8 8" fill="none" xmlns="http://www.w3.org/2000/svg">
<path d="M7.59714 1.20859C7.81963 0.986095 7.81963 0.625364 7.59714 0.402872C7.37465 0.180381 7.01392 0.180381 6.79143 0.402872L4 3.1943L1.20857 0.402873C0.98608 0.180381 0.625349 0.180381 0.402857 0.402872C0.180365 0.625364 0.180365 0.986095 0.402857 1.20859L3.19429 4.00002L0.402858 6.79144C0.180366 7.01394 0.180365 7.37467 0.402857 7.59716C0.625349 7.81965 0.98608 7.81965 1.20857 7.59716L4 4.80573L6.79143 7.59716C7.01392 7.81965 7.37465 7.81965 7.59714 7.59716C7.81963 7.37467 7.81963 7.01394 7.59714 6.79144L4.80571 4.00002L7.59714 1.20859Z" fill="#646464"/>
</svg>
