<svg width="6" height="6" viewBox="0 0 6 6" fill="none" xmlns="http://www.w3.org/2000/svg">
<path d="M5.39864 0.398641C5.64854 0.648539 5.64854 1.05371 5.39864 1.3036L1.37982 5.32242C1.12992 5.57232 0.724758 5.57232 0.474859 5.32242C0.22496 5.07252 0.22496 4.66736 0.474859 4.41746L4.49368 0.398641C4.74358 0.148742 5.14874 0.148742 5.39864 0.398641ZM5.33052 4.37854C5.56968 4.61769 5.56968 5.00543 5.33052 5.24458C5.09137 5.48373 4.70363 5.48373 4.46448 5.24458L0.542975 1.32307C0.303824 1.08392 0.303824 0.696176 0.542974 0.457026C0.782125 0.217875 1.16986 0.217875 1.40901 0.457025L5.33052 4.37854Z" fill="white"/>
</svg>