<svg width="24" height="24" viewBox="0 0 24 24" fill="none" xmlns="http://www.w3.org/2000/svg">
<g id="Icon">
<path id="Vector" d="M18.8809 6.66021C19.3064 6.23462 19.3064 5.54459 18.8809 5.119C18.4553 4.69341 17.7652 4.69341 17.3396 5.119L12 10.4586L6.66046 5.119C6.23486 4.69341 5.54484 4.69341 5.11924 5.119C4.69365 5.54459 4.69365 6.23462 5.11924 6.66021L10.4588 11.9998L5.11925 17.3394C4.69365 17.765 4.69365 18.455 5.11924 18.8806C5.54484 19.3062 6.23486 19.3062 6.66046 18.8806L12 13.541L17.3396 18.8806C17.7652 19.3062 18.4553 19.3062 18.8809 18.8806C19.3064 18.455 19.3064 17.765 18.8809 17.3394L13.5413 11.9998L18.8809 6.66021Z" fill="#646464"/>
</g>
</svg>
