<svg width="16" height="16" viewBox="0 0 16 16" fill="none" xmlns="http://www.w3.org/2000/svg">
<path d="M9.76221 8.00046L15.7444 2.01802C15.9089 1.85333 15.9997 1.63363 16 1.39935C16 1.16494 15.9092 0.944977 15.7444 0.780554L15.2202 0.256456C15.0553 0.0913831 14.8356 0.000976562 14.6011 0.000976562C14.367 0.000976562 14.1473 0.0913831 13.9824 0.256456L8.00026 6.2385L2.01782 0.256456C1.85327 0.0913831 1.63343 0.000976562 1.39902 0.000976562C1.16488 0.000976562 0.945041 0.0913831 0.780488 0.256456L0.256 0.780554C-0.0853333 1.12189 -0.0853333 1.67707 0.256 2.01802L6.23831 8.00046L0.256 13.9826C0.0913171 14.1476 0.000650406 14.3673 0.000650406 14.6016C0.000650406 14.8358 0.0913171 15.0555 0.256 15.2204L0.780358 15.7445C0.944911 15.9094 1.16488 15.9999 1.39889 15.9999C1.6333 15.9999 1.85314 15.9094 2.01769 15.7445L8.00013 9.76228L13.9823 15.7445C14.1471 15.9094 14.3668 15.9999 14.601 15.9999H14.6012C14.8355 15.9999 15.0552 15.9094 15.22 15.7445L15.7443 15.2204C15.9088 15.0557 15.9996 14.8358 15.9996 14.6016C15.9996 14.3673 15.9088 14.1476 15.7443 13.9828L9.76221 8.00046Z" fill="#A6A6A6"/>
</svg>
