<svg width="24" height="24" viewBox="0 0 24 24" fill="none" xmlns="http://www.w3.org/2000/svg">
<path d="M12 2C6.48558 2 2 6.48651 2 12C2 17.5135 6.48558 22 12 22C17.5144 22 22 17.5135 22 12C22 6.48651 17.5144 2 12 2ZM12 20.6047C7.25488 20.6047 3.39535 16.7451 3.39535 12C3.39535 7.25488 7.25488 3.39535 12 3.39535C16.7451 3.39535 20.6047 7.25488 20.6047 12C20.6047 16.7451 16.7451 20.6047 12 20.6047ZM15.2837 9.70235L12.986 12L15.2837 14.2976C15.5563 14.5702 15.5563 15.0121 15.2837 15.2847C15.1479 15.4205 14.9693 15.4893 14.7907 15.4893C14.6121 15.4893 14.4335 15.4214 14.2977 15.2847L12 12.987L9.70232 15.2847C9.56651 15.4205 9.38791 15.4893 9.2093 15.4893C9.0307 15.4893 8.85209 15.4214 8.71628 15.2847C8.44372 15.0121 8.44372 14.5702 8.71628 14.2976L11.014 12L8.71628 9.70235C8.44372 9.42979 8.44372 8.9879 8.71628 8.71534C8.98884 8.44279 9.4307 8.44279 9.70326 8.71534L12.0009 11.013L14.2986 8.71534C14.5712 8.44279 15.013 8.44279 15.2856 8.71534C15.5563 8.9879 15.5563 9.43073 15.2837 9.70235Z" fill="#61646C"/>
</svg>
