<svg width="31" height="31" viewBox="0 0 31 31" fill="none" xmlns="http://www.w3.org/2000/svg">
<rect x="0.48" y="0.48" width="29.76" height="29.76" rx="14.88" fill="white"/>
<rect x="0.48" y="0.48" width="29.76" height="29.76" rx="14.88" stroke="#D8DCDF" stroke-width="0.96"/>
<path d="M20.8643 11.0883C21.2047 10.7479 21.2047 10.1958 20.8643 9.85536C20.5238 9.51489 19.9718 9.51489 19.6313 9.85536L15.3596 14.127L11.0879 9.85536C10.7475 9.51489 10.1954 9.51489 9.85497 9.85536C9.51449 10.1958 9.51449 10.7479 9.85497 11.0883L14.1266 15.36L9.85497 19.6317C9.51449 19.9722 9.51449 20.5242 9.85497 20.8646C10.1954 21.2051 10.7475 21.2051 11.0879 20.8646L15.3596 16.593L19.6313 20.8646C19.9718 21.2051 20.5238 21.2051 20.8643 20.8646C21.2047 20.5242 21.2047 19.9722 20.8643 19.6317L16.5926 15.36L20.8643 11.0883Z" fill="#646464"/>
</svg>
