<svg width="48" height="48" viewBox="0 0 48 48" fill="none" xmlns="http://www.w3.org/2000/svg">
<g clip-path="url(#clip0_5967_58127)">
<path d="M30.1356 18.1356C30.5261 18.5261 30.5261 19.1593 30.1356 19.5498L19.7327 29.9527C19.3422 30.3432 18.709 30.3432 18.3185 29.9527L17.5608 29.195C17.1703 28.8044 17.1703 28.1713 17.5608 27.7808L27.9637 17.3779C28.3542 16.9874 28.9874 16.9874 29.3779 17.3779L30.1356 18.1356ZM29.9254 27.6406C30.3159 28.0312 30.3159 28.6643 29.9254 29.0548L29.2611 29.7191C28.8706 30.1096 28.2374 30.1096 27.8469 29.7191L17.771 19.6432C17.3805 19.2527 17.3805 18.6195 17.771 18.229L18.4353 17.5647C18.8258 17.1742 19.459 17.1742 19.8495 17.5647L29.9254 27.6406Z" fill="#231F20"/>
<path d="M24.0003 43.6803C34.8693 43.6803 43.6803 34.8693 43.6803 24.0003C43.6803 13.1313 34.8693 4.32031 24.0003 4.32031C13.1313 4.32031 4.32031 13.1313 4.32031 24.0003C4.32031 34.8693 13.1313 43.6803 24.0003 43.6803Z" fill="#fa3939"/>
<path d="M30.2005 17.2005C30.8465 17.8465 30.8465 18.8938 30.2005 19.5398L19.8119 29.9284C19.1659 30.5744 18.1185 30.5744 17.4725 29.9284C16.8266 29.2824 16.8266 28.2351 17.4725 27.5891L27.8611 17.2005C28.5071 16.5545 29.5545 16.5545 30.2005 17.2005ZM30.0244 27.4885C30.6426 28.1067 30.6426 29.109 30.0244 29.7272C29.4062 30.3454 28.4039 30.3454 27.7857 29.7272L17.6486 19.5901C17.0304 18.9719 17.0304 17.9696 17.6486 17.3514C18.2668 16.7332 19.2691 16.7332 19.8873 17.3514L30.0244 27.4885Z" fill="white"/>
</g>
<defs>
<clipPath id="clip0_5967_58127">
<rect width="48" height="48" fill="white"/>
</clipPath>
</defs>
</svg>
