<svg width="16" height="16" viewBox="0 0 16 16" fill="none" xmlns="http://www.w3.org/2000/svg">
<path d="M12.5864 4.43949C12.8702 4.15576 12.8702 3.69575 12.5864 3.41202C12.3027 3.12829 11.8427 3.12829 11.5589 3.41202L7.99922 6.97174L4.43949 3.41202C4.15576 3.12829 3.69575 3.12829 3.41202 3.41202C3.12829 3.69575 3.12829 4.15576 3.41202 4.43949L6.97174 7.99922L3.41202 11.5589C3.12829 11.8427 3.12829 12.3027 3.41202 12.5864C3.69575 12.8702 4.15576 12.8702 4.43949 12.5864L7.99922 9.02669L11.5589 12.5864C11.8427 12.8702 12.3027 12.8702 12.5864 12.5864C12.8702 12.3027 12.8702 11.8427 12.5864 11.5589L9.02669 7.99922L12.5864 4.43949Z" fill="#646464"/>
</svg>
