<svg width="16" height="16" viewBox="0 0 16 16" fill="transparent" xmlns="http://www.w3.org/2000/svg">
<path d="M14.8806 2.66021C15.3062 2.23462 15.3062 1.54459 14.8806 1.119C14.455 0.693406 13.765 0.693406 13.3394 1.119L7.9998 6.45859L2.66021 1.119C2.23462 0.693407 1.54459 0.693406 1.119 1.119C0.693406 1.54459 0.693406 2.23462 1.119 2.66021L6.45859 7.9998L1.119 13.3394C0.693407 13.765 0.693406 14.455 1.119 14.8806C1.54459 15.3062 2.23462 15.3062 2.66021 14.8806L7.9998 9.54102L13.3394 14.8806C13.765 15.3062 14.455 15.3062 14.8806 14.8806C15.3062 14.455 15.3062 13.765 14.8806 13.3394L9.54102 7.9998L14.8806 2.66021Z" fill="#646464"/>
</svg>
