<svg width="20" height="20" viewBox="0 0 20 20" fill="none" xmlns="http://www.w3.org/2000/svg">
<path d="M15.734 5.55034C16.0887 5.19568 16.0887 4.62066 15.734 4.266C15.3793 3.91133 14.8043 3.91133 14.4497 4.266L10 8.71566L5.55034 4.266C5.19568 3.91134 4.62066 3.91133 4.266 4.266C3.91133 4.62066 3.91133 5.19568 4.266 5.55034L8.71566 10L4.266 14.4497C3.91134 14.8043 3.91133 15.3793 4.266 15.734C4.62066 16.0887 5.19568 16.0887 5.55034 15.734L10 11.2843L14.4497 15.734C14.8043 16.0887 15.3793 16.0887 15.734 15.734C16.0887 15.3793 16.0887 14.8043 15.734 14.4497L11.2843 10L15.734 5.55034Z" fill="#646464"/>
</svg>
