<svg width="20" height="20" viewBox="0 0 20 20" fill="none" xmlns="http://www.w3.org/2000/svg">
<g id="Close">
<path id="Vector" d="M15.8647 6.08842C16.2052 5.74795 16.2052 5.19593 15.8647 4.85545C15.5243 4.51498 14.9722 4.51498 14.6318 4.85545L10.3601 9.12713L6.08842 4.85545C5.74795 4.51498 5.19593 4.51498 4.85545 4.85545C4.51498 5.19593 4.51498 5.74795 4.85545 6.08842L9.12713 10.3601L4.85545 14.6318C4.51498 14.9722 4.51498 15.5243 4.85545 15.8647C5.19593 16.2052 5.74795 16.2052 6.08842 15.8647L10.3601 11.5931L14.6318 15.8647C14.9722 16.2052 15.5243 16.2052 15.8647 15.8647C16.2052 15.5243 16.2052 14.9722 15.8647 14.6318L11.5931 10.3601L15.8647 6.08842Z" fill="#646464"/>
</g>
</svg>
