<svg width="16" height="16" viewBox="0 0 16 16" fill="none" xmlns="http://www.w3.org/2000/svg">
<path fill-rule="evenodd" clip-rule="evenodd" d="M8 14.8C11.7555 14.8 14.8 11.7555 14.8 8C14.8 4.24446 11.7555 1.2 8 1.2C4.24446 1.2 1.2 4.24446 1.2 8C1.2 11.7555 4.24446 14.8 8 14.8ZM8 16C12.4183 16 16 12.4183 16 8C16 3.58172 12.4183 0 8 0C3.58172 0 0 3.58172 0 8C0 12.4183 3.58172 16 8 16Z" fill="#3D3D3D"/>
<path d="M10.3986 5.39864C10.6485 5.64854 10.6485 6.05371 10.3986 6.3036L6.37982 10.3224C6.12992 10.5723 5.72476 10.5723 5.47486 10.3224C5.22496 10.0725 5.22496 9.66736 5.47486 9.41746L9.49368 5.39864C9.74358 5.14874 10.1487 5.14874 10.3986 5.39864ZM10.3305 9.37854C10.5697 9.61769 10.5697 10.0054 10.3305 10.2446C10.0914 10.4837 9.70363 10.4837 9.46448 10.2446L5.54297 6.32307C5.30382 6.08392 5.30382 5.69618 5.54297 5.45703C5.78212 5.21788 6.16986 5.21788 6.40901 5.45703L10.3305 9.37854Z" fill="#3D3D3D"/>
</svg>
