<svg width="12" height="12" viewBox="0 0 12 12" fill="none" xmlns="http://www.w3.org/2000/svg">
<g id="Icon">
<path id="Vector" d="M9.4403 3.33011C9.6531 3.11731 9.6531 2.7723 9.4403 2.5595C9.22751 2.3467 8.8825 2.3467 8.6697 2.5595L5.9999 5.2293L3.33011 2.5595C3.11731 2.3467 2.7723 2.3467 2.5595 2.5595C2.3467 2.7723 2.3467 3.11731 2.5595 3.33011L5.2293 5.9999L2.5595 8.6697C2.3467 8.88249 2.3467 9.22751 2.5595 9.4403C2.7723 9.6531 3.11731 9.6531 3.33011 9.44031L5.9999 6.77051L8.6697 9.4403C8.88249 9.6531 9.22751 9.6531 9.4403 9.4403C9.6531 9.22751 9.6531 8.8825 9.4403 8.6697L6.77051 5.9999L9.4403 3.33011Z" fill="#B9BEC0"/>
</g>
</svg>
