<svg width="24" height="24" viewBox="0 0 24 24" fill="none" xmlns="http://www.w3.org/2000/svg">
<path d="M18.8806 6.66021C19.3062 6.23462 19.3062 5.54459 18.8806 5.119C18.455 4.69341 17.765 4.69341 17.3394 5.119L11.9998 10.4586L6.66021 5.119C6.23462 4.69341 5.54459 4.69341 5.119 5.119C4.69341 5.54459 4.69341 6.23462 5.119 6.66021L10.4586 11.9998L5.119 17.3394C4.69341 17.765 4.69341 18.455 5.119 18.8806C5.54459 19.3062 6.23462 19.3062 6.66021 18.8806L11.9998 13.541L17.3394 18.8806C17.765 19.3062 18.455 19.3062 18.8806 18.8806C19.3062 18.455 19.3062 17.765 18.8806 17.3394L13.541 11.9998L18.8806 6.66021Z" fill="#646464"/>
</svg>
