<svg width="24" height="24" viewBox="0 0 24 24" fill="none" xmlns="http://www.w3.org/2000/svg">
<path d="M18.8816 6.66021C19.3072 6.23462 19.3072 5.54459 18.8816 5.119C18.456 4.69341 17.766 4.69341 17.3404 5.119L12.0008 10.4586L6.66119 5.119C6.2356 4.69341 5.54557 4.69341 5.11998 5.119C4.69438 5.54459 4.69438 6.23462 5.11998 6.66021L10.4596 11.9998L5.11998 17.3394C4.69438 17.765 4.69438 18.455 5.11998 18.8806C5.54557 19.3062 6.2356 19.3062 6.66119 18.8806L12.0008 13.541L17.3404 18.8806C17.766 19.3062 18.456 19.3062 18.8816 18.8806C19.3072 18.455 19.3072 17.765 18.8816 17.3394L13.542 11.9998L18.8816 6.66021Z" fill="#646464"/>
</svg>
