<svg width="24" height="24" viewBox="0 0 24 24" fill="none" xmlns="http://www.w3.org/2000/svg">
<g clip-path="url(#clip0_523_13444)">
<path d="M20.5634 11.5003L16.5201 7.2166C16.2716 6.95304 15.8568 6.94102 15.5933 7.18973C15.3301 7.43823 15.3179 7.85325 15.5666 8.11661L19.1852 11.9501L15.5666 15.784C15.3179 16.0473 15.3301 16.4621 15.5933 16.7108C15.72 16.8304 15.882 16.8896 16.0433 16.8896C16.2175 16.8896 16.3914 16.8206 16.5202 16.6844L20.5634 12.4005C20.8018 12.1477 20.8018 11.7529 20.5634 11.5003Z" fill="#646464"/>
<path d="M8.43366 15.7838L4.81527 11.9501L8.43366 8.11645C8.68216 7.8531 8.67014 7.43805 8.40678 7.18958C8.14363 6.94107 7.72837 6.95309 7.4799 7.21645L3.43664 11.5001C3.1982 11.7528 3.1982 12.1477 3.43664 12.4004L7.48011 16.6843C7.60906 16.8209 7.78281 16.8897 7.957 16.8897C8.11829 16.8897 8.28026 16.8302 8.40678 16.7107C8.67038 16.4622 8.68216 16.0472 8.43366 15.7838Z" fill="#646464"/>
<path d="M13.0609 5.00749C12.7032 4.9533 12.3683 5.19893 12.3137 5.55671L10.3904 18.1455C10.3358 18.5035 10.5816 18.8381 10.9396 18.8927C10.9733 18.8978 11.0065 18.9002 11.0395 18.9002C11.358 18.9002 11.6373 18.6679 11.6869 18.3435L13.6102 5.75475C13.6648 5.39672 13.4189 5.06213 13.0609 5.00749Z" fill="#646464"/>
</g>
<defs>
<clipPath id="clip0_523_13444">
<rect width="24" height="24" rx="4" fill="white"/>
</clipPath>
</defs>
</svg>
