<svg width="161" height="160" viewBox="0 0 161 160" fill="none" xmlns="http://www.w3.org/2000/svg">
<g clip-path="url(#clip0_19167_5949)">
<g filter="url(#filter0_f_19167_5949)">
<ellipse cx="75.2324" cy="93.2422" rx="49.9688" ry="51.3409" fill="#3F3F3F" fill-opacity="0.04"/>
</g>
<path d="M126.313 113.607C136.948 113.607 145.601 104.954 145.601 94.3189C145.601 83.6835 136.948 75.0388 126.313 75.0388H125.808V64.8985C125.808 62.7239 124.045 60.961 121.871 60.961H70.9686C64.8204 60.9609 59.7804 60.9609 51.9357 60.961H27.1953C25.0208 60.961 23.2578 62.7239 23.2578 64.8985V79.4452C23.2578 89.5905 25.6739 99.5566 30.2445 108.266C32.8559 113.242 36.1329 117.738 39.9289 121.61H77.7001C61.4535 121.61 116.471 121.61 109.144 121.61C111.529 119.177 113.708 116.497 115.647 113.607H126.313ZM125.71 82.9138H126.313C132.606 82.9138 137.726 88.0302 137.726 94.3189C137.726 100.608 132.606 105.732 126.313 105.732H120.07C123.352 98.6685 125.277 90.8873 125.71 82.9138Z" fill="url(#paint0_linear_19167_5949)"/>
<path d="M117.762 121.28H32.0372C30.3485 121.28 28.9795 122.684 28.9795 124.416V124.511C28.9795 131.993 34.1874 138.08 40.5888 138.08H109.216C115.614 138.08 120.82 131.993 120.82 124.511V124.416C120.82 122.684 119.45 121.28 117.762 121.28Z" fill="url(#paint1_linear_19167_5949)"/>
<path d="M81.2457 52.6704C81.2457 52.6704 81.2457 50.467 81.2457 48.9262C81.2457 45.6499 77.9957 45.2932 75.21 45.2932H64.7957C60.0076 45.2932 56.1123 41.3635 56.1123 36.5333C56.1123 31.7032 60.0076 27.7798 64.7957 27.7798H97.1022C97.6646 27.7798 98.1398 27.3008 98.1398 26.7336C98.1398 26.1664 97.6646 25.6874 97.1022 25.6874H85.0542C80.681 25.6874 77.123 22.1007 77.123 17.6922C77.123 12.8875 81.71 11.4834 81.71 11.4834C81.71 11.4834 80.3171 12.4195 80.3171 15.6957C80.3171 19.44 84.4009 18.8862 85.0542 18.8862H97.1022C101.394 18.8862 104.887 22.4065 104.887 26.7336C104.887 31.0607 101.394 34.581 97.1022 34.581H64.7957C63.7459 34.581 62.859 35.4751 62.859 36.5333C62.859 37.5916 63.7459 38.4921 64.7957 38.4921H76.9521C80.7667 38.4921 83.8699 41.6174 83.8699 45.4591C83.8699 48.4228 83.1029 50.7983 81.2457 52.6704Z" fill="#D5D5D5"/>
<path d="M81.2457 52.6704C81.2457 52.6704 81.2457 50.467 81.2457 48.9262C81.2457 45.6499 77.9957 45.2932 75.21 45.2932H64.7957C60.0076 45.2932 56.1123 41.3635 56.1123 36.5333C56.1123 31.7032 60.0076 27.7798 64.7957 27.7798H97.1022C97.6646 27.7798 98.1398 27.3008 98.1398 26.7336C98.1398 26.1664 97.6646 25.6874 97.1022 25.6874H85.0542C80.681 25.6874 77.123 22.1007 77.123 17.6922C77.123 12.8875 81.71 11.4834 81.71 11.4834C81.71 11.4834 80.3171 12.4195 80.3171 15.6957C80.3171 19.44 84.4009 18.8862 85.0542 18.8862H97.1022C101.394 18.8862 104.887 22.4065 104.887 26.7336C104.887 31.0607 101.394 34.581 97.1022 34.581H64.7957C63.7459 34.581 62.859 35.4751 62.859 36.5333C62.859 37.5916 63.7459 38.4921 64.7957 38.4921H76.9521C80.7667 38.4921 83.8699 41.6174 83.8699 45.4591C83.8699 48.4228 83.1029 50.7983 81.2457 52.6704Z" fill="url(#paint2_linear_19167_5949)"/>
<path d="M126.312 75.0391H125.807V79.4454C125.807 80.6046 125.772 81.7612 125.709 82.9141H126.312C132.605 82.9141 137.725 88.0305 137.725 94.3192C137.725 100.608 132.605 105.732 126.312 105.732H120.069C119.672 106.586 119.261 107.433 118.825 108.266C117.854 110.116 116.787 111.896 115.641 113.607H126.312C136.947 113.607 145.6 104.955 145.6 94.3192C145.6 83.6837 136.947 75.0391 126.312 75.0391Z" fill="url(#paint3_linear_19167_5949)"/>
<path d="M126.312 75.0391H125.807V79.4454C125.807 80.6046 125.772 81.7612 125.709 82.9141H126.312C132.605 82.9141 137.725 88.0305 137.725 94.3192C137.725 100.608 132.605 105.732 126.312 105.732H120.069C119.672 106.586 119.261 107.433 118.825 108.266C117.854 110.116 116.787 111.896 115.641 113.607H126.312C136.947 113.607 145.6 104.955 145.6 94.3192C145.6 83.6837 136.947 75.0391 126.312 75.0391Z" fill="url(#paint4_linear_19167_5949)"/>
<path d="M125.648 82.9443L125.809 75.0679H127.256L126.961 82.9443H125.648Z" fill="#7F8185"/>
<path d="M115.603 113.607L120.04 105.73H121.951L117.607 113.607H115.603Z" fill="#7F8185"/>
</g>
<defs>
<filter id="filter0_f_19167_5949" x="-10.9376" y="5.70008" width="172.34" height="175.084" filterUnits="userSpaceOnUse" color-interpolation-filters="sRGB">
<feFlood flood-opacity="0" result="BackgroundImageFix"/>
<feBlend mode="normal" in="SourceGraphic" in2="BackgroundImageFix" result="shape"/>
<feGaussianBlur stdDeviation="18.1006" result="effect1_foregroundBlur_19167_5949"/>
</filter>
<linearGradient id="paint0_linear_19167_5949" x1="48.5258" y1="61.3417" x2="117.894" y2="122.039" gradientUnits="userSpaceOnUse">
<stop stop-color="#E7E7E7"/>
<stop offset="1" stop-color="#C9C9C9"/>
</linearGradient>
<linearGradient id="paint1_linear_19167_5949" x1="48.6464" y1="124.389" x2="61.6819" y2="176.353" gradientUnits="userSpaceOnUse">
<stop stop-color="#C8C8C8"/>
<stop offset="1" stop-color="#ABABAB"/>
</linearGradient>
<linearGradient id="paint2_linear_19167_5949" x1="80.4994" y1="95.9939" x2="114.465" y2="23.5247" gradientUnits="userSpaceOnUse">
<stop stop-color="#5E6063"/>
<stop offset="1" stop-color="#8E9197" stop-opacity="0.48"/>
</linearGradient>
<linearGradient id="paint3_linear_19167_5949" x1="142.66" y1="91.0401" x2="107.38" y2="79.8401" gradientUnits="userSpaceOnUse">
<stop stop-color="#C4C4C4"/>
<stop offset="1" stop-color="#9F9F9F"/>
</linearGradient>
<linearGradient id="paint4_linear_19167_5949" x1="166.667" y1="103.613" x2="74.7464" y2="92.2134" gradientUnits="userSpaceOnUse">
<stop stop-color="#E8E8E8"/>
<stop offset="1" stop-color="#7D7D7D"/>
</linearGradient>
<clipPath id="clip0_19167_5949">
<rect width="160" height="160" fill="white" transform="translate(0.5)"/>
</clipPath>
</defs>
</svg>
