<svg width="15" height="15" viewBox="0 0 15 15" fill="none" xmlns="http://www.w3.org/2000/svg">
<path d="M15 7.00004C15.0012 7.19867 14.9432 7.39314 14.8334 7.55866C14.7236 7.72418 14.567 7.85325 14.3835 7.92941C14.2001 8.00558 13.9981 8.02539 13.8033 7.98632C13.6086 7.94725 13.4299 7.85107 13.29 7.71004L8.00003 2.41004L2.71003 7.71004C2.51873 7.87387 2.27265 7.95948 2.02097 7.94975C1.7693 7.94003 1.53056 7.8357 1.35246 7.65761C1.17437 7.47951 1.07004 7.24077 1.06032 6.9891C1.05059 6.73742 1.1362 6.49135 1.30003 6.30004L7.30003 0.300042C7.48739 0.113791 7.74084 0.00924987 8.00503 0.00924986C8.26921 0.00924985 8.52267 0.113791 8.71003 0.300042L14.71 6.30004C14.8948 6.4863 14.9989 6.7377 15 7.00004Z" fill="#28ad99"/>
<path d="M15.0002 13C15.0013 13.1987 14.9433 13.3931 14.8335 13.5587C14.7237 13.7242 14.5671 13.8532 14.3837 13.9294C14.2002 14.0056 13.9983 14.0254 13.8035 13.9863C13.6088 13.9473 13.4301 13.8511 13.2902 13.71L8.00019 8.41004L2.71019 13.71C2.52188 13.8983 2.26649 14.0041 2.00019 14.0041C1.73388 14.0041 1.47849 13.8983 1.29019 13.71C1.10188 13.5217 0.996094 13.2663 0.996094 13C0.996094 12.7337 1.10188 12.4783 1.29019 12.29L7.29019 6.29004C7.47755 6.10379 7.731 5.99925 7.99519 5.99925C8.25937 5.99925 8.51282 6.10379 8.70019 6.29004L14.7002 12.29C14.7947 12.3827 14.8698 12.4931 14.9213 12.615C14.9728 12.7369 14.9996 12.8677 15.0002 13Z" fill="#28ad99"/>
</svg>
