<svg width="16" height="16" viewBox="0 0 16 16" fill="none" xmlns="http://www.w3.org/2000/svg">
<path d="M12.8717 3.74764C13.0428 3.57661 13.0428 3.29931 12.8717 3.12827C12.7007 2.95724 12.4234 2.95724 12.2524 3.12827L9.80657 5.57407V3.89416C9.80657 3.65228 9.61049 3.4562 9.36861 3.4562C9.12674 3.4562 8.93066 3.65228 8.93066 3.89416V6.63139C8.93066 6.69077 8.94248 6.74739 8.96389 6.79903C8.98459 6.84907 9.01497 6.89605 9.05502 6.93711L9.06283 6.94492C9.14784 7.02787 9.25823 7.06934 9.36861 7.06934H12.1058C12.3477 7.06934 12.5438 6.87326 12.5438 6.63139C12.5438 6.38951 12.3477 6.19343 12.1058 6.19343H10.4259L12.8717 3.74764Z" fill="#3D3D3D"/>
<path d="M3.4562 9.36861C3.4562 9.12674 3.65228 8.93066 3.89416 8.93066H6.63139C6.69077 8.93066 6.74739 8.94248 6.79903 8.96389C6.84907 8.98459 6.89605 9.01497 6.93711 9.05502L6.94492 9.06283C6.985 9.10391 7.0154 9.15091 7.03611 9.20097C7.0548 9.24604 7.06618 9.2949 7.06877 9.34608C7.06915 9.35354 7.06934 9.36105 7.06934 9.36861V12.1058C7.06934 12.3477 6.87326 12.5438 6.63139 12.5438C6.38951 12.5438 6.19343 12.3477 6.19343 12.1058V10.4259L3.74764 12.8717C3.57661 13.0428 3.29931 13.0428 3.12827 12.8717C2.95724 12.7007 2.95724 12.4234 3.12827 12.2524L5.57407 9.80657H3.89416C3.65228 9.80657 3.4562 9.61049 3.4562 9.36861Z" fill="#3D3D3D"/>
<path fill-rule="evenodd" clip-rule="evenodd" d="M0 3C0 1.34315 1.34315 0 3 0H13C14.6569 0 16 1.34315 16 3V13C16 14.6569 14.6569 16 13 16H3C1.34315 16 0 14.6569 0 13V3ZM3 1H13C14.1046 1 15 1.89543 15 3V13C15 14.1046 14.1046 15 13 15H3C1.89543 15 1 14.1046 1 13V3C1 1.89543 1.89543 1 3 1Z" fill="#3D3D3D"/>
</svg>
