<svg width="21" height="21" viewBox="0 0 21 21" fill="none" xmlns="http://www.w3.org/2000/svg">
<path fill-rule="evenodd" clip-rule="evenodd" d="M2.66414 3.16377C3.08922 2.73869 3.66575 2.49988 4.26691 2.49988H15.9336C16.5347 2.49988 17.1113 2.73869 17.5364 3.16377C17.9614 3.58885 18.2002 4.16539 18.2002 4.76654V16.4332C18.2002 17.0344 17.9614 17.6109 17.5364 18.036C17.1113 18.4611 16.5347 18.6999 15.9336 18.6999H4.26691C3.66575 18.6999 3.08922 18.4611 2.66414 18.036C2.23905 17.6109 2.00024 17.0344 2.00024 16.4332V4.76654C2.00024 4.16539 2.23905 3.58885 2.66414 3.16377ZM4.26691 3.69988C3.98401 3.69988 3.7127 3.81226 3.51266 4.0123C3.31262 4.21234 3.20024 4.48365 3.20024 4.76654V16.4332C3.20024 16.7161 3.31262 16.9874 3.51266 17.1875C3.7127 17.3875 3.98401 17.4999 4.26691 17.4999H12.0002V3.69988H4.26691ZM13.2002 3.69988V17.4999H15.9336C16.2165 17.4999 16.4878 17.3875 16.6878 17.1875C16.8879 16.9874 17.0002 16.7161 17.0002 16.4332V4.76654C17.0002 4.48365 16.8879 4.21234 16.6878 4.0123C16.4878 3.81226 16.2165 3.69988 15.9336 3.69988H13.2002Z" fill="#646464"/>
</svg>
