<svg width="24" height="24" viewBox="0 0 24 24" fill="none" xmlns="http://www.w3.org/2000/svg">
<rect width="24" height="24" rx="4" fill="#28ad99"/>
<path d="M14.9419 10.7754C15.186 10.5314 15.186 10.1356 14.9419 9.89155C14.6979 9.64748 14.3021 9.64748 14.0581 9.89155L11.1667 12.7829L9.94194 11.5582C9.69786 11.3141 9.30214 11.3141 9.05806 11.5582C8.81398 11.8023 8.81398 12.198 9.05806 12.4421L10.7247 14.1088C10.9688 14.3528 11.3645 14.3528 11.6086 14.1088L14.9419 10.7754Z" fill="#F2F5F7"/>
<path fill-rule="evenodd" clip-rule="evenodd" d="M12 3.875C7.51269 3.875 3.875 7.51269 3.875 12C3.875 16.4873 7.51269 20.125 12 20.125C16.4873 20.125 20.125 16.4873 20.125 12C20.125 7.51269 16.4873 3.875 12 3.875ZM5.125 12C5.125 8.20304 8.20304 5.125 12 5.125C15.797 5.125 18.875 8.20304 18.875 12C18.875 15.797 15.797 18.875 12 18.875C8.20304 18.875 5.125 15.797 5.125 12Z" fill="#F2F5F7"/>
</svg>
