<svg width="20" height="20" viewBox="0 0 20 20" fill="none" xmlns="http://www.w3.org/2000/svg">
<path fill-rule="evenodd" clip-rule="evenodd" d="M2.84649 1.82281C3.05292 1.5715 3.36114 1.3999 3.71419 1.3999H10.5713C10.9244 1.3999 11.2326 1.5715 11.439 1.82281C11.6427 2.0708 11.7428 2.38594 11.7428 2.69555V6.96512H16.2856C16.6387 6.96512 16.9469 7.13672 17.1533 7.38803C17.357 7.63602 17.457 7.95116 17.457 8.26077V17.3999H17.9999C18.3313 17.3999 18.5999 17.6685 18.5999 17.9999C18.5999 18.3313 18.3313 18.5999 17.9999 18.5999H1.9999C1.66853 18.5999 1.3999 18.3313 1.3999 17.9999C1.3999 17.6685 1.66853 17.3999 1.9999 17.3999H2.54276V2.69555C2.54276 2.38594 2.64279 2.0708 2.84649 1.82281ZM3.74276 17.3999H10.5428V2.69555C10.5428 2.65174 10.5317 2.61917 10.5216 2.5999H3.76394C3.75385 2.61917 3.74276 2.65174 3.74276 2.69555V17.3999ZM11.7428 8.16512V17.3999H16.257V8.26077C16.257 8.21696 16.246 8.18438 16.2359 8.16512H11.7428ZM4.82847 5.47816C4.82847 5.14679 5.0971 4.87816 5.42847 4.87816H7.71419C8.04556 4.87816 8.31419 5.14679 8.31419 5.47816C8.31419 5.80953 8.04556 6.07816 7.71419 6.07816H5.42847C5.0971 6.07816 4.82847 5.80953 4.82847 5.47816ZM5.97133 11.0434C5.97133 10.712 6.23996 10.4434 6.57133 10.4434H8.85705C9.18842 10.4434 9.45705 10.712 9.45705 11.0434C9.45705 11.3748 9.18842 11.6434 8.85705 11.6434H6.57133C6.23996 11.6434 5.97133 11.3748 5.97133 11.0434ZM12.8285 11.0434C12.8285 10.712 13.0971 10.4434 13.4285 10.4434H14.5713C14.9027 10.4434 15.1713 10.712 15.1713 11.0434C15.1713 11.3748 14.9027 11.6434 14.5713 11.6434H13.4285C13.0971 11.6434 12.8285 11.3748 12.8285 11.0434ZM4.82847 14.5216C4.82847 14.1903 5.0971 13.9216 5.42847 13.9216H7.71419C8.04556 13.9216 8.31419 14.1903 8.31419 14.5216C8.31419 14.853 8.04556 15.1216 7.71419 15.1216H5.42847C5.0971 15.1216 4.82847 14.853 4.82847 14.5216ZM12.8285 14.5216C12.8285 14.1903 13.0971 13.9216 13.4285 13.9216H14.5713C14.9027 13.9216 15.1713 14.1903 15.1713 14.5216C15.1713 14.853 14.9027 15.1216 14.5713 15.1216H13.4285C13.0971 15.1216 12.8285 14.853 12.8285 14.5216Z" fill="#202020"/>
</svg>
