<svg width="37" height="32" viewBox="0 0 37 32" fill="none" xmlns="http://www.w3.org/2000/svg">
<path d="M18.084 26.6667C18.084 27.3567 17.524 27.9167 16.834 27.9167H6.83398C2.80398 27.9167 0.583984 25.6967 0.583984 21.6667V6.66675C0.583984 2.63675 2.80398 0.416748 6.83398 0.416748H26.834C30.864 0.416748 33.084 2.63675 33.084 6.66675V11.6667C33.084 12.3567 32.524 12.9167 31.834 12.9167C31.144 12.9167 30.584 12.3567 30.584 11.6667V6.66675C30.584 4.03841 29.4623 2.91675 26.834 2.91675H6.83398C4.20565 2.91675 3.08398 4.03841 3.08398 6.66675V21.6667C3.08398 24.2951 4.20565 25.4167 6.83398 25.4167H16.834C17.524 25.4167 18.084 25.9767 18.084 26.6667ZM27.0106 7.59842C26.6056 7.04176 25.8258 6.91508 25.2642 7.32341L17.0773 13.2768C16.9306 13.3818 16.7357 13.3818 16.589 13.2768L8.40218 7.32341C7.83885 6.91508 7.06076 7.04342 6.65576 7.59842C6.2491 8.15676 6.37249 8.94007 6.93083 9.34507L15.1173 15.2984C15.6306 15.6718 16.2324 15.8584 16.8324 15.8584C17.4324 15.8584 18.0358 15.6718 18.5474 15.2984L26.7339 9.34507C27.2939 8.93841 27.4189 8.15676 27.0106 7.59842ZM36.4173 19.8034C36.4157 20.5334 36.1308 21.2201 35.6141 21.7351L26.4206 30.8851C26.1856 31.1184 25.8688 31.2501 25.5388 31.2501H21.834C21.144 31.2501 20.584 30.6901 20.584 30.0001V26.2967C20.584 25.9667 20.714 25.6484 20.949 25.4151L30.1006 16.2201C30.6156 15.7017 31.3021 15.4167 32.0321 15.4167C32.0321 15.4167 32.0341 15.4167 32.0358 15.4167C32.7658 15.4167 33.4507 15.7001 33.9657 16.2167L35.6157 17.8684C36.1341 18.3851 36.4173 19.0718 36.4173 19.8034ZM31.8706 17.9851L30.8155 19.0451L32.789 21.0184L33.849 19.9634C33.9056 19.9084 33.9173 19.8451 33.9173 19.8001C33.9173 19.7551 33.9056 19.6918 33.849 19.6351L32.199 17.9834C32.144 17.9267 32.0808 17.9151 32.0358 17.9151C31.9908 17.9151 31.9289 17.9284 31.8706 17.9851ZM31.0173 22.7818L29.0524 20.8168L23.084 26.8134V28.7518H25.0225L31.0173 22.7818Z" fill="#61646C"/>
</svg>
