<svg width="24" height="24" viewBox="0 0 24 24" fill="none" xmlns="http://www.w3.org/2000/svg">
<path d="M19.75 15V18C19.75 20.418 18.418 21.75 16 21.75H6C3.582 21.75 2.25 20.418 2.25 18V8C2.25 5.582 3.582 4.25 6 4.25H9C9.414 4.25 9.75 4.586 9.75 5C9.75 5.414 9.414 5.75 9 5.75H6C4.423 5.75 3.75 6.423 3.75 8V18C3.75 19.577 4.423 20.25 6 20.25H16C17.577 20.25 18.25 19.577 18.25 18V15C18.25 14.586 18.586 14.25 19 14.25C19.414 14.25 19.75 14.586 19.75 15Z" fill="#61646C"/>
<path fill-rule="evenodd" clip-rule="evenodd" d="M16.3421 3.17784C17.5793 1.94072 19.585 1.94072 20.8222 3.17785C22.0593 4.41497 22.0593 6.42076 20.8222 7.65788L12.5549 15.9252C12.5413 15.9387 12.5279 15.9521 12.5147 15.9654C12.3031 16.1772 12.1258 16.3548 11.9155 16.4934C11.7304 16.6155 11.5296 16.712 11.3187 16.7803C11.079 16.8579 10.8296 16.8854 10.5321 16.9183C10.5134 16.9204 10.4946 16.9224 10.4755 16.9245L7.58807 17.2454C7.3602 17.2707 7.13317 17.1911 6.97106 17.0289C6.80894 16.8668 6.7293 16.6398 6.75462 16.4119L7.07545 13.5245C7.07757 13.5054 7.07965 13.4866 7.08171 13.4679C7.11457 13.1704 7.14212 12.9209 7.21969 12.6813C7.28799 12.4704 7.38448 12.2696 7.50656 12.0845C7.64521 11.8742 7.8228 11.6968 8.0346 11.4853C8.04788 11.4721 8.06129 11.4587 8.07483 11.4451L16.3421 3.17784ZM19.7548 4.24518C19.1072 3.59752 18.0571 3.59752 17.4095 4.24518L9.14216 12.5125C8.8698 12.7848 8.81013 12.8495 8.76667 12.9154C8.71947 12.987 8.68216 13.0646 8.65575 13.1462C8.63144 13.2213 8.61819 13.3083 8.57565 13.6912L8.359 15.641L10.3088 15.4243C10.6917 15.3818 10.7787 15.3686 10.8538 15.3442C10.9354 15.3178 11.013 15.2805 11.0846 15.2333C11.1505 15.1899 11.2152 15.1302 11.4875 14.8578L19.7548 6.59055C20.4025 5.9429 20.4025 4.89283 19.7548 4.24518Z" fill="#61646C"/>
</svg>
