<svg width="20" height="20" viewBox="0 0 20 20" fill="none" xmlns="http://www.w3.org/2000/svg">
<path d="M8.47353 3.2449C9.93022 2.91578 11.4543 3.06636 12.8184 3.67417C13.0894 3.79495 13.4071 3.67312 13.5279 3.40206C13.6486 3.131 13.5268 2.81336 13.2558 2.69258C11.68 1.99045 9.91943 1.81651 8.2367 2.1967C6.55398 2.57688 5.03924 3.49083 3.91838 4.80224C2.79752 6.11364 2.13061 7.75223 2.0171 9.47363C1.90359 11.195 2.34957 12.907 3.28852 14.3542C4.22748 15.8015 5.6091 16.9064 7.22733 17.5042C8.84556 18.1021 10.6137 18.1608 12.268 17.6717C13.9224 17.1826 15.3743 16.1718 16.4072 14.79C17.4402 13.4083 17.9988 11.7294 17.9998 10.0043V9.3177C17.9998 9.02095 17.7592 8.78039 17.4624 8.78039C17.1657 8.78039 16.9251 9.02095 16.9251 9.3177V10.004C16.9243 11.4974 16.4407 12.9505 15.5465 14.1466C14.6523 15.3427 13.3955 16.2177 11.9633 16.6412C10.5312 17.0646 9.0006 17.0138 7.59975 16.4962C6.19889 15.9787 5.00286 15.0222 4.19003 13.7693C3.37721 12.5165 2.99113 11.0345 3.0894 9.54433C3.18766 8.05417 3.76499 6.63569 4.73528 5.50044C5.70558 4.3652 7.01685 3.57402 8.47353 3.2449Z" fill="#646464"/>
<path d="M17.8431 4.41382C18.0529 4.20389 18.0527 3.86368 17.8428 3.65395C17.6328 3.44422 17.2926 3.44439 17.0829 3.65433L10.0001 10.7442L8.14147 8.88548C7.93163 8.67565 7.59143 8.67565 7.38159 8.88548C7.17176 9.09531 7.17176 9.43552 7.38159 9.64536L9.6204 11.8842C9.7212 11.985 9.85792 12.0416 10.0005 12.0415C10.143 12.0415 10.2797 11.9848 10.3805 11.884L17.8431 4.41382Z" fill="#646464"/>
</svg>
