<svg width="21" height="20" viewBox="0 0 21 20" fill="none" xmlns="http://www.w3.org/2000/svg">
<path d="M8.00498 10.0417C6.90248 10.0417 6.00583 9.14419 6.00583 8.04169C6.00583 6.93919 6.90248 6.04167 8.00498 6.04167C9.10748 6.04167 10.005 6.93919 10.005 8.04169C10.005 9.14419 9.10748 10.0417 8.00498 10.0417ZM8.00498 7.29167C7.59165 7.29167 7.25583 7.62835 7.25583 8.04169C7.25583 8.45502 7.59165 8.79171 8.00498 8.79171C8.41832 8.79171 8.755 8.45502 8.755 8.04169C8.755 7.62835 8.41832 7.29167 8.00498 7.29167ZM10.5 13.9583C10.155 13.9583 9.875 13.6783 9.875 13.3333V13.0809C9.875 12.4809 9.46086 11.875 8.53502 11.875H7.46584C6.54001 11.875 6.12581 12.4809 6.12581 13.0809V13.3333C6.12581 13.6783 5.84581 13.9583 5.50081 13.9583C5.15581 13.9583 4.87581 13.6783 4.87581 13.3333V13.0809C4.87581 11.8609 5.76501 10.625 7.46584 10.625H8.53502C10.2359 10.625 11.125 11.86 11.125 13.0809V13.3333C11.125 13.6783 10.845 13.9583 10.5 13.9583ZM15.5 16.875H5.5C3.485 16.875 2.375 15.765 2.375 13.75V6.25C2.375 4.235 3.485 3.125 5.5 3.125H15.5C17.515 3.125 18.625 4.235 18.625 6.25V13.75C18.625 15.765 17.515 16.875 15.5 16.875ZM5.5 4.375C4.18583 4.375 3.625 4.93583 3.625 6.25V13.75C3.625 15.0642 4.18583 15.625 5.5 15.625H15.5C16.8142 15.625 17.375 15.0642 17.375 13.75V6.25C17.375 4.93583 16.8142 4.375 15.5 4.375H5.5ZM16.125 8.28166C16.125 7.93666 15.845 7.65666 15.5 7.65666H12.1667C11.8217 7.65666 11.5417 7.93666 11.5417 8.28166C11.5417 8.62666 11.8217 8.90666 12.1667 8.90666H15.5C15.845 8.90666 16.125 8.62666 16.125 8.28166ZM16.0833 11.6667C16.0833 11.3217 15.8033 11.0417 15.4583 11.0417H12.9583C12.6133 11.0417 12.3333 11.3217 12.3333 11.6667C12.3333 12.0117 12.6133 12.2917 12.9583 12.2917H15.4583C15.8033 12.2917 16.0833 12.0117 16.0833 11.6667Z" fill="#61646C"/>
</svg>
