<svg width="228" height="56" viewBox="0 0 228 56" fill="none" xmlns="http://www.w3.org/2000/svg">
<rect width="228" height="56" rx="8" fill="#F2F5F7"/>
<path fill-rule="evenodd" clip-rule="evenodd" d="M18.2896 27.4H22.092C22.2568 24.8622 23.1429 22.4299 24.637 20.3864C21.2081 20.9961 18.5608 23.8655 18.2896 27.4ZM26 20.5843C24.4183 22.5228 23.473 24.9034 23.2947 27.4H28.7052C28.527 24.9034 27.5817 22.5228 26 20.5843ZM28.7052 28.6C28.527 31.0966 27.5817 33.4772 26 35.4157C24.4183 33.4772 23.473 31.0966 23.2947 28.6H28.7052ZM22.092 28.6H18.2896C18.5608 32.1345 21.2081 35.0039 24.637 35.6136C23.1429 33.5701 22.2568 31.1378 22.092 28.6ZM27.363 35.6136C28.8571 33.5701 29.7432 31.1378 29.908 28.6H33.7104C33.4392 32.1345 30.7919 35.0039 27.363 35.6136ZM33.7104 27.4H29.908C29.7432 24.8622 28.8571 22.4299 27.363 20.3864C30.7919 20.9961 33.4392 23.8655 33.7104 27.4ZM17.0667 28C17.0667 23.0663 21.0662 19.0667 26 19.0667C30.9337 19.0667 34.9333 23.0663 34.9333 28C34.9333 32.9337 30.9337 36.9333 26 36.9333C21.0662 36.9333 17.0667 32.9337 17.0667 28Z" fill="#646464"/>
<path d="M53.114 30.452C52.9367 31.0493 52.6567 31.5487 52.274 31.95C51.8913 32.3513 51.4387 32.65 50.916 32.846C50.3933 33.042 49.8193 33.14 49.194 33.14C48.2793 33.14 47.486 32.9487 46.814 32.566C46.1513 32.1833 45.638 31.6373 45.274 30.928C44.9193 30.2187 44.742 29.3693 44.742 28.38C44.742 27.3907 44.9193 26.5413 45.274 25.832C45.638 25.1227 46.1513 24.5767 46.814 24.194C47.486 23.8113 48.27 23.62 49.166 23.62C49.8007 23.62 50.3747 23.7087 50.888 23.886C51.4013 24.054 51.8353 24.3153 52.19 24.67C52.554 25.0247 52.82 25.4727 52.988 26.014L51.238 26.756C51.0793 26.196 50.8367 25.7993 50.51 25.566C50.1833 25.3233 49.7633 25.202 49.25 25.202C48.746 25.202 48.3027 25.3233 47.92 25.566C47.5467 25.8087 47.2573 26.168 47.052 26.644C46.8467 27.1107 46.744 27.6893 46.744 28.38C46.744 29.0613 46.8373 29.64 47.024 30.116C47.22 30.592 47.5047 30.9513 47.878 31.194C48.2513 31.4367 48.7087 31.558 49.25 31.558C49.754 31.558 50.188 31.4227 50.552 31.152C50.9253 30.8813 51.1867 30.4707 51.336 29.92L53.114 30.452ZM57.7566 25.86C58.466 25.86 59.0866 26.0047 59.6186 26.294C60.16 26.5833 60.58 26.9987 60.8786 27.54C61.1866 28.0813 61.3406 28.7347 61.3406 29.5C61.3406 30.256 61.1866 30.9093 60.8786 31.46C60.58 32.0013 60.16 32.4167 59.6186 32.706C59.0866 32.9953 58.466 33.14 57.7566 33.14C57.0566 33.14 56.436 32.9953 55.8946 32.706C55.3533 32.4167 54.9286 32.0013 54.6206 31.46C54.322 30.9093 54.1726 30.256 54.1726 29.5C54.1726 28.7347 54.322 28.0813 54.6206 27.54C54.9286 26.9987 55.3533 26.5833 55.8946 26.294C56.436 26.0047 57.0566 25.86 57.7566 25.86ZM57.7566 27.288C57.402 27.288 57.0986 27.372 56.8466 27.54C56.604 27.6987 56.4173 27.9413 56.2866 28.268C56.156 28.5947 56.0906 29.0053 56.0906 29.5C56.0906 29.9947 56.156 30.4053 56.2866 30.732C56.4173 31.0587 56.604 31.306 56.8466 31.474C57.0986 31.6327 57.402 31.712 57.7566 31.712C58.102 31.712 58.396 31.6327 58.6386 31.474C58.8906 31.306 59.082 31.0587 59.2126 30.732C59.3433 30.4053 59.4086 29.9947 59.4086 29.5C59.4086 29.0053 59.3433 28.5947 59.2126 28.268C59.082 27.9413 58.8906 27.6987 58.6386 27.54C58.396 27.372 58.102 27.288 57.7566 27.288ZM62.9455 33V26H64.6675L64.7795 28.1L64.5415 27.876C64.6535 27.4187 64.8308 27.0407 65.0735 26.742C65.3162 26.4433 65.6102 26.224 65.9555 26.084C66.3102 25.9347 66.6975 25.86 67.1175 25.86C67.6028 25.86 68.0322 25.9533 68.4055 26.14C68.7882 26.3267 69.0868 26.6113 69.3015 26.994C69.5255 27.3673 69.6375 27.8387 69.6375 28.408V33H67.7195V28.954C67.7195 28.3567 67.6028 27.946 67.3695 27.722C67.1362 27.4887 66.8328 27.372 66.4595 27.372C66.1982 27.372 65.9415 27.4373 65.6895 27.568C65.4468 27.6893 65.2462 27.89 65.0875 28.17C64.9382 28.45 64.8635 28.8233 64.8635 29.29V33H62.9455ZM74.0368 23.858V30.718C74.0368 31.054 74.1208 31.3013 74.2888 31.46C74.4661 31.6093 74.7041 31.684 75.0028 31.684C75.2361 31.684 75.4414 31.6513 75.6188 31.586C75.7961 31.5113 75.9548 31.4133 76.0948 31.292L76.4028 32.566C76.1788 32.7433 75.8988 32.8833 75.5628 32.986C75.2268 33.0887 74.8721 33.14 74.4988 33.14C74.0321 33.14 73.6168 33.07 73.2528 32.93C72.8981 32.79 72.6181 32.566 72.4128 32.258C72.2168 31.95 72.1188 31.5393 72.1188 31.026V24.39L74.0368 23.858ZM76.2768 26V27.428H70.8308V26H76.2768ZM78.5404 24.992C78.1391 24.992 77.8404 24.908 77.6444 24.74C77.4484 24.5627 77.3504 24.306 77.3504 23.97C77.3504 23.6247 77.4484 23.368 77.6444 23.2C77.8404 23.0227 78.1391 22.934 78.5404 22.934C78.9417 22.934 79.2404 23.0227 79.4364 23.2C79.6324 23.368 79.7304 23.6247 79.7304 23.97C79.7304 24.306 79.6324 24.5627 79.4364 24.74C79.2404 24.908 78.9417 24.992 78.5404 24.992ZM79.4924 26V33H77.5744V26H79.4924ZM81.5256 33V26H83.2476L83.3596 28.1L83.1216 27.876C83.2336 27.4187 83.4109 27.0407 83.6536 26.742C83.8962 26.4433 84.1902 26.224 84.5356 26.084C84.8902 25.9347 85.2776 25.86 85.6976 25.86C86.1829 25.86 86.6122 25.9533 86.9856 26.14C87.3682 26.3267 87.6669 26.6113 87.8816 26.994C88.1056 27.3673 88.2176 27.8387 88.2176 28.408V33H86.2996V28.954C86.2996 28.3567 86.1829 27.946 85.9496 27.722C85.7162 27.4887 85.4129 27.372 85.0396 27.372C84.7782 27.372 84.5216 27.4373 84.2696 27.568C84.0269 27.6893 83.8262 27.89 83.6676 28.17C83.5182 28.45 83.4436 28.8233 83.4436 29.29V33H81.5256ZM92.6295 33.14C92.1629 33.14 91.7429 33.056 91.3695 32.888C90.9962 32.72 90.6975 32.454 90.4735 32.09C90.2589 31.7167 90.1515 31.236 90.1515 30.648V26H92.0695V30.186C92.0695 30.7273 92.1815 31.1053 92.4055 31.32C92.6295 31.5253 92.9515 31.628 93.3715 31.628C93.5675 31.628 93.7589 31.5953 93.9455 31.53C94.1322 31.4553 94.2955 31.3433 94.4355 31.194C94.5849 31.0447 94.7015 30.8533 94.7855 30.62C94.8695 30.3773 94.9115 30.0927 94.9115 29.766V26H96.8295V33H95.1215L95.0515 31.782C94.8182 32.2487 94.4962 32.594 94.0855 32.818C93.6842 33.0327 93.1989 33.14 92.6295 33.14ZM102.096 33.14C101.359 33.14 100.715 32.9953 100.164 32.706C99.6225 32.4167 99.2025 32.0013 98.9038 31.46C98.6052 30.9187 98.4558 30.2653 98.4558 29.5C98.4558 28.7347 98.6052 28.0813 98.9038 27.54C99.2025 26.9987 99.6178 26.5833 100.15 26.294C100.691 26.0047 101.307 25.86 101.998 25.86C102.707 25.86 103.309 26.0047 103.804 26.294C104.299 26.574 104.677 26.9613 104.938 27.456C105.199 27.9413 105.33 28.4967 105.33 29.122C105.33 29.3087 105.325 29.486 105.316 29.654C105.307 29.822 105.293 29.9713 105.274 30.102H99.6878V28.772H104.434L103.51 29.108C103.51 28.52 103.375 28.0673 103.104 27.75C102.843 27.4327 102.469 27.274 101.984 27.274C101.629 27.274 101.321 27.358 101.06 27.526C100.808 27.694 100.617 27.946 100.486 28.282C100.355 28.6087 100.29 29.024 100.29 29.528C100.29 30.0227 100.36 30.4333 100.5 30.76C100.649 31.0773 100.855 31.3153 101.116 31.474C101.387 31.6327 101.709 31.712 102.082 31.712C102.493 31.712 102.824 31.6327 103.076 31.474C103.328 31.3153 103.524 31.096 103.664 30.816L105.19 31.404C105.041 31.768 104.812 32.0807 104.504 32.342C104.205 32.6033 103.846 32.804 103.426 32.944C103.015 33.0747 102.572 33.14 102.096 33.14ZM113.549 23.858V30.718C113.549 31.054 113.633 31.3013 113.801 31.46C113.978 31.6093 114.216 31.684 114.515 31.684C114.748 31.684 114.953 31.6513 115.131 31.586C115.308 31.5113 115.467 31.4133 115.607 31.292L115.915 32.566C115.691 32.7433 115.411 32.8833 115.075 32.986C114.739 33.0887 114.384 33.14 114.011 33.14C113.544 33.14 113.129 33.07 112.765 32.93C112.41 32.79 112.13 32.566 111.925 32.258C111.729 31.95 111.631 31.5393 111.631 31.026V24.39L113.549 23.858ZM115.789 26V27.428H110.343V26H115.789ZM120.278 25.86C120.987 25.86 121.608 26.0047 122.14 26.294C122.681 26.5833 123.101 26.9987 123.4 27.54C123.708 28.0813 123.862 28.7347 123.862 29.5C123.862 30.256 123.708 30.9093 123.4 31.46C123.101 32.0013 122.681 32.4167 122.14 32.706C121.608 32.9953 120.987 33.14 120.278 33.14C119.578 33.14 118.957 32.9953 118.416 32.706C117.875 32.4167 117.45 32.0013 117.142 31.46C116.843 30.9093 116.694 30.256 116.694 29.5C116.694 28.7347 116.843 28.0813 117.142 27.54C117.45 26.9987 117.875 26.5833 118.416 26.294C118.957 26.0047 119.578 25.86 120.278 25.86ZM120.278 27.288C119.923 27.288 119.62 27.372 119.368 27.54C119.125 27.6987 118.939 27.9413 118.808 28.268C118.677 28.5947 118.612 29.0053 118.612 29.5C118.612 29.9947 118.677 30.4053 118.808 30.732C118.939 31.0587 119.125 31.306 119.368 31.474C119.62 31.6327 119.923 31.712 120.278 31.712C120.623 31.712 120.917 31.6327 121.16 31.474C121.412 31.306 121.603 31.0587 121.734 30.732C121.865 30.4053 121.93 29.9947 121.93 29.5C121.93 29.0053 121.865 28.5947 121.734 28.268C121.603 27.9413 121.412 27.6987 121.16 27.54C120.917 27.372 120.623 27.288 120.278 27.288ZM138.476 26H140.52L138.28 33H136.068L134.542 28.24L133.072 33H130.86L128.62 26H130.664L132.064 31.362L133.618 26H135.522L137.09 31.362L138.476 26ZM144.766 33.14C144.028 33.14 143.384 32.9953 142.834 32.706C142.292 32.4167 141.872 32.0013 141.574 31.46C141.275 30.9187 141.126 30.2653 141.126 29.5C141.126 28.7347 141.275 28.0813 141.574 27.54C141.872 26.9987 142.288 26.5833 142.82 26.294C143.361 26.0047 143.977 25.86 144.668 25.86C145.377 25.86 145.979 26.0047 146.474 26.294C146.968 26.574 147.346 26.9613 147.608 27.456C147.869 27.9413 148 28.4967 148 29.122C148 29.3087 147.995 29.486 147.986 29.654C147.976 29.822 147.962 29.9713 147.944 30.102H142.358V28.772H147.104L146.18 29.108C146.18 28.52 146.044 28.0673 145.774 27.75C145.512 27.4327 145.139 27.274 144.654 27.274C144.299 27.274 143.991 27.358 143.73 27.526C143.478 27.694 143.286 27.946 143.156 28.282C143.025 28.6087 142.96 29.024 142.96 29.528C142.96 30.0227 143.03 30.4333 143.17 30.76C143.319 31.0773 143.524 31.3153 143.786 31.474C144.056 31.6327 144.378 31.712 144.752 31.712C145.162 31.712 145.494 31.6327 145.746 31.474C145.998 31.3153 146.194 31.096 146.334 30.816L147.86 31.404C147.71 31.768 147.482 32.0807 147.174 32.342C146.875 32.6033 146.516 32.804 146.096 32.944C145.685 33.0747 145.242 33.14 144.766 33.14ZM153.741 33.14C153.312 33.14 152.92 33.0513 152.565 32.874C152.22 32.6873 151.931 32.4353 151.697 32.118C151.473 31.7913 151.319 31.4273 151.235 31.026L151.431 30.774L151.319 33H149.625V22.934H151.543V27.974L151.361 27.68C151.511 27.1573 151.795 26.7233 152.215 26.378C152.635 26.0327 153.163 25.86 153.797 25.86C154.348 25.86 154.847 26.0047 155.295 26.294C155.743 26.5833 156.093 26.9987 156.345 27.54C156.607 28.0813 156.737 28.7393 156.737 29.514C156.737 30.27 156.607 30.9187 156.345 31.46C156.093 32.0013 155.739 32.4167 155.281 32.706C154.833 32.9953 154.32 33.14 153.741 33.14ZM153.167 31.67C153.681 31.67 154.082 31.488 154.371 31.124C154.67 30.7507 154.819 30.2093 154.819 29.5C154.819 28.7907 154.675 28.254 154.385 27.89C154.096 27.5167 153.695 27.33 153.181 27.33C152.845 27.33 152.556 27.4187 152.313 27.596C152.071 27.7733 151.879 28.0253 151.739 28.352C151.609 28.6787 151.543 29.066 151.543 29.514C151.543 29.9713 151.609 30.3633 151.739 30.69C151.879 31.0073 152.071 31.25 152.313 31.418C152.565 31.586 152.85 31.67 153.167 31.67ZM166.946 26H168.934L166.274 33H164.062L161.402 26H163.446L165.182 31.53L166.946 26ZM173.162 33.14C172.425 33.14 171.781 32.9953 171.23 32.706C170.689 32.4167 170.269 32.0013 169.97 31.46C169.672 30.9187 169.522 30.2653 169.522 29.5C169.522 28.7347 169.672 28.0813 169.97 27.54C170.269 26.9987 170.684 26.5833 171.216 26.294C171.758 26.0047 172.374 25.86 173.064 25.86C173.774 25.86 174.376 26.0047 174.87 26.294C175.365 26.574 175.743 26.9613 176.004 27.456C176.266 27.9413 176.396 28.4967 176.396 29.122C176.396 29.3087 176.392 29.486 176.382 29.654C176.373 29.822 176.359 29.9713 176.34 30.102H170.754V28.772H175.5L174.576 29.108C174.576 28.52 174.441 28.0673 174.17 27.75C173.909 27.4327 173.536 27.274 173.05 27.274C172.696 27.274 172.388 27.358 172.126 27.526C171.874 27.694 171.683 27.946 171.552 28.282C171.422 28.6087 171.356 29.024 171.356 29.528C171.356 30.0227 171.426 30.4333 171.566 30.76C171.716 31.0773 171.921 31.3153 172.182 31.474C172.453 31.6327 172.775 31.712 173.148 31.712C173.559 31.712 173.89 31.6327 174.142 31.474C174.394 31.3153 174.59 31.096 174.73 30.816L176.256 31.404C176.107 31.768 175.878 32.0807 175.57 32.342C175.272 32.6033 174.912 32.804 174.492 32.944C174.082 33.0747 173.638 33.14 173.162 33.14ZM178.022 33V26H179.688L179.814 27.372C180 26.8867 180.271 26.5133 180.626 26.252C180.99 25.9907 181.442 25.86 181.984 25.86C182.142 25.86 182.287 25.874 182.418 25.902C182.548 25.93 182.656 25.9673 182.74 26.014L182.516 27.624C182.422 27.5867 182.306 27.5587 182.166 27.54C182.035 27.5213 181.862 27.512 181.648 27.512C181.368 27.512 181.097 27.582 180.836 27.722C180.574 27.8527 180.36 28.058 180.192 28.338C180.024 28.6087 179.94 28.954 179.94 29.374V33H178.022ZM186.537 33.14C185.827 33.14 185.179 33.014 184.591 32.762C184.012 32.51 183.541 32.1553 183.177 31.698L184.283 30.578C184.507 30.914 184.805 31.1893 185.179 31.404C185.552 31.6187 185.995 31.726 186.509 31.726C186.873 31.726 187.162 31.6747 187.377 31.572C187.601 31.46 187.713 31.2873 187.713 31.054C187.713 30.9047 187.661 30.7787 187.559 30.676C187.456 30.564 187.251 30.4753 186.943 30.41L185.711 30.158C184.899 29.99 184.32 29.738 183.975 29.402C183.639 29.0567 183.471 28.6133 183.471 28.072C183.471 27.6893 183.583 27.33 183.807 26.994C184.04 26.658 184.385 26.3873 184.843 26.182C185.3 25.9673 185.869 25.86 186.551 25.86C187.251 25.86 187.857 25.972 188.371 26.196C188.893 26.4107 189.304 26.7327 189.603 27.162L188.455 28.282C188.249 27.9553 187.979 27.708 187.643 27.54C187.316 27.3627 186.971 27.274 186.607 27.274C186.345 27.274 186.121 27.302 185.935 27.358C185.748 27.414 185.608 27.4933 185.515 27.596C185.421 27.6893 185.375 27.8107 185.375 27.96C185.375 28.1093 185.44 28.24 185.571 28.352C185.701 28.4547 185.939 28.5433 186.285 28.618L187.713 28.912C188.403 29.052 188.898 29.29 189.197 29.626C189.495 29.9527 189.645 30.3493 189.645 30.816C189.645 31.264 189.523 31.6653 189.281 32.02C189.047 32.3653 188.697 32.6407 188.231 32.846C187.773 33.042 187.209 33.14 186.537 33.14ZM192.14 24.992C191.739 24.992 191.44 24.908 191.244 24.74C191.048 24.5627 190.95 24.306 190.95 23.97C190.95 23.6247 191.048 23.368 191.244 23.2C191.44 23.0227 191.739 22.934 192.14 22.934C192.541 22.934 192.84 23.0227 193.036 23.2C193.232 23.368 193.33 23.6247 193.33 23.97C193.33 24.306 193.232 24.5627 193.036 24.74C192.84 24.908 192.541 24.992 192.14 24.992ZM193.092 26V33H191.174V26H193.092ZM198.317 25.86C199.027 25.86 199.647 26.0047 200.179 26.294C200.721 26.5833 201.141 26.9987 201.439 27.54C201.747 28.0813 201.901 28.7347 201.901 29.5C201.901 30.256 201.747 30.9093 201.439 31.46C201.141 32.0013 200.721 32.4167 200.179 32.706C199.647 32.9953 199.027 33.14 198.317 33.14C197.617 33.14 196.997 32.9953 196.455 32.706C195.914 32.4167 195.489 32.0013 195.181 31.46C194.883 30.9093 194.733 30.256 194.733 29.5C194.733 28.7347 194.883 28.0813 195.181 27.54C195.489 26.9987 195.914 26.5833 196.455 26.294C196.997 26.0047 197.617 25.86 198.317 25.86ZM198.317 27.288C197.963 27.288 197.659 27.372 197.407 27.54C197.165 27.6987 196.978 27.9413 196.847 28.268C196.717 28.5947 196.651 29.0053 196.651 29.5C196.651 29.9947 196.717 30.4053 196.847 30.732C196.978 31.0587 197.165 31.306 197.407 31.474C197.659 31.6327 197.963 31.712 198.317 31.712C198.663 31.712 198.957 31.6327 199.199 31.474C199.451 31.306 199.643 31.0587 199.773 30.732C199.904 30.4053 199.969 29.9947 199.969 29.5C199.969 29.0053 199.904 28.5947 199.773 28.268C199.643 27.9413 199.451 27.6987 199.199 27.54C198.957 27.372 198.663 27.288 198.317 27.288ZM203.506 33V26H205.228L205.34 28.1L205.102 27.876C205.214 27.4187 205.391 27.0407 205.634 26.742C205.877 26.4433 206.171 26.224 206.516 26.084C206.871 25.9347 207.258 25.86 207.678 25.86C208.163 25.86 208.593 25.9533 208.966 26.14C209.349 26.3267 209.647 26.6113 209.862 26.994C210.086 27.3673 210.198 27.8387 210.198 28.408V33H208.28V28.954C208.28 28.3567 208.163 27.946 207.93 27.722C207.697 27.4887 207.393 27.372 207.02 27.372C206.759 27.372 206.502 27.4373 206.25 27.568C206.007 27.6893 205.807 27.89 205.648 28.17C205.499 28.45 205.424 28.8233 205.424 29.29V33H203.506Z" fill="#202020"/>
</svg>
