<svg width="20" height="20" viewBox="0 0 20 20" fill="none" xmlns="http://www.w3.org/2000/svg">
<path d="M1.71943 16.923C1.36127 16.923 1.05449 16.7953 0.799099 16.5399C0.54371 16.2845 0.416016 15.9777 0.416016 15.6196V4.38032C0.416016 4.02215 0.54371 3.71538 0.799099 3.45999C1.05449 3.2046 1.36127 3.0769 1.71943 3.0769H18.2792C18.6374 3.0769 18.9442 3.2046 19.1996 3.45999C19.4549 3.71538 19.5826 4.02215 19.5826 4.38032V15.6196C19.5826 15.9777 19.4549 16.2845 19.1996 16.5399C18.9442 16.7953 18.6374 16.923 18.2792 16.923H1.71943ZM12.3305 15.876H18.2792C18.3433 15.876 18.4021 15.8493 18.4555 15.7959C18.5089 15.7424 18.5357 15.6837 18.5357 15.6196V4.38032C18.5357 4.31621 18.5089 4.25745 18.4555 4.20403C18.4021 4.1506 18.3433 4.12388 18.2792 4.12388H1.71943C1.65532 4.12388 1.59656 4.1506 1.54314 4.20403C1.48971 4.25745 1.46299 4.31621 1.46299 4.38032V15.6196C1.46299 15.6837 1.48971 15.7424 1.54314 15.7959C1.59656 15.8493 1.65532 15.876 1.71943 15.876H2.0421C2.64039 15.0199 3.38608 14.3381 4.27916 13.8306C5.17223 13.3231 6.14127 13.0694 7.18629 13.0694C8.22759 13.0694 9.19571 13.3231 10.0906 13.8306C10.9856 14.3381 11.7322 15.0199 12.3305 15.876ZM7.18629 11.7628C7.82197 11.7628 8.36283 11.5398 8.80887 11.0937C9.25493 10.6477 9.47795 10.1068 9.47795 9.47111C9.47795 8.83545 9.25493 8.29459 8.80887 7.84853C8.36283 7.40249 7.82197 7.17947 7.18629 7.17947C6.54705 7.17947 6.0053 7.40249 5.56104 7.84853C5.11677 8.29459 4.89464 8.83545 4.89464 9.47111C4.89464 10.1068 5.11677 10.6477 5.56104 11.0937C6.0053 11.5398 6.54705 11.7628 7.18629 11.7628ZM3.39356 15.876H10.9737C10.4884 15.3193 9.91609 14.8869 9.25683 14.5787C8.59756 14.2705 7.90683 14.1164 7.18464 14.1164C6.46245 14.1164 5.77291 14.271 5.11604 14.5802C4.45916 14.8894 3.885 15.3213 3.39356 15.876ZM7.18647 10.7158C6.83949 10.7158 6.54527 10.5951 6.30381 10.3538C6.06235 10.1125 5.94162 9.8183 5.94162 9.4713C5.94162 9.12431 6.06229 8.83009 6.30362 8.58863C6.54495 8.34718 6.83911 8.22645 7.1861 8.22645C7.5331 8.22645 7.82733 8.34711 8.06879 8.58845C8.31025 8.82978 8.43097 9.12394 8.43097 9.47093C8.43097 9.81793 8.31031 10.1122 8.06897 10.3536C7.82764 10.5951 7.53347 10.7158 7.18647 10.7158Z" fill="#999999"/>
<path d="M11.5 6.5H16.5" stroke="#999999" stroke-linecap="round"/>
<path d="M11.5 9H16.5" stroke="#999999" stroke-linecap="round"/>
<path d="M11.5 11.5H16.5" stroke="#999999" stroke-linecap="round"/>
</svg>
