<svg width="24" height="24" viewBox="0 0 24 24" fill="none" xmlns="http://www.w3.org/2000/svg">
<path d="M5.33368 20.1815C5.83583 20.3337 6.51407 20.3337 7.66699 20.3337H16.3337C17.4866 20.3337 18.1648 20.3337 18.667 20.1815M5.33368 20.1815C5.22601 20.1489 5.12644 20.1093 5.03202 20.0612C4.56161 19.8215 4.17916 19.439 3.93948 18.9686C3.66699 18.4339 3.66699 17.7338 3.66699 16.3337V7.66699C3.66699 6.26686 3.66699 5.5668 3.93948 5.03202C4.17916 4.56161 4.56161 4.17916 5.03202 3.93948C5.5668 3.66699 6.26686 3.66699 7.66699 3.66699H16.3337C17.7338 3.66699 18.4339 3.66699 18.9686 3.93948C19.439 4.17916 19.8215 4.56161 20.0612 5.03202C20.3337 5.5668 20.3337 6.26686 20.3337 7.66699V16.3337C20.3337 17.7338 20.3337 18.4339 20.0612 18.9686C19.8215 19.439 19.439 19.8215 18.9686 20.0612C18.8742 20.1093 18.7746 20.1489 18.667 20.1815M5.33368 20.1815C5.33395 19.5071 5.338 19.1502 5.39771 18.85C5.66073 17.5277 6.69439 16.4941 8.01669 16.231C8.33869 16.167 8.7259 16.167 9.50033 16.167H14.5003C15.2748 16.167 15.662 16.167 15.984 16.231C17.3063 16.4941 18.3399 17.5277 18.6029 18.85C18.6627 19.1502 18.6667 19.5071 18.667 20.1815M15.3337 9.91699C15.3337 11.7579 13.8413 13.2503 12.0003 13.2503C10.1594 13.2503 8.66699 11.7579 8.66699 9.91699C8.66699 8.07604 10.1594 6.58366 12.0003 6.58366C13.8413 6.58366 15.3337 8.07604 15.3337 9.91699Z" stroke="#202020" stroke-width="1.2" stroke-linecap="round" stroke-linejoin="round"/>
</svg>
