<svg width="20" height="20" viewBox="0 0 20 20" fill="none" xmlns="http://www.w3.org/2000/svg">
<path fill-rule="evenodd" clip-rule="evenodd" d="M9.16689 8.10001C8.57779 8.10001 8.10023 8.57758 8.10023 9.16668V16.6667C8.10023 17.2558 8.57779 17.7333 9.16689 17.7333H16.6669C17.256 17.7333 17.7336 17.2558 17.7336 16.6667V9.16668C17.7336 8.57758 17.256 8.10001 16.6669 8.10001H9.16689ZM6.90023 9.16668C6.90023 7.91484 7.91505 6.90001 9.16689 6.90001H16.6669C17.9187 6.90001 18.9336 7.91484 18.9336 9.16668V16.6667C18.9336 17.9185 17.9187 18.9333 16.6669 18.9333H9.16689C7.91505 18.9333 6.90023 17.9185 6.90023 16.6667V9.16668Z" fill="#646464"/>
<path fill-rule="evenodd" clip-rule="evenodd" d="M3.33356 2.26668C3.05066 2.26668 2.77935 2.37906 2.57931 2.5791C2.37928 2.77914 2.26689 3.05045 2.26689 3.33335V10.8333C2.26689 11.1162 2.37928 11.3876 2.57931 11.5876C2.77935 11.7876 3.05066 11.9 3.33356 11.9H4.16689C4.49827 11.9 4.76689 12.1686 4.76689 12.5C4.76689 12.8314 4.49827 13.1 4.16689 13.1H3.33356C2.7324 13.1 2.15587 12.8612 1.73079 12.4361C1.3057 12.011 1.06689 11.4345 1.06689 10.8333V3.33335C1.06689 2.73219 1.3057 2.15565 1.73079 1.73057C2.15587 1.30549 2.7324 1.06668 3.33356 1.06668H10.8336C11.4347 1.06668 12.0113 1.30549 12.4363 1.73057C12.8614 2.15565 13.1002 2.73219 13.1002 3.33335V4.16668C13.1002 4.49805 12.8316 4.76668 12.5002 4.76668C12.1689 4.76668 11.9002 4.49805 11.9002 4.16668V3.33335C11.9002 3.05045 11.7878 2.77914 11.5878 2.5791C11.3878 2.37906 11.1165 2.26668 10.8336 2.26668H3.33356Z" fill="#646464"/>
</svg>
