<svg width="14" height="10" viewBox="0 0 14 10" fill="none" xmlns="http://www.w3.org/2000/svg">
<path d="M13.4996 5.6667V9.00004C13.4996 9.27604 13.2756 9.50004 12.9996 9.50004C12.7236 9.50004 12.4996 9.27604 12.4996 9.00004V5.6667C12.4996 4.83937 11.8263 4.1667 10.9996 4.1667H2.20695L4.02026 5.98002C4.21559 6.17535 4.21559 6.49204 4.02026 6.68737C3.92293 6.78471 3.79491 6.83402 3.66691 6.83402C3.53891 6.83402 3.41089 6.78537 3.31355 6.68737L0.646887 4.02071C0.600887 3.97471 0.56431 3.91944 0.538977 3.85811C0.48831 3.73611 0.48831 3.59811 0.538977 3.47611C0.56431 3.41478 0.600887 3.35935 0.646887 3.31335L3.31355 0.646683C3.50889 0.45135 3.82558 0.45135 4.02091 0.646683C4.21624 0.842016 4.21624 1.15871 4.02091 1.35404L2.2076 3.16735H10.9996C12.3776 3.16669 13.4996 4.28804 13.4996 5.6667Z" fill="#61646C"/>
</svg>
