<svg width="20" height="20" viewBox="0 0 20 20" fill="none" xmlns="http://www.w3.org/2000/svg">
<path fill-rule="evenodd" clip-rule="evenodd" d="M11.7139 4.1451C11.9074 3.95163 12.2211 3.95163 12.4145 4.1451L15.8549 7.58545C16.0484 7.77892 16.0484 8.0926 15.8549 8.28607L12.4145 11.7264C12.2211 11.9199 11.9074 11.9199 11.7139 11.7264C11.5204 11.5329 11.5204 11.2193 11.7139 11.0258L14.804 7.93576L11.7139 4.84572C11.5204 4.65225 11.5204 4.33857 11.7139 4.1451Z" fill="#202020"/>
<path fill-rule="evenodd" clip-rule="evenodd" d="M7.24769 8.43174C6.64913 8.43174 6.07509 8.66951 5.65184 9.09276C5.2286 9.516 4.99082 10.09 4.99082 10.6886V15.5051C4.99082 15.7787 4.76902 16.0005 4.49541 16.0005C4.2218 16.0005 4 15.7787 4 15.5051V10.6886C4 9.82727 4.34217 9.0012 4.95123 8.39214C5.56029 7.78308 6.38635 7.44092 7.24769 7.44092H15.5045C15.7781 7.44092 15.9999 7.66272 15.9999 7.93633C15.9999 8.20994 15.7781 8.43174 15.5045 8.43174H7.24769Z" fill="#202020"/>
</svg>
