<svg width="30" height="34" viewBox="0 0 30 34" fill="none" xmlns="http://www.w3.org/2000/svg">
<path d="M23.3337 4.08333H22.8836C22.722 1.99333 21.3687 0.75 19.167 0.75H10.8337C8.63199 0.75 7.27869 1.99333 7.11702 4.08333H6.66699C2.63699 4.08333 0.416992 6.30333 0.416992 10.3333V27C0.416992 31.03 2.63699 33.25 6.66699 33.25H23.3337C27.3637 33.25 29.5837 31.03 29.5837 27V10.3333C29.5837 6.30333 27.3637 4.08333 23.3337 4.08333ZM9.58366 4.5C9.58366 3.51833 9.85199 3.25 10.8337 3.25H19.167C20.1487 3.25 20.417 3.51833 20.417 4.5V6.16667C20.417 7.14833 20.1487 7.41667 19.167 7.41667H10.8337C9.85199 7.41667 9.58366 7.14833 9.58366 6.16667V4.5ZM27.0837 27C27.0837 29.6283 25.962 30.75 23.3337 30.75H6.66699C4.03866 30.75 2.91699 29.6283 2.91699 27V10.3333C2.91699 7.705 4.03866 6.58333 6.66699 6.58333H7.11702C7.27869 8.67333 8.63199 9.91667 10.8337 9.91667H19.167C21.3687 9.91667 22.722 8.67333 22.8836 6.58333H23.3337C25.962 6.58333 27.0837 7.705 27.0837 10.3333V27ZM20.417 19.5C20.417 20.19 19.857 20.75 19.167 20.75H16.2503V23.6667C16.2503 24.3567 15.6903 24.9167 15.0003 24.9167C14.3103 24.9167 13.7503 24.3567 13.7503 23.6667V20.75H10.8337C10.1437 20.75 9.58366 20.19 9.58366 19.5C9.58366 18.81 10.1437 18.25 10.8337 18.25H13.7503V15.3333C13.7503 14.6433 14.3103 14.0833 15.0003 14.0833C15.6903 14.0833 16.2503 14.6433 16.2503 15.3333V18.25H19.167C19.857 18.25 20.417 18.81 20.417 19.5Z" fill="#51525C"/>
</svg>
