<svg width="48" height="48" viewBox="0 0 48 48" fill="none" xmlns="http://www.w3.org/2000/svg">
  <circle cx="24" cy="24" r="24" fill="#009688"/>
  <path fill-rule="evenodd" clip-rule="evenodd" d="M18.8275 13.1826C19.2542 13.4261 19.5171 13.8763 19.5171 14.3635L19.5174 15.7273L22.621 15.727V14.3635C22.621 13.8763 22.8839 13.4261 23.3106 13.1826C23.7373 12.9391 24.2631 12.9391 24.6898 13.1826C25.1165 13.4261 25.3794 13.8763 25.3794 14.3635V15.7273L28.4829 15.727V14.3635C28.4829 13.8763 28.7459 13.4261 29.1725 13.1826C29.5992 12.9391 30.125 12.9391 30.5517 13.1826C30.9787 13.4261 31.2416 13.8763 31.2416 14.3635V15.9658C32.0476 16.2476 32.7453 16.7691 33.2394 17.4589C33.7335 18.1488 33.999 18.973 34 19.8181V30.7273C34 31.8124 33.5642 32.8527 32.7882 33.6199C32.0119 34.3873 30.9596 34.8182 29.8621 34.8182H18.1379C17.0403 34.8182 15.988 34.3872 15.2118 33.6199C14.4358 32.8527 14 31.8123 14 30.7273V19.8181C14.001 18.973 14.2666 18.1488 14.7606 17.4589C15.2546 16.7691 15.9524 16.2476 16.7584 15.9658V14.3635C16.7584 13.8763 17.0213 13.4261 17.4483 13.1826C17.8749 12.9391 18.4008 12.9391 18.8275 13.1826ZM31.0053 18.5467C30.7404 18.2821 30.3808 18.1331 30.0059 18.1331H17.9939C17.6191 18.1331 17.2595 18.2821 16.9946 18.5467C16.7297 18.8114 16.5806 19.1706 16.5806 19.545V30.8391C16.5806 31.2136 16.7297 31.5725 16.9946 31.8374C17.2595 32.1021 17.6191 32.2508 17.9939 32.2508H30.0059C30.3808 32.2508 30.7403 32.1021 31.0053 31.8374C31.2702 31.5725 31.4193 31.2136 31.4193 30.8391V19.545C31.4193 19.1706 31.2702 18.8114 31.0053 18.5467Z" fill="white"/>
  <rect x="15.25" y="18" width="16.25" height="15" fill="white"/>
  <path d="M22.1236 28.3746C22.4463 28.7003 22.8836 28.8833 23.3396 28.8833C23.7956 28.8833 24.2329 28.7003 24.5556 28.3746L28.6018 24.2508C28.8751 23.9745 28.9818 23.5716 28.8817 23.1941C28.7818 22.8166 28.4902 22.5218 28.117 22.4205C27.7438 22.3195 27.3457 22.4274 27.0724 22.7037L23.3396 26.5102L21.479 24.8636C21.2059 24.5874 20.8078 24.4794 20.4346 24.5807C20.0614 24.6817 19.7698 24.9767 19.6699 25.3543C19.5698 25.7318 19.6765 26.1346 19.9498 26.4109L22.1236 28.3746Z" fill="#00A99F"/>
</svg>
