<svg width="20" height="20" viewBox="0 0 20 20" fill="none" xmlns="http://www.w3.org/2000/svg">
<path d="M9.58331 4.79167H17.9166C18.2616 4.79167 18.5416 4.51167 18.5416 4.16667C18.5416 3.82167 18.2616 3.54167 17.9166 3.54167H9.58331C9.23831 3.54167 8.95831 3.82167 8.95831 4.16667C8.95831 4.51167 9.23831 4.79167 9.58331 4.79167Z" fill="#61646C"/>
<path d="M9.58331 10.625H17.9166C18.2616 10.625 18.5416 10.345 18.5416 10C18.5416 9.655 18.2616 9.375 17.9166 9.375H9.58331C9.23831 9.375 8.95831 9.655 8.95831 10C8.95831 10.345 9.23831 10.625 9.58331 10.625Z" fill="#61646C"/>
<path d="M9.58331 16.4583H17.9166C18.2616 16.4583 18.5416 16.1783 18.5416 15.8333C18.5416 15.4883 18.2616 15.2083 17.9166 15.2083H9.58331C9.23831 15.2083 8.95831 15.4883 8.95831 15.8333C8.95831 16.1783 9.23831 16.4583 9.58331 16.4583Z" fill="#61646C"/>
<path d="M4.19311 6.27565L7.52645 2.94232C7.77061 2.69815 7.77061 2.30229 7.52645 2.05813C7.28228 1.81396 6.88642 1.81396 6.64225 2.05813L3.75061 4.94977L2.52563 3.72479C2.28147 3.48062 1.8856 3.48062 1.64144 3.72479C1.39727 3.96896 1.39727 4.36482 1.64144 4.60899L3.3081 6.27565C3.42977 6.39732 3.5898 6.45896 3.7498 6.45896C3.9098 6.45896 4.07145 6.39815 4.19311 6.27565Z" fill="#61646C"/>
<path fill-rule="evenodd" clip-rule="evenodd" d="M4.58331 8.95833C4.00802 8.95833 3.54165 9.4247 3.54165 10C3.54165 10.5753 4.00802 11.0417 4.58331 11.0417C5.15861 11.0417 5.62498 10.5753 5.62498 10C5.62498 9.4247 5.15861 8.95833 4.58331 8.95833ZM2.29165 10C2.29165 8.73435 3.31766 7.70833 4.58331 7.70833C5.84897 7.70833 6.87498 8.73435 6.87498 10C6.87498 11.2657 5.84897 12.2917 4.58331 12.2917C3.31766 12.2917 2.29165 11.2657 2.29165 10Z" fill="#61646C"/>
<path fill-rule="evenodd" clip-rule="evenodd" d="M4.58331 14.7917C4.00802 14.7917 3.54165 15.258 3.54165 15.8333C3.54165 16.4086 4.00802 16.875 4.58331 16.875C5.15861 16.875 5.62498 16.4086 5.62498 15.8333C5.62498 15.258 5.15861 14.7917 4.58331 14.7917ZM2.29165 15.8333C2.29165 14.5677 3.31766 13.5417 4.58331 13.5417C5.84897 13.5417 6.87498 14.5677 6.87498 15.8333C6.87498 17.099 5.84897 18.125 4.58331 18.125C3.31766 18.125 2.29165 17.099 2.29165 15.8333Z" fill="#61646C"/>
</svg>
