<svg width="18" height="13" viewBox="0 0 18 13" fill="none" xmlns="http://www.w3.org/2000/svg">
<path d="M17.1996 3.41941C17.0999 3.34706 16.982 3.30784 16.8611 3.30682C16.7401 3.3058 16.6216 3.34301 16.5209 3.41367L13.3619 5.63472L9.47709 0.365147C9.41855 0.284952 9.3427 0.220664 9.25585 0.177633C9.169 0.134602 9.07366 0.114072 8.97778 0.117751C8.88189 0.12143 8.78822 0.149213 8.70456 0.198786C8.62091 0.248359 8.54968 0.31829 8.49682 0.402759L5.18374 5.64492L1.44337 3.39008C1.34132 3.32881 1.22457 3.30019 1.10736 3.30772C0.990153 3.31524 0.877555 3.35858 0.783302 3.43246C0.689048 3.50633 0.617213 3.60755 0.57656 3.72375C0.535907 3.83995 0.528192 3.96612 0.554358 4.08687L2.36743 12.3744C2.39785 12.515 2.47267 12.6406 2.57963 12.7305C2.68658 12.8203 2.81932 12.8692 2.95607 12.8691H15.0432C15.1799 12.8692 15.3126 12.8204 15.4197 12.7306C15.5267 12.6409 15.6017 12.5155 15.6325 12.375L17.4455 4.08751C17.4726 3.96297 17.4636 3.83274 17.4198 3.71364C17.3759 3.59454 17.2992 3.49205 17.1996 3.41941ZM14.8268 11.9088H3.18998L2.84698 10.3191H15.1887L14.8268 11.9088ZM15.3177 9.31952H2.69905L1.67793 4.83633L4.98056 6.81846C5.11343 6.89858 5.27016 6.92253 5.41913 6.8855C5.56809 6.84846 5.69818 6.75319 5.78315 6.61892L9.04413 1.36564L12.8201 6.61892C12.9137 6.74626 13.0495 6.83142 13.2003 6.85721C13.351 6.883 13.5054 6.84751 13.6324 6.7579L16.4191 4.70935L15.3177 9.31952Z" fill="#3D3D3D"/>
</svg>
