<svg width="9" height="10" viewBox="0 0 9 10" fill="currentColor" xmlns="http://www.w3.org/2000/svg">
<path fill-rule="evenodd" clip-rule="evenodd" d="M9 9.05254C8.99987 8.83038 8.81979 8.6499 8.5975 8.6499H0.402505C0.180214 8.6499 0 8.83038 0 9.05254V9.56473C0 9.78716 0.180214 9.96724 0.402505 9.96724H8.5975C8.81992 9.96724 9 9.78716 9 9.56473V9.05254Z" fill="currentColor"/>
<path fill-rule="evenodd" clip-rule="evenodd" d="M1.14188 3.55279L1.13963 3.55054C1.06395 3.48558 0.966563 3.44522 0.859123 3.44522C0.623733 3.44522 0.433198 3.63364 0.427773 3.8677H0.417188V7.73636H0.430816C0.451325 7.95587 0.634053 8.12867 0.859123 8.12867C0.860711 8.12867 0.862298 8.12828 0.863886 8.12815V8.12867H8.13637V8.11862C8.13809 8.11862 8.13954 8.11915 8.14126 8.11915C8.36289 8.11915 8.54364 7.95137 8.56851 7.73636H8.57341V7.68674C8.57341 7.68674 8.57341 7.68634 8.57341 7.68608V3.94802C8.57949 3.91904 8.58307 3.88901 8.58307 3.85818C8.58307 3.61961 8.38949 3.42603 8.15079 3.42603C8.04811 3.42603 7.9551 3.46335 7.88087 3.52302L7.87968 3.52183L7.86763 3.53387C7.85282 3.54671 7.83919 3.56047 7.82635 3.57515L6.91589 4.48562L4.81841 2.38815L4.81431 2.39225C4.73545 2.30849 4.62444 2.25557 4.50033 2.25557C4.37595 2.25557 4.26467 2.30876 4.18581 2.39278L4.18118 2.38815L2.07908 4.48999L1.18383 3.5946C1.17073 3.57978 1.15683 3.56589 1.14188 3.55279ZM7.53989 4.66345V4.67602H7.52732L7.53989 4.66345Z" fill="currentColor"/>
<path d="M0.841054 2.85662C1.28258 2.85662 1.64051 2.49869 1.64051 2.05717C1.64051 1.61564 1.28258 1.25771 0.841054 1.25771C0.399529 1.25771 0.0416016 1.61564 0.0416016 2.05717C0.0416016 2.49869 0.399529 2.85662 0.841054 2.85662Z" fill="currentColor"/>
<path d="M8.1184 2.85662C8.55992 2.85662 8.91785 2.49869 8.91785 2.05717C8.91785 1.61564 8.55992 1.25771 8.1184 1.25771C7.67687 1.25771 7.31895 1.61564 7.31895 2.05717C7.31895 2.49869 7.67687 2.85662 8.1184 2.85662Z" fill="currentColor"/>
<path d="M4.54594 1.79812C4.98746 1.79812 5.34539 1.4402 5.34539 0.998672C5.34539 0.557146 4.98746 0.199219 4.54594 0.199219C4.10441 0.199219 3.74648 0.557146 3.74648 0.998672C3.74648 1.4402 4.10441 1.79812 4.54594 1.79812Z" fill="currentColor"/>
</svg>
