<svg width="16" height="16" viewBox="0 0 16 16" fill="none" xmlns="http://www.w3.org/2000/svg">
<path fill-rule="evenodd" clip-rule="evenodd" d="M14 13.404C13.9998 13.1078 13.7597 12.8672 13.4633 12.8672H2.53667C2.24029 12.8672 2 13.1078 2 13.404V14.087C2 14.3835 2.24029 14.6236 2.53667 14.6236H13.4633C13.7599 14.6236 14 14.3835 14 14.087V13.404Z" fill="#f1c012"/>
<path fill-rule="evenodd" clip-rule="evenodd" d="M3.52241 6.07143L3.51941 6.06843L3.51906 6.06878C3.41815 5.98216 3.28865 5.928 3.1454 5.928C2.83155 5.928 2.5775 6.17922 2.57027 6.49131H2.55615V11.6495H2.57432C2.60167 11.9422 2.84531 12.1726 3.1454 12.1726C3.14752 12.1726 3.14963 12.1721 3.15175 12.1719V12.1726H12.8484V12.1592C12.8507 12.1592 12.8526 12.1599 12.8549 12.1599C13.1504 12.1599 13.3914 11.9362 13.4246 11.6495H13.4311V11.5842V11.5834C13.4311 11.5834 13.4311 11.5828 13.4311 11.5825V6.5984C13.4392 6.55977 13.444 6.51972 13.444 6.47861C13.444 6.16052 13.1859 5.90242 12.8676 5.90242C12.7307 5.90242 12.6067 5.95217 12.5077 6.03174L12.5061 6.03015L12.4901 6.0462C12.4703 6.06332 12.4522 6.08166 12.435 6.10125L11.2211 7.3152L8.42445 4.51857L8.41898 4.52404C8.31384 4.41237 8.16582 4.3418 8.00034 4.3418C7.8345 4.3418 7.68613 4.41272 7.58098 4.52475L7.57481 4.51857L4.772 7.32102L3.57834 6.12718C3.56087 6.10742 3.54235 6.0889 3.52241 6.07143ZM12.0531 7.55231V7.56907H12.0363L12.0531 7.55231Z" fill="#f1c012"/>
<path d="M3.1216 5.14359C3.7103 5.14359 4.18754 4.66636 4.18754 4.07766C4.18754 3.48896 3.7103 3.01172 3.1216 3.01172C2.5329 3.01172 2.05566 3.48896 2.05566 4.07766C2.05566 4.66636 2.5329 5.14359 3.1216 5.14359Z" fill="#f1c012"/>
<path d="M12.8247 5.14359C13.4134 5.14359 13.8907 4.66636 13.8907 4.07766C13.8907 3.48896 13.4134 3.01172 12.8247 3.01172C12.236 3.01172 11.7588 3.48896 11.7588 4.07766C11.7588 4.66636 12.236 5.14359 12.8247 5.14359Z" fill="#f1c012"/>
<path d="M8.06154 3.73148C8.65024 3.73148 9.12748 3.25425 9.12748 2.66555C9.12748 2.07685 8.65024 1.59961 8.06154 1.59961C7.47284 1.59961 6.99561 2.07685 6.99561 2.66555C6.99561 3.25425 7.47284 3.73148 8.06154 3.73148Z" fill="#f1c012"/>
</svg>
