<svg width="32" height="26" viewBox="0 0 32 26" fill="none" xmlns="http://www.w3.org/2000/svg">
<path d="M30.9996 2.08939H25.9996V1.14218C25.9996 0.711627 25.4996 0.367188 24.9996 0.367188H6.9999C6.49991 0.367188 5.99991 0.711627 5.99991 1.14218C5.99991 1.48662 5.89992 1.74495 5.89992 2.08939H0.999986C0.399994 2.08939 0 2.51994 0 2.95048V3.9838C0 8.63374 3.89994 12.5087 9.19987 13.1976C9.79986 14.0587 10.4999 14.8337 11.1998 15.6086H20.7997C21.5997 14.8337 22.2997 14.0587 22.7997 13.1976C28.0996 12.4226 31.9995 8.54763 31.9995 3.9838V2.95048C31.9995 2.51994 31.4995 2.08939 30.9996 2.08939ZM1.99997 3.9838V3.81158H5.89992C5.99991 6.39488 6.59991 8.80596 7.89989 11.1309C4.39994 10.0976 1.99997 7.25598 1.99997 3.9838ZM19.9997 7.94486L18.5997 9.1504L18.8997 10.8726C18.9997 11.1309 18.7997 11.3893 18.5997 11.5615C18.4997 11.6476 18.2997 11.7337 18.0997 11.7337C17.9997 11.7337 17.7997 11.7337 17.6997 11.6476L15.9998 10.8726L14.2998 11.6476C13.9998 11.8198 13.6998 11.7337 13.3998 11.5615C13.0998 11.3893 12.9998 11.1309 13.0998 10.8726L13.3998 9.1504L11.9998 7.94486C11.7998 7.77264 11.6998 7.4282 11.7998 7.16987C11.8998 6.91154 12.1998 6.73932 12.4998 6.65321L14.3998 6.39488L15.2998 4.8449C15.3998 4.58657 15.6998 4.41435 16.0998 4.41435C16.3998 4.41435 16.6998 4.58657 16.8998 4.8449L17.7997 6.39488L19.6997 6.65321C19.9997 6.73932 20.2997 6.91154 20.3997 7.16987C20.2997 7.4282 20.1997 7.77264 19.9997 7.94486ZM29.9996 3.9838C29.9996 7.25598 27.5996 10.0976 24.0997 11.1309C25.2996 8.89207 25.8996 6.48099 25.9996 3.81158H29.9996V3.9838ZM19.8997 16.1011H12.0998C12.0998 17.4788 11.2998 18.8566 9.79986 20.2344C9.49986 20.4927 9.69986 21.0093 10.1999 21.0093H21.9997C22.4997 21.0093 22.6997 20.4927 22.3997 20.2344C20.6997 18.7705 19.8997 17.3927 19.8997 16.1011ZM23.0997 21.674H8.89987C8.39988 21.674 7.99989 22.0184 7.99989 22.449V24.774C7.99989 25.2906 8.39988 25.6351 8.99987 25.6351H22.9997C23.5997 25.6351 23.9997 25.2906 23.9997 24.774V22.3629C23.9997 22.0184 23.5997 21.674 23.0997 21.674Z" fill="#f1c012"/>
</svg>
