<svg width="20" height="20" viewBox="0 0 20 20" fill="none" xmlns="http://www.w3.org/2000/svg">
<path fill-rule="evenodd" clip-rule="evenodd" d="M2 4.96237C2 4.62853 2.26531 4.35789 2.59259 4.35789H17.4074C17.7347 4.35789 18 4.62853 18 4.96237C18 5.29621 17.7347 5.56685 17.4074 5.56685H2.59259C2.26531 5.56685 2 5.29621 2 4.96237Z" fill="#B9BEC0"/>
<path fill-rule="evenodd" clip-rule="evenodd" d="M8.35414 2.20896C8.07473 2.20896 7.80677 2.32217 7.6092 2.52371C7.41164 2.72524 7.30064 2.99857 7.30064 3.28358V4.96269C7.30064 5.29653 7.03533 5.56716 6.70805 5.56716C6.38077 5.56716 6.11546 5.29653 6.11546 4.96269V3.28358C6.11546 2.67794 6.35132 2.0971 6.77115 1.66885C7.19099 1.24059 7.7604 1 8.35414 1H11.6463C12.2401 1 12.8095 1.24059 13.2293 1.66885C13.6491 2.0971 13.885 2.67794 13.885 3.28358V4.96269C13.885 5.29653 13.6197 5.56716 13.2924 5.56716C12.9651 5.56716 12.6998 5.29653 12.6998 4.96269V3.28358C12.6998 2.99857 12.5888 2.72524 12.3913 2.52371C12.1937 2.32217 11.9257 2.20896 11.6463 2.20896H8.35414ZM4.23891 4.35821C4.56619 4.35821 4.83151 4.62884 4.83151 4.96269V16.7164C4.83151 17.0014 4.9425 17.2748 5.14007 17.4763C5.33764 17.6778 5.6056 17.791 5.885 17.791H14.1155C14.3949 17.791 14.6628 17.6778 14.8604 17.4763C15.058 17.2748 15.169 17.0014 15.169 16.7164V4.96269C15.169 4.62884 15.4343 4.35821 15.7615 4.35821C16.0888 4.35821 16.3541 4.62884 16.3541 4.96269V16.7164C16.3541 17.3221 16.1183 17.9029 15.6984 18.3312C15.2786 18.7594 14.7092 19 14.1155 19H5.885C5.29127 19 4.72185 18.7594 4.30202 18.3312C3.88218 17.9029 3.64632 17.3221 3.64632 16.7164V4.96269C3.64632 4.62884 3.91163 4.35821 4.23891 4.35821Z" fill="#B9BEC0"/>
<path fill-rule="evenodd" clip-rule="evenodd" d="M8.35379 8.55593C8.68107 8.55593 8.94638 8.82656 8.94638 9.1604V14.1977C8.94638 14.5316 8.68107 14.8022 8.35379 14.8022C8.02651 14.8022 7.7612 14.5316 7.7612 14.1977V9.1604C7.7612 8.82656 8.02651 8.55593 8.35379 8.55593Z" fill="#B9BEC0"/>
<path fill-rule="evenodd" clip-rule="evenodd" d="M11.6458 8.55593C11.9731 8.55593 12.2384 8.82656 12.2384 9.1604V14.1977C12.2384 14.5316 11.9731 14.8022 11.6458 14.8022C11.3185 14.8022 11.0532 14.5316 11.0532 14.1977V9.1604C11.0532 8.82656 11.3185 8.55593 11.6458 8.55593Z" fill="#B9BEC0"/>
</svg>
