<svg width="24" height="24" viewBox="0 0 24 24" fill="none" xmlns="http://www.w3.org/2000/svg">
<rect width="24" height="24" rx="4" fill="#A6A6A6"/>
<path fill-rule="evenodd" clip-rule="evenodd" d="M4.5 7.24224C4.5 6.92694 4.74873 6.67134 5.05556 6.67134H18.9444C19.2513 6.67134 19.5 6.92694 19.5 7.24224C19.5 7.55754 19.2513 7.81313 18.9444 7.81313H5.05556C4.74873 7.81313 4.5 7.55754 4.5 7.24224Z" fill="white"/>
<path fill-rule="evenodd" clip-rule="evenodd" d="M10.457 4.64179C10.1951 4.64179 9.94385 4.74872 9.75863 4.93906C9.57341 5.12939 9.46935 5.38754 9.46935 5.65672V7.24254C9.46935 7.55783 9.22062 7.81343 8.9138 7.81343C8.60697 7.81343 8.35824 7.55783 8.35824 7.24254V5.65672C8.35824 5.08472 8.57936 4.53615 8.97296 4.13169C9.36655 3.72722 9.90038 3.5 10.457 3.5H13.5434C14.1001 3.5 14.6339 3.72722 15.0275 4.13169C15.4211 4.53615 15.6422 5.08472 15.6422 5.65672V7.24254C15.6422 7.55783 15.3935 7.81343 15.0866 7.81343C14.7798 7.81343 14.5311 7.55783 14.5311 7.24254V5.65672C14.5311 5.38754 14.427 5.12939 14.2418 4.93906C14.0566 4.74872 13.8054 4.64179 13.5434 4.64179H10.457ZM6.59898 6.67164C6.90581 6.67164 7.15454 6.92724 7.15454 7.24254V18.3433C7.15454 18.6125 7.25859 18.8706 7.44381 19.0609C7.62903 19.2513 7.88025 19.3582 8.14219 19.3582H15.8582C16.1202 19.3582 16.3714 19.2513 16.5566 19.0609C16.7418 18.8706 16.8459 18.6125 16.8459 18.3433V7.24254C16.8459 6.92724 17.0946 6.67164 17.4015 6.67164C17.7083 6.67164 17.957 6.92724 17.957 7.24254V18.3433C17.957 18.9153 17.7359 19.4638 17.3423 19.8683C16.9487 20.2728 16.4149 20.5 15.8582 20.5H8.14219C7.58556 20.5 7.05173 20.2728 6.65814 19.8683C6.26454 19.4638 6.04343 18.9153 6.04343 18.3433V7.24254C6.04343 6.92724 6.29216 6.67164 6.59898 6.67164Z" fill="white"/>
<path fill-rule="evenodd" clip-rule="evenodd" d="M10.4567 10.6362C10.7635 10.6362 11.0122 10.8918 11.0122 11.207V15.9645C11.0122 16.2798 10.7635 16.5354 10.4567 16.5354C10.1499 16.5354 9.90112 16.2798 9.90112 15.9645V11.207C9.90112 10.8918 10.1499 10.6362 10.4567 10.6362Z" fill="white"/>
<path fill-rule="evenodd" clip-rule="evenodd" d="M13.543 10.6362C13.8498 10.6362 14.0985 10.8918 14.0985 11.207V15.9645C14.0985 16.2798 13.8498 16.5354 13.543 16.5354C13.2361 16.5354 12.9874 16.2798 12.9874 15.9645V11.207C12.9874 10.8918 13.2361 10.6362 13.543 10.6362Z" fill="white"/>
</svg>
