<svg viewBox="0 0 16 16" fill="none" xmlns="http://www.w3.org/2000/svg">
  <path fill-rule="evenodd" clip-rule="evenodd" d="M6.40835 1.95069C6.44264 1.9164 6.48915 1.89713 6.53765 1.89713H9.46337C9.51185 1.89713 9.55841 1.9164 9.59265 1.95069C9.62697 1.98498 9.64625 2.03149 9.64625 2.07999V3.72568H6.35479V2.07999C6.35479 2.03149 6.37405 1.98498 6.40835 1.95069ZM5.80169 4.82283C5.8032 4.82283 5.80471 4.82283 5.80622 4.82283C5.80773 4.82283 5.80924 4.82283 5.81075 4.82283H10.1902C10.1918 4.82283 10.1933 4.82283 10.1948 4.82283C10.1963 4.82283 10.1978 4.82283 10.1993 4.82283H12.5237L11.8418 13.0059C11.8405 13.021 11.8398 13.0362 11.8398 13.0514C11.8398 13.2939 11.7435 13.5265 11.5721 13.6979C11.4006 13.8694 11.1681 13.9657 10.9256 13.9657H5.07414C4.83166 13.9657 4.59911 13.8694 4.42765 13.6979C4.25618 13.5265 4.15985 13.2939 4.15985 13.0514C4.15985 13.0362 4.15922 13.021 4.15797 13.0059L3.47605 4.82283H5.80169ZM5.25765 3.72568V2.07999C5.25765 1.74051 5.3925 1.41494 5.63255 1.17489C5.8726 0.934844 6.19817 0.799988 6.53765 0.799988H9.46337C9.80281 0.799988 10.1284 0.934844 10.3685 1.17489C10.6085 1.41494 10.7434 1.74051 10.7434 2.07999V3.72568H13.1192H13.8514C14.1544 3.72568 14.4 3.97128 14.4 4.27425C14.4 4.57722 14.1544 4.82283 13.8514 4.82283H13.6246L12.9369 13.0761C12.9304 13.6006 12.7193 14.1023 12.3478 14.4737C11.9706 14.8509 11.459 15.0629 10.9256 15.0629H5.07414C4.54068 15.0629 4.02906 14.8509 3.65185 14.4737C3.28044 14.1023 3.06928 13.6006 3.06286 13.0761L2.37509 4.82283H2.14857C1.84561 4.82283 1.60001 4.57722 1.60001 4.27425C1.60001 3.97128 1.84561 3.72568 2.14857 3.72568H2.88047H5.25765ZM6.53747 6.65156C6.84044 6.65156 7.08604 6.89716 7.08604 7.20012V11.5887C7.08604 11.8917 6.84044 12.1373 6.53747 12.1373C6.2345 12.1373 5.9889 11.8917 5.9889 11.5887V7.20012C5.9889 6.89716 6.2345 6.65156 6.53747 6.65156ZM10.0114 7.20012C10.0114 6.89716 9.76577 6.65156 9.46281 6.65156C9.15985 6.65156 8.91425 6.89716 8.91425 7.20012V11.5887C8.91425 11.8917 9.15985 12.1373 9.46281 12.1373C9.76577 12.1373 10.0114 11.8917 10.0114 11.5887V7.20012Z" fill="white"/>
</svg>
