<svg width="8" height="8" viewBox="0 0 8 8" fill="none" xmlns="http://www.w3.org/2000/svg">
<path d="M7.4403 1.33021C7.6531 1.11741 7.6531 0.772396 7.4403 0.559599C7.22751 0.346802 6.8825 0.346802 6.6697 0.559599L3.9999 3.2294L1.33011 0.5596C1.11731 0.346803 0.772297 0.346802 0.5595 0.559599C0.346703 0.772396 0.346703 1.11741 0.5595 1.33021L3.2293 4L0.5595 6.6698C0.346703 6.88259 0.346703 7.22761 0.5595 7.4404C0.772297 7.6532 1.11731 7.6532 1.33011 7.4404L3.9999 4.77061L6.6697 7.4404C6.88249 7.6532 7.22751 7.6532 7.4403 7.4404C7.6531 7.22761 7.6531 6.88259 7.4403 6.6698L4.77051 4L7.4403 1.33021Z" fill="#646464"/>
</svg>
