<svg width="20" height="20" viewBox="0 0 20 20" fill="none" xmlns="http://www.w3.org/2000/svg">
<path fill-rule="evenodd" clip-rule="evenodd" d="M2.37109 5.19583C2.37109 4.87745 2.62412 4.61935 2.93624 4.61935H17.0648C17.377 4.61935 17.63 4.87745 17.63 5.19583C17.63 5.51421 17.377 5.77231 17.0648 5.77231H2.93624C2.62412 5.77231 2.37109 5.51421 2.37109 5.19583Z" fill="#646464"/>
<path fill-rule="evenodd" clip-rule="evenodd" d="M8.43092 2.56995C8.16445 2.56995 7.9089 2.67792 7.72049 2.87012C7.53207 3.06232 7.42622 3.32299 7.42622 3.5948V5.19613C7.42622 5.51451 7.17319 5.77261 6.86107 5.77261C6.54895 5.77261 6.29593 5.51451 6.29593 5.19613V3.5948C6.29593 3.01721 6.52086 2.46328 6.92125 2.05486C7.32164 1.64644 7.86468 1.41699 8.43092 1.41699H11.5706C12.1368 1.41699 12.6799 1.64644 13.0803 2.05486C13.4807 2.46328 13.7056 3.01721 13.7056 3.5948V5.19613C13.7056 5.51451 13.4526 5.77261 13.1405 5.77261C12.8283 5.77261 12.5753 5.51451 12.5753 5.19613V3.5948C12.5753 3.32299 12.4695 3.06232 12.281 2.87012C12.0926 2.67792 11.8371 2.56995 11.5706 2.56995H8.43092ZM4.5063 4.61965C4.81842 4.61965 5.07145 4.87775 5.07145 5.19613V16.4054C5.07145 16.6772 5.1773 16.9379 5.36572 17.1301C5.55414 17.3223 5.80969 17.4303 6.07615 17.4303H13.9254C14.1918 17.4303 14.4474 17.3223 14.6358 17.1301C14.8242 16.9379 14.9301 16.6772 14.9301 16.4054V5.19613C14.9301 4.87775 15.1831 4.61965 15.4952 4.61965C15.8073 4.61965 16.0604 4.87775 16.0604 5.19613V16.4054C16.0604 16.983 15.8354 17.537 15.435 17.9454C15.0347 18.3538 14.4916 18.5833 13.9254 18.5833H6.07615C5.50991 18.5833 4.96687 18.3538 4.56648 17.9454C4.16609 17.537 3.94116 16.983 3.94116 16.4054V5.19613C3.94116 4.87775 4.19418 4.61965 4.5063 4.61965Z" fill="#646464"/>
<path fill-rule="evenodd" clip-rule="evenodd" d="M8.43058 8.62294C8.7427 8.62294 8.99573 8.88103 8.99573 9.19941V14.0034C8.99573 14.3218 8.7427 14.5799 8.43058 14.5799C8.11846 14.5799 7.86544 14.3218 7.86544 14.0034V9.19941C7.86544 8.88103 8.11846 8.62294 8.43058 8.62294Z" fill="#646464"/>
<path fill-rule="evenodd" clip-rule="evenodd" d="M11.5701 8.62294C11.8822 8.62294 12.1353 8.88103 12.1353 9.19941V14.0034C12.1353 14.3218 11.8822 14.5799 11.5701 14.5799C11.258 14.5799 11.005 14.3218 11.005 14.0034V9.19941C11.005 8.88103 11.258 8.62294 11.5701 8.62294Z" fill="#646464"/>
</svg>
