<?xml version="1.0" encoding="UTF-8"?>
<svg width="30px" height="30px" viewBox="0 0 30 30" version="1.1" xmlns="http://www.w3.org/2000/svg" xmlns:xlink="http://www.w3.org/1999/xlink">
    <title>pdf icon</title>
    <g id="Files" stroke="none" stroke-width="1" fill="none" fill-rule="evenodd">
        <g id="404-file" transform="translate(-785.000000, -632.000000)" fill-rule="nonzero">
            <g id="Group-3" transform="translate(776.000000, 622.000000)">
                <g id="pdf-icon" transform="translate(9.000000, 10.000000)">
                    <circle id="Oval" fill="#767477" cx="15" cy="15" r="15"></circle>
                    <path d="M15.5454857,8 L15.5454857,11.6060583 C15.5454857,12.056125 15.7293429,12.4877583 16.0566857,12.806 C16.3840286,13.1242417 16.8279429,13.3030333 17.2908857,13.3030333 L17.2908857,13.3030333 L21,13.3030333 L21,21.3333333 C21,21.7753333 20.8194,22.19925 20.4978857,22.5118333 C20.1763714,22.8244167 19.7403429,23 19.2857143,23 L19.2857143,23 L10.7142857,23 C10.2596314,23 9.82359429,22.8244167 9.50210571,22.5118333 C9.18060857,22.19925 9,21.7753333 9,21.3333333 L9,21.3333333 L9,9.66666667 C9,9.22464167 9.18060857,8.80071667 9.50210571,8.48815833 C9.82359429,8.17559167 10.2596314,8 10.7142857,8 L10.7142857,8 L15.5454857,8 Z M17.4868542,14.8180195 L15.012,17.2930195 L12.5371068,14.8180195 L11.83,15.5251263 L14.305,18.0000195 L11.83,20.4748737 L12.5371068,21.1819805 L15.012,18.7070195 L17.4868542,21.1819805 L18.193961,20.4748737 L15.719,18.0000195 L18.193961,15.5251263 L17.4868542,14.8180195 Z M17.0714216,8 L21,11.9285707 L21,12 L17.5999725,12 C17.4408651,12 17.2882791,11.9367893 17.1757646,11.8242672 C17.0631715,11.7117451 17,11.5591279 17,11.3999973 L17,11.3999973 L17,8 L17.0714216,8 Z" id="Combined-Shape" fill="#FFFFFF"></path>
                </g>
            </g>
        </g>
    </g>
</svg>