<svg width="26" height="23" viewBox="0 0 26 23" fill="none" xmlns="http://www.w3.org/2000/svg">
<path d="M19.6122 6.57678L15.1032 20.8552L26 6.57678H19.6122Z" fill="url(#paint0_linear_94437_38750)"/>
<path d="M3.32959 1.118L0.0939382 5.00072H5.59454L3.32959 1.118Z" fill="url(#paint1_linear_94437_38750)"/>
<path d="M25.9061 5.00072L22.6704 1.118L20.4055 5.00072H25.9061Z" fill="url(#paint2_linear_94437_38750)"/>
<path d="M0 6.57678L10.8968 20.8552L6.3878 6.57678H0Z" fill="url(#paint3_linear_94437_38750)"/>
<path d="M21.1883 0.543945H14.8944L18.8711 4.51017L21.1883 0.543945Z" fill="url(#paint4_linear_94437_38750)"/>
<path d="M11.1056 0.543945H4.81172L7.12886 4.51017L11.1056 0.543945Z" fill="url(#paint5_linear_94437_38750)"/>
<path d="M8.03693 6.57678L12.9948 22.2955L17.9631 6.57678H8.03693Z" fill="url(#paint6_linear_94437_38750)"/>
<path d="M17.1385 5.00072L12.9948 0.867505L8.8615 5.00072H17.1385Z" fill="url(#paint7_linear_94437_38750)"/>
<defs>
<linearGradient id="paint0_linear_94437_38750" x1="13" y1="0.543945" x2="13" y2="22.2955" gradientUnits="userSpaceOnUse">
<stop stop-color="#38DBD0"/>
<stop offset="1" stop-color="#09988E"/>
</linearGradient>
<linearGradient id="paint1_linear_94437_38750" x1="13" y1="0.543945" x2="13" y2="22.2955" gradientUnits="userSpaceOnUse">
<stop stop-color="#38DBD0"/>
<stop offset="1" stop-color="#09988E"/>
</linearGradient>
<linearGradient id="paint2_linear_94437_38750" x1="13" y1="0.543945" x2="13" y2="22.2955" gradientUnits="userSpaceOnUse">
<stop stop-color="#38DBD0"/>
<stop offset="1" stop-color="#09988E"/>
</linearGradient>
<linearGradient id="paint3_linear_94437_38750" x1="13" y1="0.543945" x2="13" y2="22.2955" gradientUnits="userSpaceOnUse">
<stop stop-color="#38DBD0"/>
<stop offset="1" stop-color="#09988E"/>
</linearGradient>
<linearGradient id="paint4_linear_94437_38750" x1="13" y1="0.543945" x2="13" y2="22.2955" gradientUnits="userSpaceOnUse">
<stop stop-color="#38DBD0"/>
<stop offset="1" stop-color="#09988E"/>
</linearGradient>
<linearGradient id="paint5_linear_94437_38750" x1="13" y1="0.543945" x2="13" y2="22.2955" gradientUnits="userSpaceOnUse">
<stop stop-color="#38DBD0"/>
<stop offset="1" stop-color="#09988E"/>
</linearGradient>
<linearGradient id="paint6_linear_94437_38750" x1="13" y1="0.543945" x2="13" y2="22.2955" gradientUnits="userSpaceOnUse">
<stop stop-color="#38DBD0"/>
<stop offset="1" stop-color="#09988E"/>
</linearGradient>
<linearGradient id="paint7_linear_94437_38750" x1="13" y1="0.543945" x2="13" y2="22.2955" gradientUnits="userSpaceOnUse">
<stop stop-color="#38DBD0"/>
<stop offset="1" stop-color="#09988E"/>
</linearGradient>
</defs>
</svg>
