<svg width="32" height="32" viewBox="0 0 32 32" fill="none" xmlns="http://www.w3.org/2000/svg">
<g clip-path="url(#clip0_16837_1816)">
<path d="M0.5 16C0.5 7.43959 7.43959 0.5 16 0.5C24.5604 0.5 31.5 7.43959 31.5 16C31.5 24.5604 24.5604 31.5 16 31.5C7.43959 31.5 0.5 24.5604 0.5 16Z" stroke="#A6A6A6"/>
<path d="M17.0585 12H11.412C10.6319 12 10 12.6328 10 13.412V19.0585C10 19.8387 10.6328 20.4706 11.412 20.4706H17.0585C17.8387 20.4706 18.4706 19.8378 18.4706 19.0585V18.989L20.9121 20.374C21.3886 20.644 22 20.3171 22 19.7728V13.4032C22 12.8597 21.3886 12.5319 20.9121 12.8028L18.4706 14.1878V13.412C18.4706 12.6319 17.8378 12 17.0585 12Z" fill="#A6A6A6"/>
</g>
<defs>
<clipPath id="clip0_16837_1816">
<rect width="32" height="32" fill="white"/>
</clipPath>
</defs>
</svg>
