<svg width="16" height="16" viewBox="0 0 16 16" fill="none" xmlns="http://www.w3.org/2000/svg">
<path fill-rule="evenodd" clip-rule="evenodd" d="M2.93162 1.66369C3.26694 1.32838 3.72172 1.14 4.19593 1.14H9.26793C9.40584 1.14 9.5381 1.19478 9.63562 1.2923L13.4396 5.0963C13.5371 5.19382 13.5919 5.32609 13.5919 5.464V13.072C13.5919 13.5462 13.4035 14.001 13.0682 14.3363C12.7329 14.6716 12.2781 14.86 11.8039 14.86H4.19593C3.72172 14.86 3.26694 14.6716 2.93162 14.3363C2.59631 14.001 2.40793 13.5462 2.40793 13.072V2.928C2.40793 2.45379 2.59631 1.99901 2.93162 1.66369ZM4.19593 2.18C3.99755 2.18 3.80729 2.25881 3.66701 2.39908C3.52674 2.53936 3.44793 2.72962 3.44793 2.928V13.072C3.44793 13.2704 3.52674 13.4606 3.66701 13.6009C3.80729 13.7412 3.99755 13.82 4.19593 13.82H11.8039C12.0023 13.82 12.1926 13.7412 12.3328 13.6009C12.4731 13.4606 12.5519 13.2704 12.5519 13.072V5.67939L9.05254 2.18H4.19593Z" fill="#999999"/>
<path fill-rule="evenodd" clip-rule="evenodd" d="M9.26793 1.14C9.55511 1.14 9.78818 1.37281 9.78818 1.66V4.944H13.0722C13.3594 4.944 13.5919 5.17681 13.5919 5.464C13.5919 5.75119 13.3594 5.984 13.0722 5.984H9.26818C8.98099 5.984 8.74818 5.75119 8.74818 5.464V1.66C8.74818 1.37281 8.98074 1.14 9.26793 1.14Z" fill="#999999"/>
</svg>
