<svg width="20" height="20" viewBox="0 0 20 20" fill="none" xmlns="http://www.w3.org/2000/svg">
<path d="M14.1667 18.125H5.83334C3.81834 18.125 2.70834 17.015 2.70834 15V5C2.70834 2.985 3.81834 1.875 5.83334 1.875H14.1667C16.1817 1.875 17.2917 2.985 17.2917 5V15C17.2917 17.015 16.1817 18.125 14.1667 18.125ZM5.83334 3.125C4.51918 3.125 3.95834 3.68583 3.95834 5V15C3.95834 16.3142 4.51918 16.875 5.83334 16.875H14.1667C15.4808 16.875 16.0417 16.3142 16.0417 15V5C16.0417 3.68583 15.4808 3.125 14.1667 3.125H5.83334ZM13.9583 10C13.9583 9.655 13.6783 9.375 13.3333 9.375H6.66668C6.32168 9.375 6.04168 9.655 6.04168 10C6.04168 10.345 6.32168 10.625 6.66668 10.625H13.3333C13.6783 10.625 13.9583 10.345 13.9583 10ZM11.4583 13.3333C11.4583 12.9883 11.1783 12.7083 10.8333 12.7083H6.66668C6.32168 12.7083 6.04168 12.9883 6.04168 13.3333C6.04168 13.6783 6.32168 13.9583 6.66668 13.9583H10.8333C11.1783 13.9583 11.4583 13.6783 11.4583 13.3333ZM13.9583 6.66667C13.9583 6.32167 13.6783 6.04167 13.3333 6.04167H6.66668C6.32168 6.04167 6.04168 6.32167 6.04168 6.66667C6.04168 7.01167 6.32168 7.29167 6.66668 7.29167H13.3333C13.6783 7.29167 13.9583 7.01167 13.9583 6.66667Z" fill="#61646C"/>
</svg>
