<svg width="20" height="20" viewBox="0 0 20 20" fill="none" xmlns="http://www.w3.org/2000/svg">
  <path d="M10.21 14.6061C9.57534 14.6061 9.00134 14.5268 8.48801 14.3681C7.98401 14.2001 7.54068 13.9761 7.15801 13.6961C6.78468 13.4161 6.47668 13.0941 6.23401 12.7301L7.22801 11.7221C7.42401 12.0488 7.67134 12.3381 7.97001 12.5901C8.26868 12.8328 8.61401 13.0241 9.00601 13.1641C9.39801 13.3041 9.82734 13.3741 10.294 13.3741C10.9287 13.3741 11.428 13.2668 11.792 13.0521C12.1653 12.8281 12.352 12.4968 12.352 12.0581C12.352 11.8061 12.2587 11.5821 12.072 11.3861C11.8853 11.1808 11.5493 11.0221 11.064 10.9101L9.02001 10.4341C8.47868 10.3128 8.03068 10.1448 7.67601 9.93013C7.33068 9.71547 7.07401 9.45413 6.90601 9.14613C6.73801 8.8288 6.65401 8.48347 6.65401 8.11013C6.65401 7.5968 6.78934 7.1348 7.06001 6.72413C7.34001 6.31347 7.74134 5.9868 8.26401 5.74413C8.78668 5.49213 9.41668 5.36613 10.154 5.36613C10.9473 5.36613 11.6427 5.51547 12.24 5.81413C12.8373 6.1128 13.332 6.5608 13.724 7.15813L12.772 8.08213C12.4267 7.55013 12.0347 7.16747 11.596 6.93413C11.1573 6.7008 10.6347 6.58413 10.028 6.58413C9.58001 6.58413 9.21134 6.6448 8.92201 6.76613C8.64201 6.87813 8.43201 7.0368 8.29201 7.24213C8.15201 7.43813 8.08201 7.65747 8.08201 7.90013C8.08201 8.09613 8.11934 8.27347 8.19401 8.43213C8.27801 8.5908 8.42734 8.7308 8.64201 8.85213C8.85668 8.97347 9.16001 9.07613 9.55201 9.16013L11.372 9.56613C12.24 9.76213 12.856 10.0515 13.22 10.4341C13.584 10.8168 13.766 11.3068 13.766 11.9041C13.766 12.4548 13.6167 12.9355 13.318 13.3461C13.0193 13.7475 12.604 14.0601 12.072 14.2841C11.54 14.4988 10.9193 14.6061 10.21 14.6061ZM9.62201 15.9641V4.03613H10.742V15.9641H9.62201Z" fill="#999999"/>
</svg>
