<svg width="16" height="8" viewBox="0 0 16 8" fill="none" xmlns="http://www.w3.org/2000/svg">
<path fill-rule="evenodd" clip-rule="evenodd" d="M15.4715 0.195262C15.7318 0.455612 15.7318 0.877722 15.4715 1.13807L8.80477 7.8047C8.54442 8.0651 8.12231 8.0651 7.86197 7.8047L4.52863 4.4714C4.26828 4.21106 4.26828 3.78894 4.52863 3.5286C4.78898 3.26825 5.21109 3.26825 5.47144 3.5286L8.33337 6.3905L14.5287 0.195262C14.789 -0.0650875 15.2111 -0.0650875 15.4715 0.195262Z" fill="#999999"/>
<path fill-rule="evenodd" clip-rule="evenodd" d="M11.1381 0.195262C11.3985 0.455612 11.3985 0.877722 11.1381 1.13807L8.55602 3.58709C8.29567 3.84744 7.87356 3.84744 7.61321 3.58709C7.35287 3.32675 7.35287 2.90463 7.61321 2.64429L10.1953 0.195262C10.4557 -0.0650875 10.8778 -0.0650875 11.1381 0.195262ZM0.69453 3.55896C0.954881 3.29861 1.37699 3.29861 1.63734 3.55896L4.85799 6.765C5.11834 7.0254 5.11834 7.4475 4.85799 7.7078C4.59764 7.9682 4.17553 7.9682 3.91518 7.7078L0.69453 4.50176C0.43418 4.24142 0.43418 3.8193 0.69453 3.55896Z" fill="#999999"/>
</svg>
