<svg width="24" height="24" viewBox="0 0 24 24" fill="none" xmlns="http://www.w3.org/2000/svg">
<rect width="24" height="24" rx="12" fill="#F2F5F7"/>
<path fill-rule="evenodd" clip-rule="evenodd" d="M12 6.33008C12.232 6.33008 12.42 6.51812 12.42 6.75008V12.7361L14.6197 10.5364C14.7837 10.3724 15.0496 10.3724 15.2137 10.5364C15.3777 10.7004 15.3777 10.9664 15.2137 11.1304L12.297 14.0471C12.133 14.2111 11.8671 14.2111 11.703 14.0471L8.78637 11.1304C8.62235 10.9664 8.62235 10.7004 8.78637 10.5364C8.95039 10.3724 9.21631 10.3724 9.38034 10.5364L11.58 12.7361V6.75008C11.58 6.51812 11.7681 6.33008 12 6.33008ZM6.75002 13.3301C6.98198 13.3301 7.17002 13.5181 7.17002 13.7501V16.0834C7.17002 16.2814 7.24868 16.4714 7.38871 16.6114C7.52874 16.7514 7.71866 16.8301 7.91668 16.8301H16.0834C16.2814 16.8301 16.4713 16.7514 16.6113 16.6114C16.7514 16.4714 16.83 16.2814 16.83 16.0834V13.7501C16.83 13.5181 17.0181 13.3301 17.25 13.3301C17.482 13.3301 17.67 13.5181 17.67 13.7501V16.0834C17.67 16.5042 17.5029 16.9078 17.2053 17.2054C16.9077 17.5029 16.5042 17.6701 16.0834 17.6701H7.91668C7.49587 17.6701 7.0923 17.5029 6.79474 17.2054C6.49718 16.9078 6.33002 16.5042 6.33002 16.0834V13.7501C6.33002 13.5181 6.51806 13.3301 6.75002 13.3301Z" fill="#646464"/>
</svg>
