<svg width="198" height="56" viewBox="0 0 198 56" fill="none" xmlns="http://www.w3.org/2000/svg">
<rect width="198" height="56" rx="8" fill="#202020"/>
<path d="M43.0894 28.966C43.1222 26.4112 44.4889 23.9937 46.6571 22.6555C45.2893 20.6944 42.9982 19.451 40.6147 19.3761C38.0724 19.1082 35.6077 20.9033 34.3122 20.9033C32.9916 20.9033 30.997 19.4027 28.8491 19.4471C26.0494 19.5379 23.4394 21.1358 22.0773 23.593C19.1493 28.6822 21.3333 36.1615 24.1381 40.2752C25.5414 42.2896 27.1814 44.5396 29.3274 44.4599C31.4273 44.3724 32.2116 43.1156 34.7464 43.1156C37.2577 43.1156 37.9935 44.4599 40.183 44.4091C42.4364 44.3724 43.8561 42.3858 45.2101 40.3524C46.2184 38.9171 46.9943 37.3308 47.509 35.6522C44.8609 34.5278 43.0925 31.8525 43.0894 28.966Z" fill="white"/>
<path d="M38.9538 16.6707C40.1824 15.1901 40.7877 13.2869 40.6411 11.3655C38.764 11.5634 37.0302 12.464 35.7849 13.8878C34.5673 15.279 33.9336 17.1487 34.0534 18.9967C35.9312 19.0161 37.7771 18.1399 38.9538 16.6707Z" fill="white"/>
<path d="M64.494 14.26C65.9407 14.26 67.0747 14.6613 67.896 15.464C68.7267 16.2573 69.142 17.396 69.142 18.88C69.142 20.364 68.7267 21.5073 67.896 22.31C67.0747 23.1033 65.9407 23.5 64.494 23.5H61.512V14.26H64.494ZM64.606 22.45C65.6607 22.45 66.482 22.1373 67.07 21.512C67.6673 20.8773 67.966 20 67.966 18.88C67.966 17.76 67.6673 16.8873 67.07 16.262C66.482 15.6273 65.6607 15.31 64.606 15.31H62.632V22.45H64.606ZM74.2898 16.36C74.9525 16.36 75.5358 16.5047 76.0398 16.794C76.5532 17.0833 76.9545 17.5033 77.2438 18.054C77.5332 18.5953 77.6778 19.244 77.6778 20C77.6778 20.756 77.5332 21.4093 77.2438 21.96C76.9545 22.5013 76.5532 22.9167 76.0398 23.206C75.5358 23.4953 74.9525 23.64 74.2898 23.64C73.6365 23.64 73.0532 23.4953 72.5398 23.206C72.0265 22.9167 71.6252 22.5013 71.3358 21.96C71.0465 21.4093 70.9018 20.756 70.9018 20C70.9018 19.244 71.0465 18.5953 71.3358 18.054C71.6252 17.5033 72.0265 17.0833 72.5398 16.794C73.0532 16.5047 73.6365 16.36 74.2898 16.36ZM74.2898 17.326C73.8138 17.326 73.4078 17.4333 73.0718 17.648C72.7358 17.8627 72.4745 18.1707 72.2878 18.572C72.1105 18.964 72.0218 19.44 72.0218 20C72.0218 20.5507 72.1105 21.0267 72.2878 21.428C72.4745 21.8293 72.7358 22.1373 73.0718 22.352C73.4078 22.5667 73.8138 22.674 74.2898 22.674C74.7658 22.674 75.1718 22.5667 75.5078 22.352C75.8438 22.1373 76.1005 21.8293 76.2778 21.428C76.4645 21.0267 76.5578 20.5507 76.5578 20C76.5578 19.44 76.4645 18.964 76.2778 18.572C76.1005 18.1707 75.8438 17.8627 75.5078 17.648C75.1718 17.4333 74.7658 17.326 74.2898 17.326ZM88.3456 16.5H89.5916L87.1556 23.5H86.0356L84.0616 17.928L82.1996 23.5H81.0796L78.6436 16.5H79.8896L81.6536 22.198L83.5576 16.5H84.6776L86.5816 22.198L88.3456 16.5ZM91.2708 23.5V16.5H92.2508L92.3488 18.068L92.1668 17.914C92.3161 17.5407 92.5168 17.242 92.7688 17.018C93.0208 16.7847 93.3101 16.6167 93.6368 16.514C93.9728 16.4113 94.3181 16.36 94.6728 16.36C95.1768 16.36 95.6341 16.458 96.0448 16.654C96.4554 16.8407 96.7821 17.13 97.0248 17.522C97.2768 17.914 97.4028 18.4133 97.4028 19.02V23.5H96.2828V19.412C96.2828 18.6373 96.1148 18.1007 95.7788 17.802C95.4521 17.494 95.0461 17.34 94.5608 17.34C94.2248 17.34 93.8888 17.4193 93.5528 17.578C93.2168 17.7367 92.9368 17.9933 92.7128 18.348C92.4981 18.7027 92.3908 19.1787 92.3908 19.776V23.5H91.2708ZM101.003 13.28V21.722C101.003 22.0767 101.068 22.324 101.199 22.464C101.329 22.5947 101.539 22.66 101.829 22.66C102.015 22.66 102.169 22.646 102.291 22.618C102.412 22.59 102.575 22.5387 102.781 22.464L102.599 23.444C102.449 23.5093 102.286 23.556 102.109 23.584C101.931 23.6213 101.749 23.64 101.563 23.64C100.993 23.64 100.569 23.486 100.289 23.178C100.018 22.87 99.8827 22.3987 99.8827 21.764V13.28H101.003ZM107.116 16.36C107.779 16.36 108.362 16.5047 108.866 16.794C109.379 17.0833 109.781 17.5033 110.07 18.054C110.359 18.5953 110.504 19.244 110.504 20C110.504 20.756 110.359 21.4093 110.07 21.96C109.781 22.5013 109.379 22.9167 108.866 23.206C108.362 23.4953 107.779 23.64 107.116 23.64C106.463 23.64 105.879 23.4953 105.366 23.206C104.853 22.9167 104.451 22.5013 104.162 21.96C103.873 21.4093 103.728 20.756 103.728 20C103.728 19.244 103.873 18.5953 104.162 18.054C104.451 17.5033 104.853 17.0833 105.366 16.794C105.879 16.5047 106.463 16.36 107.116 16.36ZM107.116 17.326C106.64 17.326 106.234 17.4333 105.898 17.648C105.562 17.8627 105.301 18.1707 105.114 18.572C104.937 18.964 104.848 19.44 104.848 20C104.848 20.5507 104.937 21.0267 105.114 21.428C105.301 21.8293 105.562 22.1373 105.898 22.352C106.234 22.5667 106.64 22.674 107.116 22.674C107.592 22.674 107.998 22.5667 108.334 22.352C108.67 22.1373 108.927 21.8293 109.104 21.428C109.291 21.0267 109.384 20.5507 109.384 20C109.384 19.44 109.291 18.964 109.104 18.572C108.927 18.1707 108.67 17.8627 108.334 17.648C107.998 17.4333 107.592 17.326 107.116 17.326ZM116.701 18.978C116.701 18.4553 116.561 18.054 116.281 17.774C116.001 17.4847 115.604 17.34 115.091 17.34C114.605 17.34 114.195 17.4473 113.859 17.662C113.523 17.8673 113.275 18.2033 113.117 18.67L112.207 18.11C112.393 17.5873 112.739 17.1673 113.243 16.85C113.747 16.5233 114.372 16.36 115.119 16.36C115.623 16.36 116.08 16.4487 116.491 16.626C116.901 16.794 117.223 17.0553 117.457 17.41C117.699 17.7553 117.821 18.2033 117.821 18.754V22.142C117.821 22.478 117.998 22.646 118.353 22.646C118.53 22.646 118.703 22.6227 118.871 22.576L118.815 23.458C118.628 23.5513 118.385 23.598 118.087 23.598C117.816 23.598 117.573 23.5467 117.359 23.444C117.144 23.3413 116.976 23.1873 116.855 22.982C116.733 22.7673 116.673 22.5013 116.673 22.184V22.044L116.953 22.086C116.841 22.45 116.649 22.7487 116.379 22.982C116.108 23.206 115.805 23.374 115.469 23.486C115.133 23.5887 114.801 23.64 114.475 23.64C114.064 23.64 113.681 23.57 113.327 23.43C112.972 23.29 112.687 23.08 112.473 22.8C112.267 22.5107 112.165 22.156 112.165 21.736C112.165 21.2133 112.337 20.784 112.683 20.448C113.037 20.1027 113.527 19.8693 114.153 19.748L116.925 19.202V20.126L114.671 20.588C114.213 20.6813 113.873 20.812 113.649 20.98C113.425 21.148 113.313 21.3813 113.313 21.68C113.313 21.9693 113.425 22.2073 113.649 22.394C113.882 22.5713 114.209 22.66 114.629 22.66C114.899 22.66 115.156 22.6273 115.399 22.562C115.651 22.4873 115.875 22.38 116.071 22.24C116.267 22.0907 116.421 21.9087 116.533 21.694C116.645 21.47 116.701 21.2087 116.701 20.91V18.978ZM123.272 23.64C122.694 23.64 122.162 23.4953 121.676 23.206C121.191 22.9167 120.804 22.5013 120.514 21.96C120.225 21.4093 120.08 20.756 120.08 20C120.08 19.2253 120.234 18.5673 120.542 18.026C120.85 17.4847 121.256 17.074 121.76 16.794C122.264 16.5047 122.806 16.36 123.384 16.36C123.963 16.36 124.462 16.5093 124.882 16.808C125.312 17.1067 125.596 17.5033 125.736 17.998L125.596 18.096V13.28H126.716V23.5H125.736L125.638 21.806L125.792 21.722C125.727 22.1327 125.568 22.4827 125.316 22.772C125.074 23.052 124.77 23.2667 124.406 23.416C124.052 23.5653 123.674 23.64 123.272 23.64ZM123.384 22.66C123.832 22.66 124.22 22.548 124.546 22.324C124.882 22.1 125.139 21.7827 125.316 21.372C125.503 20.952 125.596 20.462 125.596 19.902C125.596 19.37 125.503 18.9127 125.316 18.53C125.139 18.1473 124.887 17.8533 124.56 17.648C124.243 17.4427 123.87 17.34 123.44 17.34C122.731 17.34 122.18 17.5827 121.788 18.068C121.396 18.5533 121.2 19.1973 121.2 20C121.2 20.8027 121.392 21.4467 121.774 21.932C122.157 22.4173 122.694 22.66 123.384 22.66ZM136.989 16.36C137.652 16.36 138.235 16.5047 138.739 16.794C139.252 17.0833 139.654 17.5033 139.943 18.054C140.232 18.5953 140.377 19.244 140.377 20C140.377 20.756 140.232 21.4093 139.943 21.96C139.654 22.5013 139.252 22.9167 138.739 23.206C138.235 23.4953 137.652 23.64 136.989 23.64C136.336 23.64 135.752 23.4953 135.239 23.206C134.726 22.9167 134.324 22.5013 134.035 21.96C133.746 21.4093 133.601 20.756 133.601 20C133.601 19.244 133.746 18.5953 134.035 18.054C134.324 17.5033 134.726 17.0833 135.239 16.794C135.752 16.5047 136.336 16.36 136.989 16.36ZM136.989 17.326C136.513 17.326 136.107 17.4333 135.771 17.648C135.435 17.8627 135.174 18.1707 134.987 18.572C134.81 18.964 134.721 19.44 134.721 20C134.721 20.5507 134.81 21.0267 134.987 21.428C135.174 21.8293 135.435 22.1373 135.771 22.352C136.107 22.5667 136.513 22.674 136.989 22.674C137.465 22.674 137.871 22.5667 138.207 22.352C138.543 22.1373 138.8 21.8293 138.977 21.428C139.164 21.0267 139.257 20.5507 139.257 20C139.257 19.44 139.164 18.964 138.977 18.572C138.8 18.1707 138.543 17.8627 138.207 17.648C137.871 17.4333 137.465 17.326 136.989 17.326ZM142.486 23.5V16.5H143.466L143.564 18.068L143.382 17.914C143.531 17.5407 143.732 17.242 143.984 17.018C144.236 16.7847 144.525 16.6167 144.852 16.514C145.188 16.4113 145.533 16.36 145.888 16.36C146.392 16.36 146.849 16.458 147.26 16.654C147.67 16.8407 147.997 17.13 148.24 17.522C148.492 17.914 148.618 18.4133 148.618 19.02V23.5H147.498V19.412C147.498 18.6373 147.33 18.1007 146.994 17.802C146.667 17.494 146.261 17.34 145.776 17.34C145.44 17.34 145.104 17.4193 144.768 17.578C144.432 17.7367 144.152 17.9933 143.928 18.348C143.713 18.7027 143.606 19.1787 143.606 19.776V23.5H142.486ZM157.304 14.512V21.568C157.304 21.9133 157.402 22.17 157.598 22.338C157.794 22.506 158.046 22.59 158.354 22.59C158.624 22.59 158.858 22.5433 159.054 22.45C159.25 22.3567 159.427 22.2307 159.586 22.072L159.978 23.01C159.763 23.206 159.506 23.36 159.208 23.472C158.918 23.584 158.582 23.64 158.2 23.64C157.845 23.64 157.514 23.5793 157.206 23.458C156.898 23.3273 156.65 23.1267 156.464 22.856C156.286 22.576 156.193 22.212 156.184 21.764V14.82L157.304 14.512ZM159.852 16.5V17.466H154.784V16.5H159.852ZM161.517 23.5V13.28H162.637V17.55C162.88 17.13 163.202 16.8267 163.603 16.64C164.004 16.4533 164.443 16.36 164.919 16.36C165.423 16.36 165.88 16.458 166.291 16.654C166.702 16.8407 167.028 17.13 167.271 17.522C167.523 17.914 167.649 18.4133 167.649 19.02V23.5H166.529V19.412C166.529 18.6373 166.361 18.1007 166.025 17.802C165.698 17.494 165.292 17.34 164.807 17.34C164.471 17.34 164.135 17.4193 163.799 17.578C163.463 17.7367 163.183 17.998 162.959 18.362C162.744 18.7167 162.637 19.1927 162.637 19.79V23.5H161.517ZM173.111 23.64C172.448 23.64 171.855 23.4953 171.333 23.206C170.819 22.9167 170.418 22.5013 170.129 21.96C169.839 21.4093 169.695 20.756 169.695 20C169.695 19.244 169.839 18.5953 170.129 18.054C170.418 17.5033 170.815 17.0833 171.319 16.794C171.823 16.5047 172.397 16.36 173.041 16.36C173.694 16.36 174.249 16.5 174.707 16.78C175.173 17.06 175.528 17.4427 175.771 17.928C176.013 18.404 176.135 18.9407 176.135 19.538C176.135 19.6967 176.13 19.8413 176.121 19.972C176.111 20.1027 176.097 20.2193 176.079 20.322H170.423V19.328H175.589L175.015 19.44C175.015 18.768 174.828 18.25 174.455 17.886C174.091 17.522 173.61 17.34 173.013 17.34C172.555 17.34 172.159 17.4473 171.823 17.662C171.496 17.8673 171.239 18.1707 171.053 18.572C170.875 18.964 170.787 19.44 170.787 20C170.787 20.5507 170.88 21.0267 171.067 21.428C171.253 21.8293 171.515 22.1373 171.851 22.352C172.196 22.5573 172.607 22.66 173.083 22.66C173.596 22.66 174.011 22.562 174.329 22.366C174.655 22.17 174.917 21.904 175.113 21.568L175.995 22.086C175.817 22.4033 175.589 22.6787 175.309 22.912C175.038 23.1453 174.716 23.3273 174.343 23.458C173.979 23.5793 173.568 23.64 173.111 23.64ZM71.862 43.5H69.288L68.298 40.602H63.744L62.754 43.5H60.216L64.554 31.62H67.524L71.862 43.5ZM64.302 38.766H67.74L66.012 33.582L64.302 38.766ZM73.3722 47.28V34.5H75.5862L75.7482 37.362L75.4422 37.038C75.5502 36.51 75.7482 36.042 76.0362 35.634C76.3362 35.226 76.7142 34.908 77.1702 34.68C77.6262 34.44 78.1362 34.32 78.7002 34.32C79.4322 34.32 80.0862 34.506 80.6622 34.878C81.2382 35.25 81.6882 35.784 82.0122 36.48C82.3482 37.164 82.5162 37.998 82.5162 38.982C82.5162 39.966 82.3482 40.812 82.0122 41.52C81.6762 42.216 81.2142 42.75 80.6262 43.122C80.0502 43.494 79.3902 43.68 78.6462 43.68C77.8542 43.68 77.1942 43.458 76.6662 43.014C76.1502 42.57 75.7962 42.012 75.6042 41.34L75.8382 40.962V47.28H73.3722ZM77.9262 41.79C78.5862 41.79 79.1022 41.556 79.4742 41.088C79.8582 40.608 80.0502 39.912 80.0502 39C80.0502 38.088 79.8642 37.398 79.4922 36.93C79.1322 36.45 78.6222 36.21 77.9622 36.21C77.5422 36.21 77.1702 36.324 76.8462 36.552C76.5342 36.768 76.2882 37.086 76.1082 37.506C75.9282 37.914 75.8382 38.412 75.8382 39C75.8382 39.576 75.9222 40.074 76.0902 40.494C76.2582 40.914 76.4982 41.238 76.8102 41.466C77.1342 41.682 77.5062 41.79 77.9262 41.79ZM84.6573 47.28V34.5H86.8713L87.0333 37.362L86.7273 37.038C86.8353 36.51 87.0333 36.042 87.3213 35.634C87.6213 35.226 87.9993 34.908 88.4553 34.68C88.9113 34.44 89.4213 34.32 89.9853 34.32C90.7173 34.32 91.3713 34.506 91.9473 34.878C92.5233 35.25 92.9733 35.784 93.2973 36.48C93.6333 37.164 93.8013 37.998 93.8013 38.982C93.8013 39.966 93.6333 40.812 93.2973 41.52C92.9613 42.216 92.4993 42.75 91.9113 43.122C91.3353 43.494 90.6753 43.68 89.9313 43.68C89.1393 43.68 88.4793 43.458 87.9513 43.014C87.4353 42.57 87.0813 42.012 86.8893 41.34L87.1233 40.962V47.28H84.6573ZM89.2113 41.79C89.8713 41.79 90.3873 41.556 90.7593 41.088C91.1433 40.608 91.3353 39.912 91.3353 39C91.3353 38.088 91.1493 37.398 90.7773 36.93C90.4173 36.45 89.9073 36.21 89.2473 36.21C88.8273 36.21 88.4553 36.324 88.1313 36.552C87.8193 36.768 87.5733 37.086 87.3933 37.506C87.2133 37.914 87.1233 38.412 87.1233 39C87.1233 39.576 87.2073 40.074 87.3753 40.494C87.5433 40.914 87.7833 41.238 88.0953 41.466C88.4193 41.682 88.7913 41.79 89.2113 41.79ZM106.034 31.44C107.114 31.44 108.062 31.626 108.878 31.998C109.694 32.37 110.39 32.922 110.966 33.654L109.58 35.256C109.088 34.632 108.548 34.176 107.96 33.888C107.384 33.588 106.712 33.438 105.944 33.438C105.44 33.438 105.02 33.504 104.684 33.636C104.36 33.768 104.12 33.942 103.964 34.158C103.82 34.374 103.748 34.614 103.748 34.878C103.748 35.202 103.874 35.478 104.126 35.706C104.378 35.922 104.81 36.102 105.422 36.246L107.636 36.75C108.812 37.014 109.652 37.41 110.156 37.938C110.672 38.454 110.93 39.126 110.93 39.954C110.93 40.734 110.726 41.406 110.318 41.97C109.91 42.522 109.34 42.948 108.608 43.248C107.876 43.536 107.036 43.68 106.088 43.68C105.26 43.68 104.498 43.584 103.802 43.392C103.118 43.188 102.506 42.912 101.966 42.564C101.426 42.216 100.976 41.814 100.616 41.358L102.02 39.684C102.296 40.068 102.638 40.41 103.046 40.71C103.454 41.01 103.916 41.25 104.432 41.43C104.96 41.598 105.512 41.682 106.088 41.682C106.58 41.682 106.994 41.628 107.33 41.52C107.678 41.4 107.936 41.238 108.104 41.034C108.284 40.818 108.374 40.56 108.374 40.26C108.374 39.948 108.266 39.684 108.05 39.468C107.846 39.24 107.462 39.066 106.898 38.946L104.486 38.406C103.79 38.238 103.19 38.022 102.686 37.758C102.194 37.482 101.816 37.134 101.552 36.714C101.3 36.282 101.174 35.772 101.174 35.184C101.174 34.476 101.366 33.84 101.75 33.276C102.134 32.712 102.686 32.268 103.406 31.944C104.138 31.608 105.014 31.44 106.034 31.44ZM116.214 31.746V40.566C116.214 40.998 116.322 41.316 116.538 41.52C116.766 41.712 117.072 41.808 117.456 41.808C117.756 41.808 118.02 41.766 118.248 41.682C118.476 41.586 118.68 41.46 118.86 41.304L119.256 42.942C118.968 43.17 118.608 43.35 118.176 43.482C117.744 43.614 117.288 43.68 116.808 43.68C116.208 43.68 115.674 43.59 115.206 43.41C114.75 43.23 114.39 42.942 114.126 42.546C113.874 42.15 113.748 41.622 113.748 40.962V32.43L116.214 31.746ZM119.094 34.5V36.336H112.092V34.5H119.094ZM124.867 34.32C125.779 34.32 126.577 34.506 127.261 34.878C127.957 35.25 128.497 35.784 128.881 36.48C129.277 37.176 129.475 38.016 129.475 39C129.475 39.972 129.277 40.812 128.881 41.52C128.497 42.216 127.957 42.75 127.261 43.122C126.577 43.494 125.779 43.68 124.867 43.68C123.967 43.68 123.169 43.494 122.473 43.122C121.777 42.75 121.231 42.216 120.835 41.52C120.451 40.812 120.259 39.972 120.259 39C120.259 38.016 120.451 37.176 120.835 36.48C121.231 35.784 121.777 35.25 122.473 34.878C123.169 34.506 123.967 34.32 124.867 34.32ZM124.867 36.156C124.411 36.156 124.021 36.264 123.697 36.48C123.385 36.684 123.145 36.996 122.977 37.416C122.809 37.836 122.725 38.364 122.725 39C122.725 39.636 122.809 40.164 122.977 40.584C123.145 41.004 123.385 41.322 123.697 41.538C124.021 41.742 124.411 41.844 124.867 41.844C125.311 41.844 125.689 41.742 126.001 41.538C126.325 41.322 126.571 41.004 126.739 40.584C126.907 40.164 126.991 39.636 126.991 39C126.991 38.364 126.907 37.836 126.739 37.416C126.571 36.996 126.325 36.684 126.001 36.48C125.689 36.264 125.311 36.156 124.867 36.156ZM131.538 43.5V34.5H133.68L133.842 36.264C134.082 35.64 134.43 35.16 134.886 34.824C135.354 34.488 135.936 34.32 136.632 34.32C136.836 34.32 137.022 34.338 137.19 34.374C137.358 34.41 137.496 34.458 137.604 34.518L137.316 36.588C137.196 36.54 137.046 36.504 136.866 36.48C136.698 36.456 136.476 36.444 136.2 36.444C135.84 36.444 135.492 36.534 135.156 36.714C134.82 36.882 134.544 37.146 134.328 37.506C134.112 37.854 134.004 38.298 134.004 38.838V43.5H131.538ZM143.132 43.68C142.184 43.68 141.356 43.494 140.648 43.122C139.952 42.75 139.412 42.216 139.028 41.52C138.644 40.824 138.452 39.984 138.452 39C138.452 38.016 138.644 37.176 139.028 36.48C139.412 35.784 139.946 35.25 140.63 34.878C141.326 34.506 142.118 34.32 143.006 34.32C143.918 34.32 144.692 34.506 145.328 34.878C145.964 35.238 146.45 35.736 146.786 36.372C147.122 36.996 147.29 37.71 147.29 38.514C147.29 38.754 147.284 38.982 147.272 39.198C147.26 39.414 147.242 39.606 147.218 39.774H140.036V38.064H146.138L144.95 38.496C144.95 37.74 144.776 37.158 144.428 36.75C144.092 36.342 143.612 36.138 142.988 36.138C142.532 36.138 142.136 36.246 141.8 36.462C141.476 36.678 141.23 37.002 141.062 37.434C140.894 37.854 140.81 38.388 140.81 39.036C140.81 39.672 140.9 40.2 141.08 40.62C141.272 41.028 141.536 41.334 141.872 41.538C142.22 41.742 142.634 41.844 143.114 41.844C143.642 41.844 144.068 41.742 144.392 41.538C144.716 41.334 144.968 41.052 145.148 40.692L147.11 41.448C146.918 41.916 146.624 42.318 146.228 42.654C145.844 42.99 145.382 43.248 144.842 43.428C144.314 43.596 143.744 43.68 143.132 43.68Z" fill="white"/>
</svg>
