<svg width="32" height="32" viewBox="0 0 32 32" fill="none" xmlns="http://www.w3.org/2000/svg">
<path fill-rule="evenodd" clip-rule="evenodd" d="M15.9984 7.8999C16.3298 7.8999 16.5984 8.16853 16.5984 8.4999V17.0514L19.7408 13.909C19.9752 13.6747 20.3551 13.6747 20.5894 13.909C20.8237 14.1433 20.8237 14.5232 20.5894 14.7575L16.4227 18.9242C16.1884 19.1585 15.8085 19.1585 15.5742 18.9242L11.4075 14.7575C11.1732 14.5232 11.1732 14.1433 11.4075 13.909C11.6418 13.6747 12.0217 13.6747 12.256 13.909L15.3984 17.0514V8.4999C15.3984 8.16853 15.6671 7.8999 15.9984 7.8999ZM8.49844 17.8999C8.82981 17.8999 9.09844 18.1685 9.09844 18.4999V21.8332C9.09844 22.1161 9.21082 22.3874 9.41086 22.5875C9.6109 22.7875 9.88221 22.8999 10.1651 22.8999H21.8318C22.1147 22.8999 22.386 22.7875 22.586 22.5875C22.7861 22.3874 22.8984 22.1161 22.8984 21.8332V18.4999C22.8984 18.1685 23.1671 17.8999 23.4984 17.8999C23.8298 17.8999 24.0984 18.1685 24.0984 18.4999V21.8332C24.0984 22.4344 23.8596 23.0109 23.4345 23.436C23.0095 23.8611 22.4329 24.0999 21.8318 24.0999H10.1651C9.56395 24.0999 8.98741 23.8611 8.56233 23.436C8.13725 23.0109 7.89844 22.4344 7.89844 21.8332V18.4999C7.89844 18.1685 8.16707 17.8999 8.49844 17.8999Z" fill="#646464"/>
</svg>
