<svg width="198" height="56" viewBox="0 0 198 56" fill="none" xmlns="http://www.w3.org/2000/svg">
<rect width="198" height="56" rx="8" fill="#202020"/>
<rect x="20" y="14" width="12.9542" height="12.9544" fill="#F15021"/>
<rect x="34.132" y="14" width="12.9542" height="12.9544" fill="#7EB900"/>
<rect x="20" y="28.1318" width="12.9542" height="12.9544" fill="#00A3EE"/>
<rect x="34.132" y="28.1318" width="12.9542" height="12.9544" fill="#FFB800"/>
<path d="M64.998 23.64C64.1487 23.64 63.402 23.4533 62.758 23.08C62.1233 22.7067 61.6287 22.1653 61.274 21.456C60.9193 20.7467 60.742 19.8927 60.742 18.894C60.742 17.9047 60.9287 17.0553 61.302 16.346C61.6753 15.6273 62.2027 15.0767 62.884 14.694C63.5747 14.3113 64.3727 14.12 65.278 14.12C66.2767 14.12 67.084 14.3067 67.7 14.68C68.316 15.044 68.806 15.6133 69.17 16.388L67.378 17.158C67.2287 16.6633 66.972 16.2993 66.608 16.066C66.2533 15.8233 65.8147 15.702 65.292 15.702C64.7693 15.702 64.3167 15.828 63.934 16.08C63.5513 16.3227 63.2573 16.682 63.052 17.158C62.8467 17.6247 62.744 18.1987 62.744 18.88C62.744 19.58 62.842 20.1727 63.038 20.658C63.234 21.134 63.5233 21.4933 63.906 21.736C64.298 21.9693 64.7787 22.086 65.348 22.086C65.656 22.086 65.9407 22.0487 66.202 21.974C66.4727 21.8993 66.706 21.7873 66.902 21.638C67.098 21.4887 67.252 21.2973 67.364 21.064C67.476 20.8307 67.532 20.56 67.532 20.252V20.042H65.11V18.628H69.198V23.5H67.84L67.7 21.484L68.036 21.722C67.8307 22.338 67.4667 22.814 66.944 23.15C66.4307 23.4767 65.782 23.64 64.998 23.64ZM74.3732 23.64C73.6359 23.64 72.9919 23.4953 72.4412 23.206C71.8999 22.9167 71.4799 22.5013 71.1812 21.96C70.8825 21.4187 70.7332 20.7653 70.7332 20C70.7332 19.2347 70.8825 18.5813 71.1812 18.04C71.4799 17.4987 71.8952 17.0833 72.4272 16.794C72.9685 16.5047 73.5845 16.36 74.2752 16.36C74.9845 16.36 75.5865 16.5047 76.0812 16.794C76.5759 17.074 76.9539 17.4613 77.2152 17.956C77.4765 18.4413 77.6072 18.9967 77.6072 19.622C77.6072 19.8087 77.6025 19.986 77.5932 20.154C77.5839 20.322 77.5699 20.4713 77.5512 20.602H71.9652V19.272H76.7112L75.7872 19.608C75.7872 19.02 75.6519 18.5673 75.3812 18.25C75.1199 17.9327 74.7465 17.774 74.2612 17.774C73.9065 17.774 73.5985 17.858 73.3372 18.026C73.0852 18.194 72.8939 18.446 72.7632 18.782C72.6325 19.1087 72.5672 19.524 72.5672 20.028C72.5672 20.5227 72.6372 20.9333 72.7772 21.26C72.9265 21.5773 73.1319 21.8153 73.3932 21.974C73.6639 22.1327 73.9859 22.212 74.3592 22.212C74.7699 22.212 75.1012 22.1327 75.3532 21.974C75.6052 21.8153 75.8012 21.596 75.9412 21.316L77.4672 21.904C77.3179 22.268 77.0892 22.5807 76.7812 22.842C76.4825 23.1033 76.1232 23.304 75.7032 23.444C75.2925 23.5747 74.8492 23.64 74.3732 23.64ZM81.5876 14.358V21.218C81.5876 21.554 81.6716 21.8013 81.8396 21.96C82.0169 22.1093 82.2549 22.184 82.5536 22.184C82.7869 22.184 82.9922 22.1513 83.1696 22.086C83.3469 22.0113 83.5056 21.9133 83.6456 21.792L83.9536 23.066C83.7296 23.2433 83.4496 23.3833 83.1136 23.486C82.7776 23.5887 82.4229 23.64 82.0496 23.64C81.5829 23.64 81.1676 23.57 80.8036 23.43C80.4489 23.29 80.1689 23.066 79.9636 22.758C79.7676 22.45 79.6696 22.0393 79.6696 21.526V14.89L81.5876 14.358ZM83.8276 16.5V17.928H78.3816V16.5H83.8276ZM90.3705 15.492C89.9692 15.492 89.6705 15.408 89.4745 15.24C89.2785 15.0627 89.1805 14.806 89.1805 14.47C89.1805 14.1247 89.2785 13.868 89.4745 13.7C89.6705 13.5227 89.9692 13.434 90.3705 13.434C90.7718 13.434 91.0705 13.5227 91.2665 13.7C91.4625 13.868 91.5605 14.1247 91.5605 14.47C91.5605 14.806 91.4625 15.0627 91.2665 15.24C91.0705 15.408 90.7718 15.492 90.3705 15.492ZM91.3225 16.5V23.5H89.4045V16.5H91.3225ZM95.8337 14.358V21.218C95.8337 21.554 95.9177 21.8013 96.0857 21.96C96.263 22.1093 96.501 22.184 96.7997 22.184C97.033 22.184 97.2383 22.1513 97.4157 22.086C97.593 22.0113 97.7517 21.9133 97.8917 21.792L98.1997 23.066C97.9757 23.2433 97.6957 23.3833 97.3597 23.486C97.0237 23.5887 96.669 23.64 96.2957 23.64C95.829 23.64 95.4137 23.57 95.0497 23.43C94.695 23.29 94.415 23.066 94.2097 22.758C94.0137 22.45 93.9157 22.0393 93.9157 21.526V14.89L95.8337 14.358ZM98.0737 16.5V17.928H92.6277V16.5H98.0737ZM106.609 13.294C106.935 13.294 107.229 13.3313 107.491 13.406C107.761 13.4713 107.962 13.5553 108.093 13.658L107.827 14.932C107.724 14.8667 107.607 14.8153 107.477 14.778C107.346 14.7407 107.192 14.722 107.015 14.722C106.651 14.722 106.361 14.806 106.147 14.974C105.932 15.1327 105.825 15.408 105.825 15.8V16.766L105.909 17.144V23.5H103.991V15.66C103.991 15.268 104.056 14.9227 104.187 14.624C104.317 14.3253 104.499 14.078 104.733 13.882C104.966 13.686 105.241 13.5413 105.559 13.448C105.885 13.3453 106.235 13.294 106.609 13.294ZM108.037 16.5V17.928H102.773V16.5H108.037ZM109.188 23.5V16.5H110.854L110.98 17.872C111.166 17.3867 111.437 17.0133 111.792 16.752C112.156 16.4907 112.608 16.36 113.15 16.36C113.308 16.36 113.453 16.374 113.584 16.402C113.714 16.43 113.822 16.4673 113.906 16.514L113.682 18.124C113.588 18.0867 113.472 18.0587 113.332 18.04C113.201 18.0213 113.028 18.012 112.814 18.012C112.534 18.012 112.263 18.082 112.002 18.222C111.74 18.3527 111.526 18.558 111.358 18.838C111.19 19.1087 111.106 19.454 111.106 19.874V23.5H109.188ZM118.149 16.36C118.859 16.36 119.479 16.5047 120.011 16.794C120.553 17.0833 120.973 17.4987 121.271 18.04C121.579 18.5813 121.733 19.2347 121.733 20C121.733 20.756 121.579 21.4093 121.271 21.96C120.973 22.5013 120.553 22.9167 120.011 23.206C119.479 23.4953 118.859 23.64 118.149 23.64C117.449 23.64 116.829 23.4953 116.287 23.206C115.746 22.9167 115.321 22.5013 115.013 21.96C114.715 21.4093 114.565 20.756 114.565 20C114.565 19.2347 114.715 18.5813 115.013 18.04C115.321 17.4987 115.746 17.0833 116.287 16.794C116.829 16.5047 117.449 16.36 118.149 16.36ZM118.149 17.788C117.795 17.788 117.491 17.872 117.239 18.04C116.997 18.1987 116.81 18.4413 116.679 18.768C116.549 19.0947 116.483 19.5053 116.483 20C116.483 20.4947 116.549 20.9053 116.679 21.232C116.81 21.5587 116.997 21.806 117.239 21.974C117.491 22.1327 117.795 22.212 118.149 22.212C118.495 22.212 118.789 22.1327 119.031 21.974C119.283 21.806 119.475 21.5587 119.605 21.232C119.736 20.9053 119.801 20.4947 119.801 20C119.801 19.5053 119.736 19.0947 119.605 18.768C119.475 18.4413 119.283 18.1987 119.031 18.04C118.789 17.872 118.495 17.788 118.149 17.788ZM123.338 23.5V16.5H125.06L125.13 17.76C125.363 17.2933 125.681 16.9433 126.082 16.71C126.493 16.4767 126.945 16.36 127.44 16.36C127.944 16.36 128.397 16.4767 128.798 16.71C129.209 16.9433 129.517 17.2887 129.722 17.746C129.871 17.438 130.072 17.1813 130.324 16.976C130.576 16.7707 130.856 16.6167 131.164 16.514C131.472 16.4113 131.785 16.36 132.102 16.36C132.559 16.36 132.975 16.4533 133.348 16.64C133.731 16.8267 134.034 17.1067 134.258 17.48C134.482 17.8533 134.594 18.3293 134.594 18.908V23.5H132.676V19.286C132.676 18.7727 132.564 18.4087 132.34 18.194C132.116 17.9793 131.827 17.872 131.472 17.872C131.192 17.872 130.931 17.942 130.688 18.082C130.455 18.222 130.268 18.432 130.128 18.712C129.997 18.9827 129.932 19.3233 129.932 19.734V23.5H128.014V19.286C128.014 18.7727 127.897 18.4087 127.664 18.194C127.44 17.9793 127.151 17.872 126.796 17.872C126.553 17.872 126.311 17.9373 126.068 18.068C125.835 18.1987 125.639 18.404 125.48 18.684C125.331 18.964 125.256 19.3327 125.256 19.79V23.5H123.338ZM74.472 31.62V43.5H72.222V37.308L72.348 33.834H72.312L69.018 43.5H66.984L63.708 33.834H63.672L63.798 37.308V43.5H61.548V31.62H65.148L67.29 38.1L68.046 40.782H68.082L68.856 38.118L70.98 31.62H74.472ZM78.5517 33.204C78.0357 33.204 77.6517 33.096 77.3997 32.88C77.1477 32.652 77.0217 32.322 77.0217 31.89C77.0217 31.446 77.1477 31.116 77.3997 30.9C77.6517 30.672 78.0357 30.558 78.5517 30.558C79.0677 30.558 79.4517 30.672 79.7037 30.9C79.9557 31.116 80.0817 31.446 80.0817 31.89C80.0817 32.322 79.9557 32.652 79.7037 32.88C79.4517 33.096 79.0677 33.204 78.5517 33.204ZM79.7757 34.5V43.5H77.3097V34.5H79.7757ZM86.4758 34.32C87.2798 34.32 87.9578 34.44 88.5098 34.68C89.0738 34.908 89.5238 35.226 89.8598 35.634C90.2078 36.03 90.4538 36.474 90.5977 36.966L88.2938 37.794C88.1738 37.254 87.9698 36.846 87.6818 36.57C87.3938 36.294 87.0038 36.156 86.5118 36.156C86.0558 36.156 85.6658 36.264 85.3418 36.48C85.0178 36.684 84.7718 37.002 84.6038 37.434C84.4358 37.854 84.3518 38.382 84.3518 39.018C84.3518 39.654 84.4358 40.182 84.6038 40.602C84.7838 41.022 85.0358 41.334 85.3598 41.538C85.6958 41.742 86.0858 41.844 86.5298 41.844C86.8898 41.844 87.1958 41.784 87.4478 41.664C87.6998 41.532 87.9038 41.346 88.0598 41.106C88.2278 40.866 88.3418 40.578 88.4018 40.242L90.6338 40.962C90.5018 41.502 90.2558 41.976 89.8958 42.384C89.5358 42.792 89.0738 43.11 88.5098 43.338C87.9458 43.566 87.2918 43.68 86.5478 43.68C85.6238 43.68 84.8078 43.494 84.0998 43.122C83.3918 42.75 82.8458 42.216 82.4618 41.52C82.0778 40.824 81.8858 39.984 81.8858 39C81.8858 38.016 82.0778 37.176 82.4618 36.48C82.8458 35.784 83.3858 35.25 84.0818 34.878C84.7778 34.506 85.5758 34.32 86.4758 34.32ZM92.5499 43.5V34.5H94.6919L94.8539 36.264C95.0939 35.64 95.4419 35.16 95.8979 34.824C96.3659 34.488 96.9479 34.32 97.6439 34.32C97.8479 34.32 98.0339 34.338 98.2019 34.374C98.3699 34.41 98.5079 34.458 98.6159 34.518L98.3279 36.588C98.2079 36.54 98.0579 36.504 97.8779 36.48C97.7099 36.456 97.4879 36.444 97.2119 36.444C96.8519 36.444 96.5039 36.534 96.1679 36.714C95.8319 36.882 95.5559 37.146 95.3399 37.506C95.1239 37.854 95.0159 38.298 95.0159 38.838V43.5H92.5499ZM104.072 34.32C104.984 34.32 105.782 34.506 106.466 34.878C107.162 35.25 107.702 35.784 108.086 36.48C108.482 37.176 108.68 38.016 108.68 39C108.68 39.972 108.482 40.812 108.086 41.52C107.702 42.216 107.162 42.75 106.466 43.122C105.782 43.494 104.984 43.68 104.072 43.68C103.172 43.68 102.374 43.494 101.678 43.122C100.982 42.75 100.436 42.216 100.04 41.52C99.6559 40.812 99.4639 39.972 99.4639 39C99.4639 38.016 99.6559 37.176 100.04 36.48C100.436 35.784 100.982 35.25 101.678 34.878C102.374 34.506 103.172 34.32 104.072 34.32ZM104.072 36.156C103.616 36.156 103.226 36.264 102.902 36.48C102.59 36.684 102.35 36.996 102.182 37.416C102.014 37.836 101.93 38.364 101.93 39C101.93 39.636 102.014 40.164 102.182 40.584C102.35 41.004 102.59 41.322 102.902 41.538C103.226 41.742 103.616 41.844 104.072 41.844C104.516 41.844 104.894 41.742 105.206 41.538C105.53 41.322 105.776 41.004 105.944 40.584C106.112 40.164 106.196 39.636 106.196 39C106.196 38.364 106.112 37.836 105.944 37.416C105.776 36.996 105.53 36.684 105.206 36.48C104.894 36.264 104.516 36.156 104.072 36.156ZM114.343 43.68C113.431 43.68 112.597 43.518 111.841 43.194C111.097 42.87 110.491 42.414 110.023 41.826L111.445 40.386C111.733 40.818 112.117 41.172 112.597 41.448C113.077 41.724 113.647 41.862 114.307 41.862C114.775 41.862 115.147 41.796 115.423 41.664C115.711 41.52 115.855 41.298 115.855 40.998C115.855 40.806 115.789 40.644 115.657 40.512C115.525 40.368 115.261 40.254 114.865 40.17L113.281 39.846C112.237 39.63 111.493 39.306 111.049 38.874C110.617 38.43 110.401 37.86 110.401 37.164C110.401 36.672 110.545 36.21 110.833 35.778C111.133 35.346 111.577 34.998 112.165 34.734C112.753 34.458 113.485 34.32 114.361 34.32C115.261 34.32 116.041 34.464 116.701 34.752C117.373 35.028 117.901 35.442 118.285 35.994L116.809 37.434C116.545 37.014 116.197 36.696 115.765 36.48C115.345 36.252 114.901 36.138 114.433 36.138C114.097 36.138 113.809 36.174 113.569 36.246C113.329 36.318 113.149 36.42 113.029 36.552C112.909 36.672 112.849 36.828 112.849 37.02C112.849 37.212 112.933 37.38 113.101 37.524C113.269 37.656 113.575 37.77 114.019 37.866L115.855 38.244C116.743 38.424 117.379 38.73 117.763 39.162C118.147 39.582 118.339 40.092 118.339 40.692C118.339 41.268 118.183 41.784 117.871 42.24C117.571 42.684 117.121 43.038 116.521 43.302C115.933 43.554 115.207 43.68 114.343 43.68ZM124.375 34.32C125.287 34.32 126.085 34.506 126.769 34.878C127.465 35.25 128.005 35.784 128.389 36.48C128.785 37.176 128.983 38.016 128.983 39C128.983 39.972 128.785 40.812 128.389 41.52C128.005 42.216 127.465 42.75 126.769 43.122C126.085 43.494 125.287 43.68 124.375 43.68C123.475 43.68 122.677 43.494 121.981 43.122C121.285 42.75 120.739 42.216 120.343 41.52C119.959 40.812 119.767 39.972 119.767 39C119.767 38.016 119.959 37.176 120.343 36.48C120.739 35.784 121.285 35.25 121.981 34.878C122.677 34.506 123.475 34.32 124.375 34.32ZM124.375 36.156C123.919 36.156 123.529 36.264 123.205 36.48C122.893 36.684 122.653 36.996 122.485 37.416C122.317 37.836 122.233 38.364 122.233 39C122.233 39.636 122.317 40.164 122.485 40.584C122.653 41.004 122.893 41.322 123.205 41.538C123.529 41.742 123.919 41.844 124.375 41.844C124.819 41.844 125.197 41.742 125.509 41.538C125.833 41.322 126.079 41.004 126.247 40.584C126.415 40.164 126.499 39.636 126.499 39C126.499 38.364 126.415 37.836 126.247 37.416C126.079 36.996 125.833 36.684 125.509 36.48C125.197 36.264 124.819 36.156 124.375 36.156ZM134.972 30.378C135.392 30.378 135.77 30.426 136.106 30.522C136.454 30.606 136.712 30.714 136.88 30.846L136.538 32.484C136.406 32.4 136.256 32.334 136.088 32.286C135.92 32.238 135.722 32.214 135.494 32.214C135.026 32.214 134.654 32.322 134.378 32.538C134.102 32.742 133.964 33.096 133.964 33.6V34.842L134.072 35.328V43.5H131.606V33.42C131.606 32.916 131.69 32.472 131.858 32.088C132.026 31.704 132.26 31.386 132.56 31.134C132.86 30.882 133.214 30.696 133.622 30.576C134.042 30.444 134.492 30.378 134.972 30.378ZM136.808 34.5V36.336H130.04V34.5H136.808ZM140.753 31.746V40.566C140.753 40.998 140.861 41.316 141.077 41.52C141.305 41.712 141.611 41.808 141.995 41.808C142.295 41.808 142.559 41.766 142.787 41.682C143.015 41.586 143.219 41.46 143.399 41.304L143.795 42.942C143.507 43.17 143.147 43.35 142.715 43.482C142.283 43.614 141.827 43.68 141.347 43.68C140.747 43.68 140.213 43.59 139.745 43.41C139.289 43.23 138.929 42.942 138.665 42.546C138.413 42.15 138.287 41.622 138.287 40.962V32.43L140.753 31.746ZM143.633 34.5V36.336H136.631V34.5H143.633Z" fill="white"/>
</svg>
