<svg width="21" height="20" viewBox="0 0 21 20" fill="none" xmlns="http://www.w3.org/2000/svg">
<path fill-rule="evenodd" clip-rule="evenodd" d="M3.76619 2.0796C4.18533 1.66046 4.75381 1.42499 5.34657 1.42499H11.6866C11.859 1.42499 12.0243 1.49347 12.1462 1.61537L16.9012 6.37037C17.0231 6.49227 17.0916 6.6576 17.0916 6.82999V16.34C17.0916 16.9327 16.8561 17.5012 16.437 17.9204C16.0178 18.3395 15.4493 18.575 14.8566 18.575H5.34657C4.75381 18.575 4.18533 18.3395 3.76619 17.9204C3.34704 17.5012 3.11157 16.9327 3.11157 16.34V3.65999C3.11157 3.06723 3.34704 2.49875 3.76619 2.0796ZM5.34657 2.72499C5.09859 2.72499 4.86077 2.8235 4.68543 2.99884C4.51008 3.17419 4.41157 3.41201 4.41157 3.65999V16.34C4.41157 16.588 4.51008 16.8258 4.68543 17.0011C4.86077 17.1765 5.09859 17.275 5.34657 17.275H14.8566C15.1045 17.275 15.3424 17.1765 15.5177 17.0011C15.6931 16.8258 15.7916 16.588 15.7916 16.34V7.09923L11.4173 2.72499H5.34657Z" fill="#646464"/>
<path fill-rule="evenodd" clip-rule="evenodd" d="M11.6866 1.42499C12.0456 1.42499 12.3369 1.716 12.3369 2.07499V6.17999H16.4419C16.8009 6.17999 17.0916 6.471 17.0916 6.82999C17.0916 7.18897 16.8009 7.47999 16.4419 7.47999H11.6869C11.3279 7.47999 11.0369 7.18897 11.0369 6.82999V2.07499C11.0369 1.716 11.3276 1.42499 11.6866 1.42499Z" fill="#646464"/>
</svg>
