<svg width="20" height="20" viewBox="0 0 20 20" fill="none" xmlns="http://www.w3.org/2000/svg">
<path d="M18.567 10.4419L16.067 12.9419C15.9498 13.0591 15.7908 13.1249 15.6251 13.1249C15.4594 13.1249 15.3004 13.0591 15.1832 12.9419C15.066 12.8247 15.0002 12.6657 15.0002 12.5C15.0002 12.3343 15.066 12.1753 15.1832 12.0581L16.6164 10.625H10.6251V16.6162L12.0582 15.1831C12.1754 15.0659 12.3344 15.0001 12.5001 15.0001C12.6658 15.0001 12.8248 15.0659 12.942 15.1831C13.0592 15.3003 13.125 15.4593 13.125 15.625C13.125 15.7907 13.0592 15.9497 12.942 16.0669L10.442 18.5669C10.3839 18.625 10.315 18.6711 10.2391 18.7025C10.1633 18.734 10.0819 18.7502 9.9998 18.7502C9.91767 18.7502 9.83634 18.734 9.76046 18.7025C9.68459 18.6711 9.61566 18.625 9.55761 18.5669L7.05761 16.0669C6.94042 15.9497 6.87458 15.7907 6.87458 15.625C6.87458 15.4593 6.94042 15.3003 7.05761 15.1831C7.17481 15.0659 7.33375 15.0001 7.49949 15.0001C7.66522 15.0001 7.82417 15.0659 7.94136 15.1831L9.37511 16.6162V10.625H3.38386L4.81699 12.0581C4.93418 12.1753 5.00002 12.3343 5.00002 12.5C5.00002 12.6657 4.93418 12.8247 4.81699 12.9419C4.6998 13.0591 4.54085 13.1249 4.37511 13.1249C4.20938 13.1249 4.05043 13.0591 3.93324 12.9419L1.43324 10.4419C1.31664 10.3242 1.25122 10.1653 1.25122 9.99968C1.25122 9.83405 1.31664 9.67512 1.43324 9.55749L3.93324 7.05749C3.99127 6.99946 4.06016 6.95343 4.13597 6.92203C4.21179 6.89062 4.29305 6.87446 4.37511 6.87446C4.45718 6.87446 4.53844 6.89062 4.61425 6.92203C4.69007 6.95343 4.75896 6.99946 4.81699 7.05749C4.87502 7.11552 4.92105 7.18441 4.95245 7.26022C4.98386 7.33604 5.00002 7.4173 5.00002 7.49937C5.00002 7.58143 4.98386 7.66269 4.95245 7.73851C4.92105 7.81432 4.87502 7.88321 4.81699 7.94124L3.38386 9.37499H9.37511V3.38374L7.94199 4.81687C7.88396 4.87489 7.81507 4.92092 7.73925 4.95233C7.66344 4.98373 7.58218 4.9999 7.50011 4.9999C7.33438 4.9999 7.17543 4.93406 7.05824 4.81687C7.00021 4.75884 6.95418 4.68995 6.92278 4.61413C6.89137 4.53832 6.87521 4.45706 6.87521 4.37499C6.87521 4.20926 6.94105 4.05031 7.05824 3.93312L9.55824 1.43312C9.67587 1.31652 9.8348 1.2511 10.0004 1.2511C10.1661 1.2511 10.325 1.31652 10.4426 1.43312L12.9426 3.93312C13.0303 4.02044 13.0901 4.13188 13.1144 4.25326C13.1386 4.37464 13.1263 4.50049 13.0789 4.61483C13.0314 4.72917 12.9511 4.82683 12.848 4.89541C12.745 4.96399 12.6239 5.00039 12.5001 4.99999C12.418 5.00008 12.3367 4.98394 12.2609 4.95252C12.1851 4.92109 12.1162 4.87499 12.0582 4.81687L10.6251 3.38374V9.37499H16.6164L15.1832 7.94187C15.1252 7.88384 15.0792 7.81495 15.0478 7.73913C15.0164 7.66331 15.0002 7.58206 15.0002 7.49999C15.0002 7.33426 15.066 7.17531 15.1832 7.05812C15.3004 6.94092 15.4594 6.87509 15.6251 6.87509C15.7072 6.87509 15.7884 6.89125 15.8643 6.92265C15.9401 6.95406 16.009 7.00009 16.067 7.05812L18.567 9.55812C18.8107 9.80124 18.8089 10.2006 18.567 10.4419Z" fill="#646464"/>
</svg>
