<svg width="14" height="14" viewBox="0 0 14 14" fill="none" xmlns="http://www.w3.org/2000/svg">
<path d="M11.5786 6.38812L10.8927 5.70217C10.778 5.58746 10.7135 5.43189 10.7135 5.26967C10.7135 5.10745 10.778 4.95187 10.8927 4.83717C11.0074 4.72246 11.163 4.65802 11.3252 4.65802C11.4874 4.65802 11.643 4.72246 11.7577 4.83717L13.4877 6.56717C13.6024 6.68188 13.6668 6.83745 13.6668 6.99967C13.6668 7.16189 13.6024 7.31747 13.4877 7.43218L11.7577 9.16218C11.643 9.27689 11.4874 9.34133 11.3252 9.34133C11.163 9.34133 11.0074 9.27689 10.8927 9.16218C10.778 9.04747 10.7135 8.8919 10.7135 8.72968C10.7135 8.56746 10.778 8.41189 10.8927 8.29718L11.5786 7.61123L7.61172 7.61123L7.61172 11.5781L8.29767 10.8922C8.41237 10.7775 8.56795 10.713 8.73017 10.713C8.89239 10.713 9.04796 10.7775 9.16267 10.8922C9.27738 11.0069 9.34182 11.1625 9.34182 11.3247C9.34182 11.4869 9.27738 11.6425 9.16267 11.7572L7.43266 13.4872C7.31796 13.6019 7.16238 13.6663 7.00016 13.6663C6.83794 13.6663 6.68237 13.6019 6.56766 13.4872L4.83766 11.7572C4.72295 11.6425 4.65851 11.4869 4.65851 11.3247C4.65851 11.1625 4.72295 11.0069 4.83766 10.8922C4.95236 10.7775 5.10794 10.713 5.27016 10.713C5.43238 10.713 5.58795 10.7775 5.70266 10.8922L6.38861 11.5781V7.61123L2.4217 7.61123L3.10765 8.29718C3.22236 8.41189 3.2868 8.56746 3.2868 8.72968C3.2868 8.8919 3.22236 9.04747 3.10765 9.16218C2.99294 9.27689 2.83737 9.34133 2.67515 9.34133C2.51293 9.34133 2.35736 9.27689 2.24265 9.16218L0.512644 7.43218C0.397937 7.31747 0.333496 7.16189 0.333496 6.99967C0.333496 6.83745 0.397937 6.68188 0.512644 6.56717L2.24265 4.83717C2.35736 4.72246 2.51293 4.65802 2.67515 4.65802C2.83737 4.65802 2.99294 4.72246 3.10765 4.83717C3.22236 4.95187 3.2868 5.10745 3.2868 5.26967C3.2868 5.43189 3.22236 5.58746 3.10765 5.70217L2.4217 6.38812H6.38861V2.42122L5.70266 3.10716C5.58795 3.22187 5.43238 3.28631 5.27016 3.28631C5.10794 3.28631 4.95236 3.22187 4.83766 3.10716C4.72295 2.99246 4.65851 2.83688 4.65851 2.67466C4.65851 2.51244 4.72295 2.35687 4.83766 2.24216L6.56766 0.512156C6.68237 0.397449 6.83794 0.333008 7.00016 0.333008C7.16238 0.333008 7.31796 0.397449 7.43266 0.512156L9.16267 2.24216C9.27738 2.35687 9.34182 2.51244 9.34182 2.67466C9.34182 2.83688 9.27738 2.99246 9.16267 3.10716C9.04796 3.22187 8.89239 3.28631 8.73017 3.28631C8.56795 3.28631 8.41237 3.22187 8.29767 3.10716L7.61172 2.42122V6.38812H11.5786Z" fill="#28ad99"/>
</svg>
