<svg width="24" height="24" viewBox="0 0 24 24" fill="none" xmlns="http://www.w3.org/2000/svg">
<path d="M7.5 17.25C7.5 18.075 8.175 18.75 9 18.75C9.825 18.75 10.5 18.075 10.5 17.25C10.5 16.425 9.825 15.75 9 15.75C8.175 15.75 7.5 16.425 7.5 17.25Z" fill="#61646C"/>
<path d="M7.5 6.75C7.5 7.575 8.175 8.25 9 8.25C9.825 8.25 10.5 7.575 10.5 6.75C10.5 5.925 9.825 5.25 9 5.25C8.175 5.25 7.5 5.925 7.5 6.75Z" fill="#61646C"/>
<path d="M7.5 12C7.5 12.825 8.175 13.5 9 13.5C9.825 13.5 10.5 12.825 10.5 12C10.5 11.175 9.825 10.5 9 10.5C8.175 10.5 7.5 11.175 7.5 12Z" fill="#61646C"/>
<path d="M13.5 17.25C13.5 18.075 14.175 18.75 15 18.75C15.825 18.75 16.5 18.075 16.5 17.25C16.5 16.425 15.825 15.75 15 15.75C14.175 15.75 13.5 16.425 13.5 17.25Z" fill="#61646C"/>
<path d="M13.5 6.75C13.5 7.575 14.175 8.25 15 8.25C15.825 8.25 16.5 7.575 16.5 6.75C16.5 5.925 15.825 5.25 15 5.25C14.175 5.25 13.5 5.925 13.5 6.75Z" fill="#61646C"/>
<path d="M13.5 12C13.5 12.825 14.175 13.5 15 13.5C15.825 13.5 16.5 12.825 16.5 12C16.5 11.175 15.825 10.5 15 10.5C14.175 10.5 13.5 11.175 13.5 12Z" fill="#61646C"/>
</svg>
