<svg width="18" height="18" viewBox="0 0 18 18" fill="none" xmlns="http://www.w3.org/2000/svg">
<path d="M14.3125 17.125H7.02083C5.20667 17.125 4.20833 16.1267 4.20833 14.3125V7.02083C4.20833 5.20667 5.20667 4.20833 7.02083 4.20833H14.3125C16.1267 4.20833 17.125 5.20667 17.125 7.02083V14.3125C17.125 16.1267 16.1267 17.125 14.3125 17.125ZM7.02083 5.45833C5.91083 5.45833 5.45833 5.91083 5.45833 7.02083V14.3125C5.45833 15.4225 5.91083 15.875 7.02083 15.875H14.3125C15.4225 15.875 15.875 15.4225 15.875 14.3125V7.02083C15.875 5.91083 15.4225 5.45833 14.3125 5.45833H7.02083ZM2.125 11.5V3.6875C2.125 2.5775 2.5775 2.125 3.6875 2.125H11.5C11.845 2.125 12.125 1.845 12.125 1.5C12.125 1.155 11.845 0.875 11.5 0.875H3.6875C1.87333 0.875 0.875 1.87333 0.875 3.6875V11.5C0.875 11.845 1.155 12.125 1.5 12.125C1.845 12.125 2.125 11.845 2.125 11.5Z" fill="#61646C"/>
</svg>
