<svg width="24" height="24" viewBox="0 0 24 24" fill="none" xmlns="http://www.w3.org/2000/svg">
<rect width="24" height="24" rx="12" fill="#28ad99" fill-opacity="0.1"/>
<g clip-path="url(#clip0_163_11340)">
<path d="M13.1755 8.6796L7.67339 14.1821C7.64571 14.2099 7.62572 14.245 7.6162 14.2826L7.00635 16.7305C6.9881 16.8042 7.00976 16.8825 7.06353 16.9363C7.10422 16.977 7.15966 16.9995 7.21637 16.9995C7.23374 16.9995 7.25151 16.9974 7.2688 16.993L9.71665 16.3831C9.7548 16.3736 9.78946 16.3536 9.81714 16.326L15.3198 10.8238L13.1755 8.6796Z" fill="#28ad99"/>
<path d="M16.6829 7.92935L16.0704 7.31687C15.6611 6.90752 14.9476 6.90792 14.5387 7.31687L13.7885 8.06712L15.9326 10.2113L16.6829 9.46102C16.8874 9.25662 17 8.98457 17 8.69522C17 8.40588 16.8874 8.13383 16.6829 7.92935Z" fill="#28ad99"/>
</g>
<defs>
<clipPath id="clip0_163_11340">
<rect width="16" height="16" fill="white" transform="translate(4 4)"/>
</clipPath>
</defs>
</svg>
