<svg xmlns="http://www.w3.org/2000/svg" width="20" height="20" viewBox="0 0 21 20" fill="currentColor">
<path fill-rule="evenodd" clip-rule="evenodd" d="M13.1605 3.1376C14.1441 2.15408 15.7386 2.15409 16.7222 3.1376C17.7057 4.12112 17.7057 5.71572 16.7222 6.69923L7.76465 15.6567C7.75388 15.6675 7.74323 15.6782 7.73269 15.6887C7.56453 15.8571 7.42353 15.9983 7.25638 16.1085C7.10921 16.2056 6.94959 16.2823 6.78187 16.3366C6.59138 16.3982 6.39305 16.4201 6.15652 16.4463C6.14169 16.4479 6.12671 16.4496 6.11158 16.4512L3.81604 16.7063C3.63489 16.7264 3.4544 16.6631 3.32552 16.5342C3.19664 16.4053 3.13333 16.2249 3.15345 16.0437L3.40851 13.7482C3.4102 13.733 3.41185 13.718 3.41349 13.7032C3.43961 13.4667 3.46152 13.2684 3.52318 13.0779C3.57748 12.9102 3.65419 12.7505 3.75124 12.6034C3.86147 12.4362 4.00266 12.2952 4.17104 12.1271C4.18159 12.1165 4.19226 12.1059 4.20303 12.0951L13.1605 3.1376ZM15.8736 3.98613C15.3587 3.47124 14.5239 3.47124 14.0091 3.98613L5.05155 12.9436C4.83502 13.1602 4.78759 13.2116 4.75304 13.264C4.71551 13.3209 4.68585 13.3826 4.66485 13.4475C4.64552 13.5072 4.63499 13.5763 4.60117 13.8807L4.42894 15.4308L5.97906 15.2586C6.28341 15.2248 6.35258 15.2142 6.41229 15.1949C6.47714 15.1739 6.53886 15.1442 6.59577 15.1067C6.64816 15.0722 6.69959 15.0247 6.91613 14.8082L15.8736 5.8507C16.3885 5.33582 16.3885 4.50102 15.8736 3.98613Z" fill="currentColor"/>
</svg>