<svg width="20" height="20" viewBox="0 0 20 20" fill="none" xmlns="http://www.w3.org/2000/svg">
<path d="M3.25506 13.8145C3.28622 13.534 3.3018 13.3938 3.34423 13.2627C3.38188 13.1464 3.43507 13.0358 3.50236 12.9337C3.5782 12.8187 3.67797 12.7189 3.8775 12.5194L12.835 3.5619C13.5842 2.8127 14.7989 2.8127 15.5481 3.5619C16.2973 4.3111 16.2973 5.5258 15.5481 6.27501L6.59061 15.2325C6.39107 15.432 6.2913 15.5318 6.17629 15.6076C6.07425 15.6749 5.96358 15.7281 5.8473 15.7658C5.71622 15.8082 5.57599 15.8238 5.29553 15.8549L3 16.11L3.25506 13.8145Z" stroke="#646464" stroke-width="1.2" stroke-linecap="round" stroke-linejoin="round"/>
</svg>
