<svg width="17" height="16" viewBox="0 0 17 16" fill="none" xmlns="http://www.w3.org/2000/svg">
<g clip-path="url(#clip0_11382_12415)">
<path d="M9.9646 4.6796L4.46245 10.1821C4.43477 10.2099 4.41479 10.245 4.40527 10.2826L3.79541 12.7305C3.77716 12.8042 3.79882 12.8825 3.85259 12.9363C3.89328 12.977 3.94872 12.9995 4.00544 12.9995C4.02281 12.9995 4.04057 12.9974 4.05786 12.993L6.50571 12.3831C6.54386 12.3736 6.57852 12.3536 6.6062 12.326L12.1088 6.82382L9.9646 4.6796Z" fill="#28ad99"/>
<path d="M13.4719 3.92935L12.8595 3.31687C12.4501 2.90752 11.7367 2.90792 11.3278 3.31687L10.5775 4.06712L12.7217 6.21127L13.4719 5.46102C13.6764 5.25662 13.789 4.98457 13.789 4.69522C13.789 4.40588 13.6764 4.13383 13.4719 3.92935Z" fill="#28ad99"/>
</g>
<defs>
<clipPath id="clip0_11382_12415">
<rect width="16" height="16" fill="white" transform="translate(0.789062)"/>
</clipPath>
</defs>
</svg>
