<svg width="15" height="15" viewBox="0 0 15 15" fill="none" xmlns="http://www.w3.org/2000/svg">
<path fill-rule="evenodd" clip-rule="evenodd" d="M10.4107 1.13754C11.3942 0.154023 12.9888 0.154024 13.9723 1.13754C14.9558 2.12106 14.9558 3.71566 13.9723 4.69917L5.01478 13.6567C5.004 13.6674 4.99335 13.6781 4.98281 13.6887C4.81465 13.857 4.67365 13.9982 4.5065 14.1084C4.35933 14.2055 4.19971 14.2822 4.032 14.3365C3.8415 14.3982 3.64317 14.4201 3.40664 14.4462C3.39181 14.4478 3.37683 14.4495 3.3617 14.4512L1.06617 14.7062C0.88501 14.7264 0.704527 14.6631 0.575642 14.5342C0.446758 14.4053 0.383448 14.2248 0.403576 14.0436L0.658635 11.7481C0.660318 11.733 0.661973 11.718 0.663611 11.7032C0.689735 11.4666 0.71164 11.2683 0.773307 11.0778C0.827602 10.9101 0.904317 10.7505 1.00137 10.6033C1.11159 10.4362 1.25278 10.2952 1.42116 10.127C1.43172 10.1165 1.44238 10.1058 1.45315 10.095L10.4107 1.13754ZM13.1238 1.98607C12.6089 1.47118 11.7741 1.47118 11.2592 1.98607L2.30167 10.9436C2.08514 11.1601 2.03771 11.2115 2.00316 11.2639C1.96563 11.3208 1.93597 11.3825 1.91497 11.4474C1.89565 11.5071 1.88511 11.5763 1.8513 11.8806L1.67906 13.4307L3.22918 13.2585C3.53353 13.2247 3.6027 13.2142 3.66241 13.1948C3.72726 13.1738 3.78898 13.1442 3.84589 13.1067C3.89828 13.0721 3.94972 13.0247 4.16625 12.8081L13.1238 3.85064C13.6386 3.33576 13.6386 2.50096 13.1238 1.98607Z" fill="#28ad99"/>
</svg>