<svg width="20" height="20" viewBox="0 0 20 20" fill="none" xmlns="http://www.w3.org/2000/svg">
<path fill-rule="evenodd" clip-rule="evenodd" d="M3.51729 4.89455C3.84851 4.56333 4.29773 4.37726 4.76614 4.37726H9.31137C9.56957 4.37726 9.77888 4.58657 9.77888 4.84477C9.77888 5.10297 9.56957 5.31228 9.31137 5.31228H4.76614C4.54572 5.31228 4.33432 5.39984 4.17845 5.55571C4.02258 5.71157 3.93502 5.92297 3.93502 6.1434V15.2339C3.93502 15.4543 4.02258 15.6657 4.17845 15.8215C4.33432 15.9774 4.54572 16.065 4.76614 16.065H13.8566C14.077 16.065 14.2884 15.9774 14.4443 15.8215C14.6002 15.6657 14.6877 15.4543 14.6877 15.2339V10.6886C14.6877 10.4304 14.897 10.2211 15.1552 10.2211C15.4134 10.2211 15.6227 10.4304 15.6227 10.6886V15.2339C15.6227 15.7023 15.4367 16.1515 15.1054 16.4827C14.7742 16.8139 14.325 17 13.8566 17H4.76614C4.29773 17 3.84851 16.8139 3.51729 16.4827C3.18608 16.1515 3 15.7023 3 15.2339V6.1434C3 5.67499 3.18608 5.22577 3.51729 4.89455Z" fill="#202020"/>
<path fill-rule="evenodd" clip-rule="evenodd" d="M15.1552 3.93502C14.9139 3.93502 14.6825 4.03088 14.5118 4.20152L8.43488 10.2785L8.00595 11.9942L9.72168 11.5653L15.7986 5.48832C15.9693 5.31768 16.0651 5.08624 16.0651 4.84492C16.0651 4.6036 15.9693 4.37216 15.7986 4.20152C15.628 4.03088 15.3966 3.93502 15.1552 3.93502ZM13.8507 3.54036C14.1967 3.19437 14.6659 3 15.1552 3C15.6445 3 16.1138 3.19437 16.4598 3.54036C16.8058 3.88635 17.0002 4.35562 17.0002 4.84492C17.0002 5.33422 16.8058 5.80349 16.4598 6.14947L10.2913 12.318C10.2314 12.3779 10.1563 12.4204 10.0741 12.441L7.47681 13.0903C7.3175 13.1301 7.14896 13.0834 7.03284 12.9673C6.91672 12.8512 6.87004 12.6827 6.90987 12.5233L7.55919 9.92607C7.57974 9.84387 7.62225 9.7688 7.68216 9.70888L13.8507 3.54036Z" fill="#202020"/>
</svg>
