<svg width="20" height="20" viewBox="0 0 20 20" fill="none" xmlns="http://www.w3.org/2000/svg">
<path fill-rule="evenodd" clip-rule="evenodd" d="M12.9934 3.2732C14.0244 2.24226 15.6959 2.24227 16.7268 3.27321C17.7577 4.30415 17.7577 5.97563 16.7268 7.00657L7.33739 16.396C7.3261 16.4073 7.31493 16.4184 7.30388 16.4295C7.12762 16.606 6.97982 16.754 6.8046 16.8695C6.65034 16.9713 6.48303 17.0517 6.30722 17.1086C6.10754 17.1732 5.89965 17.1962 5.65171 17.2236C5.63617 17.2253 5.62047 17.227 5.6046 17.2288L3.19839 17.4961C3.0085 17.5172 2.81931 17.4509 2.68421 17.3158C2.54911 17.1807 2.48275 16.9915 2.50385 16.8016L2.77121 14.3954C2.77297 14.3795 2.77471 14.3638 2.77642 14.3483C2.80381 14.1003 2.82677 13.8925 2.89141 13.6928C2.94832 13.517 3.02874 13.3497 3.13046 13.1954C3.24601 13.0202 3.394 12.8724 3.5705 12.6961C3.58156 12.6851 3.59274 12.6739 3.60403 12.6626L12.9934 3.2732ZM15.8374 4.16265C15.2976 3.62293 14.4226 3.62293 13.8829 4.16265L4.49347 13.5521C4.2665 13.779 4.21678 13.8329 4.18056 13.8879C4.14122 13.9475 4.11013 14.0122 4.08812 14.0802C4.06786 14.1428 4.05682 14.2153 4.02137 14.5343L3.84083 16.1592L5.4657 15.9786C5.78472 15.9432 5.85723 15.9321 5.91981 15.9119C5.9878 15.8899 6.05249 15.8588 6.11214 15.8194C6.16706 15.7832 6.22097 15.7335 6.44795 15.5065L15.8374 6.11713C16.3771 5.57741 16.3771 4.70236 15.8374 4.16265Z" fill="#61646C"/>
</svg>
