<svg width="16" height="16" viewBox="0 0 16 16" fill="none" xmlns="http://www.w3.org/2000/svg">
<path fill-rule="evenodd" clip-rule="evenodd" d="M15.0482 13.137H9.15944V12.0231H15.0482V13.137Z" fill="#999999"/>
<path fill-rule="evenodd" clip-rule="evenodd" d="M4.90661 2.01383C3.94944 2.01383 3.17351 2.78976 3.17351 3.74693V5.38269H2.05958V3.74693C2.05958 2.17456 3.33424 0.899902 4.90661 0.899902C6.47898 0.899902 7.75363 2.17456 7.75363 3.74693V6.61803C9.35649 6.59113 10.6852 7.70618 11.1879 9.24097L11.236 9.14484C11.9579 7.70079 13.4339 6.78864 15.0483 6.78864V7.90256C13.8558 7.90256 12.7656 8.57633 12.2323 9.64296L11.7939 10.5198H10.3386L10.2261 9.95643C9.95541 8.60299 8.93371 7.71513 7.75363 7.73568V11.5986C7.75363 13.5323 6.18603 15.0999 4.25231 15.0999H3.92515C2.1721 15.0999 0.750977 13.6787 0.750977 11.9257C0.750977 10.4224 1.70527 9.29768 2.87328 8.49244C3.98794 7.72398 5.38574 7.18044 6.63971 6.81229V3.74693C6.63971 2.78976 5.86378 2.01383 4.90661 2.01383ZM6.63971 7.97625C5.53625 8.32161 4.39833 8.79404 3.50554 9.40954C2.47291 10.1214 1.8649 10.9525 1.8649 11.9257C1.8649 13.0635 2.78731 13.986 3.92515 13.986H4.25231C5.57083 13.986 6.63971 12.9171 6.63971 11.5986V7.97625Z" fill="#999999"/>
</svg>
