<svg width="24px" height="24px" viewBox="0 0 24 24" version="1.1" xmlns="http://www.w3.org/2000/svg" xmlns:xlink="http://www.w3.org/1999/xlink">
    <title>icon_ sendemail_landlord</title>
    <g id="Non-app-user-treatment" stroke="none" stroke-width="1" fill="none" fill-rule="evenodd">
        <g id="Start-a-Convo" transform="translate(-1400.000000, -274.000000)" fill="#28ad99" fill-rule="nonzero">
            <g id="Group-66" transform="translate(1065.000000, 253.000000)">
                <g id="Group-33" transform="translate(52.000000, 17.000000)">
                    <g id="icon_-sendemail_landlord" transform="translate(283.000000, 4.000000)">
                        <path d="M3.06658749,7.081376 C3.0232344,7.214248 3,7.354704 3,7.5 L3,16.5 C3,16.90448 3.1801242,17.2716 3.4729527,17.54136 L9.148953,12.037384 L3.06658749,7.081376 Z" id="Path"></path>
                        <path d="M4.6875,18 C4.635264,18 4.583595,17.99792 4.532565,17.99376 L9.97824,12.713104 L10.137531,12.842896 C11.191305,13.70152 12.80874,13.70152 13.86246,12.842896 L14.02176,12.713104 L19.46739,17.99376 C19.41645,17.99792 19.3647,18 19.3125,18 L4.6875,18 Z" id="Path"></path>
                        <path d="M20.52705,17.54136 C20.81991,17.2716 21,16.90448 21,16.5 L21,7.5 C21,7.354704 20.97678,7.214248 20.9334,7.081376 L14.85102,12.037384 L20.52705,17.54136 Z" id="Path"></path>
                        <path d="M3.6375078,6.3256528 C3.925677,6.1218112 4.290582,6 4.6875,6 L19.3125,6 C19.7094,6 20.07435,6.1218112 20.36253,6.3256528 L13.17828,12.179456 C12.51165,12.722672 11.488377,12.722672 10.821711,12.179456 L3.6375078,6.3256528 Z" id="Path"></path>
                    </g>
                </g>
            </g>
        </g>
    </g>
</svg>

