<svg width="12" height="12" viewBox="0 0 12 12" fill="none" xmlns="http://www.w3.org/2000/svg">
<g clip-path="url(#clip0_3218_77646)">
<path d="M7.00287 7.35216C6.70432 7.55119 6.35754 7.6564 6 7.6564C5.64248 7.6564 5.2957 7.55119 4.99716 7.35216L0.0798984 4.07388C0.0527532 4.05573 0.0261104 4.03684 0 4.01724L0 9.38904C0 10.0049 0.499805 10.4937 1.10468 10.4937H10.8953C11.5112 10.4937 12 9.99392 12 9.38904V4.01721C11.9738 4.03687 11.9471 4.0558 11.9199 4.07398L7.00287 7.35216Z" fill="#646464"/>
<path d="M0.469922 3.48885L5.38718 6.76715C5.57332 6.89125 5.78665 6.95329 5.99998 6.95329C6.21333 6.95329 6.42668 6.89123 6.61282 6.76715L11.5301 3.48885C11.8243 3.2928 12 2.96467 12 2.61053C12 2.0016 11.5046 1.50623 10.8957 1.50623H1.10431C0.495399 1.50625 5.81274e-07 2.00162 5.81274e-07 2.61112C-0.000181964 2.78484 0.0426335 2.9559 0.124628 3.10905C0.206623 3.26221 0.325248 3.39268 0.469922 3.48885Z" fill="#646464"/>
</g>
<defs>
<clipPath id="clip0_3218_77646">
<rect width="12" height="12" fill="white"/>
</clipPath>
</defs>
</svg>
