<svg width="16" height="16" viewBox="0 0 16 16" fill="none" xmlns="http://www.w3.org/2000/svg">
<path fill-rule="evenodd" clip-rule="evenodd" d="M15.1485 13.137H9.25978V12.0231H15.1485V13.137Z" fill="#202020"/>
<path fill-rule="evenodd" clip-rule="evenodd" d="M5.00695 2.01383C4.04978 2.01383 3.27385 2.78976 3.27385 3.74693V5.38269H2.15993V3.74693C2.15993 2.17456 3.43458 0.899902 5.00695 0.899902C6.57932 0.899902 7.85398 2.17456 7.85398 3.74693V6.61803C9.45683 6.59113 10.7855 7.70618 11.2882 9.24097L11.3363 9.14484C12.0583 7.70079 13.5342 6.78864 15.1487 6.78864V7.90256C13.9561 7.90256 12.8659 8.57633 12.3327 9.64296L11.8942 10.5198H10.439L10.3264 9.95643C10.0558 8.60299 9.03406 7.71513 7.85398 7.73568V11.5986C7.85398 13.5323 6.28638 15.0999 4.35265 15.0999H4.0255C2.27244 15.0999 0.851318 13.6787 0.851318 11.9257C0.851318 10.4224 1.80561 9.29768 2.97362 8.49244C4.08828 7.72398 5.48608 7.18044 6.74005 6.81229V3.74693C6.74005 2.78976 5.96412 2.01383 5.00695 2.01383ZM6.74005 7.97625C5.63659 8.32161 4.49867 8.79404 3.60588 9.40954C2.57325 10.1214 1.96524 10.9525 1.96524 11.9257C1.96524 13.0635 2.88765 13.986 4.0255 13.986H4.35265C5.67118 13.986 6.74005 12.9171 6.74005 11.5986V7.97625Z" fill="#202020"/>
</svg>
