<?xml version="1.0" encoding="UTF-8"?>
<svg width="51px" height="47px" viewBox="0 0 51 47" version="1.1" xmlns="http://www.w3.org/2000/svg" xmlns:xlink="http://www.w3.org/1999/xlink">
    <title>Emergency</title>
    <g id="New-Property-Menu" stroke="none" stroke-width="1" fill="none" fill-rule="evenodd">
        <g id="Pre-defined-Topic-Icons" transform="translate(-69.000000, -159.000000)" fill="#FFFFFF">
            <g id="Emergency" transform="translate(69.000000, 159.000000)">
                <path d="M21.1826425,2.5753402 C23.1013913,-0.858446734 27.8985005,-0.858446734 29.8172494,2.5753402 L50.3246779,39.2740503 C52.2434268,42.7076482 49.8451092,47 46.0073745,47 L4.99265966,47 C1.15504341,47 -1.24348748,42.7076482 0.675332494,39.2740503 L21.1826425,2.5753402 Z M28.6096751,38.7362663 C28.6096751,40.4478693 27.2731411,41.835196 25.6244015,41.835196 C23.9756619,41.835196 22.6391279,40.4478693 22.6391279,38.7362663 C22.6391279,37.0248995 23.9756619,35.6373367 25.6244015,35.6373367 C27.2731411,35.6373367 28.6096751,37.0248995 28.6096751,38.7362663 Z M25.6244015,13.9450653 C23.4792621,13.9450653 21.7902226,15.7679095 21.9613786,17.8982613 L22.9382953,30.0677186 C23.0501868,31.4630754 24.2193577,32.538407 25.6244015,32.538407 C27.0294453,32.538407 28.1986162,31.4630754 28.3105077,30.0677186 L29.2876614,17.8982613 C29.4585804,15.7679095 27.7695409,13.9450653 25.6244015,13.9450653 Z" id="Shape"></path>
            </g>
        </g>
    </g>
</svg>