<svg width="20" height="20" viewBox="0 0 20 20" fill="none" xmlns="http://www.w3.org/2000/svg">
<path fill-rule="evenodd" clip-rule="evenodd" d="M11.0722 1.1163C11.3165 1.22236 11.4616 1.47681 11.4286 1.7411L10.6796 7.73335H17.4999C17.7327 7.73335 17.9445 7.86803 18.0433 8.07886C18.142 8.28969 18.1099 8.53861 17.9608 8.71746L9.62751 18.7175C9.45699 18.9221 9.17199 18.9898 8.92766 18.8837C8.68333 18.7777 8.53817 18.5232 8.57121 18.2589L9.32024 12.2667H2.49991C2.2671 12.2667 2.0553 12.132 1.95656 11.9212C1.85781 11.7103 1.88994 11.4614 2.03898 11.2826L10.3723 1.28257C10.5428 1.07795 10.8278 1.01024 11.0722 1.1163ZM3.78093 11.0667H9.99991C10.172 11.0667 10.3358 11.1406 10.4497 11.2696C10.5636 11.3986 10.6166 11.5703 10.5953 11.7411L10.0158 16.3771L16.2189 8.93335H9.99991C9.82781 8.93335 9.664 8.85945 9.5501 8.73043C9.43621 8.60141 9.3832 8.4297 9.40454 8.25893L9.98404 3.62296L3.78093 11.0667Z" fill="#646464"/>
</svg>
