<svg width="24" height="24" viewBox="0 0 24 24" fill="none" xmlns="http://www.w3.org/2000/svg">
<path d="M16.9498 7.05023C15.6276 5.72814 13.8698 5 12 5C10.1302 5 8.37239 5.72814 7.05023 7.05023C5.72814 8.37239 5 10.1302 5 12C5 13.8698 5.72814 15.6276 7.05023 16.9498C8.37239 18.2719 10.1302 19 12 19C13.8698 19 15.6276 18.2719 16.9498 16.9498C18.2719 15.6276 19 13.8698 19 12C19 10.1302 18.2719 8.37239 16.9498 7.05023ZM12 17.9062C8.74328 17.9062 6.09375 15.2567 6.09375 12C6.09375 8.74328 8.74328 6.09375 12 6.09375C15.2567 6.09375 17.9062 8.74328 17.9062 12C17.9062 15.2567 15.2567 17.9062 12 17.9062Z" fill="#202020"/>
<path d="M15.0903 12.814C15.0883 12.8199 14.8907 13.4054 14.4062 13.9732C13.7894 14.6959 13.0022 15.0623 12.0663 15.0623C11.1236 15.0623 10.3109 14.6915 9.65092 13.9603C9.13357 13.3871 8.9052 12.7971 8.90361 12.793L7.87891 13.1755C7.89039 13.2062 8.16692 13.9354 8.80895 14.6595C9.67703 15.6386 10.8034 16.1561 12.0663 16.1561C13.3354 16.1561 14.4426 15.6345 15.2682 14.6476C15.8785 13.9182 16.1204 13.1834 16.1304 13.1525L15.0903 12.814Z" fill="#202020"/>
<path d="M9.59375 10.801C10.077 10.801 10.4688 10.4093 10.4688 9.92603C10.4688 9.44278 10.077 9.05103 9.59375 9.05103C9.1105 9.05103 8.71875 9.44278 8.71875 9.92603C8.71875 10.4093 9.1105 10.801 9.59375 10.801Z" fill="#202020"/>
<path d="M14.4062 10.801C14.8895 10.801 15.2812 10.4093 15.2812 9.92603C15.2812 9.44278 14.8895 9.05103 14.4062 9.05103C13.923 9.05103 13.5312 9.44278 13.5312 9.92603C13.5312 10.4093 13.923 10.801 14.4062 10.801Z" fill="#202020"/>
</svg>
