<svg width="242" height="186" viewBox="0 0 242 186" fill="none" xmlns="http://www.w3.org/2000/svg">
<path d="M181.5 10H61.5C55.9772 10 51.5 14.4772 51.5 20V140C51.5 145.523 55.9772 150 61.5 150H181.5C187.023 150 191.5 145.523 191.5 140V20C191.5 14.4772 187.023 10 181.5 10Z" fill="#E7EAED"/>
<g filter="url(#filter0_dd_2478_179872)">
<rect x="68.5" y="63" width="145" height="35" rx="5" fill="white"/>
<path d="M95.5 66H76.5C73.7386 66 71.5 68.2386 71.5 71V90C71.5 92.7614 73.7386 95 76.5 95H95.5C98.2614 95 100.5 92.7614 100.5 90V71C100.5 68.2386 98.2614 66 95.5 66Z" fill="#E7EAED"/>
<path d="M137.5 71H111.5C109.843 71 108.5 72.3431 108.5 74C108.5 75.6569 109.843 77 111.5 77H137.5C139.157 77 140.5 75.6569 140.5 74C140.5 72.3431 139.157 71 137.5 71Z" fill="#D8DCDF"/>
<path d="M155.5 84H111.5C109.843 84 108.5 85.3431 108.5 87C108.5 88.6569 109.843 90 111.5 90H155.5C157.157 90 158.5 88.6569 158.5 87C158.5 85.3431 157.157 84 155.5 84Z" fill="#F2F5F7"/>
</g>
<g filter="url(#filter1_dd_2478_179872)">
<rect x="28.5" y="20" width="145" height="35" rx="5" fill="white"/>
<path d="M55.5 23H36.5C33.7386 23 31.5 25.2386 31.5 28V47C31.5 49.7614 33.7386 52 36.5 52H55.5C58.2614 52 60.5 49.7614 60.5 47V28C60.5 25.2386 58.2614 23 55.5 23Z" fill="#E7EAED"/>
<path d="M97.5 28H71.5C69.8431 28 68.5 29.3431 68.5 31C68.5 32.6569 69.8431 34 71.5 34H97.5C99.1569 34 100.5 32.6569 100.5 31C100.5 29.3431 99.1569 28 97.5 28Z" fill="#D8DCDF"/>
<path d="M115.5 41H71.5C69.8431 41 68.5 42.3431 68.5 44C68.5 45.6569 69.8431 47 71.5 47H115.5C117.157 47 118.5 45.6569 118.5 44C118.5 42.3431 117.157 41 115.5 41Z" fill="#F2F5F7"/>
</g>
<g filter="url(#filter2_dd_2478_179872)">
<rect x="28.5" y="106" width="145" height="35" rx="5" fill="white"/>
<path d="M55.5 109H36.5C33.7386 109 31.5 111.239 31.5 114V133C31.5 135.761 33.7386 138 36.5 138H55.5C58.2614 138 60.5 135.761 60.5 133V114C60.5 111.239 58.2614 109 55.5 109Z" fill="#E7EAED"/>
<path d="M97.5 114H71.5C69.8431 114 68.5 115.343 68.5 117C68.5 118.657 69.8431 120 71.5 120H97.5C99.1569 120 100.5 118.657 100.5 117C100.5 115.343 99.1569 114 97.5 114Z" fill="#D8DCDF"/>
<path d="M115.5 127H71.5C69.8431 127 68.5 128.343 68.5 130C68.5 131.657 69.8431 133 71.5 133H115.5C117.157 133 118.5 131.657 118.5 130C118.5 128.343 117.157 127 115.5 127Z" fill="#F2F5F7"/>
</g>
<defs>
<filter id="filter0_dd_2478_179872" x="40.5" y="43" width="201" height="91" filterUnits="userSpaceOnUse" color-interpolation-filters="sRGB">
<feFlood flood-opacity="0" result="BackgroundImageFix"/>
<feColorMatrix in="SourceAlpha" type="matrix" values="0 0 0 0 0 0 0 0 0 0 0 0 0 0 0 0 0 0 127 0" result="hardAlpha"/>
<feOffset dy="4"/>
<feGaussianBlur stdDeviation="6"/>
<feColorMatrix type="matrix" values="0 0 0 0 0 0 0 0 0 0 0 0 0 0 0 0 0 0 0.1 0"/>
<feBlend mode="normal" in2="BackgroundImageFix" result="effect1_dropShadow_2478_179872"/>
<feColorMatrix in="SourceAlpha" type="matrix" values="0 0 0 0 0 0 0 0 0 0 0 0 0 0 0 0 0 0 127 0" result="hardAlpha"/>
<feOffset dy="8"/>
<feGaussianBlur stdDeviation="14"/>
<feColorMatrix type="matrix" values="0 0 0 0 0 0 0 0 0 0 0 0 0 0 0 0 0 0 0.05 0"/>
<feBlend mode="normal" in2="effect1_dropShadow_2478_179872" result="effect2_dropShadow_2478_179872"/>
<feBlend mode="normal" in="SourceGraphic" in2="effect2_dropShadow_2478_179872" result="shape"/>
</filter>
<filter id="filter1_dd_2478_179872" x="0.5" y="0" width="201" height="91" filterUnits="userSpaceOnUse" color-interpolation-filters="sRGB">
<feFlood flood-opacity="0" result="BackgroundImageFix"/>
<feColorMatrix in="SourceAlpha" type="matrix" values="0 0 0 0 0 0 0 0 0 0 0 0 0 0 0 0 0 0 127 0" result="hardAlpha"/>
<feOffset dy="4"/>
<feGaussianBlur stdDeviation="6"/>
<feColorMatrix type="matrix" values="0 0 0 0 0 0 0 0 0 0 0 0 0 0 0 0 0 0 0.1 0"/>
<feBlend mode="normal" in2="BackgroundImageFix" result="effect1_dropShadow_2478_179872"/>
<feColorMatrix in="SourceAlpha" type="matrix" values="0 0 0 0 0 0 0 0 0 0 0 0 0 0 0 0 0 0 127 0" result="hardAlpha"/>
<feOffset dy="8"/>
<feGaussianBlur stdDeviation="14"/>
<feColorMatrix type="matrix" values="0 0 0 0 0 0 0 0 0 0 0 0 0 0 0 0 0 0 0.05 0"/>
<feBlend mode="normal" in2="effect1_dropShadow_2478_179872" result="effect2_dropShadow_2478_179872"/>
<feBlend mode="normal" in="SourceGraphic" in2="effect2_dropShadow_2478_179872" result="shape"/>
</filter>
<filter id="filter2_dd_2478_179872" x="0.5" y="86" width="201" height="91" filterUnits="userSpaceOnUse" color-interpolation-filters="sRGB">
<feFlood flood-opacity="0" result="BackgroundImageFix"/>
<feColorMatrix in="SourceAlpha" type="matrix" values="0 0 0 0 0 0 0 0 0 0 0 0 0 0 0 0 0 0 127 0" result="hardAlpha"/>
<feOffset dy="4"/>
<feGaussianBlur stdDeviation="6"/>
<feColorMatrix type="matrix" values="0 0 0 0 0 0 0 0 0 0 0 0 0 0 0 0 0 0 0.1 0"/>
<feBlend mode="normal" in2="BackgroundImageFix" result="effect1_dropShadow_2478_179872"/>
<feColorMatrix in="SourceAlpha" type="matrix" values="0 0 0 0 0 0 0 0 0 0 0 0 0 0 0 0 0 0 127 0" result="hardAlpha"/>
<feOffset dy="8"/>
<feGaussianBlur stdDeviation="14"/>
<feColorMatrix type="matrix" values="0 0 0 0 0 0 0 0 0 0 0 0 0 0 0 0 0 0 0.05 0"/>
<feBlend mode="normal" in2="effect1_dropShadow_2478_179872" result="effect2_dropShadow_2478_179872"/>
<feBlend mode="normal" in="SourceGraphic" in2="effect2_dropShadow_2478_179872" result="shape"/>
</filter>
</defs>
</svg>
