<svg width="134" height="100" viewBox="0 0 134 100" fill="none" xmlns="http://www.w3.org/2000/svg">
<g id="Exp-3.-G">
<g id="Vector">
<path fill-rule="evenodd" clip-rule="evenodd" d="M119.285 31.2801H14.7153V79.6749C14.7153 81.9833 16.229 84.0197 18.4406 84.6838C28.9473 87.8339 58.4934 96.6988 65.4969 98.8007C66.4773 99.0935 67.523 99.0935 68.5033 98.8007C75.5069 96.6988 105.053 87.8339 115.56 84.6838C117.771 84.0197 119.285 81.9833 119.285 79.6749C119.285 67.5553 119.285 31.2801 119.285 31.2801Z" fill="url(#paint0_linear_5459_28019)"/>
<path fill-rule="evenodd" clip-rule="evenodd" d="M119.285 31.2801H14.7153V79.6749C14.7153 81.9833 16.229 84.0197 18.4406 84.6838C28.9473 87.8339 58.4934 96.6988 65.4969 98.8007C66.4773 99.0935 67.523 99.0935 68.5033 98.8007C75.5069 96.6988 105.053 87.8339 115.56 84.6838C117.771 84.0197 119.285 81.9833 119.285 79.6749C119.285 67.5553 119.285 31.2801 119.285 31.2801Z" fill="url(#paint1_linear_5459_28019)"/>
</g>
<g id="Vector_2">
<path fill-rule="evenodd" clip-rule="evenodd" d="M119.285 31.2801H66.9998C66.9998 31.2801 66.4927 99.0203 66.9998 99.0203C67.507 99.0203 68.0115 98.9471 68.503 98.8007C75.5066 96.6988 105.053 87.8339 115.559 84.6838C117.771 84.0197 119.285 81.9833 119.285 79.6749C119.285 67.5553 119.285 31.2801 119.285 31.2801Z" fill="url(#paint2_linear_5459_28019)"/>
<path fill-rule="evenodd" clip-rule="evenodd" d="M119.285 31.2801H66.9998C66.9998 31.2801 66.4927 99.0203 66.9998 99.0203C67.507 99.0203 68.0115 98.9471 68.503 98.8007C75.5066 96.6988 105.053 87.8339 115.559 84.6838C117.771 84.0197 119.285 81.9833 119.285 79.6749C119.285 67.5553 119.285 31.2801 119.285 31.2801Z" fill="url(#paint3_linear_5459_28019)"/>
</g>
<g id="Vector_3">
<path fill-rule="evenodd" clip-rule="evenodd" d="M67 48.2439L14.7152 31.2801C14.7152 31.2801 5.54707 44.8741 1.44794 50.9496C0.987838 51.6319 0.875425 52.4868 1.14208 53.2632C1.41134 54.0397 2.02569 54.6436 2.80735 54.8997C12.7388 58.1257 42.1386 67.6782 49.8506 70.1826C50.9564 70.5434 52.1694 70.1277 52.823 69.163C56.3287 63.9895 67 48.2439 67 48.2439Z" fill="url(#paint4_linear_5459_28019)"/>
<path fill-rule="evenodd" clip-rule="evenodd" d="M67 48.2439L14.7152 31.2801C14.7152 31.2801 5.54707 44.8741 1.44794 50.9496C0.987838 51.6319 0.875425 52.4868 1.14208 53.2632C1.41134 54.0397 2.02569 54.6436 2.80735 54.8997C12.7388 58.1257 42.1386 67.6782 49.8506 70.1826C50.9564 70.5434 52.1694 70.1277 52.823 69.163C56.3287 63.9895 67 48.2439 67 48.2439Z" fill="url(#paint5_linear_5459_28019)"/>
</g>
<g id="Vector_4">
<path fill-rule="evenodd" clip-rule="evenodd" d="M119.285 31.2801L67 48.2439C67 48.2439 77.6713 63.9895 81.177 69.163C81.8306 70.1277 83.0436 70.5434 84.1494 70.1826C91.8614 67.6782 121.261 58.1257 131.193 54.8997C131.974 54.6436 132.589 54.0397 132.858 53.2632C133.125 52.4868 133.012 51.6319 132.552 50.9496C128.453 44.8741 119.285 31.2801 119.285 31.2801Z" fill="url(#paint6_linear_5459_28019)"/>
<path fill-rule="evenodd" clip-rule="evenodd" d="M119.285 31.2801L67 48.2439C67 48.2439 77.6713 63.9895 81.177 69.163C81.8306 70.1277 83.0436 70.5434 84.1494 70.1826C91.8614 67.6782 121.261 58.1257 131.193 54.8997C131.974 54.6436 132.589 54.0397 132.858 53.2632C133.125 52.4868 133.012 51.6319 132.552 50.9496C128.453 44.8741 119.285 31.2801 119.285 31.2801Z" fill="url(#paint7_linear_5459_28019)"/>
</g>
<path id="Vector_5" fill-rule="evenodd" clip-rule="evenodd" d="M52.9995 1.49984C51.8746 0.499839 50.4995 -0.149437 48.4995 0.499775C40.7927 3.0016 11.9317 11.0303 2.00022 14.2589C1.21856 14.5124 0.601601 15.1163 0.334949 15.8928C0.0682964 16.6692 0.180709 17.5267 0.640815 18.2064C5.49951 22.9999 14.7152 31.2802 14.7152 31.2802L66.9999 14.2589C66.9999 14.2589 57.4995 5.49984 52.9995 1.49984Z" fill="url(#paint8_linear_5459_28019)"/>
<path id="Vector_6" fill-rule="evenodd" clip-rule="evenodd" d="M80.9995 1.53486C82.1244 0.534861 83.4995 -0.114415 85.4995 0.534796C93.2063 3.03662 122.067 11.0653 131.999 14.2939C132.78 14.5475 133.397 15.1514 133.664 15.9278C133.931 16.7042 133.818 17.5617 133.358 18.2414C128.5 23.0349 119.284 31.3152 119.284 31.3152L66.9995 14.274C66.9995 14.274 76.4995 5.53486 80.9995 1.53486Z" fill="url(#paint9_linear_5459_28019)"/>
<g id="Vector_7">
<path fill-rule="evenodd" clip-rule="evenodd" d="M119.285 31.28L67.0001 14.2587L14.7153 31.28L67.0001 48.2438L119.285 31.28Z" fill="url(#paint10_linear_5459_28019)"/>
<path fill-rule="evenodd" clip-rule="evenodd" d="M119.285 31.28L67.0001 14.2587L14.7153 31.28L67.0001 48.2438L119.285 31.28Z" fill="url(#paint11_linear_5459_28019)"/>
</g>
<g id="Vector_8">
<path fill-rule="evenodd" clip-rule="evenodd" d="M67.0001 48.2438V14.2587L14.7153 31.28L67.0001 48.2438Z" fill="url(#paint12_linear_5459_28019)"/>
<path fill-rule="evenodd" clip-rule="evenodd" d="M67.0001 48.2438V14.2587L14.7153 31.28L67.0001 48.2438Z" fill="url(#paint13_linear_5459_28019)"/>
</g>
</g>
<defs>
<linearGradient id="paint0_linear_5459_28019" x1="14.7153" y1="65.1502" x2="119.285" y2="65.1502" gradientUnits="userSpaceOnUse">
<stop stop-color="#CADCF0"/>
<stop offset="1" stop-color="#A4BBDB"/>
</linearGradient>
<linearGradient id="paint1_linear_5459_28019" x1="30.9236" y1="117.506" x2="22.473" y2="39.2548" gradientUnits="userSpaceOnUse">
<stop stop-color="#E7E7E7"/>
<stop offset="1" stop-color="#C9C9C9"/>
</linearGradient>
<linearGradient id="paint2_linear_5459_28019" x1="66.775" y1="65.1502" x2="119.285" y2="65.1502" gradientUnits="userSpaceOnUse">
<stop stop-color="#A4BBDB"/>
<stop offset="1" stop-color="#8DA3BE"/>
</linearGradient>
<linearGradient id="paint3_linear_5459_28019" x1="78.0191" y1="43.8189" x2="173.423" y2="97.746" gradientUnits="userSpaceOnUse">
<stop stop-color="#C8C8C8"/>
<stop offset="1" stop-color="#ABABAB"/>
</linearGradient>
<linearGradient id="paint4_linear_5459_28019" x1="15.0629" y1="31.2592" x2="22.3703" y2="79.6053" gradientUnits="userSpaceOnUse">
<stop stop-color="#E9F3FC"/>
<stop offset="1" stop-color="#CADCF0"/>
</linearGradient>
<linearGradient id="paint5_linear_5459_28019" x1="52.3606" y1="96.0688" x2="28.3096" y2="2.47903" gradientUnits="userSpaceOnUse">
<stop stop-color="#E7E7E7"/>
<stop offset="1" stop-color="#EEEEEE"/>
</linearGradient>
<linearGradient id="paint6_linear_5459_28019" x1="67.2118" y1="48.0661" x2="122.33" y2="79.7662" gradientUnits="userSpaceOnUse">
<stop stop-color="#E9F3FC"/>
<stop offset="1" stop-color="#CADCF0"/>
</linearGradient>
<linearGradient id="paint7_linear_5459_28019" x1="118.361" y1="96.0688" x2="94.3096" y2="2.47903" gradientUnits="userSpaceOnUse">
<stop stop-color="#E7E7E7"/>
<stop offset="1" stop-color="#EEEEEE"/>
</linearGradient>
<linearGradient id="paint8_linear_5459_28019" x1="52.6975" y1="55.5505" x2="30.7447" y2="-33.0186" gradientUnits="userSpaceOnUse">
<stop stop-color="#E7E7E7"/>
<stop offset="1" stop-color="#EEEEEE"/>
</linearGradient>
<linearGradient id="paint9_linear_5459_28019" x1="81.3015" y1="55.5855" x2="103.254" y2="-32.9837" gradientUnits="userSpaceOnUse">
<stop stop-color="#E7E7E7"/>
<stop offset="1" stop-color="#EEEEEE"/>
</linearGradient>
<linearGradient id="paint10_linear_5459_28019" x1="14.7153" y1="31.2513" x2="119.285" y2="31.2513" gradientUnits="userSpaceOnUse">
<stop stop-color="#CADCF0"/>
<stop offset="1" stop-color="#A4BBDB"/>
</linearGradient>
<linearGradient id="paint11_linear_5459_28019" x1="36.3126" y1="14.4721" x2="60.9416" y2="45.5112" gradientUnits="userSpaceOnUse">
<stop stop-color="#E7E7E7"/>
<stop offset="1" stop-color="#C9C9C9"/>
</linearGradient>
<linearGradient id="paint12_linear_5459_28019" x1="72.3541" y1="13.498" x2="73.4808" y2="55.7258" gradientUnits="userSpaceOnUse">
<stop stop-color="#A4BBDB"/>
<stop offset="1" stop-color="#8DA3BE"/>
</linearGradient>
<linearGradient id="paint13_linear_5459_28019" x1="-0.970106" y1="19.7331" x2="49.1707" y2="66.9145" gradientUnits="userSpaceOnUse">
<stop stop-color="#C8C8C8"/>
<stop offset="1" stop-color="#ABABAB"/>
</linearGradient>
</defs>
</svg>
