<svg width="30" height="34" viewBox="0 0 30 34" fill="none" xmlns="http://www.w3.org/2000/svg">
<path d="M23.3337 4.08333H22.8836C22.722 1.99333 21.3687 0.75 19.167 0.75H10.8337C8.63199 0.75 7.27869 1.99333 7.11702 4.08333H6.66699C2.63699 4.08333 0.416992 6.30333 0.416992 10.3333V27C0.416992 31.03 2.63699 33.25 6.66699 33.25H23.3337C27.3637 33.25 29.5837 31.03 29.5837 27V10.3333C29.5837 6.30333 27.3637 4.08333 23.3337 4.08333ZM9.58366 4.5C9.58366 3.51833 9.85199 3.25 10.8337 3.25H19.167C20.1487 3.25 20.417 3.51833 20.417 4.5V6.16667C20.417 7.14833 20.1487 7.41667 19.167 7.41667H10.8337C9.85199 7.41667 9.58366 7.14833 9.58366 6.16667V4.5ZM27.0837 27C27.0837 29.6283 25.962 30.75 23.3337 30.75H6.66699C4.03866 30.75 2.91699 29.6283 2.91699 27V10.3333C2.91699 7.705 4.03866 6.58333 6.66699 6.58333H7.11702C7.27869 8.67333 8.63199 9.91667 10.8337 9.91667H19.167C21.3687 9.91667 22.722 8.67333 22.8836 6.58333H23.3337C25.962 6.58333 27.0837 7.705 27.0837 10.3333V27ZM21.2503 17C21.2503 17.69 20.6903 18.25 20.0003 18.25H10.0003C9.31033 18.25 8.75033 17.69 8.75033 17C8.75033 16.31 9.31033 15.75 10.0003 15.75H20.0003C20.6903 15.75 21.2503 16.31 21.2503 17ZM17.917 23.6667C17.917 24.3567 17.357 24.9167 16.667 24.9167H10.0003C9.31033 24.9167 8.75033 24.3567 8.75033 23.6667C8.75033 22.9767 9.31033 22.4167 10.0003 22.4167H16.667C17.357 22.4167 17.917 22.9767 17.917 23.6667Z" fill="#51525C"/>
</svg>
