<svg width="40" height="40" viewBox="0 0 40 40" fill="none" xmlns="http://www.w3.org/2000/svg">
<path d="M28.3332 7.08333H27.8831C27.7215 4.99333 26.3682 3.75 24.1665 3.75H15.8332C13.6315 3.75 12.2782 4.99333 12.1165 7.08333H11.6665C7.6365 7.08333 5.4165 9.30333 5.4165 13.3333V30C5.4165 34.03 7.6365 36.25 11.6665 36.25H28.3332C32.3632 36.25 34.5832 34.03 34.5832 30V13.3333C34.5832 9.30333 32.3632 7.08333 28.3332 7.08333ZM14.5832 7.5C14.5832 6.51833 14.8515 6.25 15.8332 6.25H24.1665C25.1482 6.25 25.4165 6.51833 25.4165 7.5V9.16667C25.4165 10.1483 25.1482 10.4167 24.1665 10.4167H15.8332C14.8515 10.4167 14.5832 10.1483 14.5832 9.16667V7.5ZM32.0832 30C32.0832 32.6283 30.9615 33.75 28.3332 33.75H11.6665C9.03817 33.75 7.9165 32.6283 7.9165 30V13.3333C7.9165 10.705 9.03817 9.58333 11.6665 9.58333H12.1165C12.2782 11.6733 13.6315 12.9167 15.8332 12.9167H24.1665C26.3682 12.9167 27.7215 11.6733 27.8831 9.58333H28.3332C30.9615 9.58333 32.0832 10.705 32.0832 13.3333V30ZM26.2498 20C26.2498 20.69 25.6898 21.25 24.9998 21.25H14.9998C14.3098 21.25 13.7498 20.69 13.7498 20C13.7498 19.31 14.3098 18.75 14.9998 18.75H24.9998C25.6898 18.75 26.2498 19.31 26.2498 20ZM22.9165 26.6667C22.9165 27.3567 22.3565 27.9167 21.6665 27.9167H14.9998C14.3098 27.9167 13.7498 27.3567 13.7498 26.6667C13.7498 25.9767 14.3098 25.4167 14.9998 25.4167H21.6665C22.3565 25.4167 22.9165 25.9767 22.9165 26.6667Z" fill="#51525C"/>
</svg>
