<svg width="18" height="18" viewBox="0 0 18 18" fill="none" xmlns="http://www.w3.org/2000/svg">
<path d="M14.8736 5.13014C14.9146 5.17169 14.9457 5.21942 14.9668 5.27031C14.9882 5.32195 15 5.37857 15 5.43796V8.17518C15 8.41706 14.8039 8.61314 14.562 8.61314C14.3202 8.61314 14.1241 8.41706 14.1241 8.17518V6.49528L11.6783 8.94107C11.5073 9.1121 11.23 9.1121 11.0589 8.94107C10.8879 8.77004 10.8879 8.49274 11.0589 8.3217L13.5047 5.87591H11.8248C11.5829 5.87591 11.3869 5.67983 11.3869 5.43796C11.3869 5.19608 11.5829 5 11.8248 5H14.562C14.6733 5 14.7846 5.04214 14.8699 5.12642L14.8736 5.13014Z" fill="#3D3D3D"/>
<path d="M5.87591 11.8248C5.87591 11.5829 5.67983 11.3869 5.43796 11.3869C5.19608 11.3869 5 11.5829 5 11.8248V14.562C5 14.5696 5.00019 14.5771 5.00057 14.5846C5.00316 14.6358 5.01454 14.6846 5.03323 14.7297C5.05429 14.7806 5.08535 14.8283 5.12642 14.8699L5.13014 14.8736C5.17169 14.9146 5.21942 14.9457 5.27031 14.9668C5.32195 14.9882 5.37857 15 5.43796 15H8.17518C8.41706 15 8.61314 14.8039 8.61314 14.562C8.61314 14.3202 8.41706 14.1241 8.17518 14.1241H6.49528L8.94107 11.6783C9.1121 11.5073 9.1121 11.23 8.94107 11.0589C8.77004 10.8879 8.49274 10.8879 8.3217 11.0589L5.87591 13.5047V11.8248Z" fill="#3D3D3D"/>
<path fill-rule="evenodd" clip-rule="evenodd" d="M3 0C1.32386 0 0 1.32386 0 3V13C0 14.3691 0.955923 15.4881 2.13634 15.9094C2.51505 17.1309 3.64188 18 5 18H15C16.6761 18 18 16.6761 18 15V5C18 3.6513 17.1429 2.53069 15.9348 2.14433C15.5913 0.835426 14.4227 0 13 0H3ZM14.8123 2C14.4894 1.38915 13.8379 1 13 1H3C1.87614 1 1 1.87614 1 3V13C1 13.7104 1.40722 14.3547 2 14.7357V5C2 3.32386 3.32386 2 5 2H14.8123ZM5 3C3.87614 3 3 3.87614 3 5V15C3 16.1239 3.87614 17 5 17H15C16.1239 17 17 16.1239 17 15V5C17 3.87614 16.1239 3 15 3H5Z" fill="#3D3D3D"/>
</svg>
