<svg width="14" height="14" viewBox="0 0 14 14" fill="none" xmlns="http://www.w3.org/2000/svg">
<path d="M9.62979 11.4651C9.52041 11.4651 9.40557 11.4214 9.31807 11.3393L7.13057 9.15183C6.96104 8.98229 6.96104 8.70339 7.13057 8.53386C7.3001 8.36432 7.579 8.36432 7.74854 8.53386L9.62432 10.4096L11.5001 8.53386C11.6696 8.36432 11.9485 8.36432 12.1181 8.53386C12.2876 8.70339 12.2876 8.98229 12.1181 9.15183L9.93057 11.3393C9.854 11.4214 9.73916 11.4651 9.62979 11.4651Z" fill="#646464"/>
<path d="M9.62988 11.4653C9.38926 11.4653 9.19238 11.2881 9.19238 11.0716V6.34728C9.19238 6.13075 9.38926 5.95358 9.62988 5.95358C9.87051 5.95358 10.0674 6.13075 10.0674 6.34728V11.0716C10.0674 11.2881 9.87051 11.4653 9.62988 11.4653Z" fill="#646464"/>
<path d="M6.12988 7.29718H2.19238C1.95176 7.29718 1.75488 7.10031 1.75488 6.85968C1.75488 6.61906 1.95176 6.42218 2.19238 6.42218H6.12988C6.37051 6.42218 6.56738 6.61906 6.56738 6.85968C6.56738 7.10031 6.37051 7.29718 6.12988 7.29718Z" fill="#646464"/>
<path d="M9.62988 4.33127H2.19238C1.95176 4.33127 1.75488 4.13439 1.75488 3.89377C1.75488 3.65314 1.95176 3.45627 2.19238 3.45627H9.62988C9.87051 3.45627 10.0674 3.65314 10.0674 3.89377C10.0674 4.13439 9.87051 4.33127 9.62988 4.33127Z" fill="#646464"/>
<path d="M5.25488 10.3581H2.19238C1.95176 10.3581 1.75488 10.1612 1.75488 9.92062C1.75488 9.68 1.95176 9.48312 2.19238 9.48312H5.25488C5.49551 9.48312 5.69238 9.68 5.69238 9.92062C5.69238 10.1612 5.49551 10.3581 5.25488 10.3581Z" fill="#646464"/>
</svg>
