<svg width="24" height="16" viewBox="0 0 24 16" fill="none" xmlns="http://www.w3.org/2000/svg">
<path d="M12 0.00012207C6.86912 0.00012207 2.40029 3.22272 0 8.00022C2.40029 12.7786 6.86912 16 12 16C17.1309 16 21.5997 12.7786 24 8.00022C21.5997 3.22301 17.1309 0.00012207 12 0.00012207ZM12 14.0002C8.13867 14.0002 4.49221 11.7256 2.27848 8.00022C4.49215 4.27483 8.13867 2.00022 12 2.00022C15.8613 2.00022 19.5078 4.27483 21.7215 8.00022C19.5078 11.7256 15.8613 14.0002 12 14.0002Z" fill="#646464"/>
<path d="M12 3.50024C9.51357 3.50024 7.5 5.51382 7.5 8.00024C7.5 10.4857 9.51357 12.5002 12 12.5002C14.4852 12.5002 16.5 10.4857 16.5 8.00024C16.5 5.51382 14.4852 3.50024 12 3.50024ZM12 10.5004C10.6191 10.5004 9.5001 9.38141 9.5001 8.00024C9.5001 6.61936 10.6191 5.50034 12 5.50034C13.3809 5.50034 14.4999 6.61936 14.4999 8.00024C14.4999 9.38141 13.3809 10.5004 12 10.5004Z" fill="#646464"/>
</svg>
