<svg width="16" height="16" viewBox="0 0 16 16" fill="none" xmlns="http://www.w3.org/2000/svg">
<g clip-path="url(#clip0_2682_66982)">
<path d="M13.844 0H2.15618C0.965465 0 0.000152588 0.965273 0.000152588 2.15603V13.8439C0.000152588 15.0346 0.965426 15.9999 2.15618 15.9999H7.92054L7.93037 10.2824H6.44496C6.35224 10.2824 6.2633 10.2457 6.19762 10.1802C6.13193 10.1148 6.09485 10.026 6.0945 9.93328L6.08738 8.0903C6.0872 8.04416 6.09614 7.99844 6.11367 7.95576C6.13121 7.91308 6.157 7.87428 6.18956 7.84159C6.22213 7.80891 6.26083 7.78297 6.30344 7.76527C6.34605 7.74757 6.39174 7.73847 6.43788 7.73847H7.92058V5.95767C7.92058 3.89107 9.18273 2.7658 11.0263 2.7658H12.539C12.632 2.7658 12.7211 2.80272 12.7869 2.86845C12.8526 2.93419 12.8895 3.02334 12.8895 3.1163V4.67031C12.8895 4.76324 12.8526 4.85236 12.7869 4.91808C12.7213 4.98381 12.6322 5.02076 12.5392 5.02081L11.6109 5.02124C10.6083 5.02124 10.4142 5.49766 10.4142 6.19682V7.7385H12.6172C12.8271 7.7385 12.9899 7.9218 12.9652 8.13026L12.7467 9.97325C12.7366 10.0585 12.6956 10.137 12.6315 10.194C12.5673 10.251 12.4845 10.2825 12.3987 10.2825H10.424L10.4142 16H13.844C15.0348 16 16 15.0347 16 13.844V2.15603C16 0.965273 15.0347 0 13.844 0Z" fill="#475993"/>
</g>
<defs>
<clipPath id="clip0_2682_66982">
<rect width="16" height="16" fill="white"/>
</clipPath>
</defs>
</svg>
