<svg width="18" height="18" viewBox="0 0 18 18" fill="none" xmlns="http://www.w3.org/2000/svg" color="white">
<path d="M16.6567 11.825C15.4083 11.5017 14.8275 11.225 14.2942 10.9458C14.1125 10.8517 13.8984 10.8508 13.7192 10.9442C13.1809 11.2217 12.5917 11.5008 11.3242 11.8725C11.0584 11.9508 10.875 12.195 10.875 12.4725V14.0925C10.875 16.1733 12.3841 17.4358 13.7957 17.9242C13.8616 17.9475 13.9308 17.9583 14 17.9583C14.0692 17.9583 14.1384 17.9467 14.2043 17.9242C15.6159 17.4358 17.125 16.1733 17.125 14.0925V12.43C17.125 12.145 16.9325 11.8967 16.6567 11.825ZM15.875 14.0925C15.875 15.6867 14.5725 16.4183 14 16.6633C13.4275 16.4192 12.125 15.6867 12.125 14.0925V12.9358C12.94 12.68 13.4791 12.4567 14.0033 12.2C14.5208 12.4542 15.07 12.6767 15.875 12.9075V14.0925ZM9.83333 15.875H4C2.68583 15.875 2.125 15.3142 2.125 14V4C2.125 2.68583 2.68583 2.125 4 2.125H8.375V4C8.375 6.015 9.485 7.125 11.5 7.125H13.375V9C13.375 9.345 13.655 9.625 14 9.625C14.345 9.625 14.625 9.345 14.625 9V6.5C14.625 6.33417 14.5592 6.175 14.4417 6.05833L9.44169 1.05833C9.32419 0.940834 9.16583 0.875 9 0.875H4C1.985 0.875 0.875 1.985 0.875 4V14C0.875 16.015 1.985 17.125 4 17.125H9.83333C10.1783 17.125 10.4583 16.845 10.4583 16.5C10.4583 16.155 10.1783 15.875 9.83333 15.875ZM9.625 4V3.00917L12.4908 5.875H11.5C10.1858 5.875 9.625 5.31417 9.625 4ZM10.6667 9.625H4.83333C4.48833 9.625 4.20833 9.345 4.20833 9C4.20833 8.655 4.48833 8.375 4.83333 8.375H10.6667C11.0117 8.375 11.2917 8.655 11.2917 9C11.2917 9.345 11.0117 9.625 10.6667 9.625ZM4.83333 12.9583C4.48833 12.9583 4.20833 12.6783 4.20833 12.3333C4.20833 11.9883 4.48833 11.7083 4.83333 11.7083H8.16667C8.51167 11.7083 8.79167 11.9883 8.79167 12.3333C8.79167 12.6783 8.51167 12.9583 8.16667 12.9583H4.83333Z" fill="currentColor"/>
</svg>
