<?xml version="1.0" encoding="UTF-8"?>
<svg width="42px" height="54px" viewBox="0 0 42 54" version="1.1" xmlns="http://www.w3.org/2000/svg" xmlns:xlink="http://www.w3.org/1999/xlink">
    <title>Documents</title>
    <g id="New-Property-Menu" stroke="none" stroke-width="1" fill="none" fill-rule="evenodd">
        <g id="Pre-defined-Topic-Icons" transform="translate(-423.000000, -86.000000)" fill="#FFFFFF">
            <g id="Documents" transform="translate(423.000000, 86.000000)">
                <path d="M22.9092,0 L6,0 C4.40871,0 2.88258,0.63213 1.75737,1.75737 C0.63213,2.88258 0,4.40871 0,6 L0,48 C0,49.5912 0.63213,51.1173 1.75737,52.2426 C2.88258,53.3679 4.40871,54 6,54 L36,54 C37.5912,54 39.1173,53.3679 40.2426,52.2426 C41.3679,51.1173 42,49.5912 42,48 L42,19.09092 L29.0181,19.09092 C27.3978,19.09092 25.8441,18.44727 24.6984,17.3016 C23.5527,16.15593 22.9092,14.60205 22.9092,12.98181 L22.9092,0 Z M42,15.27273 L42,15 L27,0 L26.7273,0 L26.7273,12.98181 C26.7273,13.5894 26.9685,14.17212 27.3984,14.60175 C27.828,15.03138 28.4106,15.27273 29.0181,15.27273 L42,15.27273 Z" id="Shape"></path>
            </g>
        </g>
    </g>
</svg>