<?xml version="1.0" encoding="utf-8"?>
<!-- Generator: Adobe Illustrator 23.0.0, SVG Export Plug-In . SVG Version: 6.00 Build 0)  -->
<svg version="1.1" id="Слой_1" xmlns="http://www.w3.org/2000/svg" xmlns:xlink="http://www.w3.org/1999/xlink" x="0px" y="0px"
	 viewBox="0 0 32 32" style="enable-background:new 0 0 32 32;" xml:space="preserve">
<style type="text/css">
	.st0{fill:#FFFFFF;}
</style>
<g>
	<path class="st0" d="M11.7,3c1.3,0,2.5,0.7,3.1,1.9l1.5,2.9h12.2c1.9,0,3.5,1.5,3.5,3.4v14.5c0,1.9-1.6,3.4-3.5,3.4h-25
		C1.6,29,0,27.5,0,25.6V6.4C0,4.5,1.6,3,3.5,3H11.7z M11.5,5.5H3.8C3.1,5.5,2.5,6,2.5,6.7c0,0.7,0.5,1.3,1.2,1.3c0,0,0.1,0,0.1,0
		h7.7c0.7,0,1.3-0.6,1.3-1.2S12.2,5.5,11.5,5.5L11.5,5.5L11.5,5.5z"/>
</g>
</svg>
