<svg width="32" height="32" viewBox="0 0 32 32" fill="none" xmlns="http://www.w3.org/2000/svg">
<rect width="32" height="32" rx="6" fill="#2978BA"/>
<path d="M15.9885 18.9026C12.6269 18.9026 9.26524 18.9026 5.90362 18.9053C5.77816 18.9053 5.75256 18.8708 5.75256 18.7464C5.75768 17.9731 5.75768 17.2025 5.75256 16.4293C5.75256 16.3101 5.77816 16.2783 5.8985 16.2783C10.6247 16.281 15.3535 16.281 20.0798 16.281C22.0845 16.281 24.0891 16.281 26.0964 16.2783C26.2167 16.2783 26.2423 16.3128 26.2398 16.4319C26.2346 17.2078 26.2346 17.9837 26.2398 18.7623C26.2398 18.8761 26.2167 18.9079 26.1015 18.9079C22.7296 18.9026 19.3603 18.9026 15.9885 18.9026Z" fill="white"/>
<path d="M15.9834 13.2648C12.6269 13.2648 9.2678 13.2648 5.9113 13.2674C5.77816 13.2674 5.75256 13.2303 5.75512 13.1006C5.76024 12.3326 5.76024 11.5647 5.75512 10.7967C5.75512 10.6935 5.77816 10.6643 5.88057 10.6643C12.6269 10.667 19.3706 10.667 26.1169 10.6643C26.2193 10.6643 26.2423 10.6961 26.2423 10.7967C26.2372 11.57 26.2372 12.3406 26.2423 13.1138C26.2423 13.233 26.2142 13.2648 26.0964 13.2648C22.722 13.2621 19.3527 13.2648 15.9834 13.2648Z" fill="white"/>
<path d="M11.3365 5.00265C13.1492 5.00265 14.9618 5.00265 16.7745 5C16.8923 5 16.9204 5.03178 16.9204 5.15094C16.9153 5.93214 16.9153 6.71333 16.9204 7.49453C16.9204 7.59515 16.8999 7.62693 16.7975 7.62693C13.1594 7.62428 9.5187 7.62428 5.88057 7.62693C5.77816 7.62693 5.75512 7.5978 5.75512 7.49717C5.76024 6.71598 5.76024 5.93479 5.75512 5.15359C5.75512 5.03707 5.77816 5 5.89849 5C7.7086 5.0053 9.52126 5.00265 11.3365 5.00265Z" fill="white"/>
<path d="M5.75 23.0866C5.75256 22.7344 5.75512 22.3822 5.75256 22.03C5.75256 21.9427 5.7756 21.9188 5.86009 21.9188C6.20061 21.9215 6.54112 21.9188 6.88163 21.9162C6.93796 21.9188 6.99173 21.9215 7.04805 21.9215C9.98211 21.9215 12.9162 21.9215 15.8502 21.9188C15.9603 21.9188 16.0013 21.9374 15.9987 22.0645C15.991 22.8483 15.9936 23.6348 15.9987 24.4186C15.9987 24.5166 15.9757 24.5431 15.8784 24.5431C12.5424 24.5405 9.20891 24.5405 5.87289 24.5431C5.77816 24.5431 5.75 24.5219 5.75256 24.4213C5.75768 23.9764 5.75256 23.5315 5.75 23.0866Z" fill="white"/>
<path d="M20.8222 22.1519C20.9067 22.4034 20.9861 22.6338 21.086 22.8563C21.1858 23.076 21.301 23.2852 21.4316 23.4892C21.7337 23.9526 22.1382 24.1194 22.6784 24.0294C23.6181 23.8758 24.5372 23.6216 25.4512 23.3647C25.7098 23.2905 25.9658 23.2138 26.25 23.1264C26.2193 23.1608 26.2116 23.174 26.1988 23.182C25.3309 23.6957 24.4297 24.1326 23.4491 24.3657C22.9985 24.4743 22.5402 24.5246 22.0793 24.4292C21.4444 24.2968 21.0552 23.889 20.8683 23.2588C20.8581 23.2217 20.8479 23.182 20.8351 23.1449C20.8325 23.137 20.8274 23.1317 20.8171 23.1211C20.7966 23.1634 20.7736 23.2005 20.7557 23.2376C20.1873 24.416 19.6164 25.5944 19.048 26.7728C19.0377 26.7967 19.0275 26.8205 19.0147 26.8443C18.9097 27.0456 18.7075 27.0535 18.5923 26.8576C18.4847 26.6775 18.454 26.4709 18.431 26.2644C18.3593 25.6606 18.3823 25.0568 18.4182 24.4531C18.4463 24.0108 18.4847 23.5686 18.518 23.1184C18.2236 23.4256 17.9317 23.7275 17.6424 24.0267C17.6322 24.0214 17.6219 24.0161 17.6117 24.0108C17.6117 23.7063 17.6117 23.3991 17.6142 23.0946C17.6142 23.0708 17.6322 23.0443 17.6424 23.0231C17.9624 22.3664 18.2902 21.7123 18.6793 21.0953C18.7945 20.9152 18.9123 20.7351 19.0608 20.5842C19.1018 20.5418 19.1478 20.4994 19.199 20.4677C19.304 20.4014 19.3757 20.4306 19.4141 20.555C19.4397 20.6345 19.4474 20.7192 19.45 20.8013C19.4781 21.5137 19.4115 22.2207 19.3347 22.9251C19.2451 23.7566 19.1248 24.5828 19.0147 25.417C19.6138 24.3392 20.2129 23.2535 20.8222 22.1519Z" fill="white"/>
</svg>
