<svg width="32" height="32" viewBox="0 0 32 32" fill="none" xmlns="http://www.w3.org/2000/svg">
<path d="M0 6C0 2.68629 2.68629 0 6 0H26C29.3137 0 32 2.68629 32 6V26C32 29.3137 29.3137 32 26 32H6C2.68629 32 0 29.3137 0 26V6Z" fill="#2E90FA"/>
<path d="M23.25 14.125H8.75004C8.61171 14.125 8.5 14.2367 8.5 14.375V21C8.5 22.6667 9.33333 23.5 11 23.5H21C22.6667 23.5 23.5 22.6667 23.5 21V14.375C23.5 14.2367 23.3883 14.125 23.25 14.125ZM23.5 12.25V12.625C23.5 12.7633 23.3883 12.875 23.25 12.875H8.75004C8.61171 12.875 8.5 12.7633 8.5 12.625V12.25C8.5 10.5833 9.33333 9.75 11 9.75H12.0417V8.5C12.0417 8.15833 12.325 7.875 12.6667 7.875C13.0083 7.875 13.2917 8.15833 13.2917 8.5V9.75H18.7083V8.5C18.7083 8.15833 18.9917 7.875 19.3333 7.875C19.675 7.875 19.9583 8.15833 19.9583 8.5V9.75H21C22.6667 9.75 23.5 10.5833 23.5 12.25Z" fill="white"/>
</svg>
