<svg width="32" height="32" viewBox="0 0 32 32" fill="none" xmlns="http://www.w3.org/2000/svg">
<rect width="32" height="32" rx="6" fill="#044D66"/>
<path d="M26.7738 11.0281C26.7738 9.23247 26.4215 7.1911 25.8468 5.66006C25.5687 4.8851 25.5501 4.8662 24.8456 5.22533C21.8977 6.77526 19.5617 8.94895 18.5049 12.2567C17.4852 15.4889 17.9302 18.6833 19.0796 21.8021C19.1723 22.0667 19.3021 22.0478 19.5061 21.9533C22.936 20.3466 26.9221 16.8876 26.7738 11.0281ZM20.396 19.4204C20.2477 19.5339 20.0993 19.6284 20.0252 19.3259C19.4504 16.7742 19.3021 14.2603 20.4516 11.822C21.3044 10.0074 22.695 8.66542 24.3265 7.56913C24.586 7.38011 24.6787 7.49352 24.7344 7.75815C24.9754 8.85444 25.1422 9.95073 25.1237 11.0659C25.1979 14.8274 23.3439 17.4358 20.396 19.4204Z" fill="#BAD337"/>
<path d="M19.3577 26.6598C19.2836 26.2628 19.265 25.8659 19.2094 25.4501C18.8942 22.974 17.9302 20.8192 16.2059 19.0424C14.7227 17.5114 12.9244 16.6797 11.3114 16.6797C9.30905 16.6419 7.60336 17.001 6.2314 17.6059C5.97184 17.7193 5.9533 17.8327 6.06454 18.0784C6.58366 19.307 7.2511 20.4411 8.15957 21.4051C9.23489 22.5581 10.4771 23.4087 12.0159 23.7867C13.5362 24.1459 15.0379 24.0703 16.5397 23.6733C16.8734 23.5788 16.9846 23.6733 17.0588 23.9946C17.2998 24.8641 17.4481 25.7525 17.5223 26.6598C17.5408 26.9055 17.615 27 17.8745 27C18.2639 26.9811 18.6718 26.9811 19.0611 27C19.3021 27 19.3948 26.9244 19.3577 26.6598ZM8.49329 18.7589C11.9788 17.9461 14.3705 18.9857 16.0576 21.8588C12.8502 22.766 10.2175 21.7643 8.49329 18.7589Z" fill="#FEFEFE"/>
<path d="M15.4273 9.83732C14.0924 7.55023 11.9232 6.51064 9.43883 6.0381C9.17927 5.98139 9.17927 6.13261 9.16073 6.30272C9.03095 6.98318 8.95679 7.68254 8.95679 8.3819C8.95679 13.353 12.0159 15.7157 15.8722 16.4529C16.1318 16.5096 16.2616 16.4529 16.2801 16.1694C16.2801 16.056 16.3172 15.9426 16.3357 15.8291C16.6138 13.7122 16.5026 11.6708 15.4273 9.83732ZM14.2222 14.0524C11.9047 13.0317 10.7552 11.236 10.6995 8.66542C10.681 8.24959 10.8293 8.28739 11.1074 8.4197C13.4249 9.40259 14.593 11.1793 14.6671 13.7122C14.7042 14.2603 14.7042 14.2603 14.2222 14.0524Z" fill="#FEFEFE"/>
</svg>
