<svg width="32" height="32" viewBox="0 0 32 32" fill="none" xmlns="http://www.w3.org/2000/svg">
<path d="M0 6C0 2.68629 2.68629 0 6 0H26C29.3137 0 32 2.68629 32 6V26C32 29.3137 29.3137 32 26 32H6C2.68629 32 0 29.3137 0 26V6Z" fill="#717BBC"/>
<path d="M17.875 11V9.125L21.625 12.875H19.75C18.4333 12.875 17.875 12.3167 17.875 11ZM19.75 14.125C17.7333 14.125 16.625 13.0167 16.625 11V8.5H12.25C10.5833 8.5 9.75 9.33333 9.75 11V21C9.75 22.6667 10.5833 23.5 12.25 23.5H19.75C21.4167 23.5 22.25 22.6667 22.25 21V14.125H19.75Z" fill="white"/>
</svg>
