<svg width="32" height="32" viewBox="0 0 32 32" fill="none" xmlns="http://www.w3.org/2000/svg">
<path d="M0 6C0 2.68629 2.68629 0 6 0H26C29.3137 0 32 2.68629 32 6V26C32 29.3137 29.3137 32 26 32H6C2.68629 32 0 29.3137 0 26V6Z" fill="#F1C012"/>
<path d="M21 8.5H11C9.33333 8.5 8.5 9.33333 8.5 11V22.8964C8.5 23.1192 8.76929 23.2307 8.92678 23.0732L10.7803 21.2197C10.921 21.079 11.1117 21 11.3107 21H21C22.6667 21 23.5 20.1667 23.5 18.5V11C23.5 9.33333 22.6667 8.5 21 8.5ZM16.0167 18.5C15.5567 18.5 15.1791 18.1267 15.1791 17.6667C15.1791 17.2067 15.5483 16.8333 16.0083 16.8333H16.0167C16.4775 16.8333 16.85 17.2067 16.85 17.6667C16.85 18.1267 16.4767 18.5 16.0167 18.5ZM17.1208 15.2092C16.6575 15.5175 16.5941 15.6733 16.5916 15.68C16.4975 15.9316 16.2542 16.0934 15.9976 16.0934C15.9292 16.0934 15.8608 16.0816 15.7933 16.0575C15.4725 15.9433 15.2984 15.6025 15.4076 15.2792C15.5767 14.7792 16.0707 14.4058 16.4291 14.1683C16.9591 13.8158 16.9649 13.4584 16.9233 13.2209C16.8583 12.8534 16.5441 12.5384 16.1758 12.4742C15.8958 12.4234 15.6151 12.4958 15.3984 12.6774C15.1851 12.8566 15.0633 13.1183 15.0633 13.3958C15.0633 13.7408 14.7833 14.0208 14.4383 14.0208C14.0933 14.0208 13.8133 13.7408 13.8133 13.3958C13.8133 12.7475 14.0983 12.1367 14.595 11.72C15.0916 11.3033 15.745 11.1283 16.3925 11.2425C17.275 11.3975 17.9991 12.1217 18.1541 13.0042C18.3075 13.8817 17.9408 14.6642 17.1208 15.2092Z" fill="white"/>
</svg>
