<svg width="20" height="20" viewBox="0 0 20 20" fill="none" xmlns="http://www.w3.org/2000/svg">
<g id="filter">
<path id="vector" d="M11.6666 18.125C11.5341 18.125 11.4025 18.0825 11.2916 18L7.95829 15.5C7.80163 15.3817 7.70825 15.1967 7.70825 15V11.6667C7.70825 11.5 7.64328 11.3425 7.52494 11.2242L3.25747 6.95666C2.9033 6.60166 2.70825 6.13166 2.70825 5.63082V3.75C2.70825 2.71583 3.54992 1.875 4.58325 1.875H15.4166C16.4499 1.875 17.2916 2.71583 17.2916 3.75V5.63082C17.2916 6.13166 17.0965 6.60249 16.7424 6.95666L12.4749 11.2242C12.3566 11.3425 12.2916 11.4992 12.2916 11.6667V17.5C12.2916 17.7367 12.1582 17.9533 11.9457 18.0592C11.8574 18.1033 11.7616 18.125 11.6666 18.125ZM8.95825 14.6875L11.0416 16.25V11.6667C11.0416 11.1658 11.2366 10.695 11.5908 10.3408L15.8583 6.07333C15.9766 5.955 16.0416 5.79832 16.0416 5.63082V3.75C16.0416 3.405 15.7608 3.125 15.4166 3.125H4.58325C4.23909 3.125 3.95825 3.405 3.95825 3.75V5.63082C3.95825 5.79749 4.02323 5.955 4.14156 6.07333L8.40904 10.3408C8.7632 10.6958 8.95825 11.1658 8.95825 11.6667V14.6875Z" fill="currentColor"/>
</g>
</svg>
