<svg width="20" height="20" viewBox="0 0 20 20" fill="none" xmlns="http://www.w3.org/2000/svg">
<path fill-rule="evenodd" clip-rule="evenodd" d="M1.12239 2.2475C1.2207 2.0356 1.43306 1.90002 1.66666 1.90002H18.3333C18.5669 1.90002 18.7793 2.0356 18.8776 2.2475C18.9759 2.4594 18.9423 2.70909 18.7915 2.88746L12.2667 10.603V17.5C12.2667 17.708 12.159 17.9011 11.9821 18.0104C11.8052 18.1197 11.5843 18.1297 11.3983 18.0367L8.065 16.37C7.86173 16.2684 7.73333 16.0606 7.73333 15.8334V10.603L1.20852 2.88746C1.05768 2.70909 1.02407 2.4594 1.12239 2.2475ZM2.95984 3.10002L8.79147 9.99592C8.88307 10.1042 8.93332 10.2415 8.93332 10.3834V15.4625L11.0667 16.5292V10.3834C11.0667 10.2415 11.1169 10.1042 11.2085 9.99592L17.0401 3.10002H2.95984Z" fill="#999999"/>
</svg>
