<svg width="20" height="20" viewBox="0 0 20 20" fill="none" xmlns="http://www.w3.org/2000/svg">
<g id="first">
<g id="Vector">
<path fill-rule="evenodd" clip-rule="evenodd" d="M14.3905 4.57586C14.6248 4.81018 14.6248 5.19008 14.3905 5.42439L9.81476 10.0001L14.3905 14.5759C14.6248 14.8102 14.6248 15.1901 14.3905 15.4244C14.1562 15.6587 13.7763 15.6587 13.542 15.4244L8.54197 10.4244C8.30766 10.1901 8.30766 9.81018 8.54197 9.57586L13.542 4.57586C13.7763 4.34155 14.1562 4.34155 14.3905 4.57586Z" fill="currentColor"/>
<path fill-rule="evenodd" clip-rule="evenodd" d="M6.03384 3.80011C6.36521 3.80011 6.63384 4.06874 6.63384 4.40011L6.63384 15.4798C6.63384 15.8111 6.36521 16.0798 6.03384 16.0798C5.70247 16.0798 5.43384 15.8111 5.43384 15.4798L5.43384 4.40011C5.43384 4.06874 5.70247 3.80011 6.03384 3.80011Z" fill="currentColor"/>
</g>
</g>
</svg>
