<svg width="24" height="24" viewBox="0 0 24 24" fill="none" xmlns="http://www.w3.org/2000/svg">
<path d="M19.109 7.85693L7.25 3.47705V3C7.25 2.586 6.914 2.25 6.5 2.25C6.086 2.25 5.75 2.586 5.75 3V20.25H4.5C4.086 20.25 3.75 20.586 3.75 21C3.75 21.414 4.086 21.75 4.5 21.75H8.5C8.914 21.75 9.25 21.414 9.25 21C9.25 20.586 8.914 20.25 8.5 20.25H7.25V15.522L19.109 11.1421C19.802 10.8861 20.25 10.241 20.25 9.49902C20.25 8.75702 19.802 8.11393 19.109 7.85693ZM18.589 9.73511L7.25 13.9231V5.07593L18.589 9.26392C18.722 9.31292 18.75 9.41902 18.75 9.49902C18.75 9.57902 18.722 9.68711 18.589 9.73511Z" fill="#61646C"/>
</svg>
