<svg width="39" height="34" viewBox="0 0 39 34" fill="none" xmlns="http://www.w3.org/2000/svg">
<rect width="32" height="32" rx="4" fill="#F5F5F6"/>
<path d="M16.0069 14.9583C14.0535 14.9583 12.4652 13.3692 12.4652 11.4167C12.4652 9.46417 14.0535 7.875 16.0069 7.875C17.9602 7.875 19.5485 9.46417 19.5485 11.4167C19.5485 13.3692 17.9602 14.9583 16.0069 14.9583ZM16.0069 9.125C14.7427 9.125 13.7152 10.1525 13.7152 11.4167C13.7152 12.6808 14.7427 13.7083 16.0069 13.7083C17.271 13.7083 18.2985 12.6808 18.2985 11.4167C18.2985 10.1525 17.2702 9.125 16.0069 9.125ZM19.3301 24.125H12.6686C10.6519 24.125 9.54102 23.0209 9.54102 21.0159C9.54102 18.7984 10.796 16.2083 14.3327 16.2083H17.666C21.2027 16.2083 22.4577 18.7975 22.4577 21.0159C22.4577 23.0209 21.3468 24.125 19.3301 24.125ZM14.3327 17.4583C11.0468 17.4583 10.791 20.1809 10.791 21.0159C10.791 22.3192 11.3527 22.875 12.6686 22.875H19.3301C20.646 22.875 21.2077 22.3192 21.2077 21.0159C21.2077 20.1817 20.9518 17.4583 17.666 17.4583H14.3327Z" fill="#61646C"/>
<rect x="18.2122" y="22.2122" width="19.8392" height="11.5756" rx="2.05145" fill="#ECECED"/>
<rect x="18.2122" y="22.2122" width="19.8392" height="11.5756" rx="2.05145" stroke="#CECFD2" stroke-width="0.424438"/>
<path d="M25.8551 28.2074C25.8551 28.9169 25.7222 29.5246 25.4564 30.0305C25.1927 30.5343 24.8326 30.9201 24.376 31.1881C23.9215 31.4561 23.406 31.59 22.8293 31.59C22.2527 31.59 21.7361 31.4561 21.2795 31.1881C20.825 30.918 20.4649 30.5311 20.1991 30.0273C19.9354 29.5214 19.8036 28.9148 19.8036 28.2074C19.8036 27.4978 19.9354 26.8912 20.1991 26.3874C20.4649 25.8815 20.825 25.4946 21.2795 25.2267C21.7361 24.9587 22.2527 24.8247 22.8293 24.8247C23.406 24.8247 23.9215 24.9587 24.376 25.2267C24.8326 25.4946 25.1927 25.8815 25.4564 26.3874C25.7222 26.8912 25.8551 27.4978 25.8551 28.2074ZM24.6557 28.2074C24.6557 27.7079 24.5775 27.2867 24.421 26.9437C24.2666 26.5986 24.0523 26.3381 23.7779 26.1624C23.5035 25.9844 23.1873 25.8955 22.8293 25.8955C22.4714 25.8955 22.1552 25.9844 21.8808 26.1624C21.6064 26.3381 21.391 26.5986 21.2345 26.9437C21.0801 27.2867 21.003 27.7079 21.003 28.2074C21.003 28.7069 21.0801 29.1291 21.2345 29.4743C21.391 29.8173 21.6064 30.0777 21.8808 30.2556C22.1552 30.4314 22.4714 30.5193 22.8293 30.5193C23.1873 30.5193 23.5035 30.4314 23.7779 30.2556C24.0523 30.0777 24.2666 29.8173 24.421 29.4743C24.5775 29.1291 24.6557 28.7069 24.6557 28.2074ZM26.9829 31.5V24.9148H31.2016V25.9148H28.1758V27.7026H30.9122V28.7026H28.1758V31.5H26.9829ZM32.2884 31.5V24.9148H36.507V25.9148H33.4813V27.7026H36.2176V28.7026H33.4813V31.5H32.2884Z" fill="#85888E"/>
</svg>
