<svg width="37" height="34" viewBox="0 0 37 34" fill="none" xmlns="http://www.w3.org/2000/svg">
<rect x="0.0390625" width="32" height="32" rx="4.57143" fill="url(#paint0_linear_1402_48852)" fill-opacity="0.3"/>
<path d="M12.7133 11.4163C12.7133 9.57801 14.2083 8.08301 16.0466 8.08301C17.8849 8.08301 19.3799 9.57801 19.3799 11.4163C19.3799 13.2547 17.8849 14.7497 16.0466 14.7497C14.2083 14.7497 12.7133 13.2547 12.7133 11.4163ZM17.7057 16.4163H14.3724C10.9891 16.4163 9.78906 18.8939 9.78906 21.0155C9.78906 22.913 10.7983 23.9163 12.7083 23.9163H19.3699C21.2799 23.9163 22.2891 22.913 22.2891 21.0155C22.2891 18.8939 21.0891 16.4163 17.7057 16.4163Z" fill="url(#paint1_linear_1402_48852)"/>
<rect x="18.2748" y="22.2357" width="18.0429" height="11.5286" rx="2.27857" fill="#16B364"/>
<rect x="18.2748" y="22.2357" width="18.0429" height="11.5286" rx="2.27857" stroke="#16B364" stroke-width="0.471429"/>
<path d="M26.9326 27.8429C26.9326 28.631 26.785 29.306 26.4897 29.8679C26.1969 30.4274 25.7969 30.856 25.2897 31.1536C24.785 31.4512 24.2124 31.6 23.5719 31.6C22.9314 31.6 22.3576 31.4512 21.8504 31.1536C21.3457 30.8536 20.9457 30.4238 20.6504 29.8643C20.3576 29.3024 20.2112 28.6286 20.2112 27.8429C20.2112 27.0548 20.3576 26.381 20.6504 25.8214C20.9457 25.2595 21.3457 24.8298 21.8504 24.5321C22.3576 24.2345 22.9314 24.0857 23.5719 24.0857C24.2124 24.0857 24.785 24.2345 25.2897 24.5321C25.7969 24.8298 26.1969 25.2595 26.4897 25.8214C26.785 26.381 26.9326 27.0548 26.9326 27.8429ZM25.6004 27.8429C25.6004 27.2881 25.5135 26.8202 25.3397 26.4393C25.1683 26.056 24.9302 25.7667 24.6254 25.5714C24.3207 25.3738 23.9695 25.275 23.5719 25.275C23.1743 25.275 22.8231 25.3738 22.5183 25.5714C22.2135 25.7667 21.9743 26.056 21.8004 26.4393C21.629 26.8202 21.5433 27.2881 21.5433 27.8429C21.5433 28.3976 21.629 28.8667 21.8004 29.25C21.9743 29.631 22.2135 29.9202 22.5183 30.1179C22.8231 30.3131 23.1743 30.4107 23.5719 30.4107C23.9695 30.4107 24.3207 30.3131 24.6254 30.1179C24.9302 29.9202 25.1683 29.631 25.3397 29.25C25.5135 28.8667 25.6004 28.3976 25.6004 27.8429ZM34.196 24.1857V31.5H33.0174L29.571 26.5179H29.5103V31.5H28.1853V24.1857H29.371L32.8138 29.1714H32.8781V24.1857H34.196Z" fill="white"/>
<defs>
<linearGradient id="paint0_linear_1402_48852" x1="-0.0376818" y1="2.03608" x2="25.0725" y2="38.3623" gradientUnits="userSpaceOnUse">
<stop stop-color="#FFCA62"/>
<stop offset="0.525" stop-color="#38DBD0"/>
<stop offset="0.99375" stop-color="#4285F4"/>
</linearGradient>
<linearGradient id="paint1_linear_1402_48852" x1="9.75908" y1="9.09044" x2="22.9237" y2="24.1259" gradientUnits="userSpaceOnUse">
<stop stop-color="#FFCA62"/>
<stop offset="0.525" stop-color="#38DBD0"/>
<stop offset="0.99375" stop-color="#4285F4"/>
</linearGradient>
</defs>
</svg>
