<svg width="20" height="20" viewBox="0 0 20 20" fill="none" xmlns="http://www.w3.org/2000/svg">
<path fill-rule="evenodd" clip-rule="evenodd" d="M4.42088 4.24537C4.18966 4.24537 3.96792 4.33722 3.80443 4.50072C3.64093 4.66421 3.54908 4.88595 3.54908 5.11717V14.8813C3.54908 15.1125 3.64093 15.3342 3.80443 15.4977C3.96792 15.6612 4.18966 15.7531 4.42088 15.7531H15.5799C15.8111 15.7531 16.0328 15.6612 16.1963 15.4977C16.3598 15.3342 16.4516 15.1125 16.4516 14.8813V7.20948C16.4516 6.97826 16.3598 6.75652 16.1963 6.59302C16.0328 6.42953 15.8111 6.33768 15.5799 6.33768H9.30293C9.12804 6.33768 8.96472 6.25027 8.8677 6.10475L7.62811 4.24537H4.42088ZM3.06468 3.76097C3.42437 3.40129 3.91221 3.19922 4.42088 3.19922H7.90806C8.08295 3.19922 8.24627 3.28663 8.34328 3.43214L9.58287 5.29153H15.5799C16.0885 5.29153 16.5764 5.4936 16.936 5.85328C17.2957 6.21297 17.4978 6.7008 17.4978 7.20948V14.8813C17.4978 15.3899 17.2957 15.8778 16.936 16.2375C16.5764 16.5971 16.0885 16.7992 15.5799 16.7992H4.42088C3.91221 16.7992 3.42437 16.5971 3.06468 16.2375C2.705 15.8778 2.50293 15.3899 2.50293 14.8813V5.11717C2.50293 4.6085 2.705 4.12066 3.06468 3.76097Z" fill="#202020"/>
</svg>
