<svg xmlns="http://www.w3.org/2000/svg" width="24" height="24" viewBox="0 0 24 24" fill="none">
  <path fill-rule="evenodd" clip-rule="evenodd" d="M4.31969 3.72003C4.00143 3.72003 3.6962 3.84646 3.47116 4.0715C3.24612 4.29654 3.11969 4.60177 3.11969 4.92003V18.36C3.11969 18.6783 3.24612 18.9835 3.47116 19.2086C3.6962 19.4336 4.00143 19.56 4.31969 19.56H19.6797C19.9979 19.56 20.3032 19.4336 20.5282 19.2086C20.7533 18.9835 20.8797 18.6783 20.8797 18.36V7.80003C20.8797 7.48177 20.7533 7.17654 20.5282 6.9515C20.3032 6.72646 19.9979 6.60003 19.6797 6.60003H11.0397C10.799 6.60003 10.5741 6.47972 10.4406 6.27941L8.73436 3.72003H4.31969ZM2.45293 3.05327C2.94802 2.55817 3.61952 2.28003 4.31969 2.28003H9.11969C9.36042 2.28003 9.58523 2.40034 9.71876 2.60065L11.425 5.16003H19.6797C20.3799 5.16003 21.0514 5.43817 21.5465 5.93327C22.0415 6.42836 22.3197 7.09986 22.3197 7.80003V18.36C22.3197 19.0602 22.0415 19.7317 21.5465 20.2268C21.0514 20.7219 20.3799 21 19.6797 21H4.31969C3.61952 21 2.94802 20.7219 2.45293 20.2268C1.95783 19.7317 1.67969 19.0602 1.67969 18.36V4.92003C1.67969 4.21986 1.95783 3.54836 2.45293 3.05327ZM11.9997 9.00003C12.3973 9.00003 12.7197 9.32238 12.7197 9.72003V11.88H14.8797C15.2773 11.88 15.5997 12.2024 15.5997 12.6C15.5997 12.9977 15.2773 13.32 14.8797 13.32H12.7197V15.48C12.7197 15.8777 12.3973 16.2 11.9997 16.2C11.602 16.2 11.2797 15.8777 11.2797 15.48V13.32H9.11969C8.72204 13.32 8.39969 12.9977 8.39969 12.6C8.39969 12.2024 8.72204 11.88 9.11969 11.88H11.2797V9.72003C11.2797 9.32238 11.602 9.00003 11.9997 9.00003Z" fill="#646464"/>
</svg>