<svg width="20" height="20" viewBox="0 0 20 20" fill="none" xmlns="http://www.w3.org/2000/svg">
<path fill-rule="evenodd" clip-rule="evenodd" d="M4.42063 4.24537C4.18942 4.24537 3.96768 4.33722 3.80418 4.50072C3.64069 4.66421 3.54884 4.88595 3.54884 5.11717V14.8813C3.54884 15.1125 3.64069 15.3342 3.80418 15.4977C3.96768 15.6612 4.18942 15.7531 4.42063 15.7531H15.5796C15.8108 15.7531 16.0326 15.6612 16.1961 15.4977C16.3596 15.3342 16.4514 15.1125 16.4514 14.8813V7.20948C16.4514 6.97826 16.3596 6.75652 16.1961 6.59302C16.0326 6.42953 15.8108 6.33768 15.5796 6.33768H9.30268C9.12779 6.33768 8.96447 6.25027 8.86746 6.10475L7.62787 4.24537H4.42063ZM3.06444 3.76097C3.42412 3.40129 3.91196 3.19922 4.42063 3.19922H7.90781C8.08271 3.19922 8.24603 3.28663 8.34304 3.43214L9.58263 5.29153H15.5796C16.0883 5.29153 16.5761 5.4936 16.9358 5.85328C17.2955 6.21297 17.4976 6.7008 17.4976 7.20948V14.8813C17.4976 15.3899 17.2955 15.8778 16.9358 16.2375C16.5761 16.5971 16.0883 16.7992 15.5796 16.7992H4.42063C3.91196 16.7992 3.42412 16.5971 3.06444 16.2375C2.70475 15.8778 2.50269 15.3899 2.50269 14.8813V5.11717C2.50269 4.6085 2.70475 4.12066 3.06444 3.76097Z" fill="#646464"/>
</svg>
