<svg width="20" height="20" viewBox="0 0 20 20" fill="none" xmlns="http://www.w3.org/2000/svg">
<path d="M14.9999 5.2085H11.0924L8.77576 2.89183C8.65826 2.77433 8.4999 2.7085 8.33407 2.7085H5.00073C2.98573 2.7085 1.87573 3.8185 1.87573 5.8335V14.1668C1.87573 16.1818 2.98573 17.2918 5.00073 17.2918H15.0007C17.0157 17.2918 18.1257 16.1818 18.1257 14.1668V8.3335C18.1249 6.3185 17.0149 5.2085 14.9999 5.2085ZM16.8749 14.1668C16.8749 15.481 16.3141 16.0418 14.9999 16.0418H4.99992C3.68575 16.0418 3.12492 15.481 3.12492 14.1668V5.8335C3.12492 4.51933 3.68575 3.9585 4.99992 3.9585H8.07406L10.3907 6.27516C10.5082 6.39266 10.6666 6.4585 10.8324 6.4585H14.9991C16.3133 6.4585 16.8741 7.01933 16.8741 8.3335V14.1668H16.8749ZM12.0833 10.6252H7.91658C7.57159 10.6252 7.29158 10.9052 7.29158 11.2502C7.29158 11.5952 7.57159 11.8752 7.91658 11.8752H12.0833C12.4283 11.8752 12.7083 11.5952 12.7083 11.2502C12.7083 10.9052 12.4283 10.6252 12.0833 10.6252Z" fill="#51525C"/>
</svg>
