<svg width="28" height="28" viewBox="0 0 28 28" fill="none" xmlns="http://www.w3.org/2000/svg">
<path fill-rule="evenodd" clip-rule="evenodd" d="M16.906 4.07269C17.2341 3.74465 17.7659 3.74465 18.094 4.07269L23.9273 9.90602C24.2553 10.2341 24.2553 10.7659 23.9273 11.094L18.094 16.9273C17.7659 17.2553 17.2341 17.2553 16.906 16.9273C16.578 16.5993 16.578 16.0674 16.906 15.7394L22.1454 10.5L16.906 5.26063C16.578 4.93259 16.578 4.40073 16.906 4.07269Z" fill="#202020"/>
<path fill-rule="evenodd" clip-rule="evenodd" d="M9.33333 11.34C8.31843 11.34 7.3451 11.7432 6.62746 12.4608C5.90983 13.1784 5.50666 14.1518 5.50666 15.1667V23.3333C5.50666 23.7972 5.13058 24.1733 4.66666 24.1733C4.20274 24.1733 3.82666 23.7972 3.82666 23.3333V15.1667C3.82666 13.7062 4.40682 12.3056 5.43953 11.2729C6.47223 10.2402 7.87287 9.65999 9.33333 9.65999H23.3333C23.7972 9.65999 24.1733 10.0361 24.1733 10.5C24.1733 10.9639 23.7972 11.34 23.3333 11.34H9.33333Z" fill="#202020"/>
</svg>
