<svg width="16" height="16" viewBox="0 0 16 16" fill="none" xmlns="http://www.w3.org/2000/svg">
<path d="M14.4613 6.85809C14.4359 6.91942 14.3994 6.97469 14.3534 7.02069L11.6867 9.68735C11.5894 9.78469 11.4613 9.834 11.3333 9.834C11.2053 9.834 11.0773 9.78535 10.98 9.68735C10.7846 9.49202 10.7846 9.17533 10.98 8.98L12.7933 7.16668H4C3.17333 7.16668 2.5 7.83935 2.5 8.66668V12C2.5 12.276 2.276 12.5 2 12.5C1.724 12.5 1.5 12.276 1.5 12V8.66668C1.5 7.28802 2.622 6.16668 4 6.16668H12.7926L10.9793 4.35337C10.784 4.15804 10.784 3.84135 10.9793 3.64601C11.1747 3.45068 11.4914 3.45068 11.6867 3.64601L14.3534 6.31268C14.3994 6.35868 14.4359 6.41394 14.4613 6.47528C14.5119 6.59794 14.5119 6.73542 14.4613 6.85809Z" fill="#646464"/>
</svg>
