<svg width="16" height="15" viewBox="0 0 16 15" fill="currentColor" xmlns="http://www.w3.org/2000/svg">
<path fill-rule="evenodd" clip-rule="evenodd" d="M10.0757 0.409012C10.3101 0.174698 10.69 0.174698 10.9243 0.409012L15.0909 4.57568C15.3252 4.80999 15.3252 5.18989 15.0909 5.42421L10.9243 9.59087C10.69 9.82519 10.3101 9.82519 10.0757 9.59087C9.84142 9.35656 9.84142 8.97666 10.0757 8.74235L13.8181 4.99994L10.0757 1.25754C9.84142 1.02323 9.84142 0.643327 10.0757 0.409012Z" fill="currentColor"/>
<path fill-rule="evenodd" clip-rule="evenodd" d="M4.66667 5.59994C3.94175 5.59994 3.24651 5.88792 2.73391 6.40052C2.22131 6.91312 1.93334 7.60835 1.93334 8.33328V14.1666C1.93334 14.498 1.66471 14.7666 1.33334 14.7666C1.00197 14.7666 0.733337 14.498 0.733337 14.1666V8.33328C0.733337 7.29009 1.14774 6.28963 1.88538 5.55199C2.62303 4.81435 3.62349 4.39994 4.66667 4.39994H14.6667C14.998 4.39994 15.2667 4.66857 15.2667 4.99994C15.2667 5.33131 14.998 5.59994 14.6667 5.59994H4.66667Z" fill="currentColor"/>
</svg>
