<svg width="20" height="20" viewBox="0 0 20 20" fill="none" xmlns="http://www.w3.org/2000/svg">
<g id="Frame">
<g id="Vector">
<path d="M6.04297 2.91683H4.79297V1.66683C4.79297 1.16683 4.45964 0.833496 3.95964 0.833496C3.45964 0.833496 3.1263 1.16683 3.1263 1.66683V2.91683H1.8763C1.3763 2.91683 1.04297 3.25016 1.04297 3.75016C1.04297 4.25016 1.3763 4.5835 1.8763 4.5835H3.1263V5.8335C3.1263 6.3335 3.45964 6.66683 3.95964 6.66683C4.45964 6.66683 4.79297 6.3335 4.79297 5.8335V4.5835H6.04297C6.54297 4.5835 6.8763 4.25016 6.8763 3.75016C6.8763 3.25016 6.54297 2.91683 6.04297 2.91683Z" fill="#B9BEC0"/>
<path d="M6.04297 15.4168H4.79297V14.1668C4.79297 13.6668 4.45964 13.3335 3.95964 13.3335C3.45964 13.3335 3.1263 13.6668 3.1263 14.1668V15.4168H1.8763C1.3763 15.4168 1.04297 15.7502 1.04297 16.2502C1.04297 16.7502 1.3763 17.0835 1.8763 17.0835H3.1263V18.3335C3.1263 18.8335 3.45964 19.1668 3.95964 19.1668C4.45964 19.1668 4.79297 18.8335 4.79297 18.3335V17.0835H6.04297C6.54297 17.0835 6.8763 16.7502 6.8763 16.2502C6.8763 15.7502 6.54297 15.4168 6.04297 15.4168Z" fill="#B9BEC0"/>
<path d="M18.293 9.25016L14.793 7.91683C14.293 7.75016 14.043 7.66683 13.8763 7.50016C13.7096 7.41683 13.6263 7.25016 13.543 7.16683C13.4596 7.00016 13.3763 6.75016 13.1263 6.25016L11.793 2.75016C11.7096 2.41683 11.3763 2.25016 11.043 2.25016C10.7096 2.25016 10.4596 2.41683 10.293 2.75016L8.95964 6.25016C8.79297 6.75016 8.70964 7.00016 8.54297 7.16683C8.45964 7.3335 8.3763 7.41683 8.20964 7.50016C8.04297 7.66683 7.79297 7.75016 7.29297 7.91683L3.79297 9.25016C3.45964 9.3335 3.29297 9.66683 3.29297 10.0002C3.29297 10.3335 3.45964 10.5835 3.79297 10.7502L7.3763 12.0835C7.8763 12.2502 8.1263 12.3335 8.20964 12.5002C8.3763 12.5835 8.45964 12.7502 8.6263 12.9168C8.70964 13.0835 8.8763 13.3335 9.04297 13.8335L10.3763 17.3335C10.4596 17.6668 10.793 17.8335 11.1263 17.8335C11.4596 17.8335 11.7096 17.6668 11.8763 17.3335L13.2096 13.8335C13.3763 13.3335 13.4596 13.0835 13.6263 12.9168C13.7096 12.7502 13.8763 12.6668 14.043 12.5835C14.2096 12.5002 14.4596 12.4168 14.9596 12.1668L18.4596 10.8335C18.793 10.7502 18.9596 10.4168 18.9596 10.0835C18.793 9.66683 18.6263 9.41683 18.293 9.25016Z" fill="#B9BEC0"/>
</g>
</g>
</svg>
