<svg width="32" height="32" viewBox="0 0 32 32" fill="none" xmlns="http://www.w3.org/2000/svg">
<path d="M16 30.3334C8.096 30.3334 1.66667 23.9041 1.66667 16.0001C1.66667 8.09608 8.096 1.66675 16 1.66675C23.904 1.66675 30.3333 8.09608 30.3333 16.0001C30.3333 23.9041 23.904 30.3334 16 30.3334ZM16 3.66675C9.19867 3.66675 3.66667 9.19875 3.66667 16.0001C3.66667 22.8014 9.19867 28.3334 16 28.3334C22.8013 28.3334 28.3333 22.8014 28.3333 16.0001C28.3333 9.19875 22.8013 3.66675 16 3.66675ZM16.9479 17.8188C16.9799 17.7228 17.1614 17.3588 18.1374 16.7055C19.7107 15.6508 20.4147 14.144 20.1227 12.4613C19.8267 10.7613 18.4413 9.36545 16.7533 9.06812C15.5199 8.84945 14.2706 9.18133 13.3213 9.97599C12.3626 10.78 11.8135 11.9599 11.8135 13.2146C11.8135 13.7666 12.2615 14.2146 12.8135 14.2146C13.3655 14.2146 13.8135 13.7666 13.8135 13.2146C13.8135 12.5533 14.1028 11.9309 14.6068 11.5082C15.1081 11.0882 15.7479 10.9162 16.4053 11.0362C17.2666 11.1882 18.0013 11.9308 18.1533 12.8028C18.2107 13.1321 18.3854 14.1321 17.0241 15.0427C15.9214 15.7827 15.2947 16.4614 15.0534 17.1814C14.8774 17.7054 15.1599 18.272 15.6839 18.448C15.7893 18.484 15.896 18.5001 16.0013 18.5001C16.4173 18.5001 16.8066 18.2361 16.9479 17.8188ZM17.36 22.0001C17.36 21.2641 16.764 20.6667 16.0267 20.6667H16.0133C15.2773 20.6667 14.6865 21.2641 14.6865 22.0001C14.6865 22.7361 15.2907 23.3334 16.0267 23.3334C16.7627 23.3334 17.36 22.7361 17.36 22.0001Z" fill="#61646C"/>
</svg>
