<?xml version="1.0" encoding="UTF-8"?>
<svg width="21px" height="31px" viewBox="0 0 21 31" version="1.1" xmlns="http://www.w3.org/2000/svg" xmlns:xlink="http://www.w3.org/1999/xlink">
    <title>General</title>
    <g id="New-Property-Menu" stroke="none" stroke-width="1" fill="none" fill-rule="evenodd">
        <g id="Pre-defined-Topic-Icons" transform="translate(-84.000000, -492.000000)" fill="#FFFFFF">
            <g id="General" transform="translate(84.712250, 492.652161)">
                <path d="M9.62691204,4.57621435 C12.0338102,4.57621435 13.479537,5.85996898 13.479537,8.02549676 C13.479537,9.89702454 11.890213,11.1233856 10.2237593,12.4091819 C8.38807407,13.8256449 6.45892593,15.3140199 6.45892593,17.8161958 C6.45892593,19.0999505 7.29941204,20.5030292 9.02530093,20.5030292 C10.9129352,20.5030292 11.2922315,19.5039736 11.703287,18.4212097 C11.8688889,17.9849736 12.0397083,17.5351264 12.3164676,17.1313301 C12.7030231,16.5635199 13.516287,15.984594 14.4638472,15.3099366 C16.6602269,13.7462468 19.5782222,11.6687375 19.5782222,8.0243625 C19.5782222,2.36917269 14.5248704,0 9.38849074,0 C4.49575,0 0,3.49086435 0,7.42388565 C0,9.02795509 1.20458333,9.87093657 2.60902315,9.87093657 C4.41862037,9.87139028 4.95217593,8.72488102 5.52270833,7.49874676 C6.17808333,6.08999676 6.88223148,4.57621435 9.62691204,4.57621435 Z M9.18613889,23.1134134 C10.9911991,23.1134134 12.4759444,24.5967977 12.4759444,26.403219 C12.4759444,28.2096403 10.9911991,29.6930245 9.18613889,29.6930245 C7.3810787,29.6930245 5.89633333,28.2096403 5.89633333,26.403219 C5.89633333,24.5995199 7.3810787,23.1134134 9.18613889,23.1134134 Z" id="Shape"></path>
            </g>
        </g>
    </g>
</svg>