<svg width="161" height="160" viewBox="0 0 161 160" fill="none" xmlns="http://www.w3.org/2000/svg">
<path d="M117.52 50.7146C123.224 66.8804 137.127 115.564 108.688 141.531C104.707 145.167 99.5114 147.2 94.1169 147.2C86.4858 147.2 74.4035 147.2 66.7724 147.2C61.369 147.2 56.1783 145.167 52.1878 141.522C23.7714 115.55 37.6696 66.876 43.3741 50.7146C44.5168 47.4815 47.5683 45.3423 50.9964 45.3423H109.897C113.325 45.3423 116.377 47.4815 117.52 50.7146Z" fill="#DAF1F2"/>
<path d="M117.52 50.7146C123.224 66.8804 137.127 115.564 108.688 141.531C104.707 145.167 99.5114 147.2 94.1169 147.2C86.4858 147.2 74.4035 147.2 66.7724 147.2C61.369 147.2 56.1783 145.167 52.1878 141.522C23.7714 115.55 37.6696 66.876 43.3741 50.7146C44.5168 47.4815 47.5683 45.3423 50.9964 45.3423H109.897C113.325 45.3423 116.377 47.4815 117.52 50.7146Z" fill="url(#paint0_linear_19167_4704)"/>
<path d="M131.623 22.0662L131.029 18.8959C130.865 18.021 130.023 17.4447 129.148 17.6087C129.148 17.6087 99.3439 22.7007 99.27 22.7202L104.74 28.2457L130.336 23.9476C131.211 23.7836 131.787 22.9412 131.623 22.0662Z" fill="black"/>
<path d="M131.623 22.0662L131.029 18.8959C130.865 18.021 130.023 17.4447 129.148 17.6087C129.148 17.6087 99.3439 22.7007 99.27 22.7202L104.74 28.2457L130.336 23.9476C131.211 23.7836 131.787 22.9412 131.623 22.0662Z" fill="url(#paint1_linear_19167_4704)"/>
<path d="M97.8813 24.5621L96.9533 29.2545L103.278 30.5052L103.415 29.8129L97.9474 24.2899C97.9223 24.3798 97.8994 24.4704 97.8813 24.5621Z" fill="black"/>
<path d="M97.8813 24.5621L96.9533 29.2545L103.278 30.5052L103.415 29.8129L97.9474 24.2899C97.9223 24.3798 97.8994 24.4704 97.8813 24.5621Z" fill="url(#paint2_linear_19167_4704)"/>
<path d="M96.4741 31.0173L83.8269 89.8789C83.6542 90.7521 84.2222 91.6001 85.0954 91.7728L88.2579 92.3982C89.1312 92.5709 89.9791 92.0029 90.1518 91.1296L102.799 32.2681L96.4741 31.0173Z" fill="black"/>
<path d="M96.4741 31.0173L83.8269 89.8789C83.6542 90.7521 84.2222 91.6001 85.0954 91.7728L88.2579 92.3982C89.1312 92.5709 89.9791 92.0029 90.1518 91.1296L102.799 32.2681L96.4741 31.0173Z" fill="url(#paint3_linear_19167_4704)"/>
<path d="M125.975 96.1741C125.975 93.1181 125.842 90.0621 125.576 87.0947C125.798 90.1064 125.975 93.1181 125.975 96.1741Z" fill="#BCE2E2"/>
<path d="M125.514 86.5454C125.514 90.1771 123.57 93.8133 119.632 95.4963C111.673 98.9554 99.8214 100.297 84.8603 91.5191C84.2093 91.1294 83.5626 90.7839 82.916 90.4384C98.7895 75.8184 110.726 74.565 118.773 77.1604C122.666 78.3695 124.872 81.5716 125.39 85.0307C125.47 85.509 125.514 86.0272 125.514 86.5454Z" fill="#AAAAAA"/>
<path d="M89.5285 94.646L77.0761 95.9941C75.099 96.2081 73.3227 94.7788 73.1087 92.8018L71.7606 80.3494C71.5466 78.3723 72.9758 76.596 74.9529 76.382L87.4053 75.0339C89.3823 74.8199 91.1586 76.2491 91.3727 78.2262L92.7208 90.6786C92.9348 92.6556 91.5055 94.4319 89.5285 94.646Z" fill="white"/>
<path d="M120.784 95.3796L111.535 103.826C110.067 105.167 107.789 105.064 106.448 103.596L98.0015 94.3472C96.6604 92.8789 96.7636 90.6013 98.232 89.2602L107.48 80.8136C108.949 79.4725 111.226 79.5757 112.567 81.0441L121.014 90.2926C122.355 91.7609 122.252 94.0385 120.784 95.3796Z" fill="white"/>
<path d="M52.1096 91.7318L43.2516 82.8738C41.8432 81.4654 41.8432 79.1889 43.2516 77.7805L52.1096 68.9225C53.518 67.5141 55.7945 67.5141 57.2029 68.9225L66.0609 77.7805C67.4693 79.1889 67.4693 81.4654 66.0609 82.8738L57.2029 91.7318C55.7989 93.1402 53.518 93.1402 52.1096 91.7318Z" fill="white"/>
<path d="M107.324 137.806H53.5428C50.1945 137.806 47.01 136.199 45.1011 133.444C35.5434 119.665 33.918 102.166 35.3574 86.4303C36.7747 85.6331 55.5535 75.4907 82.9246 90.4607C83.5447 90.7707 84.209 91.125 84.8734 91.5237C99.799 100.293 111.669 98.9643 119.641 95.5097C123.583 93.8267 125.531 90.195 125.531 86.5632C126.971 102.304 125.345 119.741 115.748 133.471C113.834 136.208 110.663 137.806 107.324 137.806Z" fill="url(#paint4_linear_19167_4704)"/>
<defs>
<linearGradient id="paint0_linear_19167_4704" x1="53.7238" y1="45.9818" x2="132.967" y2="76.7105" gradientUnits="userSpaceOnUse">
<stop stop-color="#E7E7E7"/>
<stop offset="1" stop-color="#C9C9C9"/>
</linearGradient>
<linearGradient id="paint1_linear_19167_4704" x1="52.7078" y1="72.341" x2="111.187" y2="51.79" gradientUnits="userSpaceOnUse">
<stop stop-color="#5E6063"/>
<stop offset="1" stop-color="#8E9197"/>
</linearGradient>
<linearGradient id="paint2_linear_19167_4704" x1="73.5548" y1="58.7896" x2="103.911" y2="31.5461" gradientUnits="userSpaceOnUse">
<stop stop-color="#5E6063"/>
<stop offset="1" stop-color="#8E9197"/>
</linearGradient>
<linearGradient id="paint3_linear_19167_4704" x1="97.5358" y1="68.0055" x2="86.3897" y2="62.1704" gradientUnits="userSpaceOnUse">
<stop stop-color="#5E6063"/>
<stop offset="1" stop-color="#8E9197"/>
</linearGradient>
<linearGradient id="paint4_linear_19167_4704" x1="24.4138" y1="91.1196" x2="246.428" y2="131.791" gradientUnits="userSpaceOnUse">
<stop stop-color="#BABABA" stop-opacity="0.26"/>
<stop offset="1" stop-color="#7D7D7D"/>
</linearGradient>
</defs>
</svg>
