<svg width="16" height="16" viewBox="0 0 16 16" fill="none" xmlns="http://www.w3.org/2000/svg">
<g clip-path="url(#clip0_9293_2706)">
<path fill-rule="evenodd" clip-rule="evenodd" d="M1.83186 7.52018H4.87377C5.00563 5.48991 5.7145 3.5441 6.90976 1.9093C4.16667 2.39709 2.04884 4.69257 1.83186 7.52018ZM8.00018 2.06765C6.7348 3.61839 5.97858 5.52294 5.83599 7.52018H10.1644C10.0218 5.52294 9.26556 3.61839 8.00018 2.06765ZM10.1644 8.48018C10.0218 10.4774 9.26556 12.382 8.00018 13.9327C6.7348 12.382 5.97858 10.4774 5.83599 8.48018H10.1644ZM4.87377 8.48018H1.83186C2.04884 11.3078 4.16667 13.6033 6.90976 14.0911C5.7145 12.4563 5.00563 10.5105 4.87377 8.48018ZM9.0906 14.0911C10.2859 12.4563 10.9947 10.5105 11.1266 8.48018H14.1685C13.9515 11.3078 11.8337 13.6033 9.0906 14.0911ZM14.1685 7.52018H11.1266C10.9947 5.48991 10.2859 3.5441 9.0906 1.9093C11.8337 2.39709 13.9515 4.69257 14.1685 7.52018ZM0.853516 8.00018C0.853516 4.05319 4.05319 0.853516 8.00018 0.853516C11.9472 0.853516 15.1468 4.05319 15.1468 8.00018C15.1468 11.9472 11.9472 15.1468 8.00018 15.1468C4.05319 15.1468 0.853516 11.9472 0.853516 8.00018Z" fill="#646464"/>
</g>
<defs>
<clipPath id="clip0_9293_2706">
<rect width="16" height="16" fill="white"/>
</clipPath>
</defs>
</svg>
