<svg width="16" height="16" viewBox="0 0 16 16" fill="none" xmlns="http://www.w3.org/2000/svg">
<path fill-rule="evenodd" clip-rule="evenodd" d="M2.24467 7.55242H5.08227C5.20527 5.6585 5.86653 3.84337 6.98151 2.31838C4.42266 2.7734 2.44707 4.91472 2.24467 7.55242ZM7.9987 2.46609C6.8183 3.91267 6.11288 5.68932 5.97986 7.55242H10.0175C9.88452 5.68932 9.17909 3.91267 7.9987 2.46609ZM10.0175 8.44794C9.88452 10.311 9.17909 12.0877 7.9987 13.5343C6.8183 12.0877 6.11288 10.311 5.97986 8.44794H10.0175ZM5.08227 8.44794H2.24467C2.44707 11.0856 4.42266 13.227 6.98151 13.682C5.86653 12.157 5.20527 10.3419 5.08227 8.44794ZM9.01588 13.682C10.1309 12.157 10.7921 10.3419 10.9151 8.44794H13.7527C13.5503 11.0856 11.5747 13.227 9.01588 13.682ZM13.7527 7.55242H10.9151C10.7921 5.6585 10.1309 3.84337 9.01588 2.31838C11.5747 2.7734 13.5503 4.91472 13.7527 7.55242ZM1.33203 8.00018C1.33203 4.31827 4.3168 1.3335 7.9987 1.3335C11.6806 1.3335 14.6654 4.31827 14.6654 8.00018C14.6654 11.6821 11.6806 14.6669 7.9987 14.6669C4.3168 14.6669 1.33203 11.6821 1.33203 8.00018Z" fill="#999999"/>
</svg>
