<svg width="20" height="20" viewBox="0 0 20 20" fill="none" xmlns="http://www.w3.org/2000/svg">
<path d="M2.80238 16.25H5.4539V9.81219L1.66602 6.97196V15.1139C1.66602 15.7416 2.17454 16.25 2.80238 16.25Z" fill="#4285F4"/>
<path d="M14.5448 16.25H17.1963C17.8242 16.25 18.3327 15.7416 18.3327 15.1139V6.97196L14.5448 9.81219V16.25Z" fill="#34A853"/>
<path d="M14.5448 4.88915V9.81219L18.3327 6.97196V5.4572C18.3327 4.05318 16.7295 3.25129 15.6054 4.09389L14.5448 4.88915Z" fill="#FBBC04"/>
<path fill-rule="evenodd" clip-rule="evenodd" d="M5.4539 9.81219L5.45393 4.88913L9.99939 8.2974L14.5448 4.88915V9.81219L9.99939 13.2205L5.4539 9.81219Z" fill="#EA4335"/>
<path d="M1.66602 5.4572V6.97196L5.4539 9.81219L5.45393 4.88913L4.39329 4.09389C3.26924 3.25129 1.66602 4.05318 1.66602 5.4572Z" fill="#C5221F"/>
</svg>
