<svg width="20" height="20" viewBox="0 0 20 20" fill="none" xmlns="http://www.w3.org/2000/svg">
<path d="M10.8015 3.41362L12.4199 6.67778C12.5415 6.92362 12.7765 7.09363 13.049 7.1328L16.7848 7.67276C17.4698 7.77192 17.7432 8.61194 17.2473 9.09361L14.5465 11.7145C14.349 11.9061 14.259 12.1819 14.3056 12.4528L14.9231 16.0395C15.0481 16.767 14.284 17.322 13.629 16.9795L10.389 15.2836C10.1457 15.1561 9.85567 15.1561 9.61317 15.2836L6.37566 16.9778C5.71982 17.3211 4.95313 16.7653 5.07897 16.0361L5.69654 12.4528C5.74321 12.1819 5.65315 11.9061 5.45565 11.7145L2.75485 9.09361C2.25818 8.61194 2.53146 7.77192 3.21729 7.67276L6.95315 7.1328C7.22482 7.09363 7.45982 6.92362 7.58232 6.67778L9.20067 3.41362C9.5265 2.75112 10.4732 2.75112 10.8015 3.41362Z" fill="#F6D84E"/>
</svg>
