<svg width="16" height="17" viewBox="0 0 16 17" fill="none" xmlns="http://www.w3.org/2000/svg">
<path fill-rule="evenodd" clip-rule="evenodd" d="M7.99997 5.16661C8.36816 5.16661 8.66663 5.46508 8.66663 5.83327V8.49994C8.66663 8.86813 8.36816 9.16661 7.99997 9.16661C7.63178 9.16661 7.3333 8.86813 7.3333 8.49994V5.83327C7.3333 5.46508 7.63178 5.16661 7.99997 5.16661Z" fill="#8A8A8A"/>
<path fill-rule="evenodd" clip-rule="evenodd" d="M7.3333 11.1666C7.3333 10.7984 7.63178 10.4999 7.99997 10.4999H8.00663C8.37482 10.4999 8.6733 10.7984 8.6733 11.1666C8.6733 11.5348 8.37482 11.8333 8.00663 11.8333H7.99997C7.63178 11.8333 7.3333 11.5348 7.3333 11.1666Z" fill="#8A8A8A"/>
<path fill-rule="evenodd" clip-rule="evenodd" d="M8.0001 13.94C11.0045 13.94 13.4401 11.5044 13.4401 8.49998C13.4401 5.49555 11.0045 3.05998 8.0001 3.05998C4.99567 3.05998 2.5601 5.49555 2.5601 8.49998C2.5601 11.5044 4.99567 13.94 8.0001 13.94ZM8.0001 14.9C11.5347 14.9 14.4001 12.0346 14.4001 8.49998C14.4001 4.96535 11.5347 2.09998 8.0001 2.09998C4.46548 2.09998 1.6001 4.96535 1.6001 8.49998C1.6001 12.0346 4.46548 14.9 8.0001 14.9Z" fill="#8A8A8A"/>
</svg>
