<svg width="14" height="14" viewBox="0 0 14 14" fill="none" xmlns="http://www.w3.org/2000/svg">
<path d="M7.75 1.1665C7.75 0.75229 7.41421 0.416504 7 0.416504C6.58579 0.416504 6.25 0.75229 6.25 1.1665V6.25H1.16699C0.752779 6.25 0.416992 6.58579 0.416992 7C0.416992 7.41421 0.752779 7.75 1.16699 7.75H6.25V12.8332C6.25 13.2474 6.58579 13.5832 7 13.5832C7.41421 13.5832 7.75 13.2474 7.75 12.8332V7.75H12.8337C13.2479 7.75 13.5837 7.41421 13.5837 7C13.5837 6.58579 13.2479 6.25 12.8337 6.25H7.75V1.1665Z" fill="#646464"/>
</svg>
