<svg width="21" height="20" viewBox="0 0 21 20" fill="none" xmlns="http://www.w3.org/2000/svg">
<path d="M6.125 8.33334C5.4375 8.33334 4.875 8.89584 4.875 9.58334C4.875 10.2708 5.4375 10.8333 6.125 10.8333C6.8125 10.8333 7.375 10.2708 7.375 9.58334C7.375 8.89584 6.8125 8.33334 6.125 8.33334Z" fill="#61646C"/>
<path d="M14.875 8.33334C14.1875 8.33334 13.625 8.89584 13.625 9.58334C13.625 10.2708 14.1875 10.8333 14.875 10.8333C15.5625 10.8333 16.125 10.2708 16.125 9.58334C16.125 8.89584 15.5625 8.33334 14.875 8.33334Z" fill="#61646C"/>
<path d="M10.5 8.33334C9.8125 8.33334 9.25 8.89584 9.25 9.58334C9.25 10.2708 9.8125 10.8333 10.5 10.8333C11.1875 10.8333 11.75 10.2708 11.75 9.58334C11.75 8.89584 11.1875 8.33334 10.5 8.33334Z" fill="#61646C"/>
</svg>
