<svg width="16" height="16" viewBox="0 0 16 16" fill="none" xmlns="http://www.w3.org/2000/svg">
<path d="M8.60078 3.3334C8.60078 3.00203 8.33215 2.7334 8.00078 2.7334C7.66941 2.7334 7.40078 3.00203 7.40078 3.3334V7.4002H3.33438C3.003 7.4002 2.73438 7.66882 2.73438 8.0002C2.73438 8.33157 3.003 8.6002 3.33438 8.6002H7.40078V12.6667C7.40078 12.9981 7.66941 13.2667 8.00078 13.2667C8.33215 13.2667 8.60078 12.9981 8.60078 12.6667V8.6002H12.6677C12.9991 8.6002 13.2677 8.33157 13.2677 8.0002C13.2677 7.66882 12.9991 7.4002 12.6677 7.4002H8.60078V3.3334Z" fill="#646464"/>
</svg>
