<svg width="21" height="20" viewBox="0 0 21 20" fill="none" xmlns="http://www.w3.org/2000/svg">
<g id="rotate-ccw">
<path id="Vector" d="M4.9891 10.9607C5.15681 10.9085 5.33838 10.9246 5.49423 11.0056C5.65008 11.0867 5.76757 11.2261 5.8211 11.3934C6.13554 12.3548 6.74857 13.1908 7.57097 13.7798C8.39338 14.3688 9.38226 14.68 10.3937 14.6681C11.6448 14.6823 12.8505 14.1998 13.7464 13.3264C14.6422 12.453 15.1552 11.26 15.1727 10.0089C15.1552 8.75788 14.6422 7.56485 13.7464 6.69144C12.8505 5.81803 11.6448 5.33553 10.3937 5.34975C9.26384 5.34703 8.16871 5.74033 7.29872 6.4613L8.74306 6.22168C8.82963 6.20744 8.91815 6.21045 9.00354 6.23054C9.08894 6.25063 9.16952 6.2874 9.24066 6.33874C9.31179 6.39008 9.37207 6.45498 9.41804 6.5297C9.46401 6.60442 9.49475 6.68749 9.5085 6.77413C9.52274 6.86069 9.51973 6.94922 9.49964 7.03461C9.47955 7.12001 9.44278 7.20059 9.39144 7.27172C9.3401 7.34286 9.2752 7.40314 9.20048 7.44911C9.12576 7.49507 9.0427 7.52581 8.95605 7.53956L6.13393 8.00548H6.02078C5.9436 8.00539 5.86702 7.99188 5.79447 7.96555C5.77009 7.95629 5.74755 7.94277 5.72791 7.92561C5.68019 7.90786 5.63534 7.88319 5.5948 7.85239L5.53489 7.77918C5.53489 7.7459 5.47499 7.71927 5.44836 7.67934C5.42174 7.6394 5.44836 7.61278 5.41508 7.58616C5.39669 7.54739 5.38112 7.50735 5.36849 7.46635L4.8693 4.80397C4.85269 4.71656 4.85346 4.62674 4.87157 4.53963C4.88967 4.45252 4.92476 4.36983 4.97482 4.29628C5.02489 4.22273 5.08894 4.15976 5.16334 4.11097C5.23774 4.06218 5.32102 4.02851 5.40843 4.01191C5.49584 3.9953 5.58566 3.99607 5.67277 4.01418C5.75988 4.03228 5.84257 4.06737 5.91612 4.11743C6.06466 4.21854 6.16695 4.37451 6.20049 4.55104L6.3802 5.51615C7.49441 4.55053 8.91933 4.01885 10.3937 4.01856C11.9979 4.00436 13.5421 4.62711 14.6876 5.75016C15.8331 6.87321 16.4863 8.40483 16.5039 10.0089C16.4863 11.613 15.8331 13.1446 14.6876 14.2677C13.5421 15.3907 11.9979 16.0135 10.3937 15.9993C9.09374 16.0193 7.82167 15.6213 6.76482 14.864C5.70798 14.1067 4.9222 13.0301 4.52319 11.7927C4.49794 11.7075 4.49001 11.6181 4.49988 11.5298C4.50974 11.4414 4.5372 11.356 4.58063 11.2784C4.62405 11.2009 4.68257 11.1328 4.75272 11.0783C4.82288 11.0237 4.90325 10.9837 4.9891 10.9607Z" fill="#646464"/>
</g>
</svg>
