<svg width="20" height="20" viewBox="0 0 20 20" fill="none" xmlns="http://www.w3.org/2000/svg">
<g id="completed">
<path id="Vector 10 (Stroke)" fill-rule="evenodd" clip-rule="evenodd" d="M11.7655 3.9143L15.4201 7.56899C15.6444 7.79325 15.6444 8.15687 15.4201 8.38114L11.7655 12.0358C11.5412 12.2601 11.1776 12.2601 10.9533 12.0358C10.729 11.8116 10.729 11.4479 10.9533 11.2237L13.6276 8.54934H6.02858C5.76908 8.54934 5.55871 8.75971 5.55871 9.01921V15.679C5.55871 15.9962 5.3016 16.2533 4.98444 16.2533C4.66727 16.2533 4.41016 15.9962 4.41016 15.679V9.01921C4.41016 8.12538 5.13475 7.40078 6.02858 7.40078H13.6276L10.9533 4.72645C10.729 4.50218 10.729 4.13857 10.9533 3.9143C11.1776 3.69003 11.5412 3.69003 11.7655 3.9143Z" fill="#646464"/>
</g>
</svg>
