<svg width="20" height="20" viewBox="0 0 20 20" fill="none" xmlns="http://www.w3.org/2000/svg">
<path d="M10 1.03687C5.04608 1.03687 1.03687 5.04563 1.03687 10C1.03687 14.9538 5.04563 18.9631 10 18.9631C14.9539 18.9631 18.9631 14.9544 18.9631 10C18.9631 5.04608 14.9544 1.03687 10 1.03687ZM10 17.7125C5.74734 17.7125 2.28754 14.2527 2.28754 10C2.28754 5.74731 5.74734 2.28754 10 2.28754C14.2527 2.28754 17.7125 5.74731 17.7125 10C17.7125 14.2527 14.2527 17.7125 10 17.7125Z" fill="#646464"/>
<path d="M9.99408 12.3782C9.49855 12.3782 9.09741 12.7911 9.09741 13.2866C9.09741 13.7704 9.48675 14.1951 9.99408 14.1951C10.5014 14.1951 10.9025 13.7704 10.9025 13.2866C10.9025 12.7911 10.4896 12.3782 9.99408 12.3782Z" fill="#646464"/>
<path d="M9.90555 5.49988C8.31277 5.49988 7.5813 6.44377 7.5813 7.08086C7.5813 7.54099 7.97064 7.75337 8.28918 7.75337C8.92629 7.75337 8.66675 6.84487 9.87015 6.84487C10.46 6.84487 10.932 7.10445 10.932 7.64718C10.932 8.28426 10.2713 8.65 9.88195 8.98034C9.53978 9.27525 9.09148 9.75901 9.09148 10.7737C9.09148 11.3872 9.25667 11.5641 9.74036 11.5641C10.3185 11.5641 10.4364 11.3046 10.4364 11.0804C10.4364 10.4669 10.4482 10.113 11.0972 9.60562C11.4157 9.35788 12.4185 8.55557 12.4185 7.44656C12.4185 6.33755 11.4157 5.49988 9.90555 5.49988Z" fill="#646464"/>
</svg>
