<svg width="24" height="24" viewBox="0 0 24 24" fill="none" xmlns="http://www.w3.org/2000/svg">
<path d="M21.8634 11.58C20.6495 9.98958 19.1915 8.60121 17.5435 7.46652L20.362 4.64798C20.6458 4.37393 20.6537 3.92176 20.3796 3.638C20.1056 3.35424 19.6534 3.34637 19.3696 3.62042C19.3637 3.62615 19.3578 3.63201 19.3521 3.638L16.2728 6.71439C14.9621 5.99302 13.4958 5.60083 12 5.57153C6.57147 5.57153 2.3151 11.3343 2.13651 11.58C1.9545 11.8304 1.9545 12.1696 2.13651 12.42C3.35048 14.0104 4.80849 15.3988 6.45646 16.5335L3.63792 19.3521C3.35416 19.6261 3.34629 20.0783 3.62034 20.362C3.89439 20.6458 4.34656 20.6537 4.63032 20.3796C4.63626 20.3739 4.64212 20.368 4.6479 20.362L7.72714 17.2856C9.03782 18.007 10.5042 18.3992 12 18.4285C17.4285 18.4285 21.6849 12.6657 21.8634 12.42C22.0455 12.1696 22.0455 11.8304 21.8634 11.58ZM7.49502 15.4971C6.03995 14.528 4.73566 13.3496 3.62436 12C4.67577 10.7265 8.08573 7.00007 12 7.00007C13.1136 7.02259 14.2085 7.2909 15.2064 7.78576L13.9664 9.02576C12.3258 7.93656 10.1128 8.38354 9.02359 10.0241C8.23016 11.2192 8.23016 12.7735 9.02359 13.9686L7.49502 15.4971ZM13.9286 11.0822C14.0683 11.368 14.1416 11.6818 14.1428 12C14.1428 13.1835 13.1835 14.1429 12 14.1429C11.6818 14.1417 11.368 14.0684 11.0821 13.9286L13.9286 11.0822ZM10.0714 12.9179C9.93166 12.632 9.85838 12.3182 9.85716 12C9.85716 10.8165 10.8165 9.85716 12 9.85716C12.3182 9.85837 12.632 9.93165 12.9179 10.0714L10.0714 12.9179ZM12 17C10.8864 16.9774 9.7915 16.7091 8.79362 16.2143L10.0336 14.9743C11.6742 16.0635 13.8872 15.6165 14.9764 13.9759C15.7698 12.7808 15.7698 11.2266 14.9764 10.0315L16.505 8.5029C17.9601 9.47203 19.2643 10.6504 20.3756 12C19.3242 13.2736 15.9142 17 12 17Z" fill="#202020" fill-opacity="0.6"/>
</svg>
