<svg width="32" height="32" viewBox="0 0 32 32" fill="none" xmlns="http://www.w3.org/2000/svg">
<rect width="32" height="32" rx="16" fill="#E7EAED"/>
<path d="M11.3145 9.75231C11.3145 9.4434 11.4061 9.14143 11.5777 8.88458C11.7493 8.62773 11.9932 8.42754 12.2786 8.30932C12.564 8.19111 12.8781 8.16018 13.181 8.22044C13.484 8.28071 13.7623 8.42946 13.9808 8.64789C14.1992 8.86633 14.3479 9.14463 14.4082 9.4476C14.4685 9.75058 14.4375 10.0646 14.3193 10.35C14.2011 10.6354 14.0009 10.8793 13.7441 11.051C13.4872 11.2226 13.1852 11.3142 12.8763 11.3142C12.4621 11.3142 12.0648 11.1496 11.7719 10.8567C11.479 10.5638 11.3145 10.1665 11.3145 9.75231ZM12.8763 17.5617C13.1852 17.5617 13.4872 17.4701 13.7441 17.2985C14.0009 17.1269 14.2011 16.8829 14.3193 16.5975C14.4375 16.3121 14.4685 15.9981 14.4082 15.6951C14.3479 15.3922 14.1992 15.1139 13.9808 14.8954C13.7623 14.677 13.484 14.5282 13.181 14.468C12.8781 14.4077 12.564 14.4386 12.2786 14.5568C11.9932 14.6751 11.7493 14.8753 11.5777 15.1321C11.4061 15.389 11.3145 15.6909 11.3145 15.9998C11.3145 16.4141 11.479 16.8113 11.7719 17.1043C12.0648 17.3972 12.4621 17.5617 12.8763 17.5617ZM12.8763 23.8092C13.1852 23.8092 13.4872 23.7176 13.7441 23.546C14.0009 23.3744 14.2011 23.1305 14.3193 22.8451C14.4375 22.5597 14.4685 22.2456 14.4082 21.9427C14.3479 21.6397 14.1992 21.3614 13.9808 21.1429C13.7623 20.9245 13.484 20.7758 13.181 20.7155C12.8781 20.6552 12.564 20.6862 12.2786 20.8044C11.9932 20.9226 11.7493 21.1228 11.5777 21.3796C11.4061 21.6365 11.3145 21.9385 11.3145 22.2474C11.3145 22.6616 11.479 23.0589 11.7719 23.3518C12.0648 23.6447 12.4621 23.8092 12.8763 23.8092ZM19.1239 11.3142C19.4328 11.3142 19.7347 11.2226 19.9916 11.051C20.2484 10.8793 20.4486 10.6354 20.5669 10.35C20.6851 10.0646 20.716 9.75058 20.6557 9.4476C20.5955 9.14463 20.4467 8.86633 20.2283 8.64789C20.0098 8.42946 19.7315 8.28071 19.4286 8.22044C19.1256 8.16018 18.8116 8.19111 18.5262 8.30932C18.2408 8.42754 17.9968 8.62773 17.8252 8.88458C17.6536 9.14143 17.562 9.4434 17.562 9.75231C17.562 10.1665 17.7265 10.5638 18.0194 10.8567C18.3124 11.1496 18.7096 11.3142 19.1239 11.3142ZM19.1239 17.5617C19.4328 17.5617 19.7347 17.4701 19.9916 17.2985C20.2484 17.1269 20.4486 16.8829 20.5669 16.5975C20.6851 16.3121 20.716 15.9981 20.6557 15.6951C20.5955 15.3922 20.4467 15.1139 20.2283 14.8954C20.0098 14.677 19.7315 14.5282 19.4286 14.468C19.1256 14.4077 18.8116 14.4386 18.5262 14.5568C18.2408 14.6751 17.9968 14.8753 17.8252 15.1321C17.6536 15.389 17.562 15.6909 17.562 15.9998C17.562 16.4141 17.7265 16.8113 18.0194 17.1043C18.3124 17.3972 18.7096 17.5617 19.1239 17.5617ZM19.1239 23.8092C19.4328 23.8092 19.7347 23.7176 19.9916 23.546C20.2484 23.3744 20.4486 23.1305 20.5669 22.8451C20.6851 22.5597 20.716 22.2456 20.6557 21.9427C20.5955 21.6397 20.4467 21.3614 20.2283 21.1429C20.0098 20.9245 19.7315 20.7758 19.4286 20.7155C19.1256 20.6552 18.8116 20.6862 18.5262 20.8044C18.2408 20.9226 17.9968 21.1228 17.8252 21.3796C17.6536 21.6365 17.562 21.9385 17.562 22.2474C17.562 22.6616 17.7265 23.0589 18.0194 23.3518C18.3124 23.6447 18.7096 23.8092 19.1239 23.8092Z" fill="#646464"/>
</svg>
