<svg width="14" height="12" viewBox="0 0 14 12" fill="none" xmlns="http://www.w3.org/2000/svg">
<path fill-rule="evenodd" clip-rule="evenodd" d="M6.21463 0.309489C6.43536 0.109782 6.71653 0 7.0073 0C7.29808 0 7.57925 0.109782 7.79997 0.309489L11.6574 3.79718L13.1715 5.07536C13.2339 5.12808 13.2859 5.19325 13.3245 5.26717C13.3631 5.34108 13.3874 5.42229 13.3963 5.50614C13.4051 5.59 13.3982 5.67487 13.3759 5.75591C13.3536 5.83694 13.3164 5.91256 13.2665 5.97843C13.2165 6.04431 13.1547 6.09916 13.0847 6.13984C13.0146 6.18053 12.9376 6.20626 12.8581 6.21556C12.7787 6.22487 12.6982 6.21757 12.6214 6.19407C12.5446 6.17058 12.4729 6.13135 12.4105 6.07863L11.8778 5.62902V10.7154C11.8778 11.0561 11.7495 11.3828 11.5211 11.6237C11.2928 11.8647 10.9831 12 10.6602 12H8.22492V8.7885C8.22492 8.4478 8.09664 8.12106 7.86829 7.88015C7.63994 7.63924 7.33024 7.5039 7.0073 7.5039C6.68437 7.5039 6.37467 7.63924 6.14632 7.88015C5.91797 8.12106 5.78969 8.4478 5.78969 8.7885V12H3.35445C3.03152 12 2.72181 11.8647 2.49346 11.6237C2.26512 11.3828 2.13683 11.0561 2.13683 10.7154V5.62838L1.60413 6.07799C1.54211 6.13386 1.47008 6.17601 1.39233 6.20195C1.31457 6.22789 1.23267 6.23708 1.15148 6.22899C1.07029 6.22089 0.991476 6.19566 0.919706 6.15481C0.847935 6.11396 0.784676 6.05831 0.733682 5.99117C0.682688 5.92403 0.645 5.84676 0.622854 5.76396C0.600708 5.68116 0.594556 5.5945 0.604763 5.50914C0.61497 5.42378 0.641328 5.34146 0.682272 5.26705C0.723217 5.19265 0.777913 5.12768 0.843114 5.076L2.35722 3.79782L6.21463 0.309489Z" fill="#B6B8B9"/>
</svg>
