<svg width="16" height="16" viewBox="0 0 16 16" fill="none" xmlns="http://www.w3.org/2000/svg">
<path fill-rule="evenodd" clip-rule="evenodd" d="M7.72714 1.2964C7.88763 1.16813 8.11237 1.16813 8.27286 1.2964L13.8284 5.7367C13.9367 5.82323 14 5.95627 14 6.09721V13.0748C14 13.5324 13.8231 13.9713 13.5082 14.2948C13.1934 14.6184 12.7663 14.8002 12.321 14.8002H3.67901C3.23371 14.8002 2.80665 14.6184 2.49177 14.2948C2.1769 13.9713 2 13.5324 2 13.0748V6.09721C2 5.95627 2.06332 5.82323 2.17158 5.7367L7.72714 1.2964ZM2.88889 6.32058V13.0748C2.88889 13.2902 2.97213 13.4967 3.12031 13.649C3.26849 13.8012 3.46946 13.8868 3.67901 13.8868H12.321C12.5305 13.8868 12.7315 13.8012 12.8797 13.649C13.0279 13.4967 13.1111 13.2902 13.1111 13.0748V6.32058L8 2.23551L2.88889 6.32058Z" fill="#646464"/>
<path fill-rule="evenodd" clip-rule="evenodd" d="M5.7037 8.0002C5.7037 7.74796 5.90269 7.54348 6.14815 7.54348H9.85185C10.0973 7.54348 10.2963 7.74796 10.2963 8.0002V14.3435C10.2963 14.5957 10.0973 14.8002 9.85185 14.8002C9.60639 14.8002 9.40741 14.5957 9.40741 14.3435V8.45691H6.59259V14.3435C6.59259 14.5957 6.39361 14.8002 6.14815 14.8002C5.90269 14.8002 5.7037 14.5957 5.7037 14.3435V8.0002Z" fill="#646464"/>
</svg>
