<svg width="16" height="16" viewBox="0 0 16 16" fill="none" xmlns="http://www.w3.org/2000/svg">
<path fill-rule="evenodd" clip-rule="evenodd" d="M7.76606 3.24901C7.95342 3.08833 8.1921 3 8.43892 3C8.68575 3 8.92443 3.08833 9.11179 3.24901L12.3862 6.0552L13.6715 7.08362C13.7245 7.12604 13.7686 7.17848 13.8013 7.23795C13.8341 7.29742 13.8548 7.36276 13.8623 7.43023C13.8697 7.4977 13.8639 7.56599 13.845 7.63119C13.8261 7.69639 13.7945 7.75723 13.7521 7.81023C13.7097 7.86324 13.6572 7.90737 13.5977 7.9401C13.5383 7.97284 13.4729 7.99354 13.4055 8.00103C13.338 8.00851 13.2697 8.00264 13.2045 7.98373C13.1393 7.96483 13.0785 7.93327 13.0255 7.89085L12.5733 7.5291V11.6216C12.5733 11.8957 12.4644 12.1586 12.2705 12.3524C12.0767 12.5463 11.8138 12.6552 11.5397 12.6552H9.47251V10.0712C9.47251 9.79708 9.36362 9.53418 9.16978 9.34035C8.97595 9.14651 8.71305 9.03762 8.43892 9.03762C8.1648 9.03762 7.9019 9.14651 7.70807 9.34035C7.51423 9.53418 7.40534 9.79708 7.40534 10.0712V12.6552H5.33816C5.06404 12.6552 4.80114 12.5463 4.60731 12.3524C4.41347 12.1586 4.30458 11.8957 4.30458 11.6216V7.52858L3.85238 7.89034C3.79974 7.93529 3.7386 7.96921 3.6726 7.99008C3.60659 8.01095 3.53707 8.01834 3.46815 8.01183C3.39923 8.00531 3.33233 7.98502 3.27141 7.95215C3.21048 7.91928 3.15678 7.8745 3.1135 7.82048C3.07021 7.76646 3.03822 7.70429 3.01942 7.63767C3.00062 7.57105 2.9954 7.50132 3.00406 7.43264C3.01273 7.36396 3.0351 7.29773 3.06986 7.23786C3.10461 7.17799 3.15104 7.12572 3.20639 7.08414L4.49166 6.05572L7.76606 3.24901Z" fill="#646464"/>
</svg>
