<svg width="16" height="16" viewBox="0 0 16 16" fill="none" color="#28ad99" xmlns="http://www.w3.org/2000/svg">
<path fill-rule="evenodd" clip-rule="evenodd" d="M8.12714 0.896011C8.28763 0.767736 8.51237 0.767736 8.67286 0.896011L14.2284 5.33631C14.3367 5.42284 14.4 5.55588 14.4 5.69682V12.6744C14.4 13.132 14.2231 13.5709 13.9082 13.8945C13.5934 14.218 13.1663 14.3998 12.721 14.3998H4.07901C3.63371 14.3998 3.20665 14.218 2.89177 13.8945C2.5769 13.5709 2.4 13.132 2.4 12.6744V5.69682C2.4 5.55588 2.46332 5.42284 2.57158 5.33631L8.12714 0.896011ZM3.28889 5.92019V12.6744C3.28889 12.8898 3.37214 13.0963 3.52031 13.2486C3.66849 13.4008 3.86946 13.4864 4.07901 13.4864H12.721C12.9305 13.4864 13.1315 13.4008 13.2797 13.2486C13.4279 13.0963 13.5111 12.8898 13.5111 12.6744V5.92019L8.4 1.83512L3.28889 5.92019Z" fill="currentColor"/>
<path fill-rule="evenodd" clip-rule="evenodd" d="M6.10371 7.5998C6.10371 7.34757 6.30269 7.14309 6.54815 7.14309H10.2519C10.4973 7.14309 10.6963 7.34757 10.6963 7.5998V13.9431C10.6963 14.1953 10.4973 14.3998 10.2519 14.3998C10.0064 14.3998 9.80741 14.1953 9.80741 13.9431V8.05652H6.99259V13.9431C6.99259 14.1953 6.79361 14.3998 6.54815 14.3998C6.30269 14.3998 6.10371 14.1953 6.10371 13.9431V7.5998Z" fill="currentColor"/>
</svg>
