<svg width="20" height="20" viewBox="0 0 20 20" fill="none" xmlns="http://www.w3.org/2000/svg">
<path fill-rule="evenodd" clip-rule="evenodd" d="M9.65892 1.62026C9.85954 1.45991 10.1405 1.45991 10.3411 1.62026L17.2855 7.17063C17.4208 7.27879 17.5 7.4451 17.5 7.62127V16.3433C17.5 16.9153 17.2789 17.4639 16.8853 17.8683C16.4917 18.2728 15.9579 18.5 15.4012 18.5H4.59877C4.04214 18.5 3.50831 18.2728 3.11471 17.8683C2.72112 17.4639 2.5 16.9153 2.5 16.3433V7.62127C2.5 7.4451 2.57915 7.27879 2.71448 7.17063L9.65892 1.62026ZM3.61111 7.90048V16.3433C3.61111 16.6125 3.71517 16.8706 3.90039 17.0609C4.08561 17.2513 4.33682 17.3582 4.59877 17.3582H15.4012C15.6632 17.3582 15.9144 17.2513 16.0996 17.0609C16.2848 16.8706 16.3889 16.6125 16.3889 16.3433V7.90048L10 2.79414L3.61111 7.90048Z" fill="#646464"/>
<path fill-rule="evenodd" clip-rule="evenodd" d="M7.12963 10C7.12963 9.6847 7.37836 9.4291 7.68519 9.4291H12.3148C12.6216 9.4291 12.8704 9.6847 12.8704 10V17.9291C12.8704 18.2444 12.6216 18.5 12.3148 18.5C12.008 18.5 11.7593 18.2444 11.7593 17.9291V10.5709H8.24074V17.9291C8.24074 18.2444 7.99201 18.5 7.68519 18.5C7.37836 18.5 7.12963 18.2444 7.12963 17.9291V10Z" fill="#646464"/>
</svg>
