<svg width="16" height="16" viewBox="0 0 16 16" fill="none" xmlns="http://www.w3.org/2000/svg">
<path fill-rule="evenodd" clip-rule="evenodd" d="M7.72714 1.29616C7.88763 1.16788 8.11237 1.16788 8.27286 1.29616L13.8284 5.73646C13.9367 5.82298 14 5.95603 14 6.09697V13.0746C14 13.5322 13.8231 13.971 13.5082 14.2946C13.1934 14.6182 12.7663 14.8 12.321 14.8H3.67901C3.23371 14.8 2.80665 14.6182 2.49177 14.2946C2.1769 13.971 2 13.5322 2 13.0746V6.09697C2 5.95603 2.06332 5.82298 2.17158 5.73646L7.72714 1.29616ZM2.88889 6.32034V13.0746C2.88889 13.2899 2.97213 13.4964 3.12031 13.6487C3.26849 13.801 3.46946 13.8865 3.67901 13.8865H12.321C12.5305 13.8865 12.7315 13.801 12.8797 13.6487C13.0279 13.4964 13.1111 13.2899 13.1111 13.0746V6.32034L8 2.23526L2.88889 6.32034Z" fill="#999999"/>
<path fill-rule="evenodd" clip-rule="evenodd" d="M5.7037 7.99995C5.7037 7.74771 5.90269 7.54323 6.14815 7.54323H9.85185C10.0973 7.54323 10.2963 7.74771 10.2963 7.99995V14.3432C10.2963 14.5955 10.0973 14.8 9.85185 14.8C9.60639 14.8 9.40741 14.5955 9.40741 14.3432V8.45667H6.59259V14.3432C6.59259 14.5955 6.39361 14.8 6.14815 14.8C5.90269 14.8 5.7037 14.5955 5.7037 14.3432V7.99995Z" fill="#999999"/>
</svg>
