<svg width="48" height="48" viewBox="0 0 48 48" fill="none" xmlns="http://www.w3.org/2000/svg">
<path d="M11.6996 42.2427C15.2108 44.6149 19.4437 46 24 46C36.1504 46 46 36.1505 46 24.0001C46 19.3008 44.5266 14.9455 42.0166 11.3713C38.0368 5.70409 31.451 2.00003 24.0001 2C11.8498 2 2 11.8497 2 24C2 31.594 5.84756 38.2892 11.6996 42.2427Z" fill="#fa3939"/>
<path fill-rule="evenodd" clip-rule="evenodd" d="M24.0031 11.5337C25.5473 11.5337 26.7992 12.7855 26.7992 14.3297V24.6925C26.7992 26.2367 25.5473 27.4885 24.0031 27.4885C22.4589 27.4885 21.207 26.2367 21.207 24.6925V14.3297C21.207 12.7855 22.4589 11.5337 24.0031 11.5337Z" fill="white"/>
<path fill-rule="evenodd" clip-rule="evenodd" d="M21.207 33.6741C21.207 32.1298 22.4589 30.8779 24.0031 30.8779H24.0311C25.5753 30.8779 26.8271 32.1298 26.8271 33.6741C26.8271 35.2183 25.5753 36.4698 24.0311 36.4698H24.0031C22.4589 36.4698 21.207 35.2183 21.207 33.6741Z" fill="white"/>
</svg>
