<svg width="24" height="24" viewBox="0 0 24 24" color="currentColor" fill="none" xmlns="http://www.w3.org/2000/svg">
<path d="M19.9963 8.64259C18.8871 4.22379 14.4058 1.54087 9.98705 2.65009C6.53386 3.51695 4.02646 6.50148 3.76811 10.0524C1.31621 10.4567 -0.343691 12.7722 0.0606558 15.2241C0.420101 17.4038 2.30886 19.0002 4.51803 18.9914H7.5177C7.93187 18.9914 8.26762 18.6557 8.26762 18.2415C8.26762 17.8273 7.93187 17.4916 7.5177 17.4916H4.51803C2.86137 17.4916 1.51836 16.1486 1.51836 14.4919C1.51836 12.8352 2.86137 11.4922 4.51803 11.4922C4.93222 11.4922 5.26795 11.1565 5.26795 10.7423C5.2642 7.0148 8.28295 3.99001 12.0105 3.9863C15.2372 3.98307 18.0148 6.26423 18.639 9.42996C18.7006 9.74605 18.9571 9.98753 19.2764 10.0299C21.3266 10.3218 22.7519 12.2205 22.46 14.2706C22.1978 16.1116 20.626 17.4823 18.7665 17.4916H16.5167C16.1026 17.4916 15.7668 17.8273 15.7668 18.2415C15.7668 18.6557 16.1026 18.9914 16.5167 18.9914H18.7665C21.6657 18.9827 24.0088 16.6253 24 13.7261C23.9927 11.3128 22.3408 9.2153 19.9963 8.64259Z" fill="currentColor"/>
<path d="M11.4849 11.7098L9.0145 14.1802C8.72219 14.4725 8.72219 14.9464 9.0145 15.2387C9.30636 15.5306 9.77939 15.5311 10.0719 15.2399L11.2674 14.0496V20.4913C11.2674 20.9055 11.6032 21.2413 12.0173 21.2413C12.4315 21.2413 12.7673 20.9055 12.7673 20.4913V14.0496L13.9559 15.2382C14.2479 15.5302 14.7213 15.5302 15.0133 15.2382C15.3053 14.9462 15.3053 14.4728 15.0133 14.1808L12.5423 11.7098C12.2498 11.419 11.7774 11.419 11.4849 11.7098Z" fill="currentColor"/>
</svg>
