<svg width="16" height="16" viewBox="0 0 16 16" fill="none" xmlns="http://www.w3.org/2000/svg">
<g clip-path="url(#clip0_69815_408)">
<path fill-rule="evenodd" clip-rule="evenodd" d="M7.33327 6.48006C6.86199 6.48006 6.47994 6.86211 6.47994 7.33339V13.3334C6.47994 13.8047 6.86199 14.1867 7.33327 14.1867H13.3333C13.8046 14.1867 14.1866 13.8047 14.1866 13.3334V7.33339C14.1866 6.86211 13.8046 6.48006 13.3333 6.48006H7.33327ZM5.51994 7.33339C5.51994 6.33192 6.3318 5.52006 7.33327 5.52006H13.3333C14.3347 5.52006 15.1466 6.33192 15.1466 7.33339V13.3334C15.1466 14.3349 14.3347 15.1467 13.3333 15.1467H7.33327C6.3318 15.1467 5.51994 14.3349 5.51994 13.3334V7.33339Z" fill="#646464"/>
<path fill-rule="evenodd" clip-rule="evenodd" d="M2.6666 1.81339C2.44029 1.81339 2.22324 1.9033 2.06321 2.06333C1.90318 2.22336 1.81327 2.44041 1.81327 2.66673V8.66673C1.81327 8.89304 1.90318 9.11009 2.06321 9.27012C2.22324 9.43016 2.44029 9.52006 2.6666 9.52006H3.33327C3.59837 9.52006 3.81327 9.73496 3.81327 10.0001C3.81327 10.2652 3.59837 10.4801 3.33327 10.4801H2.6666C2.18568 10.4801 1.72445 10.289 1.38438 9.94895C1.04432 9.60888 0.853271 9.14765 0.853271 8.66673V2.66673C0.853271 2.1858 1.04432 1.72457 1.38438 1.38451C1.72445 1.04444 2.18568 0.853394 2.6666 0.853394H8.6666C9.14753 0.853394 9.60876 1.04444 9.94882 1.38451C10.2889 1.72457 10.4799 2.1858 10.4799 2.66673V3.33339C10.4799 3.59849 10.265 3.81339 9.99994 3.81339C9.73484 3.81339 9.51994 3.59849 9.51994 3.33339V2.66673C9.51994 2.44041 9.43003 2.22336 9.27 2.06333C9.10997 1.9033 8.89292 1.81339 8.6666 1.81339H2.6666Z" fill="#646464"/>
</g>
<defs>
<clipPath id="clip0_69815_408">
<rect width="16" height="16" fill="white"/>
</clipPath>
</defs>
</svg>
