<svg width="20" height="20" viewBox="0 0 20 20" fill="none" xmlns="http://www.w3.org/2000/svg">
<path d="M16.6636 7.20224C15.7393 3.51991 12.0049 1.28414 8.32254 2.20849C5.44488 2.93087 3.35538 5.41798 3.1401 8.37707C1.09684 8.71403 -0.286409 10.6435 0.0505464 12.6868C0.350084 14.5033 1.92406 15.8336 3.76503 15.8263H6.26475C6.60989 15.8263 6.88969 15.5465 6.88969 15.2013C6.88969 14.8562 6.60989 14.5764 6.26475 14.5764H3.76503C2.38448 14.5764 1.2653 13.4572 1.2653 12.0767C1.2653 10.6961 2.38448 9.57694 3.76503 9.57694C4.11019 9.57694 4.38996 9.29717 4.38996 8.95201C4.38683 5.84575 6.90246 3.32509 10.0087 3.322C12.6977 3.31931 15.0124 5.22027 15.5325 7.85838C15.5839 8.12179 15.7976 8.32302 16.0637 8.35833C17.7722 8.60162 18.9599 10.1838 18.7166 11.8923C18.4982 13.4264 17.1883 14.5687 15.6387 14.5764H13.7639C13.4188 14.5764 13.139 14.8562 13.139 15.2013C13.139 15.5465 13.4188 15.8263 13.7639 15.8263H15.6387C18.0547 15.819 20.0073 13.8545 20 11.4385C19.9939 9.42739 18.6173 7.67949 16.6636 7.20224Z" fill="white"/>
<path d="M9.57056 17.5192L7.5119 15.4605C7.26831 15.2169 7.26831 14.822 7.5119 14.5784C7.75511 14.3352 8.1493 14.3348 8.39304 14.5774L9.38934 15.5694L9.38934 10.2012C9.38934 9.85609 9.66912 9.5763 10.0143 9.5763C10.3594 9.5763 10.6392 9.85609 10.6392 10.2012L10.6392 15.5694L11.6297 14.5789C11.873 14.3356 12.2675 14.3356 12.5109 14.5789C12.7542 14.8222 12.7542 15.2167 12.5109 15.46L10.4517 17.5192C10.208 17.7615 9.81432 17.7615 9.57056 17.5192Z" fill="white"/>
</svg>
