<svg width="24" height="18" viewBox="0 0 24 18" fill="none" xmlns="http://www.w3.org/2000/svg">
<path d="M19.9611 6.64562C18.8611 2.24562 14.3611 -0.454377 9.96115 0.645623C6.46115 1.54562 3.96115 4.54562 3.76115 8.14562C1.26115 8.54562 -0.338852 10.8456 0.061148 13.3456C0.461148 15.5456 2.26115 17.1456 4.56115 17.1456H7.56115C7.96115 17.1456 8.26115 16.8456 8.26115 16.4456C8.26115 16.0456 7.96115 15.7456 7.56115 15.7456H4.56115C2.86115 15.7456 1.56115 14.4456 1.56115 12.7456C1.56115 11.0456 2.86115 9.74562 4.56115 9.74562C4.96115 9.74562 5.26115 9.44562 5.26115 8.94562C5.26115 5.24562 8.26115 2.14562 11.9611 2.14562C15.1611 2.14562 17.9611 4.44562 18.5611 7.54562C18.6611 7.84562 18.8611 8.14562 19.1611 8.14562C21.2611 8.44562 22.6611 10.3456 22.3611 12.3456C22.0611 14.1456 20.5611 15.5456 18.6611 15.5456H16.4611C16.0611 15.5456 15.7611 15.8456 15.7611 16.2456C15.7611 16.6456 16.0611 16.9456 16.4611 16.9456H18.6611C21.5611 16.9456 23.8611 14.5456 23.8611 11.6456C23.9611 9.34562 22.2611 7.24562 19.9611 6.64562Z" fill="#16b364"/>
<path fill-rule="evenodd" clip-rule="evenodd" d="M15.449 8.4476C15.6855 8.71032 15.6642 9.11499 15.4015 9.35145L11.8459 12.5515C11.6025 12.7705 11.233 12.7705 10.9896 12.5515L9.21187 10.9515C8.94914 10.715 8.92784 10.3103 9.1643 10.0476C9.40075 9.78488 9.80542 9.76358 10.0681 10L11.4178 11.2147L14.5452 8.40002C14.8079 8.16357 15.2126 8.18487 15.449 8.4476Z" fill="#16b364"/>
</svg>
