<svg width="17" height="16" viewBox="0 0 17 16" fill="none" xmlns="http://www.w3.org/2000/svg">
<path fill-rule="evenodd" clip-rule="evenodd" d="M8.5 2.61332C7.35427 2.61332 6.25546 3.06846 5.4453 3.87862C4.63514 4.68878 4.18 5.78758 4.18 6.93332C4.18 8.60705 5.26755 10.2234 6.44846 11.4699C7.02909 12.0828 7.61136 12.5843 8.04901 12.9328C8.22737 13.0749 8.38107 13.191 8.5 13.2783C8.61893 13.191 8.77263 13.0749 8.951 12.9328C9.38864 12.5843 9.97091 12.0828 10.5515 11.4699C11.7324 10.2234 12.82 8.60705 12.82 6.93332C12.82 5.78758 12.3649 4.68878 11.5547 3.87862C10.7445 3.06846 9.64574 2.61332 8.5 2.61332ZM8.5 13.8667C8.23375 14.266 8.23362 14.266 8.23348 14.2659L8.2331 14.2656L8.23203 14.2649L8.22857 14.2626L8.21654 14.2544C8.20628 14.2475 8.1916 14.2374 8.1728 14.2244C8.13519 14.1984 8.08104 14.1603 8.01272 14.111C7.87611 14.0123 7.68255 13.8682 7.451 13.6838C6.98864 13.3156 6.37091 12.7839 5.75154 12.1301C4.53245 10.8433 3.22 8.99292 3.22 6.93332C3.22 5.53298 3.77629 4.18999 4.76648 3.1998C5.75667 2.2096 7.09966 1.65332 8.5 1.65332C9.90034 1.65332 11.2433 2.2096 12.2335 3.1998C13.2237 4.18999 13.78 5.53298 13.78 6.93332C13.78 8.99292 12.4676 10.8433 11.2485 12.1301C10.6291 12.7839 10.0114 13.3156 9.54901 13.6838C9.31745 13.8682 9.12389 14.0123 8.98729 14.111C8.91896 14.1603 8.86481 14.1984 8.8272 14.2244C8.8084 14.2374 8.79372 14.2475 8.78347 14.2544L8.77144 14.2626L8.76798 14.2649L8.7669 14.2656L8.76652 14.2659C8.76638 14.266 8.76626 14.266 8.5 13.8667ZM8.5 13.8667L8.76626 14.266C8.60503 14.3735 8.39498 14.3735 8.23375 14.266L8.5 13.8667ZM8.5 5.81332C7.88144 5.81332 7.38 6.31476 7.38 6.93332C7.38 7.55188 7.88144 8.05332 8.5 8.05332C9.11856 8.05332 9.62 7.55188 9.62 6.93332C9.62 6.31476 9.11856 5.81332 8.5 5.81332ZM6.42 6.93332C6.42 5.78457 7.35125 4.85332 8.5 4.85332C9.64875 4.85332 10.58 5.78457 10.58 6.93332C10.58 8.08207 9.64875 9.01332 8.5 9.01332C7.35125 9.01332 6.42 8.08207 6.42 6.93332Z" fill="#B9BEC0"/>
</svg>
