<svg width="18" height="18" viewBox="0 0 18 18" fill="none" xmlns="http://www.w3.org/2000/svg">
<path d="M7.29546 1.45264C8.92209 1.08512 10.6239 1.25327 12.1472 1.93199C12.4499 2.06686 12.8046 1.93082 12.9395 1.62814C13.0743 1.32545 12.9383 0.970748 12.6356 0.83588C10.876 0.0518342 8.91004 -0.142401 7.031 0.282144C5.15196 0.706688 3.46049 1.72727 2.20887 3.19167C0.957244 4.65606 0.212522 6.48582 0.0857709 8.40805C-0.0409803 10.3303 0.457031 12.242 1.50553 13.8581C2.55403 15.4741 4.09684 16.708 5.90387 17.3756C7.71089 18.0432 9.68531 18.1088 11.5327 17.5626C13.38 17.0164 15.0013 15.8876 16.1547 14.3447C17.3082 12.8018 17.932 10.927 17.9331 9.0006V8.23394C17.9331 7.90257 17.6644 7.63394 17.3331 7.63394C17.0017 7.63394 16.7331 7.90257 16.7331 8.23394V9.00026C16.7321 10.6679 16.1921 12.2905 15.1936 13.6262C14.1951 14.9619 12.7916 15.939 11.1924 16.4118C9.59322 16.8846 7.88402 16.8279 6.31973 16.2499C4.75544 15.672 3.41987 14.6039 2.51222 13.2049C1.60456 11.8059 1.17345 10.151 1.28317 8.48701C1.3929 6.82299 2.03758 5.23902 3.12108 3.97133C4.20457 2.70364 5.66883 1.82016 7.29546 1.45264Z" fill="#28ad99"/>
<path d="M17.7582 2.75794C17.9924 2.52351 17.9922 2.14361 17.7578 1.90941C17.5233 1.67521 17.1434 1.6754 16.9092 1.90983L9.00018 9.82681L6.92465 7.75129C6.69034 7.51697 6.31044 7.51697 6.07613 7.75129C5.84181 7.9856 5.84181 8.3655 6.07613 8.59982L8.57613 11.0998C8.68868 11.2124 8.84136 11.2756 9.00054 11.2756C9.15972 11.2755 9.31236 11.2122 9.42487 11.0996L17.7582 2.75794Z" fill="#28ad99"/>
</svg>
