<svg width="24" height="24" viewBox="0 0 24 24" fill="none" xmlns="http://www.w3.org/2000/svg">
<path d="M21.5298 7.53002L11.5298 17.53C11.3888 17.671 11.1978 17.75 10.9998 17.75C10.9988 17.75 10.9978 17.75 10.9968 17.75C10.7968 17.749 10.6058 17.669 10.4648 17.526L6.46479 13.464C6.17379 13.169 6.1778 12.694 6.4728 12.403C6.7678 12.113 7.24379 12.116 7.53379 12.411L11.0028 15.935L20.4688 6.46902C20.7618 6.17602 21.2368 6.17602 21.5298 6.46902C21.8228 6.76202 21.8228 7.23802 21.5298 7.53002ZM10.9998 13.75C11.1918 13.75 11.3838 13.677 11.5298 13.53L17.5298 7.53002C17.8228 7.23702 17.8228 6.76202 17.5298 6.46902C17.2368 6.17602 16.7618 6.17602 16.4688 6.46902L10.4688 12.469C10.1758 12.762 10.1758 13.237 10.4688 13.53C10.6158 13.677 10.8078 13.75 10.9998 13.75ZM3.53379 12.414C3.24379 12.119 2.7688 12.115 2.4728 12.406C2.1778 12.697 2.17379 13.171 2.46479 13.467L6.46479 17.527C6.61079 17.676 6.80479 17.751 6.99879 17.751C7.18879 17.751 7.37879 17.679 7.52479 17.535C7.81979 17.244 7.8238 16.77 7.5328 16.474L3.53379 12.414Z" fill="#61646C"/>
</svg>
