<svg width="20" height="20" viewBox="0 0 20 20" fill="none" xmlns="http://www.w3.org/2000/svg">
<path d="M9.99996 1.66666C5.40829 1.66666 1.66663 5.40832 1.66663 9.99999C1.66663 14.5917 5.40829 18.3333 9.99996 18.3333C14.5916 18.3333 18.3333 14.5917 18.3333 9.99999C18.3333 5.40832 14.5916 1.66666 9.99996 1.66666ZM9.37496 6.66666C9.37496 6.32499 9.65829 6.04166 9.99996 6.04166C10.3416 6.04166 10.625 6.32499 10.625 6.66666V10.8333C10.625 11.175 10.3416 11.4583 9.99996 11.4583C9.65829 11.4583 9.37496 11.175 9.37496 10.8333V6.66666ZM10.7666 13.65C10.725 13.7583 10.6666 13.8417 10.5916 13.925C10.5083 14 10.4166 14.0583 10.3166 14.1C10.2166 14.1417 10.1083 14.1667 9.99996 14.1667C9.89163 14.1667 9.78329 14.1417 9.68329 14.1C9.58329 14.0583 9.49163 14 9.40829 13.925C9.33329 13.8417 9.27496 13.7583 9.23329 13.65C9.19163 13.55 9.16663 13.4417 9.16663 13.3333C9.16663 13.225 9.19163 13.1167 9.23329 13.0167C9.27496 12.9167 9.33329 12.825 9.40829 12.7417C9.49163 12.6667 9.58329 12.6083 9.68329 12.5667C9.88329 12.4833 10.1166 12.4833 10.3166 12.5667C10.4166 12.6083 10.5083 12.6667 10.5916 12.7417C10.6666 12.825 10.725 12.9167 10.7666 13.0167C10.8083 13.1167 10.8333 13.225 10.8333 13.3333C10.8333 13.4417 10.8083 13.55 10.7666 13.65Z" fill="#FA3939"/>
</svg>
