<svg xmlns="http://www.w3.org/2000/svg" width="16" height="16" viewBox="0 0 16 16" fill="none">
  <path fill-rule="evenodd" clip-rule="evenodd" d="M9.27618 3.72606L8.06718 4.93506C7.83632 5.16592 7.46202 5.16592 7.23115 4.93506C7.00029 4.70419 7.00029 4.32989 7.23115 4.09903L8.45043 2.87975C8.45688 2.8733 8.46347 2.867 8.47022 2.86086C9.09882 2.28792 9.92401 1.97922 10.7743 1.9989C11.6246 2.01859 12.4346 2.36515 13.036 2.96656C13.6375 3.56798 13.984 4.378 14.0037 5.2283C14.0234 6.0786 13.7147 6.90379 13.1417 7.53239C13.1354 7.53939 13.1288 7.54624 13.1221 7.55292L11.3809 9.28794C11.3807 9.28817 11.3805 9.28841 11.3802 9.28865C11.0743 9.59554 10.7108 9.83907 10.3106 10.0053C9.91011 10.1716 9.4807 10.2572 9.04702 10.2572C8.61334 10.2572 8.18393 10.1716 7.78342 10.0053C7.38292 9.83894 7.01919 9.59517 6.7131 9.28794C6.48267 9.05664 6.48337 8.68234 6.71467 8.45191C6.94596 8.22148 7.32026 8.22218 7.5507 8.45347C7.74693 8.65044 7.98012 8.80673 8.2369 8.91337C8.49368 9.02002 8.76898 9.07491 9.04702 9.07491C9.32506 9.07491 9.60036 9.02002 9.85714 8.91337C10.1139 8.80673 10.3471 8.65044 10.5433 8.45347L10.5449 8.45195L12.2769 6.72606C12.6392 6.32346 12.8342 5.7975 12.8217 5.25566C12.809 4.70938 12.5864 4.18897 12.2 3.80259C11.8136 3.41621 11.2932 3.19356 10.7469 3.18091C10.2049 3.16836 9.67882 3.3635 9.27618 3.72606ZM6.95298 6.92514C6.67494 6.92514 6.39963 6.98004 6.14286 7.08668C5.88608 7.19332 5.65289 7.34961 5.45665 7.54658L5.45513 7.5481L5.45513 7.5481L3.72311 9.274C3.36077 9.67659 3.16576 10.2026 3.1783 10.7444C3.19095 11.2907 3.4136 11.8111 3.79998 12.1975C4.18636 12.5838 4.70677 12.8065 5.25305 12.8191C5.79505 12.8317 6.32117 12.6366 6.72381 12.274L7.93281 11.065C8.16368 10.8341 8.53798 10.8341 8.76884 11.065C8.99971 11.2959 8.99971 11.6702 8.76884 11.901L7.54957 13.1203C7.54312 13.1267 7.53652 13.133 7.52978 13.1392C6.90118 13.7121 6.07599 14.0208 5.22569 14.0012C4.37538 13.9815 3.56536 13.6349 2.96395 13.0335C2.36254 12.4321 2.01598 11.6221 1.99629 10.7718C1.97661 9.92146 2.28531 9.09627 2.85825 8.46766C2.86463 8.46066 2.87117 8.45382 2.87788 8.44713L4.61906 6.71211C4.61932 6.71185 4.61958 6.7116 4.61983 6.71134C4.92575 6.40447 5.28921 6.16097 5.68938 5.99478C6.08989 5.82844 6.5193 5.74282 6.95298 5.74282C7.38665 5.74282 7.81606 5.82844 8.21657 5.99478C8.61708 6.16111 8.98081 6.40488 9.28689 6.71211C9.51732 6.94341 9.51662 7.31771 9.28533 7.54814C9.05403 7.77857 8.67973 7.77787 8.4493 7.54658C8.25307 7.34961 8.01987 7.19332 7.7631 7.08668C7.50632 6.98004 7.23102 6.92514 6.95298 6.92514Z" fill="#28ad99"/>
</svg>
