<svg width="14" height="14" viewBox="0 0 14 14" fill="none" xmlns="http://www.w3.org/2000/svg">
<path fill-rule="evenodd" clip-rule="evenodd" d="M8.11666 3.2603L7.05878 4.31818C6.85678 4.52018 6.52926 4.52018 6.32726 4.31818C6.12525 4.11617 6.12525 3.78866 6.32726 3.58665L7.39412 2.51979C7.39977 2.51414 7.40554 2.50863 7.41144 2.50325C7.96147 2.00193 8.68351 1.73182 9.42752 1.74904C10.1715 1.76627 10.8803 2.06951 11.4065 2.59574C11.9328 3.12198 12.236 3.83075 12.2532 4.57476C12.2705 5.31878 12.0004 6.04082 11.499 6.59084C11.4934 6.59697 11.4877 6.60296 11.4818 6.60881L9.95832 8.12695C9.95811 8.12716 9.95791 8.12736 9.9577 8.12757C9.69001 8.3961 9.37197 8.60919 9.02179 8.75462C8.67134 8.90016 8.29561 8.97509 7.91614 8.97509C7.53667 8.97509 7.16094 8.90016 6.8105 8.75462C6.46005 8.60908 6.14179 8.39578 5.87397 8.12695C5.67234 7.92457 5.67295 7.59705 5.87533 7.39543C6.07772 7.1938 6.40523 7.19441 6.60686 7.39679C6.77856 7.56914 6.98261 7.70589 7.20729 7.79921C7.43197 7.89252 7.67286 7.94055 7.91614 7.94055C8.15943 7.94055 8.40032 7.89252 8.625 7.79921C8.84968 7.70589 9.05372 7.56914 9.22543 7.39679L9.22676 7.39546L10.7423 5.8853C11.0593 5.53303 11.23 5.07281 11.219 4.59871C11.2079 4.12071 11.0131 3.66536 10.675 3.32727C10.3369 2.98919 9.88157 2.79437 9.40358 2.7833C8.92933 2.77232 8.46897 2.94306 8.11666 3.2603ZM6.08385 6.0595C5.84057 6.0595 5.59968 6.10754 5.375 6.20085C5.15032 6.29416 4.94628 6.43091 4.77457 6.60326L4.77324 6.60459L4.77324 6.60459L3.25772 8.11475C2.94067 8.46702 2.77004 8.92724 2.78101 9.40135C2.79208 9.87934 2.9869 10.3347 3.32498 10.6728C3.66307 11.0109 4.11842 11.2057 4.59642 11.2168C5.07067 11.2277 5.53102 11.057 5.88334 10.7397L6.94121 9.68187C7.14322 9.47987 7.47073 9.47987 7.67274 9.68188C7.87474 9.88388 7.87474 10.2114 7.67274 10.4134L6.60588 11.4803C6.60023 11.4859 6.59446 11.4914 6.58856 11.4968C6.03853 11.9981 5.31649 12.2682 4.57247 12.251C3.82846 12.2338 3.11969 11.9305 2.59346 11.4043C2.06722 10.8781 1.76398 10.1693 1.74676 9.42529C1.72953 8.68128 1.99964 7.95924 2.50096 7.40921C2.50655 7.40308 2.51228 7.39709 2.51815 7.39124L4.04168 5.8731C4.0419 5.87288 4.04213 5.87265 4.04235 5.87242C4.31003 5.60392 4.62806 5.39085 4.97821 5.24543C5.32865 5.09989 5.70439 5.02497 6.08385 5.02497C6.46332 5.02497 6.83906 5.09989 7.1895 5.24543C7.53995 5.39098 7.85821 5.60428 8.12603 5.8731C8.32766 6.07549 8.32705 6.403 8.12466 6.60463C7.92228 6.80626 7.59476 6.80564 7.39314 6.60326C7.22143 6.43091 7.01739 6.29416 6.79271 6.20085C6.56803 6.10754 6.32714 6.0595 6.08385 6.0595Z" fill="#202020"/>
</svg>
