<svg class="icon-help-fill" width="24" height="24" viewBox="0 0 24 24" fill="none" xmlns="http://www.w3.org/2000/svg">
<g id="help">
<path id="Subtract" fill-rule="evenodd" clip-rule="evenodd" d="M11.9998 22.7559C17.9401 22.7559 22.7556 17.9403 22.7556 12C22.7556 6.0597 17.9401 1.24414 11.9998 1.24414C6.05946 1.24414 1.2439 6.0597 1.2439 12C1.2439 17.9403 6.05946 22.7559 11.9998 22.7559ZM9.09741 8.49678C9.09741 7.73228 9.97518 6.59961 11.8865 6.59961C13.6987 6.59961 14.9021 7.60481 14.9021 8.93563C14.9021 10.2664 13.6987 11.2292 13.3164 11.5265C12.5377 12.1353 12.5236 12.56 12.5236 13.2962C12.5236 13.5653 12.382 13.8767 11.6883 13.8767C11.1079 13.8767 10.9096 13.6643 10.9096 12.9282C10.9096 11.7106 11.4476 11.1301 11.8582 10.7762C11.9431 10.7041 12.0388 10.6307 12.1385 10.5541C12.5874 10.2095 13.1183 9.80192 13.1183 9.17637C13.1183 8.5251 12.5519 8.2136 11.844 8.2136C11.0082 8.2136 10.7605 8.57887 10.5518 8.88655C10.4 9.11042 10.2689 9.3038 9.94687 9.3038C9.56462 9.3038 9.09741 9.04894 9.09741 8.49678ZM10.9167 15.9437C10.9167 15.3491 11.3981 14.8536 11.9927 14.8536C12.5873 14.8536 13.0829 15.3491 13.0829 15.9437C13.0829 16.5242 12.6015 17.0339 11.9927 17.0339C11.384 17.0339 10.9167 16.5242 10.9167 15.9437Z" fill="#28ad99"/>
</g>
</svg>
