<svg width="20" height="20" viewBox="0 0 20 20" fill="none" xmlns="http://www.w3.org/2000/svg">
<path d="M15.5031 7.81285C14.7398 4.77181 11.6557 2.92541 8.6147 3.68878C6.2382 4.28536 4.5126 6.33932 4.33481 8.78307C2.6474 9.06135 1.50505 10.6548 1.78332 12.3422C2.03069 13.8424 3.33055 14.941 4.8509 14.9349H6.91529C7.20032 14.9349 7.43139 14.7039 7.43139 14.4188C7.43139 14.1338 7.20032 13.9028 6.91529 13.9028H4.8509C3.71078 13.9028 2.78652 12.9785 2.78652 11.8384C2.78652 10.6982 3.71078 9.77398 4.8509 9.77398C5.13595 9.77398 5.367 9.54293 5.367 9.25788C5.36442 6.69259 7.44193 4.61092 10.0072 4.60837C12.2279 4.60614 14.1394 6.17604 14.569 8.35471C14.6114 8.57225 14.788 8.73843 15.0077 8.76759C16.4186 8.96851 17.3995 10.2752 17.1986 11.6861C17.0182 12.953 15.9365 13.8964 14.6567 13.9028H13.1084C12.8234 13.9028 12.5924 14.1338 12.5924 14.4188C12.5924 14.7039 12.8234 14.9349 13.1084 14.9349H14.6567C16.652 14.9289 18.2645 13.3066 18.2584 11.3113C18.2534 9.65047 17.1166 8.20698 15.5031 7.81285Z" fill="#646464"/>
<path d="M9.64553 9.92371L7.94539 11.6239C7.74422 11.825 7.74422 12.1512 7.94539 12.3523C8.14625 12.5532 8.47179 12.5536 8.67308 12.3531L9.49586 11.5339V15.9672C9.49586 16.2522 9.72693 16.4833 10.012 16.4833C10.297 16.4833 10.5281 16.2522 10.5281 15.9672V11.5339L11.3461 12.3519C11.547 12.5529 11.8728 12.5529 12.0738 12.3519C12.2747 12.151 12.2747 11.8252 12.0738 11.6242L10.3732 9.92371C10.1719 9.72359 9.84684 9.72359 9.64553 9.92371Z" fill="#646464"/>
</svg>
