<svg width="15" height="14" viewBox="0 0 15 14" fill="none" xmlns="http://www.w3.org/2000/svg">
<path fill-rule="evenodd" clip-rule="evenodd" d="M7.95806 0C4.10121 0 0.974609 3.13401 0.974609 7C0.974609 7.79346 1.10631 8.55609 1.34901 9.26712C1.36194 9.33366 1.38479 9.39664 1.41596 9.45446C2.40792 12.1098 4.96277 14 7.95806 14C10.9534 14 13.5082 12.1098 14.5002 9.45446C14.5313 9.39664 14.5542 9.33366 14.5671 9.26712C14.8098 8.55609 14.9415 7.79346 14.9415 7C14.9415 3.13401 11.8149 0 7.95806 0ZM5.7883 12.2405C4.62388 11.7556 3.6559 10.892 3.03723 9.80321H4.93115C5.12403 10.7478 5.4154 11.5809 5.7883 12.2405ZM10.1278 12.2405C11.2922 11.7556 12.2602 10.892 12.8789 9.80321H10.985C10.7921 10.7478 10.5007 11.5809 10.1278 12.2405ZM11.1831 8.47562H13.4237C13.5498 8.00511 13.6171 7.51043 13.6171 7C13.6171 6.50931 13.5549 6.03317 13.4381 5.57907H11.1883C11.2317 6.03825 11.2541 6.5137 11.2541 7C11.2541 7.50563 11.2299 7.99953 11.1831 8.47562ZM9.85455 5.57907C9.90308 6.03116 9.92968 6.50724 9.92968 7C9.92968 7.51268 9.90088 8.00729 9.84856 8.47562H6.06757C6.01524 8.00729 5.98644 7.51268 5.98644 7C5.98644 6.50724 6.01304 6.03116 6.06158 5.57907H9.85455ZM10.996 4.25148H12.9096C12.2925 3.13688 11.3117 2.25253 10.1278 1.7595C10.5079 2.43183 10.8033 3.2844 10.996 4.25148ZM5.7883 1.7595C4.60446 2.25253 3.62366 3.13688 3.00656 4.25148H4.92012C5.11284 3.2844 5.40822 2.43183 5.7883 1.7595ZM6.27959 4.25148C6.65395 2.59679 7.32884 1.49919 7.95806 1.49919C8.58728 1.49919 9.26217 2.59679 9.63654 4.25148H6.27959ZM4.72779 5.57907H2.47807C2.36121 6.03317 2.29906 6.50931 2.29906 7C2.29906 7.51043 2.36632 8.00511 2.49243 8.47562H4.73306C4.68624 7.99953 4.66199 7.50563 4.66199 7C4.66199 6.5137 4.68442 6.03825 4.72779 5.57907ZM6.29211 9.80321H9.62401C9.24725 11.4274 8.58032 12.5008 7.95806 12.5008C7.3358 12.5008 6.66888 11.4274 6.29211 9.80321Z" fill="white"/>
</svg>
