<svg width="12" height="12" viewBox="0 0 12 12" fill="none" xmlns="http://www.w3.org/2000/svg">
<path d="M11.8555 0.145068C11.788 0.0779045 11.7028 0.0314031 11.6098 0.0110311C11.5168 -0.00934079 11.4199 -0.00273636 11.3305 0.0300679L0.330489 4.03007C0.235623 4.06605 0.153949 4.13004 0.0963142 4.21355C0.0386797 4.29705 0.0078125 4.39611 0.0078125 4.49757C0.0078125 4.59903 0.0386797 4.69809 0.0963142 4.78159C0.153949 4.86509 0.235623 4.92909 0.330489 4.96507L4.62549 6.68007L7.79549 3.50007L8.50049 4.20507L5.31549 7.39007L7.03549 11.6851C7.07254 11.7781 7.13667 11.8579 7.21958 11.914C7.30249 11.9702 7.40035 12.0002 7.50049 12.0001C7.60153 11.998 7.69957 11.9654 7.78169 11.9064C7.86381 11.8475 7.92615 11.7651 7.96049 11.6701L11.9605 0.670068C11.9946 0.581606 12.0028 0.485283 11.9842 0.39233C11.9656 0.299376 11.921 0.213623 11.8555 0.145068Z" fill="#2e90fa"/>
</svg>
