<svg width="32" height="32" viewBox="0 0 32  32" fill="none" xmlns="http://www.w3.org/2000/svg">
<rect x="1" y="0.5" width="31" height="31" rx="15.5" fill="white"/>
<path fill-rule="evenodd" clip-rule="evenodd" d="M16.5 7.90039C16.8314 7.90039 17.1 8.16902 17.1 8.50039V17.0519L20.2424 13.9095C20.4767 13.6751 20.8566 13.6751 21.0909 13.9095C21.3252 14.1438 21.3252 14.5237 21.0909 14.758L16.9243 18.9247C16.6899 19.159 16.31 19.159 16.0757 18.9247L11.9091 14.758C11.6747 14.5237 11.6747 14.1438 11.9091 13.9095C12.1434 13.6751 12.5233 13.6751 12.7576 13.9095L15.9 17.0519V8.50039C15.9 8.16902 16.1686 7.90039 16.5 7.90039ZM8.99999 17.9004C9.33136 17.9004 9.59999 18.169 9.59999 18.5004V21.8337C9.59999 22.1166 9.71237 22.3879 9.91241 22.588C10.1125 22.788 10.3838 22.9004 10.6667 22.9004H22.3333C22.6162 22.9004 22.8875 22.788 23.0876 22.588C23.2876 22.3879 23.4 22.1166 23.4 21.8337V18.5004C23.4 18.169 23.6686 17.9004 24 17.9004C24.3314 17.9004 24.6 18.169 24.6 18.5004V21.8337C24.6 22.4349 24.3612 23.0114 23.9361 23.4365C23.511 23.8616 22.9345 24.1004 22.3333 24.1004H10.6667C10.0655 24.1004 9.48897 23.8616 9.06389 23.4365C8.6388 23.0114 8.39999 22.4349 8.39999 21.8337V18.5004C8.39999 18.169 8.66862 17.9004 8.99999 17.9004Z" fill="#646464"/>
<rect x="1" y="0.5" width="31" height="31" rx="15.5" stroke="#D8DCDF"/>
</svg>
