<svg color="#61646C" width="24" height="24" viewBox="0 0 24 24" fill="none" xmlns="http://www.w3.org/2000/svg">
<path d="M18.8301 3.25H8.16992C6.10292 3.25 4.92008 4.329 4.77808 6.278C2.82908 6.419 1.75 7.60001 1.75 9.66701V17.333C1.75 19.537 2.96399 20.75 5.16699 20.75H15.833C17.899 20.75 19.0809 19.671 19.2219 17.722C21.1709 17.58 22.25 16.397 22.25 14.33V6.67C22.25 4.465 21.0351 3.25 18.8301 3.25ZM17.75 17.333C17.75 18.694 17.194 19.25 15.833 19.25H5.16699C3.80599 19.25 3.25 18.694 3.25 17.333V9.66701C3.25 8.30601 3.80599 7.75 5.16699 7.75H15.833C17.194 7.75 17.75 8.30601 17.75 9.66701V17.333ZM20.75 14.33C20.75 15.543 20.306 16.114 19.25 16.226V9.666C19.25 7.462 18.036 6.24899 15.833 6.24899H6.27295C6.38595 5.19199 6.95695 4.74899 8.16895 4.74899H18.8291C20.1921 4.74899 20.749 5.30501 20.749 6.66901V14.33H20.75ZM16.24 10.292C16.484 10.627 16.41 11.097 16.075 11.34L11.49 14.674C11.194 14.89 10.846 14.997 10.5 14.997C10.154 14.997 9.80601 14.89 9.51001 14.674L4.92505 11.34C4.59005 11.097 4.51601 10.628 4.76001 10.292C5.00301 9.95901 5.47111 9.883 5.80811 10.127L10.3931 13.461C10.4571 13.508 10.5429 13.508 10.6079 13.461L15.1931 10.127C15.5291 9.882 15.997 9.95801 16.24 10.292Z" fill="currentColor"/>
</svg>
