<svg width="20" height="22" viewBox="0 0 20 22" fill="none" xmlns="http://www.w3.org/2000/svg">
<g id="icon_tasks">
<path id="Shape" fill-rule="evenodd" clip-rule="evenodd" d="M4.82746 0.182636C5.25416 0.426143 5.51706 0.876272 5.51706 1.36352L5.51743 2.72727L8.621 2.72704V1.36352C8.621 0.876321 8.88389 0.426138 9.31059 0.18263C9.73725 -0.0608768 10.2631 -0.0608768 10.6898 0.18263C11.1165 0.426138 11.3794 0.876267 11.3794 1.36352V2.72728L14.4829 2.72704V1.36352C14.4829 0.876327 14.7459 0.426143 15.1725 0.182636C15.5992 -0.0608711 16.125 -0.0608711 16.5517 0.182636C16.9787 0.426143 17.2416 0.876272 17.2416 1.36352V2.9658C18.0476 3.2476 18.7453 3.76907 19.2394 4.45893C19.7335 5.14878 19.999 5.97299 20 6.81815V17.7273C20 18.8124 19.5642 19.8527 18.7882 20.6199C18.0119 21.3873 16.9596 21.8182 15.8621 21.8182H4.13793C3.04033 21.8182 1.98799 21.3872 1.21182 20.6199C0.435844 19.8527 0 18.8123 0 17.7273V6.81815C0.000985222 5.97299 0.266564 5.14878 0.760591 4.45893C1.25462 3.76907 1.9524 3.24759 2.75844 2.9658V1.36352C2.75844 0.876327 3.02133 0.426143 3.44828 0.182636C3.87494 -0.0608711 4.40077 -0.0608711 4.82746 0.182636ZM17.0053 5.54672C16.7404 5.28207 16.3808 5.13312 16.0059 5.13312H3.9939C3.61906 5.13312 3.25951 5.28207 2.99458 5.54672C2.72966 5.81136 2.58057 6.17058 2.58057 6.54504V17.8391C2.58057 18.2136 2.72966 18.5725 2.99458 18.8374C3.25949 19.1021 3.61907 19.2508 3.9939 19.2508H16.0059C16.3808 19.2508 16.7403 19.1021 17.0053 18.8374C17.2702 18.5725 17.4193 18.2136 17.4193 17.8391V6.54504C17.4193 6.17057 17.2702 5.81138 17.0053 5.54672Z" fill="white"/>
<rect id="Rectangle" x="1.25" y="5" width="16.25" height="15" fill="white"/>
<path id="Path" d="M8.12376 15.3741C8.44646 15.6998 8.88377 15.8828 9.33972 15.8828C9.79568 15.8828 10.233 15.6998 10.5557 15.3741L14.6019 11.2503C14.8752 10.974 14.9819 10.5711 14.8818 10.1936C14.7819 9.81609 14.4903 9.52134 14.1171 9.42006C13.7439 9.319 13.3458 9.42692 13.0725 9.7032L9.33971 13.5098L7.47914 11.8632C7.20601 11.5869 6.80792 11.479 6.43472 11.5802C6.0615 11.6813 5.76992 11.9762 5.66998 12.3538C5.56989 12.7313 5.67658 13.1342 5.9499 13.4104L8.12376 15.3741Z" fill="#00A99F"/>
</g>
</svg>
