<svg width="33" height="33" viewBox="0 0 33 33" fill="none" xmlns="http://www.w3.org/2000/svg">
<path d="M29.1423 21.2462H25.7745L25.7741 26.3094H7.20513V21.2532H3.85767V27.7018C3.85767 28.8063 4.7531 29.7018 5.85767 29.7018H27.1423C28.2469 29.7018 29.1423 28.8063 29.1423 27.7018V21.2462Z" fill="#9C9B99"/>
<path d="M17.2767 3.10092C16.8793 2.64858 16.1753 2.64733 15.7764 3.09826L10.1434 9.46547C9.57237 10.1109 10.0306 11.1281 10.8923 11.1281H13.9153V21.9318C13.9153 22.4841 14.363 22.9318 14.9153 22.9318H18.0596C18.6119 22.9318 19.0596 22.4841 19.0596 21.9318V11.1281H22.1181C22.9782 11.1281 23.4371 10.1143 22.8695 9.46813L17.2767 3.10092Z" fill="#9C9B99"/>
</svg>
