<svg width="14" height="14" viewBox="0 0 14 14" fill="none" xmlns="http://www.w3.org/2000/svg">
<path d="M13.1937 6.29595L12.3233 5.285C12.1568 5.09305 12.0224 4.73474 12.0224 4.4788V3.39107C12.0224 2.71284 11.4656 2.15618 10.7872 2.15618H9.6991C9.44949 2.15618 9.08467 2.02182 8.89265 1.85546L7.88139 0.985278C7.43977 0.607772 6.71652 0.607772 6.2685 0.985278L5.26361 1.86186C5.0716 2.02182 4.70678 2.15618 4.45716 2.15618H3.3499C2.67145 2.15618 2.11462 2.71284 2.11462 3.39107V4.4852C2.11462 4.73474 1.98021 5.09305 1.8202 5.285L0.956151 6.30235C0.584929 6.74384 0.584929 7.46046 0.956151 7.90195L1.8202 8.9193C1.98021 9.11125 2.11462 9.46956 2.11462 9.7191V10.8132C2.11462 11.4915 2.67145 12.0481 3.3499 12.0481H4.45716C4.70678 12.0481 5.0716 12.1825 5.26361 12.3488L6.2749 13.219C6.71652 13.5965 7.43977 13.5965 7.88779 13.219L8.89905 12.3488C9.09107 12.1825 9.44949 12.0481 9.7055 12.0481H10.7936C11.472 12.0481 12.0288 11.4915 12.0288 10.8132V9.7255C12.0288 9.47596 12.1633 9.11125 12.3297 8.9193L13.2001 7.90835C13.5713 7.46686 13.5713 6.73744 13.1937 6.29595ZM9.7375 5.89285L6.64612 8.98328C6.55651 9.07286 6.43491 9.12405 6.3069 9.12405C6.17889 9.12405 6.05728 9.07286 5.96768 8.98328L4.41876 7.43487C4.23315 7.24932 4.23315 6.94219 4.41876 6.75664C4.60437 6.57108 4.91159 6.57108 5.0972 6.75664L6.3069 7.96594L9.05906 5.21462C9.24467 5.02906 9.55189 5.02906 9.7375 5.21462C9.92312 5.40017 9.92312 5.70729 9.7375 5.89285Z" fill="#28ad99"/>
</svg>
