<svg width="20" height="20" viewBox="0 0 20 20" fill="none" xmlns="http://www.w3.org/2000/svg">
<path fill-rule="evenodd" clip-rule="evenodd" d="M9.39993 12.5004C9.39993 12.8318 9.66856 13.1004 9.99993 13.1004C10.3313 13.1004 10.5999 12.8318 10.5999 12.5004V3.94892L13.7423 7.09132C13.9767 7.32564 14.3566 7.32564 14.5909 7.09132C14.8252 6.85701 14.8252 6.47711 14.5909 6.24279L10.4242 2.07613C10.1899 1.84181 9.80999 1.84181 9.57567 2.07613L5.409 6.24279C5.17469 6.47711 5.17469 6.85701 5.409 7.09132C5.64332 7.32564 6.02322 7.32564 6.25753 7.09132L9.39994 3.94892L9.39993 12.5004ZM3.0999 12.5004C3.0999 12.1691 2.83127 11.9004 2.4999 11.9004C2.16853 11.9004 1.8999 12.1691 1.8999 12.5004V15.8338C1.8999 16.4349 2.13871 17.0115 2.56379 17.4365C2.98888 17.8616 3.56541 18.1004 4.16657 18.1004H15.8332C16.4344 18.1004 17.0109 17.8616 17.436 17.4365C17.8611 17.0115 18.0999 16.4349 18.0999 15.8338V12.5004C18.0999 12.1691 17.8313 11.9004 17.4999 11.9004C17.1685 11.9004 16.8999 12.1691 16.8999 12.5004V15.8338C16.8999 16.1167 16.7875 16.388 16.5875 16.588C16.3874 16.7881 16.1161 16.9004 15.8332 16.9004H4.16657C3.88367 16.9004 3.61236 16.7881 3.41232 16.588C3.21228 16.388 3.0999 16.1167 3.0999 15.8338V12.5004Z" fill="currentColor"/>
</svg>
