<svg width="16" height="16" viewBox="0 0 16 16" fill="none" xmlns="http://www.w3.org/2000/svg">
<path d="M3.97422 13.9704C5.12334 14.7467 6.50864 15.2 7.9998 15.2C7.99979 15.2 7.99981 15.2 7.9998 15.2C11.9763 15.2 15.1998 11.9766 15.1998 8.00008C15.1998 6.46213 14.7176 5.03677 13.8961 3.86701C12.5937 2.0123 10.4383 0.800058 7.99983 0.800049C7.99982 0.800049 7.99984 0.800049 7.99983 0.800049C4.02338 0.800049 0.799805 4.0236 0.799805 8.00005C0.799805 8.00004 0.799805 8.00006 0.799805 8.00005C0.799805 10.4853 2.05901 12.6765 3.97422 13.9704Z" fill="#999999"/>
<g clip-path="url(#clip0_51007_23745)">
<path d="M9.49517 10.823L9.39457 11.2343C9.09277 11.3534 8.85168 11.4441 8.67216 11.5064C8.49245 11.5689 8.28363 11.6 8.04571 11.6C7.68034 11.6 7.39616 11.5105 7.19347 11.3327C6.99078 11.1543 6.88941 10.9281 6.88941 10.6537C6.88941 10.5475 6.89676 10.4382 6.91206 10.3269C6.92748 10.2155 6.952 10.09 6.98556 9.94968L7.36273 8.6147C7.39629 8.48687 7.42481 8.36575 7.44765 8.25121C7.47082 8.13738 7.48198 8.03264 7.48198 7.93837C7.48198 7.76788 7.44668 7.64863 7.37641 7.58158C7.30614 7.51473 7.17205 7.48079 6.97297 7.48079C6.87547 7.48079 6.77526 7.4964 6.67311 7.5266C6.5705 7.55693 6.48281 7.58623 6.40918 7.61346L6.51004 7.20189C6.75712 7.10129 6.9933 7.01514 7.21922 6.94365C7.44514 6.87195 7.6586 6.83608 7.86051 6.83608C8.22336 6.83608 8.50335 6.92377 8.69997 7.09916C8.8966 7.27468 8.99487 7.50221 8.99487 7.78259C8.99487 7.8406 8.98842 7.94282 8.97455 8.08891C8.961 8.23533 8.93576 8.36949 8.89898 8.49151L8.52342 9.82114C8.49264 9.92794 8.46496 10.05 8.44089 10.1874C8.41604 10.3239 8.40417 10.4282 8.40417 10.4981C8.40417 10.6747 8.44353 10.7952 8.52245 10.8593C8.60195 10.9234 8.73889 10.9552 8.93338 10.9552C9.02469 10.9552 9.12858 10.9391 9.24402 10.9072C9.35914 10.8754 9.44309 10.8475 9.49517 10.823ZM9.59042 5.24084C9.59042 5.4725 9.50311 5.67035 9.32765 5.83303C9.15265 5.99629 8.94177 6.07798 8.69507 6.07798C8.4476 6.07798 8.2362 5.99629 8.0592 5.83303C7.88252 5.67029 7.79398 5.4725 7.79398 5.24084C7.79398 5.00963 7.88252 4.81146 8.0592 4.64672C8.23588 4.48223 8.44766 4.40002 8.69507 4.40002C8.9417 4.40002 9.15265 4.48243 9.32765 4.64672C9.50324 4.81146 9.59042 5.0097 9.59042 5.24084Z" fill="white"/>
</g>
<defs>
<clipPath id="clip0_51007_23745">
<rect width="7.2" height="7.2" fill="white" transform="translate(4.3999 4.40002)"/>
</clipPath>
</defs>
</svg>
