<?xml version="1.0" encoding="UTF-8"?>
<svg width="24px" height="24px" viewBox="0 0 24 24" version="1.1" xmlns="http://www.w3.org/2000/svg" xmlns:xlink="http://www.w3.org/1999/xlink">
    <title>add_link_black_24dp</title>
    <g id="Convo-Index-Updates" stroke="none" stroke-width="1" fill="none" fill-rule="evenodd">
        <g id="Conversation-Index-Expired-Lease" transform="translate(-20.000000, -694.000000)">
            <g id="Group-38-Copy" transform="translate(16.000000, 690.000000)">
                <g id="add_link_black_24dp" transform="translate(4.000000, 4.000000)">
                    <rect id="Rectangle" x="0" y="0" width="24" height="24"></rect>
                    <path d="M8,11 L16,11 L16,13 L8,13 L8,11 Z M20.1,12 L22,12 C22,9.24 19.76,7 17,7 L13,7 L13,8.9 L17,8.9 C18.71,8.9 20.1,10.29 20.1,12 Z M3.9,12 C3.9,10.29 5.29,8.9 7,8.9 L11,8.9 L11,7 L7,7 C4.24,7 2,9.24 2,12 C2,14.76 4.24,17 7,17 L11,17 L11,15.1 L7,15.1 C5.29,15.1 3.9,13.71 3.9,12 Z M19,12 L17,12 L17,15 L14,15 L14,17 L17,17 L17,20 L19,20 L19,17 L22,17 L22,15 L19,15 L19,12 Z" id="Shape" fill="#28ad99" fill-rule="nonzero"></path>
                </g>
            </g>
        </g>
    </g>
</svg>