<svg width="20" height="20" viewBox="0 0 20 20" fill="none" xmlns="http://www.w3.org/2000/svg">
<path d="M16.1611 3.69151C16.0472 3.58625 15.8756 3.50464 15.7206 3.5H10.5555C10.2401 3.5169 9.85998 3.77371 9.84692 4.13193C9.83401 4.48479 10.1692 4.80899 10.522 4.79746L14.1563 4.79746L9.55654 9.3602C9.30271 9.61403 9.30271 10.0256 9.55654 10.2795C9.81038 10.5333 10.222 10.5333 10.4758 10.2795L15.0386 5.82324V9.32489C15.0389 9.63886 15.3511 10.0091 15.7041 10C16.057 9.99093 16.332 9.60601 16.336 9.29139L16.3526 4.132C16.3473 3.95898 16.2836 3.81354 16.1611 3.69151Z" fill="#3D3D3D"/>
<path fill-rule="evenodd" clip-rule="evenodd" d="M3.5 4.58334C3.5 3.98503 3.98503 3.50001 4.58333 3.50001H6.92727C7.31889 3.50001 7.63636 3.81181 7.63636 4.19643C7.63636 4.58106 7.31889 4.89286 6.92727 4.89286H4.91818V15.1071H15.0818V12.9018C15.0818 12.5172 15.3993 12.2054 15.7909 12.2054C16.1825 12.2054 16.5 12.5172 16.5 12.9018V15.4167C16.5 16.015 16.015 16.5 15.4167 16.5H4.58333C3.98502 16.5 3.5 16.015 3.5 15.4167V4.58334Z" fill="#3D3D3D"/>
</svg>
