<svg width="24" height="24" viewBox="0 0 24 24" color="currentColor" fill="none" xmlns="http://www.w3.org/2000/svg">
<path fill-rule="evenodd" clip-rule="evenodd" d="M8.14197 2C8.52551 2 8.83642 2.3007 8.83642 2.67164V3.86567H15.1636V2.67164C15.1636 2.3007 15.4745 2 15.858 2C16.2416 2 16.5525 2.3007 16.5525 2.67164V3.86567H18.7515C20.2004 3.86567 21.375 5.00167 21.375 6.40299V19.4627C21.375 20.864 20.2004 22 18.7515 22H5.24846C3.79956 22 2.625 20.864 2.625 19.4627V6.40299C2.625 5.00167 3.79956 3.86567 5.24846 3.86567H7.44753V2.67164C7.44753 2.3007 7.75844 2 8.14197 2ZM7.44753 5.20896H5.24846C4.56662 5.20896 4.01389 5.74354 4.01389 6.40299V9.46269H19.9861V6.40299C19.9861 5.74354 19.4334 5.20896 18.7515 5.20896H16.5525V6.40299C16.5525 6.77392 16.2416 7.07463 15.858 7.07463C15.4745 7.07463 15.1636 6.77392 15.1636 6.40299V5.20896H8.83642V6.40299C8.83642 6.77392 8.52551 7.07463 8.14197 7.07463C7.75844 7.07463 7.44753 6.77392 7.44753 6.40299V5.20896Z" fill="currentColor"/>
</svg>
