<svg width="16" height="16" viewBox="0 0 16 16" fill="none" xmlns="http://www.w3.org/2000/svg">
<path d="M13.3309 5.76189C12.5914 2.81602 9.6039 1.02741 6.65803 1.76689C4.35591 2.3448 2.68431 4.33448 2.51208 6.70176C0.877473 6.97132 -0.229127 8.51494 0.0404372 10.1495C0.280067 11.6027 1.53925 12.6669 3.01203 12.6611H5.0118C5.28791 12.6611 5.51175 12.4373 5.51175 12.1612C5.51175 11.885 5.28791 11.6612 5.0118 11.6612H3.01203C1.90758 11.6612 1.01224 10.7659 1.01224 9.66144C1.01224 8.55699 1.90758 7.66165 3.01203 7.66165C3.28815 7.66165 3.51196 7.43783 3.51196 7.16171C3.50946 4.6767 5.52197 2.66017 8.00698 2.6577C10.1581 2.65554 12.0099 4.17631 12.426 6.2868C12.4671 6.49753 12.6381 6.65851 12.851 6.68676C14.2177 6.8814 15.1679 8.14716 14.9733 9.51392C14.7986 10.7412 13.7507 11.655 12.511 11.6612H11.0112C10.735 11.6612 10.5112 11.885 10.5112 12.1612C10.5112 12.4373 10.735 12.6611 11.0112 12.6611H12.511C14.4438 12.6553 16.0059 11.0837 16 9.1509C15.9951 7.54201 14.8939 6.14369 13.3309 5.76189Z" fill="#B9BEC0"/>
<path d="M7.65655 14.0155L6.00961 12.3686C5.81474 12.1737 5.81474 11.8577 6.00961 11.6629C6.20419 11.4683 6.51954 11.468 6.71453 11.6621L7.51157 12.4557L7.51157 8.16113C7.51157 7.88502 7.7354 7.66119 8.01151 7.66119C8.28762 7.66119 8.51146 7.88502 8.51146 8.16113L8.51146 12.4557L9.30387 11.6633C9.49852 11.4686 9.81413 11.4686 10.0088 11.6633C10.2034 11.8579 10.2035 12.1735 10.0088 12.3682L8.36147 14.0155C8.16646 14.2094 7.85156 14.2094 7.65655 14.0155Z" fill="#B9BEC0"/>
</svg>
