<svg width="20" height="20" viewBox="0 0 20 20" fill="none" xmlns="http://www.w3.org/2000/svg">
<path d="M6.875 14.1667V15C6.875 17.015 7.985 18.125 10 18.125H15C17.015 18.125 18.125 17.015 18.125 15V5C18.125 2.985 17.015 1.875 15 1.875H10C7.985 1.875 6.875 2.985 6.875 5V5.83333C6.875 6.17833 7.155 6.45833 7.5 6.45833C7.845 6.45833 8.125 6.17833 8.125 5.83333V5C8.125 3.68583 8.68583 3.125 10 3.125H15C16.3142 3.125 16.875 3.68583 16.875 5V15C16.875 16.3142 16.3142 16.875 15 16.875H10C8.68583 16.875 8.125 16.3142 8.125 15V14.1667C8.125 13.8217 7.845 13.5417 7.5 13.5417C7.155 13.5417 6.875 13.8217 6.875 14.1667ZM1.92332 10.2392C1.85999 10.0867 1.85999 9.91416 1.92332 9.76166C1.95499 9.68499 2.00081 9.61583 2.05831 9.55833L4.55831 7.05833C4.80248 6.81417 5.19834 6.81417 5.4425 7.05833C5.68667 7.3025 5.68667 7.69834 5.4425 7.9425L4.00915 9.37584H13.3333C13.6783 9.37584 13.9583 9.65584 13.9583 10.0008C13.9583 10.3458 13.6783 10.6258 13.3333 10.6258H4.00915L5.4425 12.0592C5.68667 12.3033 5.68667 12.6992 5.4425 12.9433C5.32084 13.065 5.16081 13.1267 5.00081 13.1267C4.84081 13.1267 4.68084 13.0658 4.55917 12.9433L2.05917 10.4433C2.00084 10.3842 1.95499 10.315 1.92332 10.2392Z" fill="#61646C"/>
</svg>
