<svg width="32" height="32" viewBox="0 0 32 32" fill="none" xmlns="http://www.w3.org/2000/svg">
<path d="M24.805 12.5007C23.5836 7.63504 18.6491 4.6808 13.7835 5.9022C9.9811 6.85672 7.22014 10.1431 6.93566 14.0531C4.23581 14.4983 2.40805 17.0479 2.85329 19.7477C3.24908 22.1479 5.32885 23.9057 7.76142 23.8961H11.0644C11.5205 23.8961 11.8902 23.5264 11.8902 23.0703C11.8902 22.6143 11.5205 22.2446 11.0644 22.2446H7.76142C5.93722 22.2446 4.4584 20.7657 4.4584 18.9415C4.4584 17.1173 5.93722 15.6385 7.76142 15.6385C8.21749 15.6385 8.58717 15.2688 8.58717 14.8128C8.58305 10.7083 11.9071 7.37761 16.0115 7.37354C19.5645 7.36998 22.6231 9.88182 23.3104 13.3677C23.3782 13.7157 23.6607 13.9816 24.0123 14.0283C26.2698 14.3498 27.8392 16.4404 27.5178 18.6979C27.2291 20.725 25.4983 22.2343 23.4508 22.2446H20.9735C20.5174 22.2446 20.1477 22.6143 20.1477 23.0703C20.1477 23.5264 20.5174 23.8961 20.9735 23.8961H23.4508C26.6431 23.8864 29.2232 21.2906 29.2135 18.0983C29.2054 15.4409 27.3865 13.1313 24.805 12.5007Z" fill="#202020"/>
<path d="M15.4328 15.8781L12.7126 18.5983C12.3907 18.9202 12.3907 19.442 12.7126 19.7639C13.034 20.0853 13.5548 20.0858 13.8769 19.7652L15.1934 18.4544V25.5477C15.1934 26.0037 15.5631 26.3734 16.0191 26.3734C16.4752 26.3734 16.8449 26.0037 16.8449 25.5477V18.4544L18.1537 19.7633C18.4752 20.0848 18.9965 20.0848 19.318 19.7633C19.6395 19.4417 19.6395 18.9205 19.318 18.5989L16.5971 15.8781C16.275 15.5579 15.7549 15.5579 15.4328 15.8781Z" fill="#202020"/>
</svg>
