<svg width="24" height="24" viewBox="0 0 24 24" color="currentColor" fill="none" xmlns="http://www.w3.org/2000/svg">
<path fill-rule="evenodd" clip-rule="evenodd" d="M7.2476 3.24852C8.50784 1.98827 10.2171 1.28027 11.9994 1.28027C13.7816 1.28027 15.4909 1.98827 16.7511 3.24852C18.0114 4.50876 18.7194 6.21802 18.7194 8.00027C18.7194 11.3942 19.4456 13.5232 20.1314 14.7805C20.4753 15.411 20.813 15.8295 21.0533 16.0832C21.1736 16.2103 21.2701 16.2965 21.3314 16.3475C21.362 16.3731 21.3839 16.3899 21.3956 16.3986L21.405 16.4054C21.6646 16.5824 21.7797 16.9077 21.6885 17.2089C21.5965 17.5126 21.3166 17.7203 20.9994 17.7203H2.99935C2.68207 17.7203 2.40219 17.5126 2.31025 17.2089C2.21903 16.9077 2.33413 16.5824 2.59374 16.4054L2.6031 16.3986C2.6148 16.3899 2.63667 16.3731 2.66733 16.3475C2.72861 16.2965 2.82506 16.2103 2.94542 16.0832C3.18576 15.8295 3.52338 15.411 3.86727 14.7805C4.55306 13.5232 5.27935 11.3942 5.27935 8.00027C5.27935 6.21802 5.98735 4.50876 7.2476 3.24852ZM2.59337 16.4057C2.59323 16.4058 2.59325 16.4058 2.59342 16.4056L2.59337 16.4057ZM4.63193 16.2803H19.3668C19.2037 16.0465 19.035 15.7775 18.8673 15.47C18.0531 13.9773 17.2794 11.6064 17.2794 8.00027C17.2794 6.59993 16.7231 5.25694 15.7329 4.26675C14.7427 3.27656 13.3997 2.72027 11.9994 2.72027C10.599 2.72027 9.25602 3.27656 8.26583 4.26675C7.27564 5.25694 6.71935 6.59993 6.71935 8.00027C6.71935 11.6064 5.94564 13.9773 5.13144 15.47C4.96374 15.7775 4.79497 16.0465 4.63193 16.2803ZM9.90808 20.3775C10.252 20.1779 10.6926 20.295 10.8922 20.639C11.0047 20.833 11.1662 20.994 11.3605 21.1059C11.5548 21.2178 11.7751 21.2767 11.9994 21.2767C12.2236 21.2767 12.4439 21.2178 12.6382 21.1059C12.8325 20.994 12.994 20.833 13.1066 20.639C13.3061 20.295 13.7467 20.1779 14.0906 20.3775C14.4346 20.577 14.5517 21.0176 14.3522 21.3615C14.1131 21.7737 13.7699 22.1159 13.3569 22.3537C12.944 22.5915 12.4759 22.7167 11.9994 22.7167C11.5228 22.7167 11.0547 22.5915 10.6418 22.3537C10.2288 22.1159 9.88565 21.7737 9.64655 21.3615C9.44703 21.0176 9.56411 20.577 9.90808 20.3775Z" fill="currentColor"/>
</svg>
