<svg width="32" height="32" viewBox="0 0 32 32" fill="none" xmlns="http://www.w3.org/2000/svg">
<path fill-rule="evenodd" clip-rule="evenodd" d="M16.5 7.90039C16.8314 7.90039 17.1 8.16902 17.1 8.50039V17.0519L20.2424 13.9095C20.4767 13.6751 20.8566 13.6751 21.0909 13.9095C21.3253 14.1438 21.3253 14.5237 21.0909 14.758L16.9243 18.9247C16.69 19.159 16.3101 19.159 16.0757 18.9247L11.9091 14.758C11.6748 14.5237 11.6748 14.1438 11.9091 13.9095C12.1434 13.6751 12.5233 13.6751 12.7576 13.9095L15.9 17.0519V8.50039C15.9 8.16902 16.1686 7.90039 16.5 7.90039ZM9.00001 17.9004C9.33138 17.9004 9.60001 18.169 9.60001 18.5004V21.8337C9.60001 22.1166 9.71239 22.3879 9.91243 22.588C10.1125 22.788 10.3838 22.9004 10.6667 22.9004H22.3333C22.6162 22.9004 22.8876 22.788 23.0876 22.588C23.2876 22.3879 23.4 22.1166 23.4 21.8337V18.5004C23.4 18.169 23.6686 17.9004 24 17.9004C24.3314 17.9004 24.6 18.169 24.6 18.5004V21.8337C24.6 22.4349 24.3612 23.0114 23.9361 23.4365C23.511 23.8616 22.9345 24.1004 22.3333 24.1004H10.6667C10.0655 24.1004 9.48898 23.8616 9.0639 23.4365C8.63882 23.0114 8.40001 22.4349 8.40001 21.8337V18.5004C8.40001 18.169 8.66864 17.9004 9.00001 17.9004Z" fill="#B9BEC0"/>
<rect x="1" y="0.5" width="31" height="31" rx="15.5" stroke="#D8DCDF"/>
</svg>
