<svg width="16" height="16" viewBox="0 0 16 16" fill="none" xmlns="http://www.w3.org/2000/svg">
<g id="Trailing Icon">
<path id="Vector" d="M8.6376 3.03797C8.6376 2.68562 8.35197 2.39999 7.99963 2.39999C7.64728 2.39999 7.36165 2.68562 7.36165 3.03797V7.36216H3.03788C2.68553 7.36216 2.3999 7.64779 2.3999 8.00013C2.3999 8.35248 2.68553 8.63811 3.03788 8.63811H7.36165V12.962C7.36165 13.3144 7.64728 13.6 7.99963 13.6C8.35197 13.6 8.6376 13.3144 8.6376 12.962V8.63811H12.9619C13.3143 8.63811 13.5999 8.35248 13.5999 8.00013C13.5999 7.64779 13.3143 7.36216 12.9619 7.36216H8.6376V3.03797Z" fill="#28ad99"/>
</g>
</svg>
