<svg width="16" height="16" viewBox="0 0 16 16" fill="none" xmlns="http://www.w3.org/2000/svg">
<path fill-rule="evenodd" clip-rule="evenodd" d="M7.99984 3.83329C8.46007 3.83329 8.83317 4.20639 8.83317 4.66662V7.99996C8.83317 8.46019 8.46007 8.83329 7.99984 8.83329C7.5396 8.83329 7.1665 8.46019 7.1665 7.99996V4.66662C7.1665 4.20639 7.5396 3.83329 7.99984 3.83329Z" fill="#ef6820"/>
<path fill-rule="evenodd" clip-rule="evenodd" d="M7.1665 11.3333C7.1665 10.8731 7.5396 10.5 7.99984 10.5H8.00817C8.46841 10.5 8.8415 10.8731 8.8415 11.3333C8.8415 11.7935 8.46841 12.1666 8.00817 12.1666H7.99984C7.5396 12.1666 7.1665 11.7935 7.1665 11.3333Z" fill="#ef6820"/>
<path fill-rule="evenodd" clip-rule="evenodd" d="M8 14.8C11.7555 14.8 14.8 11.7555 14.8 8C14.8 4.24446 11.7555 1.2 8 1.2C4.24446 1.2 1.2 4.24446 1.2 8C1.2 11.7555 4.24446 14.8 8 14.8ZM8 16C12.4183 16 16 12.4183 16 8C16 3.58172 12.4183 0 8 0C3.58172 0 0 3.58172 0 8C0 12.4183 3.58172 16 8 16Z" fill="#ef6820"/>
</svg>
