<svg width="15" height="16" viewBox="0 0 15 16" fill="none" xmlns="http://www.w3.org/2000/svg">
<path d="M7.5 1.4C3.86047 1.4 0.9 4.36047 0.9 8C0.9 11.64 3.8605 14.6 7.5 14.6C11.1395 14.6 14.1 11.64 14.1 8C14.1 4.36047 11.1395 1.4 7.5 1.4Z" fill="#16b364" stroke="white" stroke-width="1.2"/>
<path fill-rule="evenodd" clip-rule="evenodd" d="M10.4538 6.06591C10.6938 6.29444 10.7031 6.67423 10.4745 6.91418L7.1412 10.4142C7.02796 10.5331 6.87093 10.6004 6.70672 10.6004C6.54252 10.6004 6.38548 10.5331 6.27224 10.4142L4.60557 8.66419C4.37704 8.42423 4.3863 8.04445 4.62625 7.81592C4.86621 7.58738 5.246 7.59665 5.47453 7.8366L6.70672 9.13039L9.60557 6.0866C9.8341 5.84664 10.2139 5.83738 10.4538 6.06591Z" fill="white"/>
</svg>
