<svg width="18" height="18" viewBox="0 0 18 18" fill="none" xmlns="http://www.w3.org/2000/svg">
<path d="M10.4417 16.5003C10.2952 16.7529 10.0849 16.9625 9.83185 17.1083C9.57884 17.254 9.29198 17.3307 9 17.3307C8.70802 17.3307 8.42116 17.254 8.16814 17.1083C7.91513 16.9625 7.70484 16.7529 7.55833 16.5003M14 5.66699C14 4.34091 13.4732 3.06914 12.5355 2.13146C11.5979 1.19378 10.3261 0.666992 9 0.666992C7.67392 0.666992 6.40215 1.19378 5.46447 2.13146C4.52678 3.06914 4 4.34091 4 5.66699C4 11.5003 1.5 13.167 1.5 13.167H16.5C16.5 13.167 14 11.5003 14 5.66699Z" stroke="#646464" stroke-width="1.2" stroke-linecap="round" stroke-linejoin="round"/>
</svg>
