<svg width="14" height="14" viewBox="0 0 14 14" fill="none" xmlns="http://www.w3.org/2000/svg">
<path fill-rule="evenodd" clip-rule="evenodd" d="M7 0C3.13401 0 0 3.13401 0 7C0 7.79346 0.132017 8.55609 0.375285 9.26712C0.388252 9.33366 0.411157 9.39664 0.442393 9.45446C1.43671 12.1098 3.99761 14 7 14C10.0024 14 12.5633 12.1098 13.5576 9.45446C13.5888 9.39664 13.6117 9.33365 13.6247 9.26712C13.868 8.55609 14 7.79346 14 7C14 3.13401 10.866 0 7 0ZM4.82509 12.2405C3.65792 11.7556 2.68765 10.892 2.06751 9.80321H3.96591C4.15926 10.7478 4.45131 11.5809 4.82509 12.2405ZM9.17491 12.2405C10.3421 11.7556 11.3124 10.892 11.9325 9.80321H10.0341C9.84074 10.7478 9.54869 11.5809 9.17491 12.2405ZM10.2326 8.47562H12.4786C12.605 8.00511 12.6724 7.51043 12.6724 7C12.6724 6.50931 12.6101 6.03317 12.493 5.57907H10.2379C10.2814 6.03825 10.3039 6.5137 10.3039 7C10.3039 7.50563 10.2796 7.99953 10.2326 8.47562ZM8.90098 5.57907C8.94963 6.03116 8.97629 6.50724 8.97629 7C8.97629 7.51268 8.94743 8.00729 8.89497 8.47562H5.10503C5.05257 8.00729 5.02371 7.51268 5.02371 7C5.02371 6.50724 5.05037 6.03116 5.09902 5.57907H8.90098ZM10.0451 4.25148H11.9632C11.3447 3.13688 10.3616 2.25253 9.17491 1.7595C9.55589 2.43183 9.85196 3.2844 10.0451 4.25148ZM4.82509 1.7595C3.63845 2.25253 2.65533 3.13688 2.03676 4.25148H3.95486C4.14804 3.2844 4.44411 2.43183 4.82509 1.7595ZM5.31755 4.25148C5.6928 2.59679 6.36929 1.49919 7 1.49919C7.63071 1.49919 8.3072 2.59679 8.68245 4.25148H5.31755ZM3.76208 5.57907H1.50702C1.38989 6.03317 1.32759 6.50931 1.32759 7C1.32759 7.51043 1.395 8.00511 1.52142 8.47562H3.76736C3.72042 7.99953 3.69612 7.50563 3.69612 7C3.69612 6.5137 3.7186 6.03825 3.76208 5.57907ZM5.33011 9.80321H8.66989C8.29224 11.4274 7.62373 12.5008 7 12.5008C6.37627 12.5008 5.70776 11.4274 5.33011 9.80321Z" fill="#646464"/>
</svg>
