<svg width="24" height="24" viewBox="0 0 24 24" color="currentColor" fill="none" xmlns="http://www.w3.org/2000/svg">
<path d="M11.8501 12.4863C14.453 12.4863 16.6556 10.2895 16.6556 7.79307C16.7557 5.19683 14.5532 3 12.0503 3C9.34721 3 7.14469 5.19683 7.14469 7.69322C7.14469 10.3893 9.34721 12.4863 11.8501 12.4863Z" fill="currentColor"/>
<path d="M16.5554 14.2837H7.54515C5.14241 14.2837 3.24023 16.3807 3.24023 18.7772V19.2765C3.24023 19.7758 3.44046 20.275 3.74081 20.5746C4.04115 20.8742 4.54172 21.0739 5.04229 20.974H19.0583C19.9593 20.974 20.7602 20.0753 20.7602 19.1766V18.7772C20.7602 16.3807 18.9582 14.2837 16.5554 14.2837Z" fill="currentColor"/>
</svg>
