<svg width="20" height="20" viewBox="0 0 20 20" fill="none" color="#646464" xmlns="http://www.w3.org/2000/svg">
<path fill-rule="evenodd" clip-rule="evenodd" d="M17.8102 2.89185C17.8184 2.86815 17.8262 2.83857 17.8313 2.81393C17.8398 2.77383 17.8431 2.738 17.8431 2.69635C17.8431 2.64952 17.8376 2.60327 17.8269 2.55848C17.8124 2.49656 17.7879 2.43649 17.7534 2.38084C17.7288 2.3409 17.6998 2.30451 17.6674 2.27211C17.6349 2.23958 17.5985 2.21055 17.5584 2.18585C17.5287 2.16751 17.497 2.15156 17.4635 2.13835C17.4319 2.12585 17.3939 2.11495 17.3605 2.10792C17.3204 2.09949 17.2846 2.09619 17.2429 2.09619C17.1961 2.09618 17.1498 2.10171 17.105 2.11232C17.0834 2.11742 17.0619 2.12373 17.0408 2.13125L1.81017 7.20815C1.57052 7.28803 1.40657 7.50946 1.4001 7.76199C1.39363 8.01452 1.54602 8.24405 1.78126 8.3361L8.84073 11.0985L11.6031 18.158C11.6952 18.3932 11.9247 18.5456 12.1772 18.5392C12.4298 18.5327 12.6512 18.3687 12.7311 18.1291L17.8102 2.89185ZM15.0214 4.0693L3.76182 7.82251L9.15703 9.9337L15.0214 4.0693ZM10.0056 10.7822L12.1167 16.1774L15.87 4.91784L10.0056 10.7822Z" fill="currentColor"/>
</svg>
