<svg width="20" height="20" viewBox="0 0 20 20" fill="none" xmlns="http://www.w3.org/2000/svg">
<path d="M13.9187 2.9193C12.3818 2.06967 10.6104 1.74254 8.87135 1.98721C7.1354 2.23145 5.52562 3.03227 4.28369 4.26928L1.43438 6.94665V3.33389C1.43438 3.00252 1.16575 2.73389 0.834375 2.73389C0.503004 2.73389 0.234375 3.00252 0.234375 3.33389V8.33389C0.234375 8.66526 0.503004 8.93389 0.834375 8.93389H5.83437C6.16575 8.93389 6.43437 8.66526 6.43437 8.33389C6.43437 8.00252 6.16575 7.73389 5.83437 7.73389H2.34898L5.11191 5.13768L5.12495 5.12505C6.18365 4.06814 7.55716 3.38393 9.03854 3.17551C10.5199 2.96709 12.0289 3.24575 13.3381 3.96951C14.6474 4.69326 15.6859 5.82291 16.2973 7.18823C16.9087 8.55355 17.0598 10.0806 16.7279 11.5393C16.3959 12.9979 15.5989 14.3092 14.4569 15.2755C13.3149 16.2418 11.8898 16.8109 10.3963 16.8968C8.90284 16.9828 7.42186 16.581 6.17655 15.7521C4.93124 14.9232 3.98905 13.712 3.49195 12.3011C3.38184 11.9885 3.03921 11.8244 2.72667 11.9345C2.41413 12.0446 2.25003 12.3873 2.36014 12.6998C2.94369 14.3561 4.04974 15.778 5.51163 16.751C6.97352 17.7241 8.71205 18.1957 10.4653 18.0948C12.2185 17.9939 13.8915 17.326 15.2321 16.1916C16.5726 15.0572 17.5083 13.5179 17.8979 11.8055C18.2876 10.0932 18.1102 8.30057 17.3925 6.6978C16.6748 5.09503 15.4556 3.76892 13.9187 2.9193Z" fill="#28ad99"/>
</svg>
