<svg width="28" height="28" viewBox="0 0 28 28" fill="none" xmlns="http://www.w3.org/2000/svg">
<g clip-path="url(#clip0_5177_46636)">
<path fill-rule="evenodd" clip-rule="evenodd" d="M22.6664 20.1364C22.6664 17.5969 19.2484 16.9622 15.2453 16.9622C13.308 16.9622 11.5165 17.1146 10.1791 17.5558C10.5399 17.9661 10.8141 18.4645 10.9655 19.0297C11.2165 19.9666 11.0851 20.9648 10.6002 21.8047C10.4158 22.1242 10.1859 22.4108 9.92041 22.6571C11.2842 23.165 13.1875 23.3327 15.2453 23.3327C19.2703 23.3327 22.6664 22.6749 22.6664 20.1364ZM7.99267 21.0592C8.19835 20.9529 8.37123 20.7893 8.48879 20.5857C8.65044 20.3057 8.69425 19.973 8.61057 19.6607C8.53594 19.3822 8.36537 19.1403 8.13072 18.9766C7.93157 19.316 7.82422 19.708 7.82422 20.1595C7.82422 20.4909 7.88247 20.7899 7.99267 21.0592ZM20.1562 9.60434C20.1562 6.862 17.9708 4.66602 15.2453 4.66602C12.5199 4.66602 10.3345 6.862 10.3345 9.60434C10.3345 12.3456 12.5199 14.5437 15.2453 14.5437C17.9708 14.5437 20.1562 12.3456 20.1562 9.60434Z" fill="white"/>
<path d="M2.35512 10.8231L4.71006 10.1921L5.02556 11.3695L7.3805 10.7385L8.01151 13.0935L5.65657 13.7245L6.34121 16.2796C7.8482 16.3932 9.17571 17.4383 9.58902 18.9808C9.84004 19.9177 9.70863 20.9159 9.22368 21.7558C8.73873 22.5958 7.93997 23.2087 7.00311 23.4597C6.06626 23.7108 5.06806 23.5794 4.2281 23.0944C3.38814 22.6095 2.77523 21.8107 2.5242 20.8738C2.11089 19.3314 2.73798 17.7625 3.98627 16.9106L2.35512 10.8231ZM4.87914 20.2428C4.96281 20.5551 5.16712 20.8214 5.4471 20.983C5.72709 21.1447 6.05982 21.1885 6.37211 21.1048C6.68439 21.0211 6.95065 20.8168 7.1123 20.5368C7.27395 20.2569 7.31775 19.9241 7.23408 19.6118C7.1504 19.2995 6.9461 19.0333 6.66611 18.8716C6.38612 18.71 6.05339 18.6662 5.7411 18.7499C5.42882 18.8335 5.16257 19.0378 5.00092 19.3178C4.83927 19.5978 4.79546 19.9306 4.87914 20.2428Z" fill="white"/>
</g>
<defs>
<clipPath id="clip0_5177_46636">
<rect width="28" height="28" fill="white"/>
</clipPath>
</defs>
</svg>
