<svg width="24" height="20" viewBox="0 0 24 20" fill="none" xmlns="http://www.w3.org/2000/svg">
<path d="M19.9961 6.64272C18.8869 2.22392 14.4056 -0.45901 9.9868 0.650213C6.53361 1.51707 4.02621 4.50161 3.76787 8.05252C1.31596 8.45686 -0.343935 10.7723 0.0604117 13.2242C0.419857 15.404 2.30862 17.0003 4.51779 16.9915H7.51746C7.93163 16.9915 8.26738 16.6558 8.26738 16.2416C8.26738 15.8275 7.93163 15.4917 7.51746 15.4917H4.51779C2.86112 15.4917 1.51811 14.1487 1.51811 12.492C1.51811 10.8354 2.86112 9.49236 4.51779 9.49236C4.93198 9.49236 5.2677 9.15663 5.2677 8.74244C5.26396 5.01492 8.28271 1.99013 12.0102 1.98643C15.2369 1.98319 18.0146 4.26435 18.6388 7.43008C18.7004 7.74617 18.9569 7.98765 19.2762 8.03002C21.3264 8.32197 22.7516 10.2206 22.4597 12.2708C22.1976 14.1117 20.6258 15.4824 18.7662 15.4917H16.5165C16.1023 15.4917 15.7666 15.8275 15.7666 16.2416C15.7666 16.6558 16.1023 16.9915 16.5165 16.9915H18.7662C21.6654 16.9828 24.0085 14.6254 23.9997 11.7262C23.9924 9.31289 22.3405 7.21542 19.9961 6.64272Z" fill="#999999"/>
<path d="M11.4847 9.70993L9.01426 12.1803C8.72195 12.4726 8.72195 12.9466 9.01426 13.2389C9.30611 13.5307 9.77915 13.5312 10.0716 13.24L11.2672 12.0497V18.4915C11.2672 18.9056 11.6029 19.2414 12.0171 19.2414C12.4313 19.2414 12.767 18.9056 12.767 18.4915V12.0497L13.9556 13.2383C14.2476 13.5303 14.721 13.5303 15.013 13.2383C15.305 12.9463 15.305 12.4729 15.013 12.1809L12.542 9.70993C12.2495 9.41914 11.7772 9.41914 11.4847 9.70993Z" fill="#999999"/>
</svg>
