<svg width="21" height="20" viewBox="0 0 21 20" fill="none" color="currentColor" xmlns="http://www.w3.org/2000/svg">
<path d="M16.234 5.55034C16.5887 5.19568 16.5887 4.62066 16.234 4.266C15.8793 3.91133 15.3043 3.91133 14.9497 4.266L10.5 8.71566L6.05034 4.266C5.69568 3.91134 5.12066 3.91133 4.766 4.266C4.41133 4.62066 4.41133 5.19568 4.766 5.55034L9.21566 10L4.766 14.4497C4.41134 14.8043 4.41133 15.3793 4.766 15.734C5.12066 16.0887 5.69568 16.0887 6.05034 15.734L10.5 11.2843L14.9497 15.734C15.3043 16.0887 15.8793 16.0887 16.234 15.734C16.5887 15.3793 16.5887 14.8043 16.234 14.4497L11.7843 10L16.234 5.55034Z" fill="currentColor"/>
</svg>
