<svg width="20" height="20" viewBox="0 0 20 20" fill="none" xmlns="http://www.w3.org/2000/svg">
<g id="Icon">
<g id="Vector">
<path fill-rule="evenodd" clip-rule="evenodd" d="M19.3393 5.24408C19.6647 5.56952 19.6647 6.09715 19.3393 6.42259L11.0059 14.7559C10.6805 15.0814 10.1529 15.0814 9.82743 14.7559L5.66076 10.5893C5.33532 10.2638 5.33532 9.73618 5.66076 9.41075C5.9862 9.08532 6.51383 9.08532 6.83927 9.41075L10.4167 12.9881L18.1608 5.24408C18.4862 4.91864 19.0138 4.91864 19.3393 5.24408Z" fill="#646464"/>
<path fill-rule="evenodd" clip-rule="evenodd" d="M13.9226 5.24408C14.2481 5.56952 14.2481 6.09715 13.9226 6.42259L10.695 9.48386C10.3696 9.8093 9.84192 9.8093 9.51648 9.48386C9.19106 9.15844 9.19106 8.63079 9.51648 8.30536L12.7441 5.24408C13.0696 4.91864 13.5972 4.91864 13.9226 5.24408ZM0.868132 9.4487C1.19357 9.12326 1.72121 9.12326 2.04665 9.4487L6.07246 13.4563C6.3979 13.7817 6.3979 14.3094 6.07246 14.6348C5.74702 14.9603 5.21938 14.9603 4.89395 14.6348L0.868132 10.6272C0.542695 10.3018 0.542695 9.77413 0.868132 9.4487Z" fill="#646464"/>
</g>
</g>
</svg>
