<svg width="24" height="24" viewBox="0 0 24 24" color="currentColor" fill="none" xmlns="http://www.w3.org/2000/svg">
<path fill-rule="evenodd" clip-rule="evenodd" d="M7.9993 1.28027C8.39694 1.28027 8.7193 1.60263 8.7193 2.00027V3.28027H15.2793V2.00027C15.2793 1.60263 15.6017 1.28027 15.9993 1.28027C16.3969 1.28027 16.7193 1.60263 16.7193 2.00027V3.28027H18.9993C20.5015 3.28027 21.7193 4.49806 21.7193 6.00027V20.0003C21.7193 21.5025 20.5015 22.7203 18.9993 22.7203H4.9993C3.49708 22.7203 2.2793 21.5025 2.2793 20.0003V6.00027C2.2793 4.49806 3.49708 3.28027 4.9993 3.28027H7.2793V2.00027C7.2793 1.60263 7.60165 1.28027 7.9993 1.28027ZM7.2793 4.72027H4.9993C4.29237 4.72027 3.7193 5.29335 3.7193 6.00027V9.28027H20.2793V6.00027C20.2793 5.29335 19.7062 4.72027 18.9993 4.72027H16.7193V6.00027C16.7193 6.39792 16.3969 6.72027 15.9993 6.72027C15.6017 6.72027 15.2793 6.39792 15.2793 6.00027V4.72027H8.7193V6.00027C8.7193 6.39792 8.39694 6.72027 7.9993 6.72027C7.60165 6.72027 7.2793 6.39792 7.2793 6.00027V4.72027ZM20.2793 10.7203H3.7193V20.0003C3.7193 20.7072 4.29237 21.2803 4.9993 21.2803H18.9993C19.7062 21.2803 20.2793 20.7072 20.2793 20.0003V10.7203Z" fill="currentColor"/>
</svg>
