<svg width="20" height="20" viewBox="0 0 20 20" fill="none" color="#999999" xmlns="http://www.w3.org/2000/svg">
<path fill-rule="evenodd" clip-rule="evenodd" d="M13.8637 14.7117C12.5971 15.7856 10.9577 16.4332 9.16706 16.4332C5.15379 16.4332 1.90039 13.1798 1.90039 9.16657C1.90039 5.1533 5.15379 1.8999 9.16706 1.8999C13.1803 1.8999 16.4337 5.1533 16.4337 9.16657C16.4337 10.9572 15.7861 12.5966 14.7122 13.8632L17.9247 17.0756C18.159 17.31 18.159 17.6899 17.9247 17.9242C17.6903 18.1585 17.3104 18.1585 17.0761 17.9242L13.8637 14.7117ZM3.10039 9.16657C3.10039 5.81604 5.81653 3.0999 9.16706 3.0999C12.5176 3.0999 15.2337 5.81604 15.2337 9.16657C15.2337 10.808 14.5819 12.2971 13.5229 13.3892C13.4978 13.4075 13.4738 13.428 13.4511 13.4506C13.4285 13.4733 13.408 13.4973 13.3897 13.5224C12.2976 14.5814 10.8084 15.2332 9.16706 15.2332C5.81653 15.2332 3.10039 12.5171 3.10039 9.16657Z" fill="currentColor"/>
</svg>
