<svg width="33" height="32" viewBox="0 0 33 32" fill="none" xmlns="http://www.w3.org/2000/svg">
<g clip-path="url(#clip0_16837_1813)">
<path d="M1.49854 16C1.49854 7.43961 8.43876 0.5 16.9992 0.5C25.5596 0.5 32.4999 7.43961 32.4999 16C32.4999 24.5604 25.5596 31.5 16.9992 31.5C8.43876 31.5 1.49854 24.5604 1.49854 16Z" stroke="#A6A6A6"/>
<path d="M22.339 18.2533C21.519 18.2533 20.7257 18.12 19.9857 17.88C19.7524 17.8 19.4924 17.86 19.3124 18.04L18.2657 19.3533C16.379 18.4533 14.6124 16.7533 13.6724 14.8L14.9724 13.6933C15.1524 13.5067 15.2057 13.2467 15.1324 13.0133C14.8857 12.2733 14.759 11.48 14.759 10.66C14.759 10.3 14.459 10 14.099 10H11.7924C11.4324 10 10.999 10.16 10.999 10.66C10.999 16.8533 16.1524 22 22.339 22C22.8124 22 22.999 21.58 22.999 21.2133V18.9133C22.999 18.5533 22.699 18.2533 22.339 18.2533Z" fill="#A6A6A6"/>
</g>
<defs>
<clipPath id="clip0_16837_1813">
<rect width="32.0013" height="32" fill="white" transform="translate(0.998535)"/>
</clipPath>
</defs>
</svg>
