<svg width="16" height="16" viewBox="0 0 16 16" fill="none" xmlns="http://www.w3.org/2000/svg">
<path d="M7.99984 1.5C4.78317 1.5 2.1665 4.11667 2.1665 7.33333C2.1665 10.7453 5.29783 12.8133 7.36983 14.182L7.7225 14.416C7.8065 14.472 7.90317 14.5 7.99984 14.5C8.0965 14.5 8.19317 14.472 8.27717 14.416L8.62984 14.182C10.7018 12.8133 13.8332 10.7453 13.8332 7.33333C13.8332 4.11667 11.2165 1.5 7.99984 1.5ZM8.07917 13.3473L7.99984 13.4001L7.9205 13.3473C5.91383 12.022 3.1665 10.2073 3.1665 7.33333C3.1665 4.668 5.3345 2.5 7.99984 2.5C10.6652 2.5 12.8332 4.668 12.8332 7.33333C12.8332 10.2073 10.0852 12.0227 8.07917 13.3473ZM7.99984 5.16667C6.80517 5.16667 5.83317 6.13867 5.83317 7.33333C5.83317 8.528 6.80517 9.5 7.99984 9.5C9.1945 9.5 10.1665 8.528 10.1665 7.33333C10.1665 6.13867 9.1945 5.16667 7.99984 5.16667ZM7.99984 8.5C7.3565 8.5 6.83317 7.97667 6.83317 7.33333C6.83317 6.69 7.3565 6.16667 7.99984 6.16667C8.64317 6.16667 9.1665 6.69 9.1665 7.33333C9.1665 7.97667 8.64317 8.5 7.99984 8.5Z" fill="#85888E"/>
</svg>
