<svg width="16" height="16" viewBox="0 0 16 16" fill="none" xmlns="http://www.w3.org/2000/svg">
<path d="M8 14.475C6.65825 14.475 5.41327 14.0675 4.38013 13.3695L4.08623 13.8045L4.38013 13.3695C2.65646 12.205 1.525 10.2346 1.525 8C1.525 4.42396 4.42398 1.525 8.00002 1.525C10.1925 1.52501 12.1307 2.61425 13.3029 4.28348C14.0415 5.33526 14.475 6.61625 14.475 8.00003C14.475 11.5761 11.5761 14.475 8 14.475Z" stroke="#ef6820" stroke-width="1.05"/>
<path fill-rule="evenodd" clip-rule="evenodd" d="M8.00098 4.0332C8.49233 4.0332 8.89064 4.4315 8.89064 4.92285V8.22009C8.89064 8.71143 8.49233 9.10975 8.00098 9.10975C7.50964 9.10975 7.11133 8.71143 7.11133 8.22009V4.92285C7.11133 4.4315 7.50964 4.0332 8.00098 4.0332Z" fill="#ef6820"/>
<path fill-rule="evenodd" clip-rule="evenodd" d="M7.11133 11.0777C7.11133 10.5863 7.50964 10.188 8.00098 10.188H8.00989C8.50123 10.188 8.89953 10.5863 8.89953 11.0777C8.89953 11.569 8.50123 11.9672 8.00989 11.9672H8.00098C7.50964 11.9672 7.11133 11.569 7.11133 11.0777Z" fill="#ef6820"/>
</svg>
