<svg width="20" height="20" viewBox="0 0 20 20" fill="none" xmlns="http://www.w3.org/2000/svg">
<path d="M16.6635 7.20224C15.7392 3.51991 12.0048 1.28414 8.32242 2.20849C5.44476 2.93087 3.35526 5.41798 3.13997 8.37707C1.09672 8.71403 -0.286531 10.6435 0.0504244 12.6868C0.349962 14.5033 1.92394 15.8336 3.76491 15.8263H6.26463C6.60977 15.8263 6.88957 15.5465 6.88957 15.2013C6.88957 14.8562 6.60977 14.5764 6.26463 14.5764H3.76491C2.38436 14.5764 1.26518 13.4572 1.26518 12.0767C1.26518 10.6961 2.38436 9.57694 3.76491 9.57694C4.11007 9.57694 4.38983 9.29717 4.38983 8.95201C4.38671 5.84575 6.90234 3.32509 10.0086 3.322C12.6975 3.31931 15.0122 5.22027 15.5324 7.85838C15.5837 8.12179 15.7975 8.32302 16.0636 8.35833C17.7721 8.60162 18.9598 10.1838 18.7165 11.8923C18.4981 13.4264 17.1882 14.5687 15.6386 14.5764H13.7638C13.4187 14.5764 13.1389 14.8562 13.1389 15.2013C13.1389 15.5465 13.4187 15.8263 13.7638 15.8263H15.6386C18.0546 15.819 20.0072 13.8545 19.9999 11.4385C19.9938 9.42739 18.6172 7.67949 16.6635 7.20224Z" fill="#fa3939"/>
<path d="M9.57044 17.5193L7.51177 15.4606C7.26819 15.2171 7.26819 14.8221 7.51177 14.5785C7.75499 14.3353 8.14918 14.3349 8.39292 14.5776L9.38922 15.5695L9.38922 10.2014C9.38922 9.85621 9.669 9.57643 10.0141 9.57643C10.3593 9.57643 10.6391 9.85621 10.6391 10.2014L10.6391 15.5695L11.6296 14.579C11.8729 14.3357 12.2674 14.3357 12.5107 14.579C12.7541 14.8223 12.7541 15.2168 12.5107 15.4602L10.4516 17.5193C10.2078 17.7616 9.8142 17.7616 9.57044 17.5193Z" fill="#fa3939"/>
</svg>
