<svg width="20" height="21" viewBox="0 0 20 21" fill="none" xmlns="http://www.w3.org/2000/svg">
<path fill-rule="evenodd" clip-rule="evenodd" d="M10.0014 0C10.6151 0 11.1125 0.471269 11.1125 1.0526V11.1425L14.7711 7.67647C15.205 7.2654 15.9085 7.2654 16.3424 7.67647C16.7763 8.08754 16.7763 8.75399 16.3424 9.16506L10.787 14.4281C10.3532 14.8391 9.64966 14.8391 9.21575 14.4281L3.66039 9.16506C3.22648 8.75399 3.22648 8.08754 3.66039 7.67647C4.09428 7.2654 4.79777 7.2654 5.23168 7.67647L8.89033 11.1425V1.0526C8.89033 0.471269 9.38776 0 10.0014 0ZM1.11107 13.6858H2.22214V16.8436C2.22214 17.1228 2.22214 17.8962 2.22214 17.8962C2.22214 17.8962 3.03854 17.8962 3.33322 17.8962H16.6661C16.9608 17.8962 17.7771 17.8962 17.7771 17.8962C17.7771 17.8962 17.7771 17.1228 17.7771 16.8436V13.6858H18.8882H19.9993V16.8436C19.9993 17.6811 19.9479 20.0014 19.9479 20.0014C19.9479 20.0014 17.5501 20.0014 16.6661 20.0014H3.33322C2.4492 20.0014 0.0513835 20.0014 0.0513835 20.0014C0.0513835 20.0014 0 17.6811 0 16.8436V13.6858H1.11107Z" fill="#202020"/>
</svg>
