<svg width="18" height="18" viewBox="0 0 18 18" fill="none" xmlns="http://www.w3.org/2000/svg">
<path d="M8.99971 12.6642C6.97926 12.6642 5.33545 11.0204 5.33545 8.99995C5.33545 6.9795 6.97926 5.33569 8.99971 5.33569C11.02 5.33569 12.6638 6.9795 12.6638 8.99995C12.6638 11.0204 11.0201 12.6642 8.99971 12.6642ZM8.99971 6.43496C7.58526 6.43496 6.43471 7.58561 6.43471 8.99995C6.43471 10.4143 7.58526 11.5649 8.99971 11.5649C10.414 11.5649 11.5646 10.4143 11.5646 8.99995C11.5646 7.58561 10.414 6.43496 8.99971 6.43496Z" fill="#646464"/>
<path d="M10.2184 17.794H7.78088C7.19463 17.794 6.67653 17.3778 6.54902 16.804L6.24054 15.4321C5.73773 15.2188 5.25841 14.9404 4.8085 14.6004L3.47252 15.0224C2.89939 15.2005 2.27652 14.9572 1.9892 14.4442L0.774276 12.3432C0.483211 11.8228 0.581458 11.1823 1.00952 10.7792L2.04489 9.82732C2.01349 9.54807 1.99807 9.27113 1.99807 8.99992C1.99807 8.72871 2.01352 8.45176 2.04423 8.17252L1.0146 7.22502C0.581424 6.8175 0.482559 6.17701 0.770531 5.66338L1.99298 3.54908C2.27652 3.04188 2.9009 2.80086 3.47036 2.97599L4.8085 3.39879C5.25841 3.05878 5.73773 2.78032 6.24054 2.56696L6.5497 1.1937C6.67653 0.622088 7.19463 0.205811 7.78088 0.205811H10.2184C10.8046 0.205811 11.3227 0.622054 11.4503 1.19583L11.7587 2.56778C12.2615 2.78101 12.7409 3.05943 13.1908 3.39945L14.5267 2.97747C15.1014 2.80086 15.7227 3.04267 16.01 3.55568L17.2251 5.65665C17.516 6.17701 17.4178 6.8175 16.9898 7.22059L15.9544 8.17252C15.9851 8.45176 16.0005 8.72953 16.0005 8.99992C16.0005 9.2703 15.9851 9.54807 15.9544 9.82732L16.9847 10.7741C16.9861 10.7756 16.9876 10.7771 16.9898 10.7786C17.1979 10.9741 17.3345 11.2337 17.3778 11.516C17.4211 11.7982 17.3686 12.0869 17.2287 12.3358L16.0063 14.4501C15.7227 14.9572 15.0999 15.1998 14.5282 15.0224L13.19 14.5996C12.74 14.9396 12.2608 15.218 11.758 15.4314L11.4487 16.8047C11.3227 17.3778 10.8047 17.794 10.2184 17.794ZM4.92066 13.4402C5.04667 13.4402 5.17054 13.4834 5.27023 13.5655C5.77369 13.9796 6.32253 14.2991 6.90367 14.5131C6.98972 14.5448 7.06646 14.5976 7.12689 14.6666C7.18732 14.7356 7.22952 14.8186 7.24963 14.908L7.62269 16.5643C7.63945 16.6406 7.70616 16.6948 7.78167 16.6948H10.2191C10.2946 16.6948 10.3613 16.6406 10.3774 16.5658L10.7511 14.908C10.7712 14.8186 10.8134 14.7356 10.8738 14.6666C10.9343 14.5976 11.011 14.5448 11.097 14.5131C11.6774 14.2991 12.2271 13.9796 12.7305 13.5655C12.8011 13.507 12.8853 13.4671 12.9753 13.4496C13.0653 13.432 13.1583 13.4374 13.2458 13.4651L14.8587 13.9745C14.9356 13.9987 15.0177 13.9701 15.0529 13.907L16.2753 11.7928C16.312 11.7275 16.2987 11.6382 16.2402 11.581L15.0031 10.4436C14.937 10.3828 14.8868 10.3067 14.8569 10.222C14.827 10.1373 14.8183 10.0466 14.8316 9.95775C14.8799 9.63313 14.9042 9.3107 14.9042 8.99923C14.9042 8.68766 14.8799 8.3652 14.8316 8.0406C14.8184 7.95177 14.8271 7.86104 14.857 7.77634C14.8868 7.69165 14.937 7.61556 15.0031 7.55473L16.243 6.41438C16.2987 6.36248 16.312 6.27148 16.2716 6.199L15.0565 4.09792C15.0171 4.02826 14.9335 4.0005 14.8573 4.02465L13.2465 4.53323C13.0691 4.58971 12.8757 4.55161 12.7313 4.43286C12.2278 4.01874 11.6789 3.69924 11.0977 3.48522C11.0117 3.45353 10.935 3.40078 10.8745 3.3318C10.8141 3.26281 10.772 3.17979 10.7519 3.09031L10.3788 1.43403C10.3605 1.35928 10.2938 1.30507 10.2184 1.30507H7.78088C7.70548 1.30507 7.63876 1.35928 7.62265 1.43403L7.24884 3.09179C7.22865 3.18121 7.18645 3.26418 7.12605 3.33314C7.06566 3.40211 6.98899 3.45489 6.90301 3.4867C6.32253 3.70071 5.7729 4.02022 5.27023 4.43433C5.12585 4.55309 4.93087 4.59039 4.75509 4.53471L3.14202 4.0253C3.06662 4.00195 2.98301 4.02977 2.94786 4.09281L1.72541 6.20628C1.68876 6.2723 1.70205 6.36313 1.76286 6.42029L2.99843 7.55552C3.06455 7.61633 3.11476 7.69242 3.14466 7.77713C3.17456 7.86184 3.18323 7.95259 3.16991 8.04143C3.12148 8.36602 3.09733 8.68848 3.09733 8.99992C3.09733 9.31135 3.12148 9.63382 3.16991 9.95841C3.19705 10.1388 3.13247 10.3205 2.99843 10.4443L1.75843 11.5846C1.70271 11.6367 1.68958 11.7275 1.72981 11.8002L2.94491 13.9011C2.98366 13.9708 3.06727 13.9979 3.14415 13.9745L4.75509 13.4658C4.80929 13.4483 4.86501 13.4402 4.92066 13.4402Z" fill="#646464"/>
</svg>
