<svg width="16" height="18" viewBox="0 0 16 18" fill="none" xmlns="http://www.w3.org/2000/svg">
<path fill-rule="evenodd" clip-rule="evenodd" d="M0.5 4.24224C0.5 3.92694 0.748731 3.67134 1.05556 3.67134H14.9444C15.2513 3.67134 15.5 3.92694 15.5 4.24224C15.5 4.55754 15.2513 4.81313 14.9444 4.81313H1.05556C0.748731 4.81313 0.5 4.55754 0.5 4.24224Z" fill="#fa3939"/>
<path fill-rule="evenodd" clip-rule="evenodd" d="M6.45701 1.64179C6.19506 1.64179 5.94385 1.74872 5.75863 1.93906C5.57341 2.12939 5.46935 2.38754 5.46935 2.65672V4.24254C5.46935 4.55783 5.22062 4.81343 4.9138 4.81343C4.60697 4.81343 4.35824 4.55783 4.35824 4.24254V2.65672C4.35824 2.08472 4.57936 1.53615 4.97296 1.13169C5.36655 0.727225 5.90038 0.5 6.45701 0.5H9.54343C10.1001 0.5 10.6339 0.727225 11.0275 1.13169C11.4211 1.53615 11.6422 2.08472 11.6422 2.65672V4.24254C11.6422 4.55783 11.3935 4.81343 11.0866 4.81343C10.7798 4.81343 10.5311 4.55783 10.5311 4.24254V2.65672C10.5311 2.38754 10.427 2.12939 10.2418 1.93906C10.0566 1.74872 9.80537 1.64179 9.54343 1.64179H6.45701ZM2.59898 3.67164C2.90581 3.67164 3.15454 3.92724 3.15454 4.24254V15.3433C3.15454 15.6125 3.25859 15.8706 3.44381 16.0609C3.62903 16.2513 3.88025 16.3582 4.14219 16.3582H11.8582C12.1202 16.3582 12.3714 16.2513 12.5566 16.0609C12.7418 15.8706 12.8459 15.6125 12.8459 15.3433V4.24254C12.8459 3.92724 13.0946 3.67164 13.4015 3.67164C13.7083 3.67164 13.957 3.92724 13.957 4.24254V15.3433C13.957 15.9153 13.7359 16.4638 13.3423 16.8683C12.9487 17.2728 12.4149 17.5 11.8582 17.5H4.14219C3.58556 17.5 3.05173 17.2728 2.65814 16.8683C2.26454 16.4638 2.04343 15.9153 2.04343 15.3433V4.24254C2.04343 3.92724 2.29216 3.67164 2.59898 3.67164Z" fill="#fa3939"/>
<path fill-rule="evenodd" clip-rule="evenodd" d="M6.45668 7.63615C6.7635 7.63615 7.01223 7.89175 7.01223 8.20705V12.9645C7.01223 13.2798 6.7635 13.5354 6.45668 13.5354C6.14985 13.5354 5.90112 13.2798 5.90112 12.9645V8.20705C5.90112 7.89175 6.14985 7.63615 6.45668 7.63615Z" fill="#fa3939"/>
<path fill-rule="evenodd" clip-rule="evenodd" d="M9.54295 7.63615C9.84978 7.63615 10.0985 7.89175 10.0985 8.20705V12.9645C10.0985 13.2798 9.84978 13.5354 9.54295 13.5354C9.23613 13.5354 8.9874 13.2798 8.9874 12.9645V8.20705C8.9874 7.89175 9.23613 7.63615 9.54295 7.63615Z" fill="#fa3939"/>
</svg>
