<svg xmlns="http://www.w3.org/2000/svg" width="48" height="48" viewBox="0 0 48 48">
    <g fill="none" fill-rule="evenodd">
        <g>
            <g>
                <g>
                    <path fill="#FFB441" d="M24 0C10.767 0 0 10.767 0 24c0 13.235 10.767 24 24 24s24-10.765 24-24C48 10.767 37.233 0 24 0z" transform="translate(-432.000000, -130.000000) translate(408.000000, 106.000000) translate(24.000000, 24.000000)"/>
                    <g>
                        <path d="M0 0L34.56 0 34.56 34.56 0 34.56z" transform="translate(-432.000000, -130.000000) translate(408.000000, 106.000000) translate(24.000000, 24.000000) translate(7.680000, 7.680000)"/>
                        <path fill="#FBFBFB" fill-rule="nonzero" d="M23.28 9.12v16.56c0 3.182-2.578 5.76-5.76 5.76s-5.76-2.578-5.76-5.76v-18c0-1.987 1.613-3.6 3.6-3.6s3.6 1.613 3.6 3.6V22.8c0 .792-.648 1.44-1.44 1.44-.792 0-1.44-.648-1.44-1.44V9.12h-2.16V22.8c0 1.987 1.613 3.6 3.6 3.6s3.6-1.613 3.6-3.6V7.68c0-3.182-2.578-5.76-5.76-5.76S9.6 4.498 9.6 7.68v18c0 4.378 3.542 7.92 7.92 7.92s7.92-3.542 7.92-7.92V9.12h-2.16z" transform="translate(-432.000000, -130.000000) translate(408.000000, 106.000000) translate(24.000000, 24.000000) translate(7.680000, 7.680000)"/>
                    </g>
                </g>
            </g>
        </g>
    </g>
</svg>
