<svg width="20" height="20" viewBox="0 0 20 20" color="currentColor" fill="none" xmlns="http://www.w3.org/2000/svg">
<path fill-rule="evenodd" clip-rule="evenodd" d="M8.81739 5.26877L6.604 7.37304L15.2188 7.37304C15.6094 7.37304 16 7.6206 16 8.11572C16 8.48707 15.6094 8.74998 15.2188 8.74998C14.0161 8.74998 12.8131 8.75609 11.6099 8.76221C9.3196 8.77385 7.0289 8.78549 4.73969 8.75496C4.51175 8.75192 4.27285 8.69622 4.14158 8.50985C4.05362 8.38496 4.00001 8.24306 4.00001 8.11572C4.00001 7.87314 4.16669 7.63056 4.39117 7.4915L7.64559 4.27852C8.03619 3.90718 8.55699 3.90718 8.81739 4.27852C9.07779 4.52608 9.07779 5.02121 8.81739 5.26877ZM11.1826 14.7313L13.396 12.627H4.7812C4.3906 12.627 4 12.3794 4 11.8843C4 11.513 4.3906 11.2501 4.7812 11.2501C5.98388 11.2501 7.18693 11.2439 8.39007 11.2378C10.6804 11.2262 12.9711 11.2145 15.2603 11.2451C15.4883 11.2481 15.7272 11.3038 15.8584 11.4902C15.9464 11.6151 16 11.757 16 11.8843C16 12.1269 15.8333 12.3695 15.6088 12.5085L12.3544 15.7215C11.9638 16.0929 11.443 16.0929 11.1826 15.7215C10.9222 15.4739 10.9222 14.9788 11.1826 14.7313Z" fill="currentColor"/>
</svg>
