<svg width="16" height="16" viewBox="0 0 16 16" fill="none" xmlns="http://www.w3.org/2000/svg">
<path d="M8.63809 3.03788C8.63809 2.68553 8.35246 2.3999 8.00011 2.3999C7.64777 2.3999 7.36214 2.68553 7.36214 3.03788V7.36207H3.03837C2.68602 7.36207 2.40039 7.6477 2.40039 8.00004C2.40039 8.35239 2.68602 8.63802 3.03837 8.63802H7.36214V12.9619C7.36214 13.3143 7.64777 13.5999 8.00011 13.5999C8.35246 13.5999 8.63809 13.3143 8.63809 12.9619V8.63802H12.9624C13.3148 8.63802 13.6004 8.35239 13.6004 8.00004C13.6004 7.6477 13.3148 7.36207 12.9624 7.36207H8.63809V3.03788Z" fill="#28ad99"/>
</svg>
