<svg width="20" height="20" viewBox="0 0 20 20" fill="none" xmlns="http://www.w3.org/2000/svg">
<path fill-rule="evenodd" clip-rule="evenodd" d="M11.4941 3.994C12.0924 3.3957 12.9039 3.05957 13.75 3.05957C14.5961 3.05957 15.4076 3.3957 16.0059 3.994C16.6042 4.59231 16.9404 5.40379 16.9404 6.24993C16.9404 7.09606 16.6042 7.90754 16.0059 8.50585L7.25592 17.2558C7.09964 17.4121 6.88768 17.4999 6.66667 17.4999H3.33333C2.8731 17.4999 2.5 17.1268 2.5 16.6666V13.3333C2.5 13.1122 2.5878 12.9003 2.74408 12.744L11.4941 3.994ZM13.75 4.72624C13.3459 4.72624 12.9583 4.88677 12.6726 5.17252L4.16667 13.6784V15.8333H6.32149L14.8274 7.32734C15.1132 7.04159 15.2737 6.65403 15.2737 6.24993C15.2737 5.84582 15.1132 5.45826 14.8274 5.17252C14.5417 4.88677 14.1541 4.72624 13.75 4.72624Z" fill="#009688"/>
<path fill-rule="evenodd" clip-rule="evenodd" d="M10.6606 4.82733C10.986 4.50189 11.5137 4.50189 11.8391 4.82733L15.1724 8.16066C15.4979 8.4861 15.4979 9.01374 15.1724 9.33917C14.847 9.66461 14.3194 9.66461 13.9939 9.33917L10.6606 6.00584C10.3351 5.6804 10.3351 5.15277 10.6606 4.82733Z" fill="#009688"/>
</svg>
