<svg width="21" height="20" viewBox="0 0 21 20" color="currentColor" fill="none" xmlns="http://www.w3.org/2000/svg">
<path fill-rule="evenodd" clip-rule="evenodd" d="M3.8499 3.10002C3.58469 3.10002 3.33033 3.20538 3.1428 3.39292C2.95526 3.58045 2.8499 3.83481 2.8499 4.10002V15.3C2.8499 15.5652 2.95526 15.8196 3.1428 16.0071C3.33033 16.1947 3.58469 16.3 3.8499 16.3H16.6499C16.9151 16.3 17.1695 16.1947 17.357 16.0071C17.5445 15.8196 17.6499 15.5652 17.6499 15.3V6.50002C17.6499 6.23481 17.5445 5.98045 17.357 5.79292C17.1695 5.60538 16.9151 5.50002 16.6499 5.50002H9.4499C9.24929 5.50002 9.06195 5.39976 8.95067 5.23284L7.52879 3.10002H3.8499ZM2.29427 2.54439C2.70685 2.13181 3.26643 1.90002 3.8499 1.90002H7.8499C8.05051 1.90002 8.23785 2.00029 8.34913 2.1672L9.77101 4.30002H16.6499C17.2334 4.30002 17.793 4.53181 18.2055 4.94439C18.6181 5.35697 18.8499 5.91655 18.8499 6.50002V15.3C18.8499 15.8835 18.6181 16.4431 18.2055 16.8557C17.793 17.2682 17.2334 17.5 16.6499 17.5H3.8499C3.26643 17.5 2.70685 17.2682 2.29427 16.8557C1.88169 16.4431 1.6499 15.8835 1.6499 15.3V4.10002C1.6499 3.51655 1.88169 2.95697 2.29427 2.54439Z" fill="currentColor"/>
<path fill-rule="evenodd" clip-rule="evenodd" d="M8.13395 8.28257C8.13395 7.95119 8.40258 7.68256 8.73395 7.68256H12.751C13.0824 7.68256 13.351 7.95119 13.351 8.28257V12.3685C13.351 12.6998 13.0824 12.9685 12.751 12.9685C12.4196 12.9685 12.151 12.6998 12.151 12.3685V9.73061L8.17309 13.7067C7.93872 13.9409 7.55882 13.9408 7.32456 13.7065C7.0903 13.4721 7.09039 13.0922 7.32476 12.8579L11.302 8.88257H8.73395C8.40258 8.88257 8.13395 8.61394 8.13395 8.28257Z" fill="currentColor"/>
</svg>
