<svg width="36" height="36" viewBox="0 0 36 36" fill="none" xmlns="http://www.w3.org/2000/svg">
<path d="M28.7866 33.1285C28.8868 32.4314 29.0551 31.7364 29.0751 31.0373C29.1272 29.357 29.0571 27.6728 29.1652 25.9966C29.2254 25.4486 29.4958 24.9469 29.9166 24.5944C31.3211 23.5367 32.8238 22.616 34.2603 21.6026C36.0655 20.3273 36.5143 18.232 35.3783 16.5518C34.2283 14.8534 32.1446 14.5029 30.2872 15.7298C28.5061 16.9064 26.7469 18.1172 24.9778 19.32C23.0744 20.6154 22.0987 22.4226 22.0686 24.7374C22.0406 27.0059 21.9744 29.2765 22.0105 31.545C22.0406 33.2857 23.1986 34.5912 24.8415 34.9296C26.3462 35.2419 27.913 34.4924 28.7866 33.1285Z" fill="#38DBD0"/>
<path d="M10.6701 2C11.3374 2.24999 12.0372 2.43593 12.6678 2.75823C14.1875 3.52679 15.6502 4.41104 17.1902 5.13208C17.707 5.34488 18.2827 5.34488 18.7994 5.13208C20.4147 4.37386 21.9588 3.46274 23.5497 2.64873C25.5596 1.62812 27.6347 2.23966 28.5766 4.09288C29.5307 5.96056 28.837 8.02244 26.8515 9.11124C24.9452 10.1525 23.0228 11.1607 21.1023 12.1772C19.0313 13.2743 16.9604 13.2743 14.8894 12.1772C12.857 11.0987 10.8084 10.0533 8.81068 8.9129C7.2788 8.04104 6.67663 6.3531 7.16691 4.69822C7.61854 3.18176 9.03853 2.13016 10.6701 2Z" fill="#f1c012"/>
<path d="M7.72967 33.1285C7.62234 32.4314 7.43987 31.7364 7.42055 31.0373C7.36259 29.357 7.43772 27.6728 7.32395 25.9966C7.2574 25.4486 6.96974 24.9469 6.51894 24.5944C5.0141 23.5367 3.40408 22.616 1.8649 21.6026C-0.0692757 20.3273 -0.552283 18.232 0.667041 16.5518C1.89925 14.8534 4.12966 14.5029 6.1218 15.7298C8.03021 16.9064 9.91501 18.1172 11.8084 19.32C13.8499 20.6154 14.8953 22.4226 14.9275 24.7374C14.9576 27.0059 15.0284 29.2765 14.9877 31.545C14.9576 33.2857 13.7147 34.5912 11.9565 34.9296C10.3444 35.2419 8.66563 34.4924 7.72967 33.1285Z" fill="#2e90fa"/>
</svg>
