<svg width="16" height="16" viewBox="0 0 16 16" fill="none" xmlns="http://www.w3.org/2000/svg">
<path d="M13.1663 7.99992C13.1663 8.27592 12.9423 8.49992 12.6663 8.49992H8.49967V12.6666C8.49967 12.9426 8.27567 13.1666 7.99967 13.1666C7.72367 13.1666 7.49967 12.9426 7.49967 12.6666V8.49992H3.33301C3.05701 8.49992 2.83301 8.27592 2.83301 7.99992C2.83301 7.72392 3.05701 7.49992 3.33301 7.49992H7.49967V3.33325C7.49967 3.05725 7.72367 2.83325 7.99967 2.83325C8.27567 2.83325 8.49967 3.05725 8.49967 3.33325V7.49992H12.6663C12.9423 7.49992 13.1663 7.72392 13.1663 7.99992Z" fill="#61646C"/>
</svg>
