<svg width="24" height="24" color="currentColor" viewBox="0 0 24 24" fill="none" xmlns="http://www.w3.org/2000/svg">
<path fill-rule="evenodd" clip-rule="evenodd" d="M22.6432 12.3241C22.6432 12.2161 22.6192 12.1201 22.5712 12.0241C22.5712 12.0121 22.5712 12.0121 22.5712 12.0001L19.1272 5.1121C18.8992 4.6561 18.5512 4.2841 18.1312 4.0081C17.6872 3.7441 17.1832 3.6001 16.6792 3.6001H7.16322C6.64722 3.6001 6.15522 3.7441 5.72322 4.0081C5.29122 4.2721 4.95522 4.6561 4.72722 5.1121L1.27122 12.0001C1.27122 12.0121 1.27122 12.0121 1.27122 12.0241C1.22322 12.1081 1.19922 12.2161 1.19922 12.3241V18.3241C1.19922 19.0441 1.48722 19.7401 1.99122 20.2441C2.50722 20.7601 3.19122 21.0361 3.91122 21.0361H19.9192C20.6392 21.0361 21.3352 20.7481 21.8392 20.2441C22.3552 19.7401 22.6312 19.0441 22.6312 18.3241V12.3241H22.6432ZM6.01122 5.7481L5.36322 5.4361L6.01122 5.7481C6.11922 5.5321 6.28722 5.3521 6.49122 5.2321C6.68322 5.1121 6.92322 5.0401 7.16322 5.0401H16.6792C16.9192 5.0401 17.1472 5.1121 17.3512 5.2321C17.5552 5.3521 17.7112 5.5321 17.8192 5.7481L20.7472 11.5921H15.9112C15.6712 11.5921 15.4432 11.7121 15.3112 11.9161L13.5232 14.5921H10.3072L8.51922 11.9161C8.38722 11.7241 8.15922 11.6041 7.91922 11.6041H3.08322L6.01122 5.7481ZM20.8192 19.2241C20.5792 19.4641 20.2552 19.5961 19.9192 19.5961H3.92322C3.58722 19.5961 3.26322 19.4641 3.02322 19.2241C2.78322 18.9841 2.65122 18.6601 2.65122 18.3241V13.0441H7.54722L9.33522 15.7201C9.46722 15.9241 9.69522 16.0441 9.93522 16.0441H13.9312C14.1712 16.0441 14.3992 15.9241 14.5312 15.7201L16.3192 13.0441H21.2152V18.3241C21.2032 18.6601 21.0592 18.9841 20.8192 19.2241Z" fill="currentColor"/>
</svg>
