<svg width="24" height="20" viewBox="0 0 24 20" fill="none" xmlns="http://www.w3.org/2000/svg">
  <path d="M19.9611 6.64562C18.8611 2.24562 14.3612 -0.454377 9.96115 0.645623C6.46115 1.54562 3.96115 4.54562 3.76115 8.14562C1.26115 8.54562 -0.338852 10.8456 0.0611481 13.3456C0.461148 15.5456 2.26115 17.1456 4.56115 17.1456H7.56115C7.96115 17.1456 8.26115 16.8456 8.26115 16.4456C8.26115 16.0456 7.96115 15.7456 7.56115 15.7456H4.56115C2.86115 15.7456 1.56115 14.4456 1.56115 12.7456C1.56115 11.0456 2.86115 9.74562 4.56115 9.74562C4.96115 9.74562 5.26115 9.44562 5.26115 8.94562C5.26115 5.24562 8.26115 2.14562 11.9611 2.14562C15.1611 2.14562 17.9611 4.44562 18.5611 7.54562C18.6611 7.84562 18.8612 8.14562 19.1611 8.14562C21.2612 8.44562 22.6611 10.3456 22.3611 12.3456C22.0611 14.1456 20.5611 15.5456 18.6611 15.5456H16.4611C16.0611 15.5456 15.7612 15.8456 15.7612 16.2456C15.7612 16.6456 16.0611 16.9456 16.4611 16.9456H18.6611C21.5611 16.9456 23.8611 14.5456 23.8611 11.6456C23.9611 9.34562 22.2611 7.24562 19.9611 6.64562Z" fill="#28ad99"/>
  <g transform="rotate(180, 12, 13)">
    <path class="syncing-arrow" d="M11.725 9.62502L9.225 12.125C8.925 12.425 8.925 12.925 9.225 13.225C9.525 13.525 10.025 13.525 10.325 13.225L11.525 12.025V18.425C11.525 18.825 11.825 19.125 12.225 19.125C12.625 19.125 12.925 18.825 12.925 18.425V12.025L14.125 13.225C14.425 13.525 14.925 13.525 15.225 13.225C15.525 12.925 15.525 12.425 15.225 12.125L12.725 9.62502C12.425 9.32502 12.025 9.32502 11.725 9.62502Z" fill="#28ad99"/>
  </g>
</svg>
