<svg width="33" height="32" viewBox="0 0 33 32" fill="none" xmlns="http://www.w3.org/2000/svg">
<rect x="1" y="0.5" width="31" height="31" rx="15.5" fill="white"/>
<g clip-path="url(#clip0_4177_32550)">
<path d="M18.2922 8.10205C16.9577 7.80009 15.5684 7.84112 14.254 8.22131C12.9427 8.60061 11.7486 9.30516 10.7825 10.2694L7.9334 12.9466V9.33389C7.9334 9.00252 7.66477 8.73389 7.3334 8.73389C7.00203 8.73389 6.7334 9.00252 6.7334 9.33389L6.7334 14.3338C6.7334 14.6652 7.00203 14.9339 7.3334 14.9339H12.3334C12.6648 14.9339 12.9334 14.6653 12.9334 14.3339C12.9334 14.0025 12.6648 13.7339 12.3334 13.7339H8.84794L11.6109 11.1376L11.6244 11.1245C12.4484 10.3001 13.4678 9.69792 14.5875 9.37406C15.7071 9.05019 16.8906 9.01524 18.0274 9.27246C19.1642 9.52968 20.2174 10.0707 21.0886 10.845C21.9598 11.6193 22.6206 12.6017 23.0094 13.7005C23.12 14.0129 23.4628 14.1765 23.7752 14.066C24.0876 13.9555 24.2512 13.6126 24.1407 13.3002C23.6842 12.0103 22.9085 10.8571 21.8858 9.94809C20.8631 9.0391 19.6268 8.404 18.2922 8.10205Z" fill="#646464"/>
<path d="M26.2664 17.6869C26.2715 17.533 26.2177 17.3772 26.104 17.2562C25.9809 17.1252 25.8128 17.0617 25.6462 17.0674H20.6664C20.335 17.0674 20.0664 17.336 20.0664 17.6674C20.0664 17.9988 20.335 18.2674 20.6664 18.2674H24.1516L21.3892 20.8631L21.3757 20.8762C20.5517 21.7006 19.5323 22.3028 18.4127 22.6267C17.293 22.9506 16.1095 22.9855 14.9727 22.7283C13.8359 22.4711 12.7827 21.93 11.9116 21.1557C11.0404 20.3814 10.3795 19.399 9.9907 18.3002C9.88015 17.9878 9.5373 17.8242 9.22491 17.9347C8.91252 18.0453 8.74889 18.3881 8.85944 18.7005C9.31589 19.9904 10.0917 21.1437 11.1144 22.0527C12.1371 22.9616 13.3734 23.5967 14.7079 23.8987C16.0424 24.2007 17.4317 24.1596 18.7461 23.7794C20.0574 23.4001 21.2516 22.6956 22.2177 21.7313L25.0664 19.0545V22.6674C25.0664 22.9988 25.335 23.2674 25.6664 23.2674C25.9978 23.2674 26.2664 22.9988 26.2664 22.6674V17.6869Z" fill="#646464"/>
</g>
<rect x="1" y="0.5" width="31" height="31" rx="15.5" stroke="#D8DCDF"/>
<defs>
<clipPath id="clip0_4177_32550">
<rect width="20" height="20" fill="white" transform="translate(6.5 6)"/>
</clipPath>
</defs>
</svg>
