<svg xmlns="http://www.w3.org/2000/svg" width="48" height="48" viewBox="0 0 48 48">
    <g fill="none" fill-rule="evenodd">
        <g>
            <g>
                <g>
                    <g transform="translate(-432.000000, -143.000000) translate(0.000000, -1.000000) translate(408.000000, 120.000000) translate(24.000000, 24.000000)">
                        <circle cx="24" cy="24" r="24" fill="#009688" fill-rule="nonzero"/>
                        <g>
                            <path d="M0 0L32 0 32 32 0 32z" transform="translate(8.000000, 8.000000)"/>
                            <path fill="#FFF" fill-rule="nonzero" d="M26.333 20.617c-1.518 0-2.987-.247-4.358-.691-.432-.148-.913-.037-1.247.296l-1.938 2.432c-3.494-1.666-6.765-4.814-8.506-8.432l2.407-2.05c.334-.345.432-.826.297-1.258-.457-1.37-.692-2.84-.692-4.358 0-.667-.555-1.223-1.222-1.223H6.802c-.666 0-1.469.297-1.469 1.223 0 11.469 9.544 21 21 21 .877 0 1.223-.778 1.223-1.457v-4.26c0-.666-.556-1.222-1.223-1.222z" transform="translate(8.000000, 8.000000)"/>
                        </g>
                    </g>
                </g>
            </g>
        </g>
    </g>
</svg>
