<svg width="20" height="20" viewBox="0 0 20 20" fill="none" xmlns="http://www.w3.org/2000/svg">
<path d="M17.6567 12.825C16.4083 12.5017 15.8275 12.225 15.2942 11.9458C15.1125 11.8517 14.8984 11.8508 14.7192 11.9442C14.1809 12.2217 13.5917 12.5008 12.3242 12.8725C12.0584 12.9508 11.875 13.195 11.875 13.4725V15.0925C11.875 17.1733 13.3841 18.4358 14.7957 18.9242C14.8616 18.9475 14.9308 18.9583 15 18.9583C15.0692 18.9583 15.1384 18.9467 15.2043 18.9242C16.6159 18.4358 18.125 17.1733 18.125 15.0925V13.43C18.125 13.145 17.9325 12.8967 17.6567 12.825ZM16.875 15.0925C16.875 16.6867 15.5725 17.4183 15 17.6633C14.4275 17.4192 13.125 16.6867 13.125 15.0925V13.9358C13.94 13.68 14.4791 13.4567 15.0033 13.2C15.5208 13.4542 16.07 13.6767 16.875 13.9075V15.0925ZM10.8333 16.875H5C3.68583 16.875 3.125 16.3142 3.125 15V5C3.125 3.68583 3.68583 3.125 5 3.125H9.375V5C9.375 7.015 10.485 8.125 12.5 8.125H14.375V10C14.375 10.345 14.655 10.625 15 10.625C15.345 10.625 15.625 10.345 15.625 10V7.5C15.625 7.33417 15.5592 7.175 15.4417 7.05833L10.4417 2.05833C10.3242 1.94083 10.1658 1.875 10 1.875H5C2.985 1.875 1.875 2.985 1.875 5V15C1.875 17.015 2.985 18.125 5 18.125H10.8333C11.1783 18.125 11.4583 17.845 11.4583 17.5C11.4583 17.155 11.1783 16.875 10.8333 16.875ZM10.625 5V4.00917L13.4908 6.875H12.5C11.1858 6.875 10.625 6.31417 10.625 5ZM11.6667 10.625H5.83333C5.48833 10.625 5.20833 10.345 5.20833 10C5.20833 9.655 5.48833 9.375 5.83333 9.375H11.6667C12.0117 9.375 12.2917 9.655 12.2917 10C12.2917 10.345 12.0117 10.625 11.6667 10.625ZM5.83333 13.9583C5.48833 13.9583 5.20833 13.6783 5.20833 13.3333C5.20833 12.9883 5.48833 12.7083 5.83333 12.7083H9.16667C9.51167 12.7083 9.79167 12.9883 9.79167 13.3333C9.79167 13.6783 9.51167 13.9583 9.16667 13.9583H5.83333Z" fill="#61646C"/>
</svg>
