<svg width="20" height="20" viewBox="0 0 20 20" fill="none" xmlns="http://www.w3.org/2000/svg">
<path fill-rule="evenodd" clip-rule="evenodd" d="M8.01043 2.43838C8.05329 2.39551 8.11143 2.37143 8.17205 2.37143H11.8292C11.8898 2.37143 11.948 2.39551 11.9908 2.43838C12.0337 2.48124 12.0578 2.53938 12.0578 2.6V4.65712H7.94348V2.6C7.94348 2.53938 7.96756 2.48124 8.01043 2.43838ZM7.25211 6.02855C7.25399 6.02856 7.25588 6.02857 7.25777 6.02857C7.25966 6.02857 7.26154 6.02856 7.26343 6.02855H12.7378C12.7397 6.02856 12.7416 6.02857 12.7435 6.02857C12.7454 6.02857 12.7473 6.02856 12.7491 6.02855H15.6546L14.8022 16.2574C14.8006 16.2763 14.7998 16.2953 14.7998 16.3143C14.7998 16.6174 14.6794 16.9081 14.4651 17.1224C14.2507 17.3368 13.9601 17.4572 13.657 17.4572H6.34267C6.03957 17.4572 5.74888 17.3368 5.53455 17.1224C5.32022 16.9081 5.19981 16.6174 5.19981 16.3143C5.19981 16.2953 5.19902 16.2763 5.19745 16.2574L4.34505 6.02855H7.25211ZM6.57205 4.65712V2.6C6.57205 2.17565 6.74062 1.76869 7.04068 1.46863C7.34074 1.16857 7.74771 1 8.17205 1H11.8292C12.2535 1 12.6605 1.16857 12.9606 1.46863C13.2606 1.76869 13.4292 2.17565 13.4292 2.6V4.65712H16.399H17.3143C17.693 4.65712 18 4.96412 18 5.34283C18 5.72154 17.693 6.02855 17.3143 6.02855H17.0308L16.1711 16.3451C16.163 17.0008 15.8991 17.6279 15.4348 18.0922C14.9633 18.5637 14.3238 18.8286 13.657 18.8286H6.34267C5.67584 18.8286 5.03632 18.5637 4.5648 18.0922C4.10054 17.6279 3.83659 17.0008 3.82857 16.3451L2.96886 6.02855H2.68571C2.307 6.02855 2 5.72154 2 5.34283C2 4.96412 2.307 4.65712 2.68571 4.65712H3.60058H6.57205ZM8.17183 8.31446C8.55054 8.31446 8.85754 8.62146 8.85754 9.00017V14.4859C8.85754 14.8646 8.55054 15.1716 8.17183 15.1716C7.79312 15.1716 7.48612 14.8646 7.48612 14.4859V9.00017C7.48612 8.62146 7.79312 8.31446 8.17183 8.31446ZM12.5142 9.00017C12.5142 8.62146 12.2072 8.31446 11.8285 8.31446C11.4498 8.31446 11.1428 8.62146 11.1428 9.00017V14.4859C11.1428 14.8646 11.4498 15.1716 11.8285 15.1716C12.2072 15.1716 12.5142 14.8646 12.5142 14.4859V9.00017Z" fill="#fa3939"/>
</svg>
