<svg class="icon-help" width="24" height="24" viewBox="0 0 24 24" color="currentColor" fill="none" xmlns="http://www.w3.org/2000/svg">
<path d="M11.9999 1.24414C6.0552 1.24414 1.24414 6.05466 1.24414 11.9999C1.24414 17.9445 6.05466 22.7557 11.9999 22.7557C17.9446 22.7557 22.7557 17.9452 22.7557 11.9999C22.7557 6.0552 17.9452 1.24414 11.9999 1.24414ZM11.9999 21.2549C6.89671 21.2549 2.74495 17.1031 2.74495 11.9999C2.74495 6.89667 6.89671 2.74495 11.9999 2.74495C17.1031 2.74495 21.2549 6.89667 21.2549 11.9999C21.2549 17.1031 17.1031 21.2549 11.9999 21.2549Z" fill="currentColor"/>
<path d="M11.9928 14.8537C11.3982 14.8537 10.9168 15.3492 10.9168 15.9438C10.9168 16.5243 11.384 17.034 11.9928 17.034C12.6016 17.034 13.0829 16.5243 13.0829 15.9438C13.0829 15.3492 12.5874 14.8537 11.9928 14.8537Z" fill="currentColor"/>
<path d="M11.8866 6.59976C9.97523 6.59976 9.09746 7.73243 9.09746 8.49693C9.09746 9.04909 9.56466 9.30395 9.94691 9.30395C10.7115 9.30395 10.4 8.21375 11.8441 8.21375C12.552 8.21375 13.1183 8.52525 13.1183 9.17652C13.1183 9.94102 12.3254 10.3799 11.8582 10.7763C11.4476 11.1302 10.9097 11.7107 10.9097 12.9283C10.9097 13.6645 11.1079 13.8769 11.6883 13.8769C12.382 13.8769 12.5236 13.5654 12.5236 13.2964C12.5236 12.5602 12.5378 12.1354 13.3165 11.5267C13.6987 11.2294 14.9021 10.2666 14.9021 8.93577C14.9021 7.60496 13.6987 6.59976 11.8866 6.59976Z" fill="currentColor"/>
</svg>
