<svg width="16" height="16" viewBox="0 0 16 16" fill="none" xmlns="http://www.w3.org/2000/svg">
<path d="M12.5788 10.3133C12.707 10.5484 12.5447 10.8535 12.277 10.8535H3.72348C3.45575 10.8535 3.29341 10.5484 3.42162 10.3133C3.96442 9.31819 4.48023 7.73753 4.48023 5.33348C4.48023 4.39991 4.85108 3.50459 5.51121 2.84446C6.17134 2.18433 7.06666 1.81348 8.00023 1.81348C8.93379 1.81348 9.82911 2.18433 10.4892 2.84446C11.1494 3.50459 11.5202 4.39991 11.5202 5.33348C11.5202 7.73753 12.036 9.31819 12.5788 10.3133Z" fill="#fa3939"/>
<path fill-rule="evenodd" clip-rule="evenodd" d="M12.2763 11.5198H3.72283C2.89129 11.5198 2.4934 10.6213 2.83571 9.99377L3.42097 10.313C3.29277 10.548 3.4551 10.8532 3.72283 10.8532H12.2763C12.5441 10.8532 12.7064 10.548 12.5782 10.313C12.0354 9.31786 11.5196 7.73721 11.5196 5.33315C11.5196 4.39959 11.1487 3.50426 10.4886 2.84413C9.82847 2.18401 8.93314 1.81315 7.99958 1.81315C7.06602 1.81315 6.17069 2.18401 5.51056 2.84413C4.85044 3.50426 4.47958 4.39959 4.47958 5.33315C4.47958 7.73721 3.96377 9.31786 3.42097 10.313L2.83571 9.99376C3.31905 9.10763 3.81291 7.63899 3.81291 5.33315C3.81291 4.22278 4.25401 3.15788 5.03916 2.37273C5.82431 1.58758 6.88921 1.14648 7.99958 1.14648C9.10995 1.14648 10.1748 1.58758 10.96 2.37273C11.7452 3.15788 12.1862 4.22278 12.1862 5.33315C12.1862 7.63899 12.6801 9.10763 13.1635 9.99377C13.5058 10.6213 13.1079 11.5198 12.2763 11.5198Z" fill="#fa3939"/>
<path d="M6.60642 12.9184C6.83573 12.7854 7.12945 12.8634 7.26247 13.0927C7.33748 13.2221 7.44515 13.3294 7.57469 13.404C7.70423 13.4786 7.8511 13.5179 8.0006 13.5179C8.15009 13.5179 8.29697 13.4786 8.42651 13.404C8.55605 13.3294 8.66372 13.2221 8.73873 13.0927C8.87175 12.8634 9.16547 12.7854 9.39478 12.9184C9.62409 13.0514 9.70215 13.3451 9.56913 13.5744C9.40973 13.8492 9.18094 14.0773 8.90566 14.2359C8.63038 14.3944 8.31828 14.4779 8.0006 14.4779C7.68292 14.4779 7.37082 14.3944 7.09554 14.2359C6.82026 14.0773 6.59147 13.8492 6.43207 13.5744C6.29905 13.3451 6.37711 13.0514 6.60642 12.9184Z" fill="#fa3939"/>
</svg>
