<svg width="48" height="48" viewBox="0 0 48 48" fill="none" xmlns="http://www.w3.org/2000/svg">
<path d="M1.11719 23.9851C1.13003 21.2956 1.14342 18.6052 1.15736 15.9137C1.15736 15.5197 1.16286 15.1247 1.20027 14.7328C1.35159 13.139 1.99483 11.759 3.20261 10.6305C3.66992 10.198 4.19188 9.82243 4.7565 9.5125C6.9384 8.30121 9.12103 7.08993 11.3044 5.87864C14.2632 4.23985 17.2314 2.61746 20.209 1.0115C20.8775 0.649475 21.5741 0.354512 22.3241 0.182145C23.0691 0.00885571 23.8398 -0.0412959 24.6027 0.0338777C25.6801 0.13866 26.6727 0.483918 27.6092 0.986874C28.3988 1.41072 29.184 1.84138 29.9697 2.27151C32.0449 3.4063 34.1195 4.54144 36.1936 5.67694C38.1953 6.7803 40.1955 7.88732 42.194 8.99802C42.5362 9.18767 42.8796 9.37523 43.2169 9.57432C43.9647 10.0044 44.628 10.5554 45.1768 11.2026C45.8413 11.9997 46.2975 12.9356 46.5079 13.9333C46.6186 14.442 46.6739 14.9603 46.6729 15.4799C46.6729 18.112 46.6739 20.744 46.6757 23.3757C46.6757 25.2531 46.6773 27.1305 46.6806 29.0078C46.6806 30.1981 46.6779 31.3885 46.6724 32.5788C46.6729 33.3677 46.5377 34.1513 46.2724 34.8987C45.8228 36.1592 45.0167 37.173 43.9063 37.9751C43.5732 38.2089 43.2259 38.4239 42.8664 38.619C38.5932 41.0174 34.2996 43.3841 29.9857 45.719C29.1669 46.1623 28.3484 46.6051 27.53 47.0477C26.7903 47.456 25.9838 47.7429 25.1441 47.8964C24.4505 48.0159 23.7416 48.0321 23.0427 47.9446C22.0765 47.8283 21.1835 47.5103 20.3416 47.054C17.28 45.4022 14.2267 43.736 11.1817 42.0553C9.02877 40.8646 6.87732 39.6713 4.72733 38.4754C3.91621 38.031 3.20077 37.4443 2.6188 36.7465C1.92868 35.9137 1.47048 34.9286 1.28666 33.8823C1.22278 33.5185 1.186 33.1508 1.17661 32.7821C1.1348 31.542 1.14415 30.3013 1.1392 29.0623C1.13314 27.369 1.1392 25.6757 1.1392 23.983L1.11719 23.9851Z" fill="#1CBCBC"/>
<path d="M10.6451 22.6179C10.6451 20.651 10.6483 18.6847 10.6451 16.7183C10.6451 15.5539 10.6289 14.389 10.62 13.2246C10.6157 13.098 10.6275 12.9714 10.6551 12.8479C10.6845 12.7038 10.7949 12.5903 10.9373 12.5577C11.0431 12.532 11.1521 12.5219 11.2608 12.5276C11.9414 12.5303 12.6172 12.5371 13.2957 12.5371C14.6771 12.5371 16.0587 12.5349 17.4405 12.5303C17.5661 12.5303 17.6918 12.5303 17.8174 12.5303C17.893 12.5305 17.968 12.544 18.0389 12.5704C18.1545 12.6054 18.2381 12.7068 18.2509 12.8278C18.2602 12.9116 18.2641 12.9958 18.2624 13.08C18.26 13.8567 18.2567 14.6331 18.2525 15.4094C18.2525 15.4431 18.2525 15.4774 18.2525 15.5107C18.2724 15.7217 18.3661 15.813 18.5723 15.8272C18.6394 15.8309 18.7064 15.8272 18.7734 15.8272C19.2001 15.8161 19.6272 15.8109 20.0539 15.8314C20.1208 15.8357 20.1879 15.8341 20.2544 15.8267C20.3879 15.8197 20.4965 15.7158 20.5104 15.5819C20.5234 15.4985 20.529 15.4141 20.5272 15.3297C20.5247 13.6414 20.5214 11.9531 20.5172 10.2648C20.5126 10.1383 20.5145 10.0117 20.523 9.88545C20.5466 9.66123 20.6225 9.55307 20.8628 9.51983C21.0889 9.4887 21.3146 9.50875 21.5402 9.50928C21.9334 9.50928 22.3255 9.52616 22.7202 9.52669C24.0856 9.52669 25.4506 9.52476 26.8152 9.52089C27.0665 9.52089 27.3173 9.51086 27.5681 9.50348C27.6772 9.50067 27.7862 9.51255 27.8921 9.53882C28.0015 9.5615 28.0882 9.64542 28.1152 9.75461C28.1398 9.84421 28.1506 9.9371 28.1471 10.03C28.1471 10.3086 28.144 10.5866 28.1434 10.8652C28.1403 12.3003 28.1377 13.7351 28.1356 15.1698C28.133 15.2795 28.1365 15.3892 28.146 15.4985C28.167 15.6885 28.2617 15.7845 28.4486 15.8151C28.5067 15.8237 28.5654 15.8276 28.624 15.8267L29.9805 15.8204C30.0224 15.821 30.0644 15.8192 30.1061 15.8151C30.2985 15.8024 30.4509 15.6462 30.46 15.4521C30.4653 15.393 30.46 15.3339 30.46 15.2748C30.4637 14.8 30.4637 14.3294 30.4726 13.8572C30.4768 13.6208 30.4951 13.385 30.5108 13.1497C30.5168 13.091 30.5275 13.033 30.5427 12.9761C30.5951 12.7413 30.7522 12.6173 30.9794 12.582C31.1863 12.5496 31.3955 12.5337 31.605 12.5345C32.3253 12.5371 33.0452 12.5345 33.7656 12.5345L37.3831 12.5287C37.5003 12.5251 37.6175 12.5276 37.7344 12.5361C37.9684 12.5604 38.0794 12.6748 38.1009 12.908C38.1076 12.9921 38.1099 13.0765 38.1077 13.1608C38.0883 15.0343 38.093 16.9067 38.1045 18.7818C38.1045 18.8831 38.1045 18.9844 38.1004 19.0857C38.0956 19.2837 37.9947 19.4667 37.8302 19.5753C37.7539 19.6268 37.6749 19.6742 37.5936 19.7172C36.1249 20.5096 34.6563 21.301 33.1876 22.0914C32.8557 22.2707 32.528 22.4575 32.1966 22.6379C32.1086 22.686 32.0159 22.7255 31.9238 22.7656C31.7563 22.839 31.6097 22.7957 31.4903 22.6664C31.4113 22.5796 31.3387 22.487 31.2731 22.3894C30.9336 21.8959 30.5185 21.4597 30.0433 21.0974C29.347 20.5698 28.5675 20.2316 27.7005 20.134C26.7425 20.0285 25.8315 20.1973 24.9929 20.6927C24.2343 21.1412 23.617 21.7358 23.1836 22.5129C22.8661 23.0903 22.6714 23.728 22.6119 24.3853C22.5812 24.6536 22.5693 24.9237 22.5763 25.1936C22.6082 26.0072 22.7218 26.8065 23.0375 27.5636C23.5752 28.8504 24.5222 29.6602 25.8645 29.9995C26.4494 30.1499 27.0522 30.2174 27.6555 30.2C28.5589 30.1814 29.4306 29.8611 30.1339 29.2893C30.5893 28.9237 30.9715 28.4869 31.316 28.0184C31.4055 27.897 31.4909 27.7704 31.5908 27.6575C31.7783 27.4464 31.9343 27.4148 32.1981 27.5214C32.26 27.5469 32.3203 27.5762 32.3787 27.6089C34.0718 28.5328 35.7817 29.4212 37.5046 30.2886C37.5873 30.3297 37.669 30.373 37.7475 30.4205C37.8952 30.5056 38.0031 30.6465 38.0475 30.812C38.1581 31.1851 38.1814 31.5789 38.1155 31.9627C38.0471 32.3228 37.8514 32.6458 37.5648 32.8717C37.3348 33.0551 37.0834 33.2094 36.8161 33.3312C36.1979 33.6309 35.577 33.9264 34.9613 34.2318C33.3401 35.0366 31.7198 35.844 30.1004 36.654C28.3701 37.5235 26.6451 38.403 24.9175 39.2772C24.8279 39.3226 24.7379 39.369 24.6447 39.4054C24.4164 39.498 24.1606 39.4938 23.9353 39.3938C23.8505 39.3574 23.7689 39.3147 23.6867 39.273L11.6184 33.1619C11.4838 33.0933 11.3482 33.0268 11.2137 32.9593C11.1687 32.9366 11.1247 32.9123 11.0791 32.8902C10.765 32.7393 10.6258 32.4797 10.6221 32.1378C10.6221 31.9605 10.6221 31.7833 10.6221 31.606C10.6221 31.2092 10.6263 30.8146 10.6273 30.4157C10.6347 27.8165 10.6418 25.2172 10.6488 22.6179H10.6451Z" fill="white"/>
</svg>
