<svg color="#61646C" width="24" height="24" viewBox="0 0 24 24" fill="none" xmlns="http://www.w3.org/2000/svg">
<path d="M18 20.25H6C3.582 20.25 2.25 18.918 2.25 16.5V7.5C2.25 5.082 3.582 3.75 6 3.75H18C20.418 3.75 21.75 5.082 21.75 7.5V16.5C21.75 18.918 20.418 20.25 18 20.25ZM6 5.25C4.423 5.25 3.75 5.923 3.75 7.5V16.5C3.75 18.077 4.423 18.75 6 18.75H18C19.577 18.75 20.25 18.077 20.25 16.5V7.5C20.25 5.923 19.577 5.25 18 5.25H6ZM13.0291 12.679L17.9409 9.10699C18.2759 8.86399 18.35 8.39401 18.106 8.05901C17.863 7.72501 17.3951 7.649 17.0581 7.894L12.146 11.466C12.058 11.53 11.941 11.53 11.853 11.466L6.94092 7.894C6.60292 7.649 6.13607 7.72601 5.89307 8.05901C5.64907 8.39401 5.72311 8.86299 6.05811 9.10699L10.97 12.68C11.278 12.904 11.639 13.015 11.999 13.015C12.359 13.015 12.7221 12.903 13.0291 12.679Z" fill="currentColor"/>
</svg>
