<svg width="20" height="20" viewBox="0 0 20 20" fill="none" xmlns="http://www.w3.org/2000/svg">
<path d="M10.0002 13.6642C7.97975 13.6642 6.33594 12.0204 6.33594 9.99995C6.33594 7.9795 7.97975 6.33569 10.0002 6.33569C12.0205 6.33569 13.6643 7.9795 13.6643 9.99995C13.6643 12.0204 12.0206 13.6642 10.0002 13.6642ZM10.0002 7.43496C8.58575 7.43496 7.4352 8.58561 7.4352 9.99995C7.4352 11.4143 8.58575 12.5649 10.0002 12.5649C11.4145 12.5649 12.5651 11.4143 12.5651 9.99995C12.5651 8.58561 11.4145 7.43496 10.0002 7.43496Z" fill="#646464"/>
<path d="M11.2186 18.7941H8.78112C8.19487 18.7941 7.67677 18.3779 7.54926 17.8041L7.24078 16.4322C6.73797 16.219 6.25866 15.9405 5.80875 15.6005L4.47277 16.0225C3.89964 16.2006 3.27677 15.9573 2.98945 15.4443L1.77452 13.3433C1.48346 12.8229 1.5817 12.1825 2.00976 11.7794L3.04513 10.8274C3.01373 10.5482 2.99831 10.2712 2.99831 10C2.99831 9.72883 3.01377 9.45189 3.04448 9.17264L2.01485 8.22514C1.58167 7.81762 1.4828 7.17713 1.77078 6.6635L2.99323 4.5492C3.27677 4.042 3.90115 3.80098 4.4706 3.97611L5.80875 4.39891C6.25866 4.0589 6.73797 3.78044 7.24078 3.56708L7.54995 2.19383C7.67677 1.62221 8.19487 1.20593 8.78112 1.20593H11.2186C11.8049 1.20593 12.323 1.62218 12.4505 2.19596L12.759 3.56791C13.2618 3.78113 13.7411 4.05955 14.191 4.39957L15.527 3.97759C16.1016 3.80098 16.723 4.04279 17.0103 4.5558L18.2254 6.65677C18.5163 7.17713 18.4181 7.81762 17.99 8.22071L16.9546 9.17264C16.9853 9.45189 17.0008 9.72966 17.0008 10C17.0008 10.2704 16.9853 10.5482 16.9546 10.8274L17.9849 11.7743C17.9864 11.7757 17.9879 11.7772 17.99 11.7787C18.1981 11.9743 18.3347 12.2339 18.378 12.5161C18.4214 12.7984 18.3689 13.087 18.229 13.3359L17.0065 15.4502C16.723 15.9573 16.1001 16.1999 15.5285 16.0225L14.1902 15.5997C13.7403 15.9397 13.261 16.2182 12.7583 16.4315L12.449 17.8048C12.323 18.3779 11.8049 18.7941 11.2186 18.7941ZM5.92091 14.4403C6.04691 14.4403 6.17078 14.4835 6.27047 14.5656C6.77394 14.9797 7.32278 15.2992 7.90391 15.5133C7.98996 15.545 8.0667 15.5977 8.12713 15.6667C8.18756 15.7357 8.22976 15.8187 8.24987 15.9082L8.62293 17.5644C8.6397 17.6407 8.70641 17.6949 8.78191 17.6949H11.2193C11.2949 17.6949 11.3615 17.6407 11.3777 17.5659L11.7514 15.9082C11.7715 15.8187 11.8137 15.7357 11.8741 15.6667C11.9345 15.5977 12.0112 15.545 12.0973 15.5133C12.6777 15.2992 13.2273 14.9797 13.7307 14.5656C13.8013 14.5071 13.8855 14.4672 13.9756 14.4497C14.0656 14.4322 14.1586 14.4375 14.246 14.4652L15.859 14.9747C15.9359 14.9988 16.018 14.9702 16.0531 14.9072L17.2756 12.7929C17.3122 12.7277 17.2989 12.6383 17.2404 12.5811L16.0034 11.4438C15.9372 11.383 15.887 11.3069 15.8571 11.2222C15.8272 11.1375 15.8186 11.0467 15.8319 10.9579C15.8802 10.6333 15.9045 10.3108 15.9045 9.99935C15.9045 9.68778 15.8802 9.36532 15.8319 9.04073C15.8186 8.95189 15.8273 8.86116 15.8572 8.77647C15.8871 8.69177 15.9373 8.61568 16.0034 8.55485L17.2433 7.4145C17.2989 7.3626 17.3122 7.2716 17.2718 7.19912L16.0568 5.09805C16.0173 5.02838 15.9337 5.00062 15.8575 5.02477L14.2467 5.53335C14.0693 5.58983 13.8759 5.55173 13.7316 5.43298C13.2281 5.01887 12.6791 4.69936 12.098 4.48534C12.0119 4.45365 11.9352 4.40091 11.8748 4.33192C11.8144 4.26293 11.7722 4.17991 11.7522 4.09043L11.3791 2.43415C11.3608 2.3594 11.294 2.3052 11.2186 2.3052H8.78112C8.70572 2.3052 8.63901 2.3594 8.6229 2.43415L8.24908 4.09191C8.2289 4.18133 8.18669 4.2643 8.1263 4.33327C8.06591 4.40223 7.98924 4.45502 7.90326 4.48682C7.32278 4.70083 6.77315 5.02034 6.27047 5.43446C6.12609 5.55321 5.93111 5.59052 5.75533 5.53483L4.14226 5.02543C4.06686 5.00207 3.98325 5.02989 3.94811 5.09293L2.72566 7.2064C2.689 7.27242 2.7023 7.36325 2.7631 7.42041L3.99867 8.55564C4.0648 8.61645 4.11501 8.69254 4.1449 8.77725C4.1748 8.86196 4.18347 8.95271 4.17016 9.04155C4.12172 9.36614 4.09757 9.68861 4.09757 10C4.09757 10.3115 4.12172 10.6339 4.17016 10.9585C4.1973 11.1389 4.13271 11.3206 3.99867 11.4444L2.75867 12.5848C2.70295 12.6368 2.68983 12.7277 2.73005 12.8003L3.94515 14.9012C3.9839 14.9709 4.06751 14.998 4.14439 14.9747L5.75533 14.4659C5.80954 14.4484 5.86526 14.4403 5.92091 14.4403Z" fill="#646464"/>
</svg>
