<svg width="24" height="24" viewBox="0 0 24 24" color="currentColor" fill="none" xmlns="http://www.w3.org/2000/svg">
<path fill-rule="evenodd" clip-rule="evenodd" d="M12.0002 3C9.32358 3 7.13358 5.18684 7.13358 7.73816C7.13358 10.411 9.32358 12.4763 11.8786 12.4763C14.4336 12.4763 16.6236 10.2895 16.6236 7.73816C16.7452 5.18684 14.5552 3 12.0002 3ZM12.0002 11.1399C10.1752 11.1399 8.71525 9.68202 8.71525 7.85965C8.71525 6.03728 10.1752 4.57939 12.0002 4.57939C13.8252 4.57939 15.2852 6.03728 15.2852 7.85965C15.2852 9.56053 13.8252 11.1399 12.0002 11.1399Z" fill="currentColor"/>
<path fill-rule="evenodd" clip-rule="evenodd" d="M7.49857 15.7566C6.00169 15.7566 4.70023 17.0829 4.70023 18.7939V19.2798C4.70023 19.3924 4.74655 19.4797 4.79059 19.5237C4.79541 19.5285 4.79972 19.5323 4.80343 19.5354L4.8537 19.5228H19.0569C19.0569 19.5228 19.1172 19.5168 19.1897 19.4384C19.2569 19.3657 19.3002 19.2657 19.3002 19.1583V18.7939C19.3002 17.0829 17.9988 15.7566 16.5019 15.7566H7.49857ZM3.24023 18.7939C3.24023 16.3741 5.10211 14.2987 7.49857 14.2987H16.5019C18.8984 14.2987 20.7602 16.3741 20.7602 18.7939V19.1583C20.7602 20.1123 20.0007 20.9807 19.0569 20.9807H5.01696C4.51268 21.0667 4.05896 20.8549 3.75821 20.5546C3.43726 20.2341 3.24023 19.7747 3.24023 19.2798V18.7939Z" fill="currentColor"/>
</svg>
