<svg width="20" height="21" viewBox="0 0 20 21" fill="none" xmlns="http://www.w3.org/2000/svg">
<g id="Close">
<path id="Vector" d="M15.734 5.64995C16.0887 5.29529 16.0887 4.72027 15.734 4.36561C15.3793 4.01094 14.8043 4.01094 14.4497 4.36561L10 8.81527L5.55034 4.36561C5.19568 4.01094 4.62066 4.01094 4.266 4.36561C3.91133 4.72027 3.91133 5.29529 4.266 5.64995L8.71566 10.0996L4.266 14.5493C3.91134 14.9039 3.91133 15.479 4.266 15.8336C4.62066 16.1883 5.19568 16.1883 5.55034 15.8336L10 11.384L14.4497 15.8336C14.8043 16.1883 15.3793 16.1883 15.734 15.8336C16.0887 15.479 16.0887 14.9039 15.734 14.5493L11.2843 10.0996L15.734 5.64995Z" fill="#fa3939"/>
</g>
</svg>
