<svg width="20" height="20" viewBox="0 0 20 20" fill="none" xmlns="http://www.w3.org/2000/svg">
<path d="M10 1.04175C5.06002 1.04175 1.04169 5.06008 1.04169 10.0001C1.04169 14.9401 5.06002 18.9584 10 18.9584C14.94 18.9584 18.9584 14.9401 18.9584 10.0001C18.9584 5.06008 14.94 1.04175 10 1.04175ZM10 17.7084C5.74919 17.7084 2.29169 14.2509 2.29169 10.0001C2.29169 5.74925 5.74919 2.29175 10 2.29175C14.2509 2.29175 17.7084 5.74925 17.7084 10.0001C17.7084 14.2509 14.2509 17.7084 10 17.7084ZM12.9417 12.0584C13.1859 12.3026 13.1859 12.6984 12.9417 12.9426C12.82 13.0643 12.66 13.1259 12.5 13.1259C12.34 13.1259 12.18 13.0651 12.0583 12.9426L9.55833 10.4426C9.44083 10.3251 9.37502 10.1659 9.37502 10.0009V5.83423C9.37502 5.48923 9.65502 5.20923 10 5.20923C10.345 5.20923 10.625 5.48923 10.625 5.83423V9.7417L12.9417 12.0584Z" fill="#28AD99"/>
</svg>
