<svg width="12" height="12" viewBox="0 0 12 12" fill="none" xmlns="http://www.w3.org/2000/svg">
<path d="M2.64534 10.9753C3.60295 11.6222 4.75736 12 6 12C5.99999 12 6.00001 12 6 12C9.31374 12 12 9.31376 12 6.00002C12 4.7184 11.5982 3.5306 10.9136 2.5558C9.82823 1.01021 8.0321 7.4104e-06 6.00002 0C6.00001 0 6.00003 0 6.00002 0C2.68631 0 0 2.68629 0 6C0 5.99999 0 6.00001 0 6C0 8.07108 1.04933 9.89706 2.64534 10.9753Z" fill="#fa3939"/>
<path fill-rule="evenodd" clip-rule="evenodd" d="M6.00084 2.59961C6.42199 2.59961 6.76341 2.94101 6.76341 3.36216V6.18837C6.76341 6.60952 6.42199 6.95093 6.00084 6.95093C5.57969 6.95093 5.23828 6.60952 5.23828 6.18837V3.36216C5.23828 2.94101 5.57969 2.59961 6.00084 2.59961Z" fill="white"/>
<path fill-rule="evenodd" clip-rule="evenodd" d="M5.23828 8.6376C5.23828 8.21644 5.57969 7.875 6.00084 7.875H6.00847C6.42962 7.875 6.77102 8.21644 6.77102 8.6376C6.77102 9.05876 6.42962 9.40008 6.00847 9.40008H6.00084C5.57969 9.40008 5.23828 9.05876 5.23828 8.6376Z" fill="white"/>
</svg>
