<svg width="33" height="32" viewBox="0 0 33 32" fill="none" xmlns="http://www.w3.org/2000/svg">
<rect x="0.5" width="32" height="32" fill="white"/>
<circle cx="16.5" cy="16" r="12" fill="#fa3939"/>
<path fill-rule="evenodd" clip-rule="evenodd" d="M11.0883 13C11.7888 13 12.3269 13.1543 12.7028 13.4629C13.0787 13.7715 13.2666 14.2153 13.2666 14.7943C13.2666 15.3459 13.0787 15.7733 12.7028 16.0765C12.3269 16.3795 11.7888 16.5311 11.0883 16.5311H9.96928V18.4073H8.5V13H11.0883ZM10.8578 15.4989C11.1767 15.4989 11.4116 15.4401 11.5625 15.3227C11.7135 15.2053 11.7889 15.0237 11.7889 14.7778C11.7889 14.5376 11.7135 14.3586 11.5625 14.2413C11.4116 14.1238 11.1767 14.0651 10.8578 14.0651H9.96941V15.4989H10.8578ZM18.6268 13.7005C18.157 13.2335 17.4808 13 16.598 13H14.2061V18.4073H16.598C17.4808 18.4073 18.157 18.1738 18.6268 17.7067C19.0967 17.2398 19.3315 16.5721 19.3315 15.7037C19.3315 14.8352 19.0967 14.1675 18.6268 13.7005ZM16.4529 17.3423C16.9256 17.3423 17.273 17.2057 17.4951 16.9326C17.7172 16.6595 17.8282 16.2498 17.8282 15.7037C17.8282 15.1575 17.7172 14.7479 17.4951 14.4747C17.273 14.2016 16.9256 14.0651 16.4529 14.0651H15.6756V17.3423H16.4529ZM21.809 15.2367V14.0896H24.7219V13H20.3397V18.4073H21.809V16.3263H24.1325V15.2367H21.809Z" fill="white"/>
</svg>
