<svg width="16" height="16" viewBox="0 0 16 16" fill="none" xmlns="http://www.w3.org/2000/svg">
<path fill-rule="evenodd" clip-rule="evenodd" d="M8.00022 2.61332C6.85448 2.61332 5.75567 3.06846 4.94551 3.87862C4.13536 4.68878 3.68021 5.78758 3.68021 6.93332C3.68021 8.60705 4.76777 10.2234 5.94867 11.4699C6.52931 12.0828 7.11158 12.5843 7.54922 12.9328C7.72759 13.0749 7.88128 13.191 8.00021 13.2783C8.11915 13.191 8.27284 13.0749 8.45121 12.9328C8.88885 12.5843 9.47112 12.0828 10.0518 11.4699C11.2327 10.2234 12.3202 8.60705 12.3202 6.93332C12.3202 5.78758 11.8651 4.68878 11.0549 3.87862C10.2448 3.06846 9.14595 2.61332 8.00022 2.61332ZM8.00022 13.8667C7.73396 14.266 7.73384 14.266 7.73369 14.2659L7.73332 14.2656L7.73224 14.2649L7.72878 14.2626L7.71675 14.2544C7.7065 14.2475 7.69182 14.2374 7.67301 14.2244C7.6354 14.1984 7.58125 14.1603 7.51293 14.111C7.37633 14.0123 7.18277 13.8682 6.95121 13.6838C6.48885 13.3156 5.87112 12.7839 5.25176 12.1301C4.03266 10.8433 2.72021 8.99292 2.72021 6.93332C2.72021 5.53298 3.2765 4.18999 4.26669 3.1998C5.25688 2.2096 6.59987 1.65332 8.00022 1.65332C9.40056 1.65332 10.7435 2.2096 11.7337 3.1998C12.7239 4.18999 13.2802 5.53298 13.2802 6.93332C13.2802 8.99292 11.9678 10.8433 10.7487 12.1301C10.1293 12.7839 9.51158 13.3156 9.04922 13.6838C8.81766 13.8682 8.6241 14.0123 8.4875 14.111C8.41918 14.1603 8.36503 14.1984 8.32742 14.2244C8.30861 14.2374 8.29393 14.2475 8.28368 14.2544L8.27165 14.2626L8.26819 14.2649L8.26711 14.2656L8.26674 14.2659C8.26659 14.266 8.26647 14.266 8.00022 13.8667ZM8.00022 13.8667L8.26647 14.266C8.10524 14.3735 7.89519 14.3735 7.73396 14.266L8.00022 13.8667ZM8.00022 5.81332C7.38166 5.81332 6.88021 6.31476 6.88021 6.93332C6.88021 7.55188 7.38166 8.05332 8.00022 8.05332C8.61877 8.05332 9.12021 7.55188 9.12021 6.93332C9.12021 6.31476 8.61877 5.81332 8.00022 5.81332ZM5.92021 6.93332C5.92021 5.78457 6.85146 4.85332 8.00022 4.85332C9.14897 4.85332 10.0802 5.78457 10.0802 6.93332C10.0802 8.08207 9.14897 9.01332 8.00022 9.01332C6.85146 9.01332 5.92021 8.08207 5.92021 6.93332Z" fill="#999999"/>
</svg>
