<svg width="14" height="14" viewBox="0 0 14 14" fill="none" xmlns="http://www.w3.org/2000/svg">
<path fill-rule="evenodd" clip-rule="evenodd" d="M7.00051 0.519531C7.2656 0.519531 7.48051 0.734435 7.48051 0.999531V7.84071L9.99443 5.32679C10.1819 5.13934 10.4858 5.13934 10.6733 5.32679C10.8607 5.51424 10.8607 5.81816 10.6733 6.00561L7.33992 9.33894C7.15247 9.52639 6.84855 9.52639 6.6611 9.33894L3.32776 6.00561C3.14031 5.81816 3.14031 5.51424 3.32776 5.32679C3.51521 5.13934 3.81913 5.13934 4.00659 5.32679L6.52051 7.84071V0.999531C6.52051 0.734435 6.73541 0.519531 7.00051 0.519531ZM1.00051 8.51953C1.2656 8.51953 1.48051 8.73444 1.48051 8.99953V11.6662C1.48051 11.8925 1.57041 12.1096 1.73044 12.2696C1.89047 12.4296 2.10752 12.5195 2.33384 12.5195H11.6672C11.8935 12.5195 12.1105 12.4296 12.2706 12.2696C12.4306 12.1096 12.5205 11.8925 12.5205 11.6662V8.99953C12.5205 8.73444 12.7354 8.51953 13.0005 8.51953C13.2656 8.51953 13.4805 8.73444 13.4805 8.99953V11.6662C13.4805 12.1471 13.2895 12.6084 12.9494 12.9484C12.6093 13.2885 12.1481 13.4795 11.6672 13.4795H2.33384C1.85292 13.4795 1.39169 13.2885 1.05162 12.9484C0.711555 12.6084 0.520508 12.1471 0.520508 11.6662V8.99953C0.520508 8.73444 0.735411 8.51953 1.00051 8.51953Z" fill="#28ad99"/>
</svg>
