<svg width="20" height="20" viewBox="0 0 20 20" fill="none" xmlns="http://www.w3.org/2000/svg">
<path fill-rule="evenodd" clip-rule="evenodd" d="M10 1.8999C10.3314 1.8999 10.6 2.16853 10.6 2.4999V11.0514L13.7424 7.90897C13.9767 7.67466 14.3566 7.67466 14.591 7.90897C14.8253 8.14329 14.8253 8.52318 14.591 8.7575L10.4243 12.9242C10.19 13.1585 9.81007 13.1585 9.57576 12.9242L5.40909 8.7575C5.17478 8.52318 5.17478 8.14329 5.40909 7.90897C5.64341 7.67466 6.02331 7.67466 6.25762 7.90897L9.40002 11.0514V2.4999C9.40002 2.16853 9.66865 1.8999 10 1.8999ZM2.50002 11.8999C2.8314 11.8999 3.10002 12.1685 3.10002 12.4999V15.8332C3.10002 16.1161 3.2124 16.3874 3.41244 16.5875C3.61248 16.7875 3.88379 16.8999 4.16669 16.8999H15.8334C16.1163 16.8999 16.3876 16.7875 16.5876 16.5875C16.7876 16.3874 16.9 16.1161 16.9 15.8332V12.4999C16.9 12.1685 17.1687 11.8999 17.5 11.8999C17.8314 11.8999 18.1 12.1685 18.1 12.4999V15.8332C18.1 16.4344 17.8612 17.0109 17.4361 17.436C17.0111 17.8611 16.4345 18.0999 15.8334 18.0999H4.16669C3.56553 18.0999 2.989 17.8611 2.56392 17.436C2.13883 17.0109 1.90002 16.4344 1.90002 15.8332V12.4999C1.90002 12.1685 2.16865 11.8999 2.50002 11.8999Z" fill="#646464"/>
</svg>
