<svg width="32" height="32" viewBox="0 0 32 32" fill="none" xmlns="http://www.w3.org/2000/svg">
<path d="M17.7922 8.10205C16.4577 7.80009 15.0684 7.84112 13.754 8.22131C12.4427 8.60061 11.2486 9.30516 10.2825 10.2694L7.4334 12.9466V9.33389C7.4334 9.00252 7.16477 8.73389 6.8334 8.73389C6.50203 8.73389 6.2334 9.00252 6.2334 9.33389L6.2334 14.3338C6.2334 14.6652 6.50203 14.9339 6.8334 14.9339H11.8334C12.1648 14.9339 12.4334 14.6653 12.4334 14.3339C12.4334 14.0025 12.1648 13.7339 11.8334 13.7339H8.34794L11.1109 11.1376L11.1244 11.1245C11.9484 10.3001 12.9678 9.69792 14.0875 9.37406C15.2071 9.05019 16.3906 9.01524 17.5274 9.27246C18.6642 9.52968 19.7174 10.0707 20.5886 10.845C21.4598 11.6193 22.1206 12.6017 22.5094 13.7005C22.62 14.0129 22.9628 14.1765 23.2752 14.066C23.5876 13.9555 23.7512 13.6126 23.6407 13.3002C23.1842 12.0103 22.4085 10.8571 21.3858 9.94809C20.3631 9.0391 19.1268 8.404 17.7922 8.10205Z" fill="#B9BEC0"/>
<path d="M25.7664 17.6869C25.7715 17.533 25.7177 17.3772 25.604 17.2562C25.4809 17.1252 25.3128 17.0617 25.1462 17.0674H20.1664C19.835 17.0674 19.5664 17.336 19.5664 17.6674C19.5664 17.9988 19.835 18.2674 20.1664 18.2674H23.6516L20.8892 20.8631L20.8757 20.8762C20.0517 21.7006 19.0323 22.3028 17.9127 22.6267C16.793 22.9506 15.6095 22.9855 14.4727 22.7283C13.3359 22.4711 12.2827 21.93 11.4116 21.1557C10.5404 20.3814 9.87953 19.399 9.4907 18.3002C9.38015 17.9878 9.0373 17.8242 8.72491 17.9347C8.41252 18.0453 8.24889 18.3881 8.35944 18.7005C8.81589 19.9904 9.59166 21.1437 10.6144 22.0527C11.6371 22.9616 12.8734 23.5967 14.2079 23.8987C15.5424 24.2007 16.9317 24.1596 18.2461 23.7794C19.5574 23.4001 20.7516 22.6956 21.7177 21.7313L24.5664 19.0545V22.6674C24.5664 22.9988 24.835 23.2674 25.1664 23.2674C25.4978 23.2674 25.7664 22.9988 25.7664 22.6674V17.6869Z" fill="#B9BEC0"/>
<rect x="0.5" y="0.5" width="31" height="31" rx="15.5" stroke="#D8DCDF"/>
</svg>
