<svg width="20" height="20" viewBox="0 0 20 20" fill="none" xmlns="http://www.w3.org/2000/svg">
<path d="M9.67686 2.0612C9.86692 1.90929 10.1331 1.90929 10.3231 2.0612L16.9023 7.31959C17.0305 7.42206 17.1055 7.57962 17.1055 7.74652V16.0097C17.1055 16.5516 16.896 17.0713 16.5231 17.4545C16.1502 17.8377 15.6444 18.053 15.1171 18.053H12.4617V11.922C12.4617 11.3988 12.0375 10.9746 11.5143 10.9746H8.4858C7.96257 10.9746 7.53841 11.3988 7.53841 11.922V18.053H4.88289C4.35554 18.053 3.8498 17.8377 3.47691 17.4545C3.10402 17.0713 2.89453 16.5516 2.89453 16.0097V7.74652C2.89453 7.57962 2.96952 7.42206 3.09773 7.31959L9.67686 2.0612Z" fill="currentColor"/>
</svg>
