<svg width="17" height="17" viewBox="0 0 17 17" fill="none" xmlns="http://www.w3.org/2000/svg">
<path d="M0.90568 13.577C0.943075 13.2404 0.961773 13.0721 1.01269 12.9149C1.05786 12.7753 1.12169 12.6425 1.20244 12.5201C1.29345 12.382 1.41317 12.2623 1.65261 12.0229L12.4016 1.27389C13.3007 0.374848 14.7583 0.374849 15.6573 1.27389C16.5564 2.17294 16.5564 3.63057 15.6573 4.52962L4.90834 15.2786C4.66889 15.5181 4.54917 15.6378 4.41115 15.7288C4.28871 15.8095 4.15591 15.8734 4.01637 15.9185C3.85908 15.9694 3.6908 15.9881 3.35425 16.0255L0.599609 16.3316L0.90568 13.577Z" stroke="#646464" stroke-width="1.2" stroke-linecap="round" stroke-linejoin="round"/>
</svg>
