<svg width="24" height="24" viewBox="0 0 24 24" color="currentColor" fill="none" xmlns="http://www.w3.org/2000/svg">
<path d="M18.8673 15.4695C19.0596 15.8221 18.8161 16.2797 18.4145 16.2797H5.58424C5.18264 16.2797 4.93914 15.8221 5.13145 15.4695C5.94565 13.9768 6.71936 11.6058 6.71936 7.99973C6.71936 6.59938 7.27565 5.25639 8.26584 4.2662C9.25603 3.27601 10.599 2.71973 11.9994 2.71973C13.3997 2.71973 14.7427 3.27601 15.7329 4.2662C16.7231 5.25639 17.2794 6.59938 17.2794 7.99973C17.2794 11.6058 18.0531 13.9768 18.8673 15.4695Z" fill="currentColor"/>
<path fill-rule="evenodd" clip-rule="evenodd" d="M18.4155 17.2797H5.58523C4.33791 17.2797 3.74108 15.932 4.25454 14.9906L5.13243 15.4695C4.94013 15.8221 5.18363 16.2797 5.58523 16.2797H18.4155C18.8171 16.2797 19.0606 15.8221 18.8683 15.4695C18.0541 13.9768 17.2803 11.6058 17.2803 7.99973C17.2803 6.59938 16.7241 5.25639 15.7339 4.2662C14.7437 3.27601 13.4007 2.71973 12.0003 2.71973C10.6 2.71973 9.25701 3.27601 8.26682 4.2662C7.27663 5.25639 6.72035 6.59938 6.72035 7.99973C6.72035 11.6058 5.94664 13.9768 5.13243 15.4695L4.25454 14.9906C4.97956 13.6614 5.72035 11.4585 5.72035 7.99973C5.72035 6.33417 6.38199 4.73682 7.55972 3.5591C8.73744 2.38137 10.3348 1.71973 12.0003 1.71973C13.6659 1.71973 15.2633 2.38137 16.441 3.5591C17.6187 4.73682 18.2803 6.33417 18.2803 7.99973C18.2803 11.4585 19.0211 13.6614 19.7462 14.9906C20.2596 15.932 19.6628 17.2797 18.4155 17.2797Z"fill="currentColor"/>
<path d="M9.90962 19.3771C10.2536 19.1776 10.6942 19.2947 10.8937 19.6386C11.0062 19.8326 11.1677 19.9936 11.362 20.1055C11.5564 20.2175 11.7767 20.2764 12.0009 20.2764C12.2251 20.2764 12.4455 20.2175 12.6398 20.1055C12.8341 19.9936 12.9956 19.8326 13.1081 19.6386C13.3076 19.2947 13.7482 19.1776 14.0922 19.3771C14.4361 19.5766 14.5532 20.0172 14.3537 20.3612C14.1146 20.7734 13.7714 21.1155 13.3585 21.3533C12.9456 21.5912 12.4774 21.7164 12.0009 21.7164C11.5244 21.7164 11.0562 21.5912 10.6433 21.3533C10.2304 21.1155 9.8872 20.7734 9.6481 20.3612C9.44857 20.0172 9.56566 19.5766 9.90962 19.3771Z"fill="currentColor"/>
</svg>
