<svg width="26" height="20" viewBox="0 0 26 20" fill="none" xmlns="http://www.w3.org/2000/svg">
<path d="M12.9409 12.9622C16.9439 12.9622 20.362 13.5969 20.362 16.1364C20.362 18.6749 16.9658 19.3327 12.9409 19.3327C8.93781 19.3327 5.51976 18.6981 5.51976 16.1595C5.51976 13.62 8.91587 12.9622 12.9409 12.9622ZM19.3412 11.433C20.8716 11.4047 22.5169 11.6148 23.1249 11.764C24.4129 12.0172 25.2601 12.5342 25.6111 13.2854C25.9078 13.9022 25.9078 14.6177 25.6111 15.2334C25.0742 16.3987 23.3432 16.7727 22.6705 16.8694C22.5316 16.8904 22.4198 16.7696 22.4344 16.6298C22.7781 13.401 20.0443 11.8701 19.3371 11.5181C19.3068 11.5024 19.3005 11.4782 19.3036 11.4635C19.3057 11.453 19.3183 11.4362 19.3412 11.433ZM6.372 11.4309L6.66019 11.4335C6.68317 11.4366 6.69466 11.4534 6.69675 11.4629C6.69989 11.4786 6.69362 11.5018 6.66437 11.5186C5.95611 11.8706 3.22229 13.4014 3.56598 16.6292C3.5806 16.77 3.46987 16.8898 3.33093 16.8698C2.65819 16.7732 0.927226 16.3991 0.390283 15.2339C0.0925618 14.6171 0.0925618 13.9026 0.390283 13.2859C0.741281 12.5346 1.58744 12.0177 2.87547 11.7634C3.4845 11.6152 5.12875 11.4051 6.66019 11.4335L6.372 11.4309ZM12.9409 0.666016C15.6663 0.666016 17.8517 2.86199 17.8517 5.60434C17.8517 8.34564 15.6663 10.5437 12.9409 10.5437C10.2154 10.5437 8.03002 8.34564 8.03002 5.60434C8.03002 2.86199 10.2154 0.666016 12.9409 0.666016ZM19.6076 1.48956C22.2401 1.48956 24.3074 3.98079 23.6034 6.75571C23.128 8.62387 21.4075 9.86475 19.4906 9.81432C19.2984 9.80906 19.1093 9.7912 18.9265 9.75968C18.7939 9.73657 18.727 9.58631 18.8022 9.47494C19.5335 8.39271 19.9503 7.09088 19.9503 5.69344C19.9503 4.23506 19.4948 2.87544 18.704 1.76064C18.6789 1.72597 18.6601 1.67238 18.6852 1.63246C18.7061 1.59988 18.7448 1.58307 18.7813 1.57467C19.0477 1.52003 19.3214 1.48956 19.6076 1.48956ZM6.39224 1.48946C6.67847 1.48946 6.95217 1.51993 7.21959 1.57456C7.25511 1.58297 7.29481 1.60083 7.3157 1.63235C7.33973 1.67228 7.32197 1.72586 7.2969 1.76054C6.50611 2.87534 6.05065 4.23495 6.05065 5.69334C6.05065 7.09078 6.46746 8.39261 7.1987 9.47483C7.27391 9.58621 7.20706 9.73646 7.07439 9.75958C6.89053 9.79215 6.7025 9.80896 6.51029 9.81421C4.59338 9.86465 2.87286 8.62376 2.39755 6.7556C1.69242 3.98068 3.75976 1.48946 6.39224 1.48946Z" fill="white"/>
</svg>
