<svg width="16" height="16" viewBox="0 0 16 16" fill="none" xmlns="http://www.w3.org/2000/svg">
<path d="M11.675 7.02004C11.507 6.1689 11.0488 5.40247 10.3785 4.85166C9.70826 4.30086 8.86755 3.99985 8 4.00004C6.555 4.00004 5.3 4.82004 4.675 6.02004C3.94012 6.09946 3.2605 6.44765 2.76674 6.9977C2.27299 7.54776 1.99991 8.26088 2 9.00004C2 10.655 3.345 12 5 12H11.5C12.88 12 14 10.88 14 9.50004C14 8.18004 12.975 7.11004 11.675 7.02004Z" fill="#28ad99" stroke="white" stroke-width="1"/>
<path d="M7.99065 7C7.89119 7 7.79581 7.03417 7.72548 7.095C7.65515 7.15583 7.61565 7.23833 7.61565 7.32435V9.89318L6.63065 9.04123C6.55956 8.98393 6.46554 8.95274 6.36838 8.95423C6.27123 8.95571 6.17854 8.98975 6.10984 9.04918C6.04113 9.1086 6.00177 9.18877 6.00006 9.2728C5.99834 9.35683 6.03441 9.43815 6.10065 9.49964L7.72565 10.9051C7.79596 10.9659 7.89127 11 7.99065 11C8.09002 11 8.18533 10.9659 8.25565 10.9051L9.88065 9.49964C9.91749 9.46995 9.94704 9.43414 9.96754 9.39435C9.98803 9.35456 9.99905 9.31161 9.99994 9.26806C10.0008 9.22451 9.99157 9.18126 9.97271 9.14087C9.95385 9.10048 9.92577 9.06379 9.89016 9.03299C9.85456 9.0022 9.81214 8.97791 9.76544 8.9616C9.71875 8.94529 9.66874 8.93728 9.61838 8.93805C9.56803 8.93881 9.51838 8.94835 9.47238 8.96607C9.42638 8.9838 9.38498 9.00936 9.35065 9.04123L8.36565 9.89318V7.32435C8.36565 7.14531 8.19765 7 7.99065 7Z" fill="white"/>
</svg>
