<svg width="9" height="9" viewBox="0 0 9 9" fill="none" xmlns="http://www.w3.org/2000/svg">
  <path d="M8.13844 1.29468C8.37678 1.05634 8.37678 0.669905 8.13844 0.431561C7.90009 0.193216 7.51366 0.193216 7.27532 0.431561L4.285 3.42188L1.29468 0.431561C1.05634 0.193217 0.669905 0.193216 0.431561 0.431561C0.193216 0.669905 0.193216 1.05634 0.431561 1.29468L3.42188 4.285L0.431561 7.27532C0.193217 7.51366 0.193216 7.90009 0.431561 8.13844C0.669905 8.37678 1.05634 8.37678 1.29468 8.13844L4.285 5.14812L7.27532 8.13844C7.51366 8.37678 7.90009 8.37678 8.13844 8.13844C8.37678 7.90009 8.37678 7.51366 8.13844 7.27532L5.14812 4.285L8.13844 1.29468Z" fill="white"/>
</svg>
