<svg width="17" height="16" viewBox="0 0 17 16" fill="none" xmlns="http://www.w3.org/2000/svg">
<path d="M8.99024 7.79432L10.7563 9.11888C10.9732 9.28127 11.0173 9.58886 10.8544 9.80523C10.7582 9.93474 10.6111 10.002 10.4614 10.002C10.3589 10.002 10.2559 9.97007 10.1676 9.90384L8.2053 8.43211C8.08167 8.33988 8.00906 8.19417 8.00906 8.03964V5.09618C8.00906 4.82488 8.22835 4.60559 8.49965 4.60559C8.77094 4.60559 8.99024 4.82488 8.99024 5.09618V7.79432Z" fill="#646464"/>
<path fill-rule="evenodd" clip-rule="evenodd" d="M2.16666 8.00033C2.16666 4.50791 5.00758 1.66699 8.49999 1.66699C11.9924 1.66699 14.8333 4.50791 14.8333 8.00033C14.8333 11.4927 11.9924 14.3337 8.49999 14.3337C5.00758 14.3337 2.16666 11.4927 2.16666 8.00033ZM3.1478 8.00033C3.1478 10.9511 5.54918 13.3525 8.49999 13.3525C11.4508 13.3525 13.8522 10.9511 13.8522 8.00033C13.8522 5.04951 11.4513 2.64814 8.49999 2.64814C5.54918 2.64814 3.1478 5.04951 3.1478 8.00033Z" fill="#646464"/>
</svg>
