<?xml version="1.0" encoding="UTF-8"?>
<svg width="20" height="20" viewBox="0 0 20 20" fill="none" xmlns="http://www.w3.org/2000/svg">
<path fill-rule="evenodd" clip-rule="evenodd" d="M9.9998 1.17651C10.5413 1.17651 10.9802 1.59235 10.9802 2.10531V11.0085L14.2085 7.9501C14.5914 7.58738 15.2121 7.58738 15.595 7.9501C15.9779 8.31282 15.9779 8.90089 15.595 9.26361L10.693 13.9076C10.3102 14.2703 9.68943 14.2703 9.30656 13.9076L4.4046 9.26361C4.02173 8.90089 4.02173 8.31282 4.4046 7.9501C4.78746 7.58738 5.40821 7.58738 5.79108 7.9501L9.01941 11.0085V2.10531C9.01941 1.59235 9.45834 1.17651 9.9998 1.17651ZM2.15666 13.2508H3.13705V16.0372C3.13705 16.2835 3.13705 16.966 3.13705 16.966C3.13705 16.966 3.85743 16.966 4.11745 16.966H15.8822C16.1422 16.966 16.8625 16.966 16.8625 16.966C16.8625 16.966 16.8625 16.2835 16.8625 16.0372V13.2508H17.8429H18.8233V16.0372C18.8233 16.7762 18.778 18.8236 18.778 18.8236C18.778 18.8236 16.6622 18.8236 15.8822 18.8236H4.11745C3.3374 18.8236 1.22161 18.8236 1.22161 18.8236C1.22161 18.8236 1.17627 16.7762 1.17627 16.0372V13.2508H2.15666Z" fill="#646464"/>
</svg>
