<svg width="24" height="24" viewBox="0 0 24 24" color="currentColor" fill="none" xmlns="http://www.w3.org/2000/svg">
<path fill-rule="evenodd" clip-rule="evenodd" d="M22.5712 11.1822C22.6192 11.2782 22.6432 11.3742 22.6432 11.4822H22.6312V18.3236C22.6312 19.0436 22.3552 19.7396 21.8392 20.2436C21.3352 20.7476 20.6392 21.0356 19.9192 21.0356H3.91122C3.19122 21.0356 2.50722 20.7596 1.99122 20.2436C1.48722 19.7396 1.19922 19.0436 1.19922 18.3236V11.4822C1.19922 11.3742 1.22322 11.2662 1.27122 11.1822V11.1582L4.72722 5.11161C4.95522 4.65561 5.29122 4.27161 5.72322 4.00761C6.15522 3.74361 6.64722 3.59961 7.16322 3.59961H16.6792C17.1832 3.59961 17.6872 3.74361 18.1312 4.00761C18.5512 4.28361 18.8992 4.65561 19.1272 5.11161L22.5712 11.1582V11.1822ZM6.49122 5.23161C6.28722 5.35161 6.11922 5.53161 6.01122 5.74761L3.08322 10.7622H7.91922C8.15922 10.7622 8.38722 10.8822 8.51922 11.0742L10.3072 13.7502H13.5232L15.3112 11.0742C15.4432 10.8702 15.6712 10.7502 15.9112 10.7502H20.7472L17.8192 5.74761C17.7112 5.53161 17.5552 5.35161 17.3512 5.23161C17.1472 5.11161 16.9192 5.03961 16.6792 5.03961H7.16322C6.92322 5.03961 6.68322 5.11161 6.49122 5.23161Z" fill="currentColor"/>
</svg>
