<svg width="32" height="32" viewBox="0 0 32 32" color="currentColor" fill="none" xmlns="http://www.w3.org/2000/svg">
<path d="M16.7971 9.79747C16.7971 9.35704 16.4401 9 15.9997 9C15.5592 9 15.2022 9.35704 15.2022 9.79747V15.2027H9.79747C9.35704 15.2027 9 15.5597 9 16.0002C9 16.4406 9.35704 16.7976 9.79747 16.7976H15.2022V22.2025C15.2022 22.643 15.5592 23 15.9997 23C16.4401 23 16.7971 22.643 16.7971 22.2025V16.7976H22.2025C22.643 16.7976 23 16.4406 23 16.0002C23 15.5597 22.643 15.2027 22.2025 15.2027H16.7971V9.79747Z" fill="currentColor" />
<rect x="0.4" y="0.4" width="31.2" height="31.2" rx="15.6" stroke="currentColor" stroke-width="0.8"/>
</svg>
