<svg width="21" height="20" viewBox="0 0 21 20" fill="none" xmlns="http://www.w3.org/2000/svg">
<g id="Icon">
<g id="Vector">
<path fill-rule="evenodd" clip-rule="evenodd" d="M10.5 2.26665C6.22898 2.26665 2.76665 5.72898 2.76665 9.99998C2.76665 14.271 6.22898 17.7333 10.5 17.7333C14.771 17.7333 18.2333 14.271 18.2333 9.99998C18.2333 5.72898 14.771 2.26665 10.5 2.26665ZM1.56665 9.99998C1.56665 5.06624 5.56624 1.06665 10.5 1.06665C15.4337 1.06665 19.4333 5.06624 19.4333 9.99998C19.4333 14.9337 15.4337 18.9333 10.5 18.9333C5.56624 18.9333 1.56665 14.9337 1.56665 9.99998Z" fill="#646464"/>
<path fill-rule="evenodd" clip-rule="evenodd" d="M10.0757 6.24239C10.31 6.00807 10.6899 6.00807 10.9242 6.24239L14.2576 9.57572C14.4919 9.81003 14.4919 10.1899 14.2576 10.4242L10.9242 13.7576C10.6899 13.9919 10.31 13.9919 10.0757 13.7576C9.8414 13.5233 9.8414 13.1434 10.0757 12.9091L12.9848 9.99998L10.0757 7.09091C9.8414 6.8566 9.8414 6.4767 10.0757 6.24239Z" fill="#646464"/>
<path fill-rule="evenodd" clip-rule="evenodd" d="M6.56665 9.99998C6.56665 9.66861 6.83528 9.39998 7.16665 9.39998H13.8333C14.1647 9.39998 14.4333 9.66861 14.4333 9.99998C14.4333 10.3314 14.1647 10.6 13.8333 10.6H7.16665C6.83528 10.6 6.56665 10.3314 6.56665 9.99998Z" fill="#646464"/>
</g>
</g>
</svg>
