<svg xmlns="http://www.w3.org/2000/svg" width="24" height="24" viewBox="0 0 24 24">
    <g fill="none" fill-rule="evenodd">
        <g fill-rule="nonzero">
            <g>
                <path d="M0 0H24V24H0z" transform="translate(-180.000000, -469.000000) translate(180.000000, 469.000000)"/>
                <path fill="#28ad99" d="M19.084 4.333c1.157 0 2.098.874 2.098 1.948v9.091c0 1.074-.941 1.948-2.098 1.948h-2.098v2.642c0 .736-.597 1.333-1.333 1.333-.273 0-.539-.083-.762-.239L9.526 17.32H5.098C3.94 17.32 3 16.446 3 15.372v-9.09c0-1.075.941-1.949 2.098-1.949h13.986zm-7.357 7.273H8.091c-.402 0-.727.326-.727.727 0 .402.325.728.727.728h3.636c.402 0 .728-.326.728-.728 0-.401-.326-.727-.728-.727zm3.637-2.909H8.09c-.402 0-.727.326-.727.727 0 .402.325.728.727.728h7.273c.401 0 .727-.326.727-.728 0-.401-.326-.727-.727-.727z" transform="translate(-180.000000, -469.000000) translate(180.000000, 469.000000)"/>
            </g>
        </g>
    </g>
</svg>
