<svg width="20" height="20" viewBox="0 0 20 20" fill="none" xmlns="http://www.w3.org/2000/svg">
<path fill-rule="evenodd" clip-rule="evenodd" d="M4.16657 3.10002C3.88367 3.10002 3.61236 3.21241 3.41232 3.41244C3.21228 3.61248 3.0999 3.88379 3.0999 4.16669V15.8334C3.0999 16.1163 3.21228 16.3876 3.41232 16.5876C3.61236 16.7876 3.88367 16.9 4.16657 16.9H7.4999C7.83127 16.9 8.0999 17.1687 8.0999 17.5C8.0999 17.8314 7.83127 18.1 7.4999 18.1H4.16657C3.56541 18.1 2.98888 17.8612 2.56379 17.4361C2.13871 17.0111 1.8999 16.4345 1.8999 15.8334V4.16669C1.8999 3.56553 2.13871 2.989 2.56379 2.56392C2.98888 2.13883 3.56541 1.90002 4.16657 1.90002H7.4999C7.83127 1.90002 8.0999 2.16865 8.0999 2.50002C8.0999 2.8314 7.83127 3.10002 7.4999 3.10002H4.16657Z" fill="#646464"/>
<path fill-rule="evenodd" clip-rule="evenodd" d="M12.909 5.40909C13.1433 5.17478 13.5232 5.17478 13.7575 5.40909L17.9242 9.57576C18.1585 9.81007 18.1585 10.19 17.9242 10.4243L13.7575 14.591C13.5232 14.8253 13.1433 14.8253 12.909 14.591C12.6747 14.3566 12.6747 13.9767 12.909 13.7424L16.6514 10L12.909 6.25762C12.6747 6.02331 12.6747 5.64341 12.909 5.40909Z" fill="#646464"/>
<path fill-rule="evenodd" clip-rule="evenodd" d="M6.8999 10C6.8999 9.66865 7.16853 9.40002 7.4999 9.40002H17.4999C17.8313 9.40002 18.0999 9.66865 18.0999 10C18.0999 10.3314 17.8313 10.6 17.4999 10.6H7.4999C7.16853 10.6 6.8999 10.3314 6.8999 10Z" fill="#646464"/>
</svg>
