<svg width="630" height="517" viewBox="0 0 630 517" fill="none" xmlns="http://www.w3.org/2000/svg">
<path fill-rule="evenodd" clip-rule="evenodd" d="M329.815 393.855L372.361 418.867C382.595 424.884 395.909 422.934 403.989 414.223L423.479 393.428C434.443 394.862 445.666 394.92 457.009 393.602L476.029 414.714C484.187 423.676 497.548 425.833 507.701 419.892L550.733 395.532C555.73 392.622 559.607 388.123 561.747 382.752C563.888 377.381 564.167 371.448 562.541 365.899C562.519 365.851 562.509 365.81 562.498 365.77L554.23 338.671C557.632 334.112 560.751 329.422 563.526 324.702C566.3 319.983 568.882 314.976 571.211 309.787L599.051 303.795C610.659 301.152 618.945 290.98 619.208 278.913L619.557 229.772C619.807 217.87 611.442 207.273 599.6 204.459L571.951 198.116C567.587 187.564 562.078 177.786 555.49 168.905L564.183 141.793C567.845 130.469 563.073 117.887 552.841 111.871L510.295 86.8592C500.062 80.8435 486.747 82.7931 478.668 91.469L459.18 112.266C448.214 110.831 436.991 110.773 425.649 112.091L406.63 90.9798C398.488 82.0796 385.116 79.8794 374.963 85.823L331.93 110.183C321.633 116.194 316.786 128.388 320.165 139.946L328.414 167.049C325.013 171.608 321.901 176.284 319.118 181.018C316.335 185.751 313.763 190.744 311.445 195.94L283.605 201.931C271.997 204.574 263.71 214.746 263.451 226.815L263.098 275.954C262.849 287.857 271.225 298.494 283.056 301.267L310.705 307.611C315.069 318.162 320.578 327.94 327.166 336.822L318.473 363.934C314.811 375.258 319.583 387.839 329.815 393.855ZM403.729 316.822C439.052 337.589 484.522 325.788 505.288 290.464C526.054 255.141 514.253 209.672 478.93 188.906C443.607 168.14 398.137 179.941 377.371 215.264C356.605 250.587 368.406 296.056 403.729 316.822Z" fill="url(#paint0_linear_18977_147)" fill-opacity="0.75"/>
<path fill-rule="evenodd" clip-rule="evenodd" d="M215.713 464.12L244.664 446.034C251.628 441.684 254.693 432.896 251.937 425.153L245.421 406.548C249.808 400.283 253.435 393.42 256.256 386.043L275.288 381.135C283.394 379 288.992 371.497 288.597 363.37L287.428 329.187C287.242 325.193 285.724 321.375 283.115 318.344C280.506 315.313 276.957 313.244 273.035 312.465C272.999 312.463 272.97 312.457 272.942 312.45L253.679 308.849C251.972 305.305 250.094 301.891 248.087 298.68C246.081 295.468 243.837 292.283 241.4 289.195L246.634 270.206C248.728 262.242 245.141 253.906 237.825 249.884L207.804 233.946C200.585 229.985 191.41 231.723 185.895 238.085L173.159 253.01C165.292 252.31 157.534 252.559 149.979 253.758L136.136 239.751C130.364 233.883 121.121 232.783 114.158 237.133L85.2072 255.22C78.2441 259.57 75.1793 268.358 77.9144 276.089L84.432 294.693C80.0431 300.958 76.4163 307.822 73.5956 315.199L54.5647 320.106C46.5017 322.252 40.8741 329.747 41.2699 337.876L42.4388 372.058C42.8296 380.296 48.7564 387.169 56.9252 388.795L76.185 392.409C77.8923 395.954 79.7636 399.358 81.776 402.579C83.7884 405.8 86.0266 408.975 88.4715 412.059L83.2375 431.048C81.1443 439.012 84.7299 447.348 92.0481 451.369L122.068 467.308C129.287 471.269 138.49 469.537 143.976 463.169L156.713 448.244C164.579 448.944 172.338 448.694 179.892 447.496L193.736 461.502C199.508 467.371 208.75 468.47 215.713 464.12ZM192.126 394.148C216.162 379.131 223.474 347.473 208.458 323.437C193.442 299.401 161.784 292.088 137.748 307.105C113.711 322.121 106.399 353.779 121.415 377.815C136.431 401.852 168.09 409.164 192.126 394.148Z" fill="url(#paint1_linear_18977_147)" fill-opacity="0.5"/>
<path fill-rule="evenodd" clip-rule="evenodd" d="M245.096 207.999L266.586 194.574C271.754 191.345 274.029 184.822 271.983 179.075L267.147 165.265C270.404 160.615 273.095 155.52 275.189 150.045L289.316 146.401C295.333 144.817 299.488 139.247 299.195 133.215L298.328 107.842C298.19 104.877 297.063 102.044 295.126 99.7939C293.19 97.5441 290.556 96.0078 287.644 95.4301C287.617 95.4286 287.596 95.4237 287.575 95.4188L273.277 92.7461C272.009 90.115 270.616 87.5812 269.126 85.1974C267.637 82.8137 265.971 80.4498 264.163 78.157L268.048 64.0622C269.602 58.1507 266.94 51.9632 261.509 48.9778L239.225 37.1477C233.867 34.2072 227.057 35.4979 222.963 40.2198L213.509 51.298C207.67 50.7784 201.911 50.9637 196.304 51.8532L186.028 41.4569C181.743 37.1006 174.883 36.2845 169.715 39.5134L148.225 52.9385C143.057 56.1674 140.782 62.6909 142.812 68.4289L147.65 82.2386C144.392 86.8889 141.7 91.9838 139.606 97.4594L125.48 101.102C119.495 102.694 115.318 108.258 115.612 114.291L116.48 139.664C116.77 145.779 121.169 150.881 127.232 152.088L141.528 154.77C142.796 157.401 144.185 159.928 145.678 162.319C147.172 164.71 148.833 167.067 150.648 169.356L146.763 183.45C145.209 189.362 147.871 195.55 153.303 198.534L175.586 210.365C180.944 213.305 187.775 212.02 191.847 207.293L201.301 196.215C207.141 196.734 212.9 196.549 218.507 195.659L228.783 206.056C233.067 210.412 239.928 211.228 245.096 207.999ZM227.588 156.061C245.429 144.915 250.857 121.416 239.711 103.574C228.565 85.7327 205.066 80.3051 187.224 91.4511C169.383 102.597 163.955 126.096 175.101 143.938C186.247 161.779 209.746 167.207 227.588 156.061Z" fill="url(#paint2_linear_18977_147)" fill-opacity="0.75"/>
<path d="M357.806 247.83H298.093V252.722H357.806V247.83Z" fill="#37474F"/>
<path d="M357.806 254.202H298.093V259.093H357.806V254.202Z" fill="#37474F"/>
<path d="M357.806 260.574H298.093V265.466H357.806V260.574Z" fill="#37474F"/>
<path d="M357.806 266.945H298.093V271.837H357.806V266.945Z" fill="#37474F"/>
<path d="M357.806 273.317H298.093V278.208H357.806V273.317Z" fill="#37474F"/>
<path d="M383.655 400.422H270.129V405.313H383.655V400.422Z" fill="#37474F"/>
<path d="M383.655 406.793H270.129V411.684H383.655V406.793Z" fill="#37474F"/>
<path d="M383.655 413.164H270.129V418.055H383.655V413.164Z" fill="#37474F"/>
<path d="M383.655 419.535H270.129V424.427H383.655V419.535Z" fill="#37474F"/>
<path d="M383.655 425.908H270.129V430.799H383.655V425.908Z" fill="#37474F"/>
<path d="M220.317 207.396C220.373 206.736 195.47 198.394 195.47 198.394L196.941 112.831L229.964 105.745L220.317 207.396Z" fill="#4AD3CA"/>
<path opacity="0.2" d="M220.317 207.396C220.373 206.736 195.47 198.394 195.47 198.394L196.941 112.831L229.964 105.745L220.317 207.396Z" fill="black"/>
<path d="M448.416 240.982C448.591 240.341 474.846 241.079 474.846 241.079L502.909 160.236L474.343 142.219L448.416 240.982Z" fill="#4AD3CA"/>
<path opacity="0.2" d="M448.416 240.982C448.591 240.341 474.846 241.079 474.846 241.079L502.909 160.236L474.343 142.219L448.416 240.982Z" fill="black"/>
<path d="M215.523 238.904C215.523 238.904 224.756 100.522 232.854 55C232.854 55 400.02 67.643 490.263 102.135C490.263 102.135 443.739 263.771 441.331 271.791C441.331 271.791 323.615 248.602 215.523 238.904Z" fill="#4AD3CA"/>
<path opacity="0.1" d="M364.735 73.4793C362.017 90.1409 359.267 106.798 356.42 123.437L347.804 173.342L347.34 172.637L403.351 185.942L431.327 192.722L459.272 199.636L431.179 193.349L403.119 186.929L347.057 173.834L346.491 173.701L346.593 173.128L355.513 123.278C358.512 106.665 361.607 90.0686 364.735 73.4793Z" fill="black"/>
<path opacity="0.1" d="M358.589 82.9762C358.619 84.503 357.402 86.0718 355.653 86.2248C354.806 86.3055 353.884 86.0348 353.195 85.4345C352.506 84.8343 352.094 83.9094 352.089 82.9762C352.094 82.043 352.502 81.1165 353.193 80.5162C353.881 79.9109 354.806 79.6453 355.653 79.7243C357.404 79.8773 358.619 81.4495 358.589 82.9762ZM358.589 82.9762C358.582 82.2061 358.241 81.4495 357.668 80.9635C357.093 80.4776 356.339 80.2792 355.655 80.3582C354.244 80.5213 353.33 81.7874 353.35 82.9762C353.328 84.165 354.241 85.4379 355.655 85.5976C356.339 85.675 357.094 85.4766 357.669 84.9906C358.241 84.503 358.582 83.7463 358.589 82.9762Z" fill="black"/>
<path opacity="0.1" d="M355.653 103.566C355.684 105.093 354.466 106.663 352.718 106.814C351.87 106.895 350.949 106.624 350.259 106.024C349.57 105.424 349.158 104.499 349.153 103.566C349.158 102.633 349.566 101.706 350.258 101.106C350.945 100.501 351.87 100.235 352.718 100.314C354.47 100.469 355.685 102.041 355.653 103.566ZM355.653 103.566C355.647 102.796 355.305 102.039 354.732 101.553C354.157 101.067 353.404 100.869 352.719 100.948C351.308 101.111 350.394 102.377 350.414 103.566C350.392 104.755 351.305 106.027 352.719 106.187C353.404 106.265 354.158 106.066 354.734 105.579C355.307 105.094 355.647 104.336 355.653 103.566Z" fill="black"/>
<path opacity="0.1" d="M352.038 125.322C352.069 126.849 350.851 128.42 349.102 128.571C348.255 128.652 347.334 128.383 346.644 127.781C345.955 127.18 345.543 126.255 345.538 125.322C345.543 124.389 345.951 123.463 346.643 122.862C347.33 122.257 348.255 121.991 349.102 122.07C350.855 122.225 352.07 123.795 352.038 125.322ZM352.038 125.322C352.032 124.552 351.69 123.795 351.117 123.31C350.542 122.824 349.789 122.625 349.104 122.704C347.693 122.867 346.779 124.133 346.799 125.322C346.777 126.511 347.69 127.784 349.104 127.944C349.789 128.023 350.543 127.823 351.119 127.337C351.69 126.849 352.032 126.092 352.038 125.322Z" fill="black"/>
<path opacity="0.1" d="M348.423 147.079C348.455 148.606 347.236 150.174 345.487 150.327C344.639 150.406 343.718 150.137 343.029 149.537C342.339 148.937 341.927 148.012 341.922 147.079C341.926 146.146 342.338 145.219 343.027 144.619C343.715 144.013 344.639 143.748 345.487 143.827C347.239 143.98 348.455 145.552 348.423 147.079ZM348.423 147.079C348.416 146.309 348.075 145.552 347.5 145.066C346.925 144.58 346.171 144.382 345.487 144.461C344.076 144.624 343.161 145.89 343.182 147.079C343.16 148.268 344.073 149.54 345.487 149.7C346.171 149.777 346.926 149.579 347.501 149.093C348.075 148.605 348.416 147.849 348.423 147.079Z" fill="black"/>
<path opacity="0.1" d="M360.742 181.776C360.774 183.303 359.555 184.871 357.806 185.024C356.958 185.103 356.037 184.834 355.347 184.234C354.658 183.634 354.246 182.709 354.241 181.776C354.244 180.843 354.655 179.916 355.346 179.316C356.033 178.71 356.958 178.445 357.806 178.524C359.556 178.677 360.772 180.249 360.742 181.776ZM360.742 181.776C360.735 181.006 360.394 180.249 359.818 179.763C359.243 179.277 358.49 179.079 357.806 179.158C356.395 179.321 355.48 180.587 355.5 181.776C355.479 182.965 356.392 184.237 357.806 184.397C358.49 184.476 359.245 184.276 359.82 183.789C360.394 183.303 360.733 182.546 360.742 181.776Z" fill="black"/>
<path opacity="0.1" d="M381.277 186.785C381.309 188.312 380.09 189.882 378.341 190.033C377.494 190.112 376.572 189.843 375.883 189.243C375.194 188.643 374.782 187.718 374.777 186.785C374.782 185.852 375.192 184.925 375.881 184.325C376.569 183.719 377.494 183.454 378.341 183.533C380.093 183.688 381.309 185.258 381.277 186.785ZM381.277 186.785C381.27 186.015 380.929 185.258 380.356 184.772C379.781 184.286 379.027 184.088 378.343 184.167C376.932 184.33 376.018 185.596 376.038 186.785C376.016 187.974 376.929 189.246 378.343 189.406C379.027 189.484 379.782 189.285 380.357 188.798C380.929 188.312 381.27 187.555 381.277 186.785Z" fill="black"/>
<path opacity="0.1" d="M401.815 191.796C401.845 193.322 400.628 194.891 398.879 195.044C398.031 195.123 397.11 194.854 396.42 194.254C395.731 193.654 395.319 192.729 395.314 191.796C395.319 190.862 395.728 189.936 396.419 189.336C397.106 188.73 398.031 188.465 398.879 188.544C400.629 188.697 401.845 190.269 401.815 191.796ZM401.815 191.796C401.808 191.026 401.467 190.269 400.893 189.783C400.318 189.297 399.565 189.099 398.88 189.178C397.47 189.341 396.555 190.607 396.575 191.796C396.553 192.984 397.466 194.257 398.88 194.417C399.565 194.494 400.32 194.296 400.895 193.808C401.467 193.322 401.806 192.564 401.815 191.796Z" fill="black"/>
<path opacity="0.1" d="M422.35 196.805C422.382 198.331 421.163 199.9 419.414 200.053C418.567 200.132 417.645 199.865 416.956 199.263C416.267 198.663 415.855 197.738 415.85 196.805C415.855 195.872 416.263 194.945 416.954 194.345C417.642 193.739 418.567 193.474 419.414 193.553C421.166 193.706 422.38 195.278 422.35 196.805ZM422.35 196.805C422.343 196.035 422.002 195.278 421.429 194.792C420.854 194.306 420.1 194.108 419.416 194.187C418.005 194.35 417.091 195.616 417.111 196.805C417.089 197.994 418.002 199.266 419.416 199.426C420.1 199.504 420.855 199.305 421.43 198.819C422.002 198.331 422.343 197.575 422.35 196.805Z" fill="black"/>
<path opacity="0.1" d="M442.878 202.039C442.792 203.564 441.457 205.035 439.701 205.052C438.851 205.067 437.953 204.728 437.31 204.075C436.668 203.423 436.328 202.471 436.396 201.54C436.471 200.61 436.952 199.719 437.687 199.172C438.42 198.622 439.362 198.427 440.201 198.572C441.936 198.859 443.026 200.521 442.878 202.039ZM442.878 202.039C442.93 201.271 442.647 200.49 442.113 199.961C441.576 199.431 440.84 199.176 440.152 199.202C438.733 199.256 437.722 200.448 437.652 201.636C437.537 202.819 438.351 204.158 439.749 204.427C440.425 204.558 441.193 204.418 441.803 203.976C442.414 203.536 442.812 202.808 442.878 202.039Z" fill="black"/>
<path opacity="0.1" d="M344.808 168.835C344.838 170.362 343.621 171.932 341.872 172.084C341.024 172.164 340.103 171.895 339.414 171.293C338.724 170.693 338.312 169.768 338.307 168.835C338.312 167.902 338.723 166.976 339.412 166.375C340.1 165.77 341.024 165.503 341.872 165.583C343.624 165.736 344.84 167.308 344.808 168.835ZM344.808 168.835C344.801 168.065 344.46 167.308 343.885 166.822C343.31 166.337 342.556 166.138 341.872 166.217C340.461 166.38 339.546 167.646 339.567 168.835C339.545 170.024 340.458 171.297 341.872 171.457C342.556 171.534 343.311 171.336 343.885 170.848C344.461 170.362 344.801 169.605 344.808 168.835Z" fill="black"/>
<path opacity="0.2" d="M310.224 204.884C329.718 187.356 331.312 157.342 313.784 137.848C296.255 118.353 266.242 116.759 246.747 134.288C227.253 151.816 225.659 181.829 243.187 201.324C260.716 220.819 290.729 222.413 310.224 204.884Z" fill="black"/>
<path d="M314.075 183.064C321.518 163.401 311.611 141.427 291.948 133.984C272.285 126.541 250.311 136.448 242.868 156.111C235.425 175.774 245.332 197.747 264.995 205.19C284.658 212.634 306.632 202.727 314.075 183.064Z" fill="#263238"/>
<path d="M276.191 155.59L267.291 154.148L265.85 163.048L274.749 164.49L276.191 155.59Z" fill="#4AD3CA"/>
<path d="M268.732 145.249L259.832 143.808L258.39 152.708L267.29 154.149L268.732 145.249Z" fill="#4AD3CA"/>
<path d="M304.331 151.016L295.431 149.574L293.99 158.474L302.889 159.916L304.331 151.016Z" fill="#4AD3CA"/>
<path d="M262.997 180.647L254.098 179.205L252.656 188.105L261.556 189.546L262.997 180.647Z" fill="#4AD3CA"/>
<path d="M298.597 186.413L289.697 184.971L288.255 193.871L297.155 195.313L298.597 186.413Z" fill="#4AD3CA"/>
<path d="M273.34 173.189L264.44 171.748L262.998 180.648L271.898 182.089L273.34 173.189Z" fill="#4AD3CA"/>
<path d="M283.665 165.831L274.766 164.39L273.324 173.29L282.224 174.731L283.665 165.831Z" fill="#4AD3CA"/>
<path d="M293.991 158.473L285.091 157.032L283.649 165.931L292.549 167.373L293.991 158.473Z" fill="#4AD3CA"/>
<path d="M291.149 176.067L282.249 174.626L280.807 183.525L289.707 184.967L291.149 176.067Z" fill="#4AD3CA"/>
<path d="M442.597 219.541C459.213 199.262 456.244 169.353 435.966 152.737C415.687 136.121 385.778 139.09 369.162 159.369C352.546 179.647 355.515 209.556 375.793 226.172C396.072 242.789 425.981 239.82 442.597 219.541Z" fill="#4AD3CA"/>
<path opacity="0.2" d="M442.597 219.541C459.213 199.262 456.244 169.353 435.966 152.737C415.687 136.121 385.778 139.09 369.162 159.369C352.546 179.647 355.515 209.556 375.793 226.172C396.072 242.789 425.981 239.82 442.597 219.541Z" fill="black"/>
<path opacity="0.2" d="M452.067 200.459C451.849 201.393 451.6 202.296 451.319 203.199L358.791 183.464C359.01 181.813 359.306 180.162 359.694 178.495C365.754 152.996 391.346 137.232 416.862 143.29C442.363 149.35 458.127 174.942 452.067 200.459Z" fill="black"/>
<path d="M420.548 224.61C439.949 216.505 449.105 194.207 441 174.807C432.894 155.406 410.597 146.25 391.196 154.355C371.796 162.461 362.64 184.758 370.745 204.159C378.85 223.559 401.148 232.715 420.548 224.61Z" fill="#263238"/>
<path d="M415.463 168.676L406.691 166.592L396.316 210.252L405.087 212.336L415.463 168.676Z" fill="#4AD3CA"/>
<path d="M454.821 199.566L357.631 176.467C364.009 149.635 390.939 133.055 417.772 139.431C444.606 145.811 461.199 172.733 454.821 199.566Z" fill="#4AD3CA"/>
<path opacity="0.2" d="M454.821 199.566L357.631 176.467C364.009 149.635 390.939 133.055 417.772 139.431C444.606 145.811 461.199 172.733 454.821 199.566Z" fill="black"/>
<path opacity="0.1" d="M323.285 217.694C323.531 213.899 324.925 210.05 327.677 207.006C329.034 205.473 330.845 204.269 332.839 203.536C334.844 202.799 337.009 202.67 339.062 202.845C341.152 203.088 343.286 203.825 345.028 205.143C346.737 206.488 348.046 208.242 348.817 210.13C350.402 213.894 350.575 217.916 349.807 221.645C349.175 217.917 348.211 214.297 346.461 211.326C344.724 208.331 341.976 206.47 338.703 206.181C335.363 205.765 332.104 206.662 329.48 208.879C326.855 211.09 324.851 214.257 323.285 217.694Z" fill="black"/>
<path d="M228.526 120.871C228.92 115.8 229.49 110.752 229.97 105.693C230.51 100.642 231.065 95.5922 231.679 90.5529C232.262 85.5085 232.92 80.4742 233.565 75.4365C234.198 70.3988 234.927 65.3746 235.603 60.342L235.783 58.9985L237.145 59.0842C248.098 59.7736 259.028 60.6581 269.942 61.7813C275.399 62.3412 280.848 62.9752 286.291 63.6747C291.724 64.4549 297.165 65.1745 302.566 66.1632L269.749 64.132L236.965 62.0117L238.507 60.754C237.762 65.7765 237.07 70.8057 236.281 75.8216C235.504 80.8391 234.739 85.8582 233.902 90.8673C233.095 95.8798 232.229 100.885 231.346 105.888C230.406 110.882 229.553 115.889 228.526 120.871Z" fill="white"/>
<path d="M236.421 159.236C237.522 153.139 240.293 147.329 244.016 142.27C244.942 140.997 245.997 139.822 247.011 138.611C248.109 137.478 249.25 136.381 250.377 135.27C251.606 134.271 252.847 133.281 254.108 132.321C255.448 131.471 256.772 130.585 258.134 129.77C259.568 129.08 260.994 128.371 262.442 127.715L266.951 126.155L271.619 125.191C273.186 124.962 274.778 124.914 276.351 124.796C282.68 124.633 288.909 125.983 294.626 128.298C288.541 127.158 282.478 126.526 276.5 127.096C270.538 127.651 264.743 129.433 259.563 132.352C254.342 135.203 249.718 139.134 245.812 143.701C241.923 148.291 238.703 153.49 236.421 159.236Z" fill="white"/>
<path d="M367.366 172.059C369.3 166.172 372.846 160.801 377.231 156.303C378.324 155.172 379.532 154.153 380.704 153.093C381.946 152.123 383.229 151.195 384.499 150.248C385.854 149.428 387.219 148.619 388.602 147.842C390.046 147.186 391.479 146.49 392.941 145.872C394.458 145.387 395.968 144.881 397.491 144.432L402.174 143.509L406.931 143.2C408.515 143.188 410.097 143.361 411.671 143.46C417.963 144.173 423.944 146.371 429.288 149.453C423.418 147.484 417.501 146.019 411.501 145.761C405.519 145.488 399.534 146.453 394.001 148.629C388.437 150.731 383.313 153.986 378.814 157.97C374.324 161.98 370.418 166.683 367.366 172.059Z" fill="white"/>
<path d="M220.834 324.181C208.673 324.181 182.052 321.447 164.922 299.421C143.005 271.243 150.927 217.174 151.273 214.886L160.789 216.33C160.709 216.849 153.148 268.607 172.518 293.513C191.457 317.862 225.807 314.366 226.152 314.324L227.235 323.887C226.86 323.932 224.504 324.181 220.834 324.181Z" fill="#4AD3CA"/>
<path opacity="0.4" d="M220.834 324.181C208.673 324.181 182.052 321.447 164.922 299.421C143.005 271.243 150.927 217.174 151.273 214.886L160.789 216.33C160.709 216.849 153.148 268.607 172.518 293.513C191.457 317.862 225.807 314.366 226.152 314.324L227.235 323.887C226.86 323.932 224.504 324.181 220.834 324.181Z" fill="white"/>
<path d="M163.59 222.878C161.854 222.878 160.082 222.733 158.278 222.44C142.227 219.841 135.121 210.236 131.985 202.636C128.842 195.019 128.116 185.805 129.826 175.252L150.182 178.551C149.122 185.088 149.43 190.851 151.048 194.772C152.201 197.57 154.441 200.929 161.575 202.085C164.834 202.613 168.357 202.333 172.046 196.769C174.893 192.475 176.604 186.63 177.203 182.928L197.559 186.225C197.088 189.137 195.092 199.327 189.232 208.165C182.859 217.778 173.889 222.878 163.59 222.878Z" fill="#4AD3CA"/>
<path d="M240.942 351.725C240.906 351.286 223.697 348.537 223.697 348.537L215.343 292.368L236.188 284.133L240.942 351.725Z" fill="#4AD3CA"/>
<path opacity="0.2" d="M240.942 351.725C240.906 351.286 223.697 348.537 223.697 348.537L215.343 292.368L236.188 284.133L240.942 351.725Z" fill="black"/>
<path d="M411.1 351.829C411.145 351.392 428.412 349.023 428.412 349.023L438.005 293.052L417.346 284.359L411.1 351.829Z" fill="#4AD3CA"/>
<path opacity="0.2" d="M411.1 351.829C411.145 351.392 428.412 349.023 428.412 349.023L438.005 293.052L417.346 284.359L411.1 351.829Z" fill="black"/>
<path d="M233.78 271.556C233.78 271.556 372.982 265.603 420.005 273.441C420.005 273.441 406.196 408.136 405.45 410.749C405.45 410.749 266.979 410.376 245.334 410.749C245.334 410.749 233.602 321.183 233.78 271.556Z" fill="#4AD3CA"/>
<path opacity="0.2" d="M276.062 308.466C276.062 308.466 352.053 305.464 377.724 309.416C377.724 309.416 370.186 377.337 369.779 378.654C369.779 378.654 294.187 378.465 282.371 378.654C282.368 378.654 277.176 332.168 276.062 308.466Z" fill="black"/>
<path opacity="0.2" d="M286.449 378.625C284.709 378.625 283.33 378.647 282.365 378.659C282.365 378.659 277.179 332.164 276.058 308.462C276.058 308.462 277.786 308.395 280.805 308.294L286.449 378.625Z" fill="black"/>
<path d="M308.863 325.225C304.604 323.883 300.066 326.247 298.724 330.503C297.38 334.767 299.748 339.3 304.007 340.642C308.263 341.984 312.796 339.622 314.138 335.362C315.48 331.108 313.119 326.567 308.863 325.225ZM313.201 335.067C312.023 338.81 308.039 340.884 304.301 339.706C300.563 338.527 298.487 334.545 299.667 330.802C300.846 327.064 304.829 324.988 308.571 326.168C312.303 327.345 314.38 331.329 313.201 335.067ZM308.863 325.225C304.604 323.883 300.066 326.247 298.724 330.503C297.38 334.767 299.748 339.3 304.007 340.642C308.263 341.984 312.796 339.622 314.138 335.362C315.48 331.108 313.119 326.567 308.863 325.225ZM313.201 335.067C312.023 338.81 308.039 340.884 304.301 339.706C300.563 338.527 298.487 334.545 299.667 330.802C300.846 327.064 304.829 324.988 308.571 326.168C312.303 327.345 314.38 331.329 313.201 335.067ZM308.863 325.225C304.604 323.883 300.066 326.247 298.724 330.503C297.38 334.767 299.748 339.3 304.007 340.642C308.263 341.984 312.796 339.622 314.138 335.362C315.48 331.108 313.119 326.567 308.863 325.225ZM313.201 335.067C312.023 338.81 308.039 340.884 304.301 339.706C300.563 338.527 298.487 334.545 299.667 330.802C300.846 327.064 304.829 324.988 308.571 326.168C312.303 327.345 314.38 331.329 313.201 335.067ZM311.557 316.686C302.576 313.858 293.014 318.847 290.184 327.814C287.357 336.787 292.336 346.356 301.313 349.182C310.281 352.007 319.852 347.025 322.678 338.053C325.508 329.086 320.526 319.511 311.557 316.686ZM315.34 335.739C313.791 340.654 308.539 343.392 303.629 341.843C298.719 340.296 295.981 335.043 297.528 330.128C299.077 325.213 304.333 322.481 309.243 324.028C314.15 325.576 316.887 330.829 315.34 335.739ZM314.138 335.364C315.48 331.108 313.119 326.568 308.863 325.227C304.604 323.885 300.066 326.249 298.724 330.505C297.38 334.769 299.748 339.302 304.007 340.644C308.263 341.986 312.796 339.623 314.138 335.364ZM313.201 335.067C312.023 338.81 308.039 340.884 304.301 339.706C300.563 338.527 298.487 334.545 299.667 330.802C300.846 327.064 304.829 324.988 308.571 326.168C312.303 327.345 314.38 331.329 313.201 335.067ZM308.863 325.225C304.604 323.883 300.066 326.247 298.724 330.503C297.38 334.767 299.748 339.3 304.007 340.642C308.263 341.984 312.796 339.622 314.138 335.362C315.48 331.108 313.119 326.567 308.863 325.225ZM313.201 335.067C312.023 338.81 308.039 340.884 304.301 339.706C300.563 338.527 298.487 334.545 299.667 330.802C300.846 327.064 304.829 324.988 308.571 326.168C312.303 327.345 314.38 331.329 313.201 335.067ZM308.863 325.225C304.604 323.883 300.066 326.247 298.724 330.503C297.38 334.767 299.748 339.3 304.007 340.642C308.263 341.984 312.796 339.622 314.138 335.362C315.48 331.108 313.119 326.567 308.863 325.225ZM313.201 335.067C312.023 338.81 308.039 340.884 304.301 339.706C300.563 338.527 298.487 334.545 299.667 330.802C300.846 327.064 304.829 324.988 308.571 326.168C312.303 327.345 314.38 331.329 313.201 335.067Z" fill="#4AD3CA"/>
<path d="M304.65 349.492L298.403 347.523L297.354 352.054L302.911 353.805L304.65 349.492Z" fill="#4AD3CA"/>
<path d="M293.422 343.64L290.396 337.831L286.451 340.294L289.141 345.461L293.422 343.64Z" fill="#4AD3CA"/>
<path d="M289.621 331.562L291.588 325.316L287.058 324.268L285.306 329.824L289.621 331.562Z" fill="#4AD3CA"/>
<path d="M295.472 320.335L301.281 317.31L298.818 313.364L293.651 316.056L295.472 320.335Z" fill="#4AD3CA"/>
<path d="M307.548 316.533L313.797 318.502L314.844 313.971L309.289 312.221L307.548 316.533Z" fill="#4AD3CA"/>
<path d="M318.777 322.385L321.802 328.194L325.749 325.733L323.057 320.566L318.777 322.385Z" fill="#4AD3CA"/>
<path d="M322.579 334.463L320.61 340.71L325.142 341.759L326.892 336.202L322.579 334.463Z" fill="#4AD3CA"/>
<path d="M316.727 345.69L310.916 348.717L313.38 352.661L318.547 349.971L316.727 345.69Z" fill="#4AD3CA"/>
<path d="M336.34 348.999C333.821 347.358 330.45 348.073 328.81 350.588C327.168 353.11 327.884 356.478 330.403 358.12C332.92 359.759 336.286 359.046 337.927 356.527C339.567 354.012 338.857 350.639 336.34 348.999ZM337.374 356.166C335.933 358.38 332.974 359.006 330.763 357.565C328.552 356.125 327.926 353.166 329.367 350.953C330.806 348.742 333.766 348.116 335.979 349.558C338.188 350.997 338.814 353.955 337.374 356.166ZM336.34 348.999C333.821 347.358 330.45 348.073 328.81 350.588C327.168 353.11 327.884 356.478 330.403 358.12C332.92 359.759 336.286 359.046 337.927 356.527C339.567 354.012 338.857 350.639 336.34 348.999ZM337.374 356.166C335.933 358.38 332.974 359.006 330.763 357.565C328.552 356.125 327.926 353.166 329.367 350.953C330.806 348.742 333.766 348.116 335.979 349.558C338.188 350.997 338.814 353.955 337.374 356.166ZM336.34 348.999C333.821 347.358 330.45 348.073 328.81 350.588C327.168 353.11 327.884 356.478 330.403 358.12C332.92 359.759 336.286 359.046 337.927 356.527C339.567 354.012 338.857 350.639 336.34 348.999ZM337.374 356.166C335.933 358.38 332.974 359.006 330.763 357.565C328.552 356.125 327.926 353.166 329.367 350.953C330.806 348.742 333.766 348.116 335.979 349.558C338.188 350.997 338.814 353.955 337.374 356.166ZM339.631 343.95C334.317 340.493 327.215 341.998 323.758 347.303C320.302 352.611 321.8 359.717 327.11 363.172C332.415 366.626 339.523 365.125 342.978 359.818C346.436 354.513 344.936 347.404 339.631 343.95ZM338.639 356.99C336.745 359.897 332.844 360.722 329.94 358.831C327.037 356.939 326.209 353.038 328.103 350.131C329.996 347.224 333.899 346.401 336.802 348.293C339.705 350.183 340.53 354.084 338.639 356.99ZM337.927 356.527C339.567 354.01 338.857 350.64 336.34 349.001C333.821 347.36 330.45 348.074 328.81 350.59C327.168 353.112 327.884 356.48 330.403 358.121C332.92 359.761 336.286 359.046 337.927 356.527ZM337.374 356.166C335.933 358.38 332.974 359.006 330.763 357.565C328.552 356.125 327.926 353.166 329.367 350.953C330.806 348.742 333.766 348.116 335.979 349.558C338.188 350.997 338.814 353.955 337.374 356.166ZM336.34 348.999C333.821 347.358 330.45 348.073 328.81 350.588C327.168 353.11 327.884 356.478 330.403 358.12C332.92 359.759 336.286 359.046 337.927 356.527C339.567 354.012 338.857 350.639 336.34 348.999ZM337.374 356.166C335.933 358.38 332.974 359.006 330.763 357.565C328.552 356.125 327.926 353.166 329.367 350.953C330.806 348.742 333.766 348.116 335.979 349.558C338.188 350.997 338.814 353.955 337.374 356.166ZM336.34 348.999C333.821 347.358 330.45 348.073 328.81 350.588C327.168 353.11 327.884 356.478 330.403 358.12C332.92 359.759 336.286 359.046 337.927 356.527C339.567 354.012 338.857 350.639 336.34 348.999ZM337.374 356.166C335.933 358.38 332.974 359.006 330.763 357.565C328.552 356.125 327.926 353.166 329.367 350.953C330.806 348.742 333.766 348.116 335.979 349.558C338.188 350.997 338.814 353.955 337.374 356.166Z" fill="#DBDBDB"/>
<path d="M329.219 363.974L325.523 361.568L324.025 364.317L327.312 366.458L329.219 363.974Z" fill="#DBDBDB"/>
<path d="M322.996 358.15L322.085 353.835L319.08 354.72L319.892 358.557L322.996 358.15Z" fill="#DBDBDB"/>
<path d="M322.715 349.63L325.121 345.934L322.372 344.436L320.231 347.723L322.715 349.63Z" fill="#DBDBDB"/>
<path d="M328.54 343.407L332.854 342.495L331.97 339.492L328.133 340.303L328.54 343.407Z" fill="#DBDBDB"/>
<path d="M337.059 343.126L340.753 345.532L342.253 342.783L338.966 340.642L337.059 343.126Z" fill="#DBDBDB"/>
<path d="M343.283 348.95L344.194 353.265L347.197 352.381L346.387 348.544L343.283 348.95Z" fill="#DBDBDB"/>
<path d="M343.563 357.47L341.157 361.166L343.906 362.665L346.047 359.377L343.563 357.47Z" fill="#DBDBDB"/>
<path d="M337.739 363.694L333.424 364.605L334.307 367.608L338.146 366.798L337.739 363.694Z" fill="#DBDBDB"/>
<path d="M416.645 395.075L421.996 396.07L437.295 292.446L431.2 291.327L416.645 395.075Z" fill="#4AD3CA"/>
<path d="M369.778 378.653L377.723 309.416L431.2 291.327C431.2 291.327 416.645 396.194 416.645 395.075L369.778 378.653Z" fill="#4AD3CA"/>
<path opacity="0.4" d="M369.778 378.653L377.723 309.416L431.2 291.327C431.2 291.327 416.645 396.194 416.645 395.075L369.778 378.653Z" fill="white"/>
<path d="M240.168 312.22C239.297 306.485 238.827 300.702 238.468 294.915C238.304 292.019 238.23 289.12 238.166 286.222C238.109 283.323 238.058 280.421 238.144 277.52L238.167 276.758L238.909 276.718C249.532 276.148 260.149 275.45 270.779 274.986C281.406 274.461 292.033 273.986 302.668 273.653C292.067 274.613 281.46 275.43 270.85 276.2C260.243 277.029 249.625 277.624 239.013 278.347L239.777 277.545L239.733 286.205L239.834 294.868C239.849 297.758 239.901 300.647 239.985 303.537L240.168 312.22Z" fill="white"/>
<path d="M385.182 310.432C388.494 308.858 391.859 307.395 395.264 306.045C398.658 304.662 402.084 303.354 405.549 302.154C409.02 300.968 412.502 299.808 416.043 298.824C419.578 297.829 423.146 296.909 426.791 296.312L427.687 296.166L427.528 297.022C426.689 301.505 425.811 305.981 424.773 310.432C425.162 305.878 425.71 301.348 426.297 296.827L427.033 297.536C423.5 298.379 419.996 299.364 416.502 300.396C413.011 301.441 409.531 302.54 406.06 303.67L385.182 310.432Z" fill="white"/>
<path opacity="0.1" d="M263.311 271.837L264.212 289.154L264.982 306.477L266.317 341.128L267.361 375.79L267.778 393.124L268.064 410.464L267.161 393.146L266.391 375.824L265.058 341.172L264.017 306.51L263.598 289.176L263.311 271.837Z" fill="black"/>
<path opacity="0.1" d="M258.35 282.275C258.683 283.767 257.799 285.546 256.116 286.04C255.3 286.286 254.345 286.205 253.55 285.751C252.755 285.299 252.168 284.475 251.979 283.56C251.799 282.643 252.018 281.655 252.576 280.93C253.131 280.202 253.985 279.756 254.831 279.667C256.576 279.472 258.08 280.774 258.35 282.275ZM258.35 282.275C258.191 281.522 257.706 280.848 257.049 280.484C256.39 280.121 255.611 280.076 254.956 280.289C253.605 280.728 252.958 282.149 253.214 283.313C253.427 284.481 254.574 285.549 255.991 285.426C256.677 285.367 257.379 285.024 257.844 284.433C258.312 283.842 258.495 283.032 258.35 282.275Z" fill="black"/>
<path opacity="0.1" d="M259.543 303.04C259.876 304.531 258.991 306.31 257.308 306.804C256.492 307.05 255.537 306.969 254.742 306.515C253.947 306.063 253.36 305.239 253.172 304.324C252.992 303.408 253.21 302.419 253.768 301.695C254.323 300.966 255.177 300.521 256.023 300.432C257.769 300.237 259.272 301.538 259.543 303.04ZM259.543 303.04C259.383 302.286 258.899 301.612 258.241 301.249C257.582 300.886 256.803 300.84 256.148 301.054C254.797 301.493 254.15 302.915 254.406 304.077C254.619 305.246 255.766 306.314 257.183 306.191C257.87 306.132 258.571 305.787 259.038 305.197C259.504 304.607 259.689 303.796 259.543 303.04Z" fill="black"/>
<path opacity="0.1" d="M260.299 325.082C260.632 326.573 259.748 328.352 258.065 328.847C257.249 329.092 256.294 329.012 255.499 328.558C254.703 328.105 254.116 327.281 253.928 326.367C253.748 325.452 253.967 324.462 254.525 323.737C255.08 323.007 255.934 322.563 256.78 322.474C258.525 322.279 260.028 323.58 260.299 325.082ZM260.299 325.082C260.139 324.329 259.655 323.654 258.998 323.291C258.339 322.928 257.56 322.883 256.904 323.096C255.554 323.535 254.907 324.956 255.162 326.118C255.376 327.288 256.523 328.354 257.94 328.231C258.626 328.173 259.327 327.83 259.793 327.238C260.261 326.647 260.444 325.839 260.299 325.082Z" fill="black"/>
<path opacity="0.1" d="M261.056 347.123C261.389 348.614 260.505 350.393 258.821 350.888C258.006 351.133 257.051 351.052 256.255 350.598C255.46 350.146 254.873 349.322 254.685 348.407C254.505 347.491 254.724 346.502 255.282 345.778C255.837 345.049 256.689 344.604 257.537 344.515C259.282 344.32 260.785 345.621 261.056 347.123ZM261.056 347.123C260.896 346.369 260.414 345.695 259.755 345.332C259.095 344.969 258.317 344.923 257.661 345.137C256.311 345.576 255.664 346.997 255.919 348.16C256.133 349.329 257.28 350.397 258.697 350.274C259.383 350.215 260.084 349.872 260.55 349.28C261.017 348.69 261.201 347.879 261.056 347.123Z" fill="black"/>
<path opacity="0.1" d="M261.813 369.165C262.146 370.657 261.261 372.435 259.578 372.93C258.763 373.175 257.807 373.095 257.012 372.641C256.217 372.188 255.63 371.364 255.442 370.45C255.262 369.533 255.48 368.545 256.039 367.82C256.593 367.092 257.448 366.646 258.293 366.557C260.039 366.362 261.542 367.662 261.813 369.165ZM261.813 369.165C261.653 368.412 261.169 367.737 260.511 367.374C259.852 367.011 259.074 366.966 258.418 367.179C257.068 367.618 256.42 369.039 256.676 370.203C256.889 371.373 258.036 372.439 259.454 372.316C260.14 372.257 260.841 371.914 261.308 371.322C261.774 370.73 261.957 369.92 261.813 369.165Z" fill="black"/>
<path opacity="0.1" d="M262.569 391.206C262.902 392.697 262.018 394.476 260.335 394.971C259.519 395.216 258.564 395.135 257.769 394.681C256.973 394.229 256.387 393.405 256.198 392.49C256.018 391.576 256.237 390.585 256.795 389.861C257.35 389.131 258.203 388.687 259.05 388.598C260.795 388.403 262.297 389.704 262.569 391.206ZM262.569 391.206C262.41 390.452 261.925 389.778 261.268 389.415C260.609 389.052 259.83 389.006 259.174 389.22C257.824 389.659 257.177 391.08 257.432 392.243C257.646 393.414 258.793 394.48 260.21 394.357C260.896 394.298 261.597 393.953 262.063 393.363C262.531 392.771 262.714 391.962 262.569 391.206Z" fill="black"/>
<path d="M269.373 424.91L190.555 448.795L193.346 458.004L272.164 434.12L269.373 424.91Z" fill="#4AD3CA"/>
<path opacity="0.4" d="M269.373 424.91L190.555 448.795L193.346 458.004L272.164 434.12L269.373 424.91Z" fill="white"/>
<path d="M231.662 433.211L222.492 436.128L226.824 449.75L235.995 446.834L231.662 433.211Z" fill="#4AD3CA"/>
<path d="M192.729 471.496L172.39 383.422L111 397.977L141.229 483.811L192.729 471.496Z" fill="#4AD3CA"/>
<path d="M206.351 467.018L192.729 471.496L172.39 383.422L191.983 388.087L206.351 467.018Z" fill="#4AD3CA"/>
<path opacity="0.2" d="M206.351 467.018L192.729 471.496L172.39 383.422L191.983 388.087L206.351 467.018Z" fill="black"/>
<path d="M270.803 439.96C276.574 439.96 281.252 435.282 281.252 429.511C281.252 423.741 276.574 419.063 270.803 419.063C265.032 419.063 260.354 423.741 260.354 429.511C260.354 435.282 265.032 439.96 270.803 439.96Z" fill="#4AD3CA"/>
<path d="M378.321 424.655L375.511 433.859L454.28 457.908L457.09 448.704L378.321 424.655Z" fill="#4AD3CA"/>
<path opacity="0.4" d="M378.321 424.655L375.511 433.859L454.28 457.908L457.09 448.704L378.321 424.655Z" fill="white"/>
<path d="M416.087 432.997L411.725 446.609L420.889 449.546L425.251 435.934L416.087 432.997Z" fill="#4AD3CA"/>
<path d="M441.309 466.912L454.921 471.42L475.448 383.389L455.845 388.013L441.309 466.912Z" fill="#4AD3CA"/>
<path opacity="0.2" d="M441.309 466.912L454.921 471.42L475.448 383.389L455.845 388.013L441.309 466.912Z" fill="black"/>
<path d="M366.487 429.247C366.475 435.018 371.143 439.706 376.914 439.719C382.685 439.731 387.373 435.063 387.386 429.293C387.398 423.522 382.73 418.834 376.959 418.82C371.187 418.807 366.499 423.476 366.487 429.247Z" fill="#4AD3CA"/>
<path d="M445.346 320.616C445.593 320.384 470.909 296.902 500.691 304.935C531.146 313.152 556.291 359.022 556.54 359.486L565.004 354.911C563.904 352.875 537.679 304.931 503.195 295.646C468.125 286.188 439.901 312.518 438.716 313.645L445.346 320.616Z" fill="#4AD3CA"/>
<path opacity="0.4" d="M445.346 320.616C445.593 320.384 470.909 296.902 500.691 304.935C531.146 313.152 556.291 359.022 556.54 359.486L565.004 354.911C563.904 352.875 537.679 304.931 503.195 295.646C468.125 286.188 439.901 312.518 438.716 313.645L445.346 320.616Z" fill="white"/>
<path d="M545.318 405.665L563.555 396.036C561.804 392.722 559.649 387.025 559.336 381.882C558.931 375.217 561.576 372.873 564.493 371.331C570.883 367.956 574.696 369.294 577.301 370.828C580.955 372.985 584.671 377.399 587.763 383.257L606 373.629C601.009 364.176 594.88 357.259 587.783 353.068C580.702 348.895 569.245 345.503 554.865 353.094C543.656 359.011 537.934 369.68 538.753 383.133C539.395 393.719 543.941 403.055 545.318 405.665Z" fill="#4AD3CA"/>
<path d="M449.19 288.483C453.143 285.753 457.189 283.18 461.249 280.631C465.3 278.067 469.418 275.615 473.536 273.164C477.674 270.747 481.814 268.334 486.021 266.032L492.333 262.585C494.468 261.489 496.574 260.344 498.736 259.291C496.769 260.672 494.746 261.958 492.752 263.295L486.678 267.146C482.626 269.71 478.51 272.161 474.39 274.61C470.25 277.024 466.11 279.437 461.903 281.737C457.707 284.058 453.494 286.35 449.19 288.483Z" fill="#263238"/>
<path d="M438.716 327.831C444.376 331.056 449.741 334.697 455.035 338.438C460.298 342.221 465.487 346.107 470.376 350.412C464.713 347.19 459.349 343.55 454.058 339.805C448.798 336.02 443.609 332.134 438.716 327.831Z" fill="#263238"/>
<path d="M448.013 322.992C452.381 324.319 456.682 325.819 460.972 327.344C465.27 328.85 469.52 330.481 473.769 332.112C478.005 333.78 482.239 335.452 486.426 337.244L492.704 339.938C494.774 340.893 496.866 341.794 498.917 342.798C496.728 342.151 494.576 341.401 492.405 340.706L485.957 338.45C481.659 336.941 477.408 335.312 473.161 333.679C468.927 332.01 464.691 330.338 460.506 328.544C456.312 326.767 452.131 324.966 448.013 322.992Z" fill="#263238"/>
<path d="M460.424 292.174C464.61 291.086 468.828 290.18 473.051 289.3C477.27 288.403 481.514 287.636 485.757 286.867C490.006 286.139 494.256 285.415 498.529 284.818L504.939 283.928C507.086 283.693 509.223 283.4 511.38 283.215C509.29 283.777 507.182 284.231 505.082 284.74L498.753 286.091C494.532 286.987 490.29 287.755 486.047 288.52C481.797 289.245 477.548 289.971 473.275 290.567C469.006 291.184 464.73 291.771 460.424 292.174Z" fill="#263238"/>
<defs>
<linearGradient id="paint0_linear_18977_147" x1="531.57" y1="99.3666" x2="411.993" y2="436.578" gradientUnits="userSpaceOnUse">
<stop stop-color="#ADE8E2" stop-opacity="0.72"/>
<stop offset="1" stop-color="#EAF9F8"/>
</linearGradient>
<linearGradient id="paint1_linear_18977_147" x1="-19.4299" y1="460.369" x2="227.607" y2="241.089" gradientUnits="userSpaceOnUse">
<stop stop-color="#B9E8E3" stop-opacity="0.62"/>
<stop offset="1" stop-color="#B9E8E4" stop-opacity="0.73"/>
</linearGradient>
<linearGradient id="paint2_linear_18977_147" x1="153.06" y1="33.7049" x2="255.842" y2="201.286" gradientUnits="userSpaceOnUse">
<stop stop-color="#B9E8E4" stop-opacity="0.79"/>
<stop offset="1" stop-color="#DBF9F6"/>
</linearGradient>
</defs>
</svg>
