<svg width="630" height="517" viewBox="0 0 630 517" fill="none" xmlns="http://www.w3.org/2000/svg">
<path fill-rule="evenodd" clip-rule="evenodd" d="M329.815 393.855L372.361 418.867C382.595 424.884 395.909 422.934 403.989 414.223L423.479 393.428C434.443 394.862 445.666 394.92 457.009 393.602L476.029 414.714C484.187 423.676 497.548 425.833 507.701 419.892L550.733 395.532C555.73 392.622 559.607 388.123 561.747 382.752C563.888 377.381 564.167 371.448 562.541 365.899C562.519 365.851 562.509 365.81 562.498 365.77L554.23 338.671C557.632 334.112 560.751 329.422 563.526 324.702C566.3 319.983 568.882 314.976 571.211 309.787L599.051 303.795C610.659 301.152 618.945 290.98 619.208 278.913L619.557 229.772C619.807 217.87 611.442 207.273 599.6 204.459L571.951 198.116C567.587 187.564 562.078 177.786 555.49 168.905L564.183 141.793C567.845 130.469 563.073 117.887 552.841 111.871L510.295 86.8592C500.062 80.8435 486.747 82.7931 478.668 91.469L459.18 112.266C448.214 110.831 436.991 110.773 425.649 112.091L406.63 90.9798C398.488 82.0796 385.116 79.8794 374.963 85.823L331.93 110.183C321.633 116.194 316.786 128.388 320.165 139.946L328.414 167.049C325.013 171.608 321.901 176.284 319.118 181.018C316.335 185.751 313.763 190.744 311.445 195.94L283.605 201.931C271.997 204.574 263.71 214.746 263.451 226.815L263.098 275.954C262.849 287.857 271.225 298.494 283.056 301.267L310.705 307.611C315.069 318.162 320.578 327.94 327.166 336.822L318.473 363.934C314.811 375.258 319.583 387.839 329.815 393.855ZM403.729 316.822C439.052 337.589 484.522 325.788 505.288 290.464C526.054 255.141 514.253 209.672 478.93 188.906C443.607 168.14 398.137 179.941 377.371 215.264C356.605 250.587 368.406 296.056 403.729 316.822Z" fill="url(#paint0_linear_18977_103)" fill-opacity="0.75"/>
<path fill-rule="evenodd" clip-rule="evenodd" d="M215.713 464.12L244.664 446.034C251.628 441.684 254.693 432.896 251.937 425.153L245.421 406.548C249.808 400.283 253.435 393.42 256.256 386.043L275.288 381.135C283.394 379 288.992 371.497 288.597 363.37L287.428 329.187C287.242 325.193 285.724 321.375 283.115 318.344C280.506 315.313 276.957 313.244 273.035 312.465C272.999 312.463 272.97 312.457 272.942 312.45L253.679 308.849C251.972 305.305 250.094 301.891 248.087 298.68C246.081 295.468 243.837 292.283 241.4 289.195L246.634 270.206C248.728 262.242 245.141 253.906 237.825 249.884L207.804 233.946C200.585 229.985 191.41 231.723 185.895 238.085L173.159 253.01C165.292 252.31 157.534 252.559 149.979 253.758L136.136 239.751C130.364 233.883 121.121 232.783 114.158 237.133L85.2072 255.22C78.2441 259.57 75.1793 268.358 77.9144 276.089L84.432 294.693C80.0431 300.958 76.4163 307.822 73.5956 315.199L54.5647 320.106C46.5017 322.252 40.8741 329.747 41.2699 337.876L42.4388 372.058C42.8296 380.296 48.7564 387.169 56.9252 388.795L76.185 392.409C77.8923 395.954 79.7636 399.358 81.776 402.579C83.7884 405.8 86.0266 408.975 88.4715 412.059L83.2375 431.048C81.1443 439.012 84.7299 447.348 92.0481 451.369L122.068 467.308C129.287 471.269 138.49 469.537 143.976 463.169L156.713 448.244C164.579 448.944 172.338 448.694 179.892 447.496L193.736 461.502C199.508 467.371 208.75 468.47 215.713 464.12ZM192.126 394.148C216.162 379.131 223.474 347.473 208.458 323.437C193.442 299.401 161.784 292.088 137.748 307.105C113.711 322.121 106.399 353.779 121.415 377.815C136.431 401.852 168.09 409.164 192.126 394.148Z" fill="url(#paint1_linear_18977_103)" fill-opacity="0.53"/>
<path fill-rule="evenodd" clip-rule="evenodd" d="M245.096 207.999L266.586 194.574C271.754 191.345 274.029 184.822 271.983 179.075L267.147 165.265C270.404 160.615 273.095 155.52 275.189 150.045L289.316 146.401C295.333 144.817 299.488 139.247 299.195 133.215L298.328 107.842C298.19 104.877 297.063 102.044 295.126 99.7939C293.19 97.5441 290.556 96.0078 287.644 95.4301C287.617 95.4286 287.596 95.4237 287.575 95.4188L273.277 92.7461C272.009 90.115 270.616 87.5812 269.126 85.1974C267.637 82.8137 265.971 80.4498 264.163 78.157L268.048 64.0622C269.602 58.1507 266.94 51.9632 261.509 48.9778L239.225 37.1477C233.867 34.2072 227.057 35.4979 222.963 40.2198L213.509 51.298C207.67 50.7784 201.911 50.9637 196.304 51.8532L186.028 41.4569C181.743 37.1006 174.883 36.2845 169.715 39.5134L148.225 52.9385C143.057 56.1674 140.782 62.6909 142.812 68.4289L147.65 82.2386C144.392 86.8889 141.7 91.9838 139.606 97.4594L125.48 101.102C119.495 102.694 115.318 108.258 115.612 114.291L116.48 139.664C116.77 145.779 121.169 150.881 127.232 152.088L141.528 154.77C142.796 157.401 144.185 159.928 145.678 162.319C147.172 164.71 148.833 167.067 150.648 169.356L146.763 183.45C145.209 189.362 147.871 195.55 153.303 198.534L175.586 210.365C180.944 213.305 187.775 212.02 191.847 207.293L201.301 196.215C207.141 196.734 212.9 196.549 218.507 195.659L228.783 206.056C233.067 210.412 239.928 211.228 245.096 207.999ZM227.588 156.061C245.429 144.915 250.857 121.416 239.711 103.574C228.565 85.7327 205.066 80.3051 187.224 91.4511C169.383 102.597 163.955 126.096 175.101 143.938C186.247 161.779 209.746 167.207 227.588 156.061Z" fill="url(#paint2_linear_18977_103)" fill-opacity="0.75"/>
<path d="M429.116 442.173H199.346C192.774 442.173 187.438 436.948 187.438 430.513V106.471C187.438 100.035 192.774 94.8102 199.346 94.8102H429.116C435.688 94.8102 441.023 100.035 441.023 106.471V430.513C441.023 436.975 435.688 442.173 429.116 442.173Z" fill="#016963"/>
<path d="M429.116 442.173H199.346C192.774 442.173 187.438 436.948 187.438 430.513V106.471C187.438 100.035 192.774 94.8102 199.346 94.8102H239.085C243.843 94.8102 248.27 97.1203 250.938 100.97L269.363 127.646C270.573 129.406 272.608 130.451 274.754 130.479L355.551 131.001C357.889 131.001 360.061 129.819 361.244 127.839L377.002 101.713C379.587 97.4503 384.262 94.8102 389.322 94.8102H429.116C435.688 94.8102 441.023 100.035 441.023 106.471V430.513C441.023 436.975 435.688 442.173 429.116 442.173Z" fill="#4AD3CA"/>
<path d="M360.996 99.8429L327.913 99.7604V98.7428C327.913 92.2527 321.862 87 314.382 87C306.902 87 300.852 92.2527 300.852 98.7428V99.7604L267.466 99.8429C263.698 99.8429 260.618 103.143 260.618 107.158C260.618 111.173 263.698 114.473 267.466 114.473H360.969C364.736 114.473 367.816 111.173 367.816 107.158C367.844 103.143 364.764 99.8429 360.996 99.8429Z" fill="#3BA9A2"/>
<path d="M411.268 425.095L201.986 409.75L224.124 111.998L433.378 127.344L411.268 425.095Z" fill="#3BA9A2"/>
<path d="M435.767 126.745L225.756 111.136L203.626 408.876L413.637 424.486L435.767 126.745Z" fill="#3BA9A2"/>
<path d="M422.817 417.202L212.353 424.27L202.838 125.859L413.329 118.791L422.817 417.202Z" fill="#3BA9A2"/>
<path d="M414.751 117.857L204.255 124.554L213.749 422.981L424.245 416.284L414.751 117.857Z" fill="#016963"/>
<path d="M425.045 119.203H214.444V417.78H425.045V119.203Z" fill="white"/>
<path d="M355.716 103.5L327.336 103.418V101.245C327.336 95.4978 321.175 90.8226 313.585 90.8226C305.995 90.8226 299.835 95.4978 299.835 101.245V103.418L271.426 103.5C270.684 103.5 270.106 104.133 270.106 104.903V124.786C270.106 125.556 270.711 126.189 271.426 126.189H355.689C356.431 126.189 357.009 125.556 357.009 124.786V104.903C357.036 104.106 356.459 103.5 355.716 103.5Z" fill="#5B748C"/>
<path d="M356.376 102.648L327.995 102.565V100.393C327.995 94.6452 321.835 89.9701 314.244 89.9701C306.654 89.9701 300.494 94.6452 300.494 100.393V102.565L272.086 102.648C271.343 102.648 270.766 103.28 270.766 104.05V123.934C270.766 124.704 271.371 125.336 272.086 125.336H356.348C357.091 125.336 357.668 124.704 357.668 123.934V104.05C357.696 103.28 357.091 102.648 356.376 102.648Z" fill="#016963"/>
<path opacity="0.75" d="M327.996 102.566V100.86C327.996 96.3503 321.836 92.6652 314.246 92.6652C306.655 92.6652 300.495 96.3228 300.495 100.86V102.566H327.996Z" fill="white"/>
<path opacity="0.5" d="M356.376 117.773H272.114C271.371 117.773 270.794 117.883 270.794 118.048V121.898C270.794 122.036 271.399 122.173 272.114 122.173H356.376C357.119 122.173 357.697 122.063 357.697 121.898V118.048C357.697 117.883 357.091 117.773 356.376 117.773Z" fill="url(#paint3_linear_18977_103)"/>
<path d="M360.844 171.363H240.871C237.308 171.363 234.509 168.368 234.509 164.853V163.812C234.509 160.167 237.435 157.302 240.871 157.302H360.844C364.406 157.302 367.205 160.297 367.205 163.812V164.853C367.205 168.368 364.279 171.363 360.844 171.363Z" fill="#B7DEDC"/>
<path d="M395.621 217.938L240.366 217.938C237.086 217.938 234.509 214.757 234.509 211.022V209.915C234.509 206.042 237.203 202.999 240.366 202.999L395.621 202.999C398.901 202.999 401.477 206.18 401.477 209.915V211.022C401.477 214.895 398.901 217.938 395.621 217.938Z" fill="#B7DEDC"/>
<path d="M405.228 263.635L240.366 263.635C237.086 263.635 234.509 260.641 234.509 257.125V256.084C234.509 252.439 237.203 249.574 240.366 249.574L405.228 249.574C408.508 249.574 411.084 252.569 411.084 256.084V257.125C411.084 260.64 408.508 263.635 405.228 263.635Z" fill="#B7DEDC"/>
<path d="M391.371 310.21L240.355 310.21C237.081 310.21 234.509 307.028 234.509 303.294V302.187C234.509 298.314 237.198 295.271 240.355 295.271L391.371 295.271C394.645 295.271 397.217 298.452 397.217 302.187V303.294C397.217 307.167 394.528 310.21 391.371 310.21Z" fill="#B7DEDC"/>
<path d="M390.053 355.907H240.356C237.082 355.907 234.509 352.912 234.509 349.397V348.356C234.509 344.71 237.199 341.846 240.356 341.846L390.053 341.846C393.327 341.846 395.9 344.84 395.9 348.356V349.397C395.9 352.912 393.327 355.907 390.053 355.907Z" fill="#B7DEDC"/>
<path d="M462.907 285.109C459.949 289.426 455.964 291.865 454.008 290.578L436.441 279.038C434.451 277.733 435.229 273.134 438.207 268.784C438.227 268.75 438.227 268.75 438.247 268.717C441.205 264.4 445.19 261.961 447.146 263.249L464.713 274.788C466.703 276.094 465.925 280.692 462.947 285.043C462.947 285.043 462.927 285.076 462.907 285.109Z" fill="#A9EEDD"/>
<path d="M440.628 281.63L446.194 285.433L457.137 269.837L451.093 265.724C451.093 265.724 451.869 269.721 448.038 274.943C443.59 281.084 440.628 281.63 440.628 281.63Z" fill="#37474F"/>
<path d="M333.29 195.443C311.563 227.219 318.959 270.066 349.864 291.126C380.77 312.186 423.429 303.55 445.156 271.775C466.883 240 459.487 197.152 428.608 176.085C397.695 154.998 355.043 163.661 333.29 195.443ZM420.722 187.567C445.447 204.437 451.367 238.708 433.978 264.12C416.588 289.531 382.461 296.462 357.737 279.592C333.012 262.722 327.091 228.45 344.481 203.039C361.877 177.654 396.004 170.722 420.722 187.567Z" fill="#3BA9A2"/>
<path opacity="0.5" d="M344.487 203.065C327.097 228.477 333.018 262.748 357.742 279.618C382.467 296.489 416.594 289.557 433.983 264.146C451.373 238.735 445.452 204.463 420.728 187.593C396.003 170.723 361.876 177.654 344.487 203.065ZM419.156 189.888C442.636 205.912 448.255 238.464 431.735 262.607C415.214 286.751 382.795 293.347 359.314 277.323C335.834 261.3 330.215 228.747 346.735 204.604C363.249 180.434 395.675 173.864 419.156 189.888Z" fill="#3BA9A2"/>
<path opacity="0.5" d="M419.156 189.888C442.636 205.911 448.255 238.464 431.734 262.607C415.214 286.751 382.794 293.347 359.314 277.323C335.834 261.299 330.215 228.747 346.735 204.604C363.249 180.434 395.675 173.864 419.156 189.888Z" fill="#FBFBFB"/>
<path d="M581.338 355.68C581.218 359.517 579.086 362.747 577.858 364.616C576.649 366.451 574.213 370.155 570.329 371.789C565.806 373.712 561.159 372.06 556.311 369.964C549.798 367.165 540.54 362.573 529.795 355.091L473.842 316.908C454.35 303.609 440.712 289.35 443.528 285.236C445.283 284.082 448.221 281.877 450.744 278.177C453.181 274.584 454.155 271.176 454.571 269.145C457.386 265.03 475.639 272.537 495.131 285.836L551.084 324.018C562.036 331.416 569.666 338.32 574.605 343.306C578.117 346.856 581.497 350.665 581.338 355.68Z" fill="#3BA9A2"/>
<path d="M495.353 285.8L526.75 307.222C525.528 312.304 523.29 318.306 519.178 324.33C514.841 330.693 509.743 335.105 505.282 338.12L473.885 316.698C478.346 313.683 483.444 309.271 487.782 302.908C491.92 296.877 494.157 290.875 495.353 285.8Z" fill="#26C5BA"/>
<path d="M481.862 297.81C485.767 292.117 488.292 286.401 489.847 281.592C489.03 281.081 488.247 280.588 487.438 280.103C485.89 284.937 483.418 290.528 479.52 296.247C475.206 302.579 470.328 307.256 465.978 310.63C466.721 311.189 467.49 311.741 468.259 312.293C472.576 308.901 477.541 304.116 481.862 297.81Z" fill="#3BA9A2"/>
<path d="M489.867 281.724C488.312 286.535 485.786 292.253 481.88 297.949C477.557 304.258 472.624 309.063 468.272 312.438C470.024 313.702 471.829 314.951 473.66 316.192L473.7 316.236C478.196 313.205 483.34 308.78 487.737 302.423C491.904 296.405 494.193 290.425 495.456 285.366L495.177 285.17C493.412 283.965 491.606 282.827 489.867 281.724Z" fill="#A9EEDD"/>
<path d="M408.028 205.864C410.244 203.648 413.838 203.648 416.054 205.864C418.271 208.081 418.271 211.674 416.054 213.891L368.431 261.514C366.215 263.73 362.621 263.73 360.405 261.514C358.188 259.298 358.188 255.704 360.405 253.488L408.028 205.864Z" fill="#2F8782"/>
<path d="M360.404 214.426C358.187 212.21 358.187 208.616 360.404 206.4C362.62 204.183 366.214 204.183 368.43 206.4L416.053 254.023C418.27 256.239 418.27 259.833 416.053 262.049C413.837 264.266 410.243 264.266 408.027 262.049L360.404 214.426Z" fill="#2F8782"/>
<defs>
<linearGradient id="paint0_linear_18977_103" x1="531.57" y1="99.3666" x2="411.993" y2="436.578" gradientUnits="userSpaceOnUse">
<stop stop-color="#ADE8E2" stop-opacity="0.72"/>
<stop offset="1" stop-color="#EAF9F8"/>
</linearGradient>
<linearGradient id="paint1_linear_18977_103" x1="-19.4299" y1="460.369" x2="227.607" y2="241.089" gradientUnits="userSpaceOnUse">
<stop stop-color="#B9E8E3" stop-opacity="0.62"/>
<stop offset="1" stop-color="#B9E8E4" stop-opacity="0.73"/>
</linearGradient>
<linearGradient id="paint2_linear_18977_103" x1="153.06" y1="33.7049" x2="255.842" y2="201.286" gradientUnits="userSpaceOnUse">
<stop stop-color="#B9E8E4" stop-opacity="0.79"/>
<stop offset="1" stop-color="#DBF9F6"/>
</linearGradient>
<linearGradient id="paint3_linear_18977_103" x1="314.238" y1="122.149" x2="314.238" y2="117.763" gradientUnits="userSpaceOnUse">
<stop stop-color="white"/>
<stop offset="0.59375" stop-color="#F5F5F5"/>
<stop offset="1" stop-color="#EEEEEE"/>
</linearGradient>
</defs>
</svg>
