<svg width="14" height="14" viewBox="0 0 14 14" fill="none" xmlns="http://www.w3.org/2000/svg">
<path d="M10.5 1.89581H3.5C2.0895 1.89581 1.3125 2.67281 1.3125 4.08331V9.91665C1.3125 11.3271 2.0895 12.1041 3.5 12.1041H10.5C11.9105 12.1041 12.6875 11.3271 12.6875 9.91665V4.08331C12.6875 2.67281 11.9105 1.89581 10.5 1.89581ZM3.5 2.77081H10.5C11.4199 2.77081 11.8125 3.1634 11.8125 4.08331V7.69354L9.47333 5.35494C9.08833 4.96936 8.41167 4.96936 8.02667 5.35494L5.25 8.13104L4.80666 7.68827C4.42166 7.30269 3.74501 7.30269 3.36001 7.68827L2.1875 8.86078V4.08331C2.1875 3.1634 2.58008 2.77081 3.5 2.77081ZM10.5 11.2291H3.5C2.64133 11.2291 2.24698 10.8815 2.1974 10.0875L3.9783 8.30664C4.05239 8.23314 4.11364 8.23314 4.18772 8.30664L4.73552 8.85437C5.00794 9.12737 5.49152 9.12679 5.76277 8.85437L8.6444 5.97274C8.71848 5.89924 8.77974 5.89924 8.85382 5.97274L11.8114 8.93028V9.91665C11.8125 10.8366 11.4199 11.2291 10.5 11.2291Z" fill="#61646C"/>
</svg>
