<svg width="20" height="20" viewBox="0 0 20 20" fill="none" xmlns="http://www.w3.org/2000/svg">
    <path fill-rule="evenodd" clip-rule="evenodd"
        d="M15.8334 1.06641C16.1647 1.06641 16.4334 1.33504 16.4334 1.66641V3.56641H18.3334C18.6647 3.56641 18.9334 3.83504 18.9334 4.16641C18.9334 4.49778 18.6647 4.76641 18.3334 4.76641H16.4334V6.66641C16.4334 6.99778 16.1647 7.26641 15.8334 7.26641C15.502 7.26641 15.2334 6.99778 15.2334 6.66641V4.76641H13.3334C13.002 4.76641 12.7334 4.49778 12.7334 4.16641C12.7334 3.83504 13.002 3.56641 13.3334 3.56641H15.2334V1.66641C15.2334 1.33504 15.502 1.06641 15.8334 1.06641ZM6.47423 1.89974L10.4167 1.89974C10.7481 1.89974 11.0167 2.16837 11.0167 2.49974C11.0167 2.83111 10.7481 3.09974 10.4167 3.09974H6.50002C5.79006 3.09974 5.29367 3.10021 4.90689 3.13181C4.52711 3.16284 4.30615 3.22087 4.13744 3.30683C3.77993 3.48899 3.48927 3.77965 3.30711 4.13716C3.22115 4.30587 3.16312 4.52683 3.13209 4.9066C3.10049 5.29338 3.10002 5.78977 3.10002 6.49974V13.4997C3.10002 14.2097 3.10049 14.7061 3.13209 15.0929C3.16312 15.4727 3.22115 15.6936 3.30711 15.8623C3.48927 16.2198 3.77993 16.5105 4.13744 16.6927C4.18299 16.7159 4.23233 16.737 4.28759 16.7562C4.35772 16.5771 4.4756 16.4421 4.55377 16.3576C4.67307 16.2285 4.8382 16.0784 5.02035 15.9128L12.1022 9.47472C12.2395 9.34992 12.3662 9.23477 12.4804 9.14574C12.6045 9.04904 12.7473 8.95574 12.9251 8.89799C13.1836 8.81404 13.4606 8.8053 13.7239 8.8728C13.9049 8.91922 14.0534 9.00333 14.1833 9.09202C14.3029 9.17367 14.4366 9.2806 14.5815 9.39651L16.9274 11.2733C16.9429 11.2857 16.9582 11.2979 16.9734 11.31C17.2439 11.5262 17.4534 11.6936 17.6164 11.9013C17.8201 12.1608 17.9646 12.4616 18.04 12.7827C18.1004 13.0398 18.1002 13.308 18.1 13.6542C18.1 13.6736 18.1 13.6932 18.1 13.7131V13.7351C18.1 13.8783 18.1 14.0146 18.0996 14.1444C18.0999 14.1517 18.1 14.159 18.1 14.1664C18.1 14.1982 18.1 14.2295 18.1 14.2604C18.1003 14.9446 18.1004 15.4065 17.9944 15.8021C17.869 16.2701 17.6385 16.6933 17.3293 17.0453C17.2333 17.1547 17.1296 17.2572 17.0192 17.352C16.6725 17.6496 16.2587 17.8718 15.8024 17.9941C15.4068 18.1001 14.9449 18.1 14.2607 18.0998C14.2298 18.0997 14.1985 18.0997 14.1667 18.0997H13.7714C13.7595 18.0997 13.7475 18.0997 13.7355 18.0997H6.47419C6.4594 18.0997 6.44467 18.0997 6.43 18.0997H5.86585C5.64524 18.0998 5.44312 18.0998 5.27749 18.0888C5.10954 18.0834 4.95377 18.0755 4.80917 18.0637C4.35519 18.0266 3.95872 17.9484 3.59265 17.7619C3.00935 17.4647 2.53511 16.9904 2.2379 16.4071C2.05138 16.041 1.97317 15.6446 1.93608 15.1906C1.90001 14.7492 1.90002 14.2037 1.90002 13.5255V6.47394C1.90002 5.79576 1.90001 5.25028 1.93608 4.80889C1.97317 4.3549 2.05138 3.95844 2.2379 3.59237C2.53511 3.00907 3.00935 2.53483 3.59265 2.23762C3.95872 2.0511 4.35519 1.97288 4.80917 1.93579C5.25057 1.89973 5.79605 1.89973 6.47423 1.89974ZM16.47 16.2036C16.5824 16.0663 16.6759 15.9129 16.7469 15.747C16.8103 15.5989 16.8533 15.4063 16.8763 15.0791C16.8997 14.7463 16.9 14.3212 16.9 13.7131C16.9 13.2811 16.8963 13.1614 16.8718 13.057C16.8363 12.9059 16.7683 12.7643 16.6724 12.6422C16.6062 12.5578 16.5151 12.4802 16.1778 12.2103L13.8467 10.3455C13.682 10.2137 13.5842 10.1359 13.5068 10.0831C13.4541 10.0472 13.431 10.0371 13.4256 10.0351M16.47 16.2036C16.4042 16.284 16.3318 16.3588 16.2538 16.4274C16.1042 16.5587 15.9336 16.6669 15.7473 16.7466C15.5992 16.81 15.4066 16.8531 15.0794 16.876C14.7466 16.8994 14.3214 16.8997 13.7133 16.8997H6.50002C6.20647 16.8997 5.94944 16.8997 5.72157 16.8973C5.75944 16.8627 5.80088 16.825 5.84625 16.7837L12.8953 10.3755C13.0514 10.2336 13.1442 10.1498 13.2181 10.0922C13.2683 10.053 13.2908 10.0416 13.2961 10.0392M7.08336 6.01641C6.49425 6.01641 6.01669 6.49397 6.01669 7.08307C6.01669 7.67218 6.49425 8.14974 7.08336 8.14974C7.67246 8.14974 8.15002 7.67218 8.15002 7.08307C8.15002 6.49397 7.67246 6.01641 7.08336 6.01641ZM4.81669 7.08307C4.81669 5.83123 5.83151 4.81641 7.08336 4.81641C8.3352 4.81641 9.35002 5.83123 9.35002 7.08307C9.35002 8.33492 8.3352 9.34974 7.08336 9.34974C5.83151 9.34974 4.81669 8.33492 4.81669 7.08307Z"
        fill="#646464" />
</svg>
    