<svg width="20" height="20" viewBox="0 0 20 20" fill="none" xmlns="http://www.w3.org/2000/svg">
<path d="M7.59584 4.20219C8.74275 3.7274 10.0047 3.60344 11.2221 3.84598C12.4394 4.08851 13.5575 4.68666 14.4349 5.56474L16.064 7.18909H13.7655C13.4342 7.18909 13.1655 7.45772 13.1655 7.78909C13.1655 8.12046 13.4342 8.38909 13.7655 8.38909H17.5136C17.5212 8.38911 17.5289 8.38899 17.5365 8.38873C17.6001 8.38655 17.6612 8.37445 17.7183 8.35394C17.7995 8.32488 17.8756 8.27781 17.9405 8.21273C18.0594 8.09343 18.1178 7.93659 18.1155 7.78047V4.03909C18.1155 3.70772 17.8469 3.43909 17.5155 3.43909C17.1842 3.43909 16.9155 3.70772 16.9155 4.03909V6.34351L15.2836 4.71638C14.2385 3.67047 12.9066 2.95801 11.4565 2.6691C10.0064 2.38019 8.50308 2.52786 7.13685 3.09344C5.77061 3.65903 4.60282 4.61712 3.78118 5.84651C2.95955 7.0759 2.521 8.52135 2.521 10C2.521 11.4787 2.95955 12.9242 3.78118 14.1535C4.60282 15.3829 5.77061 16.341 7.13685 16.9066C8.50308 17.4722 10.0064 17.6199 11.4565 17.331C11.7815 17.2662 11.9925 16.9503 11.9277 16.6253C11.863 16.3003 11.5471 16.0893 11.2221 16.1541C10.0047 16.3966 8.74274 16.2727 7.59584 15.7979C6.44894 15.3231 5.46861 14.5188 4.77888 13.4868C4.08915 12.4547 3.721 11.2413 3.721 10C3.721 8.75873 4.08915 7.54532 4.77888 6.51329C5.46861 5.48126 6.44894 4.67698 7.59584 4.20219Z" fill="currentColor"/>
<path d="M15.6406 15.0009C15.6406 15.3517 15.3563 15.636 15.0055 15.636C14.6547 15.636 14.3704 15.3517 14.3704 15.0009C14.3704 14.6501 14.6547 14.3658 15.0055 14.3658C15.3563 14.3658 15.6406 14.6501 15.6406 15.0009Z" fill="currentColor"/>
<path d="M17.3855 11.5432C17.3855 11.894 17.1012 12.1783 16.7504 12.1783C16.3996 12.1783 16.1153 11.894 16.1153 11.5432C16.1153 11.1924 16.3996 10.9081 16.7504 10.9081C17.1012 10.9081 17.3855 11.1924 17.3855 11.5432Z" fill="currentColor"/>
</svg>
