<svg width="24" height="24" viewBox="0 0 24 24" fill="none" xmlns="http://www.w3.org/2000/svg">
<path fill-rule="evenodd" clip-rule="evenodd" d="M20.87 12.27C20.87 12.18 20.85 12.1 20.81 12.02C20.81 12.01 20.81 12.01 20.81 12L17.94 6.26C17.75 5.88 17.46 5.57 17.11 5.34C16.74 5.12 16.32 5 15.9 5H7.97C7.54 5 7.13 5.12 6.77 5.34C6.41 5.56 6.13 5.88 5.94 6.26L3.06 12C3.06 12.01 3.06 12.01 3.06 12.02C3.02 12.09 3 12.18 3 12.27V17.27C3 17.87 3.24 18.45 3.66 18.87C4.09 19.3 4.66 19.53 5.26 19.53H18.6C19.2 19.53 19.78 19.29 20.2 18.87C20.63 18.45 20.86 17.87 20.86 17.27V12.27H20.87ZM7.01 6.79L6.47 6.53L7.01 6.79C7.1 6.61 7.24 6.46 7.41 6.36C7.57 6.26 7.77 6.2 7.97 6.2H15.9C16.1 6.2 16.29 6.26 16.46 6.36C16.63 6.46 16.76 6.61 16.85 6.79L19.29 11.66H15.26C15.06 11.66 14.87 11.76 14.76 11.93L13.27 14.16H10.59L9.1 11.93C8.99 11.77 8.8 11.67 8.6 11.67H4.57L7.01 6.79ZM19.35 18.02C19.15 18.22 18.88 18.33 18.6 18.33H5.27C4.99 18.33 4.72 18.22 4.52 18.02C4.32 17.82 4.21 17.55 4.21 17.27V12.87H8.29L9.78 15.1C9.89 15.27 10.08 15.37 10.28 15.37H13.61C13.81 15.37 14 15.27 14.11 15.1L15.6 12.87H19.68V17.27C19.67 17.55 19.55 17.82 19.35 18.02Z" fill="#202020"/>
</svg>
