<svg width="24" height="24" viewBox="0 0 24 24" fill="none" xmlns="http://www.w3.org/2000/svg">
<path d="M5.96162 20.9555C7.68531 22.12 9.76325 22.7999 12 22.7999C12 22.7999 12 22.7999 12 22.7999C17.9647 22.7999 22.8 17.9647 22.8 12C22.8 9.69307 22.0767 7.55504 20.8445 5.80039C18.8908 3.01832 15.6578 1.19996 12 1.19995C12 1.19995 12.0001 1.19995 12 1.19995C6.03537 1.19995 1.2 6.03528 1.2 12C1.2 11.9999 1.2 12 1.2 12C1.2 15.7279 3.0888 19.0147 5.96162 20.9555Z" fill="white"/>
<g clip-path="url(#clip0_11290_1335)">
<path d="M14.2431 16.2345L14.0922 16.8513C13.6394 17.03 13.2778 17.166 13.0085 17.2595C12.739 17.3533 12.4257 17.4 12.0689 17.4C11.5208 17.4 11.0945 17.2657 10.7905 16.9991C10.4865 16.7313 10.3344 16.3921 10.3344 15.9805C10.3344 15.8212 10.3454 15.6573 10.3684 15.4903C10.3915 15.3232 10.4283 15.1349 10.4786 14.9245L11.0444 12.922C11.0947 12.7302 11.1375 12.5486 11.1718 12.3767C11.2065 12.206 11.2233 12.0489 11.2233 11.9075C11.2233 11.6518 11.1703 11.4729 11.0649 11.3723C10.9595 11.272 10.7584 11.2211 10.4598 11.2211C10.3135 11.2211 10.1632 11.2445 10.01 11.2898C9.85606 11.3353 9.72451 11.3793 9.61407 11.4201L9.76536 10.8028C10.136 10.6519 10.4903 10.5227 10.8291 10.4154C11.168 10.3079 11.4882 10.2541 11.7911 10.2541C12.3353 10.2541 12.7553 10.3856 13.0503 10.6487C13.3452 10.912 13.4926 11.2533 13.4926 11.6738C13.4926 11.7608 13.4829 11.9142 13.4621 12.1333C13.4418 12.3529 13.4039 12.5542 13.3488 12.7372L12.7854 14.7317C12.7393 14.8918 12.6977 15.075 12.6616 15.2811C12.6244 15.4858 12.6066 15.6422 12.6066 15.7471C12.6066 16.0119 12.6656 16.1928 12.784 16.2889C12.9032 16.385 13.1086 16.4328 13.4004 16.4328C13.5373 16.4328 13.6932 16.4085 13.8663 16.3608C14.039 16.3131 14.1649 16.2712 14.2431 16.2345ZM14.3859 7.8612C14.3859 8.20869 14.255 8.50547 13.9918 8.74948C13.7293 8.99437 13.413 9.11691 13.0429 9.11691C12.6717 9.11691 12.3546 8.99437 12.0891 8.74948C11.8241 8.50537 11.6913 8.20869 11.6913 7.8612C11.6913 7.51439 11.8241 7.21714 12.0891 6.97002C12.3541 6.72329 12.6718 6.59998 13.0429 6.59998C13.4129 6.59998 13.7293 6.72358 13.9918 6.97002C14.2552 7.21714 14.3859 7.51449 14.3859 7.8612Z" fill="#2e90fa"/>
</g>
<defs>
<clipPath id="clip0_11290_1335">
<rect width="10.8" height="10.8" fill="white" transform="translate(6.6 6.59998)"/>
</clipPath>
</defs>
</svg>
