<svg xmlns="http://www.w3.org/2000/svg" width="24" height="24" viewBox="0 0 24 24" fill="none">
<path d="M6.63254 19.9605C8.16471 20.9956 10.0118 21.6 12 21.6C12 21.6 12 21.6 12 21.6C17.302 21.6 21.6 17.302 21.6 12.0001C21.6 9.94946 20.9571 8.04899 19.8618 6.48931C18.1252 4.01635 15.2513 2.40004 12 2.40002C12 2.40002 12 2.40002 12 2.40002C6.6981 2.40002 2.39999 6.69809 2.39999 12C2.39999 12 2.39999 12 2.39999 12C2.39999 15.3138 4.07893 18.2353 6.63254 19.9605Z" fill="#2e90fa"/>
<g clip-path="url(#clip0_361_8023)">
<path d="M13.9938 15.764L13.8597 16.3123C13.4573 16.4711 13.1358 16.592 12.8965 16.6751C12.6568 16.7585 12.3784 16.8 12.0612 16.8C11.574 16.8 11.1951 16.6806 10.9249 16.4436C10.6546 16.2056 10.5195 15.904 10.5195 15.5382C10.5195 15.3966 10.5293 15.2509 10.5497 15.1025C10.5702 14.9539 10.6029 14.7865 10.6477 14.5995L11.1506 12.8195C11.1953 12.6491 11.2333 12.4876 11.2638 12.3349C11.2947 12.1831 11.3096 12.0434 11.3096 11.9177C11.3096 11.6904 11.2625 11.5314 11.1688 11.442C11.0751 11.3529 10.8963 11.3076 10.6309 11.3076C10.5009 11.3076 10.3673 11.3285 10.2311 11.3687C10.0942 11.4092 9.97732 11.4482 9.87915 11.4845L10.0136 10.9358C10.3431 10.8016 10.658 10.6868 10.9592 10.5914C11.2604 10.4959 11.545 10.448 11.8143 10.448C12.2981 10.448 12.6714 10.5649 12.9335 10.7988C13.1957 11.0328 13.3267 11.3362 13.3267 11.71C13.3267 11.7874 13.3181 11.9237 13.2996 12.1185C13.2816 12.3137 13.2479 12.4926 13.1989 12.6553L12.6981 14.4281C12.6571 14.5705 12.6202 14.7333 12.5881 14.9165C12.555 15.0984 12.5391 15.2375 12.5391 15.3307C12.5391 15.5661 12.5916 15.7269 12.6968 15.8123C12.8029 15.8977 12.9854 15.9402 13.2447 15.9402C13.3665 15.9402 13.505 15.9187 13.6589 15.8762C13.8124 15.8338 13.9244 15.7966 13.9938 15.764ZM14.1208 8.32104C14.1208 8.62992 14.0044 8.89372 13.7704 9.11062C13.5371 9.3283 13.2559 9.43723 12.927 9.43723C12.597 9.43723 12.3152 9.3283 12.0792 9.11062C11.8436 8.89363 11.7256 8.62992 11.7256 8.32104C11.7256 8.01276 11.8436 7.74854 12.0792 7.52888C12.3147 7.30957 12.5971 7.19995 12.927 7.19995C13.2558 7.19995 13.5371 7.30982 13.7704 7.52888C14.0046 7.74854 14.1208 8.01285 14.1208 8.32104Z" fill="white"/>
</g>
<defs>
<clipPath id="clip0_361_8023">
<rect width="9.6" height="9.6" fill="white" transform="translate(7.20001 7.19995)"/>
</clipPath>
</defs>
</svg>
