<svg width="20" height="20" viewBox="0 0 20 20" color="#999999" fill="none" xmlns="http://www.w3.org/2000/svg">
<path d="M5.52712 16.6337C6.80393 17.4963 8.34315 18 10 18C9.99999 18 10 18 10 18C14.4183 18 18 14.4183 18 10C18 8.2912 17.4642 6.70747 16.5515 5.40773C15.1043 3.34694 12.7095 2.00001 10 2C10 2 10 2 10 2C5.58175 2 2 5.58172 2 10C2 9.99999 2 10 2 10C2 12.7614 3.39911 15.1961 5.52712 16.6337Z" fill="currentColor"/>
<g clip-path="url(#clip0_8225_8238)">
<path d="M11.6615 13.1367L11.5498 13.5936C11.2144 13.726 10.9466 13.8267 10.7471 13.896C10.5474 13.9654 10.3154 14 10.051 14C9.64507 14 9.32931 13.9006 9.1041 13.703C8.87889 13.5047 8.76625 13.2534 8.76625 12.9485C8.76625 12.8305 8.77443 12.7091 8.79142 12.5854C8.80856 12.4616 8.8358 12.3222 8.87308 12.1663L9.29217 10.683C9.32945 10.5409 9.36114 10.4064 9.38652 10.2791C9.41226 10.1526 9.42467 10.0362 9.42467 9.93149C9.42467 9.74206 9.38545 9.60956 9.30737 9.53507C9.22929 9.46079 9.0803 9.42307 8.8591 9.42307C8.75077 9.42307 8.63942 9.44042 8.52592 9.47398C8.41191 9.50768 8.31447 9.54023 8.23267 9.57049L8.34473 9.11319C8.61927 9.00141 8.88169 8.90569 9.13271 8.82625C9.38373 8.74659 9.62091 8.70672 9.84526 8.70672C10.2484 8.70672 10.5595 8.80416 10.778 8.99904C10.9965 9.19406 11.1057 9.44688 11.1057 9.75841C11.1057 9.82287 11.0985 9.93644 11.0831 10.0988C11.068 10.2615 11.04 10.4105 10.9991 10.5461L10.5818 12.0235C10.5476 12.1421 10.5169 12.2778 10.4901 12.4304C10.4625 12.5821 10.4493 12.6979 10.4493 12.7757C10.4493 12.9718 10.4931 13.1058 10.5807 13.177C10.6691 13.2482 10.8212 13.2836 11.0373 13.2836C11.1388 13.2836 11.2542 13.2656 11.3825 13.2302C11.5104 13.1949 11.6037 13.1638 11.6615 13.1367ZM11.7674 6.93424C11.7674 7.19164 11.6704 7.41147 11.4754 7.59223C11.281 7.77363 11.0467 7.8644 10.7725 7.8644C10.4976 7.8644 10.2627 7.77363 10.066 7.59223C9.86971 7.4114 9.77133 7.19164 9.77133 6.93424C9.77133 6.67734 9.86971 6.45716 10.066 6.27411C10.2623 6.09134 10.4976 6 10.7725 6C11.0466 6 11.281 6.09156 11.4754 6.27411C11.6705 6.45716 11.7674 6.67742 11.7674 6.93424Z" fill="white"/>
</g>
<defs>
<clipPath id="clip0_8225_8238">
<rect width="8" height="8" fill="white" transform="translate(6 6)"/>
</clipPath>
</defs>
</svg>