<svg width="20" height="20" viewBox="0 0 20 20" fill="none" xmlns="http://www.w3.org/2000/svg">
<path d="M4.4089 18.2922C6.00491 19.3704 7.92893 20 10 20C10 20 9.99999 20 10 20C15.5229 20 20 15.5229 20 10C20 7.864 19.3303 5.88434 18.1894 4.25967C16.3804 1.68368 13.3868 1.23507e-05 10 0C10 0 10 0 10 0C4.47719 0 0 4.47715 0 10C0 10 0 9.99999 0 10C0 13.4518 1.74889 16.4951 4.4089 18.2922Z" fill="#fa3939"/>
<path d="M14.45 11.8778C13.7667 11.8778 13.1056 11.7667 12.4889 11.5667C12.2944 11.5 12.0778 11.55 11.9278 11.7L11.0556 12.7944C9.48333 12.0444 8.01111 10.6278 7.22778 9L8.31111 8.07778C8.46111 7.92222 8.50556 7.70556 8.44444 7.51111C8.23889 6.89444 8.13333 6.23333 8.13333 5.55C8.13333 5.25 7.88333 5 7.58333 5H5.66111C5.36111 5 5 5.13333 5 5.55C5 10.7111 9.29444 15 14.45 15C14.8444 15 15 14.65 15 14.3444V12.4278C15 12.1278 14.75 11.8778 14.45 11.8778Z" fill="white"/>
</svg>
