<svg width="24" height="24" viewBox="0 0 24 24" fill="none" xmlns="http://www.w3.org/2000/svg">
  <rect width="24" height="24" rx="4" fill="#2e90fa"/>
  <g clip-path="url(#clip0_14717_254605)">
    <path fill-rule="evenodd" clip-rule="evenodd" d="M19.0262 8.51599C18.9963 9.04313 18.3949 9.38329 18.0061 9.29016L13.712 9.0172C13.3232 8.92407 13.0835 8.53341 13.1767 8.14463C13.2698 7.75585 13.6604 7.51618 14.0492 7.6093L16.6665 7.82492C16.1128 7.3996 14.9172 6.59055 14.2402 6.37825C12.8584 5.94489 11.3664 6.02615 10.0398 6.60702C8.71316 7.1879 7.64153 8.22915 7.02276 9.53851C6.40399 10.8479 6.27987 12.3369 6.67332 13.7306C7.06678 15.1244 7.95124 16.3287 9.16337 17.1212C10.3755 17.9136 11.8334 18.2408 13.268 18.0422C13.6788 17.9853 14.4482 17.6931 14.9525 17.4886C15.2493 17.3682 15.5907 17.4302 15.8202 17.6536V17.6536C16.1789 18.0028 16.1178 18.5837 15.6651 18.7974C15.111 19.059 14.3319 19.3564 13.4665 19.4762C11.6857 19.7228 9.87586 19.3167 8.37114 18.3329C6.86643 17.3491 5.76849 15.8541 5.28006 14.124C4.79163 12.3938 4.94571 10.5454 5.71384 8.91995C6.48197 7.29454 7.81227 6.00195 9.45909 5.28086C11.1059 4.55978 12.958 4.45891 14.6734 4.99687C15.879 5.37496 16.8062 5.93501 17.6685 6.83518L17.4931 4.62642C17.4931 4.2161 17.708 3.73785 18.1617 3.73763C18.6154 3.73741 18.8882 4.22613 18.8507 4.62662L19.0262 8.51599Z" fill="#E6E6E6"/>
    <circle cx="18.2188" cy="15.8901" r="0.75" fill="#E6E6E6"/>
    <circle cx="19.1958" cy="12.3921" r="0.75" fill="#E6E6E6"/>
  </g>
  <defs>
    <clipPath id="clip0_14717_254605">
      <rect width="20" height="20" fill="white" transform="translate(2 2)"/>
    </clipPath>
  </defs>
</svg>
