<svg width="24" height="25" viewBox="0 0 24 25" fill="none" xmlns="http://www.w3.org/2000/svg">
<path fill-rule="evenodd" clip-rule="evenodd" d="M9.0523 3.46563C9.0523 2.80288 9.58956 2.26562 10.2523 2.26562H13.7732C14.436 2.26562 14.9732 2.80288 14.9732 3.46563V21.1689C14.9732 21.8316 14.436 22.3689 13.7732 22.3689H10.2523C9.58956 22.3689 9.0523 21.8316 9.0523 21.1689V3.46563ZM2 7.62822C2 6.96548 2.53726 6.42822 3.2 6.42822H6.53268C7.19542 6.42822 7.73268 6.96548 7.73268 7.62822V21.169C7.73268 21.8318 7.19542 22.369 6.53267 22.369H3.2C2.53726 22.369 2 21.8318 2 21.169V7.62822ZM17.4762 10.3132C16.8135 10.3132 16.2762 10.8505 16.2762 11.5132V21.1689C16.2762 21.8316 16.8135 22.3689 17.4762 22.3689H20.7028C21.3656 22.3689 21.9028 21.8316 21.9028 21.1689V11.5132C21.9028 10.8505 21.3656 10.3132 20.7028 10.3132H17.4762Z" fill="#28ad99"/>
</svg>
