<svg width="24" height="25" color="currentColor" viewBox="0 0 24 25" fill="none" xmlns="http://www.w3.org/2000/svg">
<path fill-rule="evenodd" clip-rule="evenodd" d="M13.8893 4.49362C13.7691 4.4838 13.6061 4.48321 13.3278 4.48321L10.6706 4.48321C10.3924 4.48321 10.2293 4.4838 10.1092 4.49362C10.0484 4.49859 10.019 4.50475 10.0086 4.50737C9.978 4.52449 9.95274 4.54975 9.93563 4.58034C9.933 4.59072 9.92684 4.62014 9.92187 4.68093C9.91206 4.80109 9.91147 4.96413 9.91147 5.2424V7.51905C9.91147 7.51875 9.91147 7.51935 9.91147 7.51905C9.91147 7.51935 9.91147 7.52055 9.91147 7.52085L9.91147 20.0465H14.087V5.2424C14.087 4.96413 14.0864 4.80109 14.0766 4.68093C14.0716 4.62014 14.0654 4.59072 14.0628 4.58034C14.0457 4.54975 14.0204 4.52449 13.9898 4.50737C13.9795 4.50475 13.95 4.49859 13.8893 4.49362ZM15.6053 10.5567L15.6053 5.21637C15.6054 4.97305 15.6054 4.74687 15.5899 4.55729C15.5731 4.3521 15.5345 4.12388 15.4192 3.89752C15.2554 3.57611 14.9941 3.31479 14.6727 3.15103C14.4463 3.03569 14.2181 2.99706 14.0129 2.9803C13.8233 2.96481 13.5971 2.96483 13.3538 2.96485L10.6446 2.96485C10.4013 2.96483 10.1751 2.96481 9.98554 2.9803C9.78035 2.99706 9.55213 3.03569 9.32577 3.15103C9.00436 3.31479 8.74304 3.57611 8.57928 3.89752C8.46394 4.12388 8.42531 4.35209 8.40855 4.55729C8.39306 4.74687 8.39308 4.97305 8.3931 5.21637C8.3931 5.22502 8.3931 5.2337 8.3931 5.2424V6.76076H4.97677C4.96807 6.76076 4.95938 6.76076 4.95072 6.76076C4.70741 6.76074 4.48124 6.76073 4.29166 6.77621C4.08647 6.79298 3.85825 6.83161 3.63189 6.94694C3.31048 7.11071 3.04917 7.37203 2.8854 7.69344C2.77006 7.9198 2.73144 8.14801 2.71467 8.35321C2.69918 8.54279 2.6992 8.76896 2.69922 9.01227V19.3133C2.6992 19.5567 2.69918 19.7828 2.71467 19.9724C2.73144 20.1776 2.77006 20.4058 2.8854 20.6322C3.04917 20.9536 3.31048 21.2149 3.6319 21.3787C3.85825 21.494 4.08647 21.5326 4.29166 21.5494C4.48123 21.5649 4.70738 21.5649 4.95067 21.5648H19.0478C19.2911 21.5649 19.5172 21.5649 19.7068 21.5494C19.912 21.5326 20.1402 21.494 20.3665 21.3787C20.688 21.2149 20.9493 20.9536 21.113 20.6322C21.2284 20.4058 21.267 20.1776 21.2838 19.9724C21.2993 19.7828 21.2992 19.5567 21.2992 19.3134V12.8081C21.2992 12.5648 21.2993 12.3387 21.2838 12.1491C21.267 11.9439 21.2284 11.7157 21.113 11.4894C20.9493 11.1679 20.688 10.9066 20.3665 10.7429C20.1402 10.6275 19.912 10.5889 19.7068 10.5721C19.5172 10.5566 19.291 10.5567 19.0477 10.5567L15.6053 10.5567ZM15.6053 12.075V20.0465H19.0217C19.2999 20.0465 19.463 20.0459 19.5831 20.0361C19.6439 20.0311 19.6733 20.0249 19.6837 20.0223C19.7143 20.0052 19.7396 19.9799 19.7567 19.9493C19.7593 19.939 19.7655 19.9095 19.7704 19.8488C19.7803 19.7286 19.7809 19.5656 19.7809 19.2873V12.8342C19.7809 12.556 19.7803 12.3929 19.7704 12.2728C19.7655 12.212 19.7593 12.1826 19.7567 12.1722C19.7396 12.1416 19.7143 12.1163 19.6837 12.0992C19.6733 12.0966 19.6439 12.0904 19.5831 12.0855C19.463 12.0756 19.2999 12.075 19.0217 12.075H15.6053ZM19.6883 12.1005C19.6883 12.1005 19.6879 12.1004 19.6872 12.1002L19.6883 12.1005ZM19.7554 19.9539C19.7554 19.9539 19.7555 19.9535 19.7557 19.9529L19.7554 19.9539ZM8.3931 8.27913H4.97677C4.69851 8.27913 4.53546 8.27972 4.41531 8.28954C4.35451 8.29451 4.32509 8.30067 4.31472 8.30329C4.28412 8.32041 4.25886 8.34567 4.24175 8.37626C4.23912 8.38664 4.23296 8.41606 4.228 8.47685C4.21818 8.59701 4.21759 8.76005 4.21759 9.03832V19.2873C4.21759 19.5656 4.21818 19.7286 4.228 19.8488C4.23296 19.9095 4.23912 19.939 4.24175 19.9493C4.25887 19.9799 4.28413 20.0052 4.31472 20.0223C4.3251 20.0249 4.35452 20.0311 4.41531 20.0361C4.53546 20.0459 4.69851 20.0465 4.97677 20.0465H8.3931L8.3931 8.27913ZM4.31019 20.021C4.3102 20.021 4.31056 20.0211 4.31121 20.0214L4.31019 20.021ZM9.93691 4.57581C9.93691 4.57582 9.93681 4.57617 9.93658 4.57681L9.93691 4.57581Z" fill="currentColor"/>
</svg>
