<?xml version="1.0" encoding="utf-8"?>
<!-- Generator: Adobe Illustrator 23.0.0, SVG Export Plug-In . SVG Version: 6.00 Build 0)  -->
<svg version="1.1" id="Слой_1" xmlns="http://www.w3.org/2000/svg" xmlns:xlink="http://www.w3.org/1999/xlink" x="0px" y="0px"
	 viewBox="0 0 12 12" style="enable-background:new 0 0 12 12;" xml:space="preserve">
<style type="text/css">
	.st0{fill:#FFFFFF;}
</style>
<title>Inspections</title>
<desc>Created with Sketch.</desc>
<path id="inspections" class="st0" d="M4.8,0c1.3,0,2.5,0.5,3.4,1.4c0.9,0.9,1.4,2.1,1.4,3.4C9.6,5.6,9.4,6.4,9,7L8.9,7.2l2.7,2.7
	c0.2,0.2,0.4,0.5,0.4,0.8c0,0.3-0.1,0.6-0.4,0.8c-0.2,0.2-0.5,0.4-0.8,0.4c-0.3,0-0.5-0.1-0.8-0.3L10,11.6L7.2,8.9
	C6.5,9.4,5.7,9.6,4.8,9.6c-1.3,0-2.5-0.5-3.4-1.4C0.5,7.3,0,6.1,0,4.8s0.5-2.5,1.4-3.4C2.3,0.5,3.5,0,4.8,0z M4.8,1.6
	C3,1.6,1.6,3,1.6,4.8S3,8,4.8,8S8,6.6,8,4.8S6.6,1.6,4.8,1.6z M6.3,3.3L7,4L4.2,6.6L2.6,5.1l0.7-0.7l0.9,0.9L6.3,3.3z"/>
</svg>
