<?xml version="1.0" encoding="UTF-8"?>
<svg width="54px" height="54px" viewBox="0 0 54 54" version="1.1" xmlns="http://www.w3.org/2000/svg" xmlns:xlink="http://www.w3.org/1999/xlink">
    <title>Inspection</title>
    <g id="New-Property-Menu" stroke="none" stroke-width="1" fill="none" fill-rule="evenodd">
        <g id="Pre-defined-Topic-Icons" transform="translate(-416.000000, -247.000000)" fill="#FFFFFF">
            <path d="M440.264348,247 C453.64324,247 464.528171,257.885456 464.528171,271.265398 C464.528171,276.64233 462.713142,281.568388 459.738424,285.596369 L459.738424,285.596369 L468.931006,294.789476 C470.352831,296.211301 470.358074,298.511806 468.936249,299.933631 C467.513899,301.355456 465.209201,301.355456 463.787375,299.933631 L463.787375,299.933631 L454.594794,290.740524 C450.566813,293.715243 445.64128,295.530272 440.264348,295.530272 C426.884931,295.530272 416,284.64534 416,271.265398 C416,257.885456 426.884931,247 440.264348,247 Z M440.000262,254 C430.625928,254 423,261.625693 423,271.000262 C423,280.374307 430.625928,288 440.000262,288 C449.374072,288 457,280.374307 457,271.000262 C457,261.625693 449.374072,254 440.000262,254 Z M446.295662,264.745555 C447.297832,263.743384 448.917709,263.743384 449.919879,264.745555 C450.92205,265.747725 450.92205,267.367602 449.919879,268.369772 L449.919879,268.369772 L439.047227,279.242424 C438.56691,279.723559 437.914968,279.993927 437.235119,279.993927 C436.555269,279.993927 435.903327,279.723559 435.42301,279.242424 L435.42301,279.242424 L429.984121,273.806098 C428.98195,272.806491 428.98195,271.184051 429.984121,270.181881 C430.986291,269.17971 432.608731,269.17971 433.608338,270.181881 L433.608338,270.181881 L437.235119,273.806098 Z" id="Inspection"></path>
        </g>
    </g>
</svg>