<svg width="24" height="24" viewBox="0 0 24 24" fill="none" xmlns="http://www.w3.org/2000/svg">
<rect width="24" height="24" rx="12" fill="#f1c012"/>
<path d="M8.77083 8.20833C8.44883 8.20833 8.1875 7.947 8.1875 7.625V5.58333C8.1875 5.26133 8.44883 5 8.77083 5C9.09283 5 9.35417 5.26133 9.35417 5.58333V7.625C9.35417 7.947 9.09283 8.20833 8.77083 8.20833Z" fill="white"/>
<path d="M11.5417 8.20833C11.2197 8.20833 10.9584 7.947 10.9584 7.625V5.58333C10.9584 5.26133 11.2197 5 11.5417 5C11.8637 5 12.125 5.26133 12.125 5.58333V7.625C12.125 7.947 11.8637 8.20833 11.5417 8.20833Z" fill="white"/>
<path d="M14.3125 8.20833C13.9905 8.20833 13.7291 7.947 13.7291 7.625V5.58333C13.7291 5.26133 13.9905 5 14.3125 5C14.6345 5 14.8958 5.26133 14.8958 5.58333V7.625C14.8958 7.947 14.6345 8.20833 14.3125 8.20833Z" fill="white"/>
<path d="M15.4792 6.3125H7.60417C6.71925 6.3125 6 7.03175 6 7.91667V17.3958C6 18.2807 6.71925 19 7.60417 19H15.4792C16.3641 19 17.0833 18.2807 17.0833 17.3958V7.91667C17.0833 7.03175 16.3641 6.3125 15.4792 6.3125ZM8.91667 9.66667H11.8333C12.1553 9.66667 12.4167 9.928 12.4167 10.25C12.4167 10.572 12.1553 10.8333 11.8333 10.8333H8.91667C8.59467 10.8333 8.33333 10.572 8.33333 10.25C8.33333 9.928 8.59467 9.66667 8.91667 9.66667ZM14.75 15.5H8.91667C8.59467 15.5 8.33333 15.2387 8.33333 14.9167C8.33333 14.5947 8.59467 14.3333 8.91667 14.3333H14.75C15.072 14.3333 15.3333 14.5947 15.3333 14.9167C15.3333 15.2387 15.072 15.5 14.75 15.5ZM14.75 13.1667H8.91667C8.59467 13.1667 8.33333 12.9053 8.33333 12.5833C8.33333 12.2613 8.59467 12 8.91667 12H14.75C15.072 12 15.3333 12.2613 15.3333 12.5833C15.3333 12.9053 15.072 13.1667 14.75 13.1667Z" fill="white"/>
</svg>
