<svg width="24" height="24" viewBox="0 0 24 24" fill="none" xmlns="http://www.w3.org/2000/svg">
<g id="Note" opacity="0.7">
<g id="Group">
<path id="Vector (Stroke)" fill-rule="evenodd" clip-rule="evenodd" d="M6.39828 1.3938L17.6022 1.3938C18.3981 1.39438 19.1618 1.71082 19.7246 2.27363C20.2875 2.83645 20.6039 3.59962 20.6045 4.39556L19.8845 4.39608C20.6045 4.39608 20.6045 4.39556 20.6045 4.39556V22.1727L16.7842 19.829L14.4445 21.8042L11.814 19.8526L9.39004 21.7983L6.7884 19.8385L3.396 22.2974V4.39608C3.39657 3.60014 3.71302 2.83645 4.27583 2.27363C4.83864 1.71082 5.60234 1.39438 6.39828 1.3938ZM6.39854 2.8338C5.98424 2.83417 5.58702 2.99891 5.29406 3.29187C5.00111 3.58482 4.83637 3.98204 4.836 4.39634V19.4752L6.80488 18.048L9.36197 19.9743L11.7793 18.0339L14.3868 19.9684L16.6504 18.0575L19.1645 19.5999V4.39723C19.1642 3.98284 18.9994 3.58488 18.7064 3.29187C18.4135 2.99891 18.0162 2.83417 17.6019 2.8338H6.39854Z" fill="#202020"/>
<path id="Vector" d="M7.9097 6.68506H12.446C12.6866 6.68506 12.9174 6.76433 13.0876 6.90543C13.2577 7.04653 13.3533 7.23791 13.3533 7.43746C13.3533 7.63701 13.2577 7.82838 13.0876 7.96949C12.9174 8.11059 12.6866 8.18986 12.446 8.18986H7.9097C7.66908 8.18986 7.43832 8.11059 7.26817 7.96949C7.09803 7.82838 7.00244 7.63701 7.00244 7.43746C7.00244 7.23791 7.09803 7.04653 7.26817 6.90543C7.43832 6.76433 7.9097 6.68506 7.9097 6.68506ZM16.9823 14.2091H7.9097C7.66908 14.2091 7.43832 14.1298 7.26817 13.9887C7.09803 13.8476 7.00244 13.6562 7.00244 13.4567C7.00244 13.2571 7.09803 13.0657 7.26817 12.9246C7.43832 12.7835 7.66908 12.7043 7.9097 12.7043H16.9823C17.223 12.7043 17.4537 12.7835 17.6239 12.9246C17.794 13.0657 17.8896 13.2571 17.8896 13.4567C17.8896 13.6562 17.794 13.8476 17.6239 13.9887C17.4537 14.1298 17.223 14.2091 16.9823 14.2091ZM16.9823 11.1995H7.9097C7.66908 11.1995 7.43832 11.1202 7.26817 10.9791C7.09803 10.838 7.00244 10.6466 7.00244 10.4471C7.00244 10.2475 7.09803 10.0561 7.26817 9.91503C7.43832 9.77393 7.66908 9.69466 7.9097 9.69466H16.9823C17.223 9.69466 17.4537 9.77393 17.6239 9.91503C17.794 10.0561 17.8896 10.2475 17.8896 10.4471C17.8896 10.6466 17.794 10.838 17.6239 10.9791C17.4537 11.1202 17.223 11.1995 16.9823 11.1995Z" fill="#202020"/>
</g>
</g>
</svg>
