<svg width="18" height="18" viewBox="0 0 18 18" fill="none" xmlns="http://www.w3.org/2000/svg">
<path fill-rule="evenodd" clip-rule="evenodd" d="M12.4998 3.43108C12.4998 3.70722 12.7236 3.93108 12.9998 3.93108H15.4308C15.707 3.93108 15.9308 3.70722 15.9308 3.43108V1.00002C15.9308 0.723881 15.707 0.500024 15.4308 0.500024C15.1547 0.500024 14.9308 0.723881 14.9308 1.00002V2.93108H12.9998C12.7236 2.93108 12.4998 3.15494 12.4998 3.43108Z" fill="#202020"/>
<path fill-rule="evenodd" clip-rule="evenodd" d="M2.99963 17.5326C3.27577 17.5326 3.49963 17.3087 3.49963 17.0326V15.1015H5.43069C5.70683 15.1015 5.93069 14.8777 5.93069 14.6015C5.93069 14.3254 5.70683 14.1015 5.43069 14.1015H2.99963C2.72349 14.1015 2.49963 14.3254 2.49963 14.6015V17.0326C2.49963 17.3087 2.72349 17.5326 2.99963 17.5326Z" fill="#202020"/>
<path fill-rule="evenodd" clip-rule="evenodd" d="M2.03275 13.5999C2.27177 13.4616 2.35342 13.1557 2.21512 12.9167C1.54822 11.7641 1.16479 10.4277 1.16479 9.00009C1.16479 4.67291 4.67264 1.16507 8.99981 1.16507C11.1633 1.16507 13.1197 2.0428 14.5378 3.46187C14.733 3.6572 15.0496 3.65731 15.2449 3.46211C15.4402 3.26692 15.4403 2.95034 15.2451 2.75501C13.6475 1.15632 11.4399 0.16507 8.99981 0.16507C4.12035 0.16507 0.164795 4.12063 0.164795 9.00009C0.164795 10.6093 0.597512 12.1177 1.34957 13.4175C1.48786 13.6565 1.79374 13.7382 2.03275 13.5999Z" fill="#202020"/>
<path fill-rule="evenodd" clip-rule="evenodd" d="M2.75456 15.2452C4.35211 16.8439 6.55984 17.8351 8.99988 17.8351C13.8793 17.8351 17.8349 13.8796 17.8349 9.00011C17.8349 7.39086 17.4022 5.88248 16.6501 4.5827C16.5118 4.34369 16.2059 4.26205 15.9669 4.40035C15.7279 4.53865 15.6463 4.84452 15.7846 5.08354C16.4515 6.23612 16.8349 7.57244 16.8349 9.00011C16.8349 13.3273 13.3271 16.8351 8.99988 16.8351C6.83637 16.8351 4.87997 15.9574 3.46191 14.5383C3.26672 14.343 2.95014 14.3429 2.75481 14.5381C2.55948 14.7333 2.55936 15.0499 2.75456 15.2452Z" fill="#202020"/>
<path fill-rule="evenodd" clip-rule="evenodd" d="M7.46222 13.1503C7.46222 13.4265 7.68608 13.6503 7.96222 13.6503H10.0373C10.3135 13.6503 10.5373 13.4265 10.5373 13.1503V12.4574C10.7812 12.3486 11.011 12.2148 11.2239 12.0596L11.8252 12.4068C11.9401 12.4731 12.0765 12.4911 12.2046 12.4567C12.3327 12.4224 12.4419 12.3386 12.5082 12.2238L13.5458 10.4267C13.6121 10.3118 13.6301 10.1753 13.5957 10.0472C13.5614 9.91915 13.4776 9.80995 13.3628 9.74364L12.7646 9.3983C12.7783 9.26735 12.7854 9.13449 12.7854 9.00011C12.7854 8.86572 12.7783 8.73287 12.7646 8.60192L13.3628 8.25658C13.4776 8.19027 13.5614 8.08106 13.5957 7.95297C13.6301 7.82488 13.6121 7.6884 13.5458 7.57356L12.5082 5.77645C12.4419 5.6616 12.3327 5.5778 12.2046 5.54348C12.0765 5.50916 11.9401 5.52713 11.8252 5.59343L11.2239 5.94062C11.011 5.7854 10.7812 5.65165 10.5373 5.54288V4.84989C10.5373 4.57375 10.3135 4.34989 10.0373 4.34989H7.96222C7.68608 4.34989 7.46222 4.57375 7.46222 4.84989V5.54288C7.21835 5.65165 6.98856 5.7854 6.77568 5.94062L6.17433 5.59343C6.05949 5.52713 5.92301 5.50916 5.79492 5.54348C5.66683 5.5778 5.55762 5.6616 5.49132 5.77645L4.45376 7.57356C4.38746 7.6884 4.36949 7.82488 4.40381 7.95297C4.43814 8.08106 4.52194 8.19027 4.63679 8.25658L5.23496 8.60192C5.22123 8.73287 5.21419 8.86572 5.21419 9.00011C5.21419 9.13449 5.22123 9.26735 5.23496 9.3983L4.63679 9.74364C4.52194 9.80995 4.43814 9.91915 4.40381 10.0472C4.36949 10.1753 4.38746 10.3118 4.45376 10.4267L5.49132 12.2238C5.55762 12.3386 5.66683 12.4224 5.79492 12.4567C5.92301 12.4911 6.05949 12.4731 6.17433 12.4068L6.77568 12.0596C6.98855 12.2148 7.21834 12.3486 7.46222 12.4574V13.1503ZM8.46222 12.6503V12.1158C8.46222 11.9005 8.32442 11.7094 8.12015 11.6414C7.76027 11.5216 7.43312 11.3295 7.15383 11.0816C6.99281 10.9387 6.75838 10.9149 6.57192 11.0225L6.10734 11.2908L5.56979 10.3597L6.03069 10.0936C6.21702 9.98603 6.31364 9.77132 6.27058 9.56052C6.23368 9.37984 6.21419 9.19249 6.21419 9.00011C6.21419 8.80773 6.23368 8.62038 6.27058 8.4397C6.31364 8.2289 6.21702 8.01419 6.03069 7.90662L5.56979 7.64053L6.10734 6.70946L6.57192 6.97768C6.75838 7.08533 6.99281 7.06153 7.15383 6.91861C7.4331 6.67073 7.76026 6.47865 8.12019 6.3588C8.32443 6.29078 8.46222 6.09968 8.46222 5.8844V5.34989H9.53733V5.8844C9.53733 6.09968 9.67512 6.29078 9.87937 6.3588C10.2393 6.47865 10.5665 6.67073 10.8457 6.91861C11.0067 7.06153 11.2412 7.08533 11.4276 6.97768L11.8922 6.70946L12.4298 7.64053L11.9689 7.90662C11.7825 8.01419 11.6859 8.2289 11.729 8.4397C11.7659 8.62038 11.7854 8.80773 11.7854 9.00011C11.7854 9.19249 11.7659 9.37984 11.729 9.56052C11.6859 9.77132 11.7825 9.98603 11.9689 10.0936L12.4298 10.3597L11.8922 11.2908L11.4276 11.0225C11.2412 10.9149 11.0067 10.9387 10.8457 11.0816C10.5664 11.3295 10.2393 11.5216 9.8794 11.6414C9.67514 11.7094 9.53733 11.9005 9.53733 12.1158V12.6503H8.46222Z" fill="#202020"/>
<path fill-rule="evenodd" clip-rule="evenodd" d="M7.11641 9.00011C7.11641 10.0403 7.95961 10.8835 8.99981 10.8835C10.04 10.8835 10.8832 10.0403 10.8832 9.00011C10.8832 7.95995 10.04 7.1167 8.99981 7.1167C7.95961 7.1167 7.11641 7.95995 7.11641 9.00011ZM8.99981 9.88351C8.51191 9.88351 8.11641 9.488 8.11641 9.00011C8.11641 8.51222 8.51191 8.1167 8.99981 8.1167C9.48772 8.1167 9.88322 8.51222 9.88322 9.00011C9.88322 9.488 9.48772 9.88351 8.99981 9.88351Z" fill="#202020"/>
</svg>
