<svg width="14" height="11" viewBox="0 0 14 11" fill="none" xmlns="http://www.w3.org/2000/svg">
<path d="M1.28113 7.32181V3.07897C0.947912 2.90889 0.725764 2.55493 0.725764 2.14582C0.725764 1.57582 1.16562 1.11154 1.72099 1.11154C2.27636 1.11154 2.7251 1.57582 2.7251 2.15042C2.7251 2.30211 2.694 2.4538 2.6318 2.59171L4.97768 5.21648L6.42609 2.21937C6.27503 2.0355 6.19061 1.80106 6.19061 1.55283C6.19061 0.982831 6.63935 0.518555 7.19472 0.518555C7.75009 0.518555 8.19883 0.982831 8.19883 1.55283C8.19883 1.80106 8.10997 2.0355 7.96335 2.21937L9.41176 5.21648L11.7621 2.59171C11.6999 2.4538 11.6688 2.30211 11.6688 2.15042C11.6688 1.57582 12.1175 1.11154 12.6729 1.11154C13.2283 1.11154 13.677 1.57582 13.677 2.15042C13.677 2.55493 13.4504 2.90889 13.1216 3.07897V7.32641H1.28113V7.32181ZM13.4415 8.18141H0.947912C0.716878 8.18141 0.530273 8.37448 0.530273 8.61351V10.4568C0.530273 10.6959 0.716878 10.8889 0.947912 10.8889H13.446C13.677 10.8889 13.8636 10.6959 13.8636 10.4568V8.61351C13.8592 8.37448 13.6726 8.18141 13.4415 8.18141Z" fill="#FEC006"/>
</svg>
