<svg width="20" height="20" viewBox="0 0 20 20" fill="none" xmlns="http://www.w3.org/2000/svg">
<g id="last">
<g id="Vector">
<path fill-rule="evenodd" clip-rule="evenodd" d="M5.6095 15.304C5.37519 15.0697 5.37519 14.6898 5.6095 14.4555L10.1852 9.87976L5.6095 5.30402C5.37519 5.0697 5.37519 4.68981 5.6095 4.45549C5.84382 4.22118 6.22372 4.22118 6.45803 4.45549L11.458 9.45549C11.6923 9.68981 11.6923 10.0697 11.458 10.304L6.45803 15.304C6.22372 15.5383 5.84382 15.5383 5.6095 15.304Z" fill="currentColor"/>
<path fill-rule="evenodd" clip-rule="evenodd" d="M13.9662 16.0798C13.6348 16.0798 13.3662 15.8111 13.3662 15.4798L13.3662 4.40012C13.3662 4.06875 13.6348 3.80012 13.9662 3.80012C14.2975 3.80012 14.5662 4.06875 14.5662 4.40012L14.5662 15.4798C14.5662 15.8111 14.2975 16.0798 13.9662 16.0798Z" fill="currentColor"/>
</g>
</g>
</svg>
