<svg width="16" height="16" viewBox="0 0 16 16" fill="none" xmlns="http://www.w3.org/2000/svg">
  <path fill-rule="evenodd" clip-rule="evenodd" d="M13.8678 1.55173C13.8637 1.57144 13.8574 1.59511 13.8509 1.61406L12.0532 7.00725C11.9054 6.99264 11.7555 6.98517 11.6039 6.98517C11.4118 6.98517 11.2226 6.99717 11.0368 7.02045L12.2987 3.23485L7.60718 7.92637L7.96177 8.83254C7.71417 9.17024 7.51241 9.54364 7.36565 9.94359L6.67532 8.17941L1.02774 5.96947C0.83955 5.89583 0.717638 5.7122 0.722815 5.51018C0.727992 5.30815 0.859149 5.13101 1.05087 5.0671L13.2354 1.00559C13.2523 0.999567 13.2694 0.994519 13.2868 0.990445C13.3226 0.981951 13.3596 0.977534 13.3971 0.977539C13.4304 0.977534 13.459 0.98018 13.4911 0.986924C13.5179 0.992544 13.5483 1.00127 13.5735 1.01127C13.6003 1.02183 13.6257 1.03459 13.6495 1.04927C13.6815 1.06902 13.7107 1.09225 13.7366 1.11828C13.7626 1.1442 13.7858 1.1733 13.8055 1.20526C13.833 1.24978 13.8526 1.29783 13.8643 1.34737C13.8728 1.3832 13.8772 1.4202 13.8772 1.45767C13.8772 1.49098 13.8745 1.51965 13.8678 1.55173ZM2.61219 5.55859L11.6199 2.55603L6.92836 7.24755L2.61219 5.55859Z" fill="#28ad99"/>
  <path fill-rule="evenodd" clip-rule="evenodd" d="M11.48 9.50366C11.723 9.50366 11.92 9.70066 11.92 9.94366V11.3301L12.7814 12.2797C12.9446 12.4597 12.9311 12.738 12.7511 12.9012C12.5711 13.0645 12.2928 13.0509 12.1296 12.8709L11.1541 11.7956C11.0807 11.7146 11.04 11.6092 11.04 11.5V9.94366C11.04 9.70066 11.237 9.50366 11.48 9.50366Z" fill="#28ad99"/>
  <path fill-rule="evenodd" clip-rule="evenodd" d="M11.5734 14.0626C13.0891 14.0626 14.3177 12.8339 14.3177 11.3183C14.3177 9.80267 13.0891 8.57401 11.5734 8.57401C10.0578 8.57401 8.82914 9.80267 8.82914 11.3183C8.82914 12.8339 10.0578 14.0626 11.5734 14.0626ZM11.5734 15.0226C13.6193 15.0226 15.2777 13.3641 15.2777 11.3183C15.2777 9.27248 13.6193 7.61401 11.5734 7.61401C9.52761 7.61401 7.86914 9.27248 7.86914 11.3183C7.86914 13.3641 9.52761 15.0226 11.5734 15.0226Z" fill="#28ad99"/>
</svg>
