<svg xmlns="http://www.w3.org/2000/svg" width="24" height="27" viewBox="0 0 26 28">
  <g fill="none" fill-rule="evenodd">
    <path d="M-3.5-2.5h33v33h-33z"/>
    <path fill="#009FA9" d="M22.45.5c1.49 0 2.7 1.21 2.7 2.7v21.6c0 1.489-1.21 2.7-2.7 2.7H6.25c-1.49 0-2.7-1.211-2.7-2.7v-2.7H.85v-2.7h5.4v-1.35h-2.7v-2.7H.85v-2.7h5.4V11.3h-2.7V8.6H.85V5.9h5.4V4.55h-2.7V3.2c0-1.49 1.21-2.7 2.7-2.7zm-7.804 7.848L8.96 13.873a.601.601 0 0 0-.137.67c.098.229.329.378.584.378h1.263v4.186c0 .4.315.725.724.725h7.398c.4 0 .723-.322.723-.725v-4.186h1.264c.255 0 .486-.15.584-.379a.601.601 0 0 0-.137-.669L15.54 8.348a.644.644 0 0 0-.894 0z"/>
  </g>
</svg>
