<svg xmlns="http://www.w3.org/2000/svg" width="24" height="24" viewBox="0 0 24 24" fill="none">
  <rect width="24" height="24" rx="4" fill="#D6D9DB"/>
  <path d="M9.47705 14.4575L13.631 9.00857L14.6035 9.74994L10.4495 15.1988L9.47705 14.4575Z" fill="#3D3D3D"/>
  <path d="M7.83668 11.4143L8.95449 12.2665L7.01063 14.8147C6.63751 15.3163 6.47855 15.9448 6.56824 16.5627C6.65803 17.1806 6.9894 17.7379 7.4897 18.1125C7.99011 18.4872 8.61892 18.649 9.23881 18.5624C9.85857 18.4758 10.419 18.1479 10.7976 17.6504L12.7151 15.1334L13.8329 15.9855L11.9219 18.4923C11.3162 19.2785 10.4243 19.7948 9.43992 19.9294C8.45545 20.0639 7.45782 19.8057 6.66345 19.2109C5.86908 18.616 5.34191 17.7325 5.19644 16.7519C5.051 15.7713 5.29891 14.7728 5.88635 13.9729L7.16417 12.2967L7.18029 12.2753L7.83668 11.4143Z" fill="#3D3D3D"/>
  <path d="M15.6838 11.1145L15.6858 11.1161L16.9941 9.39991C17.1824 9.15189 17.3198 8.86911 17.3985 8.56781C17.4771 8.26651 17.4954 7.95265 17.4523 7.64426C17.4092 7.33587 17.3056 7.03903 17.1474 6.77082C16.9892 6.50261 16.7796 6.2683 16.5305 6.08138C16.2815 5.89446 15.998 5.75861 15.6962 5.68163C15.3945 5.60466 15.0806 5.58808 14.7724 5.63285C14.4643 5.67762 14.168 5.78285 13.9007 5.9425C13.6333 6.10216 13.4002 6.31308 13.2146 6.56314L11.9278 8.25112L11.9299 8.25276L10.869 9.64438L9.75121 8.79222L10.5835 7.70044C10.5863 7.69674 10.5891 7.69306 10.5919 7.68941L12.0926 5.72098C12.6967 4.93499 13.5864 4.41891 14.5686 4.28469C15.5508 4.15047 16.5463 4.40894 17.3392 5.00403C18.132 5.59911 18.6583 6.48281 18.8037 7.46342C18.9492 8.44403 18.7021 9.44244 18.1162 10.2421L15.7407 13.3583L14.6229 12.5062L15.6838 11.1145Z" fill="#3D3D3D"/>
</svg>
