<svg width="20" height="20" viewBox="0 0 20 20" fill="none" xmlns="http://www.w3.org/2000/svg">
<path d="M12.9424 7.05813C13.0005 7.11617 13.0466 7.1851 13.0781 7.26098C13.1095 7.33685 13.1257 7.41818 13.1257 7.50032C13.1257 7.58245 13.1095 7.66378 13.0781 7.73965C13.0466 7.81553 13.0005 7.88446 12.9424 7.9425L7.94241 12.9425C7.88434 13.0006 7.8154 13.0466 7.73953 13.0781C7.66366 13.1095 7.58234 13.1257 7.50022 13.1257C7.4181 13.1257 7.33678 13.1095 7.26091 13.0781C7.18504 13.0466 7.1161 13.0006 7.05803 12.9425C6.99997 12.8844 6.9539 12.8155 6.92248 12.7396C6.89105 12.6638 6.87488 12.5824 6.87488 12.5003C6.87488 12.4182 6.89105 12.3369 6.92248 12.261C6.9539 12.1851 6.99997 12.1162 7.05803 12.0581L12.058 7.05813C12.1161 7.00002 12.185 6.95392 12.2609 6.92246C12.3368 6.89101 12.4181 6.87482 12.5002 6.87482C12.5824 6.87482 12.6637 6.89101 12.7396 6.92246C12.8154 6.95392 12.8844 7.00002 12.9424 7.05813ZM16.844 3.15657C16.4377 2.75026 15.9554 2.42796 15.4246 2.20807C14.8937 1.98818 14.3248 1.875 13.7502 1.875C13.1757 1.875 12.6067 1.98818 12.0759 2.20807C11.545 2.42796 11.0627 2.75026 10.6565 3.15657L8.30803 5.50422C8.19076 5.6215 8.12488 5.78056 8.12488 5.94641C8.12488 6.11226 8.19076 6.27132 8.30803 6.3886C8.42531 6.50587 8.58437 6.57176 8.75022 6.57176C8.91607 6.57176 9.07513 6.50587 9.19241 6.3886L11.5408 4.04485C12.129 3.46957 12.9204 3.14947 13.7431 3.154C14.5658 3.15853 15.3536 3.48733 15.9354 4.06905C16.5172 4.65076 16.8462 5.43846 16.8508 6.26119C16.8555 7.08392 16.5355 7.8753 15.9604 8.4636L13.6112 10.812C13.4939 10.9292 13.428 11.0882 13.4279 11.2539C13.4278 11.4197 13.4936 11.5787 13.6108 11.696C13.7279 11.8133 13.8869 11.8792 14.0527 11.8793C14.2185 11.8794 14.3775 11.8136 14.4948 11.6964L16.844 9.34406C17.2503 8.9378 17.5726 8.45549 17.7925 7.92466C18.0124 7.39383 18.1255 6.82489 18.1255 6.25032C18.1255 5.67574 18.0124 5.1068 17.7925 4.57597C17.5726 4.04514 17.2503 3.56283 16.844 3.15657ZM10.808 13.6113L8.4596 15.9597C8.1706 16.2552 7.82585 16.4904 7.44531 16.6517C7.06478 16.8131 6.65602 16.8973 6.2427 16.8996C5.82938 16.9019 5.41972 16.8221 5.03743 16.665C4.65515 16.5079 4.30783 16.2765 4.01559 15.9842C3.72335 15.6919 3.492 15.3445 3.33493 14.9622C3.17786 14.5799 3.09819 14.1702 3.10054 13.7569C3.10289 13.3436 3.18721 12.9348 3.34862 12.5543C3.51002 12.1738 3.74531 11.8291 4.04085 11.5402L6.3885 9.1925C6.50578 9.07523 6.57166 8.91617 6.57166 8.75032C6.57166 8.58446 6.50578 8.4254 6.3885 8.30813C6.27123 8.19085 6.11217 8.12497 5.94632 8.12497C5.78046 8.12497 5.6214 8.19085 5.50413 8.30813L3.15647 10.6566C2.33596 11.4771 1.875 12.5899 1.875 13.7503C1.875 14.9107 2.33596 16.0236 3.15647 16.8441C3.97699 17.6646 5.08984 18.1255 6.25022 18.1255C7.4106 18.1255 8.52346 17.6646 9.34397 16.8441L11.6924 14.4948C11.8096 14.3776 11.8754 14.2186 11.8753 14.0528C11.8752 13.887 11.8093 13.728 11.692 13.6109C11.5747 13.4937 11.4157 13.4279 11.2499 13.428C11.0842 13.4281 10.9252 13.494 10.808 13.6113Z" fill="#333741"/>
</svg>
