<svg xmlns="http://www.w3.org/2000/svg" width="24" height="24" viewBox="0 0 24 24" fill="none">
  <path d="M9.47693 14.4575L13.6309 9.00857L14.6034 9.74994L10.4494 15.1988L9.47693 14.4575Z" fill="#999999"/>
  <path d="M7.83656 11.4143L8.95436 12.2665L7.01051 14.8147C6.63738 15.3163 6.47843 15.9448 6.56812 16.5627C6.65791 17.1806 6.98928 17.7379 7.48958 18.1125C7.98998 18.4872 8.6188 18.649 9.23869 18.5624C9.85845 18.4758 10.4189 18.1479 10.7975 17.6504L12.715 15.1334L13.8328 15.9855L11.9217 18.4923C11.316 19.2785 10.4242 19.7948 9.4398 19.9294C8.45533 20.0639 7.4577 19.8057 6.66333 19.2109C5.86896 18.616 5.34179 17.7325 5.19632 16.7519C5.05087 15.7713 5.29878 14.7728 5.88622 13.9729L7.16405 12.2967L7.18017 12.2753L7.83656 11.4143Z" fill="#999999"/>
  <path d="M15.6837 11.1145L15.6857 11.1161L16.994 9.39991C17.1823 9.15189 17.3197 8.86911 17.3983 8.56781C17.477 8.26651 17.4953 7.95265 17.4522 7.64426C17.4091 7.33587 17.3055 7.03903 17.1473 6.77082C16.9891 6.50261 16.7795 6.2683 16.5304 6.08138C16.2814 5.89446 15.9978 5.75861 15.6961 5.68163C15.3944 5.60466 15.0804 5.58808 14.7723 5.63285C14.4641 5.67762 14.1679 5.78285 13.9005 5.9425C13.6332 6.10216 13.4 6.31308 13.2145 6.56314L11.9277 8.25112L11.9298 8.25276L10.8689 9.64438L9.75109 8.79222L10.5834 7.70044C10.5862 7.69674 10.589 7.69306 10.5918 7.68941L12.0924 5.72098C12.6966 4.93499 13.5862 4.41891 14.5685 4.28469C15.5507 4.15047 16.5462 4.40894 17.339 5.00403C18.1319 5.59911 18.6581 6.48281 18.8036 7.46342C18.9491 8.44403 18.702 9.44244 18.1161 10.2421L15.7406 13.3583L14.6228 12.5062L15.6837 11.1145Z" fill="#999999"/>
</svg>
