<svg width="21" height="20" viewBox="0 0 21 20" fill="none" xmlns="http://www.w3.org/2000/svg">
<path d="M13.4424 7.05813C13.5005 7.11617 13.5466 7.1851 13.5781 7.26098C13.6095 7.33685 13.6257 7.41818 13.6257 7.50032C13.6257 7.58245 13.6095 7.66378 13.5781 7.73965C13.5466 7.81553 13.5005 7.88446 13.4424 7.9425L8.44241 12.9425C8.38434 13.0006 8.3154 13.0466 8.23953 13.0781C8.16366 13.1095 8.08234 13.1257 8.00022 13.1257C7.9181 13.1257 7.83678 13.1095 7.76091 13.0781C7.68504 13.0466 7.6161 13.0006 7.55803 12.9425C7.49997 12.8844 7.4539 12.8155 7.42248 12.7396C7.39105 12.6638 7.37488 12.5824 7.37488 12.5003C7.37488 12.4182 7.39105 12.3369 7.42248 12.261C7.4539 12.1851 7.49997 12.1162 7.55803 12.0581L12.558 7.05813C12.6161 7.00002 12.685 6.95392 12.7609 6.92246C12.8368 6.89101 12.9181 6.87482 13.0002 6.87482C13.0824 6.87482 13.1637 6.89101 13.2396 6.92246C13.3154 6.95392 13.3844 7.00002 13.4424 7.05813ZM17.344 3.15657C16.9377 2.75026 16.4554 2.42796 15.9246 2.20807C15.3937 1.98818 14.8248 1.875 14.2502 1.875C13.6757 1.875 13.1067 1.98818 12.5759 2.20807C12.045 2.42796 11.5627 2.75026 11.1565 3.15657L8.80803 5.50422C8.69076 5.6215 8.62488 5.78056 8.62488 5.94641C8.62488 6.11226 8.69076 6.27132 8.80803 6.3886C8.92531 6.50587 9.08437 6.57176 9.25022 6.57176C9.41607 6.57176 9.57513 6.50587 9.69241 6.3886L12.0408 4.04485C12.629 3.46957 13.4204 3.14947 14.2431 3.154C15.0658 3.15853 15.8536 3.48733 16.4354 4.06905C17.0172 4.65076 17.3462 5.43846 17.3508 6.26119C17.3555 7.08392 17.0355 7.8753 16.4604 8.4636L14.1112 10.812C13.9939 10.9292 13.928 11.0882 13.9279 11.2539C13.9278 11.4197 13.9936 11.5787 14.1108 11.696C14.2279 11.8133 14.3869 11.8792 14.5527 11.8793C14.7185 11.8794 14.8775 11.8136 14.9948 11.6964L17.344 9.34406C17.7503 8.9378 18.0726 8.45549 18.2925 7.92466C18.5124 7.39383 18.6255 6.82489 18.6255 6.25032C18.6255 5.67574 18.5124 5.1068 18.2925 4.57597C18.0726 4.04514 17.7503 3.56283 17.344 3.15657ZM11.308 13.6113L8.9596 15.9597C8.6706 16.2552 8.32585 16.4904 7.94531 16.6517C7.56478 16.8131 7.15602 16.8973 6.7427 16.8996C6.32938 16.9019 5.91972 16.8221 5.53743 16.665C5.15515 16.5079 4.80783 16.2765 4.51559 15.9842C4.22335 15.6919 3.992 15.3445 3.83493 14.9622C3.67786 14.5799 3.59819 14.1702 3.60054 13.7569C3.60289 13.3436 3.68721 12.9348 3.84862 12.5543C4.01002 12.1738 4.24531 11.8291 4.54085 11.5402L6.8885 9.1925C7.00578 9.07523 7.07166 8.91617 7.07166 8.75032C7.07166 8.58446 7.00578 8.4254 6.8885 8.30813C6.77123 8.19085 6.61217 8.12497 6.44632 8.12497C6.28046 8.12497 6.1214 8.19085 6.00413 8.30813L3.65647 10.6566C2.83596 11.4771 2.375 12.5899 2.375 13.7503C2.375 14.9107 2.83596 16.0236 3.65647 16.8441C4.47699 17.6646 5.58984 18.1255 6.75022 18.1255C7.9106 18.1255 9.02346 17.6646 9.84397 16.8441L12.1924 14.4948C12.3096 14.3776 12.3754 14.2186 12.3753 14.0528C12.3752 13.887 12.3093 13.728 12.192 13.6109C12.0747 13.4937 11.9157 13.4279 11.7499 13.428C11.5842 13.4281 11.4252 13.494 11.308 13.6113Z" fill="#61646C"/>
</svg>
