<svg width="16" height="17" viewBox="0 0 16 17" fill="none" xmlns="http://www.w3.org/2000/svg">
<g id="Link">
<path id="Vector" fill-rule="evenodd" clip-rule="evenodd" d="M9.27638 4.49916L8.06738 5.70816C7.83652 5.93902 7.46222 5.93902 7.23135 5.70816C7.00049 5.47729 7.00049 5.10299 7.23135 4.87213L8.45063 3.65286C8.45708 3.6464 8.46368 3.6401 8.47042 3.63396C9.09902 3.06102 9.92421 2.75232 10.7745 2.772C11.6248 2.79169 12.4348 3.13825 13.0362 3.73966C13.6377 4.34108 13.9842 5.1511 14.0039 6.0014C14.0236 6.8517 13.7149 7.67689 13.1419 8.30549C13.1356 8.31249 13.129 8.31934 13.1223 8.32602L11.3811 10.061C11.3809 10.0613 11.3807 10.0615 11.3804 10.0617C11.0745 10.3686 10.711 10.6122 10.3108 10.7784C9.91031 10.9447 9.4809 11.0303 9.04722 11.0303C8.61354 11.0303 8.18413 10.9447 7.78362 10.7784C7.38312 10.612 7.01939 10.3683 6.7133 10.061C6.48287 9.82975 6.48357 9.45544 6.71487 9.22501C6.94616 8.99458 7.32047 8.99528 7.5509 9.22658C7.74713 9.42355 7.98033 9.57983 8.2371 9.68648C8.49388 9.79312 8.76918 9.84801 9.04722 9.84801C9.32526 9.84801 9.60056 9.79312 9.85734 9.68648C10.1141 9.57983 10.3473 9.42355 10.5435 9.22658L10.5451 9.22505L12.2771 7.49916C12.6394 7.09656 12.8344 6.5706 12.8219 6.02876C12.8092 5.48248 12.5866 4.96208 12.2002 4.57569C11.8138 4.18931 11.2934 3.96666 10.7471 3.95401C10.2051 3.94147 9.67903 4.1366 9.27638 4.49916ZM6.95318 7.69824C6.67514 7.69824 6.39983 7.75314 6.14306 7.85978C5.88628 7.96642 5.65309 8.12271 5.45685 8.31968L5.45533 8.32121L5.45533 8.3212L3.72331 10.0471C3.36097 10.4497 3.16596 10.9757 3.1785 11.5175C3.19115 12.0638 3.4138 12.5842 3.80018 12.9706C4.18656 13.3569 4.70697 13.5796 5.25325 13.5922C5.79525 13.6048 6.32137 13.4097 6.72401 13.0471L7.93301 11.8381C8.16388 11.6072 8.53818 11.6072 8.76904 11.8381C8.99991 12.069 8.99991 12.4433 8.76904 12.6741L7.54977 13.8934C7.54332 13.8999 7.53672 13.9062 7.52998 13.9123C6.90138 14.4852 6.07619 14.7939 5.22589 14.7743C4.37558 14.7546 3.56556 14.408 2.96415 13.8066C2.36274 13.2052 2.01618 12.3952 1.99649 11.5449C1.97681 10.6946 2.28551 9.86937 2.85845 9.24077C2.86483 9.23377 2.87137 9.22692 2.87808 9.22023L4.61926 7.48522C4.61952 7.48496 4.61978 7.4847 4.62003 7.48444C4.92595 7.17758 5.28941 6.93407 5.68958 6.76788C6.09009 6.60154 6.5195 6.51592 6.95318 6.51592C7.38685 6.51592 7.81626 6.60154 8.21677 6.76788C8.61728 6.93421 8.98101 7.17799 9.28709 7.48522C9.51752 7.71651 9.51682 8.09081 9.28553 8.32124C9.05423 8.55168 8.67993 8.55098 8.4495 8.31968C8.25327 8.12271 8.02007 7.96642 7.7633 7.85978C7.50652 7.75314 7.23122 7.69824 6.95318 7.69824Z" fill="#646464"/>
</g>
</svg>
