<svg width="20" height="20" viewBox="0 0 20 20" fill="none" xmlns="http://www.w3.org/2000/svg">
<g id="location-pin-edit">
<g id="vector">
<path d="M9.99967 1.875C5.97884 1.875 2.70801 5.14583 2.70801 9.16667C2.70801 13.4317 6.62217 16.0166 9.21217 17.7275L9.65302 18.02C9.75802 18.09 9.87884 18.125 9.99967 18.125C10.1205 18.125 10.2413 18.09 10.3463 18.02L10.7872 17.7275C13.3772 16.0166 17.2913 13.4317 17.2913 9.16667C17.2913 5.14583 14.0205 1.875 9.99967 1.875ZM10.0988 16.6842L9.99967 16.7501L9.90052 16.6842C7.39218 15.0275 3.95801 12.7592 3.95801 9.16667C3.95801 5.835 6.66801 3.125 9.99967 3.125C13.3313 3.125 16.0413 5.835 16.0413 9.16667C16.0413 12.7592 12.6063 15.0283 10.0988 16.6842Z" fill="currentColor"/>
<path d="M9.99967 13.125C12.1822 13.125 13.958 11.3492 13.958 9.16667C13.958 6.98417 12.1822 5.20833 9.99967 5.20833C8.97051 5.20833 8.00967 5.61164 7.29134 6.28581V6.20422C7.29134 5.85922 7.01134 5.57922 6.66634 5.57922C6.32134 5.57922 6.04134 5.85922 6.04134 6.20422V8.05583C6.04134 8.40083 6.32134 8.68083 6.66634 8.68083H8.51876C8.86376 8.68083 9.14376 8.40083 9.14376 8.05583C9.14376 7.71083 8.86376 7.43083 8.51876 7.43083H7.93058C8.43475 6.82999 9.18384 6.45833 9.99967 6.45833C11.493 6.45833 12.708 7.67333 12.708 9.16667C12.708 10.66 11.493 11.875 9.99967 11.875C8.96467 11.875 8.03558 11.2984 7.57475 10.3701C7.42141 10.0609 7.04716 9.93413 6.73633 10.0883C6.42716 10.2416 6.30059 10.6167 6.45475 10.9259C7.12892 12.2826 8.48717 13.125 9.99967 13.125Z" fill="currentColor"/>
</g>
</g>
</svg>
