<svg width="16" height="16" viewBox="0 0 16 16" fill="none" xmlns="http://www.w3.org/2000/svg">
<path fill-rule="evenodd" clip-rule="evenodd" d="M8.0007 2.6135C6.85497 2.6135 5.75616 3.06864 4.946 3.8788C4.13584 4.68896 3.6807 5.78777 3.6807 6.9335C3.6807 8.60724 4.76826 10.2235 5.94916 11.4701C6.5298 12.0829 7.11206 12.5845 7.54971 12.933C7.72807 13.075 7.88177 13.1911 8.0007 13.2785C8.11963 13.1911 8.27333 13.075 8.4517 12.933C8.88934 12.5845 9.47161 12.0829 10.0522 11.4701C11.2331 10.2235 12.3207 8.60724 12.3207 6.9335C12.3207 5.78777 11.8656 4.68896 11.0554 3.8788C10.2452 3.06864 9.14644 2.6135 8.0007 2.6135ZM8.0007 13.8668C7.73445 14.2662 7.73432 14.2661 7.73418 14.266L7.73381 14.2658L7.73273 14.2651L7.72927 14.2627L7.71724 14.2546C7.70698 14.2476 7.69231 14.2376 7.6735 14.2246C7.63589 14.1985 7.58174 14.1605 7.51342 14.1112C7.37682 14.0125 7.18326 13.8684 6.9517 13.684C6.48934 13.3158 5.87161 12.7841 5.25225 12.1303C4.03315 10.8435 2.7207 8.9931 2.7207 6.9335C2.7207 5.53316 3.27699 4.19017 4.26718 3.19998C5.25737 2.20979 6.60036 1.6535 8.0007 1.6535C9.40105 1.6535 10.744 2.20979 11.7342 3.19998C12.7244 4.19017 13.2807 5.53316 13.2807 6.9335C13.2807 8.9931 11.9683 10.8435 10.7492 12.1303C10.1298 12.7841 9.51206 13.3158 9.04971 13.684C8.81815 13.8684 8.62459 14.0125 8.48799 14.1112C8.41966 14.1605 8.36552 14.1985 8.32791 14.2246C8.3091 14.2376 8.29442 14.2476 8.28417 14.2546L8.27214 14.2627L8.26868 14.2651L8.2676 14.2658L8.26722 14.266C8.26708 14.2661 8.26696 14.2662 8.0007 13.8668ZM8.0007 13.8668L8.26696 14.2662C8.10573 14.3737 7.89568 14.3737 7.73445 14.2662L8.0007 13.8668ZM8.0007 5.8135C7.38214 5.8135 6.8807 6.31494 6.8807 6.9335C6.8807 7.55206 7.38214 8.0535 8.0007 8.0535C8.61926 8.0535 9.1207 7.55206 9.1207 6.9335C9.1207 6.31494 8.61926 5.8135 8.0007 5.8135ZM5.9207 6.9335C5.9207 5.78475 6.85195 4.8535 8.0007 4.8535C9.14946 4.8535 10.0807 5.78475 10.0807 6.9335C10.0807 8.08226 9.14946 9.0135 8.0007 9.0135C6.85195 9.0135 5.9207 8.08226 5.9207 6.9335Z" fill="#646464"/>
</svg>
