<svg width="12" height="12" viewBox="0 0 12 12" fill="none" xmlns="http://www.w3.org/2000/svg">
<g id="Layer_1">
<g id="SVGRepo_iconCarrier">
<g id="XMLID_509_">
<path id="XMLID_510_" d="M1.99956 11.4551H9.99954C10.3008 11.4551 10.545 11.2109 10.545 10.9097L10.5451 5.27282C10.5451 4.97158 10.3009 4.72736 9.99963 4.72736H9.09054L9.09055 3.50012C9.09055 1.79579 7.70397 0.409213 5.99965 0.409213C4.29532 0.409213 2.90874 1.79579 2.90874 3.50012L2.90872 4.72736H1.99965C1.69841 4.72736 1.4542 4.97158 1.4542 5.27282L1.4541 10.9097C1.4541 11.2109 1.69832 11.4551 1.99956 11.4551ZM6.54499 8.00009V8.72787C6.54499 9.02911 6.30077 9.27332 5.99953 9.27332C5.6983 9.27332 5.45408 9.02911 5.45408 8.72787V8.00009C5.23342 7.83409 5.09044 7.57013 5.09044 7.27333C5.09044 6.77205 5.49826 6.36423 5.99953 6.36423C6.50081 6.36423 6.90862 6.77205 6.90862 7.27333C6.90862 7.57013 6.76564 7.83409 6.54499 8.00009ZM3.99965 3.50012C3.99965 2.39732 4.89685 1.50012 5.99965 1.50012C7.10245 1.50012 7.99965 2.39732 7.99965 3.50012L7.99963 4.72736H3.99963L3.99965 3.50012Z" fill="#999999"/>
</g>
</g>
</g>
</svg>
