<svg width="18" height="12" viewBox="0 0 18 12" fill="none" xmlns="http://www.w3.org/2000/svg">
<g clip-path="url(#clip0_11938_106234)">
<path d="M17.0463 11.4598H0.954361C0.79567 11.4598 0.666992 11.3312 0.666992 11.1725V0.827652C0.666992 0.668961 0.79567 0.540283 0.954361 0.540283H17.0463C17.205 0.540283 17.3337 0.668961 17.3337 0.827652V11.1725C17.3336 11.3312 17.2049 11.4598 17.0463 11.4598Z" fill="#F5F5F5"/>
<path d="M17.3336 1.38029H0.666992V0.827652C0.666992 0.668961 0.79567 0.540283 0.954361 0.540283H17.0463C17.205 0.540283 17.3337 0.668961 17.3337 0.827652L17.3336 1.38029Z" fill="#FF4B55"/>
<path d="M17.3336 3.90015H0.666992V4.74012H17.3336V3.90015Z" fill="#FF4B55"/>
<path d="M17.3336 2.22021H0.666992V3.06019H17.3336V2.22021Z" fill="#FF4B55"/>
<path d="M17.3336 6.42008H0.954361C0.79567 6.42008 0.666992 6.29141 0.666992 6.13271V5.58008H17.3336V6.42008Z" fill="#FF4B55"/>
<path d="M17.3336 8.94019H0.666992V9.78016H17.3336V8.94019Z" fill="#FF4B55"/>
<path d="M17.0463 11.4598H0.954361C0.79567 11.4598 0.666992 11.3312 0.666992 11.1725V10.6199H17.3336V11.1725C17.3336 11.3312 17.205 11.4598 17.0463 11.4598Z" fill="#FF4B55"/>
<path d="M17.3336 7.26025H0.666992V8.10023H17.3336V7.26025Z" fill="#FF4B55"/>
<path d="M8.13823 0.540527H0.954361C0.79567 0.540527 0.666992 0.669173 0.666992 0.827864V6.13287C0.666992 6.29156 0.79567 6.42024 0.954361 6.42024H8.13827C8.29696 6.42024 8.42564 6.29156 8.42564 6.13287V0.827864C8.4256 0.669173 8.29693 0.540527 8.13823 0.540527Z" fill="#41479B"/>
<path d="M1.47433 1.19992L1.53793 1.39068L1.73901 1.39221C1.76505 1.39244 1.77582 1.42564 1.75489 1.4411L1.59314 1.56057L1.65382 1.75226C1.6617 1.77707 1.63341 1.79764 1.61222 1.78247L1.44864 1.66558L1.28507 1.78251C1.26388 1.79764 1.23566 1.7771 1.24347 1.7523L1.30415 1.5606L1.14239 1.44113C1.12146 1.42564 1.13224 1.39247 1.15828 1.39224L1.35935 1.39071L1.42296 1.19996C1.43116 1.17522 1.46606 1.17522 1.47433 1.19992Z" fill="#F5F5F5"/>
<path d="M1.47384 2.1977L1.53745 2.38846L1.73852 2.38999C1.76456 2.39021 1.77534 2.42342 1.7544 2.43888L1.59265 2.55834L1.65333 2.75004C1.66121 2.77485 1.63292 2.79542 1.61173 2.78025L1.44816 2.66336L1.28458 2.78028C1.26339 2.79542 1.23517 2.77488 1.24298 2.75008L1.30366 2.55838L1.14191 2.43891C1.12098 2.42342 1.13175 2.39025 1.15779 2.39002L1.35887 2.38849L1.42247 2.19773C1.43068 2.17303 1.46557 2.17303 1.47384 2.1977Z" fill="#F5F5F5"/>
<path d="M1.47384 3.19575L1.53745 3.3865L1.73852 3.38803C1.76456 3.38826 1.77534 3.42146 1.7544 3.43693L1.59265 3.55639L1.65333 3.74809C1.66121 3.77289 1.63292 3.79347 1.61173 3.7783L1.44816 3.6614L1.28458 3.77833C1.26339 3.79347 1.23517 3.77293 1.24298 3.74812L1.30366 3.55642L1.14191 3.43696C1.12098 3.42146 1.13175 3.38829 1.15779 3.38807L1.35887 3.38654L1.42247 3.19578C1.43068 3.17107 1.46557 3.17107 1.47384 3.19575Z" fill="#F5F5F5"/>
<path d="M1.47384 4.19358L1.53745 4.38433L1.73852 4.38586C1.76456 4.38609 1.77534 4.41929 1.7544 4.43475L1.59265 4.55422L1.65333 4.74592C1.66121 4.77072 1.63292 4.7913 1.61173 4.77613L1.44816 4.65923L1.28458 4.77616C1.26339 4.7913 1.23517 4.77075 1.24298 4.74595L1.30366 4.55425L1.14191 4.43479C1.12098 4.41929 1.13175 4.38612 1.15779 4.38589L1.35887 4.38436L1.42247 4.19361C1.43068 4.16887 1.46557 4.16887 1.47384 4.19358Z" fill="#F5F5F5"/>
<path d="M1.47384 5.1914L1.53745 5.38216L1.73852 5.38369C1.76456 5.38391 1.77534 5.41712 1.7544 5.43258L1.59265 5.55205L1.65333 5.74374C1.66121 5.76855 1.63292 5.78912 1.61173 5.77395L1.44816 5.65706L1.28458 5.77399C1.26339 5.78912 1.23517 5.76858 1.24298 5.74378L1.30366 5.55208L1.14191 5.43261C1.12098 5.41712 1.13175 5.38395 1.15779 5.38372L1.35887 5.38219L1.42247 5.19143C1.43068 5.16666 1.46557 5.16666 1.47384 5.1914Z" fill="#F5F5F5"/>
<path d="M2.24825 1.68892L2.31186 1.87967L2.51293 1.8812C2.53898 1.88143 2.54975 1.91463 2.52882 1.93009L2.36707 2.04956L2.42774 2.24126C2.43562 2.26606 2.40733 2.28664 2.38614 2.27147L2.22257 2.15454L2.059 2.27147C2.0378 2.2866 2.00958 2.26606 2.01739 2.24126L2.07807 2.04956L1.91632 1.93009C1.89539 1.9146 1.90616 1.88143 1.93221 1.8812L2.13328 1.87967L2.19689 1.68892C2.20506 1.66424 2.24002 1.66424 2.24825 1.68892Z" fill="#F5F5F5"/>
<path d="M2.24825 2.68699L2.31186 2.87774L2.51293 2.87927C2.53898 2.8795 2.54975 2.9127 2.52882 2.92816L2.36707 3.04763L2.42774 3.23933C2.43562 3.26413 2.40733 3.28471 2.38614 3.26954L2.22257 3.15261L2.059 3.26954C2.0378 3.28467 2.00958 3.26417 2.01739 3.23933L2.07807 3.04763L1.91632 2.92816C1.89539 2.91267 1.90616 2.8795 1.93221 2.87927L2.13328 2.87774L2.19689 2.68699C2.20506 2.66228 2.24002 2.66228 2.24825 2.68699Z" fill="#F5F5F5"/>
<path d="M2.24825 3.68503L2.31186 3.87579L2.51293 3.87732C2.53898 3.87755 2.54975 3.91075 2.52882 3.92621L2.36707 4.04568L2.42774 4.23738C2.43562 4.26218 2.40733 4.28275 2.38614 4.26759L2.22257 4.15066L2.059 4.26759C2.0378 4.28272 2.00958 4.26218 2.01739 4.23738L2.07807 4.04568L1.91632 3.92621C1.89539 3.91072 1.90616 3.87755 1.93221 3.87732L2.13328 3.87579L2.19689 3.68503C2.20506 3.66033 2.24002 3.66033 2.24825 3.68503Z" fill="#F5F5F5"/>
<path d="M2.24825 4.68281L2.31186 4.87357L2.51293 4.8751C2.53898 4.87533 2.54975 4.90853 2.52882 4.92399L2.36707 5.04346L2.42774 5.23516C2.43562 5.25996 2.40733 5.28053 2.38614 5.26536L2.22257 5.14844L2.059 5.26536C2.0378 5.2805 2.00958 5.25996 2.01739 5.23516L2.07807 5.04346L1.91632 4.92399C1.89539 4.9085 1.90616 4.87533 1.93221 4.8751L2.13328 4.87357L2.19689 4.68281C2.20506 4.65814 2.24002 4.65814 2.24825 4.68281Z" fill="#F5F5F5"/>
<path d="M3.02267 1.19993L3.08627 1.39068L3.28735 1.39221C3.31339 1.39244 3.32416 1.42564 3.30323 1.4411L3.14148 1.56057L3.20216 1.75227C3.21004 1.77707 3.18175 1.79765 3.16056 1.78248L2.99698 1.66555L2.83341 1.78248C2.81222 1.79761 2.784 1.77707 2.79181 1.75227L2.85249 1.56057L2.69073 1.4411C2.6698 1.42561 2.68058 1.39244 2.70662 1.39221L2.90769 1.39068L2.9713 1.19993C2.9795 1.17522 3.01443 1.17522 3.02267 1.19993Z" fill="#F5F5F5"/>
<path d="M3.02267 2.19771L3.08627 2.38846L3.28735 2.38999C3.31339 2.39022 3.32416 2.42342 3.30323 2.43888L3.14148 2.55835L3.20216 2.75005C3.21004 2.77485 3.18175 2.79542 3.16056 2.78026L2.99698 2.66333L2.83341 2.78026C2.81222 2.79539 2.784 2.77485 2.79181 2.75005L2.85249 2.55835L2.69073 2.43888C2.6698 2.42339 2.68058 2.39022 2.70662 2.38999L2.90769 2.38846L2.9713 2.19771C2.9795 2.17303 3.01443 2.17303 3.02267 2.19771Z" fill="#F5F5F5"/>
<path d="M3.02267 3.19575L3.08627 3.38651L3.28735 3.38804C3.31339 3.38827 3.32416 3.42147 3.30323 3.43693L3.14148 3.5564L3.20216 3.7481C3.21004 3.7729 3.18175 3.79347 3.16056 3.7783L2.99698 3.66138L2.83341 3.7783C2.81222 3.79344 2.784 3.7729 2.79181 3.7481L2.85249 3.5564L2.69073 3.43693C2.6698 3.42144 2.68058 3.38827 2.70662 3.38804L2.90769 3.38651L2.9713 3.19575C2.9795 3.17108 3.01443 3.17108 3.02267 3.19575Z" fill="#F5F5F5"/>
<path d="M3.02267 4.19358L3.08627 4.38433L3.28735 4.38586C3.31339 4.38609 3.32416 4.41929 3.30323 4.43476L3.14148 4.55422L3.20216 4.74592C3.21004 4.77073 3.18175 4.7913 3.16056 4.77613L2.99698 4.6592L2.83341 4.77613C2.81222 4.79127 2.784 4.77073 2.79181 4.74592L2.85249 4.55422L2.69073 4.43476C2.6698 4.41926 2.68058 4.38609 2.70662 4.38586L2.90769 4.38433L2.9713 4.19358C2.9795 4.16887 3.01443 4.16887 3.02267 4.19358Z" fill="#F5F5F5"/>
<path d="M3.02267 5.19141L3.08627 5.38216L3.28735 5.38369C3.31339 5.38392 3.32416 5.41712 3.30323 5.43258L3.14148 5.55205L3.20216 5.74375C3.21004 5.76855 3.18175 5.78913 3.16056 5.77396L2.99698 5.65703L2.83341 5.77396C2.81222 5.78909 2.784 5.76855 2.79181 5.74375L2.85249 5.55205L2.69073 5.43258C2.6698 5.41709 2.68058 5.38392 2.70662 5.38369L2.90769 5.38216L2.9713 5.19141C2.9795 5.16667 3.01443 5.16667 3.02267 5.19141Z" fill="#F5F5F5"/>
<path d="M3.79708 1.68916L3.86069 1.87992L4.06176 1.88144C4.0878 1.88167 4.09858 1.91488 4.07765 1.93034L3.9159 2.0498L3.97657 2.2415C3.98445 2.26631 3.95616 2.28688 3.93497 2.27171L3.7714 2.15478L3.60782 2.27171C3.58663 2.28685 3.55841 2.26631 3.56622 2.2415L3.6269 2.0498L3.46515 1.93034C3.44422 1.91484 3.45499 1.88167 3.48103 1.88144L3.68211 1.87992L3.74571 1.68916C3.75388 1.66449 3.78885 1.66449 3.79708 1.68916Z" fill="#F5F5F5"/>
<path d="M3.79708 2.68699L3.86069 2.87774L4.06176 2.87927C4.0878 2.8795 4.09858 2.9127 4.07765 2.92816L3.9159 3.04763L3.97657 3.23933C3.98445 3.26413 3.95616 3.28471 3.93497 3.26954L3.7714 3.15261L3.60782 3.26954C3.58663 3.28467 3.55841 3.26417 3.56622 3.23933L3.6269 3.04763L3.46515 2.92816C3.44422 2.91267 3.45499 2.8795 3.48103 2.87927L3.68211 2.87774L3.74571 2.68699C3.75388 2.66228 3.78885 2.66228 3.79708 2.68699Z" fill="#F5F5F5"/>
<path d="M3.79708 3.68479L3.86069 3.87554L4.06176 3.87707C4.0878 3.8773 4.09858 3.91051 4.07765 3.92597L3.9159 4.04543L3.97657 4.23713C3.98445 4.26194 3.95616 4.28251 3.93497 4.26734L3.7714 4.15041L3.60782 4.26734C3.58663 4.28248 3.55841 4.26194 3.56622 4.23713L3.6269 4.04543L3.46515 3.92597C3.44422 3.91047 3.45499 3.8773 3.48103 3.87707L3.68211 3.87554L3.74571 3.68479C3.75388 3.66008 3.78885 3.66008 3.79708 3.68479Z" fill="#F5F5F5"/>
<path d="M3.79708 4.68281L3.86069 4.87357L4.06176 4.8751C4.0878 4.87533 4.09858 4.90853 4.07765 4.92399L3.9159 5.04346L3.97657 5.23516C3.98445 5.25996 3.95616 5.28053 3.93497 5.26536L3.7714 5.14844L3.60782 5.26536C3.58663 5.2805 3.55841 5.25996 3.56622 5.23516L3.6269 5.04346L3.46515 4.92399C3.44422 4.9085 3.45499 4.87533 3.48103 4.8751L3.68211 4.87357L3.74571 4.68281C3.75388 4.65814 3.78885 4.65814 3.79708 4.68281Z" fill="#F5F5F5"/>
<path d="M4.57202 1.19993L4.63562 1.39068L4.8367 1.39221C4.86274 1.39244 4.87351 1.42564 4.85258 1.4411L4.69083 1.56057L4.75151 1.75227C4.75939 1.77707 4.7311 1.79765 4.70991 1.78248L4.5463 1.66555L4.38273 1.78248C4.36153 1.79761 4.33331 1.77707 4.34112 1.75227L4.4018 1.56057L4.24005 1.4411C4.21912 1.42561 4.22989 1.39244 4.25594 1.39221L4.45701 1.39068L4.52062 1.19993C4.52885 1.17522 4.56378 1.17522 4.57202 1.19993Z" fill="#F5F5F5"/>
<path d="M4.57202 2.19771L4.63562 2.38846L4.8367 2.38999C4.86274 2.39022 4.87351 2.42342 4.85258 2.43888L4.69083 2.55835L4.75151 2.75005C4.75939 2.77485 4.7311 2.79542 4.70991 2.78026L4.5463 2.66333L4.38273 2.78026C4.36153 2.79539 4.33331 2.77485 4.34112 2.75005L4.4018 2.55835L4.24005 2.43888C4.21912 2.42339 4.22989 2.39022 4.25594 2.38999L4.45701 2.38846L4.52062 2.19771C4.52885 2.17303 4.56378 2.17303 4.57202 2.19771Z" fill="#F5F5F5"/>
<path d="M4.57202 3.19575L4.63562 3.38651L4.8367 3.38804C4.86274 3.38827 4.87351 3.42147 4.85258 3.43693L4.69083 3.5564L4.75151 3.7481C4.75939 3.7729 4.7311 3.79347 4.70991 3.7783L4.5463 3.66138L4.38273 3.7783C4.36153 3.79344 4.33331 3.7729 4.34112 3.7481L4.4018 3.5564L4.24005 3.43693C4.21912 3.42144 4.22989 3.38827 4.25594 3.38804L4.45701 3.38651L4.52062 3.19575C4.52885 3.17108 4.56378 3.17108 4.57202 3.19575Z" fill="#F5F5F5"/>
<path d="M4.57202 4.19358L4.63562 4.38433L4.8367 4.38586C4.86274 4.38609 4.87351 4.41929 4.85258 4.43476L4.69083 4.55422L4.75151 4.74592C4.75939 4.77073 4.7311 4.7913 4.70991 4.77613L4.5463 4.6592L4.38273 4.77613C4.36153 4.79127 4.33331 4.77073 4.34112 4.74592L4.4018 4.55422L4.24005 4.43476C4.21912 4.41926 4.22989 4.38609 4.25594 4.38586L4.45701 4.38433L4.52062 4.19358C4.52885 4.16887 4.56378 4.16887 4.57202 4.19358Z" fill="#F5F5F5"/>
<path d="M4.57202 5.19141L4.63562 5.38216L4.8367 5.38369C4.86274 5.38392 4.87351 5.41712 4.85258 5.43258L4.69083 5.55205L4.75151 5.74375C4.75939 5.76855 4.7311 5.78913 4.70991 5.77396L4.5463 5.65703L4.38273 5.77396C4.36153 5.78909 4.33331 5.76855 4.34112 5.74375L4.4018 5.55205L4.24005 5.43258C4.21912 5.41709 4.22989 5.38392 4.25594 5.38369L4.45701 5.38216L4.52062 5.19141C4.52885 5.16667 4.56378 5.16667 4.57202 5.19141Z" fill="#F5F5F5"/>
<path d="M5.34591 1.68892L5.40952 1.87967L5.61059 1.8812C5.63663 1.88143 5.64741 1.91463 5.62648 1.93009L5.46472 2.04956L5.5254 2.24126C5.53328 2.26606 5.50499 2.28664 5.4838 2.27147L5.32023 2.15454L5.15665 2.27147C5.13546 2.2866 5.10724 2.26606 5.11505 2.24126L5.17573 2.04956L5.01398 1.93009C4.99305 1.9146 5.00382 1.88143 5.02986 1.8812L5.23094 1.87967L5.29454 1.68892C5.30278 1.66424 5.33767 1.66424 5.34591 1.68892Z" fill="#F5F5F5"/>
<path d="M5.34591 2.68699L5.40952 2.87774L5.61059 2.87927C5.63663 2.8795 5.64741 2.9127 5.62648 2.92816L5.46472 3.04763L5.5254 3.23933C5.53328 3.26413 5.50499 3.28471 5.4838 3.26954L5.32023 3.15261L5.15665 3.26954C5.13546 3.28467 5.10724 3.26417 5.11505 3.23933L5.17573 3.04763L5.01398 2.92816C4.99305 2.91267 5.00382 2.8795 5.02986 2.87927L5.23094 2.87774L5.29454 2.68699C5.30278 2.66228 5.33767 2.66228 5.34591 2.68699Z" fill="#F5F5F5"/>
<path d="M5.34591 3.68503L5.40952 3.87579L5.61059 3.87732C5.63663 3.87755 5.64741 3.91075 5.62648 3.92621L5.46472 4.04568L5.5254 4.23738C5.53328 4.26218 5.50499 4.28275 5.4838 4.26759L5.32023 4.15066L5.15665 4.26759C5.13546 4.28272 5.10724 4.26218 5.11505 4.23738L5.17573 4.04568L5.01398 3.92621C4.99305 3.91072 5.00382 3.87755 5.02986 3.87732L5.23094 3.87579L5.29454 3.68503C5.30278 3.66033 5.33767 3.66033 5.34591 3.68503Z" fill="#F5F5F5"/>
<path d="M5.34591 4.68281L5.40952 4.87357L5.61059 4.8751C5.63663 4.87533 5.64741 4.90853 5.62648 4.92399L5.46472 5.04346L5.5254 5.23516C5.53328 5.25996 5.50499 5.28053 5.4838 5.26536L5.32023 5.14844L5.15665 5.26536C5.13546 5.2805 5.10724 5.25996 5.11505 5.23516L5.17573 5.04346L5.01398 4.92399C4.99305 4.9085 5.00382 4.87533 5.02986 4.8751L5.23094 4.87357L5.29454 4.68281C5.30278 4.65814 5.33767 4.65814 5.34591 4.68281Z" fill="#F5F5F5"/>
<path d="M6.12081 1.19993L6.18442 1.39068L6.38549 1.39221C6.41153 1.39244 6.42231 1.42564 6.40138 1.4411L6.23963 1.56057L6.3003 1.75227C6.30818 1.77707 6.27989 1.79765 6.2587 1.78248L6.09513 1.66555L5.93155 1.78248C5.91036 1.79761 5.88214 1.77707 5.88995 1.75227L5.95063 1.56057L5.78888 1.4411C5.76795 1.42561 5.77872 1.39244 5.80476 1.39221L6.00584 1.39068L6.06944 1.19993C6.07762 1.17522 6.11258 1.17522 6.12081 1.19993Z" fill="#F5F5F5"/>
<path d="M6.12081 2.19771L6.18442 2.38846L6.38549 2.38999C6.41153 2.39022 6.42231 2.42342 6.40138 2.43888L6.23963 2.55835L6.3003 2.75005C6.30818 2.77485 6.27989 2.79542 6.2587 2.78026L6.09513 2.66333L5.93155 2.78026C5.91036 2.79539 5.88214 2.77485 5.88995 2.75005L5.95063 2.55835L5.78888 2.43888C5.76795 2.42339 5.77872 2.39022 5.80476 2.38999L6.00584 2.38846L6.06944 2.19771C6.07762 2.17303 6.11258 2.17303 6.12081 2.19771Z" fill="#F5F5F5"/>
<path d="M6.12081 3.19575L6.18442 3.38651L6.38549 3.38804C6.41153 3.38827 6.42231 3.42147 6.40138 3.43693L6.23963 3.5564L6.3003 3.7481C6.30818 3.7729 6.27989 3.79347 6.2587 3.7783L6.09513 3.66138L5.93155 3.7783C5.91036 3.79344 5.88214 3.7729 5.88995 3.7481L5.95063 3.5564L5.78888 3.43693C5.76795 3.42144 5.77872 3.38827 5.80476 3.38804L6.00584 3.38651L6.06944 3.19575C6.07762 3.17108 6.11258 3.17108 6.12081 3.19575Z" fill="#F5F5F5"/>
<path d="M6.12081 4.19358L6.18442 4.38433L6.38549 4.38586C6.41153 4.38609 6.42231 4.41929 6.40138 4.43476L6.23963 4.55422L6.3003 4.74592C6.30818 4.77073 6.27989 4.7913 6.2587 4.77613L6.09513 4.6592L5.93155 4.77613C5.91036 4.79127 5.88214 4.77073 5.88995 4.74592L5.95063 4.55422L5.78888 4.43476C5.76795 4.41926 5.77872 4.38609 5.80476 4.38586L6.00584 4.38433L6.06944 4.19358C6.07762 4.16887 6.11258 4.16887 6.12081 4.19358Z" fill="#F5F5F5"/>
<path d="M6.12081 5.19141L6.18442 5.38216L6.38549 5.38369C6.41153 5.38392 6.42231 5.41712 6.40138 5.43258L6.23963 5.55205L6.3003 5.74375C6.30818 5.76855 6.27989 5.78913 6.2587 5.77396L6.09513 5.65703L5.93155 5.77396C5.91036 5.78909 5.88214 5.76855 5.88995 5.74375L5.95063 5.55205L5.78888 5.43258C5.76795 5.41709 5.77872 5.38392 5.80476 5.38369L6.00584 5.38216L6.06944 5.19141C6.07762 5.16667 6.11258 5.16667 6.12081 5.19141Z" fill="#F5F5F5"/>
<path d="M6.89523 1.68916L6.95883 1.87992L7.15991 1.88144C7.18595 1.88167 7.19672 1.91488 7.17579 1.93034L7.01404 2.0498L7.07472 2.2415C7.0826 2.26631 7.05431 2.28688 7.03312 2.27171L6.86954 2.15478L6.70597 2.27171C6.68478 2.28685 6.65655 2.26631 6.66437 2.2415L6.72504 2.0498L6.56329 1.93034C6.54236 1.91484 6.55314 1.88167 6.57918 1.88144L6.78025 1.87992L6.84386 1.68916C6.85206 1.66449 6.88702 1.66449 6.89523 1.68916Z" fill="#F5F5F5"/>
<path d="M6.89523 2.68699L6.95883 2.87774L7.15991 2.87927C7.18595 2.8795 7.19672 2.9127 7.17579 2.92816L7.01404 3.04763L7.07472 3.23933C7.0826 3.26413 7.05431 3.28471 7.03312 3.26954L6.86954 3.15261L6.70597 3.26954C6.68478 3.28467 6.65655 3.26417 6.66437 3.23933L6.72504 3.04763L6.56329 2.92816C6.54236 2.91267 6.55314 2.8795 6.57918 2.87927L6.78025 2.87774L6.84386 2.68699C6.85206 2.66228 6.88702 2.66228 6.89523 2.68699Z" fill="#F5F5F5"/>
<path d="M6.89523 3.68479L6.95883 3.87554L7.15991 3.87707C7.18595 3.8773 7.19672 3.91051 7.17579 3.92597L7.01404 4.04543L7.07472 4.23713C7.0826 4.26194 7.05431 4.28251 7.03312 4.26734L6.86954 4.15041L6.70597 4.26734C6.68478 4.28248 6.65655 4.26194 6.66437 4.23713L6.72504 4.04543L6.56329 3.92597C6.54236 3.91047 6.55314 3.8773 6.57918 3.87707L6.78025 3.87554L6.84386 3.68479C6.85206 3.66008 6.88702 3.66008 6.89523 3.68479Z" fill="#F5F5F5"/>
<path d="M6.89523 4.68281L6.95883 4.87357L7.15991 4.8751C7.18595 4.87533 7.19672 4.90853 7.17579 4.92399L7.01404 5.04346L7.07472 5.23516C7.0826 5.25996 7.05431 5.28053 7.03312 5.26536L6.86954 5.14844L6.70597 5.26536C6.68478 5.2805 6.65655 5.25996 6.66437 5.23516L6.72504 5.04346L6.56329 4.92399C6.54236 4.9085 6.55314 4.87533 6.57918 4.8751L6.78025 4.87357L6.84386 4.68281C6.85206 4.65814 6.88702 4.65814 6.89523 4.68281Z" fill="#F5F5F5"/>
<path d="M7.67013 1.19993L7.73373 1.39068L7.93481 1.39221C7.96085 1.39244 7.97163 1.42564 7.95069 1.4411L7.78894 1.56057L7.84962 1.75227C7.8575 1.77707 7.82921 1.79765 7.80802 1.78248L7.64444 1.66555L7.48087 1.78248C7.45968 1.79761 7.43146 1.77707 7.43927 1.75227L7.49995 1.56057L7.3382 1.4411C7.31726 1.42561 7.32804 1.39244 7.35408 1.39221L7.55515 1.39068L7.61876 1.19993C7.62696 1.17522 7.66186 1.17522 7.67013 1.19993Z" fill="#F5F5F5"/>
<path d="M7.67013 2.19771L7.73373 2.38846L7.93481 2.38999C7.96085 2.39022 7.97163 2.42342 7.95069 2.43888L7.78894 2.55835L7.84962 2.75005C7.8575 2.77485 7.82921 2.79542 7.80802 2.78026L7.64444 2.66333L7.48087 2.78026C7.45968 2.79539 7.43146 2.77485 7.43927 2.75005L7.49995 2.55835L7.3382 2.43888C7.31726 2.42339 7.32804 2.39022 7.35408 2.38999L7.55515 2.38846L7.61876 2.19771C7.62696 2.17303 7.66186 2.17303 7.67013 2.19771Z" fill="#F5F5F5"/>
<path d="M7.67013 3.19575L7.73373 3.38651L7.93481 3.38804C7.96085 3.38827 7.97163 3.42147 7.95069 3.43693L7.78894 3.5564L7.84962 3.7481C7.8575 3.7729 7.82921 3.79347 7.80802 3.7783L7.64444 3.66138L7.48087 3.7783C7.45968 3.79344 7.43146 3.7729 7.43927 3.7481L7.49995 3.5564L7.3382 3.43693C7.31726 3.42144 7.32804 3.38827 7.35408 3.38804L7.55515 3.38651L7.61876 3.19575C7.62696 3.17108 7.66186 3.17108 7.67013 3.19575Z" fill="#F5F5F5"/>
<path d="M7.67013 4.19358L7.73373 4.38433L7.93481 4.38586C7.96085 4.38609 7.97163 4.41929 7.95069 4.43476L7.78894 4.55422L7.84962 4.74592C7.8575 4.77073 7.82921 4.7913 7.80802 4.77613L7.64444 4.6592L7.48087 4.77613C7.45968 4.79127 7.43146 4.77073 7.43927 4.74592L7.49995 4.55422L7.3382 4.43476C7.31726 4.41926 7.32804 4.38609 7.35408 4.38586L7.55515 4.38433L7.61876 4.19358C7.62696 4.16887 7.66186 4.16887 7.67013 4.19358Z" fill="#F5F5F5"/>
<path d="M7.67013 5.19141L7.73373 5.38216L7.93481 5.38369C7.96085 5.38392 7.97163 5.41712 7.95069 5.43258L7.78894 5.55205L7.84962 5.74375C7.8575 5.76855 7.82921 5.78913 7.80802 5.77396L7.64444 5.65703L7.48087 5.77396C7.45968 5.78909 7.43146 5.76855 7.43927 5.74375L7.49995 5.55205L7.3382 5.43258C7.31726 5.41709 7.32804 5.38392 7.35408 5.38369L7.55515 5.38216L7.61876 5.19141C7.62696 5.16667 7.66186 5.16667 7.67013 5.19141Z" fill="#F5F5F5"/>
</g>
<defs>
<clipPath id="clip0_11938_106234">
<rect x="0.666992" y="0.666748" width="16.6667" height="10.6667" rx="1.33333" fill="white"/>
</clipPath>
</defs>
</svg>
