<svg width="20" height="20" viewBox="0 0 20 20" fill="none" xmlns="http://www.w3.org/2000/svg">
<path d="M18.0458 15.4487H1.95387C1.79518 15.4487 1.6665 15.3203 1.6665 15.1619V4.83806C1.6665 4.67969 1.79518 4.55127 1.95387 4.55127H18.0458C18.2045 4.55127 18.3332 4.67969 18.3332 4.83806V15.1619C18.3331 15.3203 18.2045 15.4487 18.0458 15.4487Z" fill="#41479B"/>
<path d="M9.71244 4.55127H9.21328L6.55151 6.29168V4.55127H5.11473V6.29168L2.45296 4.55127H1.95387C1.79518 4.55127 1.6665 4.67965 1.6665 4.83802V5.06549L3.95019 6.55866H1.6665V7.99253H3.95019L1.6665 9.48573V9.71319C1.6665 9.87156 1.79518 9.99998 1.95387 9.99998H2.45302L5.1148 8.25957V9.99998H6.55158V8.25957L9.21332 9.99998H9.71247C9.87116 9.99998 9.99984 9.87156 9.99984 9.71319V9.48573L7.71615 7.99256H9.9998V6.55869H7.71612L9.9998 5.06553V4.83806C9.9998 4.67966 9.87113 4.55127 9.71244 4.55127Z" fill="#F5F5F5"/>
<path d="M9.99984 6.84548H6.26419V4.55127H5.40215V6.84548H1.6665V7.70578H5.40215V9.99998H6.26419V7.70578H9.99984V6.84548Z" fill="#FF4B55"/>
<path d="M4.87163 6.47434L1.80537 4.55127C1.72377 4.60115 1.6665 4.68499 1.6665 4.78519V4.7998L4.33645 6.47434H4.87163Z" fill="#FF4B55"/>
<path d="M7.02069 6.47434L9.99976 4.68904C9.94798 4.60816 9.85663 4.55127 9.74744 4.55127H9.68309L6.47412 6.47434H7.02069Z" fill="#FF4B55"/>
<path d="M4.64466 8.0769L1.6665 9.85878C1.71786 9.94163 1.81078 9.99998 1.92173 9.99998H1.97794L5.19215 8.0769H4.64466Z" fill="#FF4B55"/>
<path d="M10.0001 9.77032L7.32049 8.0769H6.79492L9.83778 9.99998C9.92893 9.95879 9.99146 9.87248 10.0001 9.77032Z" fill="#FF4B55"/>
<path d="M5.89336 11.6483L6.10586 12.3669L6.78684 12.0891C6.84495 12.0653 6.89776 12.1332 6.8623 12.186L6.4463 12.8042L7.08293 13.1763C7.13724 13.2081 7.11839 13.2927 7.05601 13.2972L6.32476 13.3495L6.43769 14.0914C6.44732 14.1547 6.37097 14.1924 6.32869 14.1452L5.83283 13.5922L5.33698 14.1452C5.29469 14.1924 5.21834 14.1547 5.22797 14.0914L5.3409 13.3495L4.60965 13.2972C4.54727 13.2927 4.52843 13.2081 4.58274 13.1763L5.21936 12.8042L4.80337 12.186C4.7679 12.1332 4.82071 12.0653 4.87882 12.0891L5.55981 12.3669L5.7723 11.6483C5.79051 11.587 5.87525 11.587 5.89336 11.6483Z" fill="#F5F5F5"/>
<path d="M14.5175 6.49712L14.6238 6.85642L14.9642 6.71752C14.9933 6.70568 15.0197 6.73959 15.0019 6.76597L14.794 7.07511L15.1123 7.2612C15.1394 7.27705 15.13 7.31939 15.0988 7.32159L14.7332 7.34774L14.7896 7.71868C14.7945 7.75035 14.7563 7.76918 14.7351 7.74557L14.4872 7.46906L14.2393 7.74557C14.2182 7.76914 14.18 7.75032 14.1848 7.71868L14.2412 7.34774L13.8756 7.32159C13.8444 7.31939 13.835 7.27705 13.8622 7.2612L14.1805 7.07511L13.9725 6.76597C13.9547 6.73959 13.9812 6.70568 14.0102 6.71752L14.3506 6.85642L14.4569 6.49712C14.4661 6.46646 14.5085 6.46646 14.5175 6.49712Z" fill="#F5F5F5"/>
<path d="M11.9531 9.06108L12.0593 9.42039L12.3998 9.28148C12.4288 9.26964 12.4552 9.30355 12.4375 9.32993L12.2295 9.63908L12.5478 9.82517C12.575 9.84102 12.5655 9.88335 12.5343 9.88556L12.1687 9.91171L12.2252 10.2826C12.23 10.3143 12.1918 10.3331 12.1707 10.3095L11.9228 10.033L11.6749 10.3095C11.6537 10.3331 11.6155 10.3143 11.6203 10.2826L11.6768 9.91171L11.3112 9.88556C11.28 9.88335 11.2706 9.84102 11.2977 9.82517L11.616 9.63908L11.408 9.32993C11.3903 9.30355 11.4167 9.26964 11.4457 9.28148L11.7862 9.42039L11.8924 9.06108C11.9016 9.03042 11.944 9.03042 11.9531 9.06108Z" fill="#F5F5F5"/>
<path d="M16.7607 8.09966L16.8669 8.45896L17.2074 8.32005C17.2364 8.30822 17.2629 8.34212 17.2451 8.36851L17.0371 8.67765L17.3554 8.86374C17.3826 8.87959 17.3732 8.92192 17.3419 8.92413L16.9764 8.95028L17.0328 9.32122C17.0376 9.35289 16.9994 9.37171 16.9783 9.34811L16.7304 9.0716L16.4825 9.34811C16.4613 9.37168 16.4232 9.35285 16.428 9.32122L16.4844 8.95028L16.1188 8.92413C16.0876 8.92192 16.0782 8.87959 16.1053 8.86374L16.4236 8.67765L16.2157 8.36851C16.1979 8.34212 16.2243 8.30822 16.2534 8.32005L16.5938 8.45896L16.7001 8.09966C16.7092 8.06899 16.7516 8.06899 16.7607 8.09966Z" fill="#F5F5F5"/>
<path d="M14.5175 12.587L14.6238 12.9463L14.9642 12.8073C14.9933 12.7955 15.0197 12.8294 15.0019 12.8558L14.794 13.1649L15.1123 13.351C15.1394 13.3669 15.13 13.4092 15.0988 13.4114L14.7332 13.4376L14.7896 13.8085C14.7945 13.8402 14.7563 13.859 14.7351 13.8354L14.4872 13.5589L14.2393 13.8354C14.2182 13.859 14.18 13.8402 14.1848 13.8085L14.2412 13.4376L13.8756 13.4114C13.8444 13.4092 13.835 13.3669 13.8622 13.351L14.1805 13.1649L13.9725 12.8558C13.9547 12.8294 13.9812 12.7955 14.0102 12.8073L14.3506 12.9463L14.4569 12.587C14.4661 12.5563 14.5085 12.5563 14.5175 12.587Z" fill="#F5F5F5"/>
<path d="M15.2489 9.70859L15.1526 10.0111L14.8479 10.0136C14.8085 10.0139 14.7921 10.0666 14.8239 10.0911L15.0689 10.2806L14.977 10.5846C14.9652 10.624 15.008 10.6565 15.04 10.6325L15.2879 10.4471L15.5358 10.6325C15.5679 10.6565 15.6106 10.624 15.5988 10.5846L15.5068 10.2806L15.7519 10.0911C15.7837 10.0666 15.7673 10.0139 15.7279 10.0136L15.4232 10.0111L15.3268 9.70859C15.3143 9.6694 15.2614 9.6694 15.2489 9.70859Z" fill="#F5F5F5"/>
</svg>
