<?xml version="1.0" encoding="UTF-8"?>
<svg width="18px" height="18px" viewBox="0 0 18 18" version="1.1" xmlns="http://www.w3.org/2000/svg" xmlns:xlink="http://www.w3.org/1999/xlink">
    <g id="Agent-Index" stroke="none" stroke-width="1" fill="none" fill-rule="evenodd">
        <g id="Agent-enter" transform="translate(-1288.000000, -793.000000)" fill="#000000" fill-rule="nonzero">
            <g id="icon_logout" transform="translate(1288.000000, 793.000000)">
                <path d="M16,18 L7,18 C5.89543,18 5,17.1046 5,16 L5,12 L7,12 L7,16 L16,16 L16,2 L7,2 L7,6 L5,6 L5,2 C5,0.89543 5.89543,0 7,0 L16,0 C17.1046,0 18,0.89543 18,2 L18,16 C18,17.1046 17.1046,18 16,18 Z M9,13 L9,10 L0,10 L0,8 L9,8 L9,5 L14,9 L9,13 Z" id="Shape"></path>
            </g>
        </g>
    </g>
</svg>
