<svg width="18" height="18" viewBox="0 0 18 18" color="currentColor" fill="none" xmlns="http://www.w3.org/2000/svg">
<path fill-rule="evenodd" clip-rule="evenodd" d="M10.9004 1.50039C10.9004 1.16902 11.169 0.900391 11.5004 0.900391H14.8337C15.4349 0.900391 16.0114 1.1392 16.4365 1.56428C16.8616 1.98936 17.1004 2.5659 17.1004 3.16706V14.8337C17.1004 15.4349 16.8616 16.0114 16.4365 16.4365C16.0114 16.8616 15.4349 17.1004 14.8337 17.1004H11.5004C11.169 17.1004 10.9004 16.8318 10.9004 16.5004C10.9004 16.169 11.169 15.9004 11.5004 15.9004H14.8337C15.1166 15.9004 15.3879 15.788 15.588 15.588C15.788 15.3879 15.9004 15.1166 15.9004 14.8337V3.16706C15.9004 2.88416 15.788 2.61285 15.588 2.41281C15.3879 2.21277 15.1166 2.10039 14.8337 2.10039H11.5004C11.169 2.10039 10.9004 1.83176 10.9004 1.50039ZM6.90946 4.40946C7.14377 4.17515 7.52367 4.17515 7.75799 4.40946L11.9247 8.57613C12.0372 8.68865 12.1004 8.84126 12.1004 9.00039C12.1004 9.15952 12.0372 9.31213 11.9247 9.42465L7.75799 13.5913C7.52367 13.8256 7.14377 13.8256 6.90946 13.5913C6.67514 13.357 6.67514 12.9771 6.90946 12.7428L10.0519 9.60039H1.50039C1.16902 9.60039 0.900391 9.33176 0.900391 9.00039C0.900391 8.66902 1.16902 8.40039 1.50039 8.40039H10.0519L6.90946 5.25799C6.67514 5.02367 6.67514 4.64377 6.90946 4.40946Z" fill="currentColor"/>
</svg>
