<svg width="20" height="20" viewBox="0 0 20 20" fill="none" xmlns="http://www.w3.org/2000/svg">
<path fill-rule="evenodd" clip-rule="evenodd" d="M17.9999 5.80208V14.2098C17.9999 15.4747 16.9976 16.5 15.7612 16.5H4.23867C3.00228 16.5 2 15.4747 2 14.2098V5.79016C2 4.52534 3.00228 3.5 4.23867 3.5H15.7612C16.9924 3.5 17.9915 4.51681 17.9998 5.77436C18 5.78361 18.0001 5.79285 17.9999 5.80208ZM3.22566 5.49326C3.35168 5.04243 3.7575 4.71244 4.23867 4.71244H15.7612C16.2424 4.71244 16.6482 5.04247 16.7742 5.49333L10 10.1134L3.22566 5.49326ZM3.18518 6.92282V14.2098C3.18518 14.8051 3.65684 15.2876 4.23867 15.2876H15.7612C16.343 15.2876 16.8147 14.8051 16.8147 14.2098V6.92291L10.3287 11.3464C10.1297 11.4821 9.87034 11.4821 9.67129 11.3464L3.18518 6.92282Z" fill="white"/>
</svg>
