<svg width="20" height="20" viewBox="0 0 20 20" fill="none" xmlns="http://www.w3.org/2000/svg">
<path d="M15 16.875H5C2.985 16.875 1.875 15.765 1.875 13.75V6.25C1.875 4.235 2.985 3.125 5 3.125H15C17.015 3.125 18.125 4.235 18.125 6.25V13.75C18.125 15.765 17.015 16.875 15 16.875ZM5 4.375C3.68583 4.375 3.125 4.93583 3.125 6.25V13.75C3.125 15.0642 3.68583 15.625 5 15.625H15C16.3142 15.625 16.875 15.0642 16.875 13.75V6.25C16.875 4.93583 16.3142 4.375 15 4.375H5ZM10.8575 10.5658L14.9508 7.58916C15.2299 7.38666 15.2916 6.995 15.0883 6.71584C14.8858 6.4375 14.4959 6.37416 14.2151 6.57833L10.1217 9.555C10.0483 9.60834 9.95086 9.60834 9.87752 9.555L5.7841 6.57833C5.50243 6.37416 5.11339 6.43834 4.91089 6.71584C4.70756 6.995 4.76925 7.38583 5.04842 7.58916L9.14164 10.5667C9.39831 10.7533 9.69919 10.8458 9.99919 10.8458C10.2992 10.8458 10.6017 10.7525 10.8575 10.5658Z" fill="#61646C"/>
</svg>
