<svg width="20" height="20" viewBox="0 0 20 20" fill="none" color="currentColor" xmlns="http://www.w3.org/2000/svg">
<path fill-rule="evenodd" clip-rule="evenodd" d="M1.99995 6.60057C2.33132 6.60057 2.59995 6.8692 2.59995 7.20057V16.8006C2.59995 17.3492 3.05132 17.8006 3.59995 17.8006H16.4C16.9486 17.8006 17.4 17.3492 17.4 16.8006V7.20057C17.4 6.8692 17.6686 6.60057 18 6.60057C18.3313 6.60057 18.6 6.8692 18.6 7.20057V16.8006C18.6 18.0119 17.6113 19.0006 16.4 19.0006H3.59995C2.38858 19.0006 1.39995 18.0119 1.39995 16.8006V7.20057C1.39995 6.8692 1.66858 6.60057 1.99995 6.60057Z" fill="currentColor"/>
<path fill-rule="evenodd" clip-rule="evenodd" d="M1.50841 6.85649C1.69844 6.58502 2.07256 6.519 2.34403 6.70903L9.99995 12.0682L17.6559 6.70903C17.9273 6.519 18.3015 6.58502 18.4915 6.85649C18.6815 7.12796 18.6155 7.50208 18.344 7.69211L10.344 13.2921C10.1374 13.4367 9.86247 13.4367 9.65588 13.2921L1.65588 7.69211C1.38441 7.50208 1.31839 7.12796 1.50841 6.85649Z" fill="currentColor"/>
<path fill-rule="evenodd" clip-rule="evenodd" d="M18.4915 7.54457C18.3015 7.81604 17.9274 7.88206 17.6559 7.69203L9.99997 2.33288L2.34405 7.69203C2.07258 7.88206 1.69846 7.81604 1.50843 7.54457C1.3184 7.2731 1.38442 6.89898 1.65589 6.70895L9.65589 1.10895C9.86248 0.964335 10.1375 0.964335 10.344 1.10895L18.344 6.70895C18.6155 6.89898 18.6815 7.2731 18.4915 7.54457Z" fill="currentColor"/>
</svg>
