<svg width="24" height="24" viewBox="0 0 24 24" fill="none" xmlns="http://www.w3.org/2000/svg">
<path d="M11.75 18.5C11.75 18.914 11.414 19.25 11 19.25H5C2.582 19.25 1.25 17.918 1.25 15.5V6.5C1.25 4.082 2.582 2.75 5 2.75H17C19.418 2.75 20.75 4.082 20.75 6.5V9.5C20.75 9.914 20.414 10.25 20 10.25C19.586 10.25 19.25 9.914 19.25 9.5V6.5C19.25 4.923 18.577 4.25 17 4.25H5C3.423 4.25 2.75 4.923 2.75 6.5V15.5C2.75 17.077 3.423 17.75 5 17.75H11C11.414 17.75 11.75 18.086 11.75 18.5ZM17.106 7.05901C16.863 6.72501 16.3951 6.649 16.0581 6.894L11.146 10.466C11.058 10.529 10.941 10.529 10.853 10.466L5.94092 6.894C5.60292 6.649 5.13607 6.72601 4.89307 7.05901C4.64907 7.39401 4.72311 7.86399 5.05811 8.10699L9.96997 11.679C10.278 11.903 10.639 12.015 10.999 12.015C11.359 12.015 11.7211 11.903 12.0281 11.679L16.9399 8.10699C17.2759 7.86299 17.351 7.39401 17.106 7.05901ZM22 16.75H19.75V14.5C19.75 14.086 19.414 13.75 19 13.75C18.586 13.75 18.25 14.086 18.25 14.5V16.75H16C15.586 16.75 15.25 17.086 15.25 17.5C15.25 17.914 15.586 18.25 16 18.25H18.25V20.5C18.25 20.914 18.586 21.25 19 21.25C19.414 21.25 19.75 20.914 19.75 20.5V18.25H22C22.414 18.25 22.75 17.914 22.75 17.5C22.75 17.086 22.414 16.75 22 16.75Z" fill="white"/>
</svg>
