<svg width="18" height="19" viewBox="0 0 18 19" fill="none" xmlns="http://www.w3.org/2000/svg">
<rect y="0.5" width="18" height="18" rx="9" fill="#999999"/>
<path fill-rule="evenodd" clip-rule="evenodd" d="M9.15306 5.70134L5.265 5.70137C5.07375 5.67137 4.87875 5.72387 4.7325 5.84762C4.58625 5.97512 4.5 6.15887 4.5 6.35012V13.6251C4.5 13.8313 4.66875 14.0001 4.875 14.0001H6.09375V12.3929C6.09375 12.0291 6.38625 11.7366 6.75 11.7366H7.45431C7.81806 11.7366 8.11056 12.0291 8.11056 12.3929V14.0001H9.70431V6.35009C9.70431 6.02759 9.47181 5.75384 9.15306 5.70134ZM5.90648 7.44268C5.72896 7.44268 5.58505 7.58659 5.58505 7.76411C5.58505 7.94163 5.72896 8.08554 5.90648 8.08554H6.45894C6.63646 8.08554 6.78036 7.94163 6.78036 7.76411C6.78036 7.58659 6.63646 7.44268 6.45894 7.44268H5.90648ZM5.58505 9.17852C5.58505 9.001 5.72896 8.85709 5.90648 8.85709H6.45894C6.63646 8.85709 6.78036 9.001 6.78036 9.17852C6.78036 9.35604 6.63646 9.49995 6.45894 9.49995H5.90648C5.72896 9.49995 5.58505 9.35604 5.58505 9.17852ZM7.74465 7.44268C7.56713 7.44268 7.42322 7.58659 7.42322 7.76411C7.42322 7.94163 7.56713 8.08554 7.74465 8.08554H8.29711C8.47463 8.08554 8.61853 7.94163 8.61853 7.76411C8.61853 7.58659 8.47463 7.44268 8.29711 7.44268H7.74465ZM7.42322 9.17852C7.42322 9.001 7.56713 8.85709 7.74465 8.85709H8.29711C8.47463 8.85709 8.61853 9.001 8.61853 9.17852C8.61853 9.35604 8.47463 9.49995 8.29711 9.49995H7.74465C7.56713 9.49995 7.42322 9.35604 7.42322 9.17852Z" fill="white"/>
<path fill-rule="evenodd" clip-rule="evenodd" d="M12.9833 9.06574L10.3111 9.0656L10.3133 14H12.8446C13.2065 14 13.5008 13.7056 13.5008 13.3437V9.70699C13.5008 9.39724 13.2653 9.06574 12.9833 9.06574ZM11.6317 10.4116C11.4542 10.4116 11.3103 10.5556 11.3103 10.7331C11.3103 10.9106 11.4542 11.0545 11.6317 11.0545H12.1842C12.3617 11.0545 12.5056 10.9106 12.5056 10.7331C12.5056 10.5556 12.3617 10.4116 12.1842 10.4116H11.6317ZM11.3103 12.0107C11.3103 11.8332 11.4542 11.6893 11.6317 11.6893H12.1842C12.3617 11.6893 12.5056 11.8332 12.5056 12.0107C12.5056 12.1883 12.3617 12.3322 12.1842 12.3322H11.6317C11.4542 12.3322 11.3103 12.1883 11.3103 12.0107Z" fill="white"/>
</svg>
