<svg width="18" height="18" viewBox="0 0 18 18" fill="none" xmlns="http://www.w3.org/2000/svg">
<rect width="18" height="18" rx="9" fill="#999999"/>
<path d="M12.25 10.6251C11.672 10.6251 11.1672 10.9295 10.8796 11.384L7.26445 9.57644C7.33324 9.39661 7.375 9.20378 7.375 8.99957C7.375 8.7959 7.33324 8.60253 7.26445 8.42269L10.8796 6.61515C11.1677 7.07015 11.672 7.37402 12.25 7.37402C13.1475 7.37402 13.875 6.64656 13.875 5.74902C13.875 4.85148 13.1475 4.12402 12.25 4.12402C11.3525 4.12402 10.625 4.85148 10.625 5.74902C10.625 5.77665 10.632 5.80266 10.6331 5.82974L6.78348 7.75429C6.50181 7.52029 6.14488 7.37349 5.75 7.37349C4.85246 7.37349 4.125 8.10095 4.125 8.99849C4.125 9.89604 4.85246 10.6235 5.75 10.6235C6.14488 10.6235 6.50181 10.4772 6.78348 10.2427L10.6331 12.1672C10.632 12.1943 10.625 12.2203 10.625 12.2479C10.625 13.1455 11.3525 13.8729 12.25 13.8729C13.1475 13.8729 13.875 13.1455 13.875 12.2479C13.875 11.3504 13.1475 10.6251 12.25 10.6251Z" fill="white"/>
</svg>

