<svg width="18" height="18" viewBox="0 0 18 18" fill="none" xmlns="http://www.w3.org/2000/svg">
<path d="M16.7258 4.23646C16.6475 4.04229 16.4767 3.90061 16.2717 3.85811C16.0658 3.81561 15.8533 3.87978 15.7058 4.02728L13.8875 5.83647C13.6483 6.0748 13.2592 6.07479 13.0192 5.83563L12.165 4.98147C11.9258 4.7423 11.925 4.3523 12.1642 4.1123L13.9733 2.2948C14.1208 2.14647 14.1842 1.93395 14.1425 1.72895C14.1008 1.52395 13.9583 1.35313 13.7642 1.2748C12.1625 0.627301 10.3783 0.775628 8.8675 1.67979C8.1825 2.09063 7.6025 2.65479 7.19167 3.30979C7.19167 3.30979 7.19083 3.31063 7.19083 3.31147L7.12249 3.42395C6.44583 4.54312 6.18416 5.79897 6.36666 7.05814C6.3925 7.23647 6.32666 7.42478 6.19083 7.56145L1.755 11.9973C1.1875 12.5648 0.875 13.319 0.875 14.1223C0.875 14.9256 1.1875 15.679 1.755 16.2465C2.3225 16.814 3.07667 17.1265 3.88 17.1265C4.6825 17.1265 5.43667 16.814 6.00417 16.2465L10.44 11.8106C10.5758 11.6748 10.765 11.6089 10.9433 11.6348C12.2 11.8173 13.4533 11.559 14.5675 10.8881C15.2867 10.4556 15.8908 9.85146 16.3117 9.14396C17.2242 7.6323 17.3758 5.84396 16.7258 4.23646ZM15.2392 8.50063C14.9217 9.03479 14.4667 9.48979 13.9225 9.81563C12.8317 10.4731 11.7975 10.494 11.1233 10.3965C10.5533 10.3131 9.97 10.5115 9.55667 10.9256L5.12083 15.3615C4.45667 16.0248 3.30167 16.024 2.63917 15.3615C2.30834 15.0298 2.125 14.5889 2.125 14.1206C2.125 13.6523 2.3075 13.2115 2.63917 12.8798L7.07583 8.44396C7.48916 8.0298 7.68666 7.4448 7.60416 6.87813C7.46416 5.9098 7.6675 4.93896 8.19584 4.06479L8.25167 3.97311C8.55834 3.48478 8.99417 3.06228 9.51 2.75228C10.5717 2.11645 11.5683 2.05395 12.3333 2.17062L11.2775 3.23062C10.5542 3.95812 10.555 5.1398 11.2808 5.86564L12.135 6.71896C12.8608 7.44562 14.0425 7.44646 14.77 6.72229L15.8292 5.66814C15.97 6.63064 15.7692 7.62313 15.2392 8.50063ZM4.01667 13.1665H4.00833C3.54833 13.1665 3.17917 13.5398 3.17917 13.9998C3.17917 14.4598 3.55667 14.8331 4.01667 14.8331C4.47667 14.8331 4.85 14.4598 4.85 13.9998C4.85 13.5398 4.47667 13.1665 4.01667 13.1665Z" fill="#51525C"/>
</svg>
