<svg width="32" height="32" viewBox="0 0 32 32" fill="none" xmlns="http://www.w3.org/2000/svg">
<path d="M28.3613 8.37862C28.236 8.06796 27.9627 7.84128 27.6347 7.77328C27.3053 7.70528 26.9653 7.80795 26.7293 8.04395L23.82 10.9386C23.4373 11.32 22.8147 11.32 22.4307 10.9373L21.064 9.57064C20.6813 9.18797 20.68 8.56397 21.0627 8.17997L23.9573 5.27197C24.1933 5.03464 24.2947 4.69462 24.228 4.36662C24.1613 4.03862 23.9333 3.76531 23.6227 3.63997C21.06 2.60397 18.2053 2.8413 15.788 4.28796C14.692 4.9453 13.764 5.84796 13.1067 6.89596C13.1067 6.89596 13.1053 6.89731 13.1053 6.89864L12.996 7.07861C11.9133 8.86928 11.4947 10.8786 11.7867 12.8933C11.828 13.1786 11.7227 13.4799 11.5053 13.6986L4.408 20.7959C3.5 21.7039 3 22.9106 3 24.196C3 25.4813 3.5 26.6866 4.408 27.5946C5.316 28.5026 6.52267 29.0026 7.80801 29.0026C9.09201 29.0026 10.2987 28.5026 11.2067 27.5946L18.304 20.4973C18.5213 20.2799 18.824 20.1746 19.1093 20.2159C21.12 20.5079 23.1253 20.0946 24.908 19.0213C26.0587 18.3293 27.0253 17.3626 27.6987 16.2306C29.1587 13.812 29.4013 10.9506 28.3613 8.37862ZM25.9827 15.2013C25.4747 16.056 24.7467 16.784 23.876 17.3053C22.1307 18.3573 20.476 18.3906 19.3973 18.2346C18.4853 18.1013 17.552 18.4186 16.8907 19.0813L9.79334 26.1786C8.73067 27.24 6.88268 27.2386 5.82268 26.1786C5.29334 25.648 5 24.9426 5 24.1933C5 23.4439 5.29201 22.7386 5.82268 22.208L12.9213 15.1106C13.5827 14.448 13.8987 13.512 13.7667 12.6053C13.5427 11.056 13.868 9.50263 14.7133 8.10396L14.8027 7.95728C15.2933 7.17594 15.9907 6.49995 16.816 6.00395C18.5147 4.98661 20.1093 4.88662 21.3333 5.07328L19.644 6.76929C18.4867 7.93329 18.488 9.82398 19.6493 10.9853L21.016 12.3506C22.1773 13.5133 24.068 13.5146 25.232 12.356L26.9267 10.6693C27.152 12.2093 26.8307 13.7973 25.9827 15.2013ZM8.02668 22.6666H8.01333C7.27733 22.6666 6.68667 23.264 6.68667 24C6.68667 24.736 7.29068 25.3333 8.02668 25.3333C8.76268 25.3333 9.36001 24.736 9.36001 24C9.36001 23.264 8.76268 22.6666 8.02668 22.6666Z" fill="#61646C"/>
</svg>
