<?xml version="1.0" encoding="UTF-8"?>
<svg width="48px" height="48px" viewBox="0 0 48 48" version="1.1" xmlns="http://www.w3.org/2000/svg" xmlns:xlink="http://www.w3.org/1999/xlink">
    <title>Maintenance</title>
    <g id="New-Property-Menu" stroke="none" stroke-width="1" fill="none" fill-rule="evenodd">
        <g id="Pre-defined-Topic-Icons" transform="translate(-70.000000, -91.000000)" fill="#FFFFFF" fill-rule="nonzero">
            <g id="Maintenance" transform="translate(70.000000, 91.000000)">
                <path d="M21.0073523,0.657323417 C17.4855733,0.0548554011 15.9072393,-0.295435588 12.4020995,0.330641127 C12.1084572,0.436140014 11.9259948,0.7232618 11.8736897,1.02720321 C11.8213847,1.33116837 11.9203022,1.64152204 12.139026,1.85958658 L24.7271984,14.534536 L19.6204106,19.6338785 L14.5537174,24.7038745 L1.86980389,12.1146373 C1.65110394,11.8965728 1.33984594,11.7979426 1.03499507,11.8500957 C0.730168021,11.9022488 0.508062157,12.0755731 0.336403309,12.3769702 C-0.244936119,15.6869067 -0.0156628342,17.5052436 0.588560685,21.0167905 C1.1927842,24.5283373 2.87397755,27.7667692 5.4006027,30.2860772 C7.92722784,32.8051478 11.1750245,34.4815991 14.6966844,35.0841147 C17.9952856,35.6483941 21.3820147,35.2446588 24.4474344,33.9296693 L36.5198008,46.0359467 C37.7809816,47.2934633 39.4916144,48 41.2751313,48 C43.0586482,48 44.7690429,47.2934633 46.0302237,46.0359467 C47.2914045,44.7784301 48,43.0730048 48,41.2946697 C48,39.5163346 47.2914045,37.8106718 46.0302237,36.5531552 L33.9578573,24.4468778 C35.2766785,21.3903644 35.6815902,18.0134751 35.1156666,14.7244576 C34.5113954,11.2130295 32.8300591,7.9746689 30.3036484,5.45538458 C27.7769994,2.93610026 24.5291313,1.25979143 21.0073523,0.657323417 Z" id="Path"></path>
            </g>
        </g>
    </g>
</svg>