<svg width="16" height="16" viewBox="0 0 16 16" fill="none" xmlns="http://www.w3.org/2000/svg">
<path fill-rule="evenodd" clip-rule="evenodd" d="M8.00002 1.26665C6.56786 1.26665 5.19434 1.83558 4.18165 2.84827C3.16895 3.86097 2.60002 5.23448 2.60002 6.66665C2.60002 8.75882 3.95947 10.7792 5.4356 12.3373C6.16139 13.1035 6.88923 13.7304 7.43628 14.166C7.65924 14.3436 7.85136 14.4887 8.00002 14.5978C8.14869 14.4887 8.34081 14.3436 8.56377 14.166C9.11082 13.7304 9.83866 13.1035 10.5645 12.3373C12.0406 10.7792 13.4 8.75882 13.4 6.66665C13.4 5.23448 12.8311 3.86097 11.8184 2.84827C10.8057 1.83558 9.43219 1.26665 8.00002 1.26665ZM8.00002 15.3333C7.6672 15.8325 7.66705 15.8324 7.66687 15.8323L7.6664 15.832L7.66506 15.8311L7.66073 15.8282L7.64569 15.818C7.63288 15.8093 7.61453 15.7968 7.59102 15.7805C7.54401 15.7479 7.47632 15.7004 7.39092 15.6387C7.22016 15.5154 6.97822 15.3353 6.68877 15.1048C6.11082 14.6446 5.33866 13.9798 4.56445 13.1626C3.04058 11.5541 1.40002 9.24115 1.40002 6.66665C1.40002 4.91622 2.09538 3.23749 3.33312 1.99975C4.57086 0.762005 6.2496 0.0666504 8.00002 0.0666504C9.75045 0.0666504 11.4292 0.762005 12.6669 1.99975C13.9047 3.23749 14.6 4.91622 14.6 6.66665C14.6 9.24115 12.9595 11.5541 11.4356 13.1626C10.6614 13.9798 9.88923 14.6446 9.31128 15.1048C9.02183 15.3353 8.77988 15.5154 8.60913 15.6387C8.52372 15.7004 8.45604 15.7479 8.40903 15.7805C8.38552 15.7968 8.36717 15.8093 8.35435 15.818L8.33932 15.8282L8.33499 15.8311L8.33364 15.832L8.33318 15.8323C8.333 15.8324 8.33284 15.8325 8.00002 15.3333ZM8.00002 15.3333L8.33284 15.8325C8.1313 15.9669 7.86874 15.9669 7.6672 15.8325L8.00002 15.3333ZM8.00002 5.26665C7.22683 5.26665 6.60002 5.89345 6.60002 6.66665C6.60002 7.43985 7.22683 8.06665 8.00002 8.06665C8.77322 8.06665 9.40002 7.43985 9.40002 6.66665C9.40002 5.89345 8.77322 5.26665 8.00002 5.26665ZM5.40002 6.66665C5.40002 5.23071 6.56408 4.06665 8.00002 4.06665C9.43596 4.06665 10.6 5.23071 10.6 6.66665C10.6 8.10259 9.43596 9.26665 8.00002 9.26665C6.56408 9.26665 5.40002 8.10259 5.40002 6.66665Z" fill="#ef6820"/>
</svg>
