<svg width="12" height="14" viewBox="0 0 12 14" fill="none" xmlns="http://www.w3.org/2000/svg">
<path fill-rule="evenodd" clip-rule="evenodd" d="M2.12205 1.81353C3.15056 0.780411 4.5455 0.200012 6.00002 0.200012C7.45454 0.200012 8.84949 0.780411 9.87799 1.81353C10.9065 2.84664 11.4843 4.24785 11.4843 5.7089C11.4843 7.84325 10.1036 9.90438 8.60448 11.4939C7.86735 12.2755 7.12816 12.9151 6.57257 13.3595C6.34613 13.5406 6.15101 13.6887 6.00002 13.8C5.84904 13.6887 5.65392 13.5406 5.42748 13.3595C4.87189 12.9151 4.1327 12.2755 3.39557 11.4939C1.89641 9.90438 0.515747 7.84325 0.515747 5.7089C0.515747 4.24785 1.09355 2.84664 2.12205 1.81353ZM6.00004 4.08275C4.88826 4.08275 3.98698 4.94627 3.98698 6.01148C3.98698 7.07668 4.88826 7.9402 6.00004 7.9402C7.11182 7.9402 8.01309 7.07668 8.01309 6.01148C8.01309 4.94627 7.11182 4.08275 6.00004 4.08275Z" fill="#B6B8B9"/>
</svg>
