<svg width="14" height="14" viewBox="0 0 14 14" fill="none" xmlns="http://www.w3.org/2000/svg">
<path fill-rule="evenodd" clip-rule="evenodd" d="M6.99988 2.28678C5.99736 2.28678 5.03591 2.68503 4.32702 3.39391C3.61813 4.1028 3.21988 5.06426 3.21988 6.06678C3.21988 7.53129 4.17149 8.94556 5.20478 10.0363C5.71284 10.5725 6.22232 11.0114 6.60526 11.3163C6.76133 11.4406 6.89582 11.5422 6.99988 11.6186C7.10395 11.5422 7.23843 11.4406 7.3945 11.3163C7.77744 11.0114 8.28693 10.5725 8.79498 10.0363C9.82827 8.94556 10.7799 7.53129 10.7799 6.06678C10.7799 5.06426 10.3816 4.1028 9.67275 3.39391C8.96386 2.68503 8.0024 2.28678 6.99988 2.28678ZM6.99988 12.1334C6.76691 12.4829 6.7668 12.4828 6.76668 12.4827L6.76635 12.4825L6.7654 12.4819L6.76238 12.4799L6.75185 12.4727C6.74288 12.4667 6.73004 12.4579 6.71358 12.4465C6.68067 12.4237 6.63329 12.3904 6.57351 12.3472C6.45398 12.2609 6.28462 12.1348 6.082 11.9735C5.67744 11.6513 5.13693 11.186 4.59498 10.614C3.52827 9.48799 2.37988 7.86893 2.37988 6.06678C2.37988 4.84148 2.86663 3.66636 3.73305 2.79994C4.59947 1.93353 5.77458 1.44678 6.99988 1.44678C8.22518 1.44678 9.4003 1.93353 10.2667 2.79994C11.1331 3.66636 11.6199 4.84148 11.6199 6.06678C11.6199 7.86893 10.4715 9.48799 9.40478 10.614C8.86284 11.186 8.32232 11.6513 7.91776 11.9735C7.71515 12.1348 7.54578 12.2609 7.42626 12.3472C7.36647 12.3904 7.31909 12.4237 7.28619 12.4465C7.26973 12.4579 7.25689 12.4667 7.24791 12.4727L7.23739 12.4799L7.23436 12.4819L7.23342 12.4825L7.23309 12.4827C7.23296 12.4828 7.23286 12.4829 6.99988 12.1334ZM6.99988 12.1334L7.23286 12.4829C7.09178 12.577 6.90799 12.577 6.76691 12.4829L6.99988 12.1334ZM6.99988 5.08678C6.45864 5.08678 6.01988 5.52554 6.01988 6.06678C6.01988 6.60802 6.45864 7.04678 6.99988 7.04678C7.54112 7.04678 7.97988 6.60802 7.97988 6.06678C7.97988 5.52554 7.54112 5.08678 6.99988 5.08678ZM5.17988 6.06678C5.17988 5.06162 5.99472 4.24678 6.99988 4.24678C8.00504 4.24678 8.81988 5.06162 8.81988 6.06678C8.81988 7.07194 8.00504 7.88678 6.99988 7.88678C5.99472 7.88678 5.17988 7.07194 5.17988 6.06678Z" fill="#202020"/>
</svg>
