<svg width="16" height="16" viewBox="0 0 16 16" fill="none" xmlns="http://www.w3.org/2000/svg">
<path fill-rule="evenodd" clip-rule="evenodd" d="M7.99997 2.61332C6.85424 2.61332 5.75543 3.06846 4.94527 3.87862C4.13511 4.68878 3.67997 5.78759 3.67997 6.93332C3.67997 8.60706 4.76752 10.2234 5.94843 11.4699C6.52906 12.0828 7.11133 12.5843 7.54898 12.9328C7.72734 13.0749 7.88104 13.191 7.99997 13.2783C8.1189 13.191 8.2726 13.0749 8.45097 12.9328C8.88861 12.5843 9.47088 12.0828 10.0515 11.4699C11.2324 10.2234 12.32 8.60706 12.32 6.93332C12.32 5.78759 11.8648 4.68878 11.0547 3.87862C10.2445 3.06846 9.14571 2.61332 7.99997 2.61332ZM7.99997 13.8667C7.73372 14.266 7.73359 14.266 7.73345 14.2659L7.73307 14.2656L7.732 14.2649L7.72854 14.2626L7.71651 14.2544C7.70625 14.2475 7.69157 14.2374 7.67277 14.2244C7.63516 14.1984 7.58101 14.1603 7.51269 14.111C7.37608 14.0123 7.18252 13.8682 6.95097 13.6838C6.48861 13.3156 5.87088 12.7839 5.25151 12.1301C4.03242 10.8433 2.71997 8.99292 2.71997 6.93332C2.71997 5.53298 3.27625 4.18999 4.26645 3.1998C5.25664 2.2096 6.59963 1.65332 7.99997 1.65332C9.40031 1.65332 10.7433 2.2096 11.7335 3.1998C12.7237 4.18999 13.28 5.53298 13.28 6.93332C13.28 8.99292 11.9675 10.8433 10.7484 12.1301C10.1291 12.7839 9.51133 13.3156 9.04898 13.6838C8.81742 13.8682 8.62386 14.0123 8.48726 14.111C8.41893 14.1603 8.36478 14.1984 8.32717 14.2244C8.30837 14.2374 8.29369 14.2475 8.28344 14.2544L8.27141 14.2626L8.26795 14.2649L8.26687 14.2656L8.26649 14.2659C8.26635 14.266 8.26623 14.266 7.99997 13.8667ZM7.99997 13.8667L8.26623 14.266C8.105 14.3735 7.89495 14.3735 7.73372 14.266L7.99997 13.8667ZM7.99997 5.81332C7.38141 5.81332 6.87997 6.31476 6.87997 6.93332C6.87997 7.55188 7.38141 8.05332 7.99997 8.05332C8.61853 8.05332 9.11997 7.55188 9.11997 6.93332C9.11997 6.31476 8.61853 5.81332 7.99997 5.81332ZM5.91997 6.93332C5.91997 5.78457 6.85122 4.85332 7.99997 4.85332C9.14872 4.85332 10.08 5.78457 10.08 6.93332C10.08 8.08207 9.14872 9.01332 7.99997 9.01332C6.85122 9.01332 5.91997 8.08207 5.91997 6.93332Z" fill="#999999"/>
</svg>
