<svg width="21" height="20" viewBox="0 0 21 20" fill="none" xmlns="http://www.w3.org/2000/svg">
<path d="M15.5 18.1253H5.5C3.485 18.1253 2.375 17.0153 2.375 15.0003V8.11026C2.375 7.20276 2.82585 6.36027 3.58085 5.85694L8.7666 2.40027C9.81993 1.69861 11.1801 1.69861 12.2334 2.40027L17.4191 5.85694C18.1741 6.36027 18.625 7.20276 18.625 8.11026V15.0003C18.625 17.0153 17.515 18.1253 15.5 18.1253ZM10.5 3.12443C10.1375 3.12443 9.77579 3.22944 9.45996 3.44027L4.27421 6.89694C3.86754 7.16777 3.625 7.62193 3.625 8.11026V15.0003C3.625 16.3144 4.18583 16.8753 5.5 16.8753H15.5C16.8142 16.8753 17.375 16.3144 17.375 15.0003V8.11026C17.375 7.62193 17.1325 7.16777 16.7258 6.89694L11.54 3.44027C11.2242 3.22944 10.8625 3.12443 10.5 3.12443ZM11.2141 12.4503L15.0341 9.67194C15.3133 9.46861 15.375 9.07777 15.1716 8.7986C14.9691 8.52027 14.5801 8.45694 14.2984 8.66111L10.4792 11.4386C10.4242 11.4786 10.3525 11.4786 10.2984 11.4394L6.47839 8.66111C6.19756 8.45777 5.80665 8.52027 5.60498 8.7986C5.40165 9.07777 5.46335 9.46861 5.74251 9.67194L9.5625 12.4503C9.80917 12.6294 10.0983 12.7194 10.3875 12.7194C10.6775 12.7194 10.9674 12.6303 11.2141 12.4503Z" fill="#61646C"/>
</svg>
