<svg width="20" height="20" viewBox="0 0 20 20" fill="none" xmlns="http://www.w3.org/2000/svg">
<path d="M16.75 11.3393V15.3572C16.75 15.6854 16.4696 15.9524 16.125 15.9524H11.7812V17.1429H16.125C17.1589 17.1429 18 16.3418 18 15.3572V11.3393H16.75Z" fill="#B9BEC0"/>
<path d="M16.125 1.90479H11.7812V3.09526H16.125C16.4696 3.09526 16.75 3.36229 16.75 3.6905V7.76788H18V3.6905C18 2.70586 17.1589 1.90479 16.125 1.90479Z" fill="#B9BEC0"/>
<path d="M17.9998 8.95837H13.3837L15.0668 7.35546L14.1829 6.51367L10.9934 9.55123L14.1804 12.6209L15.0693 11.7839L13.3717 10.1489H17.9998V8.95837Z" fill="#B9BEC0"/>
<path d="M3.875 15.9524C3.53038 15.9524 3.25 15.6854 3.25 15.3572V11.3393H2V15.3572C2 16.3418 2.84113 17.1429 3.875 17.1429H8.21875V15.9524H3.875Z" fill="#B9BEC0"/>
<path d="M3.875 1.90479C2.84113 1.90479 2 2.70586 2 3.6905V7.76788H3.25V3.6905C3.25 3.36229 3.53038 3.09526 3.875 3.09526H8.21875V1.90479H3.875Z" fill="#B9BEC0"/>
<path d="M5.81694 6.51367L4.93306 7.35546L6.61612 8.95837H2V10.1489H6.62809L4.93056 11.7839L5.81944 12.6209L9.00641 9.55123L5.81694 6.51367Z" fill="#B9BEC0"/>
</svg>
