<svg width="20" height="20" viewBox="0 0 20 20" fill="none" xmlns="http://www.w3.org/2000/svg">
<path d="M3.16517 18.3337C2.77455 18.3337 2.3952 18.1798 2.10801 17.8926C1.70286 17.4883 1.56354 16.9011 1.74303 16.3609L2.46172 14.2232C2.54548 13.9608 2.5379 13.6975 2.4396 13.4898C1.93359 12.4017 1.66854 11.1965 1.66854 9.99991C1.66854 5.40566 5.40637 1.66699 10.0006 1.66699C14.5957 1.66699 18.3335 5.40481 18.3335 9.99991C18.3335 14.595 14.5957 18.3328 10.0006 18.3328C8.80483 18.3328 7.59968 18.067 6.51758 17.5635C6.3056 17.4618 6.04063 17.455 5.76968 17.5413L3.64221 18.2559C3.48408 18.308 3.3233 18.3337 3.16517 18.3337ZM9.99978 2.94911C6.11241 2.94911 2.94982 6.11168 2.94982 9.99991C2.94982 11.0111 3.17462 12.029 3.59943 12.9436C3.83534 13.4402 3.86609 14.0377 3.68061 14.6215L2.95921 16.7677C2.92331 16.8746 2.97798 16.9506 3.01388 16.9865C3.04978 17.0224 3.12678 17.0772 3.23362 17.0413L5.36881 16.3241C5.96115 16.1352 6.56026 16.1643 7.06285 16.4045C7.97059 16.8267 8.98862 17.0515 9.99978 17.0515C13.888 17.0515 17.0506 13.889 17.0506 10.0007C17.0506 6.11251 13.888 2.94911 9.99978 2.94911Z" fill="#61646C"/>
<path fill-rule="evenodd" clip-rule="evenodd" d="M6.19137 12.3251C6.14651 12.3596 6.09089 12.3773 6.0343 12.3749C5.97772 12.3725 5.92379 12.3502 5.88201 12.312C5.84023 12.2737 5.81327 12.222 5.80587 12.1658C5.79848 12.1097 5.81112 12.0527 5.84158 12.005L8.24841 8.25995C8.3063 8.17072 8.3813 8.09384 8.46906 8.03375C8.55682 7.97366 8.65562 7.93155 8.75975 7.90984C8.86387 7.88813 8.97127 7.88727 9.07573 7.90729C9.18019 7.92731 9.27966 7.96782 9.36838 8.02649L10.6897 8.90738C10.8123 8.98905 10.955 9.0354 11.1022 9.04134C11.2494 9.04729 11.3953 9.0126 11.5241 8.94108L13.8387 7.65503C13.8859 7.62928 13.9404 7.62004 13.9935 7.62878C14.0465 7.63752 14.0952 7.66373 14.1317 7.70326C14.1682 7.7428 14.1904 7.79338 14.1949 7.847C14.1994 7.90061 14.1858 7.95418 14.1564 7.99921L11.9132 11.3631C11.8005 11.5323 11.6279 11.6523 11.4301 11.6991C11.2324 11.7458 11.0243 11.7158 10.8478 11.6151L9.15578 10.6483C9.01776 10.5695 8.85943 10.5334 8.70089 10.5447C8.54234 10.556 8.39072 10.6141 8.26525 10.7117L6.19137 12.3251Z" fill="#61646C"/>
</svg>
