<svg width="17" height="17" viewBox="0 0 17 17" fill="none" xmlns="http://www.w3.org/2000/svg">
<g clip-path="url(#clip0_19966_75509)">
<path fill-rule="evenodd" clip-rule="evenodd" d="M8.00385 1.35731C4.06056 1.37278 1.01524 4.27323 1.03054 8.17471C1.03854 10.2154 1.88182 11.9756 3.2486 13.1883C3.36335 13.2902 3.43293 13.4333 3.43821 13.5867L3.48121 14.8317C3.49494 15.2288 3.90621 15.4856 4.26903 15.3237L5.65601 14.705C5.77357 14.6525 5.90552 14.6424 6.02977 14.676C6.66893 14.8491 7.34881 14.94 8.05709 14.9372C12.0004 14.9217 15.0457 12.0213 15.0304 8.11977C15.0151 4.21829 11.9471 1.34184 8.00385 1.35731Z" fill="url(#paint0_radial_19966_75509)"/>
<path fill-rule="evenodd" clip-rule="evenodd" d="M3.83463 10.1498L5.87807 6.87944C6.20312 6.35918 6.90302 6.22721 7.39522 6.59335L9.03545 7.81352C9.18595 7.9255 9.3924 7.92406 9.54138 7.81008L11.7435 6.12515C12.0375 5.90027 12.4237 6.25157 12.2276 6.56543L10.1842 9.83577C9.8591 10.356 9.1592 10.488 8.66702 10.1218L7.02674 8.90164C6.87626 8.78971 6.66979 8.79113 6.52083 8.90511L4.31868 10.59C4.02474 10.8149 3.63852 10.4636 3.83463 10.1498Z" fill="white"/>
</g>
<defs>
<radialGradient id="paint0_radial_19966_75509" cx="0" cy="0" r="1" gradientUnits="userSpaceOnUse" gradientTransform="translate(3.75422 15.2041) rotate(-0.224727) scale(15.2469 15.2469)">
<stop stop-color="#0099FF"/>
<stop offset="0.6098" stop-color="#A033FF"/>
<stop offset="0.9348" stop-color="#FF5280"/>
<stop offset="1" stop-color="#FF7061"/>
</radialGradient>
<clipPath id="clip0_19966_75509">
<rect width="14" height="14" fill="white" transform="translate(1.00391 1.38477) rotate(-0.224727)"/>
</clipPath>
</defs>
</svg>
