<svg width="20" height="20" viewBox="0 0 20 20" fill="none" xmlns="http://www.w3.org/2000/svg">
<path fill-rule="evenodd" clip-rule="evenodd" d="M6.13771 15.5298L6.6369 15.8191C7.62507 16.3918 8.77333 16.7199 10.0003 16.7199C13.7112 16.7199 16.72 13.7113 16.72 9.99995C16.72 6.28865 13.7112 3.28 10.0003 3.28C6.28883 3.28 3.28009 6.2887 3.28009 9.99995C3.28009 11.1663 3.5767 12.2613 4.09787 13.2158L4.34932 13.6764L3.57587 16.3837L6.13771 15.5298ZM2.47289 16.7513C2.47265 16.7514 2.47312 16.7513 2.47289 16.7513V16.7513ZM5.9951 16.9266C7.17314 17.6093 8.54207 17.9999 10.0003 17.9999C14.4181 17.9999 18 14.4182 18 9.99995C18 5.58174 14.4181 2 10.0003 2C5.58194 2 2.00009 5.58174 2.00009 9.99995C2.00009 11.386 2.35315 12.6914 2.97443 13.8293L2.02572 17.1501C1.95767 17.3879 2.02704 17.6438 2.20556 17.8149C2.38452 17.9858 2.64302 18.0439 2.87766 17.9657L5.9951 16.9266Z" fill="#646464"/>
</svg>
