<svg xmlns="http://www.w3.org/2000/svg" width="25" height="24.1" viewBox="0 0 25 24.1">
  <g fill="none" fill-rule="evenodd">
    <path d="M-4-5h33v33H-4z"/>
    <path
      fill="#009FA9"
      fill-rule="nonzero"
      d="M17.66 23.906l-8.687-6.049H2.885C1.295 17.857 0 16.655 0 15.18v-12.5C0 1.202 1.294 0 2.885 0h19.23C23.705 0 25 1.202 25 2.679v12.5c0 1.476-1.294 2.678-2.885 2.678h-2.884v5.228a1 1 0 0 1-1.572.82zM7 6a1 1 0 0 0 0 2h10a1 1 0 0 0 0-2H7zm0 4a1 1 0 0 0 0 2h5a1 1 0 0 0 0-2H7z"/>
  </g>
</svg>
