<?xml version="1.0" encoding="UTF-8"?>
<svg width="50px" height="7px" viewBox="0 0 50 7" version="1.1" xmlns="http://www.w3.org/2000/svg" xmlns:xlink="http://www.w3.org/1999/xlink">
    <title>Combined Shape</title>
    <defs>
        <path d="M75.2307692,805 C78.4115385,805 81,807.403571 81,810.357143 L81,835.357143 C81,838.310714 78.4115385,840.714286 75.2307692,840.714286 L69.4615385,840.714286 L69.4615385,853.085097 C69.4615385,853.637382 69.0138232,854.085097 68.4615385,854.085097 C68.2572055,854.085097 68.0577766,854.022502 67.8900928,853.905737 L48.9461538,840.714286 L36.7692308,840.714286 C33.5884615,840.714286 31,838.310714 31,835.357143 L31,810.357143 C31,807.403571 33.5884615,805 36.7692308,805 L75.2307692,805 Z M55,825 L45,825 C43.8954305,825 43,825.895431 43,827 C43,828.104569 43.8954305,829 45,829 L45,829 L55,829 C56.1045695,829 57,828.104569 57,827 C57,825.895431 56.1045695,825 55,825 L55,825 Z M65,817 L45,817 C43.8954305,817 43,817.895431 43,819 C43,820.104569 43.8954305,821 45,821 L45,821 L65,821 C66.1045695,821 67,820.104569 67,819 C67,817.895431 66.1045695,817 65,817 L65,817 Z" id="path-1"></path>
    </defs>
    <g id="New-Property-Menu" stroke="none" stroke-width="1" fill="none" fill-rule="evenodd">
        <g id="Pre-defined-Topic-Icons" transform="translate(-31.000000, -805.000000)">
            <mask id="mask-2" fill="white">
                <use xlink:href="#path-1"></use>
            </mask>
            <use id="Combined-Shape" fill="#FFFFFF" fill-rule="nonzero" xlink:href="#path-1"></use>
        </g>
    </g>
</svg>