<svg width="12" height="18" viewBox="0 0 12 18" fill="none" xmlns="http://www.w3.org/2000/svg">
<path fill-rule="evenodd" clip-rule="evenodd" d="M2.23229 1.8656C1.69958 1.8656 1.26774 2.30617 1.26774 2.84964V15.1502C1.26774 15.6937 1.69958 16.1343 2.23229 16.1343H9.76785C10.3006 16.1343 10.7324 15.6937 10.7324 15.1502V2.84964C10.7324 2.30617 10.3006 1.8656 9.76785 1.8656H2.23229ZM0.182617 2.84964C0.182617 1.69476 1.10029 0.758545 2.23229 0.758545H9.76785C10.8999 0.758545 11.8175 1.69476 11.8175 2.84964V15.1502C11.8175 16.3051 10.8999 17.2413 9.76785 17.2413H2.23229C1.10029 17.2413 0.182617 16.3051 0.182617 15.1502V2.84964Z" fill="#999999"/>
<path fill-rule="evenodd" clip-rule="evenodd" d="M5.03027 13.363C5.03027 12.8275 5.46257 12.3934 5.99583 12.3934H6.00387C6.53713 12.3934 6.96943 12.8275 6.96943 13.363C6.96943 13.8985 6.53713 14.3326 6.00387 14.3326H5.99583C5.46257 14.3326 5.03027 13.8985 5.03027 13.363Z" fill="#999999"/>
</svg>
