<svg width="20" height="20" viewBox="0 0 20 20" fill="none" xmlns="http://www.w3.org/2000/svg">
<path d="M3.33665 18.125C2.95579 18.125 2.58593 17.9749 2.30591 17.6949C1.91089 17.3007 1.77505 16.7282 1.95006 16.2015L2.65078 14.1173C2.73245 13.8614 2.72505 13.6047 2.62921 13.4022C2.13586 12.3413 1.87743 11.1663 1.87743 9.99959C1.87743 5.5202 5.52182 1.875 10.0012 1.875C14.4814 1.875 18.1258 5.51937 18.1258 9.99959C18.1258 14.4798 14.4814 18.1241 10.0012 18.1241C8.83531 18.1241 7.6603 17.865 6.60524 17.3741C6.39857 17.275 6.14022 17.2683 5.87604 17.3525L3.80176 18.0492C3.64758 18.1 3.49082 18.125 3.33665 18.125ZM10.0004 3.12506C6.2102 3.12506 3.12668 6.20857 3.12668 9.99959C3.12668 10.9855 3.34586 11.978 3.76005 12.8697C3.99006 13.3539 4.02004 13.9364 3.83919 14.5056L3.13583 16.5982C3.10083 16.7024 3.15414 16.7766 3.18914 16.8116C3.22414 16.8466 3.29921 16.8999 3.40338 16.8649L5.48519 16.1657C6.06272 15.9815 6.64686 16.0099 7.13689 16.2441C8.02193 16.6557 9.01451 16.8749 10.0004 16.8749C13.7914 16.8749 16.8749 13.7914 16.8749 10.0004C16.8749 6.20938 13.7914 3.12506 10.0004 3.12506Z" fill="#61646C"/>
<path fill-rule="evenodd" clip-rule="evenodd" d="M6.28719 12.2666C6.24345 12.3003 6.18922 12.3175 6.13405 12.3152C6.07888 12.3128 6.0263 12.2911 5.98556 12.2538C5.94482 12.2166 5.91854 12.1661 5.91133 12.1114C5.90412 12.0566 5.91645 12.0011 5.94615 11.9545L8.2928 8.30313C8.34925 8.21613 8.42237 8.14118 8.50794 8.08259C8.59351 8.024 8.68983 7.98294 8.79136 7.96178C8.89288 7.94061 8.99759 7.93977 9.09944 7.95929C9.20129 7.97881 9.29827 8.01831 9.38478 8.07551L10.6731 8.93438C10.7926 9.01401 10.9317 9.0592 11.0752 9.06499C11.2187 9.07079 11.361 9.03696 11.4866 8.96724L13.7433 7.71334C13.7894 7.68823 13.8425 7.67922 13.8942 7.68774C13.946 7.69626 13.9934 7.72182 14.029 7.76037C14.0646 7.79891 14.0863 7.84823 14.0906 7.9005C14.095 7.95278 14.0818 8.00501 14.0531 8.04891L11.866 11.3287C11.7561 11.4936 11.5878 11.6107 11.395 11.6563C11.2022 11.7019 10.9992 11.6726 10.8272 11.5744L9.17749 10.6318C9.04292 10.5549 8.88855 10.5198 8.73397 10.5308C8.57938 10.5418 8.43155 10.5984 8.30923 10.6936L6.28719 12.2666Z" fill="#61646C"/>
</svg>
