<svg xmlns="http://www.w3.org/2000/svg" width="51" height="51" viewBox="0 0 51 51">
    <g fill="none" fill-rule="evenodd">
        <g>
            <g>
                <g fill="#6B696C" transform="translate(-128.000000, -720.000000) translate(128.000000, 720.000000)">
                    <circle cx="25.5" cy="25.5" r="25.5"/>
                </g>
                <g>
                    <path fill="#FFF" fill-rule="nonzero" d="M12 14c1.66 0 2.99-1.34 2.99-3L15 5c0-1.66-1.34-3-3-3S9 3.34 9 5v6c0 1.66 1.34 3 3 3zm5.3-3c0 3-2.54 5.1-5.3 5.1S6.7 14 6.7 11H5c0 3.41 2.72 6.23 6 6.72V21h2v-3.28c3.28-.48 6-3.3 6-6.72h-1.7z" transform="translate(-128.000000, -720.000000) translate(128.000000, 720.000000) translate(14.000000, 13.000000)"/>
                    <path d="M0 0L24 0 24 24 0 24z" transform="translate(-128.000000, -720.000000) translate(128.000000, 720.000000) translate(14.000000, 13.000000)"/>
                </g>
            </g>
        </g>
    </g>
</svg>
