<svg xmlns="http://www.w3.org/2000/svg" width="51" height="51" viewBox="0 0 51 51">
    <g fill="none" fill-rule="evenodd">
        <g>
            <g transform="translate(-203.000000, -720.000000) translate(203.000000, 720.000000)">
                <circle cx="25.5" cy="25.5" r="25.5" fill="#fa3939"/>
                <path fill="#FFF" fill-rule="nonzero" d="M35.333 24.368h-2.266c0 .935-.214 1.807-.574 2.59l1.64 1.554c.747-1.238 1.2-2.64 1.2-4.144zm-5.36.215c0-.076.027-.139.027-.215V16.79C30 14.693 28.213 13 26 13s-4 1.693-4 3.79v.227l7.973 7.566zm-14.28-10.32L14 15.867l8.013 7.592v.91c0 2.096 1.774 3.789 3.987 3.789.293 0 .587-.038.867-.101l2.213 2.097c-.947.417-2 .657-3.08.657-3.68 0-7.067-2.653-7.067-6.443h-2.266c0 4.308 3.626 7.87 8 8.489V37h2.666v-4.143c1.214-.164 2.36-.569 3.387-1.137L36.307 37 38 35.396 15.693 14.263z"/>
            </g>
        </g>
    </g>
</svg>
