<svg xmlns="http://www.w3.org/2000/svg" width="31" height="40" viewBox="0 0 31 40">
    <g fill="none" fill-rule="evenodd">
        <g fill="#FFF" fill-rule="nonzero">
            <g>
                <g>
                    <path d="M15.5 25.263c3.676 0 6.62-2.82 6.62-6.316l.023-12.631C22.143 2.82 19.176 0 15.5 0c-3.676 0-6.643 2.821-6.643 6.316v12.631c0 3.495 2.967 6.316 6.643 6.316zm11.736-6.316c0 6.316-5.625 10.737-11.736 10.737-6.111 0-11.736-4.42-11.736-10.737H0c0 7.18 6.023 13.116 13.286 14.148V40h4.428v-6.905C24.977 32.085 31 26.147 31 18.947h-3.764z" transform="translate(-930.000000, -537.000000) translate(849.000000, 493.000000) translate(81.000000, 44.000000)"/>
                </g>
            </g>
        </g>
    </g>
</svg>
