<svg xmlns="http://www.w3.org/2000/svg" width="40" height="40" viewBox="0 0 40 40">
    <g fill="none" fill-rule="evenodd">
        <g fill="#FFF" fill-rule="nonzero">
            <g>
                <g>
                    <path d="M67.556 18.947h-3.778c0 1.558-.356 3.01-.956 4.316l2.734 2.59c1.244-2.064 2-4.4 2-6.906zm-8.934.358c0-.126.045-.231.045-.358V6.316C58.667 2.82 55.689 0 52 0c-3.689 0-6.667 2.821-6.667 6.316v.379l13.29 12.61zm-23.8-17.2L32 4.78l13.356 12.653v1.515c0 3.495 2.955 6.316 6.644 6.316.489 0 .978-.063 1.444-.168l3.69 3.494c-1.578.695-3.334 1.095-5.134 1.095-6.133 0-11.778-4.42-11.778-10.737h-3.778c0 7.18 6.045 13.116 13.334 14.148V40h4.444v-6.905c2.022-.274 3.934-.948 5.645-1.895l9.31 8.8L72 37.326 34.822 2.106z" transform="translate(-699.000000, -537.000000) translate(622.000000, 493.000000) translate(45.000000, 44.000000)"/>
                </g>
            </g>
        </g>
    </g>
</svg>
