<svg width="52" height="52" viewBox="0 0 52 52" fill="none" xmlns="http://www.w3.org/2000/svg">
<rect width="52" height="52" rx="26" fill="#6B696C"/>
<path fill-rule="evenodd" clip-rule="evenodd" d="M29.6189 25.3683C29.6189 27.4651 27.9389 29.1577 25.8421 29.1577C23.7453 29.1577 22.0527 27.4651 22.0527 25.3683V17.7894C22.0527 15.6926 23.7453 14 25.8421 14C27.9389 14 29.6315 15.6926 29.6315 17.7894L29.6189 25.3683ZM25.842 31.8108C29.3283 31.8108 32.5366 29.1582 32.5366 25.3688H34.684C34.684 29.6887 31.2482 33.2508 27.1051 33.8571V38.0002H24.5788V33.8571C20.4357 33.2381 17 29.6761 17 25.3688H19.1473C19.1473 29.1582 22.3557 31.8108 25.842 31.8108Z" fill="white"/>
</svg>
