<svg width="40px" height="40px" viewBox="0 0 40 40" version="1.1" xmlns="http://www.w3.org/2000/svg" xmlns:xlink="http://www.w3.org/1999/xlink">
    <title>Group</title>
    <g id="Video-Calls-Console" stroke="none" stroke-width="1" fill="none" fill-rule="evenodd">
        <g id="Badges" transform="translate(-598.000000, -214.000000)">
            <g id="Group-72" transform="translate(523.000000, 172.000000)">
                <g id="Group" transform="translate(75.000000, 42.000000)">
                    <circle id="Oval-Copy-9" fill="#fa3939" cx="20" cy="20" r="20"></circle>
                    <path d="M14.0375,11 C14.6225,11 15.11,11.4875 15.11,12.0725 C15.11,13.405 15.3158333,14.6941667 15.7166667,15.8966667 C15.8358333,16.2758333 15.7491667,16.6983333 15.4566667,17.0016667 L15.4566667,17.0016667 L13.3441667,18.8 C14.8716667,21.9741667 17.7425,24.7366667 20.8083333,26.1991667 L20.8083333,26.1991667 L22.5091667,24.065 C22.8016667,23.7725 23.2241667,23.675 23.6033333,23.805 C24.8058333,24.195 26.095,24.4116667 27.4275,24.4116667 C28.0125,24.4116667 28.5,24.8991667 28.5,25.4841667 L28.5,25.4841667 L28.5,29.2216667 C28.5,29.8175 28.1966667,30.5 27.4275,30.5 C17.3741667,30.5 9,22.1366667 9,12.0725 C9,11.26 9.70416667,11 10.2891667,11 L10.2891667,11 Z M26.5,11 L28,12.5 L25,15.5 L28,18.5 L26.5,20 L23.5,17 L20.5,20 L19,18.5 L22,15.5 L19,12.5 L20.5,11 L23.5,14 L26.5,11 Z" id="Combined-Shape" fill="#FFFFFF"></path>
                </g>
            </g>
        </g>
    </g>
</svg>