<svg width="32" height="32" viewBox="0 0 32 32" fill="none" xmlns="http://www.w3.org/2000/svg">
<circle cx="16" cy="16" r="16" fill="#fa3939" fill-opacity="0.1"/>
<path d="M21.742 19.7293C20.676 19.7293 19.6447 19.556 18.6827 19.244C18.3793 19.14 18.0413 19.218 17.8073 19.452L16.4467 21.1593C13.994 19.9893 11.6973 17.7793 10.4753 15.24L12.1653 13.8013C12.3993 13.5587 12.4687 13.2207 12.3733 12.9173C12.0527 11.9553 11.888 10.924 11.888 9.858C11.888 9.39 11.498 9 11.03 9H8.03133C7.56333 9 7 9.208 7 9.858C7 17.9093 13.6993 24.6 21.742 24.6C22.3573 24.6 22.6 24.054 22.6 23.5773V20.5873C22.6 20.1193 22.21 19.7293 21.742 19.7293Z" fill="#fa3939"/>
<path d="M17.8122 11.9991L16.2457 13.567V13.5667C16.0885 13.7238 16.0001 13.937 16 14.1592C15.9999 14.3815 16.0881 14.5947 16.2452 14.752C16.4023 14.9092 16.6155 14.9976 16.8377 14.9977C17.06 14.9978 17.2732 14.9096 17.4305 14.7525L18.9988 13.1848L20.5673 14.7525C20.645 14.8308 20.7375 14.8929 20.8393 14.9354C20.9411 14.9779 21.0503 14.9998 21.1607 15C21.271 15.0002 21.3803 14.9785 21.4822 14.9364C21.5842 14.8942 21.6768 14.8323 21.7548 14.7543C21.8328 14.6762 21.8946 14.5835 21.9367 14.4815C21.9787 14.3795 22.0003 14.2702 22 14.1599C21.9997 14.0496 21.9777 13.9404 21.9351 13.8386C21.8926 13.7368 21.8303 13.6444 21.752 13.5667L20.1836 11.9988L21.752 10.431C21.9082 10.2737 21.9957 10.0609 21.9954 9.83916C21.995 9.61745 21.9069 9.4049 21.7502 9.24806C21.5935 9.09121 21.381 9.00286 21.1593 9.00233C20.9376 9.0018 20.7247 9.08914 20.5673 9.24523L18.9988 10.8131L17.4305 9.24523C17.2732 9.08812 17.06 8.99991 16.8377 9C16.6155 9.00009 16.4023 9.08848 16.2452 9.24572C16.0881 9.40296 15.9999 9.61618 16 9.83846C16.0001 10.0607 16.0885 10.2739 16.2457 10.431L17.8122 11.9991Z" fill="#fa3939"/>
</svg>
