<svg width="32" height="32" viewBox="0 0 32 32" fill="none" xmlns="http://www.w3.org/2000/svg">
<circle cx="16" cy="16" r="16" fill="#fa3939" fill-opacity="0.1"/>
<g clip-path="url(#clip0_17347_4006)">
<path d="M23.3337 12.6665L18.667 15.9998L23.3337 19.3332V12.6665Z" fill="#fa3939" stroke="#fa3939" stroke-width="2" stroke-linecap="round" stroke-linejoin="round"/>
<path d="M17.3337 11.3335H10.0003C9.26395 11.3335 8.66699 11.9304 8.66699 12.6668V19.3335C8.66699 20.0699 9.26395 20.6668 10.0003 20.6668H17.3337C18.07 20.6668 18.667 20.0699 18.667 19.3335V12.6668C18.667 11.9304 18.07 11.3335 17.3337 11.3335Z" fill="#fa3939" stroke="#fa3939" stroke-width="2" stroke-linecap="round" stroke-linejoin="round"/>
</g>
<path d="M12.8122 15.9991L11.2457 17.567V17.5667C11.0885 17.7238 11.0001 17.937 11 18.1592C10.9999 18.3815 11.0881 18.5947 11.2452 18.752C11.4023 18.9092 11.6155 18.9976 11.8377 18.9977C12.06 18.9978 12.2732 18.9096 12.4305 18.7525L13.9988 17.1848L15.5673 18.7525C15.645 18.8308 15.7375 18.8929 15.8393 18.9354C15.9411 18.9779 16.0503 18.9998 16.1607 19C16.271 19.0002 16.3803 18.9785 16.4822 18.9364C16.5842 18.8942 16.6768 18.8323 16.7548 18.7543C16.8328 18.6762 16.8946 18.5835 16.9367 18.4815C16.9787 18.3795 17.0003 18.2702 17 18.1599C16.9997 18.0496 16.9777 17.9404 16.9351 17.8386C16.8926 17.7368 16.8303 17.6444 16.752 17.5667L15.1836 15.9988L16.752 14.431C16.9082 14.2737 16.9957 14.0609 16.9954 13.8392C16.995 13.6174 16.9069 13.4049 16.7502 13.2481C16.5935 13.0912 16.381 13.0029 16.1593 13.0023C15.9376 13.0018 15.7247 13.0891 15.5673 13.2452L13.9988 14.8131L12.4305 13.2452C12.2732 13.0881 12.06 12.9999 11.8377 13C11.6155 13.0001 11.4023 13.0885 11.2452 13.2457C11.0881 13.403 10.9999 13.6162 11 13.8385C11.0001 14.0607 11.0885 14.2739 11.2457 14.431L12.8122 15.9991Z" fill="white"/>
<defs>
<clipPath id="clip0_17347_4006">
<rect width="16" height="16" fill="white" transform="translate(8 8)"/>
</clipPath>
</defs>
</svg>
