<svg width="20" height="20" viewBox="0 0 20 20" fill="none" xmlns="http://www.w3.org/2000/svg">
<path d="M2.5 16.875L2.5 11.9641C2.5 11.7984 2.56585 11.6394 2.68306 11.5222C2.80027 11.405 2.95924 11.3391 3.125 11.3391C3.29076 11.3391 3.44973 11.405 3.56694 11.5222C3.68415 11.6394 3.75 11.7984 3.75 11.9641L3.75 16.25L8.03589 16.25C8.20165 16.25 8.36062 16.3158 8.47783 16.4331C8.59504 16.5503 8.66089 16.7092 8.66089 16.875C8.66089 17.0408 8.59504 17.1997 8.47783 17.3169C8.36062 17.4342 8.20165 17.5 8.03589 17.5L3.125 17.5C3.04292 17.5 2.96164 17.4839 2.8858 17.4525C2.80996 17.4211 2.74105 17.375 2.68301 17.317C2.62497 17.2589 2.57893 17.19 2.54753 17.1142C2.51613 17.0384 2.49998 16.9571 2.5 16.875Z" fill="#646464"/>
<path d="M11.3391 3.125C11.3391 3.04292 11.3552 2.96164 11.3866 2.8858C11.418 2.80996 11.4641 2.74105 11.5221 2.68301C11.5802 2.62497 11.6491 2.57893 11.7249 2.54753C11.8007 2.51613 11.882 2.49998 11.9641 2.5L16.875 2.5C16.9571 2.49998 17.0384 2.51613 17.1142 2.54753C17.19 2.57893 17.2589 2.62497 17.317 2.68301C17.375 2.74105 17.4211 2.80996 17.4525 2.8858C17.4839 2.96164 17.5 3.04292 17.5 3.125L17.5 8.03589C17.5 8.20165 17.4342 8.36062 17.3169 8.47783C17.1997 8.59504 17.0408 8.66089 16.875 8.66089C16.7092 8.66089 16.5503 8.59504 16.4331 8.47783C16.3158 8.36062 16.25 8.20165 16.25 8.03589L16.25 3.75L11.9641 3.75C11.882 3.75002 11.8007 3.73387 11.7249 3.70247C11.6491 3.67107 11.5802 3.62503 11.5221 3.56699C11.4641 3.50895 11.418 3.44004 11.3866 3.3642C11.3552 3.28836 11.3391 3.20708 11.3391 3.125Z" fill="#646464"/>
<path d="M10.8483 8.52669C10.8482 8.44461 10.8643 8.36331 10.8958 8.28748C10.9272 8.21165 10.9733 8.14277 11.0314 8.08482L16.433 2.6832C16.5506 2.56776 16.709 2.50341 16.8737 2.50416C17.0385 2.5049 17.1963 2.57068 17.3128 2.68719C17.4293 2.80369 17.4951 2.96149 17.4958 3.12625C17.4966 3.29101 17.4322 3.4494 17.3168 3.56695L11.9152 8.96857C11.8278 9.05595 11.7164 9.11545 11.5952 9.13956C11.474 9.16366 11.3483 9.15128 11.2341 9.10399C11.12 9.0567 11.0224 8.97661 10.9537 8.87385C10.885 8.7711 10.8483 8.65029 10.8483 8.52669Z" fill="#646464"/>
<path d="M2.50034 16.8749C2.50024 16.7928 2.51637 16.7116 2.5478 16.6357C2.57922 16.5599 2.62533 16.491 2.68346 16.4331L8.08503 11.0314C8.20223 10.9142 8.36118 10.8484 8.52692 10.8484C8.69267 10.8484 8.85162 10.9142 8.96882 11.0314C9.08601 11.1486 9.15186 11.3076 9.15186 11.4733C9.15186 11.6391 9.08601 11.798 8.96882 11.9152L3.56723 17.3168C3.47982 17.4042 3.36847 17.4637 3.24725 17.4878C3.12603 17.5119 3.00038 17.4995 2.88619 17.4522C2.77201 17.4049 2.67441 17.3249 2.60573 17.2221C2.53705 17.1193 2.50036 16.9985 2.50034 16.8749Z" fill="#646464"/>
</svg>
