<svg width="20" height="20" viewBox="0 0 20 20" fill="none" xmlns="http://www.w3.org/2000/svg">
<path d="M9.15186 11.4734L9.15185 16.3843C9.15185 16.55 9.08601 16.709 8.9688 16.8262C8.85159 16.9434 8.69261 17.0093 8.52685 17.0093C8.36109 17.0093 8.20212 16.9434 8.08491 16.8262C7.9677 16.709 7.90185 16.55 7.90185 16.3843L7.90186 12.0984L3.61597 12.0984C3.45021 12.0984 3.29124 12.0325 3.17403 11.9153C3.05682 11.7981 2.99097 11.6392 2.99097 11.4734C2.99097 11.3076 3.05682 11.1487 3.17403 11.0314C3.29124 10.9142 3.45021 10.8484 3.61597 10.8484L8.52686 10.8484C8.60894 10.8484 8.69022 10.8645 8.76606 10.8959C8.8419 10.9273 8.9108 10.9734 8.96885 11.0314C9.02689 11.0894 9.07292 11.1583 9.10432 11.2342C9.13572 11.31 9.15188 11.3913 9.15186 11.4734Z" fill="#646464"/>
<path d="M17.0093 8.52661C17.0093 8.60869 16.9931 8.68998 16.9617 8.76581C16.9303 8.84165 16.8843 8.91056 16.8263 8.9686C16.7682 9.02664 16.6993 9.07268 16.6235 9.10408C16.5476 9.13548 16.4664 9.15163 16.3843 9.15161L11.4734 9.15161C11.3913 9.15163 11.31 9.13548 11.2342 9.10408C11.1583 9.07268 11.0894 9.02664 11.0314 8.9686C10.9734 8.91056 10.9273 8.84165 10.8959 8.76581C10.8645 8.68998 10.8484 8.60869 10.8484 8.52661L10.8484 3.61572C10.8484 3.44996 10.9142 3.29099 11.0314 3.17378C11.1487 3.05657 11.3076 2.99072 11.4734 2.99072C11.6391 2.99072 11.7981 3.05657 11.9153 3.17378C12.0325 3.29099 12.0984 3.44996 12.0984 3.61572L12.0984 7.90161L16.3843 7.90161C16.4664 7.90159 16.5476 7.91774 16.6235 7.94914C16.6993 7.98055 16.7682 8.02658 16.8263 8.08462C16.8843 8.14266 16.9303 8.21157 16.9617 8.28741C16.9931 8.36325 17.0093 8.44453 17.0093 8.52661Z" fill="#646464"/>
<path d="M17.5001 3.12492C17.5002 3.20701 17.484 3.2883 17.4526 3.36413C17.4212 3.43997 17.3751 3.50884 17.317 3.5668L11.9153 8.96841C11.7978 9.08385 11.6394 9.1482 11.4746 9.14745C11.3099 9.14671 11.1521 9.08093 11.0356 8.96442C10.9191 8.84792 10.8533 8.69012 10.8525 8.52536C10.8518 8.3606 10.9161 8.20221 11.0316 8.08466L16.4332 2.68305C16.5206 2.59566 16.632 2.53616 16.7532 2.51206C16.8744 2.48795 17.0001 2.50033 17.1142 2.54762C17.2284 2.59491 17.326 2.675 17.3947 2.77776C17.4634 2.88052 17.5001 3.00133 17.5001 3.12492Z" fill="#646464"/>
<path d="M9.15152 11.4735C9.15161 11.5555 9.13548 11.6368 9.10406 11.7127C9.07263 11.7885 9.02653 11.8574 8.9684 11.9153L3.56683 17.317C3.44963 17.4342 3.29067 17.5 3.12493 17.5C2.95919 17.5 2.80024 17.4342 2.68304 17.317C2.56584 17.1998 2.5 17.0408 2.5 16.8751C2.5 16.7093 2.56584 16.5504 2.68304 16.4332L8.08463 11.0316C8.17203 10.9442 8.28339 10.8847 8.40461 10.8606C8.52583 10.8365 8.65147 10.8489 8.76566 10.8962C8.87985 10.9435 8.97745 11.0235 9.04613 11.1263C9.11481 11.2291 9.15149 11.3499 9.15152 11.4735Z" fill="#646464"/>
</svg>
