<svg width="16" height="16" viewBox="0 0 16 16" fill="none" xmlns="http://www.w3.org/2000/svg">
<path fill-rule="evenodd" clip-rule="evenodd" d="M5.57557 13.0033C5.79873 12.7801 6.16054 12.7801 6.3837 13.0033L8.00107 14.6207L9.61845 13.0033C9.84161 12.7801 10.2034 12.7801 10.4266 13.0033C10.6497 13.2265 10.6497 13.5883 10.4266 13.8114L8.40514 15.8329C8.18198 16.056 7.82017 16.056 7.59701 15.8329L5.57557 13.8114C5.35241 13.5883 5.35241 13.2265 5.57557 13.0033Z" fill="black"/>
<path fill-rule="evenodd" clip-rule="evenodd" d="M7.99721 9.71094C8.31281 9.71094 8.56864 9.96678 8.56864 10.2824V15.4253C8.56864 15.7408 8.31281 15.9967 7.99721 15.9967C7.68162 15.9967 7.42578 15.7408 7.42578 15.4253V10.2824C7.42578 9.96678 7.68162 9.71094 7.99721 9.71094Z" fill="black"/>
<path fill-rule="evenodd" clip-rule="evenodd" d="M7.59701 0.167368C7.82017 -0.0557895 8.18198 -0.0557895 8.40514 0.167368L10.4266 2.18881C10.6497 2.41197 10.6497 2.77378 10.4266 2.99693C10.2034 3.22009 9.84161 3.22009 9.61845 2.99693L8.00107 1.37956L6.3837 2.99693C6.16054 3.22009 5.79873 3.22009 5.57557 2.99693C5.35241 2.77378 5.35241 2.41197 5.57557 2.18881L7.59701 0.167368Z" fill="black"/>
<path fill-rule="evenodd" clip-rule="evenodd" d="M7.99721 0C8.31281 0 8.56864 0.255839 8.56864 0.571432V5.71432C8.56864 6.02991 8.31281 6.28575 7.99721 6.28575C7.68162 6.28575 7.42578 6.02991 7.42578 5.71432V0.571432C7.42578 0.255839 7.68162 0 7.99721 0Z" fill="black"/>
<path fill-rule="evenodd" clip-rule="evenodd" d="M2.99693 5.57557C3.22009 5.79873 3.22009 6.16054 2.99693 6.3837L1.37956 8.00107L2.99693 9.61845C3.22009 9.84161 3.22009 10.2034 2.99693 10.4266C2.77378 10.6497 2.41197 10.6497 2.18881 10.4266L0.167368 8.40514C-0.0557895 8.18198 -0.0557895 7.82017 0.167368 7.59701L2.18881 5.57557C2.41197 5.35241 2.77378 5.35241 2.99693 5.57557Z" fill="black"/>
<path fill-rule="evenodd" clip-rule="evenodd" d="M0 7.99721C0 7.68162 0.255839 7.42578 0.571432 7.42578H5.71432C6.02991 7.42578 6.28575 7.68162 6.28575 7.99721C6.28575 8.31281 6.02991 8.56864 5.71432 8.56864H0.571432C0.255839 8.56864 0 8.31281 0 7.99721Z" fill="black"/>
<path fill-rule="evenodd" clip-rule="evenodd" d="M13.0033 5.57557C13.2265 5.35241 13.5883 5.35241 13.8114 5.57557L15.8329 7.59701C16.056 7.82017 16.056 8.18198 15.8329 8.40514L13.8114 10.4266C13.5883 10.6497 13.2265 10.6497 13.0033 10.4266C12.7801 10.2034 12.7801 9.84161 13.0033 9.61845L14.6207 8.00107L13.0033 6.3837C12.7801 6.16054 12.7801 5.79873 13.0033 5.57557Z" fill="black"/>
<path fill-rule="evenodd" clip-rule="evenodd" d="M9.71094 7.99721C9.71094 7.68162 9.96678 7.42578 10.2824 7.42578H15.4253C15.7408 7.42578 15.9967 7.68162 15.9967 7.99721C15.9967 8.31281 15.7408 8.56864 15.4253 8.56864H10.2824C9.96678 8.56864 9.71094 8.31281 9.71094 7.99721Z" fill="black"/>
</svg>
