<svg xmlns="http://www.w3.org/2000/svg" width="24" height="24" viewBox="0 0 24 24" fill="none">
  <path fill-rule="evenodd" clip-rule="evenodd" d="M11.9993 2.72003C6.87409 2.72003 2.7193 6.87483 2.7193 12C2.7193 17.1252 6.87409 21.28 11.9993 21.28C17.1245 21.28 21.2793 17.1252 21.2793 12C21.2793 6.87483 17.1245 2.72003 11.9993 2.72003ZM1.2793 12C1.2793 6.07954 6.0788 1.28003 11.9993 1.28003C17.9198 1.28003 22.7193 6.07954 22.7193 12C22.7193 17.9205 17.9198 22.72 11.9993 22.72C6.0788 22.72 1.2793 17.9205 1.2793 12Z" fill="#646464"/>
  <path fill-rule="evenodd" clip-rule="evenodd" d="M11.4902 7.49091C11.7714 7.20973 12.2272 7.20973 12.5084 7.49091L16.5084 11.4909C16.7896 11.7721 16.7896 12.228 16.5084 12.5091L12.5084 16.5091C12.2272 16.7903 11.7714 16.7903 11.4902 16.5091C11.209 16.228 11.209 15.7721 11.4902 15.4909L14.9811 12L11.4902 8.50915C11.209 8.22797 11.209 7.77209 11.4902 7.49091Z" fill="#646464"/>
  <path fill-rule="evenodd" clip-rule="evenodd" d="M7.2793 12C7.2793 11.6024 7.60165 11.28 7.9993 11.28H15.9993C16.3969 11.28 16.7193 11.6024 16.7193 12C16.7193 12.3977 16.3969 12.72 15.9993 12.72H7.9993C7.60165 12.72 7.2793 12.3977 7.2793 12Z" fill="#646464"/>
</svg>