<svg width="16" height="16" viewBox="0 0 16 16" fill="none" color="#28ad99" xmlns="http://www.w3.org/2000/svg">
<path d="M13.6871 2.17678C13.5821 2.07961 13.4236 2.00429 13.2805 2H8.51273C8.22165 2.0156 7.87075 2.25265 7.8587 2.58332C7.84678 2.90903 8.15616 3.2083 8.48181 3.19765L11.8366 3.19765L7.59066 7.40941C7.35635 7.64372 7.35635 8.02361 7.59066 8.25798C7.82496 8.49229 8.20492 8.49229 8.43923 8.25798L12.651 4.14453V7.37683C12.6513 7.66664 12.9395 8.00844 13.2653 8C13.5911 7.99163 13.845 7.63632 13.8486 7.3459L13.8639 2.58339C13.8591 2.42368 13.8002 2.28942 13.6871 2.17678Z" fill="currentColor"/>
<path fill-rule="evenodd" clip-rule="evenodd" d="M2 3.00001C2 2.44772 2.44772 2.00001 3 2.00001H5.16364C5.52513 2.00001 5.81818 2.28782 5.81818 2.64286C5.81818 2.9979 5.52513 3.28572 5.16364 3.28572H3.30909V12.7143H12.6909V10.6786C12.6909 10.3235 12.984 10.0357 13.3455 10.0357C13.707 10.0357 14 10.3235 14 10.6786V13C14 13.5523 13.5523 14 13 14H3C2.44772 14 2 13.5523 2 13V3.00001Z" fill="currentColor"/>
</svg>
