<svg width="20" height="20" viewBox="0 0 20 20" fill="none" xmlns="http://www.w3.org/2000/svg">
<path fill-rule="evenodd" clip-rule="evenodd" d="M12.0758 2.90907C12.3101 2.67476 12.69 2.67476 12.9243 2.90907L17.091 7.07574C17.3253 7.31005 17.3253 7.68995 17.091 7.92427L12.9243 12.0909C12.69 12.3252 12.3101 12.3252 12.0758 12.0909C11.8415 11.8566 11.8415 11.4767 12.0758 11.2424L15.8182 7.5L12.0758 3.7576C11.8415 3.52329 11.8415 3.14339 12.0758 2.90907Z" fill="#202020"/>
<path fill-rule="evenodd" clip-rule="evenodd" d="M6.66673 8.1C5.94181 8.1 5.24657 8.38798 4.73397 8.90058C4.22137 9.41318 3.9334 10.1084 3.9334 10.8333V16.6667C3.9334 16.998 3.66477 17.2667 3.3334 17.2667C3.00203 17.2667 2.7334 16.998 2.7334 16.6667V10.8333C2.7334 9.79015 3.1478 8.78969 3.88544 8.05205C4.62309 7.31441 5.62355 6.9 6.66673 6.9H16.6667C16.9981 6.9 17.2667 7.16863 17.2667 7.5C17.2667 7.83138 16.9981 8.1 16.6667 8.1H6.66673Z" fill="#202020"/>
</svg>
