<svg width="20" height="20" viewBox="0 0 20 20" fill="currentColor" xmlns="http://www.w3.org/2000/svg">
<path fill-rule="evenodd" clip-rule="evenodd" d="M12.0758 2.90901C12.3101 2.6747 12.69 2.6747 12.9243 2.90901L17.091 7.07568C17.3253 7.30999 17.3253 7.68989 17.091 7.92421L12.9243 12.0909C12.69 12.3252 12.3101 12.3252 12.0758 12.0909C11.8415 11.8566 11.8415 11.4767 12.0758 11.2423L15.8182 7.49994L12.0758 3.75754C11.8415 3.52323 11.8415 3.14333 12.0758 2.90901Z" fill="#646464"/>
<path fill-rule="evenodd" clip-rule="evenodd" d="M6.66673 8.09994C5.94181 8.09994 5.24657 8.38792 4.73397 8.90052C4.22137 9.41312 3.9334 10.1084 3.9334 10.8333V16.6666C3.9334 16.998 3.66477 17.2666 3.3334 17.2666C3.00203 17.2666 2.7334 16.998 2.7334 16.6666V10.8333C2.7334 9.79009 3.1478 8.78963 3.88544 8.05199C4.62309 7.31435 5.62355 6.89994 6.66673 6.89994H16.6667C16.9981 6.89994 17.2667 7.16857 17.2667 7.49994C17.2667 7.83131 16.9981 8.09994 16.6667 8.09994H6.66673Z" fill="#646464"/>
</svg>
