<svg width="28" height="28" viewBox="0 0 28 28" fill="none" xmlns="http://www.w3.org/2000/svg">
<rect width="28" height="28" rx="14" fill="#D8DCDF"/>
<path fill-rule="evenodd" clip-rule="evenodd" d="M17.8967 10.8806C17.8967 13.0347 16.1795 14.762 14.0378 14.762C11.8961 14.762 10.1788 13.0347 10.1788 10.8806C10.1788 8.72561 11.8961 7 14.0378 7C16.1795 7 17.8967 8.72561 17.8967 10.8806ZM14.0366 21.6707C10.891 21.6707 8.20508 21.1721 8.20508 19.1773C8.20508 17.1817 10.8738 16.6648 14.0366 16.6648C17.1822 16.6648 19.8682 17.1635 19.8682 19.1591C19.8682 21.1539 17.1995 21.6707 14.0366 21.6707Z" fill="#999999"/>
<path fill-rule="evenodd" clip-rule="evenodd" d="M17.8969 10.8806C17.8969 13.0347 16.1797 14.762 14.038 14.762C11.8963 14.762 10.179 13.0347 10.179 10.8806C10.179 8.72561 11.8963 7 14.038 7C16.1797 7 17.8969 8.72561 17.8969 10.8806ZM14.0368 21.6707C10.8912 21.6707 8.20527 21.1721 8.20527 19.1773C8.20527 17.1817 10.874 16.6648 14.0368 16.6648C17.1824 16.6648 19.8684 17.1635 19.8684 19.1591C19.8684 21.1539 17.1997 21.6707 14.0368 21.6707ZM19.5463 10.9489C19.5463 12.047 19.2188 13.07 18.6442 13.9204C18.5851 14.0079 18.6376 14.126 18.7419 14.1441C18.8855 14.1689 19.0341 14.1829 19.1851 14.1871C20.6914 14.2267 22.0434 13.2516 22.4169 11.7836C22.9702 9.60304 21.3457 7.64542 19.2771 7.64542C19.0521 7.64542 18.8371 7.66936 18.6277 7.7123C18.599 7.7189 18.5686 7.73211 18.5522 7.75771C18.5325 7.78908 18.5473 7.83119 18.567 7.85844C19.1884 8.73445 19.5463 9.80285 19.5463 10.9489ZM22.0409 15.722C23.053 15.921 23.7187 16.3272 23.9946 16.9176C24.2277 17.4022 24.2277 17.9645 23.9946 18.4483C23.5726 19.364 22.2124 19.6579 21.6838 19.7339C21.5746 19.7504 21.4868 19.6554 21.4983 19.5456C21.7683 17.0084 19.6201 15.8054 19.0643 15.5288C19.0405 15.5164 19.0356 15.4975 19.0381 15.4859C19.0397 15.4776 19.0496 15.4644 19.0676 15.4619C20.2702 15.4397 21.5631 15.6048 22.0409 15.722ZM8.98417 14.1871C9.13521 14.1829 9.28297 14.1697 9.42745 14.1441C9.5317 14.126 9.58424 14.0079 9.52513 13.9204C8.95052 13.07 8.62298 12.047 8.62298 10.9489C8.62298 9.80285 8.98089 8.73445 9.6023 7.85844C9.622 7.83119 9.63595 7.78908 9.61707 7.75771C9.60065 7.73294 9.56946 7.7189 9.54155 7.7123C9.33141 7.66936 9.11633 7.64542 8.89141 7.64542C6.82279 7.64542 5.19827 9.60304 5.75236 11.7836C6.12586 13.2516 7.47785 14.2267 8.98417 14.1871ZM9.13113 15.4869C9.13359 15.4993 9.12867 15.5174 9.10568 15.5307C8.54912 15.8073 6.40087 17.0102 6.67094 19.5466C6.68244 19.6573 6.59542 19.7514 6.48625 19.7357C5.9576 19.6597 4.5974 19.3658 4.17546 18.4502C3.94151 17.9655 3.94151 17.4041 4.17546 16.9194C4.45128 16.3291 5.11619 15.9228 6.12834 15.723C6.60692 15.6066 7.89898 15.4415 9.1024 15.4638C9.12046 15.4663 9.12949 15.4795 9.13113 15.4869Z" fill="#999999"/>
</svg>
