<svg width="53" height="52" viewBox="0 0 53 52" fill="none" xmlns="http://www.w3.org/2000/svg">
<circle cx="26.5" cy="26" r="26" fill="#fa3939" fill-opacity="0.1"/>
<path fill-rule="evenodd" clip-rule="evenodd" d="M30.7476 24.838C30.7476 24.8001 30.7543 24.7654 30.761 24.7307C30.7676 24.6959 30.7743 24.6612 30.7743 24.6233V17.0444C30.7743 14.9475 28.9876 13.2549 26.7743 13.2549C24.561 13.2549 22.7743 14.9475 22.7743 17.0444V17.2717L30.7476 24.838ZM36.1078 24.6238H33.8411C33.8411 25.5585 33.6278 26.4301 33.2678 27.2132L34.9078 28.7669C35.6544 27.529 36.1078 26.1269 36.1078 24.6238ZM14.7744 16.1224L16.4677 14.5182L38.7744 35.6508L37.0811 37.255L31.4944 31.975C30.4677 32.5435 29.3211 32.9477 28.1077 33.1119V37.255H25.4411V33.1119C21.0677 32.4929 17.4411 28.9308 17.4411 24.6235H19.7077C19.7077 28.4129 23.0944 31.0656 26.7744 31.0656C27.8544 31.0656 28.9077 30.8256 29.8544 30.4087L27.6411 28.3119C27.3611 28.375 27.0677 28.4129 26.7744 28.4129C24.5611 28.4129 22.7877 26.7203 22.7877 24.6235V23.714L14.7744 16.1224Z" fill="#fa3939"/>
</svg>
