<svg width="24" height="24" viewBox="0 0 24 24" fill="none" xmlns="http://www.w3.org/2000/svg">
<circle opacity="0.302757" cx="12" cy="12" r="12" fill="black"/>
<path fill-rule="evenodd" clip-rule="evenodd" d="M14.5605 12.0002C14.5605 11.9778 14.5641 11.9572 14.5676 11.9366C14.5712 11.9161 14.5748 11.8955 14.5748 11.8731V7.38641C14.5748 6.14509 13.6176 5.14307 12.4319 5.14307C11.2462 5.14307 10.2891 6.14509 10.2891 7.38641V7.52101L14.5605 12.0002ZM18.0033 12H16.6351C16.6351 12.5801 16.5064 13.1211 16.2891 13.6071L17.279 14.5714C17.7297 13.8031 18.0033 12.9329 18.0033 12ZM6.00391 6.90714L6.91105 6L18.8611 17.95L17.9539 18.8571L14.9611 15.8714C14.4111 16.1929 13.7968 16.4214 13.1468 16.5143V18.8571H11.7182V16.5143C9.37534 16.1643 7.43248 14.15 7.43248 11.7143H8.64676C8.64676 13.8571 10.4611 15.3571 12.4325 15.3571C13.0111 15.3571 13.5753 15.2214 14.0825 14.9857L12.8968 13.8C12.7468 13.8357 12.5896 13.8571 12.4325 13.8571C11.2468 13.8571 10.2968 12.9 10.2968 11.7143V11.2L6.00391 6.90714Z" fill="white"/>
</svg>
