<svg width="16" height="16" viewBox="0 0 16 16" fill="none" xmlns="http://www.w3.org/2000/svg">
<path fill-rule="evenodd" clip-rule="evenodd" d="M9.17191 2.97282C9.3105 3.03942 9.39863 3.17958 9.39863 3.33334V12.6667C9.39863 12.8204 9.3105 12.9606 9.17191 13.0272C9.03332 13.0938 8.86882 13.0751 8.74876 12.979L5.52499 10.4H2.99863C2.77772 10.4 2.59863 10.2209 2.59863 10V6C2.59863 5.77909 2.77772 5.6 2.99863 5.6H5.52499L8.74876 3.02099C8.86882 2.92494 9.03332 2.90621 9.17191 2.97282Z" fill="#646464"/>
<path fill-rule="evenodd" clip-rule="evenodd" d="M14.6779 6.11719C14.8341 6.2734 14.8341 6.52666 14.6779 6.68287L11.4779 9.88287C11.3217 10.0391 11.0685 10.0391 10.9122 9.88287C10.756 9.72666 10.756 9.4734 10.9122 9.31719L14.1122 6.11719C14.2685 5.96098 14.5217 5.96098 14.6779 6.11719Z" fill="#646464"/>
<path fill-rule="evenodd" clip-rule="evenodd" d="M10.9122 6.11719C11.0685 5.96098 11.3217 5.96098 11.4779 6.11719L14.6779 9.31719C14.8341 9.4734 14.8341 9.72666 14.6779 9.88287C14.5217 10.0391 14.2685 10.0391 14.1122 9.88287L10.9122 6.68287C10.756 6.52666 10.756 6.2734 10.9122 6.11719Z" fill="#646464"/>
</svg>
