<svg width="20" height="20" viewBox="0 0 20 20" fill="none" xmlns="http://www.w3.org/2000/svg">
<path d="M16.4581 4.16669V12.5C16.4581 12.845 16.1781 13.125 15.8331 13.125C15.4881 13.125 15.2081 12.845 15.2081 12.5V5.67588L5.44151 15.4425C5.31984 15.5642 5.15982 15.6258 4.99982 15.6258C4.83982 15.6258 4.67979 15.565 4.55812 15.4425C4.31396 15.1984 4.31396 14.8025 4.55812 14.5583L14.3248 4.79169H7.49982C7.15482 4.79169 6.87482 4.51169 6.87482 4.16669C6.87482 3.82169 7.15482 3.54169 7.49982 3.54169H15.8331C15.9148 3.54169 15.9957 3.55844 16.0724 3.59011C16.2249 3.65344 16.3466 3.77511 16.4107 3.92845C16.4416 4.00428 16.4581 4.08502 16.4581 4.16669Z" fill="white"/>
</svg>
