<svg width="13" height="12" viewBox="0 0 13 12" fill="none" xmlns="http://www.w3.org/2000/svg">
<g clip-path="url(#clip0_12792_211053)">
<path d="M12.3055 0.576799C12.2005 0.479633 12.042 0.404308 11.8989 0.400022H7.13114C6.84005 0.415625 6.48915 0.652673 6.4771 0.983342C6.46518 1.30906 6.77456 1.60832 7.10021 1.59767L10.455 1.59768L6.20906 5.80943C5.97475 6.04374 5.97475 6.42363 6.20906 6.658C6.44337 6.89231 6.82332 6.89231 7.05763 6.658L11.2694 2.54456V5.77685C11.2697 6.06666 11.5579 6.40846 11.8837 6.40002C12.2095 6.39165 12.4634 6.03634 12.467 5.74592L12.4823 0.983409C12.4775 0.823699 12.4186 0.689445 12.3055 0.576799Z" fill="white"/>
<path fill-rule="evenodd" clip-rule="evenodd" d="M1.46729 1.40002C1.46729 0.84774 1.915 0.400024 2.46728 0.400024H4.36729C4.69866 0.400024 4.96729 0.668654 4.96729 1.00002C4.96729 1.3314 4.69866 1.60002 4.36729 1.60002H2.66729V10.4H11.2673V8.50002C11.2673 8.16865 11.5359 7.90002 11.8673 7.90002C12.1987 7.90002 12.4673 8.16865 12.4673 8.50002V10.6C12.4673 11.1523 12.0196 11.6 11.4673 11.6H2.46729C1.915 11.6 1.46729 11.1523 1.46729 10.6V1.40002Z" fill="white"/>
</g>
<defs>
<clipPath id="clip0_12792_211053">
<rect width="12" height="12" fill="white" transform="translate(0.974609)"/>
</clipPath>
</defs>
</svg>
