<svg width="16" height="17" viewBox="0 0 16 17" fill="none" xmlns="http://www.w3.org/2000/svg">
<path d="M13.1665 4.04852V10.7152C13.1665 10.9912 12.9425 11.2152 12.6665 11.2152C12.3905 11.2152 12.1665 10.9912 12.1665 10.7152V5.25588L4.35321 13.0692C4.25587 13.1665 4.12785 13.2158 3.99985 13.2158C3.87185 13.2158 3.74383 13.1672 3.6465 13.0692C3.45117 12.8739 3.45117 12.5572 3.6465 12.3618L11.4598 4.54852H5.99985C5.72385 4.54852 5.49985 4.32452 5.49985 4.04852C5.49985 3.77252 5.72385 3.54852 5.99985 3.54852H12.6665C12.7319 3.54852 12.7966 3.56193 12.8579 3.58726C12.9799 3.63793 13.0773 3.73526 13.1286 3.85793C13.1533 3.9186 13.1665 3.98319 13.1665 4.04852Z" fill="#28AD99"/>
</svg>
