<svg width="20" height="20" viewBox="0 0 20 20" fill="none" xmlns="http://www.w3.org/2000/svg">
<path d="M17.6872 2.17678C17.5822 2.07961 17.4237 2.00429 17.2806 2H10.5128C10.2218 2.0156 9.87086 2.25265 9.85881 2.58332C9.84689 2.90903 10.1563 3.2083 10.4819 3.19765L15.8367 3.19765L9.59077 9.40941C9.35646 9.64372 9.35646 10.0236 9.59077 10.258C9.82508 10.4923 10.205 10.4923 10.4393 10.258L16.6511 4.14453V9.37683C16.6514 9.66664 16.9396 10.0084 17.2654 10C17.5912 9.99163 17.8451 9.63632 17.8488 9.3459L17.864 2.58339C17.8592 2.42368 17.8003 2.28942 17.6872 2.17678Z" fill="#646464"/>
<path fill-rule="evenodd" clip-rule="evenodd" d="M2 3C2 2.44772 2.44772 2 3 2H6.16364C6.52513 2 6.81818 2.28782 6.81818 2.64286C6.81818 2.9979 6.52513 3.28571 6.16364 3.28571H3.30909V16.7143H16.6909V13.6786C16.6909 13.3235 16.984 13.0357 17.3455 13.0357C17.7069 13.0357 18 13.3235 18 13.6786V17C18 17.5523 17.5523 18 17 18H3C2.44772 18 2 17.5523 2 17V3Z" fill="#646464"/>
</svg>
