<svg xmlns="http://www.w3.org/2000/svg" width="45" height="45" color="#646464" viewBox="0 0 45 45" fill="none">
  <g clip-path="url(#clip0_26039_209880)">
    <path d="M35.6393 44.1355H8.85248C7.48677 44.1339 6.17747 43.5906 5.21176 42.6249C4.24606 41.6592 3.70281 40.3499 3.70117 38.9842V6.01581C3.70281 4.6501 4.24606 3.3408 5.21176 2.37509C6.17747 1.40939 7.48677 0.866138 8.85248 0.864502H27.6341C28.3515 0.866074 29.0608 1.01661 29.717 1.30657C30.3731 1.59653 30.962 2.0196 31.4461 2.54898L39.4512 11.3608C40.3165 12.3065 40.7945 13.5428 40.7906 14.8245L40.7906 38.8554C40.7906 39.1287 40.682 39.3907 40.4888 39.5839C40.2956 39.7771 40.0336 39.8857 39.7603 39.8857C39.4871 39.8857 39.225 39.7771 39.0318 39.5839C38.8386 39.3907 38.7301 39.1287 38.7301 38.8554L38.7301 14.8245C38.7331 14.0569 38.4474 13.3163 37.9296 12.7496L29.9213 3.93674C29.6307 3.61925 29.2774 3.36544 28.8837 3.19131C28.4901 3.01718 28.0646 2.92651 27.6341 2.92503H8.85248C8.03275 2.92503 7.2466 3.25066 6.66696 3.8303C6.08733 4.40993 5.76169 5.19608 5.76169 6.01581V38.9842C5.76169 39.8039 6.08733 40.5901 6.66696 41.1697C7.2466 41.7493 8.03275 42.075 8.85248 42.075H35.6393C35.9125 42.075 36.1746 42.1835 36.3678 42.3767C36.561 42.5699 36.6695 42.832 36.6695 43.1052C36.6695 43.3785 36.561 43.6405 36.3678 43.8337C36.1746 44.0269 35.9125 44.1355 35.6393 44.1355Z" fill="currentColor"/>
    <path d="M39.2687 42.6248C38.303 43.5905 36.9937 44.1338 35.628 44.1354V42.0749C36.4477 42.0749 37.2339 41.7493 37.8135 41.1696C38.3931 40.59 38.7188 39.8039 38.7188 38.9841H40.7793C40.7777 40.3498 40.2344 41.6591 39.2687 42.6248Z" fill="currentColor"/>
    <path d="M14.519 15.8032H11.4282C10.8817 15.8032 10.3576 15.5861 9.97119 15.1997C9.58477 14.8133 9.36768 14.2892 9.36768 13.7427V10.6519C9.36768 10.1054 9.58477 9.58131 9.97119 9.19489C10.3576 8.80846 10.8817 8.59137 11.4282 8.59137H14.519C15.0655 8.59137 15.5896 8.80846 15.976 9.19489C16.3624 9.58131 16.5795 10.1054 16.5795 10.6519V13.7427C16.5795 14.2892 16.3624 14.8133 15.976 15.1997C15.5896 15.5861 15.0655 15.8032 14.519 15.8032ZM11.4282 10.6519V13.7427H14.519V10.6519H11.4282ZM14.519 26.1058H11.4282C10.8817 26.1058 10.3576 25.8887 9.97119 25.5023C9.58477 25.1159 9.36768 24.5918 9.36768 24.0453V20.9545C9.36768 20.408 9.58477 19.8839 9.97119 19.4975C10.3576 19.1111 10.8817 18.894 11.4282 18.894H14.519C15.0655 18.894 15.5896 19.1111 15.976 19.4975C16.3624 19.8839 16.5795 20.408 16.5795 20.9545V24.0453C16.5795 24.5918 16.3624 25.1159 15.976 25.5023C15.5896 25.8887 15.0655 26.1058 14.519 26.1058ZM11.4282 20.9545V24.0453H14.519V20.9545H11.4282ZM30.6661 25.5907H19.1552C18.8819 25.5907 18.6199 25.4821 18.4267 25.2889C18.2334 25.0957 18.1249 24.8337 18.1249 24.5604C18.1249 24.2872 18.2334 24.0251 18.4267 23.8319C18.6199 23.6387 18.8819 23.5302 19.1552 23.5302H30.6661C30.9393 23.5302 31.2014 23.6387 31.3946 23.8319C31.5878 24.0251 31.6964 24.2872 31.6964 24.5604C31.6964 24.8337 31.5878 25.0957 31.3946 25.2889C31.2014 25.4821 30.9393 25.5907 30.6661 25.5907ZM28.6056 21.4696H19.1552C18.8819 21.4696 18.6199 21.3611 18.4267 21.1679C18.2334 20.9747 18.1249 20.7126 18.1249 20.4394C18.1249 20.1661 18.2334 19.9041 18.4267 19.7109C18.6199 19.5177 18.8819 19.4091 19.1552 19.4091H28.6056C28.8788 19.4091 29.1409 19.5177 29.3341 19.7109C29.5273 19.9041 29.6358 20.1661 29.6358 20.4394C29.6358 20.7126 29.5273 20.9747 29.3341 21.1679C29.1409 21.3611 28.8788 21.4696 28.6056 21.4696ZM14.519 36.4084H11.4282C10.8817 36.4084 10.3576 36.1913 9.97119 35.8049C9.58477 35.4185 9.36768 34.8944 9.36768 34.3479V31.2571C9.36768 30.7106 9.58477 30.1865 9.97119 29.8001C10.3576 29.4137 10.8817 29.1966 11.4282 29.1966H14.519C15.0655 29.1966 15.5896 29.4137 15.976 29.8001C16.3624 30.1865 16.5795 30.7106 16.5795 31.2571V34.3479C16.5795 34.8944 16.3624 35.4185 15.976 35.8049C15.5896 36.1913 15.0655 36.4084 14.519 36.4084ZM11.4282 31.2571V34.3479H14.519V31.2571H11.4282ZM28.6056 35.8933H19.1552C18.8819 35.8933 18.6199 35.7848 18.4267 35.5915C18.2334 35.3983 18.1249 35.1363 18.1249 34.863C18.1249 34.5898 18.2334 34.3278 18.4267 34.1345C18.6199 33.9413 18.8819 33.8328 19.1552 33.8328H28.6056C28.8788 33.8328 29.1409 33.9413 29.3341 34.1345C29.5273 34.3278 29.6358 34.5898 29.6358 34.863C29.6358 35.1363 29.5273 35.3983 29.3341 35.5915C29.1409 35.7848 28.8788 35.8933 28.6056 35.8933ZM28.6056 31.7723H19.1552C18.8819 31.7723 18.6199 31.6637 18.4267 31.4705C18.2334 31.2773 18.1249 31.0152 18.1249 30.742C18.1249 30.4688 18.2334 30.2067 18.4267 30.0135C18.6199 29.8203 18.8819 29.7117 19.1552 29.7117H28.6056C28.8788 29.7117 29.1409 29.8203 29.3341 30.0135C29.5273 30.2067 29.6358 30.4688 29.6358 30.742C29.6358 31.0152 29.5273 31.2773 29.3341 31.4705C29.1409 31.6637 28.8788 31.7723 28.6056 31.7723ZM30.6661 15.2881H19.1552C18.8819 15.2881 18.6199 15.1795 18.4267 14.9863C18.2334 14.7931 18.1249 14.5311 18.1249 14.2578C18.1249 13.9846 18.2334 13.7225 18.4267 13.5293C18.6199 13.3361 18.8819 13.2275 19.1552 13.2275H30.6661C30.9393 13.2275 31.2014 13.3361 31.3946 13.5293C31.5878 13.7225 31.6964 13.9846 31.6964 14.2578C31.6964 14.5311 31.5878 14.7931 31.3946 14.9863C31.2014 15.1795 30.9393 15.2881 30.6661 15.2881ZM28.6056 11.167H19.1552C18.8819 11.167 18.6199 11.0585 18.4267 10.8653C18.2334 10.6721 18.1249 10.41 18.1249 10.1368C18.1249 9.86352 18.2334 9.60147 18.4267 9.40826C18.6199 9.21505 18.8819 9.1065 19.1552 9.1065H28.6056C28.8788 9.1065 29.1409 9.21505 29.3341 9.40826C29.5273 9.60147 29.6358 9.86352 29.6358 10.1368C29.6358 10.41 29.5273 10.6721 29.3341 10.8653C29.1409 11.0585 28.8788 11.167 28.6056 11.167Z" fill="currentColor"/>
  </g>
  <defs>
    <clipPath id="clip0_26039_209880">
      <rect width="44" height="44" fill="white" transform="translate(0.246094 0.5)"/>
    </clipPath>
  </defs>
</svg>
