<svg width="89" height="18" viewBox="0 0 89 18" fill="none" xmlns="http://www.w3.org/2000/svg">
<path d="M10.7896 1.57706L10.7509 1.59602L10.7159 1.62135L1.70665 8.14835L1.15786 8.54594L1.69966 8.953C3.98214 10.6679 9.55274 15.2916 10.6823 16.2678C11.9335 17.3491 13.4046 17.5416 14.0375 17.494L14.5 17.4592V16.9954V0.999367V0.499367H14C12.9988 0.499367 12.3266 0.697305 11.8136 0.953596C11.5632 1.07867 11.3601 1.2132 11.1938 1.32503C11.185 1.33098 11.1763 1.33682 11.1678 1.34256C11.0068 1.4509 10.8983 1.52392 10.7896 1.57706Z" fill="#FFE1E7" stroke="#fa3939"/>
<mask id="path-2-outside-1_9011_347" maskUnits="userSpaceOnUse" x="14" y="-0.00063324" width="75" height="18" fill="black">
<rect fill="white" x="14" y="-0.00063324" width="75" height="18"/>
<path d="M14 0.999367H84C86.2091 0.999367 88 2.79023 88 4.99937V12.9994C88 15.2085 86.2091 16.9994 84 16.9994H14V0.999367Z"/>
</mask>
<path d="M14 0.999367H84C86.2091 0.999367 88 2.79023 88 4.99937V12.9994C88 15.2085 86.2091 16.9994 84 16.9994H14V0.999367Z" fill="#ffe0e0"/>
<path d="M14 -0.00063324H84C86.7614 -0.00063324 89 2.23794 89 4.99937H87C87 3.34251 85.6569 1.99937 84 1.99937H14V-0.00063324ZM89 12.9994C89 15.7608 86.7614 17.9994 84 17.9994H14V15.9994H84C85.6569 15.9994 87 14.6562 87 12.9994H89ZM14 16.9994V0.999367V16.9994ZM84 -0.00063324C86.7614 -0.00063324 89 2.23794 89 4.99937V12.9994C89 15.7608 86.7614 17.9994 84 17.9994V15.9994C85.6569 15.9994 87 14.6562 87 12.9994V4.99937C87 3.34251 85.6569 1.99937 84 1.99937V-0.00063324Z" fill="#fa3939" mask="url(#path-2-outside-1_9011_347)"/>
<path d="M22.0327 4.27209V12.9994H20.6264L16.5142 7.05476H16.4418V12.9994H14.8608V4.27209H16.2756L20.3835 10.221H20.4602V4.27209H22.0327ZM26.5849 13.1272C25.9286 13.1272 25.3619 12.9908 24.8846 12.7181C24.4102 12.4425 24.0451 12.0533 23.7894 11.5505C23.5337 11.0448 23.4059 10.4497 23.4059 9.76499C23.4059 9.0917 23.5337 8.50079 23.7894 7.99226C24.0479 7.4809 24.4087 7.08317 24.8718 6.79908C25.3349 6.51215 25.8789 6.36869 26.5039 6.36869C26.9073 6.36869 27.288 6.43403 27.646 6.56471C28.0067 6.69255 28.3249 6.89141 28.6005 7.1613C28.8789 7.43118 29.0977 7.77493 29.2567 8.19255C29.4158 8.60732 29.4954 9.10164 29.4954 9.6755V10.1485H24.1303V9.10874H28.0167C28.0138 8.81329 27.9499 8.5505 27.8249 8.32039C27.6999 8.08743 27.5252 7.9042 27.3008 7.77067C27.0792 7.63715 26.8207 7.57039 26.5252 7.57039C26.2099 7.57039 25.9329 7.64709 25.6942 7.8005C25.4556 7.95107 25.2695 8.14993 25.136 8.39709C25.0053 8.64141 24.9386 8.90988 24.9357 9.20249V10.1102C24.9357 10.4908 25.0053 10.8175 25.1445 11.0903C25.2837 11.3602 25.4783 11.5675 25.7283 11.7124C25.9783 11.8545 26.271 11.9255 26.6062 11.9255C26.8306 11.9255 27.0337 11.8943 27.2156 11.8318C27.3974 11.7664 27.555 11.6712 27.6886 11.5462C27.8221 11.4212 27.9229 11.2664 27.9911 11.0818L29.4315 11.2437C29.3406 11.6244 29.1673 11.9568 28.9116 12.2408C28.6587 12.5221 28.3349 12.7408 27.94 12.8971C27.5451 13.0505 27.0934 13.1272 26.5849 13.1272ZM32.1161 12.9994L30.2667 6.45391H31.8391L32.9897 11.0562H33.0494L34.2255 6.45391H35.7809L36.957 11.0306H37.021L38.1545 6.45391H39.7312L37.8775 12.9994H36.271L35.0437 8.57607H34.9542L33.7269 12.9994H32.1161ZM47.1001 6.45391V7.64709H43.2308V6.45391H47.1001ZM44.1982 12.9994V5.83601C44.1982 5.39567 44.2891 5.0292 44.4709 4.73658C44.6555 4.44397 44.9027 4.22522 45.2124 4.08033C45.522 3.93545 45.8658 3.863 46.2436 3.863C46.5107 3.863 46.7479 3.88431 46.9553 3.92692C47.1626 3.96954 47.3161 4.00789 47.4155 4.04198L47.1087 5.23516C47.0433 5.21528 46.9609 5.19539 46.8615 5.1755C46.7621 5.15278 46.6513 5.14141 46.5291 5.14141C46.2422 5.14141 46.0391 5.21101 45.9197 5.35022C45.8033 5.48658 45.745 5.68261 45.745 5.93829V12.9994H44.1982ZM50.9173 13.1272C50.2781 13.1272 49.7241 12.9866 49.2553 12.7053C48.7866 12.4241 48.4229 12.0306 48.1644 11.5249C47.9087 11.0193 47.7809 10.4283 47.7809 9.75221C47.7809 9.07607 47.9087 8.48374 48.1644 7.97522C48.4229 7.4667 48.7866 7.07181 49.2553 6.79056C49.7241 6.50931 50.2781 6.36869 50.9173 6.36869C51.5565 6.36869 52.1104 6.50931 52.5792 6.79056C53.0479 7.07181 53.4102 7.4667 53.6658 7.97522C53.9244 8.48374 54.0536 9.07607 54.0536 9.75221C54.0536 10.4283 53.9244 11.0193 53.6658 11.5249C53.4102 12.0306 53.0479 12.4241 52.5792 12.7053C52.1104 12.9866 51.5565 13.1272 50.9173 13.1272ZM50.9258 11.8914C51.2724 11.8914 51.5621 11.7962 51.7951 11.6059C52.0281 11.4127 52.2013 11.1542 52.315 10.8303C52.4315 10.5065 52.4897 10.1457 52.4897 9.74795C52.4897 9.34738 52.4315 8.98516 52.315 8.6613C52.2013 8.33459 52.0281 8.07465 51.7951 7.88147C51.5621 7.68829 51.2724 7.5917 50.9258 7.5917C50.5707 7.5917 50.2752 7.68829 50.0394 7.88147C49.8065 8.07465 49.6317 8.33459 49.5153 8.6613C49.4016 8.98516 49.3448 9.34738 49.3448 9.74795C49.3448 10.1457 49.4016 10.5065 49.5153 10.8303C49.6317 11.1542 49.8065 11.4127 50.0394 11.6059C50.2752 11.7962 50.5707 11.8914 50.9258 11.8914ZM55.3629 12.9994V6.45391H56.8587V7.54482H56.9268C57.0462 7.16698 57.2507 6.87579 57.5405 6.67124C57.8331 6.46386 58.1669 6.36016 58.5419 6.36016C58.6271 6.36016 58.7223 6.36442 58.8274 6.37295C58.9354 6.37863 59.0249 6.38857 59.0959 6.40278V7.82181C59.0305 7.79908 58.9268 7.7792 58.7848 7.76215C58.6456 7.74226 58.5107 7.73232 58.38 7.73232C58.0987 7.73232 57.8459 7.7934 57.6214 7.91556C57.3999 8.03488 57.2251 8.20107 57.0973 8.41414C56.9695 8.62721 56.9055 8.87295 56.9055 9.15136V12.9994H55.3629ZM64.0561 15.4539C63.8459 15.4539 63.6513 15.4369 63.4723 15.4028C63.2962 15.3715 63.1555 15.3346 63.0504 15.292L63.4084 14.0903C63.6328 14.1556 63.8331 14.1869 64.0092 14.184C64.1854 14.1812 64.3402 14.1258 64.4737 14.0178C64.6101 13.9127 64.7251 13.7366 64.8189 13.4894L64.951 13.1357L62.5774 6.45391H64.2138L65.7223 11.3971H65.7905L67.3033 6.45391H68.9439L66.3232 13.792C66.201 14.1386 66.0391 14.4354 65.8374 14.6826C65.6357 14.9326 65.3885 15.1229 65.0959 15.2536C64.8061 15.3872 64.4595 15.4539 64.0561 15.4539ZM72.6438 13.1272C72.0046 13.1272 71.4506 12.9866 70.9819 12.7053C70.5131 12.4241 70.1495 12.0306 69.891 11.5249C69.6353 11.0193 69.5075 10.4283 69.5075 9.75221C69.5075 9.07607 69.6353 8.48374 69.891 7.97522C70.1495 7.4667 70.5131 7.07181 70.9819 6.79056C71.4506 6.50931 72.0046 6.36869 72.6438 6.36869C73.283 6.36869 73.837 6.50931 74.3058 6.79056C74.7745 7.07181 75.1367 7.4667 75.3924 7.97522C75.6509 8.48374 75.7802 9.07607 75.7802 9.75221C75.7802 10.4283 75.6509 11.0193 75.3924 11.5249C75.1367 12.0306 74.7745 12.4241 74.3058 12.7053C73.837 12.9866 73.283 13.1272 72.6438 13.1272ZM72.6523 11.8914C72.9989 11.8914 73.2887 11.7962 73.5217 11.6059C73.7546 11.4127 73.9279 11.1542 74.0415 10.8303C74.158 10.5065 74.2163 10.1457 74.2163 9.74795C74.2163 9.34738 74.158 8.98516 74.0415 8.6613C73.9279 8.33459 73.7546 8.07465 73.5217 7.88147C73.2887 7.68829 72.9989 7.5917 72.6523 7.5917C72.2972 7.5917 72.0018 7.68829 71.766 7.88147C71.533 8.07465 71.3583 8.33459 71.2418 8.6613C71.1282 8.98516 71.0714 9.34738 71.0714 9.74795C71.0714 10.1457 71.1282 10.5065 71.2418 10.8303C71.3583 11.1542 71.533 11.4127 71.766 11.6059C72.0018 11.7962 72.2972 11.8914 72.6523 11.8914ZM81.2614 10.2465V6.45391H82.804V12.9994H81.3082V11.836H81.2401C81.0923 12.2025 80.8494 12.5022 80.5114 12.7352C80.1761 12.9681 79.7628 13.0846 79.2713 13.0846C78.8423 13.0846 78.4631 12.9894 78.1335 12.7991C77.8068 12.6059 77.5511 12.3261 77.3665 11.9596C77.1818 11.5903 77.0895 11.1443 77.0895 10.6215V6.45391H78.6321V10.3829C78.6321 10.7977 78.7457 11.1272 78.973 11.3715C79.2003 11.6158 79.4986 11.738 79.8679 11.738C80.0952 11.738 80.3153 11.6826 80.5284 11.5718C80.7415 11.461 80.9162 11.2962 81.0526 11.0775C81.1918 10.8559 81.2614 10.5789 81.2614 10.2465Z" fill="#fa3939"/>
</svg>
