<svg width="24" height="24" viewBox="0 0 24 24" fill="none" xmlns="http://www.w3.org/2000/svg">
<rect x="0.5" y="0.5" width="23" height="23" rx="11.5" fill="white"/>
<rect x="0.5" y="0.5" width="23" height="23" rx="11.5" stroke="#D8DCDF"/>
<path fill-rule="evenodd" clip-rule="evenodd" d="M6.85339 12C6.85339 11.7349 7.0683 11.52 7.33339 11.52H16.6667C16.9318 11.52 17.1467 11.7349 17.1467 12C17.1467 12.2651 16.9318 12.48 16.6667 12.48H7.33339C7.0683 12.48 6.85339 12.2651 6.85339 12Z" fill="#646464"/>
<path fill-rule="evenodd" clip-rule="evenodd" d="M11.6606 6.99392C11.8481 6.80647 12.152 6.80647 12.3395 6.99392L17.0061 11.6606C17.1936 11.848 17.1936 12.152 17.0061 12.3394L12.3395 17.0061C12.152 17.1935 11.8481 17.1935 11.6606 17.0061C11.4732 16.8186 11.4732 16.5147 11.6606 16.3273L15.9879 12L11.6606 7.67274C11.4732 7.48529 11.4732 7.18137 11.6606 6.99392Z" fill="#646464"/>
</svg>
