<svg width="20" height="20" viewBox="0 0 20 20" fill="none" xmlns="http://www.w3.org/2000/svg">
<path fill-rule="evenodd" clip-rule="evenodd" d="M9.99998 2.26668C5.72898 2.26668 2.26665 5.72901 2.26665 10C2.26665 14.271 5.72898 17.7333 9.99998 17.7333C14.271 17.7333 17.7333 14.271 17.7333 10C17.7333 5.72901 14.271 2.26668 9.99998 2.26668ZM1.06665 10C1.06665 5.06627 5.06624 1.06668 9.99998 1.06668C14.9337 1.06668 18.9333 5.06627 18.9333 10C18.9333 14.9338 14.9337 18.9333 9.99998 18.9333C5.06624 18.9333 1.06665 14.9338 1.06665 10Z" fill="#646464"/>
<path fill-rule="evenodd" clip-rule="evenodd" d="M9.57572 6.24242C9.81003 6.0081 10.1899 6.0081 10.4242 6.24242L13.7576 9.57575C13.9919 9.81007 13.9919 10.19 13.7576 10.4243L10.4242 13.7576C10.1899 13.9919 9.81003 13.9919 9.57572 13.7576C9.3414 13.5233 9.3414 13.1434 9.57572 12.9091L12.4848 10L9.57572 7.09095C9.3414 6.85663 9.3414 6.47673 9.57572 6.24242Z" fill="#646464"/>
<path fill-rule="evenodd" clip-rule="evenodd" d="M6.06665 10C6.06665 9.66864 6.33528 9.40001 6.66665 9.40001H13.3333C13.6647 9.40001 13.9333 9.66864 13.9333 10C13.9333 10.3314 13.6647 10.6 13.3333 10.6H6.66665C6.33528 10.6 6.06665 10.3314 6.06665 10Z" fill="#646464"/>
</svg>
