<svg width="160" height="161" viewBox="0 0 160 161" fill="none" xmlns="http://www.w3.org/2000/svg">
<path d="M126.293 33.5284H118.063V38.9371C118.063 43.4758 114.371 47.1678 109.832 47.1678C105.293 47.1678 101.601 43.4758 101.601 38.9371V33.5284H58.8017V38.9371C58.8017 43.4758 55.1097 47.1678 50.5711 47.1678C46.0324 47.1678 42.3404 43.4758 42.3404 38.9371V33.5284H34.1097C26.3259 33.5284 20 39.8543 20 47.6381V62.9237H140.403V47.6381C140.403 39.8543 134.077 33.5284 126.293 33.5284ZM109.832 44.8162C113.077 44.8162 115.711 42.1824 115.711 38.9371V27.179C115.711 23.9338 113.077 21.3 109.832 21.3C106.587 21.3 103.953 23.9338 103.953 27.179V38.9371C103.953 42.1824 106.587 44.8162 109.832 44.8162ZM50.5711 44.8162C53.8163 44.8162 56.4501 42.1824 56.4501 38.9371V27.179C56.4501 23.9338 53.8163 21.3 50.5711 21.3C47.3258 21.3 44.692 23.9338 44.692 27.179V38.9371C44.692 42.1824 47.3258 44.8162 50.5711 44.8162Z" fill="url(#paint0_linear_36211_389)"/>
<path d="M109.832 44.8162C113.077 44.8162 115.711 42.1824 115.711 38.9371V27.179C115.711 23.9338 113.077 21.3 109.832 21.3C106.586 21.3 103.953 23.9338 103.953 27.179V38.9371C103.953 42.1824 106.586 44.8162 109.832 44.8162ZM50.5708 44.8162C53.816 44.8162 56.4498 42.1824 56.4498 38.9371V27.179C56.4498 23.9338 53.816 21.3 50.5708 21.3C47.3256 21.3 44.6917 23.9338 44.6917 27.179V38.9371C44.6917 42.1824 47.3256 44.8162 50.5708 44.8162Z" fill="url(#paint1_linear_36211_389)"/>
<path d="M78.1475 111.893V87.3423C78.1475 86.3076 78.7354 85.7903 79.9112 85.7903H81.816C82.9918 85.7903 83.5797 86.3076 83.5797 87.3423V111.893C83.5797 112.928 82.9918 113.445 81.816 113.445H79.9112C78.7354 113.445 78.1475 112.928 78.1475 111.893ZM20 62.5798H140.403V124.898C140.403 132.682 134.077 139.007 126.293 139.007H34.1097C26.3259 139.007 20 132.682 20 124.898V62.5798ZM65.8015 113.516C65.8015 119.348 69.2584 122.264 76.1721 122.264H85.5551C92.4689 122.264 95.9257 119.348 95.9257 113.516V85.7197C95.9257 79.8877 92.4689 76.9717 85.5551 76.9717H76.1721C69.2584 76.9717 65.8015 79.8877 65.8015 85.7197V113.516Z" fill="url(#paint2_linear_36211_389)"/>
<path fill-rule="evenodd" clip-rule="evenodd" d="M76.172 122.264C69.2583 122.264 65.8014 119.348 65.8014 113.516V85.7195C65.8014 79.8875 69.2583 76.9715 76.172 76.9715H85.555C92.4688 76.9715 95.9257 79.8875 95.9257 85.7195V113.516C95.9257 119.348 92.4688 122.264 85.555 122.264H76.172ZM78.1474 87.3421V111.893C78.1474 112.928 78.7353 113.445 79.9111 113.445H81.8159C82.9917 113.445 83.5796 112.928 83.5796 111.893V87.3421C83.5796 86.3074 82.9917 85.79 81.8159 85.79H79.9111C78.7353 85.79 78.1474 86.3074 78.1474 87.3421Z" fill="url(#paint3_linear_36211_389)"/>
<defs>
<linearGradient id="paint0_linear_36211_389" x1="-16.1209" y1="28.0047" x2="29.9761" y2="156.575" gradientUnits="userSpaceOnUse">
<stop stop-color="#DDDDDD"/>
<stop offset="1" stop-color="#ABABAB"/>
</linearGradient>
<linearGradient id="paint1_linear_36211_389" x1="112.998" y1="90.936" x2="112.099" y2="13.2132" gradientUnits="userSpaceOnUse">
<stop stop-color="#5E6063"/>
<stop offset="1" stop-color="#8E9197"/>
</linearGradient>
<linearGradient id="paint2_linear_36211_389" x1="63.2142" y1="76.038" x2="348.991" y2="302.793" gradientUnits="userSpaceOnUse">
<stop stop-color="#EDEDED"/>
<stop offset="1" stop-color="#7D7D7D"/>
</linearGradient>
<linearGradient id="paint3_linear_36211_389" x1="173.513" y1="173.99" x2="147.035" y2="25.7293" gradientUnits="userSpaceOnUse">
<stop stop-color="#5E6063"/>
<stop offset="1" stop-color="#8E9197" stop-opacity="0.48"/>
</linearGradient>
</defs>
</svg>
