<svg width="141" height="141" viewBox="0 0 141 141" fill="none" xmlns="http://www.w3.org/2000/svg">
<g clip-path="url(#clip0_3227_797)">
<path fill-rule="evenodd" clip-rule="evenodd" d="M70.5 137C107.227 137 137 107.227 137 70.5C137 33.7731 107.227 4 70.5 4C54.0224 4 47.759 23.7636 36.1417 33.6887C21.865 45.8858 4 50.2506 4 70.5C4 107.227 33.7731 137 70.5 137Z" fill="#E7EAED"/>
<g filter="url(#filter0_f_3227_797)">
<path d="M94.5534 22.2002H26.1465C23.9669 22.2002 22.2 23.7399 22.2 25.6393V97.8611C22.2 99.7604 23.9669 101.3 26.1465 101.3H94.5534C96.733 101.3 98.4999 99.7604 98.4999 97.8611V25.6393C98.4999 23.7399 96.733 22.2002 94.5534 22.2002Z" fill="white"/>
<path d="M94.5534 22.2002H26.1465C23.9669 22.2002 22.2 23.7399 22.2 25.6393V97.8611C22.2 99.7604 23.9669 101.3 26.1465 101.3H94.5534C96.733 101.3 98.4999 99.7604 98.4999 97.8611V25.6393C98.4999 23.7399 96.733 22.2002 94.5534 22.2002Z" fill="#E1EAEF"/>
</g>
<rect x="29.2" y="22.2002" width="60.9" height="78.4" rx="5.6" fill="white"/>
<rect x="38.3" y="33.4004" width="42.7" height="4.2" rx="2.1" fill="#A7A9AC"/>
<rect x="38.3" y="45.2998" width="42.7" height="3.5" rx="1.75" fill="#A7A9AC"/>
<rect x="38.3" y="56.5" width="25.2" height="4.2" rx="2.1" fill="#A7A9AC"/>
<circle cx="89.7956" cy="82.7951" r="23.356" transform="rotate(-39.8959 89.7956 82.7951)" fill="white" stroke="#A7A9AC" stroke-width="4.40679"/>
<rect x="100.547" y="102.526" width="8.81357" height="6.61018" rx="0.881357" transform="rotate(-39.8959 100.547 102.526)" fill="#A7A9AC"/>
<path d="M107.048 110.303C106.515 109.665 106.248 109.346 106.281 108.983C106.313 108.619 106.632 108.353 107.27 107.82L111.327 104.428C111.964 103.895 112.283 103.628 112.647 103.661C113.01 103.693 113.277 104.012 113.81 104.65L127.094 120.54C128.655 122.407 128.407 125.186 126.54 126.747C124.673 128.308 121.893 128.06 120.332 126.193L107.048 110.303Z" fill="#C4C3C3"/>
<rect x="96.5132" y="73.1865" width="4" height="23" rx="2" transform="rotate(45 96.5132 73.1865)" fill="#A7A9AC"/>
<rect x="99.3416" y="89.4502" width="4" height="23" rx="2" transform="rotate(135 99.3416 89.4502)" fill="#A7A9AC"/>
</g>
<defs>
<filter id="filter0_f_3227_797" x="4.55033" y="4.55058" width="111.599" height="114.399" filterUnits="userSpaceOnUse" color-interpolation-filters="sRGB">
<feFlood flood-opacity="0" result="BackgroundImageFix"/>
<feBlend mode="normal" in="SourceGraphic" in2="BackgroundImageFix" result="shape"/>
<feGaussianBlur stdDeviation="8.82481" result="effect1_foregroundBlur_3227_797"/>
</filter>
<clipPath id="clip0_3227_797">
<rect width="133" height="133" fill="white" transform="translate(4 4)"/>
</clipPath>
</defs>
</svg>
