<svg width="178" height="170" viewBox="0 0 178 170" fill="none" xmlns="http://www.w3.org/2000/svg">
<path fill-rule="evenodd" clip-rule="evenodd" d="M80.5 163.646C124.959 163.646 161 127.157 161 82.1446C161 37.1327 123.979 -2.6284 80.5 0.643272C60.6084 2.14006 52.9715 24.8652 38.9083 37.0293C21.6261 51.9778 0 57.3273 0 82.1446C0 127.157 36.0411 163.646 80.5 163.646Z" fill="#F2F5F7"/>
<g filter="url(#filter0_f_31263_221598)">
<path d="M143.19 68H59.8103C57.1537 68 55 69.4015 55 71.1304V136.87C55 138.598 57.1537 140 59.8103 140H143.19C145.846 140 148 138.598 148 136.87V71.1304C148 69.4015 145.846 68 143.19 68Z" fill="white"/>
<path d="M143.19 68H59.8103C57.1537 68 55 69.4015 55 71.1304V136.87C55 138.598 57.1537 140 59.8103 140H143.19C145.846 140 148 138.598 148 136.87V71.1304C148 69.4015 145.846 68 143.19 68Z" fill="#E1EAEF"/>
</g>
<path d="M137.324 10.2141L136.684 9.01454H144.9V11.6431H134.55V9.12039L141.948 1.42892L142.57 2.62851H134.639V0H144.704V2.52266L137.324 10.2141Z" fill="#A7A9AC"/>
<path d="M119.315 39.6287L118.32 37.7094H131.1V41.915H115V37.8788L126.508 25.5724L127.476 27.4917H115.138V23.2861H130.796V27.3224L119.315 39.6287Z" fill="#A7A9AC"/>
<path d="M55 50C52.0826 50 49.2847 51.1738 47.2218 53.2631C45.1589 55.3525 44 58.1862 44 61.141V117.859C44 120.814 45.1589 123.648 47.2218 125.737C49.2847 127.826 52.0826 129 55 129H119C121.917 129 124.715 127.826 126.778 125.737C128.841 123.648 130 120.814 130 117.859V73.2949C130 70.3401 128.841 67.5063 126.778 65.417C124.715 63.3276 121.917 62.1538 119 62.1538H84.6056L77.4962 51.353C76.9398 50.5077 76.0031 50 75 50H55Z" fill="white"/>
<defs>
<filter id="filter0_f_31263_221598" x="25" y="38" width="153" height="132" filterUnits="userSpaceOnUse" color-interpolation-filters="sRGB">
<feFlood flood-opacity="0" result="BackgroundImageFix"/>
<feBlend mode="normal" in="SourceGraphic" in2="BackgroundImageFix" result="shape"/>
<feGaussianBlur stdDeviation="15" result="effect1_foregroundBlur_31263_221598"/>
</filter>
</defs>
</svg>
