<svg width="201" height="218" viewBox="0 0 201 218" fill="none" xmlns="http://www.w3.org/2000/svg">
  <path fill-rule="evenodd" clip-rule="evenodd" d="M100.499 217.813C156.004 217.813 200.999 172.485 200.999 116.569C200.999 60.6536 154.78 11.261 100.499 15.3252C75.6659 17.1846 66.1317 45.4146 48.5747 60.5252C26.9989 79.0948 0 85.7401 0 116.569C0 172.485 44.9951 217.813 100.499 217.813Z" fill="#F2F5F7"/>
  <g filter="url(#filter0_f_12575_153833)">
    <path d="M160.8 81.1338H73.7008C70.9255 81.1338 68.6758 83.0717 68.6758 85.4623V176.362C68.6758 178.752 70.9255 180.69 73.7008 180.69H160.8C163.576 180.69 165.825 178.752 165.825 176.362V85.4623C165.825 83.0717 163.576 81.1338 160.8 81.1338Z" fill="white"/>
    <path d="M160.8 81.1338H73.7008C70.9255 81.1338 68.6758 83.0717 68.6758 85.4623V176.362C68.6758 178.752 70.9255 180.69 73.7008 180.69H160.8C163.576 180.69 165.825 178.752 165.825 176.362V85.4623C165.825 83.0717 163.576 81.1338 160.8 81.1338Z" fill="#E1EAEF"/>
  </g>
  <path d="M58.627 82.8215C58.627 75.3661 64.6263 69.3223 72.0269 69.3223H135.677C143.077 69.3223 149.076 75.3661 149.076 82.8215V155.38C149.076 162.835 143.077 168.879 135.677 168.879H72.0269C64.6263 168.879 58.627 162.835 58.627 155.38V82.8215Z" fill="white"/>
  <path fill-rule="evenodd" clip-rule="evenodd" d="M157.09 89.2636C159.109 91.182 159.201 94.3858 157.297 96.4196L114.204 142.442C112.299 144.476 109.119 144.57 107.1 142.651C105.082 140.733 104.989 137.529 106.893 135.495L149.986 89.4724C151.891 87.4387 155.071 87.3452 157.09 89.2636Z" fill="#A7A9AC"/>
  <path d="M180.057 13.5497L179.258 12.0595H189.515V15.3247H176.594V12.191L185.83 2.63638L186.607 4.12655H176.705V0.861328H189.271V3.99507L180.057 13.5497Z" fill="#A7A9AC"/>
  <path d="M157.575 50.0895L156.332 47.7052H172.287V52.9296H152.188V47.9156L166.554 32.6282L167.763 35.0124H152.36V29.7881H171.908V34.8021L157.575 50.0895Z" fill="#A7A9AC"/>
  <defs>
    <filter id="filter0_f_12575_153833" x="38.6758" y="51.1338" width="157.15" height="159.557" filterUnits="userSpaceOnUse" color-interpolation-filters="sRGB">
      <feFlood flood-opacity="0" result="BackgroundImageFix"/>
      <feBlend mode="normal" in="SourceGraphic" in2="BackgroundImageFix" result="shape"/>
      <feGaussianBlur stdDeviation="15" result="effect1_foregroundBlur_12575_153833"/>
    </filter>
  </defs>
</svg>
