<svg width="141" height="140" viewBox="0 0 141 140" fill="none" xmlns="http://www.w3.org/2000/svg">
<path fill-rule="evenodd" clip-rule="evenodd" d="M70.167 140C108.827 140 140.167 108.66 140.167 69.9999C140.167 31.34 107.975 -2.81003 70.167 -5.37932e-05C52.8699 1.28551 46.2291 20.8037 34.0003 31.2512C18.9723 44.0902 0.166992 48.6848 0.166992 69.9999C0.166992 108.66 31.5071 140 70.167 140Z" fill="#F2F5F7"/>
<g filter="url(#filter0_f_61840_28650)">
<path d="M112.167 45.5H51.5C49.567 45.5 48 46.8399 48 48.4928V111.341C48 112.993 49.567 114.333 51.5 114.333H112.167C114.1 114.333 115.667 112.993 115.667 111.341V48.4928C115.667 46.8399 114.1 45.5 112.167 45.5Z" fill="white"/>
<path d="M112.167 45.5H51.5C49.567 45.5 48 46.8399 48 48.4928V111.341C48 112.993 49.567 114.333 51.5 114.333H112.167C114.1 114.333 115.667 112.993 115.667 111.341V48.4928C115.667 46.8399 114.1 45.5 112.167 45.5Z" fill="#E1EAEF"/>
</g>
<path d="M41 46.6673C41 41.5127 45.1787 37.334 50.3333 37.334H94.6667C99.8213 37.334 104 41.5127 104 46.6673V96.834C104 101.989 99.8213 106.167 94.6667 106.167H50.3333C45.1787 106.167 41 101.989 41 96.834V46.6673Z" fill="white"/>
<path fill-rule="evenodd" clip-rule="evenodd" d="M109.584 51.12C110.99 52.4464 111.055 54.6615 109.728 56.0676L79.713 87.8878C78.3866 89.2939 76.1715 89.3586 74.7654 88.0322C73.3593 86.7058 73.2946 84.4907 74.621 83.0845L104.636 51.2644C105.963 49.8583 108.178 49.7936 109.584 51.12Z" fill="#A7A9AC"/>
<defs>
<filter id="filter0_f_61840_28650" x="18" y="15.5" width="127.667" height="128.833" filterUnits="userSpaceOnUse" color-interpolation-filters="sRGB">
<feFlood flood-opacity="0" result="BackgroundImageFix"/>
<feBlend mode="normal" in="SourceGraphic" in2="BackgroundImageFix" result="shape"/>
<feGaussianBlur stdDeviation="15" result="effect1_foregroundBlur_61840_28650"/>
</filter>
</defs>
</svg>
