<svg width="14" height="14" viewBox="0 0 14 14" fill="none" xmlns="http://www.w3.org/2000/svg">
<path d="M7 13.475C5.65825 13.475 4.41327 13.0675 3.38013 12.3695L3.08623 12.8045L3.38013 12.3695C1.65646 11.205 0.525 9.23455 0.525 7C0.525 3.42396 3.42398 0.525 7.00002 0.525C9.19253 0.525008 11.1307 1.61425 12.3029 3.28348C13.0415 4.33526 13.475 5.61625 13.475 7.00003C13.475 10.5761 10.5761 13.475 7 13.475Z" stroke="#ef6820" stroke-width="1.05"/>
<path fill-rule="evenodd" clip-rule="evenodd" d="M7.00098 3.0332C7.49233 3.0332 7.89064 3.4315 7.89064 3.92285V7.22009C7.89064 7.71143 7.49233 8.10975 7.00098 8.10975C6.50964 8.10975 6.11133 7.71143 6.11133 7.22009V3.92285C6.11133 3.4315 6.50964 3.0332 7.00098 3.0332Z" fill="#ef6820"/>
<path fill-rule="evenodd" clip-rule="evenodd" d="M6.11133 10.0777C6.11133 9.58633 6.50964 9.18799 7.00098 9.18799H7.00989C7.50123 9.18799 7.89953 9.58633 7.89953 10.0777C7.89953 10.569 7.50123 10.9672 7.00989 10.9672H7.00098C6.50964 10.9672 6.11133 10.569 6.11133 10.0777Z" fill="#ef6820"/>
</svg>
