<svg width="20" height="21" viewBox="0 0 20 21" fill="none" xmlns="http://www.w3.org/2000/svg">
<path d="M5.57143 12.9286C5.57143 12.613 5.82732 12.3571 6.14286 12.3571H11.5C11.8155 12.3571 12.0714 12.613 12.0714 12.9286C12.0714 13.2441 11.8155 13.5 11.5 13.5H6.14286C5.82732 13.5 5.57143 13.2441 5.57143 12.9286Z" fill="#8A8A8A"/>
<path d="M5.99996 7.0711C5.68442 7.0711 5.42853 7.32694 5.42853 7.64253C5.42853 7.95812 5.68442 8.21396 5.99996 8.21396H14C14.3155 8.21396 14.5714 7.95812 14.5714 7.64253C14.5714 7.32694 14.3155 7.0711 14 7.0711H5.99996Z" fill="#8A8A8A"/>
<path d="M2 4.21429C2 3.26751 2.76751 2.5 3.71429 2.5H16.2857C17.2325 2.5 18 3.26751 18 4.21429V16.7857C18 17.7325 17.2325 18.5 16.2857 18.5H3.71429C2.76751 18.5 2 17.7325 2 16.7857V4.21429ZM3.71429 3.64286C3.3987 3.64286 3.14286 3.8987 3.14286 4.21429V16.7857C3.14286 17.1013 3.3987 17.3571 3.71429 17.3571H16.2857C16.6013 17.3571 16.8571 17.1013 16.8571 16.7857V4.21429C16.8571 3.8987 16.6013 3.64286 16.2857 3.64286H3.71429Z" fill="#8A8A8A"/>
</svg>
