<svg width="16" height="16" viewBox="0 0 16 16" fill="none" xmlns="http://www.w3.org/2000/svg">
<path fill-rule="evenodd" clip-rule="evenodd" d="M12.1587 1.03198H3.84137C3.39212 1.03231 2.96137 1.21092 2.6437 1.52859C2.32603 1.84625 2.14742 2.27701 2.14709 2.72626V14.968L4.1371 13.5255L6.05193 14.968L7.84892 13.5255L9.7932 14.968L11.5018 13.5255L13.853 14.968V2.72626C13.8527 2.27701 13.6741 1.84625 13.3564 1.52859C13.0388 1.21092 12.608 1.03231 12.1587 1.03198ZM8.30814 4.65798H5.1748C5.1748 4.65798 4.84921 4.71307 4.73168 4.81114C4.61416 4.9092 4.54814 5.04221 4.54814 5.18089C4.54814 5.31958 4.61416 5.45258 4.73168 5.55065C4.84921 5.64871 5.0086 5.70381 5.1748 5.70381H8.30814C8.47435 5.70381 8.63374 5.64871 8.75126 5.55065C8.86879 5.45258 8.93481 5.31958 8.93481 5.18089C8.93481 5.04221 8.86879 4.9092 8.75126 4.81114C8.63374 4.71307 8.47435 4.65798 8.30814 4.65798ZM4.73168 9.73395C4.84921 9.83202 5.0086 9.88711 5.1748 9.88711H11.4415C11.6077 9.88711 11.7671 9.83202 11.8846 9.73395C12.0021 9.63589 12.0682 9.50288 12.0682 9.3642C12.0682 9.22551 12.0021 9.09251 11.8846 8.99444C11.7671 8.89638 11.6077 8.84128 11.4415 8.84128H5.1748C5.0086 8.84128 4.84921 8.89638 4.73168 8.99444C4.61416 9.09251 4.54814 9.22551 4.54814 9.3642C4.54814 9.50288 4.61416 9.63589 4.73168 9.73395ZM5.1748 7.79546H11.4415C11.6077 7.79546 11.7671 7.74037 11.8846 7.6423C12.0021 7.54423 12.0682 7.41123 12.0682 7.27254C12.0682 7.13386 12.0021 7.00085 11.8846 6.90279C11.7671 6.80472 11.6077 6.74963 11.4415 6.74963H5.1748C5.0086 6.74963 4.84921 6.80472 4.73168 6.90279C4.61416 7.00085 4.54814 7.13386 4.54814 7.27254C4.54814 7.41123 4.61416 7.54423 4.73168 7.6423C4.84921 7.74037 5.0086 7.79546 5.1748 7.79546Z" fill="#f1c012"/>
</svg>
