<svg width="20" height="20" viewBox="0 0 20 20" fill="none" xmlns="http://www.w3.org/2000/svg">
<path fill-rule="evenodd" clip-rule="evenodd" d="M15.1984 1.28992H4.80169C4.24012 1.29032 3.70168 1.51359 3.30459 1.91067C2.90751 2.30776 2.68425 2.8462 2.68384 3.40777V18.7099L5.17135 16.9068L7.56488 18.7099L9.81112 16.9068L12.2415 18.7099L14.3772 16.9068L17.3163 18.7099V3.40777C17.3158 2.8462 17.0926 2.30776 16.6955 1.91067C16.2984 1.51359 15.76 1.29032 15.1984 1.28992ZM10.3851 5.82241H6.46847C6.46847 5.82241 6.06148 5.89128 5.91457 6.01386C5.76767 6.13644 5.68514 6.3027 5.68514 6.47605C5.68514 6.64941 5.76767 6.81567 5.91457 6.93825C6.06148 7.06083 6.26072 7.1297 6.46847 7.1297H10.3851C10.5929 7.1297 10.7921 7.06083 10.939 6.93825C11.086 6.81567 11.1685 6.64941 11.1685 6.47605C11.1685 6.3027 11.086 6.13644 10.939 6.01386C10.7921 5.89128 10.5929 5.82241 10.3851 5.82241ZM6.46847 12.3588H14.3018C14.5096 12.3588 14.7088 12.29 14.8557 12.1674C15.0026 12.0448 15.0852 11.8785 15.0852 11.7052C15.0852 11.5318 15.0026 11.3656 14.8557 11.243C14.7088 11.1204 14.5096 11.0515 14.3018 11.0515H6.46847C6.26072 11.0515 6.06148 11.1204 5.91457 11.243C5.76767 11.3656 5.68514 11.5318 5.68514 11.7052C5.68514 11.8785 5.76767 12.0448 5.91457 12.1674C6.06148 12.29 6.26072 12.3588 6.46847 12.3588ZM6.46847 9.74426H14.3018C14.5096 9.74426 14.7088 9.6754 14.8557 9.55281C15.0026 9.43023 15.0852 9.26398 15.0852 9.09062C15.0852 8.91726 15.0026 8.75101 14.8557 8.62843C14.7088 8.50584 14.5096 8.43698 14.3018 8.43698H6.46847C6.26072 8.43698 6.06148 8.50584 5.91457 8.62843C5.76767 8.75101 5.68514 8.91726 5.68514 9.09062C5.68514 9.26398 5.76767 9.43023 5.91457 9.55281C6.06148 9.6754 6.26072 9.74426 6.46847 9.74426Z" fill="#999999"/>
</svg>
