<svg width="20" height="20" viewBox="0 0 20 20" fill="none" xmlns="http://www.w3.org/2000/svg">
<path d="M14.1673 18.125H5.83398C3.81898 18.125 2.70898 17.015 2.70898 15V5C2.70898 2.985 3.81898 1.875 5.83398 1.875H14.1673C16.1823 1.875 17.2923 2.985 17.2923 5V15C17.2923 17.015 16.1823 18.125 14.1673 18.125ZM5.83398 3.125C4.51982 3.125 3.95898 3.68583 3.95898 5V15C3.95898 16.3142 4.51982 16.875 5.83398 16.875H14.1673C15.4815 16.875 16.0423 16.3142 16.0423 15V5C16.0423 3.68583 15.4815 3.125 14.1673 3.125H5.83398ZM13.959 10C13.959 9.655 13.679 9.375 13.334 9.375H6.66732C6.32232 9.375 6.04232 9.655 6.04232 10C6.04232 10.345 6.32232 10.625 6.66732 10.625H13.334C13.679 10.625 13.959 10.345 13.959 10ZM11.459 13.3333C11.459 12.9883 11.179 12.7083 10.834 12.7083H6.66732C6.32232 12.7083 6.04232 12.9883 6.04232 13.3333C6.04232 13.6783 6.32232 13.9583 6.66732 13.9583H10.834C11.179 13.9583 11.459 13.6783 11.459 13.3333ZM13.959 6.66667C13.959 6.32167 13.679 6.04167 13.334 6.04167H6.66732C6.32232 6.04167 6.04232 6.32167 6.04232 6.66667C6.04232 7.01167 6.32232 7.29167 6.66732 7.29167H13.334C13.679 7.29167 13.959 7.01167 13.959 6.66667Z" fill="#85888E"/>
</svg>