<svg width="24" height="24" viewBox="0 0 24 24" fill="none" xmlns="http://www.w3.org/2000/svg">
<g id="Note">
<g id="Group">
<path id="Subtract" fill-rule="evenodd" clip-rule="evenodd" d="M18.2382 1.54785H5.76212C5.08825 1.54834 4.44211 1.81625 3.96561 2.29276C3.48911 2.76926 3.22119 3.41539 3.2207 4.08927V22.4519L6.20572 20.2882L9.07796 22.4519L11.7734 20.2882L14.6899 22.4519L17.2528 20.2882L20.7796 22.4519V4.08927C20.7791 3.41539 20.5112 2.76926 20.0347 2.29276C19.5582 1.81625 18.9121 1.54834 18.2382 1.54785ZM12.4623 6.98685H7.76227C7.76227 6.98685 7.27387 7.06949 7.09759 7.21658C6.9213 7.36368 6.82227 7.56319 6.82227 7.77122C6.82227 7.97924 6.9213 8.17875 7.09759 8.32585C7.27387 8.47295 7.51296 8.55559 7.76227 8.55559H12.4623C12.7116 8.55559 12.9507 8.47295 13.127 8.32585C13.3032 8.17875 13.4023 7.97924 13.4023 7.77122C13.4023 7.56319 13.3032 7.36368 13.127 7.21658C12.9507 7.06949 12.7116 6.98685 12.4623 6.98685ZM7.09759 14.6008C7.27387 14.7479 7.51296 14.8305 7.76227 14.8305H17.1623C17.4116 14.8305 17.6507 14.7479 17.827 14.6008C18.0033 14.4537 18.1023 14.2542 18.1023 14.0462C18.1023 13.8381 18.0033 13.6386 17.827 13.4915C17.6507 13.3444 17.4116 13.2618 17.1623 13.2618H7.76227C7.51296 13.2618 7.27387 13.3444 7.09759 13.4915C6.9213 13.6386 6.82227 13.8381 6.82227 14.0462C6.82227 14.2542 6.9213 14.4537 7.09759 14.6008ZM7.76227 11.6931H17.1623C17.4116 11.6931 17.6507 11.6104 17.827 11.4633C18.0033 11.3162 18.1023 11.1167 18.1023 10.9087C18.1023 10.7007 18.0033 10.5012 17.827 10.3541C17.6507 10.207 17.4116 10.1243 17.1623 10.1243H7.76227C7.51296 10.1243 7.27387 10.207 7.09759 10.3541C6.9213 10.5012 6.82227 10.7007 6.82227 10.9087C6.82227 11.1167 6.9213 11.3162 7.09759 11.4633C7.27387 11.6104 7.51296 11.6931 7.76227 11.6931Z" fill="#f1c012"/>
</g>
</g>
</svg>
