<svg width="15" height="15" viewBox="0 0 15 15" fill="none" xmlns="http://www.w3.org/2000/svg">-->
  <path
    d="M6.92926 4.0644C7.12683 4.26199 7.12682 4.58233 6.92924 4.77992L5.15841 6.55066C4.96712 6.74195 4.65919 6.74891 4.45944 6.56648L3.70052 5.87332C3.49419 5.68489 3.4797 5.36486 3.66813 5.15853C3.85658 4.95221 4.17661 4.93772 4.38293 5.12615L4.78482 5.49322L6.21373 4.06438C6.41133 3.8668 6.73168 3.86681 6.92926 4.0644Z"
    fill="#767477" />
  <path
    d="M6.92924 9.83909C7.12682 9.64147 7.12683 9.3211 6.92926 9.12357C6.73168 8.92595 6.41133 8.92595 6.21373 9.12347L4.78482 10.5524L4.38293 10.1853C4.17661 9.99685 3.85658 10.0113 3.66813 10.2176C3.4797 10.424 3.49419 10.744 3.70052 10.9325L4.45944 11.6256C4.65919 11.8081 4.96712 11.8011 5.15841 11.6098L6.92924 9.83909Z"
    fill="#767477" />
  <path
    d="M8.08929 10.2414C8.08929 9.96198 8.31586 9.73541 8.59525 9.73541H11.125C11.4044 9.73541 11.631 9.96198 11.631 10.2414C11.631 10.5208 11.4044 10.7473 11.125 10.7473H8.59525C8.31586 10.7473 8.08929 10.5208 8.08929 10.2414Z"
    fill="#767477" />
  <path
    d="M8.59525 4.67505C8.31586 4.67505 8.08929 4.90157 8.08929 5.181C8.08929 5.46043 8.31586 5.68695 8.59525 5.68695H11.125C11.4044 5.68695 11.631 5.46043 11.631 5.181C11.631 4.90157 11.4044 4.67505 11.125 4.67505H8.59525Z"
    fill="#767477" />
  <path
    d="M0.5 2.1456C0.5 1.30731 1.17956 0.627747 2.01786 0.627747H13.1488C13.9871 0.627747 14.6667 1.30731 14.6667 2.1456V13.2766C14.6667 14.1148 13.9871 14.7944 13.1488 14.7944H2.01786C1.17956 14.7944 0.5 14.1148 0.5 13.2766V2.1456ZM2.01786 1.63965C1.73843 1.63965 1.5119 1.86618 1.5119 2.1456V13.2766C1.5119 13.5559 1.73843 13.7825 2.01786 13.7825H13.1488C13.4282 13.7825 13.6548 13.5559 13.6548 13.2766V2.1456C13.6548 1.86618 13.4282 1.63965 13.1488 1.63965H2.01786Z"
    fill="#767477" />
</svg>
