<svg width="20" height="20" viewBox="0 0 20 20" fill="none" xmlns="http://www.w3.org/2000/svg">
<path d="M4.4089 18.2922C6.00491 19.3704 7.92893 20 10 20C10 20 9.99999 20 10 20C15.5229 20 20 15.5229 20 10C20 7.864 19.3303 5.88434 18.1894 4.25967C16.3804 1.68368 13.3868 1.23507e-05 10 0C10 0 10 0 10 0C4.47719 0 0 4.47715 0 10C0 10 0 9.99999 0 10C0 13.4518 1.74889 16.4951 4.4089 18.2922Z" fill="#ef6820"/>
<g clip-path="url(#clip0_16152_180055)">
<path d="M12.0771 13.9208L11.9374 14.492C11.5182 14.6575 11.1834 14.7834 10.934 14.87C10.6844 14.9568 10.3944 15 10.064 15C9.55652 15 9.16182 14.8757 8.88031 14.6288C8.5988 14.3809 8.458 14.0667 8.458 13.6857C8.458 13.5381 8.46822 13.3864 8.48946 13.2318C8.51088 13.077 8.54493 12.9027 8.59154 12.7079L9.11539 10.8537C9.162 10.6762 9.20161 10.5079 9.23334 10.3489C9.26551 10.1908 9.28102 10.0453 9.28102 9.91436C9.28102 9.67758 9.23199 9.51195 9.13439 9.41883C9.03679 9.32598 8.85055 9.27884 8.57406 9.27884C8.43864 9.27884 8.29945 9.30053 8.15758 9.34247C8.01508 9.3846 7.89328 9.42528 7.79102 9.46311L7.9311 8.89148C8.27427 8.75176 8.60229 8.63211 8.91607 8.53281C9.22984 8.43323 9.52632 8.3834 9.80675 8.3834C10.3107 8.3834 10.6996 8.5052 10.9727 8.7488C11.2458 8.99258 11.3823 9.30859 11.3823 9.69801C11.3823 9.77858 11.3733 9.92055 11.354 10.1235C11.3352 10.3268 11.3002 10.5131 11.2491 10.6826L10.7275 12.5293C10.6847 12.6777 10.6463 12.8472 10.6128 13.038C10.5783 13.2276 10.5618 13.3724 10.5618 13.4696C10.5618 13.7148 10.6165 13.8822 10.7261 13.9712C10.8365 14.0602 11.0267 14.1045 11.2968 14.1045C11.4237 14.1045 11.568 14.082 11.7283 14.0378C11.8882 13.9936 12.0048 13.9548 12.0771 13.9208ZM12.2094 6.1678C12.2094 6.48955 12.0881 6.76434 11.8444 6.99028C11.6014 7.21703 11.3085 7.3305 10.9659 7.3305C10.6222 7.3305 10.3285 7.21703 10.0827 6.99028C9.83732 6.76425 9.71435 6.48955 9.71435 6.1678C9.71435 5.84668 9.83732 5.57144 10.0827 5.34263C10.3281 5.11418 10.6222 5 10.9659 5C11.3084 5 11.6014 5.11445 11.8444 5.34263C12.0883 5.57144 12.2094 5.84677 12.2094 6.1678Z" fill="white"/>
</g>
<defs>
<clipPath id="clip0_16152_180055">
<rect width="10" height="10" fill="white" transform="translate(5 5)"/>
</clipPath>
</defs>
</svg>
