<svg width="14" height="13" viewBox="0 0 14 13" fill="none" xmlns="http://www.w3.org/2000/svg">
<path fill-rule="evenodd" clip-rule="evenodd" d="M5.78126 10.5625H12.2813C12.7688 10.5625 13.0938 10.8875 13.0938 11.375C13.0938 11.8625 12.7688 12.1875 12.2813 12.1875H5.78126C5.56577 12.1875 5.35911 12.1019 5.20674 11.9495C5.05436 11.7972 4.96876 11.5905 4.96876 11.375C4.96876 11.1595 5.05436 10.9528 5.20674 10.8005C5.35911 10.6481 5.56577 10.5625 5.78126 10.5625ZM5.78126 5.6875H12.2813C12.7688 5.6875 13.0938 6.0125 13.0938 6.5C13.0938 6.9875 12.7688 7.3125 12.2813 7.3125H5.78126C5.56577 7.3125 5.35911 7.2269 5.20674 7.07452C5.05436 6.92215 4.96876 6.71549 4.96876 6.5C4.96876 6.28451 5.05436 6.07785 5.20674 5.92548C5.35911 5.7731 5.56577 5.6875 5.78126 5.6875ZM5.78126 0.8125H12.2813C12.7688 0.8125 13.0938 1.1375 13.0938 1.625C13.0938 2.1125 12.7688 2.4375 12.2813 2.4375H5.78126C5.56577 2.4375 5.35911 2.3519 5.20674 2.19952C5.05436 2.04715 4.96876 1.84049 4.96876 1.625C4.96876 1.40951 5.05436 1.20285 5.20674 1.05048C5.35911 0.898103 5.56577 0.8125 5.78126 0.8125ZM2.53126 0V2.84375C2.53126 3.0875 2.36876 3.25 2.12501 3.25C2.01727 3.25 1.91393 3.2072 1.83775 3.13101C1.76156 3.05483 1.71876 2.95149 1.71876 2.84375V0.8125H1.31251C1.20477 0.8125 1.10143 0.769699 1.02525 0.693512C0.949062 0.617325 0.90626 0.513994 0.90626 0.40625C0.90626 0.298506 0.949062 0.195175 1.02525 0.118988C1.10143 0.0428013 1.20477 0 1.31251 0H2.53126ZM1.71876 7.15L1.88126 7.3125H2.93751C3.18126 7.3125 3.34376 7.475 3.34376 7.71875C3.34376 7.9625 3.18126 8.125 2.93751 8.125H1.63751C1.4364 8.10479 1.25004 8.01034 1.11482 7.86011C0.979609 7.70987 0.905247 7.51462 0.90626 7.3125C0.90626 6.9875 1.15001 6.6625 1.39376 6.5L2.36876 6.175L2.53126 5.93125C2.53126 5.88815 2.51414 5.84682 2.48367 5.81635C2.45319 5.78587 2.41186 5.76875 2.36876 5.76875H1.31251C1.20477 5.76875 1.10143 5.72595 1.02525 5.64976C0.949062 5.57358 0.90626 5.47024 0.90626 5.3625C0.90626 5.11875 1.06876 4.95625 1.31251 4.95625H2.61251C3.01876 4.95625 3.34376 5.28125 3.34376 5.76875V5.85C3.34376 6.175 3.10001 6.5 2.85626 6.6625L1.88126 6.9875L1.71876 7.23125V7.15ZM3.34376 10.5625V12.1875C3.34376 12.675 3.01876 13 2.53126 13H1.31251C1.20477 13 1.10143 12.9572 1.02525 12.881C0.949062 12.8048 0.90626 12.7015 0.90626 12.5937C0.90626 12.486 0.949062 12.3827 1.02525 12.3065C1.10143 12.2303 1.20477 12.1875 1.31251 12.1875H2.28751C2.45001 12.1875 2.53126 12.1063 2.53126 11.9438C2.53126 11.7812 2.45001 11.7 2.28751 11.7H1.23126C1.14506 11.7 1.0624 11.6658 1.00145 11.6048C0.940501 11.5439 0.90626 11.4612 0.90626 11.375C0.90626 11.2888 0.940501 11.2061 1.00145 11.1452C1.0624 11.0842 1.14506 11.05 1.23126 11.05H2.28751C2.45001 11.05 2.53126 10.9687 2.53126 10.8062C2.53126 10.6437 2.45001 10.5625 2.28751 10.5625H1.31251C1.20477 10.5625 1.10143 10.5197 1.02525 10.4435C0.949062 10.3673 0.90626 10.264 0.90626 10.1562C0.90626 10.0485 0.949062 9.94517 1.02525 9.86899C1.10143 9.7928 1.20477 9.75 1.31251 9.75H2.53126C3.01876 9.75 3.34376 10.075 3.34376 10.5625Z" fill="#202020"/>
</svg>
