<svg width="28" height="28" viewBox="0 0 28 28" fill="none" xmlns="http://www.w3.org/2000/svg">
<rect width="28" height="28" rx="14" fill="#EF3F47"/>
<g clip-path="url(#clip0_9756_137168)">
<path fill-rule="evenodd" clip-rule="evenodd" d="M8.19 8.09096L14.2381 8.09091C14.7339 8.17258 15.0956 8.59841 15.0956 9.10008V21.0001H12.6164V18.5C12.6164 17.9341 12.1614 17.4791 11.5956 17.4791H10.5C9.93417 17.4791 9.47917 17.9341 9.47917 18.5V21.0001H7.58333C7.2625 21.0001 7 20.7376 7 20.4167V9.10013C7 8.80263 7.13417 8.51679 7.36167 8.31846C7.58917 8.12596 7.8925 8.04429 8.19 8.09096ZM8.68786 11.2997C8.68786 11.0235 8.91172 10.7997 9.18786 10.7997H10.0472C10.3234 10.7997 10.5472 11.0235 10.5472 11.2997C10.5472 11.5758 10.3234 11.7997 10.0472 11.7997H9.18786C8.91172 11.7997 8.68786 11.5758 8.68786 11.2997ZM9.18786 12.9999C8.91172 12.9999 8.68786 13.2237 8.68786 13.4999C8.68786 13.776 8.91172 13.9999 9.18786 13.9999H10.0472C10.3234 13.9999 10.5472 13.776 10.5472 13.4999C10.5472 13.2237 10.3234 12.9999 10.0472 12.9999H9.18786ZM11.5472 11.2997C11.5472 11.0235 11.7711 10.7997 12.0472 10.7997H12.9066C13.1828 10.7997 13.4066 11.0235 13.4066 11.2997C13.4066 11.5758 13.1828 11.7997 12.9066 11.7997H12.0472C11.7711 11.7997 11.5472 11.5758 11.5472 11.2997ZM12.0472 12.9999C11.7711 12.9999 11.5472 13.2237 11.5472 13.4999C11.5472 13.776 11.7711 13.9999 12.0472 13.9999H12.9066C13.1828 13.9999 13.4066 13.776 13.4066 13.4999C13.4066 13.2237 13.1828 12.9999 12.9066 12.9999H12.0472Z" fill="white"/>
<path fill-rule="evenodd" clip-rule="evenodd" d="M16.0396 13.3242L20.1963 13.3244C20.6349 13.3244 21.0013 13.8401 21.0013 14.3219V19.9791C21.0013 20.542 20.5434 20.9999 19.9805 20.9999H16.043L16.0396 13.3242ZM17.5937 15.9181C17.5937 15.6419 17.8176 15.4181 18.0937 15.4181H18.9531C19.2293 15.4181 19.4531 15.6419 19.4531 15.9181C19.4531 16.1942 19.2293 16.4181 18.9531 16.4181H18.0937C17.8176 16.4181 17.5937 16.1942 17.5937 15.9181ZM18.0937 17.4055C17.8176 17.4055 17.5937 17.6294 17.5937 17.9055C17.5937 18.1817 17.8176 18.4055 18.0937 18.4055H18.9531C19.2293 18.4055 19.4531 18.1817 19.4531 17.9055C19.4531 17.6294 19.2293 17.4055 18.9531 17.4055H18.0937Z" fill="white"/>
</g>
<defs>
<clipPath id="clip0_9756_137168">
<rect width="14" height="14" fill="white" transform="translate(7 7)"/>
</clipPath>
</defs>
</svg>
