<svg width="20" height="20" viewBox="0 0 20 20" fill="none" xmlns="http://www.w3.org/2000/svg">
<path d="M18.3329 10.6392C18.3338 10.5089 18.2665 10.3876 18.1554 10.3194H18.1535L18.1465 10.3156L12.3714 6.89705C12.3465 6.8802 12.3206 6.8648 12.2939 6.85093C12.0709 6.73589 11.8061 6.73589 11.5831 6.85093C11.5564 6.86481 11.5305 6.8802 11.5056 6.89705L5.73053 10.3156L5.72356 10.3194C5.54705 10.4292 5.49294 10.6613 5.6027 10.8378C5.63504 10.8898 5.67959 10.9331 5.73247 10.964L11.5075 14.3825C11.5325 14.3992 11.5584 14.4146 11.585 14.4286C11.808 14.5437 12.0729 14.5437 12.2959 14.4286C12.3225 14.4146 12.3484 14.3992 12.3734 14.3825L18.1484 10.964C18.2638 10.8967 18.3342 10.7727 18.3329 10.6392Z" fill="#0A2767"/>
<path d="M6.40459 8.35682H10.1944V11.8308H6.40459V8.35682ZM17.5586 4.82552V3.23641C17.5677 2.8391 17.2532 2.50952 16.8559 2.5H7.02125C6.62394 2.50952 6.30945 2.8391 6.31855 3.23641V4.82552L12.1324 6.37586L17.5586 4.82552Z" fill="#0364B8"/>
<path d="M6.31836 4.82617H10.1942V8.31445H6.31836V4.82617Z" fill="#0078D4"/>
<path d="M14.0702 4.82617H10.1943V8.31445L14.0702 11.8027H17.5585V8.31445L14.0702 4.82617Z" fill="#28A8EA"/>
<path d="M10.1943 8.31445H14.0702V11.8027H10.1943V8.31445Z" fill="#0078D4"/>
<path d="M10.1943 11.8027H14.0702V15.291H10.1943V11.8027Z" fill="#0364B8"/>
<path d="M6.40527 11.8311H10.1951V14.9891H6.40527V11.8311Z" fill="#14447D"/>
<path d="M14.0693 11.8027H17.5576V15.291H14.0693V11.8027Z" fill="#0078D4"/>
<path d="M18.1558 10.9431L18.1484 10.947L12.3734 14.195C12.3482 14.2105 12.3226 14.2252 12.2959 14.2384C12.1978 14.2851 12.0913 14.3115 11.9827 14.3159L11.6672 14.1314C11.6406 14.118 11.6147 14.1032 11.5897 14.0868L5.73715 10.7466H5.73443L5.54297 10.6396V17.2147C5.54595 17.6533 5.90388 18.0066 6.34256 18.0038H17.5461C17.5527 18.0038 17.5585 18.0007 17.5655 18.0007C17.6582 17.9948 17.7495 17.9757 17.8368 17.9441C17.8745 17.9281 17.911 17.9092 17.9457 17.8875C17.9717 17.8728 18.0163 17.8406 18.0163 17.8406C18.2148 17.6937 18.3323 17.4617 18.3333 17.2147V10.6396C18.3332 10.7654 18.2654 10.8814 18.1558 10.9431Z" fill="url(#paint0_linear_2490_186181)"/>
<path opacity="0.5" d="M18.0231 10.6142V11.0173L11.9846 15.1749L5.73278 10.7498C5.73278 10.7477 5.73104 10.746 5.7289 10.746L5.15527 10.401V10.1103L5.3917 10.1064L5.89168 10.3933L5.90331 10.3971L5.94594 10.4243C5.94594 10.4243 11.8217 13.7769 11.8373 13.7846L12.0621 13.9164C12.0814 13.9087 12.1008 13.9009 12.1241 13.8932C12.1357 13.8854 17.9572 10.6103 17.9572 10.6103L18.0231 10.6142Z" fill="#0A2767"/>
<path d="M18.1558 10.9431L18.1484 10.9474L12.3734 14.1954C12.3482 14.2109 12.3226 14.2256 12.2959 14.2388C12.0716 14.3483 11.8093 14.3483 11.585 14.2388C11.5585 14.2256 11.5326 14.2111 11.5075 14.1954L5.7325 10.9474L5.72552 10.9431C5.61403 10.8827 5.54412 10.7665 5.54297 10.6396V17.2147C5.54574 17.6533 5.90355 18.0066 6.34214 18.0038C6.34215 18.0038 6.34216 18.0038 6.34217 18.0038H17.5341C17.9727 18.0066 18.3305 17.6533 18.3333 17.2147C18.3333 17.2147 18.3333 17.2147 18.3333 17.2147V10.6396C18.3332 10.7654 18.2654 10.8814 18.1558 10.9431Z" fill="#1490DF"/>
<path opacity="0.1" d="M12.4569 14.1475L12.3704 14.1959C12.3454 14.2119 12.3195 14.2265 12.2929 14.2397C12.1977 14.2864 12.0942 14.3139 11.9883 14.3203L14.1855 16.9187L18.0184 17.8423C18.1234 17.763 18.2069 17.6587 18.2614 17.5388L12.4569 14.1475Z" fill="black"/>
<path opacity="0.05" d="M12.8483 13.9268L12.3704 14.1954C12.3454 14.2113 12.3195 14.2259 12.2929 14.2392C12.1977 14.2859 12.0942 14.3133 11.9883 14.3198L13.0177 17.1581L18.0195 17.8406C18.2166 17.6927 18.3326 17.4607 18.3327 17.2143V17.1294L12.8483 13.9268Z" fill="black"/>
<path d="M6.35302 18.0038H17.533C17.705 18.0047 17.8728 17.9503 18.0116 17.8488L11.6668 14.1322C11.6402 14.1188 11.6143 14.1039 11.5893 14.0876L5.73676 10.7474H5.73404L5.54297 10.6396V17.1922C5.54253 17.64 5.9052 18.0034 6.35302 18.0038C6.35301 18.0038 6.35301 18.0038 6.35302 18.0038Z" fill="#28A8EA"/>
<path opacity="0.1" d="M10.9692 6.31201V14.5792C10.9685 14.8691 10.7922 15.1296 10.5235 15.2381C10.4402 15.2739 10.3505 15.2924 10.2599 15.2924H5.54297V5.98915H6.31814V5.60156H10.2599C10.6515 5.60305 10.9683 5.92045 10.9692 6.31201Z" fill="black"/>
<path opacity="0.2" d="M10.5816 6.69876V14.966C10.5826 15.0596 10.5627 15.1523 10.5235 15.2373C10.4158 15.5026 10.1586 15.6767 9.87231 15.678H5.54297V5.98831H9.87231C9.98477 5.98719 10.0956 6.01524 10.194 6.06971C10.4316 6.18941 10.5815 6.43272 10.5816 6.69876Z" fill="black"/>
<path opacity="0.2" d="M10.5816 6.69876V14.1908C10.5797 14.5822 10.2637 14.8994 9.87232 14.9028H5.54297V5.98831H9.87231C9.98477 5.98719 10.0956 6.01524 10.194 6.06971C10.4316 6.18941 10.5815 6.43272 10.5816 6.69876Z" fill="black"/>
<path opacity="0.2" d="M10.194 6.69872V14.1908C10.1936 14.5828 9.87671 14.9009 9.48473 14.9028H5.54297V5.98828H9.48472C9.87666 5.98849 10.1942 6.3064 10.194 6.69834C10.194 6.69847 10.194 6.6986 10.194 6.69872Z" fill="black"/>
<path d="M2.37744 5.98828H9.48345C9.87582 5.98828 10.1939 6.30636 10.1939 6.69873V13.8047C10.1939 14.1971 9.87582 14.5152 9.48345 14.5152H2.37744C1.98506 14.5152 1.66699 14.1971 1.66699 13.8047V6.69873C1.66699 6.30636 1.98507 5.98828 2.37744 5.98828Z" fill="url(#paint1_linear_2490_186181)"/>
<path d="M3.88736 8.96782C4.06246 8.59475 4.34509 8.28255 4.69897 8.07133C5.09087 7.84697 5.53708 7.73511 5.98848 7.74808C6.40684 7.73901 6.81966 7.84506 7.18185 8.05466C7.52239 8.25774 7.79666 8.5553 7.97137 8.91123C8.16163 9.30342 8.25645 9.73505 8.24811 10.1709C8.25733 10.6264 8.15976 11.0777 7.96323 11.4887C7.78436 11.8573 7.50139 12.1655 7.1493 12.3751C6.77315 12.5911 6.34499 12.6999 5.91135 12.6898C5.48404 12.7001 5.06212 12.5929 4.69161 12.3797C4.34812 12.1764 4.07042 11.8785 3.89163 11.5216C3.70024 11.1351 3.60429 10.7083 3.6118 10.2771C3.60382 9.82547 3.69803 9.3779 3.88736 8.96782ZM4.75246 11.0724C4.84581 11.3083 5.00413 11.5128 5.20903 11.6623C5.41774 11.8082 5.66765 11.8834 5.92219 11.877C6.19327 11.8878 6.46047 11.8099 6.68341 11.6553C6.88572 11.5063 7.03987 11.3012 7.12681 11.0654C7.22399 10.8021 7.27194 10.5232 7.26828 10.2426C7.27128 9.95927 7.2262 9.67751 7.13494 9.40928C7.05435 9.1671 6.90516 8.95356 6.7055 8.79457C6.48815 8.63265 6.22167 8.55052 5.95087 8.56202C5.69081 8.55528 5.4353 8.63112 5.22105 8.77867C5.01268 8.92882 4.85136 9.13518 4.75594 9.37362C4.54428 9.92017 4.54318 10.5259 4.75284 11.0732L4.75246 11.0724Z" fill="white"/>
<path d="M14.0693 4.82617H17.5576V8.31445H14.0693V4.82617Z" fill="#50D9FF"/>
<defs>
<linearGradient id="paint0_linear_2490_186181" x1="11.9382" y1="10.6396" x2="11.9382" y2="18.0038" gradientUnits="userSpaceOnUse">
<stop stop-color="#35B8F1"/>
<stop offset="1" stop-color="#28A8EA"/>
</linearGradient>
<linearGradient id="paint1_linear_2490_186181" x1="3.14829" y1="5.43315" x2="8.7126" y2="15.0703" gradientUnits="userSpaceOnUse">
<stop stop-color="#1784D9"/>
<stop offset="0.5" stop-color="#107AD5"/>
<stop offset="1" stop-color="#0A63C9"/>
</linearGradient>
</defs>
</svg>
