<svg width="40" height="40" viewBox="0 0 40 40" fill="none" xmlns="http://www.w3.org/2000/svg">
<g clip-path="url(#clip0_5177_46549)">
<circle cx="20" cy="20" r="20" fill="#1F9F92"/>
<g clip-path="url(#clip1_5177_46549)">
<path fill-rule="evenodd" clip-rule="evenodd" d="M28.6667 26.1364C28.6667 23.5969 25.2486 22.9622 21.2456 22.9622C19.3083 22.9622 17.5167 23.1146 16.1794 23.5558C16.5401 23.9661 16.8143 24.4645 16.9658 25.0297C17.2168 25.9666 17.0854 26.9648 16.6004 27.8047C16.416 28.1242 16.1862 28.4108 15.9207 28.6571C17.2844 29.165 19.1877 29.3327 21.2456 29.3327C25.2705 29.3327 28.6667 28.6749 28.6667 26.1364ZM13.9929 27.0592C14.1986 26.9529 14.3715 26.7893 14.489 26.5857C14.6507 26.3057 14.6945 25.973 14.6108 25.6607C14.5362 25.3822 14.3656 25.1403 14.131 24.9766C13.9318 25.316 13.8245 25.708 13.8245 26.1595C13.8245 26.4909 13.8827 26.7899 13.9929 27.0592ZM26.1564 15.6043C26.1564 12.862 23.971 10.666 21.2456 10.666C18.5201 10.666 16.3347 12.862 16.3347 15.6043C16.3347 18.3456 18.5201 20.5437 21.2456 20.5437C23.971 20.5437 26.1564 18.3456 26.1564 15.6043Z" fill="white"/>
<path d="M8.35488 16.8231L10.7098 16.1921L11.0253 17.3695L13.3803 16.7385L14.0113 19.0935L11.6563 19.7245L12.341 22.2796C13.848 22.3932 15.1755 23.4383 15.5888 24.9808C15.8398 25.9177 15.7084 26.9159 15.2234 27.7558C14.7385 28.5958 13.9397 29.2087 13.0029 29.4597C12.066 29.7108 11.0678 29.5794 10.2279 29.0944C9.38789 28.6095 8.77498 27.8107 8.52395 26.8738C8.11064 25.3314 8.73774 23.7625 9.98602 22.9106L8.35488 16.8231ZM10.8789 26.2428C10.9626 26.5551 11.1669 26.8214 11.4469 26.983C11.7268 27.1447 12.0596 27.1885 12.3719 27.1048C12.6841 27.0211 12.9504 26.8168 13.1121 26.5368C13.2737 26.2569 13.3175 25.9241 13.2338 25.6118C13.1502 25.2995 12.9459 25.0333 12.6659 24.8716C12.3859 24.71 12.0531 24.6662 11.7409 24.7499C11.4286 24.8335 11.1623 25.0378 11.0007 25.3178C10.839 25.5978 10.7952 25.9306 10.8789 26.2428Z" fill="white"/>
</g>
</g>
<defs>
<clipPath id="clip0_5177_46549">
<rect width="40" height="40" fill="white"/>
</clipPath>
<clipPath id="clip1_5177_46549">
<rect width="28" height="28" fill="white" transform="translate(6 6)"/>
</clipPath>
</defs>
</svg>
