<svg width="20" height="20" viewBox="0 0 20 20" fill="none" xmlns="http://www.w3.org/2000/svg">
<path d="M10 0C4.4864 0 0 4.4864 0 10C0 15.5144 4.4864 20 10 20C15.5136 20 20 15.5144 20 10C20 4.4864 15.5136 0 10 0Z" fill="#00A99F"/>
<path fill-rule="evenodd" clip-rule="evenodd" d="M14.9234 6.77586C15.3233 7.15675 15.3387 7.78973 14.9579 8.18966L9.40232 14.023C9.21357 14.2212 8.95186 14.3333 8.67818 14.3333C8.4045 14.3333 8.14278 14.2212 7.95404 14.023L5.17626 11.1063C4.79537 10.7064 4.81081 10.0734 5.21074 9.69254C5.61066 9.31166 6.24364 9.32709 6.62453 9.72702L8.67817 11.8833L13.5096 6.81035C13.8905 6.41042 14.5234 6.39498 14.9234 6.77586Z" fill="white"/>
</svg>
