<svg width="20" height="16" viewBox="0 0 20 16" fill="none" xmlns="http://www.w3.org/2000/svg">
<path fill-rule="evenodd" clip-rule="evenodd" d="M7.59905 1.37612C6.14985 1.37612 4.97505 2.55093 4.97505 4.00012C4.97505 5.44932 6.14985 6.62412 7.59905 6.62412C9.04824 6.62412 10.223 5.44932 10.223 4.00012C10.223 2.55093 9.04824 1.37612 7.59905 1.37612ZM3.82305 4.00012C3.82305 1.91469 5.51362 0.224121 7.59905 0.224121C9.68447 0.224121 11.375 1.91469 11.375 4.00012C11.375 6.08555 9.68447 7.77612 7.59905 7.77612C5.51362 7.77612 3.82305 6.08555 3.82305 4.00012ZM12.641 0.761251C12.72 0.453076 13.0337 0.267216 13.3419 0.346121C14.1541 0.554085 14.8741 1.02646 15.3882 1.68878C15.9023 2.3511 16.1813 3.16569 16.1813 4.00412C16.1813 4.84255 15.9023 5.65714 15.3882 6.31946C14.8741 6.98178 14.1542 7.45416 13.3419 7.66212C13.0337 7.74103 12.72 7.55517 12.641 7.24699C12.5621 6.93882 12.748 6.62503 13.0562 6.54612C13.6206 6.4016 14.1209 6.07334 14.4781 5.61309C14.8354 5.15283 15.0293 4.58676 15.0293 4.00412C15.0293 3.42148 14.8354 2.85541 14.4781 2.39516C14.1209 1.9349 13.6206 1.60664 13.0562 1.46212C12.748 1.38322 12.5621 1.06943 12.641 0.761251ZM1.72901 10.9301C2.43715 10.222 3.39759 9.82412 4.39905 9.82412H10.799C11.8005 9.82412 12.7609 10.222 13.4691 10.9301C14.1772 11.6382 14.575 12.5987 14.575 13.6001V15.2001C14.575 15.5182 14.3172 15.7761 13.999 15.7761C13.6809 15.7761 13.423 15.5182 13.423 15.2001V13.6001C13.423 12.9042 13.1466 12.2368 12.6545 11.7447C12.1624 11.2526 11.495 10.9761 10.799 10.9761H4.39905C3.70312 10.9761 3.03569 11.2526 2.5436 11.7447C2.0515 12.2368 1.77505 12.9042 1.77505 13.6001V15.2001C1.77505 15.5182 1.51716 15.7761 1.19905 15.7761C0.880931 15.7761 0.623047 15.5182 0.623047 15.2001V13.6001C0.623047 12.5987 1.02087 11.6382 1.72901 10.9301ZM15.8413 10.3601C15.9209 10.0521 16.235 9.86688 16.543 9.94641C17.3531 10.1556 18.0708 10.6278 18.5834 11.2891C19.096 11.9503 19.3744 12.7631 19.375 13.5997V15.2001C19.375 15.5182 19.1172 15.7761 18.799 15.7761C18.4809 15.7761 18.223 15.5182 18.223 15.2001V13.6006C18.2226 13.0192 18.0291 12.4544 17.6729 11.9949C17.3167 11.5354 16.818 11.2072 16.255 11.0618C15.947 10.9823 15.7618 10.6681 15.8413 10.3601Z" fill="#fa3939"/>
</svg>
