<svg width="14" height="16" viewBox="0 0 14 16" fill="none" xmlns="http://www.w3.org/2000/svg">
<path fill-rule="evenodd" clip-rule="evenodd" d="M6.99961 0.223877C4.91419 0.223877 3.22361 1.91445 3.22361 3.99988C3.22361 6.0853 4.91419 7.77588 6.99961 7.77588C9.08504 7.77588 10.7756 6.0853 10.7756 3.99988C10.7756 1.91445 9.08504 0.223877 6.99961 0.223877ZM4.37561 3.99988C4.37561 2.55068 5.55042 1.37588 6.99961 1.37588C8.44881 1.37588 9.62361 2.55068 9.62361 3.99988C9.62361 5.44907 8.44881 6.62388 6.99961 6.62388C5.55042 6.62388 4.37561 5.44907 4.37561 3.99988Z" fill="#fa3939"/>
<path d="M3.79993 9.82388C2.79847 9.82388 1.83803 10.2217 1.12989 10.9298C0.421753 11.638 0.0239258 12.5984 0.0239258 13.5999V15.1999C0.0239258 15.518 0.28181 15.7759 0.599926 15.7759C0.918042 15.7759 1.17593 15.518 1.17593 15.1999V13.5999C1.17593 12.9039 1.45238 12.2365 1.94448 11.7444C2.43657 11.2523 3.104 10.9759 3.79993 10.9759H10.1999C10.8959 10.9759 11.5633 11.2523 12.0554 11.7444C12.5475 12.2365 12.8239 12.9039 12.8239 13.5999V15.1999C12.8239 15.518 13.0818 15.7759 13.3999 15.7759C13.718 15.7759 13.9759 15.518 13.9759 15.1999V13.5999C13.9759 12.5984 13.5781 11.638 12.87 10.9298C12.1618 10.2217 11.2014 9.82388 10.1999 9.82388H3.79993Z" fill="#fa3939"/>
</svg>
