<?xml version="1.0" encoding="UTF-8"?>
<svg width="36px" height="54px" viewBox="0 0 36 54" version="1.1" xmlns="http://www.w3.org/2000/svg" xmlns:xlink="http://www.w3.org/1999/xlink">
    <title>Payments</title>
    <g id="New-Property-Menu" stroke="none" stroke-width="1" fill="none" fill-rule="evenodd">
        <g id="Pre-defined-Topic-Icons" transform="translate(-76.000000, -235.000000)" fill="#FFFFFF" fill-rule="nonzero">
            <path d="M78.2920344,277.986416 C77.6547995,277.082611 77.1735608,276.07839 76.868319,275.015488 C76.4022911,273.533519 75.9712153,272.04223 76.0015071,270.464725 L76.05044,269.490727 C76.5654009,269.465096 77.0826919,269.441794 77.6069733,269.423153 C78.6042731,269.384317 79.5883687,269.357132 80.5592602,269.341598 C81.6847177,269.341598 82.5934721,269.341598 83.2039687,269.341598 C84.443603,269.327617 84.9306022,269.315967 85.8533375,269.311306 C86.6735467,269.311306 87.4844353,269.325287 88.3116348,269.399852 C88.5653652,269.461004 88.7585461,269.667002 88.8032943,269.924133 C88.8685382,270.898131 89.1644659,271.769604 89.9287517,272.431363 C90.3950725,272.979158 91.030386,273.356248 91.73461,273.503228 C92.5594794,273.817796 93.4216311,273.698959 94.2698019,273.736241 C96.390229,273.71294 97.8628772,272.71331 98.3312353,270.972696 C98.3964792,270.220061 98.3685175,269.490727 97.7720018,268.917513 C97.2453902,268.185849 96.4950853,267.773414 95.6748761,267.465836 C94.7318201,267.127777 93.7702391,266.843815 92.7948235,266.615335 C91.9746144,266.382321 91.1334339,266.216881 90.3178851,265.967556 C89.4603937,265.70658 88.5865913,265.515509 87.7197794,265.296476 C86.7900321,265.02968 85.8752977,264.713101 84.9795351,264.348109 C83.8106379,263.876659 82.6755166,263.325448 81.5821915,262.69837 C81.4685738,262.655375 81.3612133,262.597384 81.2629624,262.52594 C81.0879008,262.316434 80.8723239,262.144448 80.6291644,262.020299 L78.3899002,259.662198 C77.5153708,257.981533 76.9457675,256.159119 76.7075394,254.279575 C76.5537502,253.037611 76.5584105,250.390572 77.4065813,247.412654 C77.8423174,245.891073 78.8745693,244.749304 79.8485676,243.572584 C80.0303185,243.35122 80.2330407,243.148498 80.4264423,242.938786 C81.255972,242.116246 82.3278362,241.647888 83.2645524,240.981468 L85.827706,239.916595 C88.4887254,239.50183 88.4887254,239.50183 88.4887254,236.910715 C88.4887254,234.99767 88.4887254,235 90.3738084,235 L98.2240489,235 C98.3708477,236.430706 98.1378337,237.873062 98.3452161,239.303768 C99.1561047,239.161629 99.8831083,239.51115 100.621763,239.734844 C101.591608,240.037366 102.528418,240.437072 103.41793,240.927875 C103.92124,241.219143 104.401249,241.550023 104.883588,241.859931 C105.289032,242.246734 105.75273,242.558973 106.127883,242.983058 C106.321284,243.197431 106.528667,243.395493 106.738379,243.591225 C108.357826,245.17106 109.229298,247.147018 109.781542,249.295407 C109.980091,250.221176 110.116322,251.159221 110.189316,252.103225 C110.238249,252.84887 109.91902,253.268295 109.143083,253.268295 C105.41486,253.205381 101.686636,253.319558 97.958413,253.19373 C97.8605484,253.166919 97.7693059,253.120108 97.6904469,253.056252 C97.4131603,252.664789 97.4993755,252.163809 97.3152944,251.739723 C97.0822805,251.173499 96.791013,250.644558 96.2131384,250.341639 C95.1411564,249.570663 93.806444,249.257945 92.5035561,249.472497 C91.9009395,249.529155 91.3102569,249.67604 90.751291,249.908233 C89.2856332,250.595625 88.8731985,251.637197 89.4883554,253.151788 C89.9101106,253.897433 90.6114827,254.286566 91.3524671,254.615116 C92.1778227,254.981332 93.0360495,255.268448 93.9156207,255.472607 C94.7614614,255.763874 95.6375939,255.938635 96.4997455,256.157668 C97.5203467,256.5235 98.5968712,256.679619 99.6244628,257.012829 C100.384088,257.245843 101.146044,257.457886 101.889359,257.728182 C102.5884,258.054402 103.310744,258.294406 104.012116,258.601984 C104.669215,258.930534 105.300683,259.301026 105.939141,259.673849 C106.295653,259.920844 106.654494,260.165508 107.022656,260.398522 C107.42577,260.717751 107.76131,261.097564 108.134133,261.456406 C108.506955,261.815247 108.870457,262.181079 109.224638,262.560892 C109.713201,263.228224 110.139832,263.938758 110.499225,264.683649 C110.676315,265.170648 110.895348,265.641336 111.056128,266.135326 C111.303123,266.936894 111.387008,267.766424 111.557108,268.586633 C111.597073,268.879209 111.61266,269.174599 111.603711,269.469756 C111.686049,270.979003 111.554253,272.492305 111.212247,273.964595 C110.746219,275.281124 110.43165,276.655906 109.58115,277.811656 C108.523443,279.416823 107.158084,280.796438 105.563989,281.870759 C103.855996,283.035829 101.933631,283.711569 99.9506824,284.200899 C99.1980473,284.38498 98.9370716,284.741491 98.9883347,285.470825 C99.0279471,286.048699 98.9883347,286.635895 99.0116361,287.216099 C98.9860045,287.784653 99.1491143,288.381169 98.7646413,288.8938 C97.2803423,288.968364 95.7191488,289.007977 94.0833907,288.998656 C92.2938435,288.998656 90.5881813,288.921762 88.9733945,288.814575 L88.9733945,288.814575 C88.6052324,288.301944 88.7403805,287.710089 88.698438,287.146195 C88.630864,286.323656 88.8801889,285.484806 88.5772708,284.678577 C87.8269658,284.037789 86.8063646,284.172937 85.9721746,283.772153 C84.3806892,283.098743 82.7612422,282.469605 81.440053,281.299875 C81.3491776,281.22065 81.2536418,281.129775 81.0649005,280.952684 C80.0792515,280.027619 79.0493297,279.05129 78.2920344,277.986416 Z" id="Payments"></path>
        </g>
    </g>
</svg>