<svg width="19px" height="19px" viewBox="0 0 19 19" version="1.1" xmlns="http://www.w3.org/2000/svg" xmlns:xlink="http://www.w3.org/1999/xlink">
    <title>pdf</title>
    <g id="New-Property-Menu" stroke="none" stroke-width="1" fill="none" fill-rule="evenodd">
        <g id="pdf">
            <polygon id="Path" fill="#fa3939" points="0 0 19 0 19 19 0 19"></polygon>
            <path d="M5.05263158,7.5 C5.65131579,7.5 6.07894737,7.57692308 6.33552632,7.80769231 C6.67763158,8.03846154 6.76315789,8.34615385 6.76315789,8.73076923 C6.76315789,9.11538462 6.59210526,9.42307692 6.33552632,9.65384615 C6.07894737,9.88461538 5.65131579,10.0384615 5.05263158,10.0384615 L4.19736842,10.0384615 L4.19736842,11.4230769 L3,11.4230769 L3,7.5 L5.05263158,7.5 Z M4.88157895,9.26923077 C5.13815789,9.26923077 5.30921053,9.19230769 5.48026316,9.11538462 C5.56578947,9.03846154 5.65131579,8.88461538 5.65131579,8.73076923 C5.65131579,8.57692308 5.56578947,8.42307692 5.48026316,8.34615385 C5.30921053,8.26923077 5.13815789,8.19230769 4.88157895,8.19230769 L4.19736842,8.19230769 L4.19736842,9.26923077 L4.88157895,9.26923077 Z M9.5,7.5 C10.1842105,7.5 10.7828947,7.65384615 11.125,8.03846154 C11.4671053,8.34615385 11.7236842,8.88461538 11.7236842,9.5 C11.7236842,10.1153846 11.5526316,10.5769231 11.125,10.9615385 C10.7828947,11.2692308 10.1842105,11.5 9.5,11.5 L7.61842105,11.5 L7.61842105,7.5 L9.5,7.5 L9.5,7.5 Z M9.41447368,10.5769231 C9.75657895,10.5769231 10.0986842,10.5 10.2697368,10.2692308 C10.4407895,10.0384615 10.5263158,9.80769231 10.5263158,9.34615385 C10.5263158,8.88461538 10.4407895,8.73076923 10.1842105,8.5 C10.0131579,8.26923077 9.75657895,8.19230769 9.32894737,8.19230769 L8.73026316,8.19230769 L8.73026316,10.5769231 C8.73026316,10.5769231 9.41447368,10.5769231 9.41447368,10.5769231 Z M13.6907895,8.26923077 L13.6907895,9.11538462 L15.5723684,9.11538462 L15.5723684,9.88461538 L13.6907895,9.88461538 L13.6907895,11.3461538 L12.4934211,11.3461538 L12.4934211,7.5 L16,7.5 L16,8.26923077 C16,8.26923077 13.6907895,8.26923077 13.6907895,8.26923077 Z" id="Shape" fill="#FFFFFF" fill-rule="nonzero"></path>
        </g>
    </g>
</svg>