<svg width="28" height="29" viewBox="0 0 28 29" fill="none" xmlns="http://www.w3.org/2000/svg">
<rect y="0.5" width="28" height="28" rx="14" fill="#E53659"/>
<path fill-rule="evenodd" clip-rule="evenodd" d="M7.64514 11.583C8.45118 11.583 9.07044 11.7494 9.50298 12.0823C9.93551 12.4153 10.1517 12.8941 10.1517 13.5187C10.1517 14.1138 9.93551 14.5748 9.50298 14.9018C9.07044 15.2288 8.45118 15.3923 7.64514 15.3923H6.35746V17.4163H4.66675V11.583H7.64514ZM7.37979 14.2793C7.74677 14.2793 8.01708 14.2159 8.19074 14.0893C8.3644 13.9625 8.45122 13.7666 8.45122 13.5014C8.45122 13.2423 8.3644 13.0492 8.19074 12.9226C8.01708 12.7958 7.74677 12.7326 7.37979 12.7326H6.3575V14.2793H7.37979ZM16.3199 12.3387C15.7792 11.8349 15.0011 11.583 13.9853 11.583H11.233V17.4163H13.9853C15.0011 17.4163 15.7792 17.1645 16.3199 16.6606C16.8605 16.1568 17.1307 15.4366 17.1307 14.4997C17.1307 13.5628 16.8605 12.8425 16.3199 12.3387ZM13.8184 16.2679C14.3623 16.2679 14.7621 16.1206 15.0176 15.8259C15.2733 15.5314 15.401 15.0894 15.401 14.5002C15.401 13.911 15.2733 13.4691 15.0176 13.1745C14.7621 12.8798 14.3623 12.7326 13.8184 12.7326H12.924V16.2679H13.8184ZM19.9815 13.9959V12.7585H23.3334V11.583H18.2908V17.4163H19.9815V15.1714H22.6552V13.9959H19.9815Z" fill="white"/>
</svg>
