<svg width="18" height="17" viewBox="0 0 18 17" fill="none" xmlns="http://www.w3.org/2000/svg">
<path fill-rule="evenodd" clip-rule="evenodd" d="M10.6454 0.213393C10.9157 0.497918 10.9157 0.959223 10.6454 1.24375L6.96298 5.11902L6.99183 5.14937C6.99181 5.14935 6.99185 5.14939 6.99183 5.14937L13.1358 11.6151L16.8182 7.73987C17.0885 7.45535 17.5269 7.45535 17.7972 7.73987C18.0676 8.0244 18.0676 8.4857 17.7972 8.77023L14.0472 12.7166C13.9276 12.8427 13.7855 12.9427 13.6291 13.0109C13.4727 13.0792 13.3051 13.1143 13.1358 13.1143C12.9893 13.1143 12.844 13.088 12.7062 13.0367L11.1688 14.6547C11.0477 14.7823 10.9039 14.8835 10.7456 14.9525C10.5873 15.0216 10.4177 15.0571 10.2463 15.0571C10.075 15.0571 9.90532 15.0216 9.74704 14.9525C9.58876 14.8835 9.44497 14.7823 9.32388 14.6547L8.93608 14.2466L6.52251 16.7866C6.33762 16.9812 6.06434 17.0495 5.81604 16.9633L0.475388 15.1087C0.247178 15.0295 0.0743428 14.8314 0.0187758 14.5853C-0.0367912 14.3393 0.0328598 14.0805 0.202786 13.9017L4.40556 9.47877L4.07471 9.13058C3.95349 9.00315 3.85732 8.85183 3.7917 8.68526C3.72609 8.51868 3.69232 8.34014 3.69232 8.15982C3.69232 7.97951 3.72609 7.80096 3.7917 7.63439C3.85727 7.46795 3.95334 7.31672 4.07444 7.18935C4.07434 7.18944 4.07453 7.18925 4.07444 7.18935L5.61219 5.57105C5.56345 5.42604 5.53847 5.27318 5.53847 5.11902C5.53847 4.94085 5.57184 4.76442 5.63667 4.59984C5.70146 4.43537 5.79639 4.28594 5.91604 4.16009C5.91595 4.16019 5.91613 4.16 5.91604 4.16009L9.6663 0.213393C9.93666 -0.0711311 10.375 -0.0711311 10.6454 0.213393ZM6.50235 6.69497L5.11041 8.15982L5.87391 8.96332L10.2463 13.5648L11.6383 12.0999L6.50235 6.69497ZM7.95701 13.2162L5.38463 10.5091L1.97663 14.0956L5.84497 15.4389L7.95701 13.2162ZM5.05323 8.21999C5.05314 8.22009 5.05332 8.21989 5.05323 8.21999V8.21999ZM5.05323 8.09966C5.05314 8.09956 5.05332 8.09975 5.05323 8.09966V8.09966ZM6.89484 5.0473C6.89475 5.04721 6.89493 5.0474 6.89484 5.0473V5.0473Z" fill="#999999"/>
</svg>
