<svg width="10" height="10" viewBox="0 0 10 10" fill="none" xmlns="http://www.w3.org/2000/svg">
<path d="M6.17554 1.67957L0.673399 7.1821C0.645718 7.20986 0.62573 7.24492 0.616212 7.2826L0.00635232 9.73044C-0.0118903 9.80413 0.00976291 9.88249 0.0635391 9.93627C0.104228 9.97696 0.15967 9.99948 0.216381 9.99948C0.233751 9.99948 0.251518 9.99734 0.268809 9.99298L2.71666 9.38304C2.75481 9.37352 2.78947 9.35361 2.81715 9.32593L8.31977 3.82379L6.17554 1.67957Z" fill="#28ad99"/>
<path d="M9.68248 0.92935L9.07 0.316873C8.66065 -0.0924762 7.94721 -0.0920796 7.53833 0.316873L6.78809 1.06712L8.93223 3.21127L9.68248 2.46102C9.88696 2.25662 9.99959 1.98457 9.99959 1.69522C9.99959 1.40588 9.88696 1.13383 9.68248 0.92935Z" fill="#28ad99"/>
</svg>
