<svg width="20" height="20" viewBox="0 0 20 20" fill="none" xmlns="http://www.w3.org/2000/svg">
<path fill-rule="evenodd" clip-rule="evenodd" d="M12.4107 3.13754C13.3942 2.15402 14.9888 2.15402 15.9723 3.13754C16.9558 4.12106 16.9558 5.71566 15.9723 6.69917L7.01477 15.6567C7.004 15.6674 6.99335 15.6781 6.98281 15.6887C6.81465 15.857 6.67365 15.9982 6.5065 16.1084C6.35933 16.2055 6.19971 16.2822 6.032 16.3365C5.8415 16.3982 5.64317 16.4201 5.40664 16.4462C5.39181 16.4478 5.37683 16.4495 5.3617 16.4512L3.06616 16.7062C2.88501 16.7264 2.70453 16.663 2.57564 16.5342C2.44676 16.4053 2.38345 16.2248 2.40358 16.0436L2.65864 13.7481C2.66032 13.733 2.66197 13.718 2.66361 13.7032C2.68973 13.4666 2.71164 13.2683 2.77331 13.0778C2.8276 12.9101 2.90432 12.7505 3.00137 12.6033C3.11159 12.4362 3.25278 12.2951 3.42116 12.127C3.43171 12.1164 3.44238 12.1058 3.45315 12.095L12.4107 3.13754ZM15.1238 3.98607C14.6089 3.47118 13.7741 3.47118 13.2592 3.98607L4.30167 12.9436C4.08514 13.1601 4.03771 13.2115 4.00316 13.2639C3.96563 13.3208 3.93597 13.3825 3.91497 13.4474C3.89565 13.5071 3.88511 13.5763 3.8513 13.8806L3.67906 15.4307L5.22918 15.2585C5.53353 15.2247 5.6027 15.2142 5.66241 15.1948C5.72726 15.1738 5.78898 15.1442 5.84589 15.1067C5.89828 15.0721 5.94972 15.0247 6.16625 14.8081L15.1238 5.85064C15.6386 5.33576 15.6386 4.50096 15.1238 3.98607Z" fill="#999999"/>
</svg>
