<svg width="16" height="16" viewBox="0 0 16 16" fill="none" xmlns="http://www.w3.org/2000/svg">
<path d="M9.17553 4.6796L3.67339 10.1821C3.64571 10.2099 3.62572 10.245 3.6162 10.2826L3.00635 12.7305C2.9881 12.8042 3.00976 12.8825 3.06353 12.9363C3.10422 12.977 3.15966 12.9995 3.21637 12.9995C3.23374 12.9995 3.25151 12.9974 3.2688 12.993L5.71665 12.3831C5.7548 12.3736 5.78946 12.3536 5.81714 12.326L11.3198 6.82382L9.17553 4.6796Z" fill="#646464"/>
<path d="M12.6829 3.92935L12.0704 3.31687C11.6611 2.90752 10.9476 2.90792 10.5387 3.31687L9.78849 4.06712L11.9326 6.21127L12.6829 5.46102C12.8874 5.25662 13 4.98457 13 4.69522C13 4.40588 12.8874 4.13383 12.6829 3.92935Z" fill="#646464"/>
</svg>