<svg width="24" height="24" viewBox="0 0 24 24" fill="none" xmlns="http://www.w3.org/2000/svg">
<rect x="0.5" y="0.5" width="23" height="23" rx="11.5" fill="white"/>
<rect x="0.5" y="0.5" width="23" height="23" rx="11.5" stroke="#D8DCDF"/>
<path fill-rule="evenodd" clip-rule="evenodd" d="M13.9285 6.51009C14.7153 5.72328 15.991 5.72328 16.7778 6.51009C17.5646 7.29691 17.5646 8.57259 16.7778 9.3594L9.61182 16.5254C9.6032 16.534 9.59468 16.5425 9.58625 16.551C9.45172 16.6857 9.33892 16.7986 9.2052 16.8868C9.08746 16.9645 8.95977 17.0258 8.8256 17.0693C8.6732 17.1186 8.51454 17.1361 8.32531 17.157C8.31345 17.1583 8.30147 17.1597 8.28936 17.161L6.45293 17.365C6.30801 17.3812 6.16362 17.3305 6.06051 17.2274C5.95741 17.1243 5.90676 16.9799 5.92286 16.835L6.12691 14.9986C6.12825 14.9864 6.12958 14.9745 6.13089 14.9626C6.15179 14.7734 6.16931 14.6147 6.21865 14.4623C6.26208 14.3281 6.32345 14.2004 6.40109 14.0827C6.48927 13.949 6.60222 13.8362 6.73693 13.7017C6.74537 13.6932 6.7539 13.6847 6.76252 13.6761L13.9285 6.51009ZM16.099 7.18892C15.6871 6.77701 15.0193 6.77701 14.6073 7.18892L7.44134 14.3549C7.26812 14.5281 7.23017 14.5693 7.20253 14.6112C7.17251 14.6567 7.14877 14.7061 7.13198 14.758C7.11652 14.8057 7.10809 14.8611 7.08104 15.1046L6.94325 16.3447L8.18334 16.2069C8.42682 16.1798 8.48216 16.1714 8.52993 16.1559C8.58181 16.1391 8.63119 16.1154 8.67671 16.0854C8.71862 16.0577 8.75977 16.0198 8.933 15.8466L16.099 8.68058C16.5109 8.26867 16.5109 7.60083 16.099 7.18892Z" fill="#646464"/>
</svg>
