<svg width="14px" height="14px" viewBox="0 0 14 14" version="1.1" xmlns="http://www.w3.org/2000/svg" xmlns:xlink="http://www.w3.org/1999/xlink">
  <g id="Lease-Summary" stroke="none" stroke-width="1" fill="none" fill-rule="evenodd">
    <g id="Lease-Summary-Tenant-1-Copy-3" transform="translate(-28.000000, -998.000000)" fill="#F2F5F7" fill-rule="nonzero">
      <g id="Group-18" transform="translate(16.000000, 919.000000)">
        <g id="Group-16" transform="translate(12.000000, 76.000000)">
          <g id="icon_supplier" transform="translate(0.000000, 3.000000)">
            <path d="M7.000018,13.9999725 C5.94170092,14.0029544 4.89669768,13.7634854 3.94525529,13.2999472 C3.59704455,13.1305479 3.26341462,12.9327287 2.94776747,12.7084496 L2.85186864,12.6384499 C1.98375324,11.9976724 1.27399691,11.1664957 0.777093976,10.2087595 C0.263118251,9.21749343 -0.00345949398,8.1166078 3.38965899e-05,6.99997223 C3.38965899e-05,3.13399257 3.1340702,0 7.000018,0 C10.8659308,0 13.9999666,3.13399257 13.9999666,6.99997223 C14.0034325,8.1160478 13.7371557,9.21644344 13.223642,10.2073595 C12.7274181,11.1645357 12.0186767,11.9954324 11.1516673,12.6363499 C10.8246313,12.8757489 10.4775055,13.0865181 10.11428,13.2663474 L10.0582807,13.2943473 C9.10622228,13.7603354 8.06001506,14.0017645 7.000018,13.9999725 Z M7.000018,10.4999451 C5.9510808,10.4979284 4.98940455,11.083756 4.5101484,12.0168523 C6.07910924,12.7939892 7.92092675,12.7939892 9.4898876,12.0168523 L9.4898876,12.0133523 C9.01004346,11.081306 8.0483252,10.4967384 7.000018,10.4999451 Z M7.000018,9.0999639 C8.51626949,9.10192389 9.91436242,9.91903065 10.6602733,11.2391554 L10.6707732,11.2300554 L10.6805731,11.2216555 L10.6686732,11.2321554 L10.6616733,11.2377554 C12.4319517,9.70833149 13.0649539,7.23958128 12.2489739,5.04705698 C11.4330639,2.85450468 9.34015943,1.40021845 7.00071799,1.40021845 C4.66128355,1.40021845 2.56836511,2.85450468 1.75242707,5.04705698 C0.93648903,7.23958128 1.5694843,9.70833149 3.33976269,11.2377554 C4.08613557,9.91826065 5.48408851,9.10178389 7.000018,9.0999639 Z M7.000018,8.39996668 C5.45363888,8.39996668 4.20005218,7.14634165 4.20005218,5.59997778 C4.20005218,4.05358592 5.45363888,2.79998889 7.000018,2.79998889 C8.54636912,2.79998889 9.79998381,4.05358592 9.79998381,5.59997778 C9.79998381,6.34260484 9.50500741,7.05478201 8.97987382,7.57984993 C8.45481024,8.10498785 7.74263893,8.39996668 7.000018,8.39996668 Z M7.000018,4.19998334 C6.22680744,4.19998334 5.60003509,4.82678185 5.60003509,5.59997778 C5.60003509,6.37319472 6.22680744,6.99997223 7.000018,6.99997223 C7.77322856,6.99997223 8.4000009,6.37319472 8.4000009,5.59997778 C8.4000009,4.82678185 7.77322856,4.19998334 7.000018,4.19998334 Z" id="Shape"></path>
          </g>
        </g>
      </g>
    </g>
  </g>
</svg>
