<svg width="20" height="20" viewBox="0 0 20 20" fill="none" xmlns="http://www.w3.org/2000/svg">
<path d="M17.5786 13.6871V16.037C17.5795 16.2552 17.5348 16.4711 17.4474 16.671C17.36 16.8709 17.2318 17.0503 17.0711 17.1978C16.9103 17.3453 16.7205 17.4575 16.5139 17.5274C16.3072 17.5973 16.0882 17.6233 15.871 17.6036C13.4606 17.3417 11.1453 16.5181 9.11099 15.1989C7.21838 13.9962 5.61377 12.3916 4.41112 10.499C3.08731 8.45551 2.26347 6.12891 2.00636 3.70769C1.98678 3.49108 2.01253 3.27277 2.08195 3.06665C2.15137 2.86053 2.26295 2.67113 2.40958 2.5105C2.55621 2.34987 2.73468 2.22153 2.93363 2.13365C3.13259 2.04577 3.34765 2.00028 3.56515 2.00008H5.91508C6.29523 1.99633 6.66376 2.13095 6.952 2.37883C7.24023 2.62671 7.4285 2.97095 7.48171 3.34737C7.58089 4.0994 7.76483 4.8378 8.03002 5.54848C8.13541 5.82884 8.15822 6.13354 8.09575 6.42648C8.03327 6.71941 7.88814 6.98829 7.67753 7.20126L6.68273 8.19607C7.79781 10.1571 9.42154 11.7809 11.3826 12.8959L12.3774 11.9011C12.5904 11.6905 12.8593 11.5454 13.1522 11.4829C13.4451 11.4204 13.7498 11.4433 14.0302 11.5486C14.7409 11.8138 15.4793 11.9978 16.2313 12.097C16.6118 12.1506 16.9593 12.3423 17.2077 12.6355C17.4561 12.9287 17.5881 13.3029 17.5786 13.6871Z" fill="#28ad99"/>
</svg>
