<svg width="16" height="16" viewBox="0 0 16 16" fill="none" xmlns="http://www.w3.org/2000/svg">
<path d="M11.7501 9.44933L13.5121 10.5C13.8761 10.7173 14.0641 11.14 13.9807 11.556C13.6401 13.262 11.9268 14.3553 10.2488 13.8947C6.28947 12.808 3.19672 9.72467 2.10606 5.75667C1.64472 4.078 2.73679 2.36332 4.44346 2.02199L4.45469 2.01999C4.87136 1.93666 5.29613 2.12533 5.5128 2.49133L6.55479 4.25066C6.92545 4.87666 6.74135 5.68265 6.13535 6.08532L5.0281 6.82199C5.80943 8.69333 7.30272 10.1927 9.16872 10.9727L9.91205 9.86266C10.318 9.258 11.1248 9.07667 11.7501 9.44933Z" fill="#85888E"/>
</svg>
