<svg width="20" height="20" viewBox="0 0 20 20" fill="none" xmlns="http://www.w3.org/2000/svg">
<path d="M15.6712 17.8361C15.5681 17.8361 15.5681 17.8361 15.4649 17.8361C13.0935 17.6285 10.9282 16.7982 8.96917 15.5527C7.11323 14.411 5.56662 12.8542 4.43243 10.9859C3.19514 9.01393 2.37028 6.73054 2.16406 4.34336C2.16406 4.03199 2.16406 3.72061 2.26717 3.51303C2.37028 3.20166 2.47339 2.99408 2.6796 2.7865C2.88582 2.57892 3.09203 2.37134 3.40135 2.26755C3.60757 2.26755 3.91689 2.16376 4.22622 2.16376H6.39148C6.80391 2.16376 7.31945 2.37134 7.73188 2.68271C8.0412 2.99408 8.35052 3.40924 8.35052 3.9282C8.45363 4.55094 8.65984 5.27747 8.86606 5.79642C8.96917 6.1078 9.07228 6.52296 8.96917 6.93812C8.86606 7.35328 8.65984 7.66465 8.35052 7.97602L7.73188 8.59877C8.65984 10.0518 9.79403 11.2973 11.2375 12.1276L11.9593 11.5049C12.2686 11.1935 12.5779 11.0897 12.9904 10.9859C13.4028 10.8822 13.7121 10.9859 14.1246 11.0897C14.7432 11.2973 15.3618 11.5049 16.0836 11.6087C16.5991 11.7125 17.0116 11.9201 17.3209 12.3352C17.6302 12.7504 17.8364 13.1655 17.8364 13.6845V15.8641C17.8364 16.1755 17.7333 16.3831 17.6302 16.6944C17.5271 17.0058 17.3209 17.2134 17.1147 17.421C16.9085 17.6285 16.7022 17.7323 16.3929 17.8361C16.1867 17.8361 15.9805 17.8361 15.6712 17.8361ZM6.39148 3.30545H4.22622C4.12311 3.30545 4.02 3.30545 3.91689 3.40924C3.81379 3.40924 3.71068 3.51303 3.60757 3.61682C3.40135 3.72061 3.40135 3.82441 3.29825 3.9282C3.29825 4.03199 3.19514 4.13578 3.29825 4.23957C3.50446 6.41917 4.22622 8.49498 5.46351 10.3632C6.49458 12.0239 7.93809 13.4769 9.69092 14.6186C11.4438 15.7603 13.5059 16.4868 15.6712 16.6944C15.7743 16.6944 15.8774 16.6944 15.9805 16.6944C16.0836 16.6944 16.1867 16.5906 16.2898 16.4868C16.3929 16.3831 16.496 16.2793 16.496 16.1755C16.496 16.0717 16.5991 15.9679 16.5991 15.8641V13.5807C16.5991 13.3731 16.496 13.1655 16.3929 12.958C16.2898 12.7504 16.0836 12.6466 15.8774 12.6466C15.1556 12.5428 14.4339 12.3352 13.7121 12.1276C13.5059 12.0239 13.4028 12.0239 13.1966 12.1276C12.9904 12.1276 12.8873 12.2314 12.7842 12.3352L11.8562 13.2693C11.65 13.4769 11.4438 13.4769 11.1344 13.3731C9.27849 12.3352 7.62877 10.6746 6.59769 8.80635C6.49458 8.59877 6.49458 8.2874 6.7008 8.07981L7.62877 7.1457C7.73188 7.04191 7.83498 6.83433 7.83498 6.73054C7.83498 6.52296 7.83498 6.41917 7.83498 6.21159C7.52566 5.58884 7.31945 4.86231 7.21634 4.03199C7.21634 3.82441 7.11323 3.61682 6.90701 3.51303C6.80391 3.40924 6.59769 3.30545 6.39148 3.30545Z" fill="white"/>
</svg>
