<svg width="14" height="15" viewBox="0 0 14 15" fill="none" xmlns="http://www.w3.org/2000/svg">
<g id="phone">
<path id="Vector" d="M12.3049 10.081V11.7259C12.3055 11.8786 12.2743 12.0298 12.2131 12.1697C12.1519 12.3096 12.0622 12.4352 11.9496 12.5385C11.8371 12.6417 11.7043 12.7203 11.5596 12.7692C11.415 12.8181 11.2617 12.8363 11.1096 12.8226C9.42232 12.6392 7.80158 12.0627 6.3776 11.1392C5.05277 10.2974 3.92954 9.17416 3.08769 7.84933C2.16102 6.41888 1.58433 4.79026 1.40435 3.09541C1.39065 2.94378 1.40867 2.79096 1.45727 2.64668C1.50586 2.5024 1.58397 2.36982 1.68661 2.25737C1.78925 2.14493 1.91418 2.05509 2.05345 1.99358C2.19271 1.93206 2.34326 1.90022 2.49551 1.90008H4.14046C4.40656 1.89746 4.66454 1.99169 4.8663 2.16521C5.06807 2.33872 5.19985 2.57969 5.2371 2.84318C5.30653 3.36961 5.43529 3.88648 5.62092 4.38396C5.69469 4.58021 5.71066 4.7935 5.66693 4.99856C5.62319 5.20361 5.5216 5.39183 5.37418 5.54091L4.67781 6.23727C5.45837 7.61001 6.59498 8.74662 7.96772 9.52718L8.66408 8.83082C8.81317 8.6834 9.00138 8.5818 9.20644 8.53807C9.41149 8.49434 9.62478 8.5103 9.82103 8.58407C10.3185 8.76971 10.8354 8.89847 11.3618 8.9679C11.6282 9.00547 11.8714 9.13963 12.0453 9.34486C12.2192 9.55009 12.3116 9.81207 12.3049 10.081Z" fill="#28ad99"/>
</g>
</svg>
