<svg width="20" height="20" viewBox="0 0 20 20" fill="none" xmlns="http://www.w3.org/2000/svg">
<path d="M15.0658 16.9999C14.9737 16.9999 14.9737 16.9999 14.8816 16.9999C12.7632 16.8145 10.8289 16.0728 9.07895 14.9602C7.42105 13.9403 6.03947 12.5496 5.02632 10.8807C3.92105 9.11914 3.18421 7.07941 3 4.94696C3 4.66881 3 4.39067 3.09211 4.20524C3.18421 3.92709 3.27632 3.74166 3.46053 3.55623C3.64474 3.3708 3.82895 3.18537 4.10526 3.09265C4.28947 3.09265 4.56579 2.99994 4.84211 2.99994H6.77632C7.14474 2.99994 7.60526 3.18537 7.97368 3.46352C8.25 3.74166 8.52632 4.11252 8.52632 4.5761C8.61842 5.13239 8.80263 5.7814 8.98684 6.24497C9.07895 6.52312 9.17105 6.89398 9.07895 7.26484C8.98684 7.6357 8.80263 7.91385 8.52632 8.19199L7.97368 8.74828C8.80263 10.0463 9.81579 11.1589 11.1053 11.9006L11.75 11.3443C12.0263 11.0662 12.3026 10.9734 12.6711 10.8807C13.0395 10.788 13.3158 10.8807 13.6842 10.9734C14.2368 11.1589 14.7895 11.3443 15.4342 11.437C15.8947 11.5297 16.2632 11.7152 16.5395 12.086C16.8158 12.4569 17 12.8278 17 13.2913V15.2383C17 15.5165 16.9079 15.7019 16.8158 15.9801C16.7237 16.2582 16.5395 16.4436 16.3553 16.6291C16.1711 16.8145 15.9868 16.9072 15.7105 16.9999C15.5263 16.9999 15.3421 16.9999 15.0658 16.9999ZM6.77632 4.01981H4.84211C4.75 4.01981 4.65789 4.01981 4.56579 4.11252C4.47368 4.11252 4.38158 4.20524 4.28947 4.29795C4.10526 4.39067 4.10526 4.48338 4.01316 4.5761C4.01316 4.66881 3.92105 4.76153 4.01316 4.85424C4.19737 6.80126 4.84211 8.65557 5.94737 10.3244C6.86842 11.8079 8.1579 13.1059 9.72368 14.1258C11.2895 15.1456 13.1316 15.7946 15.0658 15.9801C15.1579 15.9801 15.25 15.9801 15.3421 15.9801C15.4342 15.9801 15.5263 15.8874 15.6184 15.7946C15.7105 15.7019 15.8026 15.6092 15.8026 15.5165C15.8026 15.4238 15.8947 15.3311 15.8947 15.2383V13.1986C15.8947 13.0132 15.8026 12.8278 15.7105 12.6423C15.6184 12.4569 15.4342 12.3642 15.25 12.3642C14.6053 12.2715 13.9605 12.086 13.3158 11.9006C13.1316 11.8079 13.0395 11.8079 12.8553 11.9006C12.6711 11.9006 12.5789 11.9933 12.4868 12.086L11.6579 12.9205C11.4737 13.1059 11.2895 13.1059 11.0132 13.0132C9.35526 12.086 7.88158 10.6026 6.96053 8.93371C6.86842 8.74828 6.86842 8.47014 7.05263 8.28471L7.88158 7.45027C7.97368 7.35755 8.06579 7.17212 8.06579 7.07941C8.06579 6.89398 8.06579 6.80126 8.06579 6.61583C7.78947 6.05954 7.60526 5.41053 7.51316 4.66881C7.51316 4.48338 7.42105 4.29795 7.23684 4.20524C7.14474 4.11252 6.96053 4.01981 6.77632 4.01981Z" fill="#646464"/>
</svg>
