<svg width="12" height="12" viewBox="0 0 12 12" fill="none" xmlns="http://www.w3.org/2000/svg">
<g clip-path="url(#clip0_3218_77642)">
<path d="M11.2631 8.475C11.2324 8.45063 9 6.8415 8.38725 6.957C8.09475 7.00875 7.9275 7.20825 7.59188 7.60763C7.53788 7.67213 7.40812 7.82662 7.30725 7.9365C7.09515 7.86732 6.88825 7.78311 6.68812 7.6845C5.6552 7.18163 4.82062 6.34705 4.31775 5.31413C4.21907 5.11403 4.13486 4.90713 4.06575 4.695C4.176 4.59375 4.3305 4.464 4.3965 4.4085C4.794 4.07475 4.99388 3.9075 5.04562 3.61425C5.15175 3.00675 3.54375 0.759 3.52688 0.73875C3.45392 0.634527 3.35871 0.547823 3.24813 0.484914C3.13755 0.422004 3.01437 0.384461 2.8875 0.375C2.23575 0.375 0.375 2.78887 0.375 3.19537C0.375 3.219 0.409125 5.6205 3.3705 8.63288C6.37987 11.5909 8.781 11.625 8.80462 11.625C9.2115 11.625 11.625 9.76425 11.625 9.1125C11.6156 8.98608 11.5783 8.86331 11.5157 8.75306C11.4532 8.64281 11.3669 8.54784 11.2631 8.475Z" fill="#646464"/>
</g>
<defs>
<clipPath id="clip0_3218_77642">
<rect width="12" height="12" fill="white"/>
</clipPath>
</defs>
</svg>
