<svg width="16" height="16" viewBox="0 0 16 16" fill="none" xmlns="http://www.w3.org/2000/svg">
<path d="M12.5366 14.2688C12.4542 14.2688 12.4542 14.2688 12.3717 14.2688C10.4745 14.1028 8.74228 13.4385 7.17504 12.4421C5.69029 11.5288 4.453 10.2833 3.54565 8.78871C2.55582 7.21109 1.89593 5.38438 1.73096 3.47464C1.73096 3.22554 1.73096 2.97644 1.81344 2.81038C1.89593 2.56128 1.97842 2.39522 2.14339 2.22915C2.30836 2.06309 2.47333 1.89702 2.72079 1.81399C2.88576 1.81399 3.13322 1.73096 3.38068 1.73096H5.11289C5.44283 1.73096 5.85526 1.89702 6.18521 2.14612C6.43267 2.39522 6.68012 2.72735 6.68012 3.14251C6.76261 3.6407 6.92758 4.22193 7.09256 4.63709C7.17504 4.88619 7.25753 5.21832 7.17504 5.55045C7.09256 5.88258 6.92758 6.13167 6.68012 6.38077L6.18521 6.87896C6.92758 8.04142 7.83493 9.03781 8.98974 9.70207L9.56714 9.20387C9.8146 8.95477 10.0621 8.87174 10.392 8.78871C10.7219 8.70568 10.9694 8.78871 11.2993 8.87174C11.7943 9.03781 12.2892 9.20387 12.8666 9.2869C13.279 9.36994 13.609 9.536 13.8564 9.86813C14.1039 10.2003 14.2688 10.5324 14.2688 10.9476V12.6912C14.2688 12.9403 14.1864 13.1064 14.1039 13.3555C14.0214 13.6046 13.8564 13.7707 13.6914 13.9367C13.5265 14.1028 13.3615 14.1858 13.114 14.2688C12.9491 14.2688 12.7841 14.2688 12.5366 14.2688ZM5.11289 2.64431H3.38068C3.29819 2.64431 3.21571 2.64431 3.13322 2.72735C3.05074 2.72735 2.96825 2.81038 2.88576 2.89341C2.72079 2.97644 2.72079 3.05948 2.6383 3.14251C2.6383 3.22554 2.55582 3.30857 2.6383 3.3916C2.80328 5.13528 3.38068 6.79593 4.37051 8.29052C5.19537 9.61903 6.35018 10.7815 7.75244 11.6948C9.15471 12.6082 10.8044 13.1894 12.5366 13.3555C12.6191 13.3555 12.7016 13.3555 12.7841 13.3555C12.8666 13.3555 12.9491 13.2725 13.0316 13.1894C13.114 13.1064 13.1965 13.0234 13.1965 12.9403C13.1965 12.8573 13.279 12.7743 13.279 12.6912V10.8645C13.279 10.6985 13.1965 10.5324 13.114 10.3663C13.0316 10.2003 12.8666 10.1172 12.7016 10.1172C12.1242 10.0342 11.5468 9.86813 10.9694 9.70207C10.8044 9.61903 10.7219 9.61903 10.557 9.70207C10.392 9.70207 10.3095 9.7851 10.227 9.86813L9.48465 10.6154C9.31968 10.7815 9.15471 10.7815 8.90725 10.6985C7.4225 9.86813 6.10272 8.53961 5.27786 7.04503C5.19537 6.87896 5.19537 6.62987 5.36035 6.4638L6.10272 5.71651C6.18521 5.63348 6.26769 5.46741 6.26769 5.38438C6.26769 5.21832 6.26769 5.13528 6.26769 4.96922C6.02024 4.47103 5.85526 3.8898 5.77278 3.22554C5.77278 3.05948 5.69029 2.89341 5.52532 2.81038C5.44283 2.72735 5.27786 2.64431 5.11289 2.64431Z" fill="#999999"/>
</svg>
