<svg width="20" height="20" viewBox="0 0 20 20" fill="none" xmlns="http://www.w3.org/2000/svg">
<path d="M17.3042 13.5351V15.7932C17.3051 16.0028 17.262 16.2103 17.1779 16.4024C17.0938 16.5944 16.9703 16.7669 16.8156 16.9086C16.6608 17.0503 16.4781 17.1582 16.2791 17.2253C16.0801 17.2925 15.8693 17.3174 15.6601 17.2986C13.3393 17.0469 11.11 16.2554 9.15136 14.9878C7.3291 13.8321 5.78413 12.2902 4.62619 10.4716C3.35158 8.50793 2.55837 6.27225 2.31081 3.94565C2.29196 3.7375 2.31675 3.52772 2.38359 3.32966C2.45043 3.13159 2.55786 2.94959 2.69904 2.79524C2.84023 2.64088 3.01206 2.51756 3.20362 2.43311C3.39517 2.34867 3.60225 2.30496 3.81166 2.30476H6.07425C6.44026 2.30117 6.7951 2.43052 7.07262 2.66872C7.35014 2.90691 7.53141 3.23769 7.58264 3.59941C7.67814 4.32205 7.85524 5.03159 8.11058 5.7145C8.21205 5.98391 8.23401 6.2767 8.17386 6.55819C8.11371 6.83967 7.97396 7.09805 7.77119 7.3027L6.81336 8.25863C7.887 10.1431 9.45037 11.7033 11.3385 12.7748L12.2964 11.8189C12.5014 11.6165 12.7603 11.4771 13.0424 11.417C13.3244 11.357 13.6178 11.3789 13.8877 11.4802C14.572 11.735 15.2829 11.9118 16.007 12.0071C16.3734 12.0587 16.708 12.2428 16.9471 12.5246C17.1863 12.8063 17.3134 13.1659 17.3042 13.5351Z" fill="#28ad99"/>
</svg>
