<svg width="12" height="12" viewBox="0 0 12 12" fill="none" xmlns="http://www.w3.org/2000/svg">
<path d="M8.65521 11.6886C8.38746 11.6886 8.11798 11.6524 7.85198 11.5795C4.25573 10.5925 1.40848 7.74704 0.420893 4.15312C0.196309 3.33587 0.319362 2.4842 0.768528 1.7562C1.21945 1.0247 1.9609 0.508449 2.80265 0.340449C3.36265 0.228449 3.91623 0.47812 4.20031 0.957037L5.11205 2.49703C5.5548 3.24486 5.33481 4.20795 4.61089 4.68978L3.95123 5.12845C4.56781 6.39429 5.60489 7.43437 6.86547 8.05037L7.31009 7.38711C7.79484 6.66436 8.75789 6.44795 9.50514 6.89303L11.0469 7.81236C11.5241 8.09703 11.7708 8.65411 11.6623 9.19778C11.4943 10.0395 10.978 10.7809 10.2471 11.2319C9.75596 11.534 9.20937 11.6886 8.65521 11.6886ZM3.07039 1.18745C3.0418 1.18745 3.01265 1.19037 2.98465 1.19621C2.36982 1.31929 1.83724 1.68969 1.51407 2.21528C1.19382 2.73444 1.10572 3.34053 1.26556 3.92095C2.17147 7.21853 4.78422 9.83012 8.08355 10.7355C8.66455 10.8947 9.26882 10.806 9.78741 10.4864C10.3124 10.1626 10.6835 9.62945 10.8043 9.02512C10.8404 8.8437 10.7582 8.65762 10.5983 8.56253L9.0571 7.64319C8.71002 7.43669 8.26201 7.53761 8.03684 7.87303L7.38643 8.84428C7.26976 9.01812 7.04467 9.08461 6.85451 9.00411C5.12609 8.28136 3.71967 6.87203 2.99633 5.13719C2.91583 4.94353 2.98341 4.7207 3.15783 4.60461L4.12683 3.96002C4.46282 3.73661 4.56488 3.28919 4.35896 2.94211L3.44722 1.40269C3.3673 1.26736 3.22264 1.18745 3.07039 1.18745Z" fill="#85888E"/>
</svg>
