<svg width="16" height="16" viewBox="0 0 16 16" fill="none" xmlns="http://www.w3.org/2000/svg">
<path d="M13.6 10.7854V12.4714C13.6007 12.6279 13.5686 12.7829 13.5057 12.9263C13.4429 13.0697 13.3507 13.1984 13.2352 13.3043C13.1196 13.4101 12.9832 13.4906 12.8346 13.5408C12.686 13.5909 12.5286 13.6096 12.3724 13.5955C10.6396 13.4075 8.97503 12.8166 7.51258 11.8701C6.15195 11.0072 4.99838 9.8559 4.13378 8.49797C3.18207 7.03178 2.58981 5.36247 2.40496 3.62528C2.39089 3.46986 2.4094 3.31322 2.4593 3.16534C2.50921 3.01745 2.58943 2.88155 2.69484 2.7663C2.80026 2.65105 2.92857 2.55897 3.07159 2.49592C3.21462 2.43286 3.36924 2.40023 3.5256 2.40008H5.21499C5.48829 2.39739 5.75323 2.49398 5.96045 2.67183C6.16766 2.84969 6.30301 3.09667 6.34126 3.36675C6.41257 3.90632 6.5448 4.43611 6.73545 4.94602C6.81122 5.14718 6.82762 5.3658 6.7827 5.57597C6.73779 5.78615 6.63345 5.97907 6.48204 6.13187L5.76686 6.84563C6.56852 8.25267 7.73583 9.41768 9.14566 10.2177L9.86084 9.50398C10.014 9.35287 10.2073 9.24874 10.4178 9.20391C10.6284 9.15909 10.8475 9.17545 11.0491 9.25107C11.56 9.44134 12.0908 9.57332 12.6315 9.64448C12.905 9.683 13.1548 9.82051 13.3334 10.0309C13.512 10.2412 13.6069 10.5097 13.6 10.7854Z" stroke="#646464" stroke-width="0.88" stroke-linecap="round" stroke-linejoin="round"/>
</svg>
