<svg width="6" height="10" viewBox="0 0 6 10" fill="none" xmlns="http://www.w3.org/2000/svg">
  <path fill-rule="evenodd" clip-rule="evenodd" d="M1.5 0.5C1.77614 0.5 2 0.723858 2 1V4C2 4.07762 1.98193 4.15418 1.94721 4.22361L1 6.11803V6.5H5V6.11803L4.05279 4.22361C4.01807 4.15418 4 4.07762 4 4V1C4 0.723858 4.22386 0.5 4.5 0.5C4.77614 0.5 5 0.723858 5 1V3.88197L5.94721 5.77639C5.98193 5.84582 6 5.92238 6 6V7C6 7.27614 5.77614 7.5 5.5 7.5H0.5C0.223858 7.5 0 7.27614 0 7V6C0 5.92238 0.0180725 5.84582 0.0527864 5.77639L1 3.88197V1C1 0.723858 1.22386 0.5 1.5 0.5Z" fill="#646464"/>
  <path fill-rule="evenodd" clip-rule="evenodd" d="M3 6.5C3.27614 6.5 3.5 6.72386 3.5 7V9.5C3.5 9.77614 3.27614 10 3 10C2.72386 10 2.5 9.77614 2.5 9.5V7C2.5 6.72386 2.72386 6.5 3 6.5Z" fill="#646464"/>
  <path fill-rule="evenodd" clip-rule="evenodd" d="M0.5 1C0.5 0.723858 0.723858 0.5 1 0.5H5C5.27614 0.5 5.5 0.723858 5.5 1C5.5 1.27614 5.27614 1.5 5 1.5H1C0.723858 1.5 0.5 1.27614 0.5 1Z" fill="#646464"/>
</svg>
