<svg width="17" height="17" viewBox="0 0 17 17" fill="none" xmlns="http://www.w3.org/2000/svg">
<path fill-rule="evenodd" clip-rule="evenodd" d="M16.8102 0.891846C16.8184 0.868154 16.8262 0.838573 16.8313 0.813927C16.8398 0.773829 16.8431 0.737997 16.8431 0.696354C16.8431 0.649516 16.8376 0.603271 16.8269 0.558484C16.8124 0.496557 16.7879 0.436494 16.7534 0.380844C16.7288 0.340898 16.6998 0.304515 16.6674 0.272113C16.6349 0.239585 16.5985 0.210548 16.5584 0.185849C16.5287 0.167509 16.497 0.15156 16.4635 0.13835C16.4319 0.125852 16.3939 0.114948 16.3605 0.107922C16.3204 0.0994923 16.2846 0.0961856 16.2429 0.0961914C16.1961 0.0961847 16.1498 0.101706 16.105 0.112324C16.0834 0.117416 16.0619 0.123727 16.0408 0.131255L0.810167 5.20815C0.570519 5.28803 0.406572 5.50946 0.400101 5.76199C0.393629 6.01452 0.546019 6.24405 0.781262 6.3361L7.84073 9.09853L10.6031 16.158C10.6952 16.3932 10.9247 16.5456 11.1772 16.5392C11.4298 16.5327 11.6512 16.3687 11.7311 16.1291L16.8102 0.891846ZM14.0214 2.0693L2.76182 5.82251L8.15703 7.9337L14.0214 2.0693ZM9.00556 8.78223L11.1167 14.1774L14.87 2.91784L9.00556 8.78223Z" fill="#646464"/>
</svg>
