<svg width="14" height="14" viewBox="0 0 14 14" fill="none" xmlns="http://www.w3.org/2000/svg">
<path d="M4.08999 12.6858C3.72249 12.6858 3.35381 12.5907 3.01489 12.4012C2.31373 12.0087 1.89551 11.2955 1.89551 10.4937V3.50291C1.89551 2.70107 2.31373 1.98846 3.01489 1.59541C3.71839 1.20119 4.5479 1.21752 5.23565 1.63798L11.1133 5.23373C11.7334 5.61279 12.1038 6.27285 12.1038 6.9983C12.1038 7.72375 11.7334 8.38323 11.1133 8.76286L5.23565 12.3586C4.87923 12.5761 4.4849 12.6858 4.08999 12.6858ZM4.08999 2.18725C3.86832 2.18725 3.64665 2.24437 3.44306 2.35867C3.0219 2.59426 2.77108 3.02239 2.77108 3.50291V10.4937C2.77108 10.9742 3.02248 11.4023 3.44306 11.6379C3.8654 11.8747 4.36475 11.866 4.77892 11.6129L10.6566 8.01711C11.0148 7.79785 11.2288 7.417 11.2288 6.9983C11.2288 6.57959 11.0148 6.19875 10.6566 5.97948L4.77892 2.38372C4.56425 2.2531 4.3274 2.18725 4.08999 2.18725Z" fill="#61646C"/>
</svg>
