<svg width="20" height="20" viewBox="0 0 20 20" fill="none" xmlns="http://www.w3.org/2000/svg">
<path d="M10.7971 3.79747C10.7971 3.35704 10.4401 3 9.99965 3C9.55922 3 9.20219 3.35704 9.20219 3.79747V9.20271H3.79747C3.35704 9.20271 3 9.55974 3 10.0002C3 10.4406 3.35704 10.7976 3.79747 10.7976H9.20219V16.2025C9.20219 16.643 9.55922 17 9.99965 17C10.4401 17 10.7971 16.643 10.7971 16.2025V10.7976H16.2025C16.643 10.7976 17 10.4406 17 10.0002C17 9.55974 16.643 9.20271 16.2025 9.20271H10.7971V3.79747Z" fill="#28ad99"/>
</svg>
