<svg width="16" height="16" viewBox="0 0 16 16" fill="none" xmlns="http://www.w3.org/2000/svg">
<path fill-rule="evenodd" clip-rule="evenodd" d="M8 14.8C11.7555 14.8 14.8 11.7555 14.8 8C14.8 4.24446 11.7555 1.2 8 1.2C4.24446 1.2 1.2 4.24446 1.2 8C1.2 11.7555 4.24446 14.8 8 14.8ZM8 16C12.4183 16 16 12.4183 16 8C16 3.58172 12.4183 0 8 0C3.58172 0 0 3.58172 0 8C0 12.4183 3.58172 16 8 16Z" fill="#3D3D3D"/>
<path d="M11.4135 7.86255C11.4135 8.21596 11.127 8.50245 10.7736 8.50245H5.09015C4.73674 8.50245 4.45024 8.21596 4.45024 7.86255C4.45024 7.50914 4.73674 7.22264 5.09015 7.22264L10.7736 7.22264C11.127 7.22264 11.4135 7.50914 11.4135 7.86255ZM8.55115 10.6286C8.55115 10.9668 8.27697 11.241 7.93876 11.241C7.60055 11.241 7.32638 10.9668 7.32638 10.6286L7.32638 5.08274C7.32638 4.74453 7.60055 4.47036 7.93876 4.47036C8.27697 4.47036 8.55115 4.74453 8.55115 5.08274V10.6286Z" fill="#3D3D3D"/>
</svg>
