<svg width="24" height="24" viewBox="0 0 24 24" color="currentColor" fill="none" xmlns="http://www.w3.org/2000/svg">
<path d="M12.75 6.16602C12.75 5.7518 12.4142 5.41602 12 5.41602C11.5858 5.41602 11.25 5.7518 11.25 6.16602V11.2495H6.16699C5.75278 11.2495 5.41699 11.5853 5.41699 11.9995C5.41699 12.4137 5.75278 12.7495 6.16699 12.7495H11.25V17.8327C11.25 18.2469 11.5858 18.5827 12 18.5827C12.4142 18.5827 12.75 18.2469 12.75 17.8327V12.7495H17.8337C18.2479 12.7495 18.5837 12.4137 18.5837 11.9995C18.5837 11.5853 18.2479 11.2495 17.8337 11.2495H12.75V6.16602Z" fill="currentColor"/>
</svg>
