<svg width="10" height="10" viewBox="0 0 10 10" fill="none" xmlns="http://www.w3.org/2000/svg">
<path d="M9.25126 0.765913C9.69418 1.20882 9.69418 1.92693 9.25126 2.36984L2.12846 9.49264C1.68555 9.93556 0.967444 9.93556 0.524532 9.49264C0.0816203 9.04973 0.08162 8.33163 0.524532 7.88872L7.64734 0.765912C8.09025 0.323001 8.80835 0.323001 9.25126 0.765913ZM9.13054 7.81973C9.5544 8.24359 9.5544 8.93081 9.13054 9.35467C8.70668 9.77853 8.01946 9.77853 7.5956 9.35467L0.645257 2.40433C0.221396 1.98047 0.221396 1.29325 0.645258 0.869391C1.06912 0.445529 1.75633 0.445529 2.1802 0.869391L9.13054 7.81973Z" fill="#2e90fa"/>
</svg>
