<svg width="20" height="20" viewBox="0 0 20 20" fill="none" xmlns="http://www.w3.org/2000/svg">
<path d="M10.75 4.16602C10.75 3.7518 10.4142 3.41602 10 3.41602C9.58579 3.41602 9.25 3.7518 9.25 4.16602V9.24951H4.16699C3.75278 9.24951 3.41699 9.5853 3.41699 9.99951C3.41699 10.4137 3.75278 10.7495 4.16699 10.7495H9.25V15.8327C9.25 16.2469 9.58579 16.5827 10 16.5827C10.4142 16.5827 10.75 16.2469 10.75 15.8327V10.7495H15.8337C16.2479 10.7495 16.5837 10.4137 16.5837 9.99951C16.5837 9.5853 16.2479 9.24951 15.8337 9.24951H10.75V4.16602Z" fill="white"/>
</svg>
