<svg width="18" height="18" viewBox="0 0 18 18" fill="none" xmlns="http://www.w3.org/2000/svg">
<path d="M9.95616 1.93743C9.95616 1.40892 9.52771 0.980469 8.99919 0.980469C8.47068 0.980469 8.04223 1.40892 8.04223 1.93743V8.42371H1.55657C1.02806 8.42371 0.599609 8.85216 0.599609 9.38068C0.599609 9.90919 1.02806 10.3376 1.55657 10.3376H8.04223V16.8235C8.04223 17.352 8.47068 17.7805 8.99919 17.7805C9.52771 17.7805 9.95616 17.352 9.95616 16.8235V10.3376H16.4426C16.9712 10.3376 17.3996 9.90919 17.3996 9.38068C17.3996 8.85216 16.9712 8.42371 16.4426 8.42371H9.95616V1.93743Z" fill="#646464"/>
</svg>
