<svg width="8" height="8" viewBox="0 0 8 8" fill="none" xmlns="http://www.w3.org/2000/svg">
<path d="M7.41309 3.86241C7.41309 4.21582 7.12659 4.50231 6.77318 4.50231L1.08971 4.50231C0.736303 4.50231 0.449807 4.21582 0.449807 3.8624C0.449807 3.50899 0.736302 3.2225 1.08971 3.2225L6.77318 3.2225C7.12659 3.2225 7.41309 3.50899 7.41309 3.86241ZM4.55071 6.62845C4.55071 6.96666 4.27654 7.24083 3.93833 7.24083C3.60012 7.24083 3.32594 6.96666 3.32594 6.62845L3.32594 1.0826C3.32594 0.744388 3.60012 0.470215 3.93833 0.470215C4.27654 0.470215 4.55071 0.744388 4.55071 1.0826L4.55071 6.62845Z" fill="#202020"/>
</svg>
