<svg width="20" height="20" viewBox="0 0 20 20" fill="none" xmlns="http://www.w3.org/2000/svg">
<g id="plus">
<path id="vector" d="M16.4582 9.99984C16.4582 10.3448 16.1782 10.6248 15.8332 10.6248H10.6248V15.8332C10.6248 16.1782 10.3448 16.4582 9.99984 16.4582C9.65484 16.4582 9.37484 16.1782 9.37484 15.8332V10.6248H4.1665C3.8215 10.6248 3.5415 10.3448 3.5415 9.99984C3.5415 9.65484 3.8215 9.37484 4.1665 9.37484H9.37484V4.1665C9.37484 3.8215 9.65484 3.5415 9.99984 3.5415C10.3448 3.5415 10.6248 3.8215 10.6248 4.1665V9.37484H15.8332C16.1782 9.37484 16.4582 9.65484 16.4582 9.99984Z" fill="currentColor"/>
</g>
</svg>
