<svg width="20" height="21" viewBox="0 0 20 21" fill="none" xmlns="http://www.w3.org/2000/svg">
<rect x="0.3125" y="0.693359" width="19.375" height="19.375" rx="9.6875" fill="white"/>
<path d="M10.4791 6.65915C10.4791 6.39489 10.2648 6.18066 10.0006 6.18066C9.73632 6.18066 9.52209 6.39489 9.52209 6.65915V9.90229H6.27926C6.015 9.90229 5.80078 10.1165 5.80078 10.3808C5.80078 10.645 6.015 10.8592 6.27926 10.8592H9.52209V14.1022C9.52209 14.3664 9.73632 14.5807 10.0006 14.5807C10.2648 14.5807 10.4791 14.3664 10.4791 14.1022V10.8592H13.7223C13.9866 10.8592 14.2008 10.645 14.2008 10.3808C14.2008 10.1165 13.9866 9.90229 13.7223 9.90229H10.4791V6.65915Z" fill="#646464"/>
<rect x="0.3125" y="0.693359" width="19.375" height="19.375" rx="9.6875" stroke="#D8DCDF" stroke-width="0.625"/>
</svg>
