<svg width="21" height="20" viewBox="0 0 21 20" fill="none" xmlns="http://www.w3.org/2000/svg">
<path d="M11.2971 3.79747C11.2971 3.35704 10.9401 3 10.4997 3C10.0592 3 9.70219 3.35704 9.70219 3.79747V9.20271H4.29747C3.85704 9.20271 3.5 9.55974 3.5 10.0002C3.5 10.4406 3.85704 10.7976 4.29747 10.7976H9.70219V16.2025C9.70219 16.643 10.0592 17 10.4997 17C10.9401 17 11.2971 16.643 11.2971 16.2025V10.7976H16.7025C17.143 10.7976 17.5 10.4406 17.5 10.0002C17.5 9.55974 17.143 9.20271 16.7025 9.20271H11.2971V3.79747Z" fill="#B9BEC0"/>
</svg>
