<svg width="12" height="12" viewBox="0 0 12 12" fill="none" xmlns="http://www.w3.org/2000/svg">
<path d="M6.63769 1.03798C6.63769 0.685633 6.35206 0.400002 5.99972 0.400002C5.64737 0.400002 5.36174 0.685633 5.36174 1.03798V5.36217H1.03797C0.685625 5.36217 0.399994 5.6478 0.399994 6.00014C0.399994 6.35248 0.685625 6.63812 1.03797 6.63812H5.36174V10.962C5.36174 11.3144 5.64737 11.6 5.99972 11.6C6.35206 11.6 6.63769 11.3144 6.63769 10.962V6.63812H10.962C11.3144 6.63812 11.6 6.35248 11.6 6.00014C11.6 5.6478 11.3144 5.36217 10.962 5.36217H6.63769V1.03798Z" fill="#646464"/>
</svg>
