<svg width="20" height="20" viewBox="0 0 20 20" fill="none" xmlns="http://www.w3.org/2000/svg">
<path d="M16.4577 10.0001C16.4577 10.3451 16.1777 10.6251 15.8327 10.6251H10.6243V15.8334C10.6243 16.1784 10.3443 16.4584 9.99935 16.4584C9.65435 16.4584 9.37435 16.1784 9.37435 15.8334V10.6251H4.16602C3.82102 10.6251 3.54102 10.3451 3.54102 10.0001C3.54102 9.65508 3.82102 9.37508 4.16602 9.37508H9.37435V4.16675C9.37435 3.82175 9.65435 3.54175 9.99935 3.54175C10.3443 3.54175 10.6243 3.82175 10.6243 4.16675V9.37508H15.8327C16.1777 9.37508 16.4577 9.65508 16.4577 10.0001Z" fill="#28AD99"/>
</svg>
