<svg width="11" height="10" viewBox="0 0 11 10" fill="none" color="#28ad99" xmlns="http://www.w3.org/2000/svg">
<path fill-rule="evenodd" clip-rule="evenodd" d="M4.76606 0.249014C4.95342 0.0883301 5.1921 0 5.43892 0C5.68575 0 5.92443 0.0883301 6.11179 0.249014L9.38619 3.0552L10.6715 4.08362C10.7245 4.12604 10.7686 4.17848 10.8013 4.23795C10.8341 4.29742 10.8548 4.36276 10.8623 4.43023C10.8697 4.4977 10.8639 4.56599 10.845 4.63119C10.8261 4.69639 10.7945 4.75723 10.7521 4.81023C10.7097 4.86324 10.6572 4.90737 10.5977 4.9401C10.5383 4.97284 10.4729 4.99354 10.4055 5.00103C10.338 5.00851 10.2697 5.00264 10.2045 4.98373C10.1393 4.96483 10.0785 4.93327 10.0255 4.89085L9.57327 4.5291V8.62158C9.57327 8.89571 9.46438 9.15861 9.27054 9.35244C9.07671 9.54628 8.81381 9.65517 8.53969 9.65517H6.47251V7.0712C6.47251 6.79708 6.36362 6.53418 6.16978 6.34035C5.97595 6.14651 5.71305 6.03762 5.43892 6.03762C5.1648 6.03762 4.9019 6.14651 4.70807 6.34035C4.51423 6.53418 4.40534 6.79708 4.40534 7.0712V9.65517H2.33816C2.06404 9.65517 1.80114 9.54628 1.60731 9.35244C1.41347 9.15861 1.30458 8.89571 1.30458 8.62158V4.52858L0.852382 4.89034C0.799739 4.93529 0.738601 4.96921 0.672597 4.99008C0.606593 5.01095 0.537069 5.01834 0.468152 5.01183C0.399235 5.00531 0.332329 4.98502 0.271406 4.95215C0.210483 4.91928 0.156784 4.8745 0.113498 4.82048C0.0702115 4.76646 0.0382194 4.70429 0.0194206 4.63767C0.000621847 4.57105 -0.00460035 4.50132 0.00406393 4.43264C0.0127282 4.36396 0.0351023 4.29773 0.0698583 4.23786C0.104614 4.17799 0.151044 4.12572 0.20639 4.08414L1.49166 3.05572L4.76606 0.249014Z" fill="currentColor"/>
</svg>
