<svg width="18" height="18" viewBox="0 0 18 18" fill="none" xmlns="http://www.w3.org/2000/svg">
<path fill-rule="evenodd" clip-rule="evenodd" d="M8.63154 0.193039C8.8482 0.0245208 9.1516 0.0245208 9.36827 0.193039L16.8683 6.02637C17.0144 6.14005 17.0999 6.31483 17.0999 6.49998V15.6667C17.0999 16.2678 16.8611 16.8443 16.436 17.2694C16.0109 17.6945 15.4344 17.9333 14.8332 17.9333H3.16657C2.56541 17.9333 1.98888 17.6945 1.56379 17.2694C1.13871 16.8443 0.899902 16.2678 0.899902 15.6667V6.49998C0.899902 6.31483 0.985386 6.14005 1.13154 6.02637L8.63154 0.193039ZM2.0999 6.79343V15.6667C2.0999 15.9495 2.21228 16.2209 2.41232 16.4209C2.61236 16.6209 2.88367 16.7333 3.16657 16.7333H14.8332C15.1161 16.7333 15.3874 16.6209 15.5875 16.4209C15.7875 16.2209 15.8999 15.9495 15.8999 15.6667V6.79343L8.9999 1.42677L2.0999 6.79343Z" fill="#202020"/>
<path fill-rule="evenodd" clip-rule="evenodd" d="M5.8999 8.99998C5.8999 8.66861 6.16853 8.39998 6.4999 8.39998H11.4999C11.8313 8.39998 12.0999 8.66861 12.0999 8.99998V17.3333C12.0999 17.6647 11.8313 17.9333 11.4999 17.9333C11.1685 17.9333 10.8999 17.6647 10.8999 17.3333V9.59998H7.0999V17.3333C7.0999 17.6647 6.83127 17.9333 6.4999 17.9333C6.16853 17.9333 5.8999 17.6647 5.8999 17.3333V8.99998Z" fill="#202020"/>
</svg>
