<svg width="24" height="24" viewBox="0 0 24 24" fill="none" xmlns="http://www.w3.org/2000/svg">
<rect x="0.5" y="0.5" width="23" height="23" rx="11.5" fill="white"/>
<rect x="0.5" y="0.5" width="23" height="23" rx="11.5" stroke="#D8DCDF"/>
<path fill-rule="evenodd" clip-rule="evenodd" d="M12.3395 6.99392C12.5269 7.18137 12.5269 7.48529 12.3395 7.67274L8.49222 11.52H16.6667C16.9318 11.52 17.1467 11.7349 17.1467 12C17.1467 12.2651 16.9318 12.48 16.6667 12.48H8.49222L12.3395 16.3273C12.5269 16.5147 12.5269 16.8186 12.3395 17.0061C12.152 17.1935 11.8481 17.1935 11.6606 17.0061L6.99398 12.3394C6.80653 12.152 6.80653 11.848 6.99398 11.6606L11.6606 6.99392C11.8481 6.80647 12.152 6.80647 12.3395 6.99392Z" fill="#646464"/>
</svg>
