<svg width="20" height="20" viewBox="0 0 20 20" fill="none" xmlns="http://www.w3.org/2000/svg">
<path d="M14.1667 1.875H5.83334C3.81834 1.875 2.70834 2.985 2.70834 5V15.5175C2.70834 16.0733 3.01752 16.5733 3.51502 16.8217C4.01086 17.07 4.59672 17.0175 5.04172 16.6842L6.17331 15.835C6.42081 15.65 6.77254 15.6742 6.99088 15.8925L8.67422 17.575C9.03922 17.9408 9.52001 18.1233 10 18.1233C10.48 18.1233 10.96 17.9408 11.3258 17.575L13.0091 15.8925C13.2283 15.6742 13.5808 15.6492 13.8258 15.8342L14.9583 16.6842C15.4033 17.0175 15.9883 17.07 16.485 16.8217C16.9825 16.5733 17.2917 16.0733 17.2917 15.5175V5C17.2917 2.985 16.1817 1.875 14.1667 1.875ZM16.0417 15.5175C16.0417 15.63 15.9692 15.6825 15.9267 15.7042C15.8826 15.7258 15.7992 15.7525 15.7083 15.6842L14.575 14.8342C13.8358 14.2792 12.7801 14.3533 12.1251 15.0083L10.4417 16.6908C10.2059 16.9267 9.79417 16.9267 9.55751 16.6908L7.87416 15.0075C7.51249 14.6467 7.02999 14.4617 6.54583 14.4617C6.15083 14.4617 5.75581 14.5842 5.42248 14.8333L4.28997 15.6833C4.2008 15.7517 4.11583 15.7242 4.07167 15.7033C4.02917 15.6817 3.95672 15.6292 3.95672 15.5167V5C3.95672 3.68583 4.51755 3.125 5.83172 3.125H14.165C15.4792 3.125 16.04 3.68583 16.04 5V15.5175H16.0417ZM12.525 7.525L8.35837 11.6917C8.2367 11.8133 8.07668 11.875 7.91668 11.875C7.75668 11.875 7.59665 11.8142 7.47499 11.6917C7.23082 11.4475 7.23082 11.0517 7.47499 10.8075L11.6417 6.64083C11.8858 6.39666 12.2817 6.39666 12.5258 6.64083C12.7692 6.88499 12.7692 7.28167 12.525 7.525ZM7.09586 7.08333C7.09586 6.62333 7.46502 6.25 7.92502 6.25H7.93336C8.39419 6.25 8.76669 6.62333 8.76669 7.08333C8.76669 7.54333 8.39419 7.91667 7.93336 7.91667C7.47336 7.91667 7.09586 7.54333 7.09586 7.08333ZM12.9334 11.25C12.9334 11.71 12.5609 12.0833 12.1 12.0833C11.64 12.0833 11.2625 11.71 11.2625 11.25C11.2625 10.79 11.6317 10.4167 12.0917 10.4167H12.1C12.56 10.4167 12.9334 10.79 12.9334 11.25Z" fill="#61646C"/>
</svg>
