<svg xmlns="http://www.w3.org/2000/svg" width="45" height="45" viewBox="0 0 45 45" fill="none">
  <path d="M22.2461 4.31822C27.969 4.31822 33.3578 7.01267 36.7916 11.591H33.6764C33.1743 11.591 32.7674 11.998 32.7674 12.5C32.7674 13.002 33.1744 13.4091 33.6764 13.4091H38.6098C39.1119 13.4091 39.5188 13.002 39.5188 12.5V7.77055C39.5188 7.26852 39.1118 6.86148 38.6098 6.86148C38.1077 6.86148 37.7007 7.26852 37.7007 7.77055V9.83634C30.6895 1.30103 18.0866 0.0654078 9.55133 7.07658C7.27137 8.94939 5.43403 11.3035 4.17104 13.97C2.90804 16.6365 2.25069 19.5495 2.24609 22.5C2.24609 23.0021 2.65312 23.4091 3.15516 23.4091C3.65719 23.4091 4.06422 23.002 4.06422 22.5C4.0643 12.4585 12.2045 4.31822 22.2461 4.31822ZM41.337 21.591C40.8349 21.591 40.428 21.998 40.428 22.5C40.428 32.5416 32.2877 40.6818 22.2462 40.6818C16.5233 40.6818 11.1345 37.9874 7.7007 33.4091H11.1899C11.692 33.4091 12.099 33.002 12.099 32.5C12.099 31.998 11.6919 31.591 11.1899 31.591H5.88242C5.38031 31.591 4.97336 31.998 4.97336 32.5V37.9725C4.97336 38.4746 5.38039 38.8815 5.88242 38.8815C6.38445 38.8815 6.79148 38.4745 6.79148 37.9725V35.1637C13.8026 43.699 26.4055 44.9346 34.9408 37.9235C37.2208 36.0507 39.0581 33.6966 40.3211 31.0301C41.5841 28.3635 42.2415 25.4506 42.2461 22.5C42.2461 21.9979 41.8391 21.591 41.337 21.591Z" fill="#646464"/>
  <path d="M15.3966 28.1609H31.0178C32.914 28.1609 34.4512 26.6238 34.4512 24.7275C34.4512 22.8314 32.914 21.2942 31.0178 21.2942C30.5307 21.2939 30.0492 21.3976 29.6054 21.5984C29.7305 20.4915 29.1425 19.3822 28.0738 18.8955C27.0798 18.4429 25.9524 18.657 25.1938 19.3496C24.9104 16.6398 22.619 14.5274 19.8342 14.5274C16.8578 14.5274 14.445 16.9403 14.445 19.9167C14.4446 20.4106 14.5121 20.9021 14.6455 21.3776C13.1108 21.7203 11.9632 23.0895 11.9632 24.7275C11.9632 26.6238 13.5004 28.1609 15.3966 28.1609Z" stroke="#646464" stroke-width="1.7" stroke-miterlimit="10" stroke-linecap="round" stroke-linejoin="round"/>
</svg>
