<svg width="36" height="36" viewBox="0 0 36 36" fill="none" xmlns="http://www.w3.org/2000/svg">
<rect width="36" height="36" rx="6" fill="#F2F5F7"/>
<path fill-rule="evenodd" clip-rule="evenodd" d="M13.1524 11.5169C14.438 10.2255 16.1817 9.5 17.9999 9.5C19.818 9.5 21.5617 10.2255 22.8473 11.5169C24.133 12.8083 24.8552 14.5598 24.8552 16.3861C24.8552 19.0541 23.1294 21.6305 21.2554 23.6174C20.334 24.5944 19.41 25.3939 18.7156 25.9494C18.4325 26.1758 18.1886 26.3608 17.9999 26.5C17.8111 26.3608 17.5672 26.1758 17.2842 25.9494C16.5897 25.3939 15.6657 24.5944 14.7443 23.6174C12.8704 21.6305 11.1445 19.0541 11.1445 16.3861C11.1445 14.5598 11.8668 12.8083 13.1524 11.5169ZM17.9999 14.3534C16.6102 14.3534 15.4836 15.4328 15.4836 16.7643C15.4836 18.0958 16.6102 19.1752 17.9999 19.1752C19.3896 19.1752 20.5162 18.0958 20.5162 16.7643C20.5162 15.4328 19.3896 14.3534 17.9999 14.3534Z" fill="#D8DCDF"/>
</svg>
