<svg width="16" height="16" viewBox="0 0 16 16" fill="none" xmlns="http://www.w3.org/2000/svg">
<rect width="16" height="16" fill="white"/>
<path fill-rule="evenodd" clip-rule="evenodd" d="M5.22527 5.61346C5.68236 4.94389 6.70509 4 8.27273 4C9.43455 4 10.2636 4.57528 10.7856 5.24112C11.1238 5.67385 11.3629 6.1725 11.4865 6.7033C11.9147 6.77095 12.4111 6.93235 12.8529 7.24343C13.5047 7.70099 14 8.46005 14 9.59304C14 10.7255 13.5047 11.4846 12.8529 11.9432C12.2289 12.3816 11.4964 12.5227 11 12.5227H8.54545V9.01456L9.25073 9.7033C9.3536 9.80033 9.49138 9.85402 9.6344 9.85281C9.77742 9.8516 9.91422 9.79558 10.0154 9.69681C10.1165 9.59805 10.1739 9.46445 10.1751 9.32479C10.1763 9.18512 10.1214 9.05057 10.022 8.95011L8.38564 7.3521C8.28335 7.25224 8.14464 7.19614 8 7.19614C7.85537 7.19614 7.71665 7.25224 7.61436 7.3521L5.978 8.95011C5.9259 8.99924 5.88435 9.05802 5.85576 9.12301C5.82718 9.188 5.81213 9.25789 5.8115 9.32862C5.81087 9.39935 5.82467 9.46949 5.8521 9.53495C5.87952 9.60042 5.92002 9.65989 5.97124 9.70991C6.02245 9.75992 6.08335 9.79947 6.15039 9.82625C6.21742 9.85304 6.28925 9.86652 6.36167 9.8659C6.4341 9.86529 6.50567 9.85059 6.57222 9.82268C6.63877 9.79476 6.69896 9.75418 6.74927 9.7033L7.45455 9.01456V12.5227H5.54545C4.958 12.5227 4.08909 12.3549 3.35164 11.8366C2.58636 11.2981 2 10.4059 2 9.06037C2 7.71484 2.58636 6.82262 3.35164 6.28409C3.96473 5.85316 4.66782 5.66513 5.22527 5.61346Z" fill="#28ad99"/>
</svg>
