<svg width="20" height="20" viewBox="0 0 20 20" fill="none" xmlns="http://www.w3.org/2000/svg">
<path d="M4.48926 10.9607C4.65696 10.9085 4.83853 10.9246 4.99438 11.0056C5.15023 11.0867 5.26773 11.2261 5.32125 11.3934C5.6357 12.3548 6.24872 13.1908 7.07112 13.7798C7.89353 14.3688 8.88241 14.68 9.89389 14.6681C11.145 14.6823 12.3506 14.1998 13.2465 13.3264C14.1424 12.453 14.6553 11.26 14.6729 10.0089C14.6553 8.75788 14.1424 7.56485 13.2465 6.69144C12.3506 5.81803 11.145 5.33553 9.89389 5.34975C8.76399 5.34703 7.66886 5.74033 6.79887 6.4613L8.24322 6.22168C8.32978 6.20744 8.4183 6.21045 8.5037 6.23054C8.58909 6.25063 8.66967 6.2874 8.74081 6.33874C8.81194 6.39008 8.87223 6.45498 8.91819 6.5297C8.96416 6.60442 8.9949 6.68749 9.00865 6.77413C9.02289 6.86069 9.01988 6.94922 8.99979 7.03461C8.97971 7.12001 8.94293 7.20059 8.89159 7.27172C8.84025 7.34286 8.77536 7.40314 8.70064 7.44911C8.62592 7.49507 8.54285 7.52581 8.45621 7.53956L5.63408 8.00548H5.52093C5.44375 8.00539 5.36717 7.99188 5.29463 7.96555C5.27025 7.95629 5.24771 7.94277 5.22807 7.92561C5.18034 7.90786 5.13549 7.88319 5.09495 7.85239L5.03504 7.77918C5.03504 7.7459 4.97514 7.71927 4.94852 7.67934C4.92189 7.6394 4.94852 7.61278 4.91524 7.58616C4.89685 7.54739 4.88127 7.50735 4.86865 7.46635L4.36945 4.80397C4.35284 4.71656 4.35361 4.62674 4.37172 4.53963C4.38983 4.45252 4.42491 4.36983 4.47497 4.29628C4.52504 4.22273 4.5891 4.15976 4.66349 4.11097C4.73789 4.06218 4.82117 4.02851 4.90858 4.01191C4.99599 3.9953 5.08581 3.99607 5.17292 4.01418C5.26003 4.03228 5.34272 4.06737 5.41627 4.11743C5.56481 4.21854 5.6671 4.37451 5.70064 4.55104L5.88035 5.51615C6.99457 4.55053 8.41948 4.01885 9.89389 4.01856C11.498 4.00436 13.0423 4.62711 14.1878 5.75016C15.3333 6.87321 15.9865 8.40483 16.0041 10.0089C15.9865 11.613 15.3333 13.1446 14.1878 14.2677C13.0423 15.3907 11.498 16.0135 9.89389 15.9993C8.59389 16.0193 7.32182 15.6213 6.26498 14.864C5.20813 14.1067 4.42236 13.0301 4.02334 11.7927C3.99809 11.7075 3.99017 11.6181 4.00003 11.5298C4.0099 11.4414 4.03735 11.356 4.08078 11.2784C4.1242 11.2009 4.18272 11.1328 4.25288 11.0783C4.32303 11.0237 4.40341 10.9837 4.48926 10.9607Z" fill="#A6A6A6"/>
</svg>
