<svg width="20" height="20" viewBox="0 0 20 20" fill="none" xmlns="http://www.w3.org/2000/svg">
<path d="M17.5183 14.8316C17.4791 14.71 17.4483 14.5292 17.5242 14.3642C17.9175 13.5208 18.125 12.5883 18.125 11.6667C18.125 9.1175 16.5792 6.79416 14.2608 5.77499C13.2683 3.48333 10.9858 1.875 8.33411 1.875C4.77411 1.875 1.87659 4.77169 1.87659 8.33252C1.87659 9.26002 2.08242 10.1933 2.47575 11.0375C2.53492 11.1633 2.53737 11.3275 2.48653 11.49L1.94169 13.1117C1.78836 13.5717 1.90738 14.0708 2.25155 14.415C2.49655 14.66 2.81995 14.79 3.15161 14.79C3.28661 14.79 3.42335 14.7683 3.55668 14.7242L5.1674 14.1825C5.33907 14.1275 5.50326 14.1308 5.63493 14.1925C5.6766 14.2117 5.72164 14.225 5.76331 14.2442C6.78164 16.5708 9.11161 18.1242 11.6674 18.1242C12.5891 18.1242 13.5224 17.9167 14.3607 17.5258C14.5299 17.4483 14.7116 17.4792 14.8274 17.5167L16.4475 18.0592C16.9083 18.21 17.4067 18.0908 17.75 17.7475C18.0925 17.4042 18.2115 16.9058 18.059 16.4417L17.5183 14.8316ZM5.40584 12.895C5.20001 12.895 4.98822 12.9283 4.77739 12.9958L3.12659 13.5084L3.67407 11.8784C3.82574 11.4025 3.79988 10.9125 3.60571 10.505C3.29238 9.83001 3.12659 9.07832 3.12659 8.33165C3.12659 5.45999 5.46327 3.12419 8.33411 3.12419C11.2049 3.12419 13.5416 5.45999 13.5416 8.33165C13.5416 11.2033 11.2049 13.5392 8.33411 13.5392C7.58744 13.5392 6.83573 13.3733 6.16573 13.0625C5.9324 12.9517 5.67501 12.895 5.40584 12.895ZM16.3326 15.2233L16.84 16.8733L15.2183 16.33C14.7466 16.1767 14.2566 16.1983 13.8366 16.3908C13.1583 16.7067 12.4075 16.8742 11.6666 16.8742C9.95663 16.8742 8.4199 16.055 7.45907 14.7217C7.74907 14.7617 8.04161 14.7892 8.33411 14.7892C11.8941 14.7892 14.7916 11.8925 14.7916 8.33165C14.7916 8.03999 14.7659 7.75501 14.7275 7.47335C16.0434 8.43835 16.875 9.99085 16.875 11.6659C16.875 12.4067 16.7083 13.1567 16.3899 13.8392C16.1983 14.2575 16.1776 14.7475 16.3326 15.2233Z" fill="#51525C"/>
</svg>
