<svg width="16" height="16" viewBox="0 0 16 16" fill="none" xmlns="http://www.w3.org/2000/svg">
<path d="M4.42131 13.307C5.44275 13.997 6.67413 14.4 7.99961 14.4C7.9996 14.4 7.99962 14.4 7.99961 14.4C11.5343 14.4 14.3996 11.5347 14.3996 8C14.3996 6.63293 13.971 5.36595 13.2408 4.32616C12.083 2.67753 10.1672 1.59998 7.99963 1.59998C7.99962 1.59998 7.99964 1.59998 7.99963 1.59998C4.46501 1.59998 1.59961 4.46535 1.59961 7.99998C1.59961 7.99997 1.59961 7.99998 1.59961 7.99998C1.59961 10.2091 2.7189 12.1568 4.42131 13.307Z" fill="#fa3939"/>
<g clip-path="url(#clip0_2317_121101)">
<path d="M9.32904 10.5093L9.23962 10.8749C8.97135 10.9808 8.75705 11.0613 8.59748 11.1168C8.43773 11.1723 8.25212 11.2 8.04063 11.2C7.71586 11.2 7.46325 11.1204 7.28308 10.9624C7.10292 10.8037 7.01281 10.6027 7.01281 10.3588C7.01281 10.2644 7.01935 10.1673 7.03294 10.0683C7.04665 9.96928 7.06845 9.85772 7.09827 9.73302L7.43354 8.54637C7.46337 8.43274 7.48872 8.32507 7.50902 8.22326C7.52962 8.12208 7.53954 8.02898 7.53954 7.94518C7.53954 7.79364 7.50816 7.68764 7.4457 7.62804C7.38323 7.56862 7.26404 7.53844 7.08709 7.53844C7.00042 7.53844 6.91134 7.55233 6.82054 7.57917C6.72934 7.60613 6.65138 7.63217 6.58594 7.65638L6.67559 7.29054C6.89522 7.20111 7.10516 7.12454 7.30597 7.06098C7.50679 6.99726 7.69653 6.96537 7.87601 6.96537C8.19854 6.96537 8.44742 7.04332 8.6222 7.19922C8.79697 7.35524 8.88433 7.55749 8.88433 7.80671C8.88433 7.85828 8.8786 7.94914 8.86626 8.079C8.85422 8.20915 8.83179 8.3284 8.7991 8.43687L8.46526 9.61876C8.4379 9.71369 8.4133 9.82221 8.3919 9.94433C8.36982 10.0656 8.35926 10.1583 8.35926 10.2205C8.35926 10.3775 8.39425 10.4846 8.4644 10.5416C8.53507 10.5985 8.65679 10.6269 8.82967 10.6269C8.91083 10.6269 9.00318 10.6125 9.1058 10.5842C9.20813 10.5559 9.28275 10.5311 9.32904 10.5093ZM9.4137 5.54738C9.4137 5.7533 9.3361 5.92917 9.18013 6.07377C9.02458 6.21889 8.83713 6.29151 8.61784 6.29151C8.39787 6.29151 8.20996 6.21889 8.05262 6.07377C7.89557 5.92911 7.81687 5.7533 7.81687 5.54738C7.81687 5.34186 7.89557 5.16571 8.05262 5.01927C8.20967 4.87306 8.39792 4.79999 8.61784 4.79999C8.83707 4.79999 9.02458 4.87324 9.18013 5.01927C9.33621 5.16571 9.4137 5.34192 9.4137 5.54738Z" fill="white"/>
</g>
<defs>
<clipPath id="clip0_2317_121101">
<rect width="6.4" height="6.4" fill="white" transform="translate(4.7998 4.79999)"/>
</clipPath>
</defs>
</svg>
