<svg width="10" height="10" viewBox="0 0 10 10" fill="none" xmlns="http://www.w3.org/2000/svg">
<path d="M9.49649 1.51065C9.7746 1.23254 9.7746 0.781623 9.49649 0.503508C9.21837 0.225393 8.76746 0.225393 8.48934 0.503508L5.00006 3.99279L1.51077 0.503508C1.23266 0.225394 0.781745 0.225393 0.50363 0.503508C0.225515 0.781623 0.225515 1.23254 0.50363 1.51065L3.99292 4.99994L0.50363 8.48922C0.225516 8.76734 0.225515 9.21825 0.50363 9.49637C0.781745 9.77448 1.23266 9.77448 1.51077 9.49637L5.00006 6.00708L8.48934 9.49636C8.76746 9.77448 9.21837 9.77448 9.49649 9.49637C9.7746 9.21825 9.7746 8.76734 9.49649 8.48922L6.0072 4.99994L9.49649 1.51065Z" fill="#fa3939"/>
</svg>
