<svg width="12" height="16" viewBox="0 0 12 16" fill="none" xmlns="http://www.w3.org/2000/svg">
<path d="M6 2.54545V0.5L3.25 3.22727L6 5.95455V3.90909C8.27562 3.90909 10.125 5.74318 10.125 8C10.125 8.68864 9.95312 9.34318 9.64375 9.90909L10.6475 10.9045C11.1838 10.0659 11.5 9.07045 11.5 8C11.5 4.98636 9.03875 2.54545 6 2.54545ZM6 12.0909C3.72437 12.0909 1.875 10.2568 1.875 8C1.875 7.31136 2.04688 6.65682 2.35625 6.09091L1.3525 5.09545C0.81625 5.93409 0.5 6.92955 0.5 8C0.5 11.0136 2.96125 13.4545 6 13.4545V15.5L8.75 12.7727L6 10.0455V12.0909Z" fill="#28ad99"/>
</svg>
