<svg width="20" height="20" viewBox="0 0 20 20" fill="none" xmlns="http://www.w3.org/2000/svg">
<path d="M11.7922 2.10205C10.4577 1.80009 9.06842 1.84112 7.75403 2.22131C6.4427 2.60061 5.24856 3.30516 4.28248 4.26944L1.4334 6.94659V3.33389C1.4334 3.00252 1.16477 2.73389 0.833398 2.73389C0.502028 2.73389 0.233398 3.00252 0.233398 3.33389L0.233398 8.33382C0.233398 8.66519 0.502028 8.93389 0.833398 8.93389H5.8334C6.16477 8.93389 6.4334 8.66526 6.4334 8.33389C6.4334 8.00252 6.16477 7.73389 5.8334 7.73389H2.34794L5.11093 5.13762L5.12444 5.12453C5.94841 4.30014 6.96779 3.69792 8.08746 3.37406C9.20713 3.05019 10.3906 3.01524 11.5274 3.27246C12.6642 3.52968 13.7174 4.0707 14.5886 4.84502C15.4598 5.61934 16.1206 6.60173 16.5094 7.70053C16.62 8.01292 16.9628 8.17655 17.2752 8.066C17.5876 7.95546 17.7512 7.6126 17.6407 7.30021C17.1842 6.01032 16.4085 4.85708 15.3858 3.94809C14.3631 3.0391 13.1268 2.404 11.7922 2.10205Z" fill="#646464"/>
<path d="M19.7664 11.6869C19.7715 11.533 19.7177 11.3772 19.604 11.2562C19.4809 11.1252 19.3128 11.0617 19.1462 11.0674H14.1664C13.835 11.0674 13.5664 11.336 13.5664 11.6674C13.5664 11.9988 13.835 12.2674 14.1664 12.2674H17.6516L14.8892 14.8631L14.8757 14.8762C14.0517 15.7006 13.0323 16.3028 11.9127 16.6267C10.793 16.9506 9.60955 16.9855 8.47272 16.7283C7.33589 16.4711 6.28274 15.93 5.41155 15.1557C4.54037 14.3814 3.87953 13.399 3.4907 12.3002C3.38015 11.9878 3.0373 11.8242 2.72491 11.9347C2.41252 12.0453 2.24889 12.3881 2.35944 12.7005C2.81589 13.9904 3.59166 15.1437 4.61436 16.0527C5.63706 16.9616 6.87336 17.5967 8.2079 17.8987C9.54243 18.2007 10.9317 18.1596 12.2461 17.7794C13.5574 17.4001 14.7516 16.6956 15.7177 15.7313L18.5664 13.0545V16.6674C18.5664 16.9988 18.835 17.2674 19.1664 17.2674C19.4978 17.2674 19.7664 16.9988 19.7664 16.6674V11.6869Z" fill="#646464"/>
</svg>
