<svg width="24" height="24" viewBox="0 0 24 24" fill="none" xmlns="http://www.w3.org/2000/svg">
<g id="Leading Icon">
<g id="Vector">
<path d="M14.1507 2.52187C12.5493 2.15952 10.8821 2.20876 9.30484 2.66499C7.73126 3.12015 6.29829 3.9656 5.13899 5.12274L1.72009 8.33532V4.00008C1.72009 3.60243 1.39774 3.28008 1.00009 3.28008C0.602445 3.28008 0.28009 3.60243 0.28009 4.00008L0.28009 10C0.28009 10.3976 0.602445 10.7201 1.00009 10.7201H7.00009C7.39774 10.7201 7.72009 10.3977 7.72009 10.0001C7.72009 9.60243 7.39774 9.28008 7.00009 9.28008H2.81754L6.13313 6.16456L6.14934 6.14885C7.1381 5.15959 8.36136 4.43692 9.70496 4.04828C11.0486 3.65964 12.4687 3.6177 13.8329 3.92637C15.1971 4.23503 16.4609 4.88425 17.5063 5.81344C18.5517 6.74262 19.3447 7.92149 19.8113 9.24005C19.944 9.61492 20.3554 9.81127 20.7303 9.67862C21.1052 9.54596 21.3015 9.13454 21.1688 8.75967C20.6211 7.2118 19.6902 5.82791 18.4629 4.73712C17.2357 3.64634 15.7521 2.88422 14.1507 2.52187Z" fill="#646464"/>
<path d="M23.7197 14.0237C23.7258 13.839 23.6613 13.6521 23.5248 13.5068C23.3771 13.3496 23.1754 13.2735 22.9755 13.2803H16.9997C16.6021 13.2803 16.2797 13.6026 16.2797 14.0003C16.2797 14.3979 16.6021 14.7203 16.9997 14.7203H21.182L17.8671 17.8352L17.8509 17.8509C16.8621 18.8401 15.6388 19.5628 14.2952 19.9514C12.9516 20.3401 11.5315 20.382 10.1673 20.0734C8.80308 19.7647 7.53931 19.1155 6.49388 18.1863C5.44845 17.2571 4.65544 16.0782 4.18885 14.7597C4.0562 14.3848 3.64477 14.1885 3.2699 14.3211C2.89504 14.4538 2.69868 14.8652 2.83134 15.2401C3.37908 16.7879 4.31 18.1718 5.53724 19.2626C6.76448 20.3534 8.24804 21.1155 9.84949 21.4779C11.4509 21.8402 13.1181 21.791 14.6953 21.3347C16.2689 20.8796 17.7019 20.0341 18.8612 18.877L22.2797 15.6648V20.0003C22.2797 20.3979 22.6021 20.7203 22.9997 20.7203C23.3973 20.7203 23.7197 20.3979 23.7197 20.0003V14.0237Z" fill="#646464"/>
</g>
</g>
</svg>
