<svg width="20" height="20" viewBox="0 0 20 20" fill="none" xmlns="http://www.w3.org/2000/svg">
<path d="M17.8202 3.69C17.7002 3.81 17.5402 3.87 17.3802 3.87C17.2202 3.87 17.0702 3.81 16.9502 3.69L15.3102 2.08C15.0702 1.84 15.0602 1.45 15.3102 1.21C15.5502 0.97 15.9402 0.96 16.1802 1.21L17.8202 2.82C18.0602 3.06 18.0702 3.45 17.8202 3.69ZM4.69024 2.05C4.93024 1.81 4.93024 1.42 4.69024 1.18C4.45024 0.94 4.06024 0.94 3.82024 1.18L2.18024 2.82C1.94024 3.06 1.94024 3.45 2.18024 3.69C2.30024 3.81 2.46024 3.87 2.61024 3.87C2.76024 3.87 2.93024 3.81 3.04024 3.69L4.68024 2.05H4.69024ZM14.7002 16.4L15.9802 17.68C16.2502 17.95 16.2502 18.38 15.9802 18.65C15.8502 18.78 15.6702 18.85 15.5002 18.85C15.3302 18.85 15.1502 18.78 15.0102 18.65L13.5002 17.13C12.4402 17.64 11.2702 17.94 10.0102 17.94C8.75024 17.94 7.58024 17.64 6.52024 17.13L5.01024 18.65C4.88024 18.78 4.70024 18.85 4.52024 18.85C4.34024 18.85 4.17024 18.78 4.04024 18.65C3.77024 18.38 3.77024 17.95 4.04024 17.68L5.32024 16.4C3.31024 14.95 2.00024 12.59 2.00024 9.94C2.00024 5.53 5.59024 1.94 10.0002 1.94C14.4102 1.94 18.0002 5.53 18.0002 9.94C18.0002 12.6 16.6902 14.95 14.7002 16.4ZM10.0002 16.57C13.6602 16.57 16.6302 13.6 16.6302 9.94C16.6302 6.28 13.6602 3.31 10.0002 3.31C6.34024 3.31 3.37024 6.28 3.37024 9.94C3.37024 13.6 6.34024 16.57 10.0002 16.57ZM10.6202 10.5V7.47C10.6202 7.13 10.3402 6.85 10.0002 6.85C9.66024 6.85 9.38024 7.13 9.38024 7.47V10.75C9.38024 10.91 9.44024 11.07 9.56024 11.18L11.2002 12.82C11.3202 12.94 11.4802 13 11.6302 13C11.7802 13 11.9502 12.94 12.0602 12.82C12.3002 12.58 12.3002 12.19 12.0602 11.95L10.6002 10.49L10.6202 10.5Z" fill="#61646C"/>
</svg>
