<svg width="20" height="20" viewBox="0 0 20 20" fill="none" xmlns="http://www.w3.org/2000/svg">
<path d="M15.7704 6.53285L16.4661 5.82712C16.7365 5.55287 16.7365 5.1082 16.4661 4.83409C16.1958 4.55984 15.7575 4.55984 15.4871 4.83409L14.7913 5.53983C13.624 4.55325 12.2055 3.95724 10.6923 3.81772V2.40446H11.3616C11.7439 2.40446 12.0538 2.08998 12.0538 1.70216C12.0538 1.31435 11.7439 1 11.3616 1H8.63843C8.25608 1 7.94616 1.31435 7.94616 1.70216C7.94616 2.08998 8.25608 2.40446 8.63843 2.40446H9.30767V3.81772C5.51993 4.16708 2.5 7.39459 2.5 11.3927C2.5 15.5971 5.85435 19 10.0001 19C14.1451 19 17.5 15.5977 17.5 11.3927C17.5 9.59666 16.8902 7.89584 15.7704 6.53285ZM9.99993 17.5955C6.62798 17.5955 3.88452 14.813 3.88452 11.3927C3.88452 7.97247 6.62798 5.18991 9.99993 5.18991C13.372 5.18991 16.1153 7.97247 16.1153 11.3927C16.1153 14.813 13.372 17.5955 9.99993 17.5955ZM13.2083 8.1385C13.4787 8.41275 13.4787 8.85742 13.2083 9.13153L10.4895 11.8892C10.2191 12.1635 9.78073 12.1635 9.51049 11.8892C9.24011 11.615 9.24011 11.1703 9.51049 10.8962L12.2292 8.1385C12.4995 7.86426 12.938 7.86426 13.2083 8.1385Z" fill="#202020"/>
</svg>
