<svg width="20" height="20" viewBox="0 0 20 20" fill="none" xmlns="http://www.w3.org/2000/svg">
<path d="M15.0002 5.20837H11.0927L8.776 2.89171C8.6585 2.77421 8.50014 2.70837 8.33431 2.70837H5.00098C2.98598 2.70837 1.87598 3.81837 1.87598 5.83337V14.1667C1.87598 16.1817 2.98598 17.2917 5.00098 17.2917H15.001C17.016 17.2917 18.126 16.1817 18.126 14.1667V8.33337C18.1251 6.31837 17.0152 5.20837 15.0002 5.20837ZM16.8752 14.1667C16.8752 15.4809 16.3143 16.0417 15.0002 16.0417H5.00016C3.686 16.0417 3.12516 15.4809 3.12516 14.1667V5.83337C3.12516 4.51921 3.686 3.95837 5.00016 3.95837H8.0743L10.391 6.27504C10.5085 6.39254 10.6668 6.45837 10.8327 6.45837H14.9993C16.3135 6.45837 16.8743 7.01921 16.8743 8.33337V14.1667H16.8752ZM12.0835 10.625H7.91683C7.57183 10.625 7.29183 10.905 7.29183 11.25C7.29183 11.595 7.57183 11.875 7.91683 11.875H12.0835C12.4285 11.875 12.7085 11.595 12.7085 11.25C12.7085 10.905 12.4285 10.625 12.0835 10.625Z" fill="#51525C"/>
</svg>
