<svg width="14" height="14" viewBox="0 0 14 14" fill="none" xmlns="http://www.w3.org/2000/svg">
<path d="M11.4653 5.44002C11.9307 6.42602 12.1667 7.39935 12.1667 8.33335C12.1667 11.182 9.84868 13.5 7.00002 13.5C5.97802 13.5 4.99468 13.206 4.15668 12.65C3.92668 12.4974 3.86401 12.1867 4.01668 11.9567C4.16934 11.7267 4.48068 11.6647 4.71002 11.8167C5.38402 12.2634 6.17535 12.5 7.00069 12.5C9.29802 12.5 11.1674 10.6307 11.1674 8.33335C11.1674 7.54802 10.9634 6.71801 10.562 5.86667C10.444 5.61667 10.5507 5.31868 10.8007 5.20135C11.0487 5.08335 11.3473 5.19002 11.4653 5.44002ZM13.3533 1.35335L1.35335 13.3533C1.25601 13.4507 1.12802 13.5 1.00002 13.5C0.872016 13.5 0.744016 13.4513 0.646683 13.3533C0.45135 13.158 0.45135 12.8413 0.646683 12.646L2.47934 10.8127C2.06401 10.058 1.83335 9.21268 1.83335 8.33268C1.83335 4.12401 6.51068 0.734687 6.70935 0.592687C6.88268 0.468687 7.11601 0.468687 7.29001 0.592687C7.35468 0.638687 8.76068 1.65602 10.0447 3.24802L12.6467 0.646012C12.842 0.450678 13.1587 0.450678 13.354 0.646012C13.5487 0.841345 13.5487 1.15868 13.3533 1.35335ZM3.21401 10.0787L9.33468 3.95802C8.45201 2.84536 7.47535 2.00802 7.00002 1.63002C6.01068 2.42002 2.83268 5.20068 2.83268 8.33335C2.83334 8.94468 2.96468 9.53802 3.21401 10.0787Z" fill="#51525C"/>
</svg>
