<svg xmlns="http://www.w3.org/2000/svg" width="26" height="24" viewBox="0 0 26 24">
    <g fill="none" fill-rule="evenodd">
        <path d="M-3-4h32v32H-3z"/>
        <path fill="#6B696C" d="M13.92.37L25.618 11.74c.372.36.483.904.282 1.377-.202.472-.676.779-1.201.779h-2.6v8.109a2 2 0 0 1-2 1.996H5.9c-1.097 0-2-.894-2-1.996v-8.11H1.3c-.525 0-1-.306-1.201-.778a1.237 1.237 0 0 1 .282-1.377L12.081.37a1.325 1.325 0 0 1 1.838 0zM14.212 20v-1.155c1.384-.255 2.427-1.366 2.427-2.695 0-1.516-1.36-2.75-3.033-2.75h-1.214c-.333 0-.606-.246-.606-.55 0-.304.273-.55.606-.55h4.247v-2.2h-2.427V9h-2.426v1.155c-1.384.255-2.427 1.366-2.427 2.695 0 1.516 1.36 2.75 3.033 2.75h1.214c.333 0 .606.246.606.55 0 .304-.273.55-.606.55H9.36v2.2h2.427V20h2.426z"/>
    </g>
</svg>
