<svg width="16" height="17" viewBox="0 0 16 17" fill="none" xmlns="http://www.w3.org/2000/svg">
<path fill-rule="evenodd" clip-rule="evenodd" d="M6.33907 3.29196C6.15161 3.1045 5.8477 3.1045 5.66024 3.29196L2.32691 6.62529C2.13946 6.81274 2.13946 7.11666 2.32691 7.30411L5.66024 10.6374C5.8477 10.8249 6.15161 10.8249 6.33907 10.6374C6.52652 10.45 6.52652 10.1461 6.33907 9.95862L3.34514 6.9647L6.33907 3.97078C6.52652 3.78333 6.52652 3.47941 6.33907 3.29196Z" fill="currentColor"/>
<path fill-rule="evenodd" clip-rule="evenodd" d="M10.6663 7.4447C11.2463 7.4447 11.8024 7.67508 12.2125 8.08516C12.6226 8.49524 12.853 9.05143 12.853 9.63137V14.298C12.853 14.5631 13.0679 14.778 13.333 14.778C13.5981 14.778 13.813 14.5631 13.813 14.298V9.63137C13.813 8.79682 13.4815 7.99645 12.8914 7.40634C12.3012 6.81622 11.5009 6.4847 10.6663 6.4847H2.66632C2.40122 6.4847 2.18632 6.6996 2.18632 6.9647C2.18632 7.2298 2.40122 7.4447 2.66632 7.4447H10.6663Z" fill="currentColor"/>
</svg>
