<svg width="20" height="21" viewBox="0 0 20 21" fill="none" xmlns="http://www.w3.org/2000/svg">
<path fill-rule="evenodd" clip-rule="evenodd" d="M7.9242 3.40907C7.68988 3.17476 7.30999 3.17476 7.07567 3.40907L2.909 7.57574C2.67469 7.81005 2.67469 8.18995 2.909 8.42427L7.07567 12.5909C7.30999 12.8252 7.68988 12.8252 7.9242 12.5909C8.15851 12.3566 8.15851 11.9767 7.9242 11.7424L4.1818 8L7.9242 4.2576C8.15851 4.02329 8.15851 3.64339 7.9242 3.40907Z" fill="#8A8A8A"/>
<path fill-rule="evenodd" clip-rule="evenodd" d="M13.3333 8.6C14.0582 8.6 14.7534 8.88798 15.266 9.40058C15.7786 9.91318 16.0666 10.6084 16.0666 11.3333V17.1667C16.0666 17.498 16.3352 17.7667 16.6666 17.7667C16.998 17.7667 17.2666 17.498 17.2666 17.1667V11.3333C17.2666 10.2902 16.8522 9.28969 16.1146 8.55205C15.3769 7.81441 14.3765 7.4 13.3333 7.4H3.33327C3.0019 7.4 2.73327 7.66863 2.73327 8C2.73327 8.33138 3.0019 8.6 3.33327 8.6H13.3333Z" fill="#8A8A8A"/>
</svg>
