<svg width="24" height="24" viewBox="0 0 24 24" fill="none" xmlns="http://www.w3.org/2000/svg">
<path fill-rule="evenodd" clip-rule="evenodd" d="M10.3386 6.32736C10.1511 6.1399 9.84721 6.1399 9.65976 6.32736L6.32642 9.66069C6.13897 9.84814 6.13897 10.1521 6.32642 10.3395L9.65976 13.6728C9.84721 13.8603 10.1511 13.8603 10.3386 13.6728C10.526 13.4854 10.526 13.1815 10.3386 12.994L7.34466 10.0001L10.3386 7.00618C10.526 6.81873 10.526 6.51481 10.3386 6.32736Z" fill="#646464"/>
<path fill-rule="evenodd" clip-rule="evenodd" d="M14.6658 10.4801C15.2458 10.4801 15.802 10.7105 16.212 11.1206C16.6221 11.5306 16.8525 12.0868 16.8525 12.6668V17.3334C16.8525 17.5985 17.0674 17.8134 17.3325 17.8134C17.5976 17.8134 17.8125 17.5985 17.8125 17.3334V12.6668C17.8125 11.8322 17.481 11.0319 16.8909 10.4417C16.3007 9.85162 15.5004 9.5201 14.6658 9.5201H6.66583C6.40074 9.5201 6.18583 9.735 6.18583 10.0001C6.18583 10.2652 6.40074 10.4801 6.66583 10.4801H14.6658Z" fill="#646464"/>
</svg>
