<svg width="20" height="20" viewBox="0 0 20 20" fill="none" xmlns="http://www.w3.org/2000/svg">
<g id="reply-all">
<g id="Vector">
<path fill-rule="evenodd" clip-rule="evenodd" d="M7.92433 2.90913C8.15864 3.14345 8.15864 3.52335 7.92433 3.75766L4.18193 7.50006L7.92433 11.2425C8.15864 11.4768 8.15864 11.8567 7.92433 12.091C7.69001 12.3253 7.31012 12.3253 7.0758 12.091L2.90913 7.92433C2.67482 7.69001 2.67482 7.31012 2.90913 7.0758L7.0758 2.90913C7.31012 2.67482 7.69001 2.67482 7.92433 2.90913Z" fill="#646464"/>
<path fill-rule="evenodd" clip-rule="evenodd" d="M11.9243 2.90918C12.1586 3.14349 12.1586 3.52339 11.9243 3.7577L8.18191 7.50011L11.9243 11.2425C12.1586 11.4768 12.1586 11.8567 11.9243 12.091C11.69 12.3254 11.3101 12.3254 11.0758 12.091L6.90911 7.92437C6.6748 7.69006 6.6748 7.31016 6.90911 7.07584L11.0758 2.90918C11.3101 2.67486 11.69 2.67486 11.9243 2.90918Z" fill="#646464"/>
<path fill-rule="evenodd" clip-rule="evenodd" d="M2.7334 7.50007C2.7334 7.16869 3.00203 6.90007 3.3334 6.90007H13.3334C14.3766 6.90007 15.377 7.31447 16.1147 8.05211C16.8523 8.78975 17.2667 9.79021 17.2667 10.8334V16.6667C17.2667 16.9981 16.9981 17.2667 16.6667 17.2667C16.3354 17.2667 16.0667 16.9981 16.0667 16.6667V10.8334C16.0667 10.1085 15.7788 9.41324 15.2662 8.90064C14.7536 8.38804 14.0583 8.10007 13.3334 8.10007H3.3334C3.00203 8.10007 2.7334 7.83144 2.7334 7.50007Z" fill="#646464"/>
</g>
</g>
</svg>
