<svg width="24" height="24" viewBox="0 0 24 24" fill="none" xmlns="http://www.w3.org/2000/svg">
<path d="M12.0003 3.04102C7.06033 3.04102 3.04199 7.05935 3.04199 11.9993C3.04199 16.9393 7.06033 20.9577 12.0003 20.9577C16.9403 20.9577 20.9587 16.9393 20.9587 11.9993C20.9587 7.05935 16.9403 3.04102 12.0003 3.04102ZM12.0003 19.7077C7.74949 19.7077 4.29199 16.2502 4.29199 11.9993C4.29199 7.74852 7.74949 4.29102 12.0003 4.29102C16.2512 4.29102 19.7087 7.74852 19.7087 11.9993C19.7087 16.2502 16.2512 19.7077 12.0003 19.7077ZM14.942 14.0577C15.1862 14.3018 15.1862 14.6977 14.942 14.9419C14.8204 15.0635 14.6603 15.1252 14.5003 15.1252C14.3403 15.1252 14.1803 15.0644 14.0586 14.9419L11.5586 12.4419C11.4411 12.3244 11.3753 12.1652 11.3753 12.0002V7.8335C11.3753 7.4885 11.6553 7.2085 12.0003 7.2085C12.3453 7.2085 12.6253 7.4885 12.6253 7.8335V11.741L14.942 14.0577Z" fill="#51525C"/>
</svg>
