<svg width="32" height="32" viewBox="0 0 32 32" fill="none" xmlns="http://www.w3.org/2000/svg">
<path d="M16 1.66675C8.09599 1.66675 1.66666 8.09608 1.66666 16.0001C1.66666 23.9041 8.09599 30.3334 16 30.3334C23.904 30.3334 30.3333 23.9041 30.3333 16.0001C30.3333 8.09608 23.904 1.66675 16 1.66675ZM16 28.3334C9.19866 28.3334 3.66666 22.8014 3.66666 16.0001C3.66666 9.19875 9.19866 3.66675 16 3.66675C22.8013 3.66675 28.3333 9.19875 28.3333 16.0001C28.3333 22.8014 22.8013 28.3334 16 28.3334ZM20.7067 19.2934C21.0974 19.684 21.0974 20.3174 20.7067 20.7081C20.512 20.9028 20.256 21.0014 20 21.0014C19.744 21.0014 19.488 20.9041 19.2933 20.7081L15.2933 16.7081C15.1053 16.5201 15 16.2654 15 16.0014V9.33472C15 8.78272 15.448 8.33472 16 8.33472C16.552 8.33472 17 8.78272 17 9.33472V15.5867L20.7067 19.2934Z" fill="#61646C"/>
</svg>
