<svg width="20" height="20" viewBox="0 0 20 20" fill="none" xmlns="http://www.w3.org/2000/svg">
<path d="M8.29546 2.45264C9.92209 2.08512 11.6239 2.25327 13.1472 2.93199C13.4499 3.06686 13.8046 2.93082 13.9395 2.62814C14.0743 2.32545 13.9383 1.97075 13.6356 1.83588C11.876 1.05183 9.91004 0.857599 8.031 1.28214C6.15196 1.70669 4.46049 2.72727 3.20887 4.19167C1.95724 5.65606 1.21252 7.48582 1.08577 9.40805C0.95902 11.3303 1.45703 13.242 2.50553 14.8581C3.55403 16.4741 5.09684 17.708 6.90387 18.3756C8.71089 19.0432 10.6853 19.1088 12.5327 18.5626C14.38 18.0164 16.0013 16.8876 17.1547 15.3447C18.3082 13.8018 18.932 11.927 18.9331 10.0006V9.23394C18.9331 8.90257 18.6644 8.63394 18.3331 8.63394C18.0017 8.63394 17.7331 8.90257 17.7331 9.23394V10.0003C17.7321 11.6679 17.1921 13.2905 16.1936 14.6262C15.1951 15.9619 13.7916 16.939 12.1924 17.4118C10.5932 17.8846 8.88402 17.8279 7.31973 17.2499C5.75544 16.672 4.41987 15.6039 3.51222 14.2049C2.60456 12.8059 2.17345 11.151 2.28317 9.48701C2.3929 7.82299 3.03758 6.23902 4.12108 4.97133C5.20457 3.70364 6.66883 2.82016 8.29546 2.45264Z" fill="#646464"/>
<path d="M18.7582 3.75794C18.9924 3.52351 18.9922 3.14361 18.7578 2.90941C18.5233 2.67521 18.1434 2.6754 17.9092 2.90983L10.0002 10.8268L7.92465 8.75129C7.69034 8.51697 7.31044 8.51697 7.07613 8.75129C6.84181 8.9856 6.84181 9.3655 7.07613 9.59982L9.57613 12.0998C9.68868 12.2124 9.84136 12.2756 10.0005 12.2756C10.1597 12.2755 10.3124 12.2122 10.4249 12.0996L18.7582 3.75794Z" fill="#646464"/>
</svg>
