<svg width="20" height="20" viewBox="0 0 20 20" fill="none" xmlns="http://www.w3.org/2000/svg">
<path fill-rule="evenodd" clip-rule="evenodd" d="M6.13771 15.5299L6.6369 15.8192C7.62507 16.3919 8.77333 16.72 10.0003 16.72C13.7112 16.72 16.72 13.7113 16.72 10C16.72 6.28868 13.7112 3.28001 10.0003 3.28001C6.28883 3.28001 3.28009 6.28872 3.28009 10C3.28009 11.1663 3.5767 12.2614 4.09787 13.2159L4.34932 13.6764L3.57587 16.3838L6.13771 15.5299ZM5.9951 16.9267C7.17314 17.6094 8.54207 18 10.0003 18C14.4181 18 18 14.4182 18 10C18 5.58176 14.4181 2 10.0003 2C5.58194 2 2.00009 5.58176 2.00009 10C2.00009 11.3861 2.35315 12.6915 2.97443 13.8293L2.02572 17.1502C1.95767 17.388 2.02704 17.6438 2.20556 17.815C2.38452 17.9859 2.64302 18.044 2.87766 17.9658L5.9951 16.9267Z" fill="#646464"/>
<path fill-rule="evenodd" clip-rule="evenodd" d="M13.7392 7.8968C13.9756 8.15953 13.9543 8.56419 13.6916 8.80065L10.136 12.0007C9.89263 12.2197 9.52315 12.2197 9.27975 12.0007L7.50197 10.4007C7.23925 10.1642 7.21795 9.75953 7.4544 9.49681C7.69086 9.23408 8.09552 9.21278 8.35825 9.44924L9.70789 10.6639L12.8353 7.84923C13.098 7.61277 13.5027 7.63407 13.7392 7.8968Z" fill="#646464"/>
</svg>
