<svg width="21" height="20" viewBox="0 0 21 20" fill="none" xmlns="http://www.w3.org/2000/svg">
<path d="M8.84086 8.95833C10.7942 8.95833 12.3825 7.36917 12.3825 5.41667C12.3825 3.46417 10.7942 1.875 8.84086 1.875C6.88753 1.875 5.29919 3.46417 5.29919 5.41667C5.29919 7.36917 6.88753 8.95833 8.84086 8.95833ZM8.84086 3.125C10.105 3.125 11.1325 4.1525 11.1325 5.41667C11.1325 6.68083 10.105 7.70833 8.84086 7.70833C7.57669 7.70833 6.54919 6.68083 6.54919 5.41667C6.54919 4.1525 7.57669 3.125 8.84086 3.125ZM11.2342 11.5084C11.0242 11.4742 10.7842 11.4583 10.5 11.4583H7.16667C3.88083 11.4583 3.625 14.1825 3.625 15.0167C3.625 16.3192 4.18583 16.875 5.5 16.875H9.66667C10.0117 16.875 10.2917 17.155 10.2917 17.5C10.2917 17.845 10.0117 18.125 9.66667 18.125H5.5C3.485 18.125 2.375 17.0209 2.375 15.0167C2.375 12.7984 3.63 10.2083 7.16667 10.2083H10.5C10.8508 10.2083 11.1558 10.23 11.4325 10.275C11.7733 10.3291 12.0058 10.65 11.95 10.9908C11.8958 11.3316 11.565 11.5625 11.2342 11.5084ZM19.0275 14.5817L19.1383 14.52C19.2858 14.4375 19.3933 14.2992 19.4367 14.1367C19.4808 13.9733 19.4559 13.8 19.37 13.655L18.6067 12.3734C18.4334 12.0825 18.0625 11.9825 17.7642 12.1475L17.6533 12.2092C17.4892 12.3017 17.2833 12.3025 17.1166 12.2092C16.9608 12.1217 16.8641 11.9617 16.8641 11.7925C16.8641 11.3792 16.5267 11.0433 16.1109 11.0433H14.8408C14.425 11.0433 14.0875 11.3792 14.0875 11.7925C14.0875 11.9625 13.9908 12.1217 13.835 12.2092C13.6691 12.3025 13.4634 12.3025 13.2984 12.2092C12.9434 12.0117 12.49 12.1325 12.2825 12.4791L11.6466 13.5467C11.5441 13.7175 11.5141 13.9267 11.5641 14.1192C11.615 14.3125 11.7442 14.4808 11.9192 14.58C11.925 14.5825 11.93 14.5858 11.9359 14.5891C12.085 14.6783 12.1766 14.8342 12.1766 15C12.1775 15.1708 12.0808 15.3317 11.92 15.4217C11.7458 15.5208 11.6166 15.6883 11.565 15.8808C11.5133 16.075 11.5417 16.2783 11.645 16.4533L12.2833 17.5225C12.4933 17.8741 12.9383 17.9933 13.2992 17.7916C13.4633 17.6991 13.6683 17.6991 13.835 17.7925C13.9908 17.88 14.0866 18.0391 14.0866 18.2091C14.0866 18.6225 14.4242 18.9583 14.8392 18.9583H16.1117C16.5267 18.9583 16.8641 18.6225 16.8641 18.2091C16.8641 18.0391 16.9608 17.88 17.1166 17.7925C17.2825 17.6991 17.4883 17.6991 17.6533 17.7925C18.0092 17.99 18.4608 17.8691 18.6691 17.5225L19.3092 16.4492C19.4109 16.2758 19.4383 16.0734 19.3866 15.8792C19.335 15.6842 19.2083 15.5217 19.0325 15.4217C19.0275 15.4192 19.0216 15.4158 19.0166 15.4133C18.8675 15.3241 18.7759 15.1675 18.7759 15.0016C18.7767 14.83 18.8734 14.6692 19.0275 14.5817ZM18.0075 16.1908L17.81 16.5225C17.3725 16.4184 16.9034 16.4783 16.505 16.7025C16.1084 16.9258 15.8208 17.2892 15.6917 17.7083H15.2625C15.1341 17.29 14.8467 16.9266 14.4492 16.7025C14.0517 16.4783 13.5808 16.4167 13.1441 16.5225L12.9467 16.1917C13.2534 15.8717 13.43 15.445 13.4284 14.9958C13.4275 14.55 13.25 14.1267 12.9467 13.8092L13.1441 13.4775C13.5808 13.5816 14.0508 13.5225 14.4492 13.2975C14.8458 13.0742 15.1333 12.7108 15.2625 12.2917H15.6917C15.82 12.71 16.1084 13.0734 16.505 13.2975C16.9042 13.5225 17.375 13.5825 17.81 13.4775L18.0075 13.8092C17.7025 14.1284 17.5258 14.5541 17.5267 15.0016C17.5267 15.4483 17.7034 15.8725 18.0075 16.1908ZM16.35 15C16.35 15.46 15.9775 15.8333 15.5167 15.8333C15.0567 15.8333 14.6792 15.46 14.6792 15C14.6792 14.54 15.0483 14.1667 15.5083 14.1667H15.5167C15.9767 14.1667 16.35 14.54 16.35 15Z" fill="#61646C"/>
</svg>
