<svg width="16" height="16" viewBox="0 0 16 16" fill="none" xmlns="http://www.w3.org/2000/svg">
<g id="rotate-right">
<path id="vector" d="M14.5 2.66675V6.00008C14.5 6.27608 14.276 6.50008 14 6.50008H10.6667C10.3907 6.50008 10.1667 6.27608 10.1667 6.00008C10.1667 5.72408 10.3907 5.50008 10.6667 5.50008H12.8867C11.9601 3.68275 10.082 2.50008 8.00002 2.50008C4.96735 2.50008 2.50002 4.96741 2.50002 8.00008C2.50002 11.0327 4.96735 13.5001 8.00002 13.5001C10.102 13.5001 11.9893 12.3294 12.9253 10.4447C13.048 10.1981 13.3474 10.0955 13.596 10.2195C13.8427 10.3428 13.944 10.6421 13.8213 10.8894C12.7153 13.1167 10.4847 14.5007 8.00067 14.5007C4.41667 14.5007 1.50067 11.5847 1.50067 8.00073C1.50067 4.41673 4.41667 1.50073 8.00067 1.50073C10.2653 1.50073 12.3313 2.68138 13.5007 4.54338V2.66675C13.5007 2.39075 13.7247 2.16675 14.0007 2.16675C14.2767 2.16675 14.5 2.39075 14.5 2.66675Z" fill="white"/>
</g>
</svg>
