<svg width="20" height="20" viewBox="0 0 20 20" fill="none" xmlns="http://www.w3.org/2000/svg">
<path d="M13.9177 2.91881C12.3808 2.06918 10.6094 1.74206 8.87037 1.98672C7.13442 2.23096 5.52465 3.03178 4.28271 4.26879L1.4334 6.94616V3.3334C1.4334 3.00203 1.16477 2.7334 0.833398 2.7334C0.502028 2.7334 0.233398 3.00203 0.233398 3.3334V8.3334C0.233398 8.66477 0.502028 8.9334 0.833398 8.9334H5.8334C6.16477 8.9334 6.4334 8.66477 6.4334 8.3334C6.4334 8.00203 6.16477 7.7334 5.8334 7.7334H2.348L5.11093 5.13719L5.12397 5.12456C6.18267 4.06765 7.55619 3.38344 9.03756 3.17502C10.5189 2.9666 12.0279 3.24526 13.3371 3.96902C14.6464 4.69277 15.6849 5.82242 16.2963 7.18774C16.9077 8.55306 17.0588 10.0801 16.7269 11.5388C16.3949 12.9974 15.5979 14.3087 14.4559 15.275C13.3139 16.2414 11.8888 16.8104 10.3954 16.8963C8.90186 16.9823 7.42089 16.5805 6.17558 15.7516C4.93026 14.9227 3.98807 13.7115 3.49097 12.3006C3.38086 11.988 3.03823 11.8239 2.72569 11.934C2.41315 12.0441 2.24905 12.3868 2.35916 12.6993C2.94272 14.3557 4.04876 15.7775 5.51065 16.7506C6.97254 17.7236 8.71108 18.1952 10.4643 18.0943C12.2175 17.9934 13.8905 17.3255 15.2311 16.1911C16.5717 15.0567 17.5073 13.5174 17.897 11.805C18.2866 10.0927 18.1092 8.30008 17.3915 6.69731C16.6738 5.09454 15.4546 3.76843 13.9177 2.91881Z" fill="#202020"/>
</svg>
