<svg width="20" height="20" viewBox="0 0 20 20" fill="none" xmlns="http://www.w3.org/2000/svg">
<path d="M13.9177 2.9193C12.3808 2.06967 10.6094 1.74254 8.87037 1.98721C7.13442 2.23145 5.52465 3.03227 4.28271 4.26928L1.4334 6.94665V3.33389C1.4334 3.00252 1.16477 2.73389 0.833398 2.73389C0.502028 2.73389 0.233398 3.00252 0.233398 3.33389V8.33389C0.233398 8.66526 0.502028 8.93389 0.833398 8.93389H5.8334C6.16477 8.93389 6.4334 8.66526 6.4334 8.33389C6.4334 8.00252 6.16477 7.73389 5.8334 7.73389H2.348L5.11093 5.13768L5.12397 5.12505C6.18267 4.06814 7.55619 3.38393 9.03756 3.17551C10.5189 2.96709 12.0279 3.24575 13.3371 3.96951C14.6464 4.69326 15.6849 5.82291 16.2963 7.18823C16.9077 8.55355 17.0588 10.0806 16.7269 11.5393C16.3949 12.9979 15.5979 14.3092 14.4559 15.2755C13.3139 16.2418 11.8888 16.8109 10.3954 16.8968C8.90186 16.9828 7.42089 16.581 6.17558 15.7521C4.93026 14.9232 3.98807 13.712 3.49097 12.3011C3.38086 11.9885 3.03823 11.8244 2.72569 11.9345C2.41315 12.0446 2.24905 12.3873 2.35916 12.6998C2.94272 14.3561 4.04876 15.778 5.51065 16.751C6.97254 17.7241 8.71108 18.1957 10.4643 18.0948C12.2175 17.9939 13.8905 17.326 15.2311 16.1916C16.5717 15.0572 17.5073 13.5179 17.897 11.8055C18.2866 10.0932 18.1092 8.30057 17.3915 6.6978C16.6738 5.09503 15.4546 3.76892 13.9177 2.9193Z" fill="#646464"/>
</svg>
