<svg width="32" height="32" viewBox="0 0 32 32" fill="none" xmlns="http://www.w3.org/2000/svg">
<circle cx="16" cy="16" r="16" fill="#D8DCDF"/>
<path d="M14.9999 8.21898C13.8299 8.01798 13.2999 7.90198 12.1299 8.10998C12.0399 8.14498 11.9799 8.24098 11.9599 8.34198C11.9399 8.44398 11.9699 8.54698 12.0499 8.61998L16.2399 12.845L14.5399 14.545L12.8499 16.235L8.61991 12.038C8.54991 11.966 8.44991 11.933 8.33991 11.95C8.23991 11.967 8.16991 12.025 8.10991 12.126C7.91991 13.229 7.98991 13.835 8.19991 15.006C8.39991 16.176 8.95991 17.256 9.79991 18.095C10.6399 18.935 11.7299 19.494 12.8999 19.695C13.9999 19.883 15.1299 19.748 16.1499 19.31L20.1699 23.345C20.5899 23.764 21.1599 24 21.7599 24C22.3499 24 22.9199 23.764 23.3399 23.345C23.7599 22.926 23.9999 22.358 23.9999 21.765C23.9999 21.172 23.7599 20.604 23.3399 20.184L19.3199 16.149C19.7599 15.13 19.8899 14.004 19.7099 12.908C19.4999 11.738 18.9399 10.658 18.0999 9.81798C17.2599 8.97898 16.1799 8.41998 14.9999 8.21898Z" fill="white"/>
<circle cx="16" cy="16.0001" r="16" fill="#D8DCDF"/>
<g clip-path="url(#clip0_55026_36655)">
<path d="M16 8.00006C11.5886 8.00006 8 11.5887 8 16.0001C8 20.4114 11.5886 24.0001 16 24.0001C20.4114 24.0001 24 20.4114 24 16.0001C24 11.5887 20.4114 8.00006 16 8.00006ZM19.8047 20.138C19.7429 20.2 19.6694 20.2492 19.5885 20.2827C19.5076 20.3163 19.4209 20.3335 19.3334 20.3334C19.2458 20.3335 19.1591 20.3163 19.0782 20.2827C18.9973 20.2492 18.9239 20.2 18.8621 20.138L15.5287 16.8047C15.4667 16.743 15.4175 16.6695 15.3839 16.5886C15.3504 16.5077 15.3332 16.421 15.3334 16.3334V12.0001C15.3334 11.6314 15.632 11.3334 16 11.3334C16.368 11.3334 16.6666 11.6314 16.6666 12.0001V16.0574L19.8047 19.1954C20.0653 19.4561 20.0653 19.8774 19.8047 20.138Z" fill="white"/>
</g>
<defs>
<clipPath id="clip0_55026_36655">
<rect width="16" height="16" fill="white" transform="translate(8 8.00006)"/>
</clipPath>
</defs>
</svg>
