<svg width="52" height="52" viewBox="0 0 52 52" fill="none" xmlns="http://www.w3.org/2000/svg">
<rect width="52" height="52" rx="26" fill="#6B696C"/>
<g clip-path="url(#clip0_13102_231307)">
<path fill-rule="evenodd" clip-rule="evenodd" d="M14 29.862C14 29.3288 14.4325 28.8966 14.9656 28.8966C15.4988 28.8966 15.931 29.3289 15.931 29.862V34.6271C15.931 35.422 16.5779 36.0689 17.3728 36.0689H22.1379C22.6709 36.0689 23.1035 36.5013 23.1035 37.0344C23.1035 37.5677 22.6712 38 22.1379 38H17.3729C15.5131 38 14 36.4869 14 34.6271V29.862ZM38 29.862V34.6271C38 36.4869 36.4869 38 34.6271 38H29.8621C29.3287 38 28.8965 37.5677 28.8965 37.0344C28.8965 36.5013 29.3291 36.0689 29.8621 36.0689H34.6271C35.422 36.0689 36.0689 35.4219 36.0689 34.6271V29.862C36.0689 29.3288 36.5012 28.8966 37.0343 28.8966C37.5675 28.8966 38 29.3288 38 29.862ZM38 17.3727V22.1378C38 22.6712 37.5677 23.1032 37.0344 23.1032C36.501 23.1032 36.069 22.6712 36.069 22.1378V17.3727C36.069 16.5779 35.4219 15.9308 34.6272 15.9308H29.8621C29.3287 15.9308 28.8965 15.4988 28.8965 14.9654C28.8965 14.4323 29.3289 14 29.8621 14H34.6271C36.4868 14 38 15.5129 38 17.3727ZM22.1379 14C22.6711 14 23.1035 14.4323 23.1035 14.9654C23.1035 15.4988 22.6712 15.9308 22.1379 15.9308H17.3729C16.578 15.9308 15.9311 16.5778 15.9311 17.3726V22.1378C15.9311 22.6711 15.499 23.1032 14.9657 23.1032C14.4323 23.1032 14 22.6711 14 22.1378V17.3727C14 15.5129 15.5132 14 17.3729 14H22.1379Z" fill="white"/>
<path fill-rule="evenodd" clip-rule="evenodd" d="M33.2038 31.5954C33.4606 31.3363 33.6049 30.9848 33.6049 30.6184V23.0188C33.6049 22.6523 33.4606 22.3009 33.2038 22.0418C32.9469 21.7826 32.5985 21.6371 32.2353 21.6371H29.4959L28.1263 19.5645H24.0173L22.6476 21.6371H19.9083C19.545 21.6371 19.1967 21.7826 18.9398 22.0418C18.6829 22.3009 18.5386 22.6523 18.5386 23.0188V30.6184C18.5386 30.9848 18.6829 31.3363 18.9398 31.5954C19.1967 31.8545 19.545 32.0001 19.9083 32.0001H32.2353C32.5985 32.0001 32.9469 31.8545 33.2038 31.5954ZM23.8212 26.38C23.8212 25.1373 24.8286 24.1299 26.0714 24.1299C27.3141 24.1299 28.3216 25.1373 28.3216 26.38C28.3216 27.6228 27.3141 28.6302 26.0714 28.6302C24.8286 28.6302 23.8212 27.6228 23.8212 26.38ZM26.0714 23.1299C24.2764 23.1299 22.8212 24.585 22.8212 26.38C22.8212 28.1751 24.2764 29.6302 26.0714 29.6302C27.8664 29.6302 29.3216 28.1751 29.3216 26.38C29.3216 24.585 27.8664 23.1299 26.0714 23.1299Z" fill="white"/>
</g>
<defs>
<clipPath id="clip0_13102_231307">
<rect width="24" height="24" fill="white" transform="translate(14 14)"/>
</clipPath>
</defs>
</svg>
