<svg width="134" height="134" viewBox="0 0 134 134" fill="none" xmlns="http://www.w3.org/2000/svg">
<path fill-rule="evenodd" clip-rule="evenodd" d="M67 133.5C103.727 133.5 133.5 103.727 133.5 67C133.5 30.2731 103.727 0.5 67 0.5C50.5224 0.5 44.259 20.2636 32.6417 30.1887C18.365 42.3858 0.5 46.7506 0.5 67C0.5 103.727 30.2731 133.5 67 133.5Z" fill="#E7EAED"/>
<g filter="url(#filter0_f_153265_9557)">
<path d="M91.0527 18.7002H22.6458C20.4662 18.7002 18.6992 20.2399 18.6992 22.1393V94.3611C18.6992 96.2604 20.4662 97.8002 22.6458 97.8002H91.0527C93.2323 97.8002 94.9992 96.2604 94.9992 94.3611V22.1393C94.9992 20.2399 93.2323 18.7002 91.0527 18.7002Z" fill="white"/>
<path d="M91.0527 18.7002H22.6458C20.4662 18.7002 18.6992 20.2399 18.6992 22.1393V94.3611C18.6992 96.2604 20.4662 97.8002 22.6458 97.8002H91.0527C93.2323 97.8002 94.9992 96.2604 94.9992 94.3611V22.1393C94.9992 20.2399 93.2323 18.7002 91.0527 18.7002Z" fill="#E1EAEF"/>
</g>
<rect x="25.6992" y="18.7002" width="60.9" height="78.4" rx="5.6" fill="white"/>
<rect x="34.7988" y="29.9004" width="42.7" height="4.2" rx="2.1" fill="#A7A9AC"/>
<rect x="34.7988" y="41.7998" width="42.7" height="3.5" rx="1.75" fill="#A7A9AC"/>
<rect x="34.7988" y="53" width="25.2" height="4.2" rx="2.1" fill="#A7A9AC"/>
<circle cx="86.2956" cy="79.2951" r="23.356" transform="rotate(-39.8959 86.2956 79.2951)" fill="white" stroke="#A7A9AC" stroke-width="4.40679"/>
<rect x="97.0469" y="99.0264" width="8.81357" height="6.61018" rx="0.881357" transform="rotate(-39.8959 97.0469 99.0264)" fill="#A7A9AC"/>
<path d="M103.549 106.803C103.016 106.165 102.749 105.846 102.782 105.483C102.814 105.119 103.133 104.853 103.77 104.32L107.827 100.928C108.465 100.395 108.784 100.128 109.147 100.161C109.511 100.193 109.777 100.512 110.31 101.15L123.595 117.04C125.156 118.907 124.908 121.686 123.04 123.247C121.173 124.808 118.394 124.56 116.833 122.693L103.549 106.803Z" fill="#C4C3C3"/>
<rect x="93.0137" y="69.6865" width="4" height="23" rx="2" transform="rotate(45 93.0137 69.6865)" fill="#A7A9AC"/>
<rect x="95.8418" y="85.9502" width="4" height="23" rx="2" transform="rotate(135 95.8418 85.9502)" fill="#A7A9AC"/>
<defs>
<filter id="filter0_f_153265_9557" x="1.0496" y="1.05058" width="111.6" height="114.399" filterUnits="userSpaceOnUse" color-interpolation-filters="sRGB">
<feFlood flood-opacity="0" result="BackgroundImageFix"/>
<feBlend mode="normal" in="SourceGraphic" in2="BackgroundImageFix" result="shape"/>
<feGaussianBlur stdDeviation="8.82481" result="effect1_foregroundBlur_153265_9557"/>
</filter>
</defs>
</svg>
