<svg width="15" height="14" viewBox="0 0 15 14" fill="none" xmlns="http://www.w3.org/2000/svg">
<path d="M10.6571 8.80503H10.0247L9.80059 8.58891C10.585 7.67639 11.0573 6.49171 11.0573 5.20297C11.0573 2.32933 8.72798 0 5.85434 0C2.9807 0 0.651367 2.32933 0.651367 5.20297C0.651367 8.07662 2.9807 10.4059 5.85434 10.4059C7.14308 10.4059 8.32775 9.93368 9.24027 9.14923L9.4564 9.37336V10.0057L13.4587 14L14.6514 12.8073L10.6571 8.80503ZM5.85434 8.80503C3.8612 8.80503 2.25228 7.19611 2.25228 5.20297C2.25228 3.20983 3.8612 1.60091 5.85434 1.60091C7.84748 1.60091 9.4564 3.20983 9.4564 5.20297C9.4564 7.19611 7.84748 8.80503 5.85434 8.80503Z" fill="#646464"/>
</svg>
