<svg width="18" height="18" viewBox="0 0 18 18" fill="none" xmlns="http://www.w3.org/2000/svg">
<path fill-rule="evenodd" clip-rule="evenodd" d="M12.8637 13.7117C11.5971 14.7856 9.95769 15.4332 8.16706 15.4332C4.15379 15.4332 0.900391 12.1798 0.900391 8.16657C0.900391 4.1533 4.15379 0.899902 8.16706 0.899902C12.1803 0.899902 15.4337 4.1533 15.4337 8.16657C15.4337 9.9572 14.7861 11.5966 13.7122 12.8632L16.9247 16.0756C17.159 16.31 17.159 16.6899 16.9247 16.9242C16.6903 17.1585 16.3104 17.1585 16.0761 16.9242L12.8637 13.7117ZM2.10039 8.16657C2.10039 4.81604 4.81653 2.0999 8.16706 2.0999C11.5176 2.0999 14.2337 4.81604 14.2337 8.16657C14.2337 9.80795 13.5819 11.2971 12.5229 12.3892C12.4978 12.4075 12.4738 12.428 12.4511 12.4506C12.4285 12.4733 12.408 12.4973 12.3897 12.5224C11.2976 13.5814 9.80844 14.2332 8.16706 14.2332C4.81653 14.2332 2.10039 11.5171 2.10039 8.16657Z" fill="#646464"/>
</svg>
