<svg width="16" height="16" viewBox="0 0 16 16" fill="none" xmlns="http://www.w3.org/2000/svg">
<path d="M2.52991 2.1203L13.7947 7.67107C13.9764 7.76061 14.0512 7.98052 13.9616 8.16225C13.9259 8.23476 13.8672 8.29343 13.7947 8.32916L2.53014 13.8798C2.34841 13.9694 2.1285 13.8946 2.03896 13.7129C1.9998 13.6334 1.99072 13.5425 2.0134 13.4569L3.12947 9.24228C3.16638 9.10289 3.28152 8.99806 3.42374 8.97435L8.47194 8.13263C8.53378 8.12232 8.58492 8.08149 8.6095 8.02599L8.6227 7.98187C8.63698 7.89622 8.58943 7.81456 8.51263 7.78249L8.47194 7.7708L3.39523 6.92468C3.25296 6.90097 3.13778 6.79607 3.10091 6.65663L2.01315 2.54317C1.96133 2.34732 2.07809 2.14654 2.27394 2.09472C2.35956 2.07207 2.45047 2.08116 2.52991 2.1203Z" fill="white"/>
</svg>
