<svg width="20" height="20" viewBox="0 0 20 20" fill="none" xmlns="http://www.w3.org/2000/svg">
  <path fill-rule="evenodd" clip-rule="evenodd" d="M5.11543 4.13514C4.86041 4.13514 4.61584 4.2348 4.43552 4.4122C4.2552 4.5896 4.15389 4.8302 4.15389 5.08108V12.6487C4.15389 12.8995 4.2552 13.1402 4.43552 13.3176C4.61584 13.4949 4.86041 13.5946 5.11543 13.5946H9.61765C9.93626 13.5946 10.1946 13.8487 10.1946 14.1622C10.1946 14.4756 9.93626 14.7297 9.61765 14.7297H5.11543C4.55439 14.7297 4.01634 14.5105 3.61964 14.1202C3.22292 13.7299 3.00006 13.2006 3.00006 12.6487V5.08108C3.00006 4.52914 3.22292 3.99981 3.61964 3.60954C4.01634 3.21926 4.55439 3 5.11543 3H15.8846C16.4456 3 16.9836 3.21926 17.3803 3.60954C17.7771 3.99981 17.9999 4.52914 17.9999 5.08108V9.88177C17.9999 10.1952 17.7416 10.4493 17.423 10.4493C17.1044 10.4493 16.8461 10.1952 16.8461 9.88177V5.08108C16.8461 4.8302 16.7448 4.5896 16.5645 4.4122C16.3842 4.2348 16.1396 4.13514 15.8846 4.13514H5.11543Z" fill="#646464"/>
  <path fill-rule="evenodd" clip-rule="evenodd" d="M3.09696 4.76624C3.27369 4.50543 3.63188 4.43495 3.897 4.60882L10.5 8.93948L17.103 4.60882C17.3681 4.43495 17.7263 4.50543 17.903 4.76624C18.0798 5.02705 18.0082 5.37944 17.743 5.55332L10.82 10.0938C10.6262 10.221 10.3738 10.221 10.18 10.0938L3.25696 5.55332C2.99185 5.37944 2.92021 5.02705 3.09696 4.76624Z" fill="#646464"/>
  <path fill-rule="evenodd" clip-rule="evenodd" d="M12.2308 14.1622C12.2308 13.8487 12.4891 13.5946 12.8077 13.5946H17.423C17.7416 13.5946 17.9999 13.8487 17.9999 14.1622C17.9999 14.4756 17.7416 14.7297 17.423 14.7297H12.8077C12.4891 14.7297 12.2308 14.4756 12.2308 14.1622Z" fill="#646464"/>
  <path fill-rule="evenodd" clip-rule="evenodd" d="M14.7074 11.4906C14.9327 11.2689 15.298 11.2689 15.5233 11.4906L17.8309 13.7609C18.0562 13.9825 18.0562 14.3418 17.8309 14.5635L15.5233 16.8338C15.298 17.0554 14.9327 17.0554 14.7074 16.8338C14.4821 16.6121 14.4821 16.2528 14.7074 16.0311L16.6071 14.1622L14.7074 12.2932C14.4821 12.0716 14.4821 11.7123 14.7074 11.4906Z" fill="#646464"/>
</svg>
