<svg xmlns="http://www.w3.org/2000/svg" width="45" height="45" viewBox="0 0 45 45" fill="none">
  <g clip-path="url(#clip0_26039_209776)">
    <path d="M43.9944 25.3789L36.0127 17.3972C35.6771 17.0617 35.1329 17.0617 34.7973 17.3972C34.4617 17.7328 34.4617 18.2769 34.7973 18.6126L41.1336 24.9489H26.0237C24.7702 24.9489 23.7505 23.9291 23.7505 22.6757V7.56585L29.8678 13.6831C30.2034 14.0186 30.7476 14.0186 31.0832 13.6831C31.4188 13.3475 31.4188 12.8033 31.0832 12.4676L23.3205 4.70499C22.9849 4.36949 22.4408 4.36949 22.1052 4.70499L8.40501 18.4054C8.06942 18.741 8.06942 19.2852 8.40501 19.6208L29.0789 40.2946C29.2401 40.4558 29.4587 40.5463 29.6866 40.5463C29.9145 40.5463 30.1331 40.4558 30.2942 40.2946L43.9945 26.5943C44.1556 26.4331 44.2461 26.2145 44.2461 25.9866C44.2461 25.7587 44.1555 25.5401 43.9944 25.3789ZM22.0319 7.20913V18.1538H11.0873L22.0319 7.20913ZM28.8272 37.6122L11.0873 19.8724H22.0319V22.6757C22.0319 24.8768 23.8227 26.6676 26.0238 26.6676H28.8272V37.6122ZM30.5459 37.6123V26.6676H41.4904L30.5459 37.6123Z" fill="#646464"/>
    <path d="M1.10547 22.3279H8.39663C8.87127 22.3279 9.25601 22.7127 9.25601 23.1872C9.25601 23.6619 8.87127 24.0466 8.39663 24.0466H1.10547C0.630836 24.0466 0.246094 23.6618 0.246094 23.1872C0.246094 22.7127 0.630836 22.3279 1.10547 22.3279Z" fill="#646464"/>
    <path d="M1.10659 13.3047H9.61871C10.0933 13.3047 10.4781 13.6895 10.4781 14.1641C10.4781 14.6386 10.0933 15.0234 9.61871 15.0234H1.10659C0.631953 15.0234 0.247211 14.6386 0.247211 14.1641C0.247211 13.6895 0.631953 13.3047 1.10659 13.3047Z" fill="#646464"/>
    <path d="M6.97354 27.0543H11.786C12.2605 27.0543 12.6453 27.4392 12.6453 27.9137C12.6453 28.3883 12.2606 28.7731 11.786 28.7731H6.97354C6.49891 28.7731 6.11416 28.3883 6.11416 27.9137C6.11416 27.4392 6.49891 27.0543 6.97354 27.0543Z" fill="#646464"/>
    <path d="M3.42655 32.5542H15.5437C16.0183 32.5542 16.403 32.939 16.403 33.4135C16.403 33.8881 16.0183 34.2729 15.5437 34.2729H3.42655C2.95192 34.2729 2.56718 33.8881 2.56718 33.4135C2.56718 32.939 2.95192 32.5542 3.42655 32.5542Z" fill="#646464"/>
    <path d="M36.2076 17.5903L31.0234 12.4014L29.8711 13.6865L35.0039 18.8193L36.2076 17.5903Z" fill="#646464"/>
  </g>
  <defs>
    <clipPath id="clip0_26039_209776">
      <rect width="44" height="44" fill="white" transform="translate(0.246094 0.5)"/>
    </clipPath>
  </defs>
</svg>
