<svg width="24" height="24" viewBox="0 0 24 24" fill="none" xmlns="http://www.w3.org/2000/svg">
<circle cx="12" cy="12" r="11.5" fill="white" stroke="#28ad99"/>
<path fill-rule="evenodd" clip-rule="evenodd" d="M16.686 7.73521C16.6909 7.72099 16.6956 7.70324 16.6987 7.68845C16.7038 7.6644 16.7057 7.6429 16.7057 7.61791C16.7057 7.58981 16.7024 7.56206 16.6961 7.53519C16.6873 7.49803 16.6726 7.46199 16.6519 7.4286C16.6372 7.40464 16.6198 7.38281 16.6003 7.36337C16.5809 7.34385 16.559 7.32643 16.535 7.31161C16.5171 7.3006 16.4981 7.29103 16.478 7.28311C16.459 7.27561 16.4362 7.26907 16.4162 7.26485C16.3921 7.25979 16.3706 7.25781 16.3456 7.25781C16.3175 7.25781 16.2898 7.26112 16.2629 7.26749C16.2499 7.27055 16.2371 7.27433 16.2244 7.27885L7.086 10.325C6.94221 10.3729 6.84385 10.5058 6.83996 10.6573C6.83608 10.8088 6.92751 10.9465 7.06866 11.0018L11.3043 12.6592L12.9618 16.8949C13.017 17.036 13.1547 17.1275 13.3063 17.1236C13.4578 17.1197 13.5906 17.0213 13.6386 16.8776L16.686 7.73521ZM15.0128 8.44168L8.25699 10.6936L11.4941 11.9603L15.0128 8.44168ZM12.0032 12.4694L13.2699 15.7066L15.5219 8.9508L12.0032 12.4694Z" fill="#28ad99"/>
</svg>
