<svg width="16" height="16" viewBox="0 0 16 16" fill="none" xmlns="http://www.w3.org/2000/svg">
<path d="M2.53003 2.1203L13.7948 7.67107C13.9765 7.76061 14.0513 7.98052 13.9617 8.16225C13.926 8.23476 13.8673 8.29343 13.7948 8.32916L2.53026 13.8798C2.34853 13.9694 2.12862 13.8946 2.03908 13.7129C1.99992 13.6334 1.99084 13.5425 2.01352 13.4569L3.12959 9.24228C3.1665 9.10289 3.28164 8.99806 3.42386 8.97435L8.47206 8.13263C8.53391 8.12232 8.58504 8.08149 8.60962 8.02599L8.62283 7.98187C8.6371 7.89622 8.58955 7.81456 8.51275 7.78249L8.47206 7.7708L3.39536 6.92468C3.25308 6.90097 3.1379 6.79607 3.10103 6.65663L2.01327 2.54317C1.96145 2.34732 2.07821 2.14654 2.27407 2.09472C2.35968 2.07207 2.45059 2.08116 2.53003 2.1203Z" fill="#28ad99"/>
</svg>
