<svg width="36" height="36" viewBox="0 0 36 36" fill="none" xmlns="http://www.w3.org/2000/svg">
<rect width="36" height="36" rx="6" fill="#F2F5F7"/>
<path d="M17.9583 20.074C20.7604 20.074 23.1531 20.5183 23.1531 22.296C23.1531 24.0729 20.7758 24.5333 17.9583 24.5333C15.1562 24.5333 12.7635 24.0891 12.7635 22.3121C12.7635 20.5345 15.1408 20.074 17.9583 20.074ZM22.4386 19.0036C23.5099 18.9837 24.6616 19.1308 25.0871 19.2353C25.9888 19.4125 26.5818 19.7744 26.8275 20.3003C27.0352 20.732 27.0352 21.2329 26.8275 21.6639C26.4517 22.4795 25.24 22.7414 24.7691 22.809C24.6718 22.8238 24.5936 22.7392 24.6038 22.6414C24.8444 20.3812 22.9307 19.3096 22.4357 19.0632C22.4144 19.0521 22.4101 19.0352 22.4123 19.0249C22.4137 19.0176 22.4225 19.0058 22.4386 19.0036ZM13.5618 19.0039C13.5779 19.0061 13.586 19.0179 13.5874 19.0245C13.5896 19.0355 13.5852 19.0517 13.5648 19.0635C13.069 19.3099 11.1553 20.3815 11.3959 22.6409C11.4061 22.7395 11.3286 22.8233 11.2314 22.8093C10.7604 22.7417 9.54877 22.4798 9.17291 21.6642C8.9645 21.2324 8.9645 20.7323 9.17291 20.3006C9.4186 19.7747 10.0109 19.4128 10.9125 19.2348C11.3389 19.1311 12.4898 18.984 13.5618 19.0039ZM17.9583 11.4667C19.8661 11.4667 21.3959 13.0039 21.3959 14.9235C21.3959 16.8424 19.8661 18.3811 17.9583 18.3811C16.0505 18.3811 14.5207 16.8424 14.5207 14.9235C14.5207 13.0039 16.0505 11.4667 17.9583 11.4667ZM22.625 12.0432C24.4678 12.0432 25.9149 13.787 25.4221 15.7295C25.0893 17.0372 23.885 17.9058 22.5431 17.8705C22.4086 17.8668 22.2762 17.8543 22.1483 17.8322C22.0554 17.8161 22.0086 17.7109 22.0613 17.6329C22.5731 16.8754 22.8649 15.9641 22.8649 14.9859C22.8649 13.965 22.5461 13.0133 21.9925 12.2329C21.975 12.2086 21.9618 12.1711 21.9794 12.1432C21.994 12.1204 22.021 12.1086 22.0466 12.1027C22.2331 12.0645 22.4247 12.0432 22.625 12.0432ZM13.3743 12.0431C13.5746 12.0431 13.7662 12.0644 13.9534 12.1027C13.9783 12.1085 14.0061 12.121 14.0207 12.1431C14.0375 12.1711 14.0251 12.2086 14.0075 12.2328C13.454 13.0132 13.1352 13.9649 13.1352 14.9858C13.1352 15.964 13.4269 16.8753 13.9388 17.6328C13.9914 17.7108 13.9446 17.816 13.8518 17.8322C13.7231 17.855 13.5915 17.8667 13.4569 17.8704C12.1151 17.9057 10.9107 17.0371 10.578 15.7294C10.0844 13.7869 11.5315 12.0431 13.3743 12.0431Z" fill="#D8DCDF"/>
</svg>
