<svg width="12" height="12" viewBox="0 0 12 12" fill="none" xmlns="http://www.w3.org/2000/svg">
<path d="M0.53003 0.11981L11.7948 5.67058C11.9765 5.76012 12.0513 5.98003 11.9617 6.16176C11.926 6.23427 11.8673 6.29294 11.7948 6.32867L0.530261 11.8793C0.348534 11.9689 0.128624 11.8941 0.0390773 11.7124C-7.89553e-05 11.6329 -0.00915649 11.542 0.0135228 11.4564L1.12959 7.24179C1.1665 7.10241 1.28164 6.99757 1.42386 6.97386L6.47206 6.13214C6.53391 6.12183 6.58504 6.081 6.60962 6.0255L6.62283 5.98138C6.6371 5.89573 6.58955 5.81407 6.51275 5.782L6.47206 5.77031L1.39536 4.92419C1.25308 4.90048 1.1379 4.79558 1.10103 4.65614L0.0132689 0.542681C-0.0385492 0.346828 0.0782139 0.146052 0.274067 0.0942336C0.359678 0.0715829 0.450593 0.0806675 0.53003 0.11981Z" fill="#28ad99"/>
</svg>
