<svg width="20" height="21" viewBox="0 0 20 21" fill="none" xmlns="http://www.w3.org/2000/svg">
<path fill-rule="evenodd" clip-rule="evenodd" d="M17.4485 11.3572C17.4711 11.3462 17.4975 11.3308 17.5186 11.317C17.5529 11.2946 17.5806 11.2716 17.61 11.2422C17.6431 11.2091 17.6719 11.1725 17.6961 11.1333C17.7296 11.0792 17.7547 11.0194 17.7697 10.9557C17.7805 10.91 17.7858 10.8638 17.7858 10.818C17.7858 10.772 17.7806 10.7257 17.7697 10.6799C17.7617 10.6459 17.7505 10.6122 17.7362 10.5792C17.7227 10.548 17.7035 10.5134 17.6849 10.4848C17.6625 10.4505 17.6395 10.4229 17.61 10.3934C17.5769 10.3603 17.5403 10.3315 17.5011 10.3073C17.4822 10.2956 17.4626 10.2849 17.4423 10.2753L3.08272 3.09552C2.85678 2.98255 2.58428 3.0232 2.40114 3.19719C2.218 3.37117 2.16345 3.64124 2.2647 3.87267L5.30316 10.8178L2.26468 17.7629C2.16343 17.9943 2.21798 18.2644 2.40112 18.4384C2.58426 18.6124 2.85676 18.653 3.0827 18.5401L17.4485 11.3572ZM14.644 10.2178L4.02833 4.90997L6.35048 10.2178L14.644 10.2178ZM6.35048 11.4178L4.02832 16.7256L14.644 11.4178H6.35048Z" fill="#646464"/>
</svg>
