<svg width="14" height="14" viewBox="0 0 14 14" fill="none" xmlns="http://www.w3.org/2000/svg">
<path d="M13.8687 9.02369C13.1454 8.60369 12.7021 7.83369 12.7021 7.00146C12.7021 6.16924 13.1454 5.39924 13.8687 4.97924C13.9932 4.90146 14.0399 4.74591 13.9621 4.62147L12.6632 2.38146C12.6165 2.29591 12.531 2.24925 12.4454 2.24925C12.3988 2.24925 12.3521 2.2648 12.3132 2.28813C11.9554 2.49036 11.551 2.59924 11.1465 2.59924C10.7343 2.59924 10.3299 2.49035 9.96431 2.28035C9.24097 1.86035 8.79764 1.09813 8.79764 0.265906C8.79764 0.118129 8.68099 0.00146484 8.54099 0.00146484H5.46097C5.32097 0.00146484 5.20431 0.118129 5.20431 0.265906C5.20431 1.09813 4.76098 1.86035 4.03765 2.28035C3.67209 2.49035 3.26765 2.59924 2.85543 2.59924C2.45099 2.59924 2.04654 2.49036 1.68876 2.28813C1.56432 2.21036 1.40876 2.25702 1.33876 2.38146L0.0320943 4.62147C0.00876099 4.66036 0.000976562 4.70703 0.000976562 4.74591C0.000976562 4.83925 0.0476537 4.92479 0.133209 4.97924C0.856543 5.39924 1.29988 6.16146 1.29988 6.99368C1.29988 7.83368 0.856526 8.60369 0.140971 9.02369H0.133209C0.00876479 9.10147 -0.0379218 9.25702 0.039856 9.38146L1.33876 11.6215C1.38542 11.707 1.47098 11.7537 1.55653 11.7537C1.6032 11.7537 1.64988 11.7381 1.68876 11.7148C2.41988 11.3026 3.31431 11.3026 4.03765 11.7226C4.7532 12.1426 5.19653 12.9048 5.19653 13.737C5.19653 13.8848 5.31319 14.0015 5.46097 14.0015H8.54099C8.68099 14.0015 8.79764 13.8848 8.79764 13.737C8.79764 12.9048 9.24097 12.1426 9.96431 11.7226C10.3299 11.5126 10.7343 11.4037 11.1465 11.4037C11.551 11.4037 11.9554 11.5126 12.3132 11.7148C12.4376 11.7926 12.5932 11.7459 12.6632 11.6215L13.9699 9.38146C13.9932 9.34257 14.001 9.29591 14.001 9.25702C14.001 9.16368 13.9543 9.07814 13.8687 9.02369ZM7.00098 9.3348C5.70987 9.3348 4.66764 8.29258 4.66764 7.00146C4.66764 5.71035 5.70987 4.66813 7.00098 4.66813C8.29209 4.66813 9.33431 5.71035 9.33431 7.00146C9.33431 8.29258 8.29209 9.3348 7.00098 9.3348Z" fill="white"/>
</svg>
