<svg width="24" height="24" viewBox="0 0 24 24" fill="none" xmlns="http://www.w3.org/2000/svg">
<g clip-path="url(#clip0_15484_10478)">
<path fill-rule="evenodd" clip-rule="evenodd" d="M12.0001 10.1001C10.9507 10.1001 10.1001 10.9507 10.1001 12.0001C10.1001 13.0494 10.9507 13.9001 12.0001 13.9001C13.0494 13.9001 13.9001 13.0494 13.9001 12.0001C13.9001 10.9507 13.0494 10.1001 12.0001 10.1001ZM8.90007 12.0001C8.90007 10.288 10.288 8.90007 12.0001 8.90007C13.7121 8.90007 15.1001 10.288 15.1001 12.0001C15.1001 13.7121 13.7121 15.1001 12.0001 15.1001C10.288 15.1001 8.90007 13.7121 8.90007 12.0001Z" fill="#202020"/>
<path fill-rule="evenodd" clip-rule="evenodd" d="M12.0001 3.4334C11.7172 3.4334 11.4459 3.54578 11.2458 3.74582C11.0458 3.94586 10.9334 4.21717 10.9334 4.50007V4.64173L10.9334 4.64412C10.9319 5.02929 10.8177 5.40561 10.6051 5.72674C10.3924 6.04788 10.0905 6.29982 9.73642 6.45155C9.67863 6.47632 9.61742 6.4918 9.55503 6.49754C9.22658 6.61735 8.8714 6.6481 8.52586 6.58544C8.13757 6.51504 7.77927 6.32993 7.49717 6.05398L7.49244 6.04936L7.44247 5.99933C7.3434 5.90015 7.22553 5.82124 7.09604 5.76756C6.96654 5.71388 6.82774 5.68625 6.68757 5.68625C6.54739 5.68625 6.40859 5.71388 6.2791 5.76756C6.1496 5.82124 6.03196 5.89992 5.9329 5.99909C5.83372 6.09816 5.75458 6.21627 5.7009 6.34576C5.64722 6.47525 5.61959 6.61406 5.61959 6.75423C5.61959 6.89441 5.64722 7.03321 5.7009 7.1627C5.75458 7.29219 5.83325 7.40983 5.93243 7.5089L5.98734 7.56381C6.26329 7.84592 6.44837 8.20424 6.51878 8.59253C6.58805 8.9746 6.54314 9.36847 6.38989 9.72494C6.25187 10.0894 6.00906 10.405 5.69186 10.6318C5.36953 10.8624 4.98529 10.9906 4.5891 10.9999L4.57507 11.0002L4.50007 11.0001C4.21717 11.0001 3.94586 11.1124 3.74582 11.3125C3.54578 11.5125 3.4334 11.7838 3.4334 12.0667C3.4334 12.3496 3.54578 12.6209 3.74582 12.821C3.94586 13.021 4.21717 13.1334 4.50007 13.1334H4.64412C5.02929 13.1349 5.40561 13.2491 5.72674 13.4617C6.04699 13.6738 6.29843 13.9747 6.45029 14.3274C6.60858 14.6877 6.65565 15.087 6.58544 15.4743C6.51504 15.8626 6.32993 16.2209 6.05398 16.503L6.04935 16.5077L5.99933 16.5577C5.90015 16.6567 5.82124 16.7746 5.76756 16.9041C5.71388 17.0336 5.68625 17.1724 5.68625 17.3126C5.68625 17.4527 5.71388 17.5915 5.76756 17.721C5.82124 17.8505 5.89992 17.9682 5.99909 18.0672C6.09816 18.1664 6.21627 18.2456 6.34576 18.2992C6.47525 18.3529 6.61406 18.3805 6.75423 18.3805C6.89441 18.3805 7.03321 18.3529 7.1627 18.2992C7.29219 18.2456 7.40983 18.1669 7.5089 18.0677L7.56381 18.0128C7.84592 17.7368 8.20424 17.5518 8.59253 17.4814C8.9746 17.4121 9.36847 17.457 9.72494 17.6102C10.0894 17.7483 10.405 17.9911 10.6318 18.3083C10.8624 18.6306 10.9906 19.0148 10.9999 19.411L11.0002 19.4251L11.0001 19.5001C11.0001 19.783 11.1124 20.0543 11.3125 20.2543C11.5125 20.4544 11.7838 20.5667 12.0667 20.5667C12.3496 20.5667 12.6209 20.4544 12.821 20.2543C13.021 20.0543 13.1334 19.783 13.1334 19.5001V19.3584L13.1334 19.356C13.1349 18.9708 13.2491 18.5945 13.4617 18.2734C13.6738 17.9531 13.9747 17.7017 14.3274 17.5499C14.6877 17.3916 15.087 17.3445 15.4743 17.4147C15.8626 17.4851 16.2209 17.6702 16.503 17.9461L16.5077 17.9508L16.5577 18.0008C16.6567 18.1 16.7746 18.1789 16.9041 18.2326C17.0336 18.2862 17.1724 18.3139 17.3126 18.3139C17.4527 18.3139 17.5915 18.2862 17.721 18.2326C17.8505 18.1789 17.9682 18.1002 18.0672 18.001C18.1664 17.902 18.2456 17.7839 18.2992 17.6544C18.3529 17.5249 18.3805 17.3861 18.3805 17.2459C18.3805 17.1057 18.3529 16.9669 18.2992 16.8374C18.2456 16.7079 18.1669 16.5903 18.0677 16.4912L18.0128 16.4363C17.7368 16.1542 17.5518 15.7959 17.4814 15.4076C17.4111 15.0204 17.4582 14.621 17.6165 14.2607C17.7684 13.908 18.0198 13.6072 18.3401 13.3951C18.6612 13.1824 19.0375 13.0683 19.4227 13.0667L19.4251 13.0667L19.5001 13.0667C19.783 13.0667 20.0543 12.9544 20.2543 12.7543C20.4544 12.5543 20.5667 12.283 20.5667 12.0001C20.5667 11.7172 20.4544 11.4459 20.2543 11.2458C20.0543 11.0458 19.783 10.9334 19.5001 10.9334H19.3584L19.356 10.9334C18.9708 10.9319 18.5945 10.8177 18.2734 10.6051C17.9523 10.3924 17.7003 10.0905 17.5486 9.73642C17.5238 9.67863 17.5083 9.61742 17.5026 9.55503C17.3828 9.22658 17.352 8.8714 17.4147 8.52586C17.4851 8.13757 17.6702 7.77927 17.9461 7.49717L17.9508 7.49244L18.0008 7.44247C18.1 7.3434 18.1789 7.22553 18.2326 7.09604C18.2862 6.96654 18.3139 6.82774 18.3139 6.68757C18.3139 6.54739 18.2862 6.40859 18.2326 6.2791C18.1789 6.14961 18.1002 6.03196 18.001 5.9329C17.902 5.83372 17.7839 5.75458 17.6544 5.7009C17.5249 5.64722 17.3861 5.61959 17.2459 5.61959C17.1057 5.61959 16.9669 5.64722 16.8374 5.7009C16.7079 5.75458 16.5903 5.83325 16.4912 5.93243L16.4363 5.98734C16.1542 6.26329 15.7959 6.44837 15.4076 6.51878C15.0204 6.58899 14.621 6.54191 14.2607 6.38361C13.908 6.23175 13.6072 5.98032 13.3951 5.66008C13.1824 5.33894 13.0683 4.96263 13.0667 4.57746L13.0667 4.57507V4.50007C13.0667 4.21717 12.9544 3.94586 12.7543 3.74582C12.5543 3.54578 12.283 3.4334 12.0001 3.4334ZM18.1667 14.5001L18.7157 14.7423C18.6531 14.884 18.6345 15.0411 18.6621 15.1935C18.6896 15.3449 18.7615 15.4847 18.8686 15.5951L18.9158 15.6422C19.1265 15.8527 19.2937 16.1027 19.4078 16.3779C19.5218 16.6531 19.5805 16.948 19.5805 17.2459C19.5805 17.5438 19.5218 17.8387 19.4078 18.1139C19.2937 18.389 19.1266 18.6389 18.916 18.8493C18.7055 19.06 18.4556 19.2271 18.1806 19.3411C17.9054 19.4552 17.6104 19.5139 17.3126 19.5139C17.0147 19.5139 16.7197 19.4552 16.4446 19.3411C16.1694 19.227 15.9194 19.0598 15.7089 18.8491L15.6618 18.802C15.5514 18.6948 15.4116 18.6229 15.2602 18.5954C15.1078 18.5678 14.9507 18.5865 14.809 18.649L14.8031 18.6516C14.6642 18.7111 14.5457 18.81 14.4622 18.936C14.379 19.0616 14.3342 19.2089 14.3334 19.3596V19.5001C14.3334 20.1012 14.0946 20.6778 13.6695 21.1028C13.2444 21.5279 12.6679 21.7667 12.0667 21.7667C11.4656 21.7667 10.889 21.5279 10.464 21.1028C10.0389 20.6778 9.80007 20.1012 9.80007 19.5001V19.4331C9.79529 19.2797 9.7451 19.1312 9.6558 19.0064C9.56533 18.8799 9.43891 18.7835 9.29296 18.7299C9.28109 18.7255 9.26937 18.7208 9.25781 18.7157C9.11614 18.6531 8.95899 18.6345 8.80662 18.6621C8.6552 18.6896 8.5154 18.7615 8.40502 18.8686L8.3579 18.9158C8.14739 19.1265 7.8974 19.2937 7.62223 19.4078C7.34706 19.5218 7.05211 19.5805 6.75423 19.5805C6.45636 19.5805 6.1614 19.5218 5.88623 19.4078C5.61107 19.2937 5.36108 19.1265 5.15057 18.9158C4.94004 18.7053 4.77302 18.4555 4.65904 18.1806C4.54497 17.9054 4.48625 17.6104 4.48625 17.3126C4.48625 17.0147 4.54497 16.7197 4.65904 16.4446C4.7731 16.1694 4.94029 15.9194 5.15104 15.7089L5.19815 15.6618C5.30533 15.5514 5.37724 15.4116 5.4047 15.2602C5.43232 15.1078 5.41367 14.9507 5.35115 14.809L5.34855 14.8031C5.28901 14.6642 5.19018 14.5457 5.06416 14.4622C4.93848 14.379 4.79126 14.3342 4.64054 14.3334H4.50007C3.89891 14.3334 3.32237 14.0946 2.89729 13.6695C2.47221 13.2444 2.2334 12.6679 2.2334 12.0667C2.2334 11.4656 2.47221 10.889 2.89729 10.464C3.32237 10.0389 3.89891 9.80007 4.50007 9.80007H4.56705C4.72039 9.79529 4.86891 9.7451 4.99377 9.6558C5.12025 9.56534 5.2166 9.43891 5.27028 9.29296C5.27464 9.28109 5.27938 9.26937 5.28448 9.25781C5.347 9.11614 5.36566 8.95899 5.33803 8.80662C5.31057 8.65518 5.23865 8.51537 5.13146 8.40499L5.08437 8.3579C4.87362 8.14739 4.70644 7.8974 4.59237 7.62223C4.4783 7.34706 4.41959 7.05211 4.41959 6.75423C4.41959 6.45636 4.4783 6.1614 4.59237 5.88623C4.70639 5.61117 4.8735 5.36126 5.08413 5.1508C5.2946 4.94017 5.5445 4.77306 5.81957 4.65904C6.09474 4.54497 6.38969 4.48625 6.68757 4.48625C6.98544 4.48625 7.28039 4.54497 7.55556 4.65904C7.83073 4.7731 8.08072 4.94029 8.29123 5.15104L8.33832 5.19812C8.4487 5.30531 8.58852 5.37724 8.73995 5.4047C8.89232 5.43232 9.04947 5.41367 9.19114 5.35115C9.24128 5.32902 9.29409 5.31392 9.34808 5.30616C9.45067 5.24649 9.53857 5.16382 9.60456 5.06416C9.68783 4.93843 9.7326 4.79115 9.7334 4.64036V4.50007C9.7334 3.89891 9.97221 3.32237 10.3973 2.89729C10.8224 2.47221 11.3989 2.2334 12.0001 2.2334C12.6012 2.2334 13.1778 2.47221 13.6028 2.89729C14.0279 3.32237 14.2667 3.89891 14.2667 4.50007V4.57387C14.2676 4.7246 14.3123 4.87182 14.3956 4.9975C14.479 5.12351 14.5975 5.22237 14.7364 5.28191L14.7423 5.28445C14.884 5.34697 15.0411 5.36566 15.1935 5.33803C15.3449 5.31057 15.4847 5.23866 15.5951 5.13148L15.6422 5.08437C15.8527 4.87362 16.1027 4.70644 16.3779 4.59237C16.6531 4.4783 16.948 4.41959 17.2459 4.41959C17.5438 4.41959 17.8387 4.4783 18.1139 4.59237C18.3889 4.70635 18.6387 4.87337 18.8491 5.0839C19.0598 5.29441 19.227 5.5444 19.3411 5.81957C19.4552 6.09474 19.5139 6.38969 19.5139 6.68757C19.5139 6.98544 19.4552 7.2804 19.3411 7.55556C19.227 7.83073 19.0598 8.08072 18.8491 8.29123L18.802 8.33832C18.6948 8.4487 18.6229 8.58851 18.5954 8.73995C18.5678 8.89232 18.5865 9.04947 18.649 9.19114C18.6711 9.24128 18.6862 9.29409 18.694 9.34807C18.7536 9.45067 18.8363 9.53857 18.936 9.60456C19.0617 9.68783 19.209 9.7326 19.3598 9.7334H19.5001C20.1012 9.7334 20.6778 9.97221 21.1028 10.3973C21.5279 10.8224 21.7667 11.3989 21.7667 12.0001C21.7667 12.6012 21.5279 13.1778 21.1028 13.6028C20.6778 14.0279 20.1012 14.2667 19.5001 14.2667H19.4263C19.2755 14.2676 19.1283 14.3123 19.0026 14.3956C18.8766 14.479 18.7778 14.5975 18.7182 14.7364L18.1667 14.5001Z" fill="#202020"/>
</g>
<defs>
<clipPath id="clip0_15484_10478">
<rect width="20" height="20" fill="white" transform="translate(2 2)"/>
</clipPath>
</defs>
</svg>
