<svg width="20" height="20" viewBox="0 0 20 20" color="currentColor" fill="none" xmlns="http://www.w3.org/2000/svg">
<g clip-path="url(#clip0_23601_74051)">
<path fill-rule="evenodd" clip-rule="evenodd" d="M10 8.05461C8.92559 8.05461 8.05461 8.92559 8.05461 10C8.05461 11.0744 8.92559 11.9454 10 11.9454C11.0744 11.9454 11.9454 11.0744 11.9454 10C11.9454 8.92559 11.0744 8.05461 10 8.05461ZM6.82594 10C6.82594 8.24701 8.24701 6.82594 10 6.82594C11.753 6.82594 13.1741 8.24701 13.1741 10C13.1741 11.753 11.753 13.1741 10 13.1741C8.24701 13.1741 6.82594 11.753 6.82594 10Z" fill="currentColor"/>
<path fill-rule="evenodd" clip-rule="evenodd" d="M10 1.22867C9.71034 1.22867 9.43255 1.34373 9.22773 1.54855C9.02292 1.75337 8.90785 2.03116 8.90785 2.32082V2.46587L8.90785 2.46832C8.90627 2.86269 8.78942 3.248 8.57166 3.5768C8.35391 3.90561 8.04476 4.16357 7.68228 4.31893C7.62311 4.34429 7.56043 4.36014 7.49655 4.36602C7.16026 4.48869 6.79659 4.52017 6.4428 4.45602C6.04523 4.38393 5.67837 4.1944 5.38953 3.91186L5.38469 3.90712L5.33352 3.8559C5.23209 3.75436 5.11139 3.67356 4.97881 3.6186C4.84622 3.56364 4.70411 3.53535 4.56058 3.53535C4.41706 3.53535 4.27494 3.56364 4.14235 3.6186C4.00977 3.67356 3.88932 3.75412 3.78788 3.85566C3.68634 3.95709 3.6053 4.07803 3.55034 4.21061C3.49538 4.3432 3.46709 4.48531 3.46709 4.62884C3.46709 4.77236 3.49538 4.91448 3.55034 5.04707C3.6053 5.17965 3.68586 5.3001 3.7874 5.40154L3.84363 5.45776C4.12617 5.7466 4.31567 6.11349 4.38776 6.51105C4.45869 6.90225 4.41271 7.30553 4.25579 7.67052C4.11448 8.04366 3.86586 8.36681 3.54109 8.59909C3.21105 8.83515 2.81763 8.96645 2.41198 8.97594L2.39761 8.97628L2.32082 8.97611C2.03116 8.97611 1.75337 9.09118 1.54855 9.29599C1.34373 9.50081 1.22867 9.7786 1.22867 10.0683C1.22867 10.3579 1.34373 10.6357 1.54855 10.8405C1.75337 11.0453 2.03116 11.1604 2.32082 11.1604H2.46832C2.86269 11.162 3.248 11.2788 3.5768 11.4966C3.9047 11.7137 4.16214 12.0218 4.31764 12.383C4.47971 12.7518 4.52791 13.1607 4.45602 13.5572C4.38393 13.9548 4.1944 14.3216 3.91186 14.6105L3.90712 14.6153L3.8559 14.6665C3.75436 14.7679 3.67356 14.8886 3.6186 15.0212C3.56364 15.1538 3.53535 15.2959 3.53535 15.4394C3.53535 15.5829 3.56364 15.7251 3.6186 15.8576C3.67356 15.9902 3.75412 16.1107 3.85566 16.2121C3.95709 16.3137 4.07802 16.3947 4.21061 16.4497C4.3432 16.5046 4.48532 16.5329 4.62884 16.5329C4.77236 16.5329 4.91448 16.5046 5.04707 16.4497C5.17965 16.3947 5.30011 16.3141 5.40154 16.2126L5.45776 16.1564C5.7466 15.8738 6.11349 15.6843 6.51105 15.6122C6.90225 15.5413 7.30553 15.5873 7.67052 15.7442C8.04366 15.8855 8.36681 16.1341 8.59909 16.4589C8.83515 16.7889 8.96645 17.1824 8.97594 17.588L8.97628 17.6024L8.97611 17.6792C8.97611 17.9688 9.09118 18.2466 9.29599 18.4514C9.50081 18.6563 9.7786 18.7713 10.0683 18.7713C10.3579 18.7713 10.6357 18.6563 10.8405 18.4514C11.0453 18.2466 11.1604 17.9688 11.1604 17.6792V17.5341L11.1604 17.5317C11.162 17.1373 11.2788 16.752 11.4966 16.4232C11.7137 16.0953 12.0218 15.8379 12.383 15.6824C12.7518 15.5203 13.1607 15.4721 13.5572 15.544C13.9548 15.6161 14.3216 15.8056 14.6105 16.0881L14.6153 16.0929L14.6665 16.1441C14.7679 16.2456 14.8886 16.3264 15.0212 16.3814C15.1538 16.4364 15.2959 16.4647 15.4394 16.4647C15.5829 16.4647 15.7251 16.4364 15.8576 16.3814C15.9902 16.3264 16.1107 16.2459 16.2121 16.1443C16.3137 16.0429 16.3947 15.922 16.4497 15.7894C16.5046 15.6568 16.5329 15.5147 16.5329 15.3712C16.5329 15.2276 16.5046 15.0855 16.4497 14.9529C16.3947 14.8203 16.3141 14.6999 16.2126 14.5985L16.1564 14.5422C15.8738 14.2534 15.6843 13.8865 15.6122 13.4889C15.5403 13.0925 15.5886 12.6836 15.7506 12.3147C15.9061 11.9535 16.1636 11.6455 16.4915 11.4283C16.8203 11.2106 17.2056 11.0937 17.5999 11.0922L17.6024 11.0921L17.6792 11.0922C17.9688 11.0922 18.2466 10.9771 18.4514 10.7723C18.6563 10.5674 18.7713 10.2897 18.7713 10C18.7713 9.71034 18.6563 9.43255 18.4514 9.22773C18.2466 9.02292 17.9688 8.90785 17.6792 8.90785H17.5341L17.5317 8.90785C17.1373 8.90627 16.752 8.78942 16.4232 8.57166C16.0944 8.35391 15.8364 8.04476 15.6811 7.68228C15.6557 7.62311 15.6399 7.56043 15.634 7.49655C15.5113 7.16026 15.4798 6.79658 15.544 6.4428C15.6161 6.04523 15.8056 5.67837 16.0881 5.38953L16.0929 5.38469L16.1441 5.33352C16.2456 5.23209 16.3264 5.11139 16.3814 4.97881C16.4364 4.84622 16.4647 4.7041 16.4647 4.56058C16.4647 4.41706 16.4364 4.27494 16.3814 4.14235C16.3264 4.00977 16.2459 3.88932 16.1443 3.78788C16.0429 3.68634 15.922 3.6053 15.7894 3.55034C15.6568 3.49538 15.5147 3.46709 15.3712 3.46709C15.2276 3.46709 15.0855 3.49538 14.9529 3.55034C14.8203 3.6053 14.6999 3.68586 14.5985 3.7874L14.5422 3.84363C14.2534 4.12617 13.8865 4.31567 13.4889 4.38776C13.0925 4.45965 12.6836 4.41144 12.3147 4.24936C11.9535 4.09387 11.6455 3.83643 11.4283 3.50854C11.2106 3.17974 11.0937 2.79443 11.0922 2.40006L11.0922 2.39761V2.32082C11.0922 2.03116 10.9771 1.75337 10.7723 1.54855C10.5674 1.34373 10.2897 1.22867 10 1.22867ZM16.314 12.5597L16.876 12.8078C16.812 12.9528 16.7929 13.1137 16.8212 13.2697C16.8493 13.4248 16.9229 13.5679 17.0327 13.6809L17.0809 13.7292C17.2967 13.9447 17.4679 14.2007 17.5847 14.4824C17.7015 14.7642 17.7616 15.0662 17.7616 15.3712C17.7616 15.6762 17.7015 15.9782 17.5847 16.2599C17.4679 16.5415 17.2968 16.7974 17.0812 17.0129C16.8657 17.2286 16.6098 17.3997 16.3282 17.5164C16.0464 17.6332 15.7444 17.6933 15.4394 17.6933C15.1344 17.6933 14.8324 17.6332 14.5507 17.5164C14.2689 17.3996 14.013 17.2284 13.7974 17.0127L13.7492 16.9644C13.6362 16.8547 13.4931 16.7811 13.338 16.7529C13.182 16.7247 13.0211 16.7437 12.876 16.8078L12.87 16.8104C12.7278 16.8714 12.6064 16.9726 12.521 17.1016C12.4358 17.2303 12.3899 17.381 12.3891 17.5354V17.6792C12.3891 18.2947 12.1446 18.885 11.7093 19.3202C11.2741 19.7555 10.6838 20 10.0683 20C9.45274 20 8.86243 19.7555 8.42719 19.3202C7.99195 18.885 7.74744 18.2947 7.74744 17.6792V17.6106C7.74255 17.4536 7.69116 17.3015 7.59973 17.1737C7.5071 17.0442 7.37765 16.9455 7.22822 16.8906C7.21607 16.8861 7.20407 16.8813 7.19223 16.876C7.04717 16.812 6.88627 16.7929 6.73026 16.8212C6.57522 16.8493 6.43208 16.9229 6.31907 17.0327L6.27082 17.0809C6.05528 17.2967 5.79932 17.4679 5.51757 17.5847C5.23583 17.7015 4.93383 17.7616 4.62884 17.7616C4.32385 17.7616 4.02185 17.7015 3.7401 17.5847C3.45836 17.4679 3.2024 17.2967 2.98686 17.0809C2.77131 16.8655 2.60029 16.6097 2.48359 16.3282C2.36679 16.0464 2.30668 15.7444 2.30668 15.4394C2.30668 15.1344 2.36679 14.8324 2.48359 14.5507C2.60038 14.2689 2.77156 14.013 2.98734 13.7974L3.03558 13.7492C3.14532 13.6362 3.21895 13.493 3.24706 13.338C3.27535 13.182 3.25625 13.0211 3.19223 12.876L3.18957 12.87C3.12861 12.7278 3.02742 12.6064 2.89839 12.521C2.76971 12.4358 2.61897 12.3899 2.46465 12.3891H2.32082C1.7053 12.3891 1.11499 12.1446 0.679752 11.7093C0.244514 11.2741 0 10.6838 0 10.0683C0 9.45274 0.244514 8.86243 0.679752 8.42719C1.11499 7.99195 1.7053 7.74744 2.32082 7.74744H2.3894C2.5464 7.74255 2.69848 7.69116 2.82631 7.59973C2.95582 7.5071 3.05447 7.37766 3.10943 7.22822C3.1139 7.21607 3.11875 7.20407 3.12398 7.19223C3.18799 7.04717 3.20709 6.88627 3.1788 6.73026C3.15069 6.57521 3.07705 6.43205 2.9673 6.31903L2.91908 6.27082C2.7033 6.05528 2.53212 5.79932 2.41533 5.51757C2.29853 5.23583 2.23842 4.93383 2.23842 4.62884C2.23842 4.32385 2.29853 4.02185 2.41533 3.7401C2.53208 3.45847 2.70317 3.20259 2.91884 2.9871C3.13433 2.77143 3.39021 2.60034 3.67184 2.48359C3.95359 2.36679 4.25559 2.30668 4.56058 2.30668C4.86557 2.30668 5.16757 2.36679 5.44932 2.48359C5.73106 2.60038 5.98702 2.77156 6.20256 2.98734L6.25077 3.03556C6.36379 3.14531 6.50695 3.21895 6.662 3.24706C6.81801 3.27535 6.97891 3.25625 7.12397 3.19223C7.1753 3.16958 7.22938 3.15412 7.28465 3.14617C7.38969 3.08508 7.47969 3.00043 7.54727 2.89839C7.63252 2.76966 7.67836 2.61886 7.67918 2.46447V2.32082C7.67918 1.7053 7.9237 1.11499 8.35893 0.679752C8.79417 0.244514 9.38448 0 10 0C10.6155 0 11.2058 0.244514 11.6411 0.679752C12.0763 1.11499 12.3208 1.7053 12.3208 2.32082V2.39639C12.3217 2.55071 12.3675 2.70145 12.4527 2.83014C12.5382 2.95916 12.6595 3.06039 12.8017 3.12135L12.8078 3.12394C12.9528 3.18796 13.1137 3.20709 13.2697 3.1788C13.4248 3.15069 13.5679 3.07706 13.6809 2.96732L13.7292 2.91908C13.9447 2.7033 14.2007 2.53212 14.4824 2.41533C14.7642 2.29853 15.0662 2.23842 15.3712 2.23842C15.6762 2.23842 15.9782 2.29853 16.2599 2.41533C16.5414 2.53203 16.7972 2.70305 17.0127 2.9186C17.2284 3.13414 17.3996 3.3901 17.5164 3.67184C17.6332 3.95359 17.6933 4.25559 17.6933 4.56058C17.6933 4.86557 17.6332 5.16757 17.5164 5.44932C17.3996 5.73106 17.2284 5.98702 17.0127 6.20256L16.9644 6.25077C16.8547 6.36379 16.7811 6.50694 16.7529 6.662C16.7247 6.81801 16.7437 6.97891 16.8078 7.12397C16.8304 7.1753 16.8459 7.22938 16.8538 7.28465C16.9149 7.38969 16.9996 7.47969 17.1016 7.54727C17.2303 7.63252 17.3811 7.67836 17.5355 7.67918H17.6792C18.2947 7.67918 18.885 7.9237 19.3202 8.35893C19.7555 8.79417 20 9.38448 20 10C20 10.6155 19.7555 11.2058 19.3202 11.6411C18.885 12.0763 18.2947 12.3208 17.6792 12.3208H17.6036C17.4493 12.3217 17.2985 12.3675 17.1699 12.4527C17.0408 12.5382 16.9396 12.6595 16.8787 12.8017L16.314 12.5597Z" fill="currentColor"/>
</g>
<defs>
<clipPath id="clip0_23601_74051">
<rect width="20" height="20" fill="white"/>
</clipPath>
</defs>
</svg>
