<svg xmlns="http://www.w3.org/2000/svg" width="25" height="25" viewBox="0 0 25 25">
  <g fill="none" fill-rule="evenodd">
    <path d="M-4-4h33v33H-4z"/>
    <path
      fill="#009FA9"
      d="M22.063 13.719c.048-.39.08-.797.08-1.219 0-.422-.032-.828-.096-1.219l2.716-2.062a.634.634 0 0 0 .16-.797l-2.571-4.328c-.16-.282-.498-.375-.788-.282l-3.198 1.25a9.485 9.485 0 0 0-2.17-1.218L15.715.53A.636.636 0 0 0 15.071 0H9.93a.62.62 0 0 0-.627.531L8.82 3.844a9.739 9.739 0 0 0-2.17 1.219l-3.198-1.25a.644.644 0 0 0-.788.28L.093 8.423a.595.595 0 0 0 .16.797L2.97 11.28c-.064.39-.112.813-.112 1.219 0 .406.032.828.096 1.219L.237 15.78a.634.634 0 0 0-.16.797l2.571 4.328c.16.282.498.375.788.282l3.198-1.25c.675.5 1.382.906 2.17 1.218l.482 3.313a.649.649 0 0 0 .643.531h5.142c.322 0 .595-.219.627-.531l.482-3.313a9.739 9.739 0 0 0 2.17-1.218l3.198 1.25c.29.109.627 0 .788-.282l2.571-4.328a.595.595 0 0 0-.16-.797l-2.684-2.062zM12.5 17A4.513 4.513 0 0 1 8 12.5C8 10.025 10.025 8 12.5 8s4.5 2.025 4.5 4.5-2.025 4.5-4.5 4.5z"/>
  </g>
</svg>
