<svg width="21" height="20" viewBox="0 0 21 20" fill="none" xmlns="http://www.w3.org/2000/svg">
<path d="M10.8293 13.6642C8.80885 13.6642 7.16504 12.0204 7.16504 9.99995C7.16504 7.9795 8.80885 6.33569 10.8293 6.33569C12.8496 6.33569 14.4934 7.9795 14.4934 9.99995C14.4934 12.0204 12.8497 13.6642 10.8293 13.6642ZM10.8293 7.43496C9.41485 7.43496 8.2643 8.58561 8.2643 9.99995C8.2643 11.4143 9.41485 12.5649 10.8293 12.5649C12.2436 12.5649 13.3942 11.4143 13.3942 9.99995C13.3942 8.58561 12.2436 7.43496 10.8293 7.43496Z" fill="#646464"/>
<path d="M12.048 18.7941H9.61047C9.02422 18.7941 8.50612 18.3779 8.37861 17.8041L8.07013 16.4322C7.56732 16.219 7.088 15.9405 6.63809 15.6005L5.30211 16.0225C4.72898 16.2006 4.10611 15.9573 3.81879 15.4443L2.60387 13.3433C2.3128 12.8229 2.41105 12.1825 2.83911 11.7794L3.87448 10.8274C3.84308 10.5482 3.82766 10.2712 3.82766 10C3.82766 9.72883 3.84311 9.45189 3.87382 9.17264L2.84419 8.22514C2.41101 7.81762 2.31215 7.17713 2.60012 6.6635L3.82257 4.5492C4.10611 4.042 4.73049 3.80098 5.29995 3.97611L6.63809 4.39891C7.088 4.0589 7.56732 3.78044 8.07013 3.56708L8.37929 2.19383C8.50612 1.62221 9.02422 1.20593 9.61047 1.20593H12.048C12.6342 1.20593 13.1523 1.62218 13.2798 2.19596L13.5883 3.56791C14.0911 3.78113 14.5704 4.05955 15.0204 4.39957L16.3563 3.97759C16.9309 3.80098 17.5523 4.04279 17.8396 4.5558L19.0547 6.65677C19.3456 7.17713 19.2474 7.81762 18.8193 8.22071L17.784 9.17264C17.8147 9.45189 17.8301 9.72966 17.8301 10C17.8301 10.2704 17.8147 10.5482 17.784 10.8274L18.8143 11.7743C18.8157 11.7757 18.8172 11.7772 18.8193 11.7787C19.0274 11.9743 19.1641 12.2339 19.2074 12.5161C19.2507 12.7984 19.1982 13.087 19.0583 13.3359L17.8359 15.4502C17.5523 15.9573 16.9295 16.1999 16.3578 16.0225L15.0196 15.5997C14.5696 15.9397 14.0903 16.2182 13.5876 16.4315L13.2783 17.8048C13.1523 18.3779 12.6343 18.7941 12.048 18.7941ZM6.75025 14.4403C6.87626 14.4403 7.00013 14.4835 7.09982 14.5656C7.60328 14.9797 8.15212 15.2992 8.73326 15.5133C8.81931 15.545 8.89605 15.5977 8.95648 15.6667C9.01691 15.7357 9.0591 15.8187 9.07922 15.9082L9.45228 17.5644C9.46904 17.6407 9.53575 17.6949 9.61126 17.6949H12.0487C12.1242 17.6949 12.1909 17.6407 12.207 17.5659L12.5807 15.9082C12.6008 15.8187 12.643 15.7357 12.7034 15.6667C12.7639 15.5977 12.8406 15.545 12.9266 15.5133C13.507 15.2992 14.0566 14.9797 14.5601 14.5656C14.6307 14.5071 14.7149 14.4672 14.8049 14.4497C14.8949 14.4322 14.9879 14.4375 15.0754 14.4652L16.6883 14.9747C16.7652 14.9988 16.8473 14.9702 16.8825 14.9072L18.1049 12.7929C18.1416 12.7277 18.1283 12.6383 18.0698 12.5811L16.8327 11.4438C16.7666 11.383 16.7164 11.3069 16.6865 11.2222C16.6566 11.1375 16.6479 11.0467 16.6612 10.9579C16.7095 10.6333 16.7338 10.3108 16.7338 9.99935C16.7338 9.68778 16.7095 9.36532 16.6612 9.04073C16.648 8.95189 16.6566 8.86116 16.6865 8.77647C16.7164 8.69177 16.7666 8.61568 16.8327 8.55485L18.0726 7.4145C18.1283 7.3626 18.1416 7.2716 18.1012 7.19912L16.8861 5.09805C16.8466 5.02838 16.7631 5.00062 16.6868 5.02477L15.0761 5.53335C14.8986 5.58983 14.7053 5.55173 14.5609 5.43298C14.0574 5.01887 13.5085 4.69936 12.9273 4.48534C12.8413 4.45365 12.7645 4.40091 12.7041 4.33192C12.6437 4.26293 12.6016 4.17991 12.5815 4.09043L12.2084 2.43415C12.1901 2.3594 12.1234 2.3052 12.048 2.3052H9.61047C9.53507 2.3052 9.46835 2.3594 9.45224 2.43415L9.07842 4.09191C9.05824 4.18133 9.01604 4.2643 8.95564 4.33327C8.89525 4.40223 8.81858 4.45502 8.7326 4.48682C8.15212 4.70083 7.60249 5.02034 7.09982 5.43446C6.95544 5.55321 6.76046 5.59052 6.58468 5.53483L4.97161 5.02543C4.89621 5.00207 4.8126 5.02989 4.77745 5.09293L3.555 7.2064C3.51835 7.27242 3.53164 7.36325 3.59245 7.42041L4.82802 8.55564C4.89414 8.61645 4.94435 8.69254 4.97425 8.77725C5.00415 8.86196 5.01282 8.95271 4.9995 9.04155C4.95107 9.36614 4.92692 9.68861 4.92692 10C4.92692 10.3115 4.95107 10.6339 4.9995 10.9585C5.02664 11.1389 4.96206 11.3206 4.82802 11.4444L3.58802 12.5848C3.5323 12.6368 3.51917 12.7277 3.5594 12.8003L4.7745 14.9012C4.81325 14.9709 4.89686 14.998 4.97374 14.9747L6.58468 14.4659C6.63888 14.4484 6.6946 14.4403 6.75025 14.4403Z" fill="#646464"/>
</svg>
