<svg width="18" height="18" viewBox="0 0 18 18" fill="none" xmlns="http://www.w3.org/2000/svg">
<path d="M9.00019 12.6642C6.97975 12.6642 5.33594 11.0204 5.33594 8.99995C5.33594 6.9795 6.97975 5.33569 9.00019 5.33569C11.0205 5.33569 12.6643 6.9795 12.6643 8.99995C12.6643 11.0204 11.0206 12.6642 9.00019 12.6642ZM9.00019 6.43496C7.58575 6.43496 6.4352 7.58561 6.4352 8.99995C6.4352 10.4143 7.58575 11.5649 9.00019 11.5649C10.4145 11.5649 11.5651 10.4143 11.5651 8.99995C11.5651 7.58561 10.4145 6.43496 9.00019 6.43496Z" fill="white"/>
<path d="M10.2189 17.7941H7.78137C7.19512 17.7941 6.67702 17.3779 6.5495 16.8041L6.24102 15.4322C5.73821 15.219 5.2589 14.9405 4.80899 14.6005L3.47301 15.0225C2.89988 15.2006 2.27701 14.9573 1.98969 14.4443L0.774764 12.3433C0.4837 11.8229 0.581946 11.1825 1.01001 10.7794L2.04538 9.82744C2.01398 9.54819 1.99855 9.27125 1.99855 9.00004C1.99855 8.72883 2.01401 8.45189 2.04472 8.17264L1.01509 7.22514C0.581912 6.81762 0.483047 6.17713 0.77102 5.6635L1.99347 3.5492C2.27701 3.042 2.90139 2.80098 3.47085 2.97611L4.80899 3.39891C5.2589 3.0589 5.73821 2.78044 6.24102 2.56708L6.55019 1.19383C6.67702 0.62221 7.19512 0.205933 7.78137 0.205933H10.2189C10.8051 0.205933 11.3232 0.622176 11.4507 1.19596L11.7592 2.56791C12.262 2.78113 12.7413 3.05955 13.1913 3.39957L14.5272 2.97759C15.1018 2.80098 15.7232 3.04279 16.0105 3.5558L17.2256 5.65677C17.5165 6.17713 17.4183 6.81762 16.9902 7.22071L15.9549 8.17264C15.9856 8.45189 16.001 8.72966 16.001 9.00004C16.001 9.27042 15.9856 9.54819 15.9549 9.82744L16.9852 10.7743C16.9866 10.7757 16.9881 10.7772 16.9902 10.7787C17.1983 10.9743 17.335 11.2339 17.3783 11.5161C17.4216 11.7984 17.3691 12.087 17.2292 12.3359L16.0068 14.4502C15.7232 14.9573 15.1004 15.1999 14.5287 15.0225L13.1905 14.5997C12.7405 14.9397 12.2612 15.2182 11.7585 15.4315L11.4492 16.8048C11.3232 17.3779 10.8052 17.7941 10.2189 17.7941ZM4.92115 13.4403C5.04715 13.4403 5.17103 13.4835 5.27072 13.5656C5.77418 13.9797 6.32302 14.2992 6.90415 14.5133C6.99021 14.545 7.06695 14.5977 7.12738 14.6667C7.18781 14.7357 7.23 14.8187 7.25011 14.9082L7.62318 16.5644C7.63994 16.6407 7.70665 16.6949 7.78216 16.6949H10.2196C10.2951 16.6949 10.3618 16.6407 10.3779 16.5659L10.7516 14.9082C10.7717 14.8187 10.8139 14.7357 10.8743 14.6667C10.9348 14.5977 11.0115 14.545 11.0975 14.5133C11.6779 14.2992 12.2275 13.9797 12.731 13.5656C12.8016 13.5071 12.8858 13.4672 12.9758 13.4497C13.0658 13.4322 13.1588 13.4375 13.2463 13.4652L14.8592 13.9747C14.9361 13.9988 15.0182 13.9702 15.0534 13.9072L16.2758 11.7929C16.3125 11.7277 16.2992 11.6383 16.2407 11.5811L15.0036 10.4438C14.9375 10.383 14.8873 10.3069 14.8574 10.2222C14.8275 10.1375 14.8188 10.0467 14.8321 9.95788C14.8804 9.63325 14.9047 9.31082 14.9047 8.99935C14.9047 8.68778 14.8804 8.36532 14.8321 8.04073C14.8189 7.95189 14.8275 7.86116 14.8574 7.77647C14.8873 7.69177 14.9375 7.61568 15.0036 7.55485L16.2435 6.4145C16.2992 6.3626 16.3125 6.2716 16.2721 6.19912L15.057 4.09805C15.0175 4.02838 14.934 4.00062 14.8577 4.02477L13.247 4.53335C13.0695 4.58983 12.8762 4.55173 12.7318 4.43298C12.2283 4.01887 11.6794 3.69936 11.0982 3.48534C11.0122 3.45365 10.9354 3.40091 10.875 3.33192C10.8146 3.26293 10.7725 3.17991 10.7524 3.09043L10.3793 1.43415C10.361 1.3594 10.2943 1.3052 10.2189 1.3052H7.78137C7.70596 1.3052 7.63925 1.3594 7.62314 1.43415L7.24932 3.09191C7.22914 3.18133 7.18694 3.2643 7.12654 3.33327C7.06615 3.40223 6.98948 3.45502 6.9035 3.48682C6.32302 3.70083 5.77339 4.02034 5.27072 4.43446C5.12634 4.55321 4.93135 4.59052 4.75558 4.53483L3.14251 4.02543C3.06711 4.00207 2.98349 4.02989 2.94835 4.09293L1.7259 6.2064C1.68925 6.27242 1.70254 6.36325 1.76335 6.42041L2.99892 7.55564C3.06504 7.61645 3.11525 7.69254 3.14515 7.77725C3.17504 7.86196 3.18372 7.95271 3.1704 8.04155C3.12197 8.36614 3.09782 8.68861 3.09782 9.00004C3.09782 9.31147 3.12197 9.63394 3.1704 9.95853C3.19754 10.1389 3.13296 10.3206 2.99892 10.4444L1.75891 11.5848C1.7032 11.6368 1.69007 11.7277 1.7303 11.8003L2.9454 13.9012C2.98415 13.9709 3.06776 13.998 3.14464 13.9747L4.75558 13.4659C4.80978 13.4484 4.8655 13.4403 4.92115 13.4403Z" fill="white"/>
</svg>
