<svg width="24" height="16" viewBox="0 0 24 16" fill="none" xmlns="http://www.w3.org/2000/svg">
<rect width="24" height="16" rx="4" fill="#EDEDED"/>
<path d="M8.15998 8.15988C8.15998 8.86681 7.5869 9.43988 6.87998 9.43988C6.17305 9.43988 5.59998 8.86681 5.59998 8.15988C5.59998 7.45296 6.17305 6.87988 6.87998 6.87988C7.5869 6.87988 8.15998 7.45296 8.15998 8.15988Z" fill="#515151"/>
<path d="M13.28 8.15988C13.28 8.86681 12.7069 9.43988 12 9.43988C11.2931 9.43988 10.72 8.86681 10.72 8.15988C10.72 7.45296 11.2931 6.87988 12 6.87988C12.7069 6.87988 13.28 7.45296 13.28 8.15988Z" fill="#515151"/>
<path d="M18.4 8.15988C18.4 8.86681 17.8269 9.43988 17.12 9.43988C16.4131 9.43988 15.84 8.86681 15.84 8.15988C15.84 7.45296 16.4131 6.87988 17.12 6.87988C17.8269 6.87988 18.4 7.45296 18.4 8.15988Z" fill="#515151"/>
</svg>
