<svg width="24" height="24" viewBox="0 0 24 24" fill="none" xmlns="http://www.w3.org/2000/svg">
<path d="M12 5.3335C7.72427 5.3335 4.00024 8.01899 2 12.0002C4.00024 15.9822 7.72427 18.6667 12 18.6667C16.2757 18.6667 19.9998 15.9822 22 12.0002C19.9998 8.01924 16.2757 5.3335 12 5.3335ZM12 17.0002C8.78223 17.0002 5.74351 15.1047 3.89873 12.0002C5.74346 8.89575 8.78223 7.00024 12 7.00024C15.2177 7.00024 18.2565 8.89575 20.1013 12.0002C18.2565 15.1047 15.2177 17.0002 12 17.0002Z" fill="#646464"/>
<path d="M12 8.25024C9.92798 8.25024 8.25 9.92822 8.25 12.0002C8.25 14.0715 9.92798 15.7502 12 15.7502C14.071 15.7502 15.75 14.0715 15.75 12.0002C15.75 9.92822 14.071 8.25024 12 8.25024ZM12 14.0837C10.8493 14.0837 9.91675 13.1512 9.91675 12.0002C9.91675 10.8495 10.8493 9.91699 12 9.91699C13.1507 9.91699 14.0833 10.8495 14.0833 12.0002C14.0833 13.1512 13.1507 14.0837 12 14.0837Z" fill="#646464"/>
</svg>
