<svg width="20" height="20" viewBox="0 0 20 20" fill="none" xmlns="http://www.w3.org/2000/svg">
<path fill-rule="evenodd" clip-rule="evenodd" d="M18.5415 15.2413C18.5415 15.5934 18.2561 15.8787 17.9041 15.8787H12.1426C11.7906 15.8787 11.5053 15.5934 11.5053 15.2413C11.5053 14.8893 11.7906 14.604 12.1426 14.604H17.9041C18.2561 14.604 18.5415 14.8893 18.5415 15.2413Z" fill="#61646C"/>
<path fill-rule="evenodd" clip-rule="evenodd" d="M6.42372 3.14974C5.28003 3.14974 4.3529 4.03769 4.3529 5.13304V6.33946C4.3529 6.707 4.05495 7.00495 3.68741 7.00495C3.31987 7.00495 3.02192 6.707 3.02192 6.33945V5.13304C3.02192 3.33367 4.54495 1.875 6.42372 1.875C8.30248 1.875 9.82551 3.33367 9.82551 5.13304V8.41863C11.6979 8.38853 13.2572 9.60752 13.8873 11.3033C13.9036 11.3471 13.9648 11.3517 13.9864 11.3102C14.7532 9.84135 16.2318 8.85339 17.9057 8.65194C18.2552 8.60989 18.5416 8.89923 18.5416 9.25124C18.5416 9.60325 18.2544 9.88325 17.907 9.94014C16.7389 10.1315 15.718 10.8438 15.1769 11.8803L14.8634 12.4808C14.7341 12.7284 14.4779 12.8837 14.1985 12.8837H13.5239C13.1688 12.8837 12.8623 12.6345 12.7897 12.2868L12.7798 12.239C12.4563 10.6902 11.2355 9.67412 9.82551 9.69764V14.1182C9.82551 16.3311 7.95245 18.125 5.64191 18.125H5.25101C3.15636 18.125 1.45831 16.4987 1.45831 14.4926C1.45831 12.7722 2.59856 11.4851 3.99417 10.5636C5.32604 9.68424 6.99621 9.06223 8.49453 8.64093V5.13304C8.49453 4.03769 7.5674 3.14974 6.42372 3.14974ZM8.49453 9.97293C7.17605 10.3682 5.81639 10.9088 4.74963 11.6131C3.51578 12.4278 2.7893 13.3789 2.7893 14.4926C2.7893 15.7947 3.89145 16.8503 5.25101 16.8503H5.64191C7.21737 16.8503 8.49453 15.6271 8.49453 14.1182V9.97293Z" fill="#61646C"/>
</svg>
