<svg width="141" height="140" viewBox="0 0 141 140" fill="none" xmlns="http://www.w3.org/2000/svg">
<g clip-path="url(#clip0_12741_156540)">
<path fill-rule="evenodd" clip-rule="evenodd" d="M70.3639 140C109.024 140 140.364 108.66 140.364 70C140.364 31.3401 108.172 -2.80997 70.3639 7.24196e-06C53.0668 1.28558 46.426 20.8038 34.1972 31.2513C19.1692 44.0903 0.363892 48.6849 0.363892 70C0.363892 108.66 31.704 140 70.3639 140Z" fill="#F2F5F7"/>
<g filter="url(#filter0_f_12741_156540)">
<path d="M108.364 96.944L107.554 96.1934C105.256 94.043 103.244 91.5771 101.574 88.8621C99.7491 85.1153 98.6556 81.0235 98.3572 76.8268V64.4662C98.373 57.8746 96.0962 51.5038 91.9546 46.5508C87.8131 41.5978 82.0919 38.4036 75.8659 37.5682V34.3404C75.8659 33.4545 75.5308 32.6049 74.9343 31.9784C74.3378 31.352 73.5288 31.0001 72.6852 31.0001C71.8416 31.0001 71.0326 31.352 70.4361 31.9784C69.8396 32.6049 69.5045 33.4545 69.5045 34.3404V37.6182C63.3343 38.5138 57.6822 41.7274 53.5951 46.6637C49.508 51.6001 47.2627 57.9247 47.2753 64.4662V76.8268C46.9769 81.0235 45.8834 85.1153 44.0589 88.8621C42.417 91.5703 40.4378 94.0359 38.174 96.1934L37.3639 96.944V104H108.364V96.944Z" fill="white"/>
<path d="M108.364 96.944L107.554 96.1934C105.256 94.043 103.244 91.5771 101.574 88.8621C99.7491 85.1153 98.6556 81.0235 98.3572 76.8268V64.4662C98.373 57.8746 96.0962 51.5038 91.9546 46.5508C87.8131 41.5978 82.0919 38.4036 75.8659 37.5682V34.3404C75.8659 33.4545 75.5308 32.6049 74.9343 31.9784C74.3378 31.352 73.5288 31.0001 72.6852 31.0001C71.8416 31.0001 71.0326 31.352 70.4361 31.9784C69.8396 32.6049 69.5045 33.4545 69.5045 34.3404V37.6182C63.3343 38.5138 57.6822 41.7274 53.5951 46.6637C49.508 51.6001 47.2627 57.9247 47.2753 64.4662V76.8268C46.9769 81.0235 45.8834 85.1153 44.0589 88.8621C42.417 91.5703 40.4378 94.0359 38.174 96.1934L37.3639 96.944V104H108.364V96.944Z" fill="#DCE4E8" fill-opacity="0.57"/>
</g>
<path d="M62.3639 97C62.6478 99.2175 63.6649 101.249 65.2273 102.719C66.7897 104.19 68.7918 105 70.8639 105C72.936 105 74.9381 104.19 76.5005 102.719C78.0629 101.249 79.0799 99.2175 79.3639 97H62.3639Z" fill="#A7A9AC"/>
<path d="M101.751 91.5608L101.043 90.9363C99.035 89.1472 97.2774 87.0955 95.8178 84.8366C94.2236 81.7192 93.2681 78.3148 93.0074 74.8232V64.5392C93.0211 59.0549 91.0318 53.7544 87.413 49.6335C83.7943 45.5126 78.7953 42.8549 73.3553 42.1599V39.4744C73.3553 38.7373 73.0624 38.0304 72.5412 37.5092C72.02 36.988 71.3131 36.6952 70.5761 36.6952C69.839 36.6952 69.1321 36.988 68.6109 37.5092C68.0897 38.0304 67.7969 38.7373 67.7969 39.4744V42.2015C62.4056 42.9467 57.467 45.6204 53.8958 49.7274C50.3246 53.8345 48.3628 59.0966 48.3738 64.5392V74.8232C48.113 78.3148 47.1575 81.7192 45.5633 84.8366C44.1287 87.0898 42.3994 89.1412 40.4213 90.9363L39.7135 91.5608V97.4315H101.751V91.5608Z" fill="white"/>
<path d="M104.116 45.0364L103.25 43.3879H114.364V47H100.364V43.5333L110.371 32.9636L111.213 34.6121H100.484V31H114.099V34.4667L104.116 45.0364Z" fill="#A7A9AC"/>
<path d="M119.776 23.7727L119.22 22.7424H126.364V25H117.364V22.8333L123.797 16.2273L124.338 17.2576H117.441V15H126.194V17.1667L119.776 23.7727Z" fill="#A7A9AC"/>
</g>
<defs>
<filter id="filter0_f_12741_156540" x="7.36389" y="1.00006" width="131" height="133" filterUnits="userSpaceOnUse" color-interpolation-filters="sRGB">
<feFlood flood-opacity="0" result="BackgroundImageFix"/>
<feBlend mode="normal" in="SourceGraphic" in2="BackgroundImageFix" result="shape"/>
<feGaussianBlur stdDeviation="15" result="effect1_foregroundBlur_12741_156540"/>
</filter>
<clipPath id="clip0_12741_156540">
<rect width="140" height="140" fill="white" transform="translate(0.363892)"/>
</clipPath>
</defs>
</svg>
