
<svg width="8" height="8" viewBox="0 0 8 8" fill="none" xmlns="http://www.w3.org/2000/svg">
<path d="M7.59699 1.20842C7.81949 0.985932 7.81949 0.625201 7.59699 0.402709C7.3745 0.180217 7.01377 0.180217 6.79128 0.402709L3.99985 3.19414L1.20842 0.402709C0.985932 0.180217 0.625201 0.180217 0.402709 0.402709C0.180217 0.625201 0.180217 0.985931 0.402709 1.20842L3.19414 3.99985L0.402709 6.79128C0.180217 7.01377 0.180217 7.3745 0.402709 7.59699C0.625201 7.81949 0.985931 7.81949 1.20842 7.59699L3.99985 4.80557L6.79128 7.59699C7.01377 7.81949 7.3745 7.81949 7.59699 7.59699C7.81949 7.3745 7.81949 7.01377 7.59699 6.79128L4.80557 3.99985L7.59699 1.20842Z" fill="#202020"/>
</svg>
