<svg width="18" height="18" viewBox="0 0 18 18" fill="none" xmlns="http://www.w3.org/2000/svg">
<path fill-rule="evenodd" clip-rule="evenodd" d="M5.60887 2.57887C5.12943 2.57887 4.74077 2.97538 4.74077 3.46451V14.535C4.74077 15.0242 5.12943 15.4207 5.60887 15.4207H12.3909C12.8703 15.4207 13.259 15.0242 13.259 14.535V3.46451C13.259 2.97538 12.8703 2.57887 12.3909 2.57887H5.60887ZM3.76416 3.46451C3.76416 2.42512 4.59006 1.58252 5.60887 1.58252H12.3909C13.4097 1.58252 14.2356 2.42512 14.2356 3.46451V14.535C14.2356 15.5744 13.4097 16.417 12.3909 16.417H5.60887C4.59006 16.417 3.76416 15.5744 3.76416 14.535V3.46451Z" fill="#646464"/>
<path fill-rule="evenodd" clip-rule="evenodd" d="M8.12705 12.9265C8.12705 12.4446 8.51611 12.0539 8.99605 12.0539H9.00329C9.48322 12.0539 9.87229 12.4446 9.87229 12.9265C9.87229 13.4085 9.48322 13.7992 9.00329 13.7992H8.99605C8.51611 13.7992 8.12705 13.4085 8.12705 12.9265Z" fill="#646464"/>
</svg>
