<svg width="20" height="20" viewBox="0 0 20 20" fill="none" xmlns="http://www.w3.org/2000/svg">
<path d="M13.3333 18.125H6.66666C4.65166 18.125 3.54166 17.015 3.54166 15V5C3.54166 2.985 4.65166 1.875 6.66666 1.875H13.3333C15.3483 1.875 16.4583 2.985 16.4583 5V15C16.4583 17.015 15.3483 18.125 13.3333 18.125ZM6.66666 3.125C5.35249 3.125 4.79166 3.68583 4.79166 5V15C4.79166 16.3142 5.35249 16.875 6.66666 16.875H13.3333C14.6475 16.875 15.2083 16.3142 15.2083 15V5C15.2083 3.68583 14.6475 3.125 13.3333 3.125H6.66666ZM11.875 5C11.875 4.655 11.595 4.375 11.25 4.375H8.74999C8.40499 4.375 8.12499 4.655 8.12499 5C8.12499 5.345 8.40499 5.625 8.74999 5.625H11.25C11.595 5.625 11.875 5.345 11.875 5ZM9.99999 14.1667C9.53999 14.1667 9.16666 14.54 9.16666 15C9.16666 15.46 9.53999 15.8333 9.99999 15.8333C10.46 15.8333 10.8333 15.46 10.8333 15C10.8333 14.54 10.46 14.1667 9.99999 14.1667Z" fill="#61646C"/>
</svg>
