<svg width="20" height="20" viewBox="0 0 20 20" fill="none" xmlns="http://www.w3.org/2000/svg">
<path d="M3.33743 18.1242C2.95659 18.1242 2.58675 17.9741 2.30675 17.6941C1.91175 17.3 1.77591 16.7275 1.95091 16.2008L2.6516 14.1167C2.73326 13.8608 2.72586 13.6041 2.63003 13.4016C2.1367 12.3408 1.87828 11.1659 1.87828 9.99919C1.87828 5.52002 5.52249 1.875 10.0017 1.875C14.4817 1.875 18.1258 5.51919 18.1258 9.99919C18.1258 14.4792 14.4817 18.1233 10.0017 18.1233C8.83582 18.1233 7.66086 17.8642 6.60586 17.3734C6.39919 17.2742 6.14086 17.2675 5.87669 17.3517L3.80252 18.0483C3.64835 18.0992 3.49159 18.1242 3.33743 18.1242ZM10.0008 3.125C6.21084 3.125 3.12747 6.20835 3.12747 9.99919C3.12747 10.985 3.34664 11.9775 3.76081 12.8692C3.99081 13.3533 4.02078 13.9358 3.83995 14.505L3.13662 16.5975C3.10162 16.7017 3.15493 16.7758 3.18993 16.8108C3.22493 16.8458 3.29999 16.8992 3.40416 16.8642L5.48587 16.165C6.06337 15.9808 6.64748 16.0092 7.13748 16.2433C8.02248 16.655 9.01501 16.8742 10.0008 16.8742C13.7917 16.8742 16.875 13.7908 16.875 10C16.875 6.20917 13.7917 3.125 10.0008 3.125ZM13.9584 8.33333C13.9584 7.98833 13.6784 7.70833 13.3334 7.70833H6.66669C6.32169 7.70833 6.04169 7.98833 6.04169 8.33333C6.04169 8.67833 6.32169 8.95833 6.66669 8.95833H13.3334C13.6784 8.95833 13.9584 8.67833 13.9584 8.33333ZM11.4584 11.6667C11.4584 11.3217 11.1784 11.0417 10.8334 11.0417H6.66669C6.32169 11.0417 6.04169 11.3217 6.04169 11.6667C6.04169 12.0117 6.32169 12.2917 6.66669 12.2917H10.8334C11.1784 12.2917 11.4584 12.0117 11.4584 11.6667Z" fill="#61646C"/>
</svg>
