<svg width="62" height="62" viewBox="0 0 62 62" fill="none" xmlns="http://www.w3.org/2000/svg">
<rect x="1" y="1" width="60" height="60" rx="4" fill="white"/>
<g clip-path="url(#clip0_265_13328)">
<path d="M36.1818 31.6914H25.8182C25.3665 31.6914 25 31.4588 25 31.1722V30.826C25 30.5394 25.3665 30.3068 25.8182 30.3068H36.1818C36.6335 30.3068 37 30.5394 37 30.826V31.1722C37 31.4588 36.6335 31.6914 36.1818 31.6914Z" fill="#28ad99"/>
<path d="M30.3077 36.1818V25.8182C30.3077 25.3665 30.5403 25 30.8269 25H31.1731C31.4597 25 31.6923 25.3665 31.6923 25.8182V36.1818C31.6923 36.6335 31.4597 37 31.1731 37H30.8269C30.5403 37 30.3077 36.6335 30.3077 36.1818Z" fill="#28ad99"/>
</g>
<rect x="1" y="1" width="60" height="60" rx="4" stroke="#28ad99" stroke-dasharray="3 3"/>
<defs>
<clipPath id="clip0_265_13328">
<rect width="12" height="12" fill="white" transform="matrix(1 0 0 -1 25 37)"/>
</clipPath>
</defs>
</svg>
