<svg width="11" height="12" viewBox="0 0 11 12" fill="none" xmlns="http://www.w3.org/2000/svg">
<path d="M3.125 1.75H2.375V1C2.375 0.7 2.175 0.5 1.875 0.5C1.575 0.5 1.375 0.7 1.375 1V1.75H0.625C0.325 1.75 0.125 1.95 0.125 2.25C0.125 2.55 0.325 2.75 0.625 2.75H1.375V3.5C1.375 3.8 1.575 4 1.875 4C2.175 4 2.375 3.8 2.375 3.5V2.75H3.125C3.425 2.75 3.625 2.55 3.625 2.25C3.625 1.95 3.425 1.75 3.125 1.75Z" fill="currentColor"/>
<path d="M3.125 9.25H2.375V8.5C2.375 8.2 2.175 8 1.875 8C1.575 8 1.375 8.2 1.375 8.5V9.25H0.625C0.325 9.25 0.125 9.45 0.125 9.75C0.125 10.05 0.325 10.25 0.625 10.25H1.375V11C1.375 11.3 1.575 11.5 1.875 11.5C2.175 11.5 2.375 11.3 2.375 11V10.25H3.125C3.425 10.25 3.625 10.05 3.625 9.75C3.625 9.45 3.425 9.25 3.125 9.25Z" fill="currentColor"/>
<path d="M10.475 5.55L8.375 4.75C8.075 4.65 7.925 4.6 7.825 4.5C7.725 4.45 7.675 4.35 7.625 4.3C7.575 4.2 7.525 4.05 7.375 3.75L6.575 1.65C6.525 1.45 6.325 1.35 6.125 1.35C5.925 1.35 5.775 1.45 5.675 1.65L4.875 3.75C4.775 4.05 4.725 4.2 4.625 4.3C4.575 4.4 4.525 4.45 4.425 4.5C4.325 4.6 4.175 4.65 3.875 4.75L1.775 5.55C1.575 5.6 1.475 5.8 1.475 6C1.475 6.2 1.575 6.35 1.775 6.45L3.925 7.25C4.225 7.35 4.375 7.4 4.425 7.5C4.525 7.55 4.575 7.65 4.675 7.75C4.725 7.85 4.825 8 4.925 8.3L5.725 10.4C5.775 10.6 5.975 10.7 6.175 10.7C6.375 10.7 6.525 10.6 6.625 10.4L7.425 8.3C7.525 8 7.575 7.85 7.675 7.75C7.725 7.65 7.825 7.6 7.925 7.55C8.025 7.5 8.175 7.45 8.475 7.3L10.575 6.5C10.775 6.45 10.875 6.25 10.875 6.05C10.775 5.8 10.675 5.65 10.475 5.55Z" fill="currentColor"/>
</svg>
