<svg width="16" height="16" viewBox="0 0 16 16" fill="none" xmlns="http://www.w3.org/2000/svg">
<path d="M16 0V16H0V0H16Z" fill="white"/>
<path d="M11.7066 14C11.6 14.0005 11.4949 13.9753 11.4 13.9267L7.99997 12.1467L4.59997 13.9267C4.48957 13.9847 4.36509 14.0107 4.24069 14.0015C4.11629 13.9923 3.99696 13.9484 3.89626 13.8748C3.79556 13.8012 3.71753 13.7008 3.67105 13.5851C3.62457 13.4693 3.61149 13.3428 3.63331 13.22L4.29997 9.46669L1.55331 6.80003C1.46761 6.71451 1.40682 6.60727 1.37746 6.48982C1.3481 6.37237 1.35127 6.24914 1.38664 6.13336C1.42528 6.01487 1.49636 5.90959 1.59181 5.82946C1.68726 5.74933 1.80326 5.69756 1.92664 5.68003L5.72664 5.12669L7.39997 1.70669C7.45456 1.59398 7.5398 1.49892 7.64591 1.43241C7.75203 1.3659 7.87474 1.33062 7.99997 1.33062C8.12521 1.33062 8.24792 1.3659 8.35403 1.43241C8.46015 1.49892 8.54538 1.59398 8.59997 1.70669L10.2933 5.12003L14.0933 5.67336C14.2167 5.6909 14.3327 5.74267 14.4281 5.8228C14.5236 5.90293 14.5947 6.00821 14.6333 6.12669C14.6687 6.24247 14.6719 6.3657 14.6425 6.48315C14.6131 6.6006 14.5523 6.70784 14.4666 6.79336L11.72 9.46002L12.3866 13.2134C12.4104 13.3383 12.398 13.4675 12.3507 13.5857C12.3035 13.7038 12.2234 13.8059 12.12 13.88C11.9993 13.9646 11.8539 14.0068 11.7066 14Z" fill="#FFBF41"/>
</svg>
