<svg width="16" height="16" viewBox="0 0 16 16" fill="none" xmlns="http://www.w3.org/2000/svg">
<path d="M11.7296 13.5005L11.717 13.4999L11.7045 13.5C11.6783 13.5001 11.6525 13.494 11.6291 13.4823L8.23175 11.7037L7.99984 11.5823L7.76794 11.7037L4.36794 13.4837L4.36713 13.4841C4.33953 13.4986 4.30841 13.5051 4.27731 13.5028L4.24056 14.0014L4.27731 13.5028C4.24621 13.5005 4.21638 13.4895 4.19121 13.4711L3.89613 13.8748L4.1912 13.4711C4.16603 13.4527 4.14652 13.4276 4.1349 13.3987C4.12328 13.3697 4.12001 13.3381 4.12547 13.3074L4.12547 13.3074L4.79214 9.55408L4.83855 9.29277L4.64813 9.1079L1.90475 6.44442C1.88417 6.42332 1.86955 6.39712 1.8624 6.3685C1.85544 6.34066 1.85579 6.31151 1.86339 6.28389C1.87333 6.25608 1.8905 6.23138 1.91316 6.21236C1.93702 6.19233 1.96602 6.17938 1.99687 6.175L1.99856 6.17475L5.79856 5.62142L6.05967 5.5834L6.17563 5.34639L7.84896 1.92639L7.84897 1.92639L7.84984 1.92459C7.86349 1.8964 7.8848 1.87264 7.91133 1.85601C7.93786 1.83939 7.96853 1.83057 7.99984 1.83057C8.03115 1.83057 8.06183 1.83939 8.08836 1.85601C8.11488 1.87264 8.13619 1.89641 8.14984 1.92458L8.14982 1.92459L8.15193 1.92885L9.84526 5.34218L9.96175 5.57699L10.2211 5.61475L14.0211 6.16809L14.0228 6.16833C14.0537 6.17272 14.0827 6.18566 14.1065 6.20569C14.1292 6.22472 14.1464 6.24941 14.1563 6.27722C14.1639 6.30484 14.1642 6.33399 14.1573 6.36183C14.1501 6.39045 14.1355 6.41665 14.1149 6.43775L11.3716 9.10123L11.1811 9.2861L11.2275 9.54741L11.8942 13.3007L11.8942 13.3008L11.8953 13.3068C11.9013 13.3381 11.8982 13.3704 11.8864 13.3999C11.8749 13.4286 11.8556 13.4536 11.8307 13.472C11.801 13.4921 11.7655 13.5022 11.7296 13.5005Z" stroke="#A6A6A6"/>
</svg>
