<svg width="12" height="12" viewBox="0 0 12 12" fill="none" xmlns="http://www.w3.org/2000/svg">
<path d="M8.78 10.5001C8.70004 10.5004 8.62117 10.4816 8.55 10.4451L6 9.1101L3.45 10.4451C3.3672 10.4886 3.27384 10.5081 3.18054 10.5012C3.08724 10.4943 2.99774 10.4614 2.92222 10.4062C2.84669 10.351 2.78817 10.2757 2.75331 10.1889C2.71845 10.1021 2.70864 10.0072 2.725 9.9151L3.225 7.1001L1.165 5.1001C1.10073 5.03596 1.05514 4.95554 1.03312 4.86745C1.0111 4.77936 1.01348 4.68694 1.04 4.6001C1.06898 4.51124 1.12229 4.43228 1.19388 4.37218C1.26547 4.31208 1.35246 4.27325 1.445 4.2601L4.295 3.8451L5.55 1.2801C5.59095 1.19557 5.65487 1.12427 5.73446 1.07439C5.81405 1.0245 5.90607 0.998047 6 0.998047C6.09393 0.998047 6.18596 1.0245 6.26555 1.07439C6.34513 1.12427 6.40906 1.19557 6.45 1.2801L7.72 3.8401L10.57 4.2551C10.6625 4.26825 10.7495 4.30708 10.8211 4.36718C10.8927 4.42728 10.946 4.50624 10.975 4.5951C11.0015 4.68194 11.0039 4.77436 10.9819 4.86245C10.9599 4.95054 10.9143 5.03096 10.85 5.0951L8.79 7.0951L9.29 9.9101C9.30785 10.0038 9.29851 10.1007 9.26307 10.1893C9.22763 10.2779 9.16758 10.3545 9.09 10.4101C8.99946 10.4735 8.89044 10.5052 8.78 10.5001Z" fill="#28ad99"/>
</svg>
