<svg width="20" height="20" viewBox="0 0 20 20" fill="none" xmlns="http://www.w3.org/2000/svg">
<path d="M9.99935 18.9583C5.05935 18.9583 1.04102 14.94 1.04102 9.99996C1.04102 5.05996 5.05935 1.04163 9.99935 1.04163C14.9393 1.04163 18.9577 5.05996 18.9577 9.99996C18.9577 14.94 14.9393 18.9583 9.99935 18.9583ZM9.99935 2.29163C5.74852 2.29163 2.29102 5.74913 2.29102 9.99996C2.29102 14.2508 5.74852 17.7083 9.99935 17.7083C14.2502 17.7083 17.7077 14.2508 17.7077 9.99996C17.7077 5.74913 14.2502 2.29163 9.99935 2.29163ZM11.8227 13.5416H8.17684C7.10101 13.5416 6.4585 12.8991 6.4585 11.8233V8.17745C6.4585 7.10078 7.10101 6.45911 8.17684 6.45911H11.8227C12.8985 6.45911 13.541 7.10162 13.541 8.17745V11.8233C13.541 12.8991 12.8985 13.5416 11.8227 13.5416Z" fill="#61646C"/>
</svg>
