<svg width="307" height="165" viewBox="0 0 307 165" fill="none" xmlns="http://www.w3.org/2000/svg">
<path d="M28.7879 83.7862L23.8687 87.5553C29.6594 83.7135 46.1791 100.916 52.862 100.089C53.3517 100.024 53.795 99.8294 54.1816 99.5268L58.4984 96.174C52.7452 99.1966 35.1342 80.4238 28.7879 83.7862Z" fill="#FF9522"/>
<path d="M61.2099 68.1385C59.7726 67.2409 58.6832 66.8053 57.8744 66.7458C57.5136 66.7097 57.1561 66.8371 56.8659 67.0505L52.2787 70.5181C53.1213 70.1077 54.4707 70.4505 56.5495 71.7603C64.1792 76.5663 71.293 80.1826 73.813 78.0567L78.4734 74.4349C75.9649 76.5933 68.8291 72.9665 61.2099 68.1385Z" fill="#FF9522"/>
<path d="M74.0481 56.893L69.3878 60.5148C74.9483 71.2784 75.7758 76.4226 73.8129 78.0567L78.4733 74.4349C80.4362 72.8007 79.6087 67.6565 74.0481 56.893Z" fill="#FEBD55"/>
<path d="M56.3074 67.4877L52.268 70.5401C47.8601 72.6617 58.2265 95.1538 54.3863 99.3806L58.4883 96.1959C63.4755 93.593 53.5706 71.7787 56.3074 67.4877Z" fill="#FEBD55"/>
<path d="M27.4937 85.0353C27.6307 84.8033 27.8118 84.5922 27.972 84.4252L23.4823 87.858C23.2466 88.0702 23.0121 88.337 22.8333 88.6572C18.0621 96.3843 33.1608 120.797 33.1608 120.797L37.8212 117.175C37.8433 117.185 22.755 92.7509 27.4937 85.0353Z" fill="#FEBD55"/>
<path d="M242.698 94.7739L245.25 100.439C242.833 93.9199 263.357 81.7831 264.101 75.0893C264.145 74.5973 264.059 74.0972 263.864 73.6538L261.61 68.6703C263.172 74.9996 240.862 87.8284 242.698 94.7739Z" fill="#FF9522"/>
<path d="M234.895 59.6466C233.687 60.8285 233.019 61.7808 232.784 62.5605C232.672 62.912 232.712 63.2822 232.85 63.6176L235.164 68.8727C234.97 67.971 235.588 66.7251 237.353 64.9969C243.779 58.6756 248.944 52.5662 247.443 49.6403L244.996 44.2679C246.487 47.2159 241.322 53.3253 234.895 59.6466Z" fill="#FF9522"/>
<path d="M226.876 44.5585L229.324 49.9309C241.081 47.0013 246.26 47.3516 247.421 49.6299L244.996 44.268C243.835 41.9897 238.633 41.6289 226.876 44.5585Z" fill="#FEBD55"/>
<path d="M233.114 64.2558L235.153 68.8947C236.213 73.663 260.467 68.7487 263.718 73.4495L261.557 68.7259C260.178 63.2659 236.672 67.9136 233.114 64.2558Z" fill="#FEBD55"/>
<path d="M243.615 96.3153C243.414 96.1121 243.257 95.9299 243.122 95.7036L245.433 100.85C245.592 101.141 245.794 101.399 246.05 101.655C252.491 108.057 279.724 98.9669 279.724 98.9669L277.277 93.5945C277.256 93.6386 250.023 102.729 243.615 96.3153Z" fill="#FEBD55"/>
<path d="M178.468 22.1502C176.131 21.0423 173.359 22.0495 172.261 24.3639C171.153 26.7004 172.161 29.4729 174.475 30.5705C176.79 31.668 179.584 30.6712 180.682 28.3568C181.79 26.0203 180.782 23.2478 178.468 22.1502Z" fill="#FEBD55"/>
<path d="M216.371 143.19C218.623 144.258 221.315 143.299 222.383 141.046C223.451 138.794 222.491 136.103 220.238 135.035C217.986 133.967 215.295 134.927 214.227 137.179C213.159 139.431 214.119 142.123 216.371 143.19Z" fill="#45C755"/>
<path d="M87.5077 15.6884C87.1408 15.495 86.7032 15.8142 86.754 16.2287L87.8094 22.6396C87.8346 22.8103 87.7867 22.9813 87.6651 23.0794L83.0029 27.5906C82.6872 27.8849 82.8604 28.3963 83.2754 28.4675L89.6961 29.4369C89.867 29.4605 90.0138 29.5574 90.0878 29.7278L92.9213 35.5691C93.1184 35.9585 93.6551 35.9559 93.824 35.5647L96.7235 29.7447C96.7959 29.598 96.9418 29.4997 97.1125 29.4745L103.549 28.5654C103.963 28.5146 104.131 28.0015 103.837 27.6857L99.2288 23.1215C99.1062 23.0001 99.0566 22.8296 99.0802 22.6587L100.221 16.286C100.292 15.871 99.8511 15.5559 99.4862 15.7528L93.7189 18.7568C93.5728 18.8307 93.4021 18.8315 93.2554 18.759L87.5077 15.6884Z" fill="#FF5280"/>
<path d="M234.032 16.7036C229.101 23.0046 227.194 23.6664 219.41 21.9191C225.711 26.851 226.372 28.7577 224.625 36.5418C229.557 30.2408 231.464 29.5791 239.248 31.3264C232.969 26.405 232.275 24.5098 234.032 16.7036Z" fill="#0CA8E5"/>
<path d="M91.0665 130.925C93.2272 137.535 92.7977 139.241 87.7737 144.007C94.3833 141.846 96.0896 142.276 100.855 147.3C98.6945 140.69 99.124 138.984 104.148 134.218C97.5718 136.387 95.8655 135.958 91.0665 130.925Z" fill="#26BAFF"/>
<path d="M196.981 76.3026L190.792 69.0364C189.609 67.6568 188.654 65.0814 188.654 63.2419V55.4238C188.654 50.5491 184.695 46.5481 179.872 46.5481H172.136C170.362 46.5481 167.768 45.5823 166.403 44.3866L159.213 38.1322C156.074 35.4188 150.932 35.4188 147.747 38.1322L140.603 44.4326C139.238 45.5823 136.644 46.5481 134.869 46.5481H126.997C122.174 46.5481 118.215 50.5491 118.215 55.4238V63.2879C118.215 65.0814 117.26 67.6568 116.122 69.0364L109.979 76.3486C107.34 79.5218 107.34 84.6725 109.979 87.8457L116.122 95.1579C117.26 96.5376 118.215 99.1129 118.215 100.906V108.771C118.215 113.645 122.174 117.646 126.997 117.646H134.869C136.644 117.646 139.238 118.612 140.603 119.808L147.792 126.062C150.932 128.775 156.074 128.775 159.259 126.062L166.448 119.808C167.813 118.612 170.362 117.646 172.182 117.646H179.917C184.741 117.646 188.699 113.645 188.699 108.771V100.952C188.699 99.1589 189.655 96.5376 190.838 95.1579L197.026 87.8917C199.665 84.7185 199.665 79.4758 196.981 76.3026Z" fill="#28AD99"/>
<path d="M135.486 83.8432L148.648 96.8251C148.845 97.0196 149.163 97.0167 149.357 96.8186L175.719 69.8501" stroke="white" stroke-width="7" stroke-linecap="round"/>
</svg>
