<svg width="13" height="13" viewBox="0 0 13 13" fill="none" xmlns="http://www.w3.org/2000/svg">
<path fill-rule="evenodd" clip-rule="evenodd" d="M8.9284 1.51007C9.71522 0.723256 10.9909 0.723257 11.7777 1.51007C12.5645 2.29688 12.5645 3.57256 11.7777 4.35938L4.6117 11.5254C4.60308 11.534 4.59456 11.5425 4.58612 11.551C4.4516 11.6857 4.3388 11.7986 4.20508 11.8868C4.08734 11.9644 3.95965 12.0258 3.82547 12.0692C3.67308 12.1186 3.51441 12.1361 3.32519 12.157C3.31333 12.1583 3.30134 12.1596 3.28924 12.161L1.45281 12.365C1.30789 12.3811 1.1635 12.3305 1.06039 12.2274C0.957284 12.1243 0.906636 11.9799 0.922739 11.835L1.12679 9.99853C1.12813 9.98641 1.12946 9.97443 1.13077 9.96256C1.15167 9.77334 1.16919 9.61468 1.21852 9.46229C1.26196 9.32811 1.32333 9.20042 1.40097 9.08269C1.48915 8.94896 1.6021 8.83616 1.7368 8.70163C1.74525 8.6932 1.75378 8.68468 1.7624 8.67606L8.9284 1.51007ZM11.0989 2.18889C10.687 1.77698 10.0191 1.77698 9.60722 2.18889L2.44122 9.35489C2.26799 9.52811 2.23004 9.56926 2.20241 9.61118C2.17238 9.6567 2.14865 9.70608 2.13186 9.75796C2.11639 9.80572 2.10797 9.86106 2.08091 10.1045L1.94313 11.3446L3.18322 11.2068C3.4267 11.1798 3.48204 11.1714 3.5298 11.1559C3.58169 11.1391 3.63106 11.1154 3.67659 11.0854C3.7185 11.0577 3.75965 11.0198 3.93288 10.8465L11.0989 3.68055C11.5108 3.26864 11.5108 2.6008 11.0989 2.18889Z" fill="#646464"/>
</svg>
