<svg width="14" height="14" viewBox="0 0 14 14" fill="none" xmlns="http://www.w3.org/2000/svg">
<path fill-rule="evenodd" clip-rule="evenodd" d="M13.2481 1.31346C13.2547 1.29451 13.2609 1.27085 13.265 1.25113C13.2718 1.21905 13.2744 1.19039 13.2744 1.15707C13.2744 1.1196 13.27 1.0826 13.2615 1.04677C13.2499 0.997233 13.2302 0.949183 13.2027 0.904663C13.183 0.872707 13.1598 0.8436 13.1339 0.817678C13.1079 0.791656 13.0787 0.768426 13.0467 0.748667C13.0229 0.733995 12.9975 0.721236 12.9707 0.710668C12.9455 0.70067 12.9151 0.691946 12.8883 0.686326C12.8563 0.679582 12.8276 0.676936 12.7943 0.676941C12.7568 0.676936 12.7198 0.681353 12.684 0.689847C12.6666 0.693921 12.6495 0.698969 12.6326 0.704992L0.448085 4.76651C0.256366 4.83041 0.125209 5.00755 0.120032 5.20958C0.114855 5.4116 0.236767 5.59523 0.424961 5.66887L6.07253 7.87881L8.28246 13.5264C8.3561 13.7146 8.53973 13.8365 8.74175 13.8313C8.94377 13.8261 9.12092 13.695 9.18482 13.5033L13.2481 1.31346ZM11.0171 2.25543L2.0094 5.25799L6.32557 6.94695L11.0171 2.25543ZM7.0044 7.62577L8.69334 11.9419L11.6959 2.93426L7.0044 7.62577Z" fill="#646464"/>
</svg>
