<svg width="20" height="20" viewBox="0 0 20 20" fill="none" xmlns="http://www.w3.org/2000/svg">
<path fill-rule="evenodd" clip-rule="evenodd" d="M13.3257 3.17589C12.7404 3.06218 12.1348 3.06819 11.5461 3.19744C10.6512 3.39391 9.8402 3.8653 9.22654 4.54563C8.61289 5.22595 8.22734 6.08115 8.12388 6.99148C8.02042 7.90182 8.20423 8.82172 8.64957 9.6224C8.78782 9.87096 8.73257 10.1824 8.51725 10.3683L3.4574 14.7353C3.22642 14.9736 3.09697 15.2926 3.09697 15.625C3.09697 15.964 3.23165 16.2891 3.47136 16.5288C3.71108 16.7686 4.03621 16.9032 4.37523 16.9032C4.7076 16.9032 5.02662 16.7738 5.2649 16.5428L9.63194 11.483C9.81778 11.2676 10.1292 11.2124 10.3778 11.3506C11.1785 11.796 12.0984 11.9798 13.0087 11.8763C13.9191 11.7729 14.7743 11.3873 15.4546 10.7737C16.1349 10.16 16.6063 9.34897 16.8028 8.45408C16.932 7.86538 16.938 7.25979 16.8243 6.67453L14.2531 9.25186C14.1111 9.39427 13.9071 9.45601 13.7099 9.41629L11.4989 8.97098C11.2621 8.92327 11.0769 8.73813 11.0292 8.50126L10.5839 6.29033C10.5442 6.09313 10.6059 5.88916 10.7483 5.74709L13.3257 3.17589ZM11.2888 2.02535C12.4282 1.77521 13.6173 1.88763 14.6896 2.34687C14.8727 2.42531 15.005 2.58956 15.0426 2.78523C15.0802 2.9809 15.0182 3.18247 14.8771 3.32319L11.8239 6.36914L12.1269 7.87335L13.6311 8.17632L16.677 5.1231C16.8177 4.98204 17.0193 4.92004 17.215 4.95763C17.4106 4.99522 17.5749 5.12749 17.6533 5.31064C18.1126 6.38295 18.225 7.57203 17.9749 8.71141C17.7247 9.85078 17.1245 10.8834 16.2583 11.6647C15.3921 12.446 14.3033 12.9369 13.1442 13.0686C12.1491 13.1817 11.1451 13.0252 10.2358 12.6199L6.15757 17.3451C6.14798 17.3562 6.13799 17.367 6.12761 17.3774C5.66285 17.8421 5.0325 18.1032 4.37523 18.1032C3.71795 18.1032 3.0876 17.8421 2.62284 17.3774C2.15807 16.9126 1.89697 16.2823 1.89697 15.625C1.89697 14.9677 2.15807 14.3374 2.62284 13.8726C2.63321 13.8622 2.64397 13.8522 2.65507 13.8426L7.38032 9.76439C6.97496 8.85512 6.81847 7.85106 6.93156 6.85598C7.06328 5.69692 7.55416 4.60808 8.33548 3.74188C9.11679 2.87568 10.1494 2.2755 11.2888 2.02535Z" fill="#646464"/>
</svg>
