<svg width="20" height="20" viewBox="0 0 20 20" fill="none" xmlns="http://www.w3.org/2000/svg">
<path d="M10 2.72727V0L6.25 3.63636L10 7.27273V4.54545C13.1031 4.54545 15.625 6.99091 15.625 10C15.625 10.9182 15.3906 11.7909 14.9688 12.5455L16.3375 13.8727C17.0688 12.7545 17.5 11.4273 17.5 10C17.5 5.98182 14.1437 2.72727 10 2.72727ZM10 15.4545C6.89687 15.4545 4.375 13.0091 4.375 10C4.375 9.08182 4.60938 8.20909 5.03125 7.45455L3.6625 6.12727C2.93125 7.24545 2.5 8.57273 2.5 10C2.5 14.0182 5.85625 17.2727 10 17.2727V20L13.75 16.3636L10 12.7273V15.4545Z" fill="#BFBFBF"/>
</svg>
