<svg width="28" height="28" viewBox="0 0 28 28" fill="none" xmlns="http://www.w3.org/2000/svg">
<path d="M16.0552 4.42896C14.5248 4.08269 12.9316 4.12974 11.4243 4.56573C9.92055 5.0007 8.55116 5.80865 7.4433 6.91445L4.1761 9.98452V5.8416C4.1761 5.46159 3.86804 5.15354 3.48804 5.15354C3.10804 5.15354 2.79999 5.46159 2.79999 5.8416L2.79999 11.5753C2.79999 11.9554 3.10804 12.2635 3.48804 12.2635H9.22183C9.60183 12.2635 9.90988 11.9554 9.90988 11.5754C9.90988 11.1954 9.60183 10.8874 9.22183 10.8874H5.22485L8.39334 7.91006L8.40882 7.89504C9.35372 6.94967 10.5227 6.25906 11.8067 5.88766C13.0907 5.51626 14.4478 5.47618 15.7515 5.77115C17.0552 6.06613 18.2629 6.68654 19.2619 7.57451C20.2609 8.46247 21.0188 9.58905 21.4647 10.8491C21.5914 11.2073 21.9846 11.395 22.3428 11.2682C22.7011 11.1415 22.8887 10.7483 22.7619 10.39C22.2385 8.91084 21.3489 7.58834 20.1761 6.54594C19.0033 5.50355 17.5856 4.77524 16.0552 4.42896Z" fill="#898989"/>
<path d="M25.1996 15.4205C25.2054 15.2441 25.1438 15.0654 25.0134 14.9266C24.8722 14.7764 24.6794 14.7036 24.4884 14.7101H18.7778C18.3978 14.7101 18.0897 15.0182 18.0897 15.3982C18.0897 15.7782 18.3978 16.0862 18.7778 16.0862H22.7745L19.6066 19.0629L19.5912 19.0779C18.6463 20.0233 17.4773 20.7139 16.1933 21.0853C14.9093 21.4567 13.5522 21.4968 12.2485 21.2018C10.9448 20.9069 9.73712 20.2864 8.73808 19.3985C7.73903 18.5105 6.98121 17.3839 6.53532 16.1239C6.40855 15.7656 6.01538 15.578 5.65715 15.7048C5.29891 15.8315 5.11127 16.2247 5.23804 16.5829C5.76148 18.0621 6.6511 19.3846 7.82389 20.427C8.99667 21.4694 10.4144 22.1977 11.9448 22.544C13.4752 22.8903 15.0684 22.8432 16.5757 22.4073C18.0794 21.9723 19.4488 21.1643 20.5567 20.0585L23.8235 16.9888V21.132C23.8235 21.512 24.1316 21.82 24.5116 21.82C24.8916 21.82 25.1996 21.512 25.1996 21.132V15.4205Z" fill="#898989"/>
</svg>
