<svg width="16" height="13" viewBox="0 0 16 13" fill="none" xmlns="http://www.w3.org/2000/svg">
<mask id="path-1-outside-1_1737_55223" maskUnits="userSpaceOnUse" x="0" y="0.5" width="16" height="13" fill="black">
<rect fill="white" y="0.5" width="16" height="13"/>
<path fill-rule="evenodd" clip-rule="evenodd" d="M5.22517 4.10916C5.68224 3.44137 6.70494 2.5 8.27252 2.5C9.4343 2.5 10.2634 3.07375 10.7853 3.73781C11.1235 4.16939 11.3626 4.66671 11.4862 5.19609C11.9144 5.26356 12.4108 5.42453 12.8526 5.73478C13.5044 6.19112 13.9996 6.94816 13.9996 8.07812C13.9996 9.20756 13.5044 9.96459 12.8526 10.422C12.2286 10.8592 11.4961 11 10.9997 11H8.54524V7.50119L9.25049 8.18809C9.35336 8.28486 9.49114 8.33841 9.63415 8.3372C9.77716 8.33599 9.91397 8.28012 10.0151 8.18162C10.1162 8.08312 10.1736 7.94988 10.1748 7.81059C10.1761 7.6713 10.1211 7.5371 10.0217 7.43691L8.38543 5.84316C8.28314 5.74356 8.14443 5.68761 7.9998 5.68761C7.85517 5.68761 7.71646 5.74356 7.61418 5.84316L5.97787 7.43691C5.92578 7.48591 5.88422 7.54453 5.85564 7.60935C5.82705 7.67416 5.812 7.74387 5.81138 7.81441C5.81075 7.88495 5.82455 7.95491 5.85197 8.02019C5.8794 8.08548 5.9199 8.1448 5.97111 8.19468C6.02232 8.24456 6.08322 8.28401 6.15025 8.31072C6.21729 8.33743 6.28911 8.35087 6.36153 8.35026C6.43395 8.34965 6.50553 8.33499 6.57207 8.30715C6.63862 8.2793 6.6988 8.23883 6.74912 8.18809L7.45437 7.50119V11H5.54534C4.9579 11 4.08902 10.8327 3.35159 10.3157C2.58634 9.77866 2 8.88881 2 7.54687C2 6.20494 2.58634 5.31509 3.35159 4.778C3.96466 4.34822 4.66773 4.16069 5.22517 4.10916Z"/>
</mask>
<path fill-rule="evenodd" clip-rule="evenodd" d="M5.22517 4.10916C5.68224 3.44137 6.70494 2.5 8.27252 2.5C9.4343 2.5 10.2634 3.07375 10.7853 3.73781C11.1235 4.16939 11.3626 4.66671 11.4862 5.19609C11.9144 5.26356 12.4108 5.42453 12.8526 5.73478C13.5044 6.19112 13.9996 6.94816 13.9996 8.07812C13.9996 9.20756 13.5044 9.96459 12.8526 10.422C12.2286 10.8592 11.4961 11 10.9997 11H8.54524V7.50119L9.25049 8.18809C9.35336 8.28486 9.49114 8.33841 9.63415 8.3372C9.77716 8.33599 9.91397 8.28012 10.0151 8.18162C10.1162 8.08312 10.1736 7.94988 10.1748 7.81059C10.1761 7.6713 10.1211 7.5371 10.0217 7.43691L8.38543 5.84316C8.28314 5.74356 8.14443 5.68761 7.9998 5.68761C7.85517 5.68761 7.71646 5.74356 7.61418 5.84316L5.97787 7.43691C5.92578 7.48591 5.88422 7.54453 5.85564 7.60935C5.82705 7.67416 5.812 7.74387 5.81138 7.81441C5.81075 7.88495 5.82455 7.95491 5.85197 8.02019C5.8794 8.08548 5.9199 8.1448 5.97111 8.19468C6.02232 8.24456 6.08322 8.28401 6.15025 8.31072C6.21729 8.33743 6.28911 8.35087 6.36153 8.35026C6.43395 8.34965 6.50553 8.33499 6.57207 8.30715C6.63862 8.2793 6.6988 8.23883 6.74912 8.18809L7.45437 7.50119V11H5.54534C4.9579 11 4.08902 10.8327 3.35159 10.3157C2.58634 9.77866 2 8.88881 2 7.54687C2 6.20494 2.58634 5.31509 3.35159 4.778C3.96466 4.34822 4.66773 4.16069 5.22517 4.10916Z" fill="#28ad99"/>
<path d="M5.22517 4.10916L5.40927 6.10066L6.34487 6.01417L6.87558 5.23882L5.22517 4.10916ZM10.7853 3.73781L12.3596 2.50422L12.3577 2.50185L10.7853 3.73781ZM11.4862 5.19609L9.53868 5.65109L9.84497 6.96215L11.1749 7.17172L11.4862 5.19609ZM12.8526 5.73478L11.7032 7.37153L11.7055 7.37314L12.8526 5.73478ZM12.8526 10.422L14.0002 12.0599L14.0014 12.0591L12.8526 10.422ZM8.54524 11H6.54524V13H8.54524V11ZM8.54524 7.50119L9.9407 6.06846L6.54524 2.76132V7.50119H8.54524ZM9.25049 8.18809L7.85503 9.62082L7.86747 9.63293L7.88012 9.64483L9.25049 8.18809ZM9.63415 8.3372L9.65108 10.3371L9.63415 8.3372ZM10.0151 8.18162L11.4105 9.61435L11.4106 9.61434L10.0151 8.18162ZM10.1748 7.81059L8.17491 7.79275L10.1748 7.81059ZM10.0217 7.43691L11.4419 6.02866L11.4296 6.01631L11.4172 6.00418L10.0217 7.43691ZM8.38543 5.84316L9.78089 4.41043L9.78067 4.41022L8.38543 5.84316ZM7.61418 5.84316L6.21894 4.41022L6.21872 4.41043L7.61418 5.84316ZM5.97787 7.43691L7.34824 8.89364L7.36089 8.88175L7.37333 8.86963L5.97787 7.43691ZM5.85564 7.60935L7.68556 8.41642V8.41642L5.85564 7.60935ZM5.81138 7.81441L7.8113 7.83226V7.83226L5.81138 7.81441ZM5.85197 8.02019L7.6959 7.24564L7.6959 7.24563L5.85197 8.02019ZM6.15025 8.31072L6.89062 6.4528L6.89061 6.4528L6.15025 8.31072ZM6.36153 8.35026L6.3446 6.35033L6.36153 8.35026ZM6.57207 8.30715L5.80012 6.46213L5.80012 6.46213L6.57207 8.30715ZM6.74912 8.18809L5.35366 6.75537L5.34121 6.7675L5.32896 6.77984L6.74912 8.18809ZM7.45437 7.50119H9.45437V2.76132L6.05891 6.06846L7.45437 7.50119ZM7.45437 11V13H9.45437V11H7.45437ZM3.35159 10.3157L2.20263 11.9528L2.20362 11.9535L3.35159 10.3157ZM3.35159 4.778L2.20354 3.14033L2.20263 3.14096L3.35159 4.778ZM6.87558 5.23882C7.09555 4.91744 7.57354 4.5 8.27252 4.5V0.5C5.83634 0.5 4.26893 1.96531 3.57475 2.9795L6.87558 5.23882ZM8.27252 4.5C8.51074 4.5 8.68191 4.55562 8.81574 4.62816C8.95905 4.70585 9.0945 4.82307 9.21296 4.97378L12.3577 2.50185C11.5417 1.46365 10.1735 0.5 8.27252 0.5V4.5ZM9.2111 4.9714C9.37123 5.17576 9.48185 5.40782 9.53868 5.65109L13.4338 4.7411C13.2433 3.9256 12.8758 3.16303 12.3596 2.50422L9.2111 4.9714ZM11.1749 7.17172C11.3726 7.20287 11.5641 7.27384 11.7032 7.37152L14.0019 4.09804C13.2574 3.57522 12.4562 3.32426 11.7975 3.22047L11.1749 7.17172ZM11.7055 7.37314C11.7979 7.43788 11.8603 7.50912 11.9031 7.59004C11.9442 7.66752 11.9996 7.81409 11.9996 8.07812H15.9996C15.9996 6.27426 15.1683 4.91463 13.9996 4.09642L11.7055 7.37314ZM11.9996 8.07812C11.9996 8.34168 11.9443 8.48821 11.9031 8.56601C11.86 8.64731 11.7972 8.71928 11.7037 8.78489L14.0014 12.0591C15.1679 11.2405 15.9996 9.88209 15.9996 8.07812H11.9996ZM11.7049 8.78407C11.6093 8.85105 11.4855 8.90829 11.3425 8.94804C11.1971 8.98848 11.0702 9 10.9997 9V13C11.8052 13 12.9654 12.785 14.0002 12.0599L11.7049 8.78407ZM10.9997 9H8.54524V13H10.9997V9ZM10.5452 11V7.50119H6.54524V11H10.5452ZM7.14978 8.93391L7.85503 9.62082L10.6459 6.75537L9.9407 6.06846L7.14978 8.93391ZM7.88012 9.64483C8.36346 10.0995 9.00019 10.3426 9.65108 10.3371L9.61723 6.33727C9.98209 6.33418 10.3433 6.47021 10.6209 6.73136L7.88012 9.64483ZM9.65108 10.3371C10.302 10.3316 10.9348 10.0777 11.4105 9.61435L8.61964 6.74889C8.89312 6.48253 9.25233 6.34036 9.61723 6.33727L9.65108 10.3371ZM11.4106 9.61434C11.888 9.14931 12.1687 8.50909 12.1747 7.82843L8.17491 7.79275C8.17849 7.39067 8.34444 7.01694 8.61963 6.7489L11.4106 9.61434ZM12.1747 7.82843C12.1808 7.14772 11.9116 6.50229 11.4419 6.02866L8.60159 8.84516C8.33063 8.57191 8.17132 8.19487 8.17491 7.79275L12.1747 7.82843ZM11.4172 6.00418L9.78089 4.41043L6.98997 7.27588L8.62628 8.86963L11.4172 6.00418ZM9.78067 4.41022C9.29953 3.94174 8.65801 3.68761 7.9998 3.68761V7.68761C7.63086 7.68761 7.26675 7.54538 6.99018 7.27609L9.78067 4.41022ZM7.9998 3.68761C7.3416 3.68761 6.70008 3.94174 6.21894 4.41022L9.00942 7.27609C8.73285 7.54539 8.36875 7.68761 7.9998 7.68761V3.68761ZM6.21872 4.41043L4.58241 6.00418L7.37333 8.86963L9.00964 7.27588L6.21872 4.41043ZM4.6075 5.98017C4.36219 6.21093 4.16349 6.48988 4.02571 6.80228L7.68556 8.41642C7.60496 8.59918 7.48936 8.76089 7.34824 8.89364L4.6075 5.98017ZM4.02571 6.80228C3.88787 7.11481 3.81452 7.45297 3.81145 7.79657L7.8113 7.83226C7.80949 8.03478 7.76623 8.23352 7.68556 8.41642L4.02571 6.80228ZM3.81145 7.79657C3.80839 8.14019 3.8757 8.47969 4.00805 8.79475L7.6959 7.24563C7.77339 7.43012 7.8131 7.62971 7.8113 7.83226L3.81145 7.79657ZM4.00804 8.79475C4.14034 9.10969 4.33422 9.39225 4.57565 9.6274L7.36657 6.76196C7.50557 6.89735 7.61846 7.06128 7.6959 7.24564L4.00804 8.79475ZM4.57565 9.6274C4.81697 9.86244 5.10102 10.0456 5.40989 10.1686L6.89061 6.4528C7.06542 6.52246 7.22768 6.62668 7.36657 6.76196L4.57565 9.6274ZM5.40988 10.1686C5.71867 10.2917 6.04776 10.353 6.37846 10.3502L6.3446 6.35033C6.53045 6.34876 6.7159 6.38318 6.89062 6.4528L5.40988 10.1686ZM6.37846 10.3502C6.70914 10.3474 7.03724 10.2805 7.34402 10.1522L5.80012 6.46213C5.97381 6.38946 6.15876 6.3519 6.3446 6.35033L6.37846 10.3502ZM7.34402 10.1522C7.65089 10.0238 7.93192 9.8357 8.16927 9.59634L5.32896 6.77984C5.46569 6.64196 5.62634 6.53484 5.80012 6.46213L7.34402 10.1522ZM8.14458 9.62082L8.84982 8.93391L6.05891 6.06846L5.35366 6.75537L8.14458 9.62082ZM5.45437 7.50119V11H9.45437V7.50119H5.45437ZM7.45437 9H5.54534V13H7.45437V9ZM5.54534 9C5.4298 9 5.24609 8.98198 5.04051 8.92482C4.83736 8.86833 4.65142 8.78446 4.49957 8.67802L2.20362 11.9535C3.35203 12.7585 4.64877 13 5.54534 13V9ZM4.50056 8.67871C4.34926 8.57253 4.23572 8.4471 4.15621 8.29699C4.07853 8.15033 4 7.91768 4 7.54687H0C0 9.56351 0.922979 11.0547 2.20263 11.9528L4.50056 8.67871ZM4 7.54687C4 7.17607 4.07853 6.94342 4.15621 6.79676C4.23572 6.64665 4.34926 6.52122 4.50056 6.41504L2.20263 3.14096C0.922979 4.0391 0 5.53024 0 7.54687H4ZM4.49965 6.41567C4.76188 6.23184 5.10858 6.12846 5.40927 6.10066L5.04107 2.11765C4.22689 2.19291 3.16744 2.4646 2.20354 3.14033L4.49965 6.41567Z" fill="white" mask="url(#path-1-outside-1_1737_55223)"/>
</svg>
