<svg width="20" height="20" viewBox="0 0 20 20" fill="none" xmlns="http://www.w3.org/2000/svg">
<path d="M18.3242 16.0296C18.8889 15.1155 18.8925 14.026 18.3313 13.1152L12.6978 3.9675C12.1402 3.04665 11.133 2.50021 10.0034 2.50021C8.8738 2.50021 7.86653 3.05002 7.30893 3.96412L1.66821 13.122C1.10702 14.0428 1.11062 15.1391 1.67901 16.0532C2.2402 16.9572 3.24387 17.5002 4.36626 17.5002H15.6189C16.7449 17.5002 17.7558 16.9504 18.3242 16.0296Z" fill="#fa3939"/>
<path d="M10.0021 12.9064C9.42346 12.9064 8.93846 13.3914 8.93846 13.97C8.93846 14.5486 9.42346 15.0336 10.0021 15.0336C10.5594 15.0336 11.0657 14.5486 11.0401 13.9956C11.0657 13.3872 10.5849 12.9064 10.0021 12.9064Z" fill="white"/>
<path d="M9.73833 5.44021C9.23206 5.58486 8.91724 6.04434 8.91724 6.60166C8.94276 6.93776 8.96403 7.27811 8.98956 7.61421C9.06189 8.89478 9.13421 10.1498 9.20653 11.4304C9.23206 11.8643 9.56816 12.1792 10.0021 12.1792C10.4361 12.1792 10.7764 11.8431 10.7977 11.4049C10.7977 11.1411 10.7977 10.8986 10.8232 10.6306C10.87 9.80947 10.9211 8.98838 10.9679 8.16728C10.9934 7.63548 11.0402 7.10368 11.0657 6.57188C11.0657 6.38043 11.0402 6.21026 10.9679 6.04008C10.7509 5.56359 10.2446 5.32109 9.73833 5.44021Z" fill="white"/>
</svg>
