<svg width="16" height="16" viewBox="0 0 16 16" fill="none" xmlns="http://www.w3.org/2000/svg">
<path d="M9.17449 2.53125C8.29998 2.33338 7.3896 2.36027 6.52829 2.60941C5.66899 2.85796 4.88648 3.31965 4.25342 3.95153L2.38645 5.70586V3.33847C2.38645 3.12133 2.21042 2.9453 1.99327 2.9453C1.77613 2.9453 1.6001 3.12133 1.6001 3.33847L1.6001 6.6149C1.6001 6.83205 1.77613 7.00812 1.99327 7.00812H5.26972C5.48686 7.00812 5.66289 6.83209 5.66289 6.61495C5.66289 6.3978 5.48686 6.22177 5.26972 6.22177H2.98573L4.7963 4.52045L4.80515 4.51187C5.34509 3.97166 6.01308 3.57702 6.74678 3.3648C7.48049 3.15257 8.256 3.12967 9.00096 3.29822C9.74591 3.46678 10.436 3.8213 11.0069 4.32871C11.5778 4.83612 12.0108 5.47987 12.2656 6.19991C12.3381 6.40462 12.5627 6.51184 12.7674 6.4394C12.9721 6.36696 13.0794 6.14229 13.0069 5.93759C12.7078 5.09233 12.1995 4.33661 11.5293 3.74096C10.8591 3.1453 10.049 2.72913 9.17449 2.53125Z" fill="#28ad99"/>
<path d="M14.3999 8.81214C14.4032 8.71131 14.368 8.60923 14.2934 8.5299C14.2128 8.44405 14.1026 8.4025 13.9935 8.40619H10.7303C10.5131 8.40619 10.3371 8.58222 10.3371 8.79937C10.3371 9.01651 10.5131 9.19254 10.7303 9.19254H13.0141L11.2039 10.8935L11.195 10.9021C10.6551 11.4423 9.98712 11.8369 9.25341 12.0492C8.5197 12.2614 7.74419 12.2843 6.99924 12.1157C6.25429 11.9472 5.56417 11.5927 4.99329 11.0853C4.42241 10.5779 3.98937 9.93409 3.73457 9.21406C3.66213 9.00935 3.43746 8.90213 3.23276 8.97457C3.02805 9.04701 2.92083 9.27168 2.99327 9.47638C3.29238 10.3216 3.80073 11.0774 4.4709 11.673C5.14106 12.2687 5.95119 12.6848 6.8257 12.8827C7.70021 13.0806 8.6106 13.0537 9.47191 12.8046C10.3312 12.556 11.1137 12.0943 11.7468 11.4624L13.6135 9.70831V12.0758C13.6135 12.293 13.7896 12.469 14.0067 12.469C14.2238 12.469 14.3999 12.293 14.3999 12.0758V8.81214Z" fill="#28ad99"/>
</svg>
