<svg width="20" height="21" viewBox="0 0 20 21" fill="none" xmlns="http://www.w3.org/2000/svg">
<path d="M18.0717 11.1774C17.6234 15.2957 14.1533 18.4015 10 18.4015C7.16917 18.4015 4.58667 16.9257 3.125 14.5982V16.9432C3.125 17.2882 2.845 17.5682 2.5 17.5682C2.155 17.5682 1.875 17.2882 1.875 16.9432V12.7765C1.875 12.4315 2.155 12.1515 2.5 12.1515H6.66667C7.01167 12.1515 7.29167 12.4315 7.29167 12.7765C7.29167 13.1215 7.01167 13.4015 6.66667 13.4015H3.8916C5.04993 15.6732 7.3975 17.1515 10 17.1515C13.5142 17.1515 16.4492 14.5248 16.8292 11.0423C16.8659 10.6981 17.1775 10.4522 17.5175 10.4881C17.8617 10.5256 18.1084 10.834 18.0717 11.1774ZM17.5 2.98482C17.155 2.98482 16.875 3.26482 16.875 3.60982V5.95479C15.4133 3.62729 12.8308 2.15149 10 2.15149C5.8475 2.15149 2.37747 5.25728 1.9283 9.37561C1.8908 9.71894 2.13836 10.0274 2.48169 10.0649C2.50419 10.0674 2.52755 10.0682 2.55005 10.0682C2.86505 10.0682 3.1358 9.8307 3.16996 9.5107C3.54996 6.0282 6.48585 3.40149 9.99919 3.40149C12.6025 3.40149 14.9493 4.87982 16.1076 7.15149H13.3333C12.9883 7.15149 12.7083 7.43149 12.7083 7.77649C12.7083 8.12149 12.9883 8.40149 13.3333 8.40149H17.5C17.845 8.40149 18.125 8.12149 18.125 7.77649V3.60982C18.125 3.26482 17.845 2.98482 17.5 2.98482Z" fill="#1570EF"/>
</svg>
