<svg width="24" height="24" viewBox="0 0 24 24" fill="none" xmlns="http://www.w3.org/2000/svg" color="currentColor">
<path d="M19.9961 8.64259C18.8869 4.22379 14.4056 1.54087 9.9868 2.65009C6.53362 3.51695 4.02622 6.50148 3.76787 10.0524C1.31597 10.4567 -0.343935 12.7722 0.0604116 15.2241C0.419857 17.4038 2.30863 19.0002 4.51779 18.9914H7.51746C7.93163 18.9914 8.26738 18.6557 8.26738 18.2415C8.26738 17.8273 7.93163 17.4916 7.51746 17.4916H4.51779C2.86113 17.4916 1.51811 16.1486 1.51811 14.4919C1.51811 12.8352 2.86113 11.4922 4.51779 11.4922C4.93198 11.4922 5.2677 11.1565 5.2677 10.7423C5.26395 7.0148 8.28271 3.99001 12.0102 3.9863C15.2369 3.98307 18.0146 6.26423 18.6388 9.42996C18.7004 9.74605 18.9569 9.98753 19.2762 10.0299C21.3264 10.3219 22.7516 12.2205 22.4597 14.2706C22.1976 16.1116 20.6258 17.4823 18.7662 17.4916H16.5165C16.1023 17.4916 15.7666 17.8273 15.7666 18.2415C15.7666 18.6557 16.1023 18.9914 16.5165 18.9914H18.7662C21.6654 18.9827 24.0085 16.6253 23.9997 13.7261C23.9924 11.3128 22.3405 9.21529 19.9961 8.64259Z" fill="currentColor"/>
<path d="M11.4846 21.0231L9.01418 18.5527C8.72187 18.2604 8.72187 17.7865 9.01418 17.4942C9.30603 17.2023 9.77906 17.2018 10.0716 17.493L11.2671 18.6834L11.2671 12.2416C11.2671 11.8274 11.6028 11.4917 12.017 11.4917C12.4312 11.4917 12.7669 11.8274 12.7669 12.2416L12.7669 18.6834L13.9556 17.4948C14.2475 17.2028 14.721 17.2028 15.0129 17.4948C15.3049 17.7867 15.3049 18.2602 15.0129 18.5521L12.542 21.0231C12.2494 21.3139 11.7771 21.3139 11.4846 21.0231Z" fill="currentColor"/>
</svg>
