<svg width="20" height="20" viewBox="0 0 20 20" fill="none" xmlns="http://www.w3.org/2000/svg">
<path d="M16.6343 7.20467C15.7176 3.538 11.9676 1.288 8.30096 2.20467C5.38429 2.95467 3.30096 5.45467 3.13429 8.45467C1.05096 8.788 -0.282377 10.7047 0.0509567 12.788C0.38429 14.6213 1.88429 15.9547 3.80096 15.9547H6.30096C6.63429 15.9547 6.88429 15.7047 6.88429 15.3713C6.88429 15.038 6.63429 14.788 6.30096 14.788H3.80096C2.38429 14.788 1.30096 13.7047 1.30096 12.288C1.30096 10.8713 2.38429 9.788 3.80096 9.788C4.13429 9.788 4.38429 9.538 4.38429 9.12133C4.38429 6.038 6.88429 3.45467 9.96762 3.45467C12.6343 3.45467 14.9676 5.37133 15.4676 7.95467C15.551 8.20467 15.7176 8.45467 15.9676 8.45467C17.7176 8.70467 18.8843 10.288 18.6343 11.9547C18.3843 13.4547 17.1343 14.6213 15.551 14.6213H13.7176C13.3843 14.6213 13.1343 14.8713 13.1343 15.2047C13.1343 15.538 13.3843 15.788 13.7176 15.788H15.551C17.9676 15.788 19.8843 13.788 19.8843 11.3713C19.9676 9.45467 18.551 7.70467 16.6343 7.20467Z" fill="#fa3939"/>
<path fill-rule="evenodd" clip-rule="evenodd" d="M9.86111 7C10.2446 7 10.5556 7.31091 10.5556 7.69444V10.4722C10.5556 10.8558 10.2446 11.1667 9.86111 11.1667C9.47758 11.1667 9.16667 10.8558 9.16667 10.4722V7.69444C9.16667 7.31091 9.47758 7 9.86111 7Z" fill="#fa3939"/>
<path fill-rule="evenodd" clip-rule="evenodd" d="M9.16667 13.25C9.16667 12.8665 9.47758 12.5556 9.86111 12.5556H9.86806C10.2516 12.5556 10.5625 12.8665 10.5625 13.25C10.5625 13.6335 10.2516 13.9444 9.86806 13.9444H9.86111C9.47758 13.9444 9.16667 13.6335 9.16667 13.25Z" fill="#fa3939"/>
</svg>
