<svg xmlns="http://www.w3.org/2000/svg" width="24" height="25" viewBox="0 0 24 25" fill="none">
  <path d="M13.762 4.29591C12.4502 3.9991 11.0846 4.03943 9.79268 4.41314C8.50373 4.78597 7.32997 5.47849 6.38037 6.42633L3.57991 9.05781V5.50673C3.57991 5.18101 3.31587 4.91697 2.99015 4.91697C2.66444 4.91697 2.40039 5.18101 2.40039 5.50673L2.40039 10.4214C2.40039 10.7471 2.66444 11.0112 2.99015 11.0112H7.90483C8.23054 11.0112 8.49459 10.7472 8.49459 10.4214C8.49459 10.0957 8.23054 9.83168 7.90483 9.83168H4.47885L7.19469 7.2797L7.20796 7.26683C8.01788 6.45651 9.01986 5.86456 10.1204 5.54622C11.221 5.22788 12.3842 5.19352 13.5017 5.44636C14.6191 5.69919 15.6543 6.23097 16.5106 6.99209C17.3669 7.7532 18.0165 8.71883 18.3987 9.79889C18.5073 10.1059 18.8443 10.2668 19.1514 10.1581C19.4585 10.0495 19.6193 9.71246 19.5106 9.4054C19.062 8.13751 18.2994 7.00394 17.2942 6.11046C16.2889 5.21698 15.0737 4.59271 13.762 4.29591Z" fill="#646464"/>
  <path d="M21.6001 13.7172C21.6051 13.566 21.5522 13.4129 21.4404 13.2939C21.3194 13.1651 21.1542 13.1028 20.9904 13.1083H16.0956C15.7699 13.1083 15.5059 13.3724 15.5059 13.6981C15.5059 14.0238 15.7699 14.2878 16.0956 14.2878H19.5214L16.8061 16.8393L16.7928 16.8522C15.9829 17.6625 14.9809 18.2544 13.8804 18.5728C12.7798 18.8911 11.6165 18.9255 10.4991 18.6726C9.38168 18.4198 8.3465 17.888 7.49018 17.1269C6.63386 16.3658 5.9843 15.4002 5.6021 14.3201C5.49345 14.0131 5.15644 13.8522 4.84938 13.9609C4.54233 14.0695 4.38149 14.4065 4.49015 14.7136C4.93881 15.9815 5.70134 17.1151 6.70659 18.0085C7.71184 18.902 8.92704 19.5263 10.2388 19.8231C11.5506 20.1199 12.9161 20.0796 14.2081 19.7059C15.497 19.333 16.6708 18.6405 17.6204 17.6927L20.4205 15.0615V18.6128C20.4205 18.9385 20.6846 19.2025 21.0103 19.2025C21.336 19.2025 21.6001 18.9385 21.6001 18.6128V13.7172Z" fill="#646464"/>
</svg>