<svg xmlns="http://www.w3.org/2000/svg" width="17" height="12" viewBox="0 0 17 12" fill="none">
<path d="M13.8074 4.76374C13.0741 1.83041 10.0741 0.0304053 7.14077 0.763739C4.80743 1.36374 3.14077 3.36374 3.00743 5.76374C1.34077 6.03041 0.274099 7.56374 0.540765 9.2304C0.807432 10.6971 2.00743 11.7637 3.54077 11.7637H5.54077C5.80743 11.7637 6.00743 11.5637 6.00743 11.2971C6.00743 11.0304 5.80743 10.8304 5.54077 10.8304H3.54077C2.40743 10.8304 1.54077 9.96374 1.54077 8.83041C1.54077 7.69707 2.40743 6.83041 3.54077 6.83041C3.80743 6.83041 4.00743 6.6304 4.00743 6.29707C4.00743 3.83041 6.00743 1.76374 8.4741 1.76374C10.6074 1.76374 12.4741 3.29707 12.8741 5.36374C12.9408 5.56374 13.0741 5.76374 13.2741 5.76374C14.6741 5.96374 15.6074 7.2304 15.4074 8.56374C15.2074 9.76374 14.2074 10.6971 12.9408 10.6971H11.4741C11.2074 10.6971 11.0074 10.8971 11.0074 11.1637C11.0074 11.4304 11.2074 11.6304 11.4741 11.6304H12.9408C14.8741 11.6304 16.4074 10.0304 16.4074 8.09707C16.4741 6.56374 15.3408 5.16374 13.8074 4.76374Z" fill="#646464"/>
<path fill-rule="evenodd" clip-rule="evenodd" d="M10.7994 5.96505C10.957 6.14021 10.9428 6.40998 10.7677 6.56762L8.39728 8.70096C8.23502 8.847 7.98869 8.847 7.82643 8.70096L6.64125 7.63429C6.46609 7.47666 6.4519 7.20688 6.60953 7.03173C6.76717 6.85657 7.03694 6.84237 7.2121 7.00001L8.11186 7.8098L10.1968 5.93334C10.372 5.7757 10.6417 5.7899 10.7994 5.96505Z" fill="#646464"/>
</svg>
