<svg width="16" height="16" viewBox="0 0 16 16" fill="none" xmlns="http://www.w3.org/2000/svg">
<path d="M7.99978 10.372C7.64193 10.372 7.34197 10.672 7.34197 11.0298C7.34197 11.3877 7.64193 11.6876 7.99978 11.6876C8.34447 11.6876 8.65759 11.3877 8.6418 11.0456C8.65759 10.6693 8.36026 10.372 7.99978 10.372Z" fill="#fa3939"/>
<path d="M14.6593 12.8235C15.1112 12.0922 15.114 11.2206 14.6651 10.492L10.1583 3.17383C9.71218 2.43715 8.90637 2 8.0027 2C7.09904 2 6.29322 2.43985 5.84714 3.17113L1.33457 10.4974C0.885617 11.2341 0.888495 12.1111 1.34321 12.8424C1.79216 13.5656 2.5951 14 3.49301 14H12.4951C13.3959 14 14.2046 13.5602 14.6593 12.8235ZM13.6808 12.2946C13.4305 12.6993 12.9873 12.9395 12.4923 12.9395H3.49013C3.00088 12.9395 2.56056 12.7047 2.31594 12.3081C2.06844 11.906 2.06556 11.4257 2.31306 11.0209L6.82563 3.69732C7.07026 3.29526 7.5077 3.05779 8.0027 3.05779C8.49483 3.05779 8.93515 3.29795 9.17977 3.70002L13.6895 11.0236C13.9312 11.4176 13.9283 11.8925 13.6808 12.2946Z" fill="#fa3939"/>
<path d="M7.83668 5.75434C7.52356 5.8438 7.32885 6.12798 7.32885 6.47267C7.34464 6.68054 7.35779 6.89103 7.37358 7.0989C7.41831 7.8909 7.46304 8.66712 7.50777 9.45912C7.52356 9.72751 7.73143 9.92222 7.99981 9.92222C8.2682 9.92222 8.4787 9.71435 8.49185 9.44333C8.49185 9.2802 8.49185 9.13021 8.50764 8.96445C8.53658 8.45662 8.56816 7.94879 8.5971 7.44096C8.61289 7.11206 8.64183 6.78315 8.65762 6.45425C8.65762 6.33584 8.64183 6.23059 8.5971 6.12534C8.46291 5.83065 8.14979 5.68067 7.83668 5.75434Z" fill="#fa3939"/>
</svg>
