<svg width="20" height="14" viewBox="0 0 20 14" fill="none" xmlns="http://www.w3.org/2000/svg">
<path d="M16.6343 5.20467C15.7176 1.538 11.9676 -0.712001 8.30096 0.204666C5.38429 0.954666 3.30096 3.45467 3.13429 6.45467C1.05096 6.788 -0.282377 8.70467 0.0509567 10.788C0.38429 12.6213 1.88429 13.9547 3.80096 13.9547H6.30096C6.63429 13.9547 6.88429 13.7047 6.88429 13.3713C6.88429 13.038 6.63429 12.788 6.30096 12.788H3.80096C2.38429 12.788 1.30096 11.7047 1.30096 10.288C1.30096 8.87133 2.38429 7.788 3.80096 7.788C4.13429 7.788 4.38429 7.538 4.38429 7.12133C4.38429 4.038 6.88429 1.45467 9.96762 1.45467C12.6343 1.45467 14.9676 3.37133 15.4676 5.95467C15.551 6.20467 15.7176 6.45467 15.9676 6.45467C17.7176 6.70467 18.8843 8.288 18.6343 9.95467C18.3843 11.4547 17.1343 12.6213 15.551 12.6213H13.7176C13.3843 12.6213 13.1343 12.8713 13.1343 13.2047C13.1343 13.538 13.3843 13.788 13.7176 13.788H15.551C17.9676 13.788 19.8843 11.788 19.8843 9.37133C19.9676 7.45467 18.551 5.70467 16.6343 5.20467Z" fill="#16b364"/>
<path fill-rule="evenodd" clip-rule="evenodd" d="M12.8742 6.70631C13.0713 6.92525 13.0535 7.26247 12.8346 7.45952L9.8716 10.1262C9.66877 10.3087 9.36087 10.3087 9.15804 10.1262L7.67656 8.79286C7.45762 8.59581 7.43987 8.25859 7.63691 8.03965C7.83396 7.82071 8.17118 7.80296 8.39012 8.00001L9.51482 9.01224L12.121 6.66667C12.3399 6.46962 12.6772 6.48737 12.8742 6.70631Z" fill="#16b364"/>
</svg>
