<svg width="20" height="20" viewBox="0 0 20 20" fill="none" xmlns="http://www.w3.org/2000/svg">
<path d="M10.6248 10.4167V8.75007C10.6248 8.40507 10.3448 8.125 9.99978 8.125C9.65478 8.125 9.37478 8.40507 9.37478 8.75007V10.4167C9.37478 10.7617 9.65478 11.0417 9.99978 11.0417C10.3448 11.0417 10.6248 10.7617 10.6248 10.4167ZM10.8498 12.9167C10.8498 12.4567 10.4764 12.0833 10.0164 12.0833H10.0081C9.54812 12.0833 9.17896 12.4567 9.17896 12.9167C9.17896 13.3767 9.55643 13.75 10.0164 13.75C10.4764 13.75 10.8498 13.3767 10.8498 12.9167Z" fill="#61646C"/>
<path d="M6.20208 5.21594C7.21256 4.29135 8.5346 3.95833 10.0001 3.95833C12.6441 3.95833 14.8304 5.98581 15.4931 8.15343C16.2976 8.24661 17.0841 8.56903 17.7084 9.12749C18.4708 9.80946 18.9584 10.8149 18.9584 12.085C18.9584 13.5354 18.343 14.5493 17.5163 15.1845C16.7149 15.8002 15.7424 16.0416 15.0001 16.0416H13.3334C12.9882 16.0416 12.7084 15.7618 12.7084 15.4166C12.7084 15.0715 12.9882 14.7916 13.3334 14.7916H15.0001C15.5077 14.7916 16.2019 14.618 16.7547 14.1933C17.2822 13.788 17.7084 13.1362 17.7084 12.085C17.7084 11.1573 17.3626 10.4953 16.8751 10.0592C16.3767 9.6134 15.6966 9.37497 15.0001 9.37496C14.7021 9.37495 14.4456 9.16467 14.3872 8.87253C14.0211 7.0422 12.1639 5.20833 10.0001 5.20833C8.71267 5.20833 7.74304 5.50027 7.04591 6.13815C6.34511 6.77939 5.8203 7.86092 5.62126 9.65231C5.58609 9.96883 5.31855 10.2083 5.00008 10.2083C4.49071 10.2083 3.78395 10.3841 3.22052 10.7744C2.67821 11.15 2.29175 11.702 2.29175 12.5014C2.29175 13.3565 2.62443 13.9076 3.05183 14.2569C3.49884 14.6222 4.08297 14.7916 4.58341 14.7916H7.08271C7.42789 14.7916 7.70841 15.0715 7.70841 15.4166C7.70841 15.7618 7.42857 16.0416 7.08339 16.0416H4.58341C3.83385 16.0416 2.95965 15.7959 2.26083 15.2247C1.5424 14.6376 1.04175 13.731 1.04175 12.5014C1.04175 11.216 1.69696 10.309 2.50881 9.74677C3.11379 9.32777 3.8178 9.08837 4.44687 8.99902C4.7075 7.30457 5.2858 6.05435 6.20208 5.21594Z" fill="#61646C"/>
</svg>
