<svg width="24" height="24" viewBox="0 0 24 24" fill="none" xmlns="http://www.w3.org/2000/svg">
<path d="M18.9771 11.4226C18.5151 5.53434 11.2176 2.83701 7.06289 7.04102C1.58541 12.743 7.96557 21.6285 15.1157 18.2585C15.2542 18.1872 15.3591 18.0641 15.4076 17.916C15.4562 17.7679 15.4445 17.6066 15.3751 17.4671C15.3057 17.3275 15.1843 17.2209 15.0369 17.1702C14.8896 17.1196 14.7283 17.129 14.5879 17.1965C11.0066 19.0405 6.48627 16.489 6.21878 12.4619C5.88611 8.95747 8.97607 5.86183 12.48 6.19606C13.4389 6.27466 14.3634 6.5904 15.1703 7.11493C15.9772 7.63946 16.6413 8.35635 17.1029 9.20121C17.5645 10.0461 17.8091 10.9924 17.8149 11.9553C17.8207 12.9182 17.5874 13.8675 17.136 14.7178C17.0692 14.8349 16.9764 14.935 16.8647 15.0103C16.7529 15.0856 16.6254 15.1341 16.4918 15.1519C16.3583 15.1698 16.2225 15.1566 16.0949 15.1133C15.9674 15.07 15.8515 14.9978 15.7564 14.9024C15.6571 14.8035 15.5784 14.6858 15.5248 14.5562C15.4712 14.4267 15.4438 14.2877 15.4441 14.1475V9.14239C15.4424 8.98628 15.3792 8.83716 15.2682 8.7274C15.1573 8.61763 15.0076 8.55607 14.8516 8.55607C14.6956 8.55607 14.5458 8.61764 14.4349 8.72741C14.324 8.83718 14.2608 8.98629 14.259 9.14241V9.39326C12.0835 7.46125 8.54733 9.07072 8.5704 11.9889C8.54862 14.9297 12.1287 16.5301 14.2951 14.5525C14.6069 16.4811 17.2334 17.0411 18.1818 15.2757C18.8092 14.0937 19.0852 12.7566 18.9771 11.4226ZM12.0073 14.2422C11.4103 14.2416 10.8379 14.0039 10.4158 13.5815C9.99364 13.159 9.75618 12.5862 9.7555 11.9888C9.87698 9.00021 14.138 9.00107 14.259 11.9888C14.2583 12.5863 14.0209 13.159 13.5987 13.5815C13.1766 14.0039 12.6042 14.2416 12.0073 14.2422Z" fill="#8A8A8A"/>
</svg>
