<svg width="18" height="18" viewBox="0 0 18 18" fill="none" xmlns="http://www.w3.org/2000/svg">
<path d="M16.5 14.9099H16.125V7.97241C16.125 7.05891 15.7035 6.56085 14.8665 6.48285C14.7375 6.47085 14.625 6.58125 14.625 6.711V14.9099H13.5V4.22241C13.5 2.72241 12.75 1.97241 11.25 1.97241H6.75C5.25 1.97241 4.5 2.72241 4.5 4.22241V14.9099H3.375V6.711C3.375 6.58125 3.26248 6.47085 3.13348 6.48285C2.29648 6.56085 1.875 7.05891 1.875 7.97241V14.9099H1.5C1.1925 14.9099 0.9375 15.1649 0.9375 15.4724C0.9375 15.7799 1.1925 16.0349 1.5 16.0349H16.5C16.8075 16.0349 17.0625 15.7799 17.0625 15.4724C17.0625 15.1649 16.8075 14.9099 16.5 14.9099ZM7.125 4.40991H7.875C8.1855 4.40991 8.4375 4.66191 8.4375 4.97241C8.4375 5.28291 8.1855 5.53491 7.875 5.53491H7.125C6.8145 5.53491 6.5625 5.28291 6.5625 4.97241C6.5625 4.66191 6.8145 4.40991 7.125 4.40991ZM7.125 6.65991H7.875C8.1855 6.65991 8.4375 6.91191 8.4375 7.22241C8.4375 7.53291 8.1855 7.78491 7.875 7.78491H7.125C6.8145 7.78491 6.5625 7.53291 6.5625 7.22241C6.5625 6.91191 6.8145 6.65991 7.125 6.65991ZM6.5625 9.47241C6.5625 9.16191 6.8145 8.90991 7.125 8.90991H7.875C8.1855 8.90991 8.4375 9.16191 8.4375 9.47241C8.4375 9.78291 8.1855 10.0349 7.875 10.0349H7.125C6.8145 10.0349 6.5625 9.78291 6.5625 9.47241ZM10.5 14.9099H7.5V13.2224C7.5 12.3944 8.172 11.7224 9 11.7224C9.82875 11.7224 10.5 12.3944 10.5 13.2224V14.9099ZM10.875 10.0349H10.125C9.8145 10.0349 9.5625 9.78291 9.5625 9.47241C9.5625 9.16191 9.8145 8.90991 10.125 8.90991H10.875C11.1855 8.90991 11.4375 9.16191 11.4375 9.47241C11.4375 9.78291 11.1855 10.0349 10.875 10.0349ZM10.875 7.78491H10.125C9.8145 7.78491 9.5625 7.53291 9.5625 7.22241C9.5625 6.91191 9.8145 6.65991 10.125 6.65991H10.875C11.1855 6.65991 11.4375 6.91191 11.4375 7.22241C11.4375 7.53291 11.1855 7.78491 10.875 7.78491ZM10.875 5.53491H10.125C9.8145 5.53491 9.5625 5.28291 9.5625 4.97241C9.5625 4.66191 9.8145 4.40991 10.125 4.40991H10.875C11.1855 4.40991 11.4375 4.66191 11.4375 4.97241C11.4375 5.28291 11.1855 5.53491 10.875 5.53491Z" fill="#61646C"/>
</svg>
