<svg width="32" height="32" viewBox="0 0 32 32" fill="none" xmlns="http://www.w3.org/2000/svg">
<path fill-rule="evenodd" clip-rule="evenodd" d="M31.9241 17.5689L30.9288 17.472C30.9759 16.988 31 16.497 31 16C31 15.503 30.9759 15.012 30.9288 14.528L31.9241 14.4311C31.9743 14.9473 32 15.4706 32 16C32 16.5294 31.9743 17.0527 31.9241 17.5689ZM31.315 11.3539L30.3579 11.6438C30.0707 10.6957 29.692 9.7872 29.2321 8.92847L30.1136 8.45631C30.6043 9.37248 31.0084 10.342 31.315 11.3539ZM28.3686 5.84955L27.596 6.48438C26.9721 5.72499 26.275 5.02793 25.5156 4.40401L26.1504 3.63136C26.9602 4.29663 27.7034 5.03985 28.3686 5.84955ZM23.5437 1.88642L23.0715 2.76793C22.2128 2.30798 21.3043 1.9293 20.3562 1.64205L20.6461 0.685011C21.658 0.991586 22.6275 1.3957 23.5437 1.88642ZM17.5689 0.075941L17.472 1.07124C16.988 1.02413 16.497 1 16 1C15.503 1 15.012 1.02413 14.528 1.07124L14.4311 0.0759412C14.9473 0.0257072 15.4706 0 16 0C16.5294 0 17.0527 0.0257071 17.5689 0.075941ZM11.3539 0.685012L11.6438 1.64205C10.6957 1.9293 9.7872 2.30798 8.92847 2.76793L8.45631 1.88642C9.37248 1.3957 10.342 0.991587 11.3539 0.685012ZM5.84955 3.63136L6.48438 4.40401C5.72499 5.02794 5.02793 5.725 4.40401 6.48438L3.63136 5.84955C4.29662 5.03985 5.03985 4.29663 5.84955 3.63136ZM1.88642 8.45631L2.76793 8.92847C2.30798 9.78721 1.9293 10.6957 1.64205 11.6438L0.685011 11.3539C0.991586 10.342 1.3957 9.37248 1.88642 8.45631ZM0.075941 14.4311C0.0257071 14.9473 0 15.4706 0 16C0 16.5294 0.0257072 17.0527 0.0759412 17.5689L1.07124 17.472C1.02413 16.988 1 16.497 1 16C1 15.503 1.02413 15.012 1.07124 14.528L0.075941 14.4311ZM0.685012 20.6461L1.64205 20.3562C1.9293 21.3043 2.30798 22.2128 2.76793 23.0715L1.88642 23.5437C1.3957 22.6275 0.991587 21.658 0.685012 20.6461ZM3.63136 26.1504L4.40401 25.5156C5.02794 26.275 5.725 26.9721 6.48438 27.596L5.84955 28.3686C5.03985 27.7034 4.29663 26.9602 3.63136 26.1504ZM8.45631 30.1136L8.92847 29.2321C9.78721 29.692 10.6957 30.0707 11.6438 30.3579L11.3539 31.315C10.342 31.0084 9.37248 30.6043 8.45631 30.1136ZM14.4311 31.9241L14.528 30.9288C15.012 30.9759 15.503 31 16 31C16.497 31 16.988 30.9759 17.472 30.9288L17.5689 31.9241C17.0527 31.9743 16.5294 32 16 32C15.4706 32 14.9473 31.9743 14.4311 31.9241ZM20.6461 31.315L20.3562 30.3579C21.3043 30.0707 22.2128 29.692 23.0715 29.2321L23.5437 30.1136C22.6275 30.6043 21.658 31.0084 20.6461 31.315ZM26.1504 28.3686L25.5156 27.596C26.275 26.9721 26.9721 26.275 27.596 25.5156L28.3686 26.1504C27.7034 26.9602 26.9602 27.7034 26.1504 28.3686ZM30.1136 23.5437L29.2321 23.0715C29.692 22.2128 30.0707 21.3043 30.3579 20.3562L31.315 20.6461C31.0084 21.658 30.6043 22.6275 30.1136 23.5437Z" fill="#28ad99"/>
<path d="M20 16.5714H16.5714V20H15.4286V16.5714H12V15.4286H15.4286V12H16.5714V15.4286H20V16.5714Z" fill="#00A99F"/>
</svg>