<svg width="20" height="20" viewBox="0 0 20 20" fill="none" xmlns="http://www.w3.org/2000/svg">
  <path fill-rule="evenodd" clip-rule="evenodd" d="M10 3.125C6.20304 3.125 3.125 6.20304 3.125 10C3.125 13.797 6.20304 16.875 10 16.875C13.797 16.875 16.875 13.797 16.875 10C16.875 6.20304 13.797 3.125 10 3.125ZM1.875 10C1.875 5.51269 5.51269 1.875 10 1.875C14.4873 1.875 18.125 5.51269 18.125 10C18.125 14.4873 14.4873 18.125 10 18.125C5.51269 18.125 1.875 14.4873 1.875 10Z" fill="currentColor"/>
  <path fill-rule="evenodd" clip-rule="evenodd" d="M12.9419 7.89155C13.186 8.13563 13.186 8.53136 12.9419 8.77544L9.60861 12.1088C9.36453 12.3528 8.9688 12.3528 8.72473 12.1088L7.05806 10.4421C6.81398 10.198 6.81398 9.8023 7.05806 9.55822C7.30214 9.31414 7.69786 9.31414 7.94194 9.55822L9.16667 10.7829L12.0581 7.89155C12.3021 7.64748 12.6979 7.64748 12.9419 7.89155Z" fill="currentColor"/>
</svg>
