<svg width="20" height="20" viewBox="0 0 20 20" fill="none" xmlns="http://www.w3.org/2000/svg">
<path d="M5.57143 12.4286C5.57143 12.113 5.82732 11.8571 6.14286 11.8571H11.5C11.8155 11.8571 12.0714 12.113 12.0714 12.4286C12.0714 12.7441 11.8155 13 11.5 13H6.14286C5.82732 13 5.57143 12.7441 5.57143 12.4286Z" fill="#646464"/>
<path d="M5.99996 6.5711C5.68442 6.5711 5.42853 6.82694 5.42853 7.14253C5.42853 7.45812 5.68442 7.71396 5.99996 7.71396H14C14.3155 7.71396 14.5714 7.45812 14.5714 7.14253C14.5714 6.82694 14.3155 6.5711 14 6.5711H5.99996Z" fill="#646464"/>
<path d="M2 3.71429C2 2.76751 2.76751 2 3.71429 2H16.2857C17.2325 2 18 2.76751 18 3.71429V16.2857C18 17.2325 17.2325 18 16.2857 18H3.71429C2.76751 18 2 17.2325 2 16.2857V3.71429ZM3.71429 3.14286C3.3987 3.14286 3.14286 3.3987 3.14286 3.71429V16.2857C3.14286 16.6013 3.3987 16.8571 3.71429 16.8571H16.2857C16.6013 16.8571 16.8571 16.6013 16.8571 16.2857V3.71429C16.8571 3.3987 16.6013 3.14286 16.2857 3.14286H3.71429Z" fill="#646464"/>
</svg>
