<svg width="26" height="24" viewBox="0 0 26 24" fill="none" xmlns="http://www.w3.org/2000/svg">
<g id="vector">
<path fill-rule="evenodd" clip-rule="evenodd" d="M24.6665 5.58317H11.8332C11.1891 5.58317 10.6665 5.06059 10.6665 4.4165C10.6665 3.77242 11.1891 3.24984 11.8332 3.24984H24.6665C25.3106 3.24984 25.8332 3.77242 25.8332 4.4165C25.8332 5.06059 25.3106 5.58317 24.6665 5.58317Z" fill="#28AD99"/>
<path fill-rule="evenodd" clip-rule="evenodd" d="M24.6665 13.7498H11.8332C11.1891 13.7498 10.6665 13.2273 10.6665 12.5832C10.6665 11.9391 11.1891 11.4165 11.8332 11.4165H24.6665C25.3106 11.4165 25.8332 11.9391 25.8332 12.5832C25.8332 13.2273 25.3106 13.7498 24.6665 13.7498Z" fill="#28AD99"/>
<path fill-rule="evenodd" clip-rule="evenodd" d="M24.6665 21.9165H11.8332C11.1891 21.9165 10.6665 21.3939 10.6665 20.7498C10.6665 20.1058 11.1891 19.5832 11.8332 19.5832H24.6665C25.3106 19.5832 25.8332 20.1058 25.8332 20.7498C25.8332 21.3939 25.3106 21.9165 24.6665 21.9165Z" fill="#28AD99"/>
<path fill-rule="evenodd" clip-rule="evenodd" d="M9.1598 2.90866L4.49383 7.57462C4.26562 7.80416 3.96312 7.91739 3.66625 7.91739C3.36748 7.91739 3.06847 7.80216 2.84164 7.57533L0.508306 5.24199C0.0525698 4.78626 0.0525698 4.04738 0.508306 3.59164C0.964042 3.1359 1.70292 3.1359 2.15866 3.59164L3.66739 5.10037L7.50945 1.25831C7.96518 0.80257 8.70406 0.80257 9.1598 1.25831C9.61553 1.71404 9.61553 2.45292 9.1598 2.90866Z" fill="#28AD99"/>
<path fill-rule="evenodd" clip-rule="evenodd" d="M2.49984 12.5832C2.49984 11.2945 3.54451 10.2498 4.83317 10.2498C6.12184 10.2498 7.1665 11.2945 7.1665 12.5832C7.1665 13.8718 6.12184 14.9165 4.83317 14.9165C3.54451 14.9165 2.49984 13.8718 2.49984 12.5832Z" fill="#28AD99"/>
<path fill-rule="evenodd" clip-rule="evenodd" d="M2.49984 20.7498C2.49984 19.4612 3.54451 18.4165 4.83317 18.4165C6.12184 18.4165 7.1665 19.4612 7.1665 20.7498C7.1665 22.0385 6.12184 23.0832 4.83317 23.0832C3.54451 23.0832 2.49984 22.0385 2.49984 20.7498Z" fill="#28AD99"/>
</g>
</svg>
