<svg width="28" height="28" viewBox="0 0 28 28" fill="none" xmlns="http://www.w3.org/2000/svg">
<g id="Task">
<g id="vector">
<path d="M12.833 6.70833H25.6663C26.1493 6.70833 26.5413 6.31633 26.5413 5.83333C26.5413 5.35033 26.1493 4.95833 25.6663 4.95833H12.833C12.35 4.95833 11.958 5.35033 11.958 5.83333C11.958 6.31633 12.35 6.70833 12.833 6.70833Z" fill="#85888E"/>
<path d="M12.833 14.875H25.6663C26.1493 14.875 26.5413 14.483 26.5413 14C26.5413 13.517 26.1493 13.125 25.6663 13.125H12.833C12.35 13.125 11.958 13.517 11.958 14C11.958 14.483 12.35 14.875 12.833 14.875Z" fill="#85888E"/>
<path d="M12.833 23.0417H25.6663C26.1493 23.0417 26.5413 22.6497 26.5413 22.1667C26.5413 21.6837 26.1493 21.2917 25.6663 21.2917H12.833C12.35 21.2917 11.958 21.6837 11.958 22.1667C11.958 22.6497 12.35 23.0417 12.833 23.0417Z" fill="#85888E"/>
<path d="M5.28673 8.78592L9.9534 4.11925C10.2952 3.77742 10.2952 3.22321 9.9534 2.88138C9.61156 2.53954 9.05735 2.53954 8.71552 2.88138L4.66722 6.92967L2.95226 5.21471C2.61042 4.87287 2.05622 4.87287 1.71438 5.21471C1.37255 5.55654 1.37255 6.11075 1.71438 6.45258L4.04772 8.78592C4.21805 8.95625 4.44208 9.04255 4.66608 9.04255C4.89008 9.04255 5.1164 8.95742 5.28673 8.78592Z" fill="#85888E"/>
<path fill-rule="evenodd" clip-rule="evenodd" d="M5.83301 12.5417C5.02759 12.5417 4.37467 13.1946 4.37467 14C4.37467 14.8054 5.02759 15.4583 5.83301 15.4583C6.63842 15.4583 7.29134 14.8054 7.29134 14C7.29134 13.1946 6.63842 12.5417 5.83301 12.5417ZM2.62467 14C2.62467 12.2281 4.06109 10.7917 5.83301 10.7917C7.60492 10.7917 9.04134 12.2281 9.04134 14C9.04134 15.7719 7.60492 17.2083 5.83301 17.2083C4.06109 17.2083 2.62467 15.7719 2.62467 14Z" fill="#85888E"/>
<path fill-rule="evenodd" clip-rule="evenodd" d="M5.83301 20.7083C5.02759 20.7083 4.37467 21.3612 4.37467 22.1667C4.37467 22.9721 5.02759 23.625 5.83301 23.625C6.63842 23.625 7.29134 22.9721 7.29134 22.1667C7.29134 21.3612 6.63842 20.7083 5.83301 20.7083ZM2.62467 22.1667C2.62467 20.3948 4.06109 18.9583 5.83301 18.9583C7.60492 18.9583 9.04134 20.3948 9.04134 22.1667C9.04134 23.9386 7.60492 25.375 5.83301 25.375C4.06109 25.375 2.62467 23.9386 2.62467 22.1667Z" fill="#85888E"/>
</g>
</g>
</svg>
