<svg width="31" height="34" viewBox="0 0 31 34" fill="none" xmlns="http://www.w3.org/2000/svg">
<path d="M23.8327 0.75H7.16602C3.13602 0.75 0.916016 2.97 0.916016 7V27C0.916016 31.03 3.13602 33.25 7.16602 33.25H23.8327C27.8627 33.25 30.0827 31.03 30.0827 27V7C30.0827 2.97 27.8627 0.75 23.8327 0.75ZM27.5827 27C27.5827 29.6283 26.461 30.75 23.8327 30.75H7.16602C4.53768 30.75 3.41602 29.6283 3.41602 27V7C3.41602 4.37167 4.53768 3.25 7.16602 3.25H23.8327C26.461 3.25 27.5827 4.37167 27.5827 7V27ZM24.2493 10.3333C24.2493 11.0233 23.6893 11.5833 22.9993 11.5833H16.3327C15.6427 11.5833 15.0827 11.0233 15.0827 10.3333C15.0827 9.64333 15.6427 9.08333 16.3327 9.08333H22.9993C23.6893 9.08333 24.2493 9.64333 24.2493 10.3333ZM24.2493 17C24.2493 17.69 23.6893 18.25 22.9993 18.25H16.3327C15.6427 18.25 15.0827 17.69 15.0827 17C15.0827 16.31 15.6427 15.75 16.3327 15.75H22.9993C23.6893 15.75 24.2493 16.31 24.2493 17ZM12.2161 8.3383C12.7044 8.82663 12.7044 9.61836 12.2161 10.1067L9.99438 12.3284C9.75105 12.5717 9.431 12.695 9.111 12.695C8.79267 12.695 8.47095 12.5733 8.22762 12.33L7.11597 11.2183C6.62763 10.73 6.62763 9.93828 7.11597 9.44995C7.60263 8.96328 8.39436 8.96162 8.88436 9.44995L9.11263 9.67832L10.4509 8.34003C10.9376 7.85003 11.7277 7.84996 12.2161 8.3383ZM12.2161 15.005C12.7044 15.4933 12.7044 16.285 12.2161 16.7734L9.99438 18.995C9.75105 19.2384 9.431 19.3617 9.111 19.3617C8.79267 19.3617 8.47095 19.24 8.22762 18.9967L7.11597 17.885C6.62763 17.3967 6.62763 16.605 7.11597 16.1166C7.60263 15.63 8.39436 15.6283 8.88436 16.1166L9.11263 16.345L10.4509 15.0067C10.9376 14.5167 11.7277 14.5166 12.2161 15.005ZM24.2493 23.6667C24.2493 24.3567 23.6893 24.9167 22.9993 24.9167H16.3327C15.6427 24.9167 15.0827 24.3567 15.0827 23.6667C15.0827 22.9767 15.6427 22.4167 16.3327 22.4167H22.9993C23.6893 22.4167 24.2493 22.9767 24.2493 23.6667ZM12.2161 21.6716C12.7044 22.16 12.7044 22.9517 12.2161 23.44L9.99438 25.6617C9.75105 25.905 9.431 26.0283 9.111 26.0283C8.79267 26.0283 8.47095 25.9067 8.22762 25.6633L7.11597 24.5517C6.62763 24.0633 6.62763 23.2716 7.11597 22.7833C7.60263 22.2966 8.39436 22.295 8.88436 22.7833L9.11263 23.0117L10.4509 21.6734C10.9376 21.1834 11.7277 21.1833 12.2161 21.6716Z" fill="#61646C"/>
</svg>
