<svg width="20" height="20" viewBox="0 0 20 20" fill="none" xmlns="http://www.w3.org/2000/svg">
<path d="M9.2613 5.8814C9.48445 6.10456 9.48444 6.46636 9.26128 6.68952L7.26128 8.68941C7.04524 8.90546 6.69746 8.91332 6.47186 8.70728L5.61472 7.92442C5.38169 7.7116 5.36533 7.35016 5.57815 7.11713C5.79098 6.8841 6.15242 6.86773 6.38545 7.08056L6.83935 7.49513L8.45318 5.88138C8.67634 5.65823 9.03815 5.65824 9.2613 5.8814Z" fill="#646464"/>
<path d="M9.26128 12.4034C9.48444 12.1802 9.48445 11.8184 9.2613 11.5953C9.03815 11.3721 8.67634 11.3721 8.45318 11.5952L6.83935 13.209L6.38545 12.7944C6.15242 12.5816 5.79098 12.5979 5.57815 12.831C5.36533 13.064 5.38169 13.4255 5.61472 13.6383L6.47186 14.4211C6.69746 14.6272 7.04524 14.6193 7.26128 14.4033L9.26128 12.4034Z" fill="#646464"/>
<path d="M10.5715 12.8577C10.5715 12.5422 10.8274 12.2863 11.1429 12.2863H14C14.3156 12.2863 14.5715 12.5422 14.5715 12.8577C14.5715 13.1733 14.3156 13.4291 14 13.4291H11.1429C10.8274 13.4291 10.5715 13.1733 10.5715 12.8577Z" fill="#646464"/>
<path d="M11.1429 6.5711C10.8274 6.5711 10.5715 6.82694 10.5715 7.14253C10.5715 7.45812 10.8274 7.71396 11.1429 7.71396H14C14.3156 7.71396 14.5715 7.45812 14.5715 7.14253C14.5715 6.82694 14.3156 6.5711 14 6.5711H11.1429Z" fill="#646464"/>
<path d="M2 3.71429C2 2.76751 2.76751 2 3.71429 2H16.2857C17.2325 2 18 2.76751 18 3.71429V16.2857C18 17.2325 17.2325 18 16.2857 18H3.71429C2.76751 18 2 17.2325 2 16.2857V3.71429ZM3.71429 3.14286C3.3987 3.14286 3.14286 3.3987 3.14286 3.71429V16.2857C3.14286 16.6013 3.3987 16.8571 3.71429 16.8571H16.2857C16.6013 16.8571 16.8571 16.6013 16.8571 16.2857V3.71429C16.8571 3.3987 16.6013 3.14286 16.2857 3.14286H3.71429Z" fill="#646464"/>
</svg>
