<svg width="20" height="20" viewBox="0 0 20 20" fill="currentColor" xmlns="http://www.w3.org/2000/svg">
<path fill-rule="evenodd" clip-rule="evenodd" d="M3.5999 3.10002C3.33469 3.10002 3.08033 3.20538 2.8928 3.39292C2.70526 3.58045 2.5999 3.83481 2.5999 4.10002V15.3C2.5999 15.5652 2.70526 15.8196 2.8928 16.0071C3.08033 16.1947 3.33469 16.3 3.5999 16.3H16.3999C16.6651 16.3 16.9195 16.1947 17.107 16.0071C17.2945 15.8196 17.3999 15.5652 17.3999 15.3V6.50002C17.3999 6.23481 17.2945 5.98045 17.107 5.79292C16.9195 5.60538 16.6651 5.50002 16.3999 5.50002H9.1999C8.99929 5.50002 8.81195 5.39976 8.70067 5.23284L7.27879 3.10002H3.5999ZM2.04427 2.54439C2.45685 2.13181 3.01643 1.90002 3.5999 1.90002H7.5999C7.80051 1.90002 7.98785 2.00029 8.09913 2.1672L9.52101 4.30002H16.3999C16.9834 4.30002 17.543 4.53181 17.9555 4.94439C18.3681 5.35697 18.5999 5.91655 18.5999 6.50002V15.3C18.5999 15.8835 18.3681 16.4431 17.9555 16.8557C17.543 17.2682 16.9834 17.5 16.3999 17.5H3.5999C3.01643 17.5 2.45685 17.2682 2.04427 16.8557C1.63169 16.4431 1.3999 15.8835 1.3999 15.3V4.10002C1.3999 3.51655 1.63169 2.95697 2.04427 2.54439ZM9.9999 7.50002C10.3313 7.50002 10.5999 7.76865 10.5999 8.10002V9.90002H12.3999C12.7313 9.90002 12.9999 10.1687 12.9999 10.5C12.9999 10.8314 12.7313 11.1 12.3999 11.1H10.5999V12.9C10.5999 13.2314 10.3313 13.5 9.9999 13.5C9.66853 13.5 9.3999 13.2314 9.3999 12.9V11.1H7.5999C7.26853 11.1 6.9999 10.8314 6.9999 10.5C6.9999 10.1687 7.26853 9.90002 7.5999 9.90002H9.3999V8.10002C9.3999 7.76865 9.66853 7.50002 9.9999 7.50002Z" fill="currentColor"/>
</svg>
