<svg width="20" height="20" viewBox="0 0 20 20" fill="none" xmlns="http://www.w3.org/2000/svg">
<path d="M14.1667 3.54167H13.9417C13.8608 2.49667 13.1842 1.875 12.0833 1.875H7.91668C6.81584 1.875 6.13919 2.49667 6.05836 3.54167H5.83334C3.81834 3.54167 2.70834 4.65167 2.70834 6.66667V15C2.70834 17.015 3.81834 18.125 5.83334 18.125H14.1667C16.1817 18.125 17.2917 17.015 17.2917 15V6.66667C17.2917 4.65167 16.1817 3.54167 14.1667 3.54167ZM7.29168 3.75C7.29168 3.25917 7.42584 3.125 7.91668 3.125H12.0833C12.5742 3.125 12.7083 3.25917 12.7083 3.75V4.58333C12.7083 5.07417 12.5742 5.20833 12.0833 5.20833H7.91668C7.42584 5.20833 7.29168 5.07417 7.29168 4.58333V3.75ZM16.0417 15C16.0417 16.3142 15.4808 16.875 14.1667 16.875H5.83334C4.51918 16.875 3.95834 16.3142 3.95834 15V6.66667C3.95834 5.3525 4.51918 4.79167 5.83334 4.79167H6.05836C6.13919 5.83667 6.81584 6.45833 7.91668 6.45833H12.0833C13.1842 6.45833 13.8608 5.83667 13.9417 4.79167H14.1667C15.4808 4.79167 16.0417 5.3525 16.0417 6.66667V15ZM14.375 10C14.375 10.345 14.095 10.625 13.75 10.625H10.4167C10.0717 10.625 9.79168 10.345 9.79168 10C9.79168 9.655 10.0717 9.375 10.4167 9.375H13.75C14.095 9.375 14.375 9.655 14.375 10ZM14.375 13.3333C14.375 13.6783 14.095 13.9583 13.75 13.9583H10.4167C10.0717 13.9583 9.79168 13.6783 9.79168 13.3333C9.79168 12.9883 10.0717 12.7083 10.4167 12.7083H13.75C14.095 12.7083 14.375 12.9883 14.375 13.3333ZM8.35837 9.00248C8.60253 9.24665 8.60253 9.64251 8.35837 9.88668L7.24753 10.9975C7.13003 11.115 6.97167 11.1808 6.80584 11.1808C6.64 11.1808 6.48081 11.115 6.36415 10.9983L5.80832 10.4425C5.56415 10.1983 5.56415 9.80248 5.80832 9.55831C6.05249 9.31414 6.44835 9.31414 6.69251 9.55831L6.80665 9.6725L7.4758 9.00335C7.71913 8.75835 8.1142 8.75832 8.35837 9.00248ZM8.35837 12.3358C8.60253 12.58 8.60253 12.9758 8.35837 13.22L7.24753 14.3309C7.13003 14.4484 6.97167 14.5142 6.80584 14.5142C6.64 14.5142 6.48081 14.4483 6.36415 14.3317L5.80832 13.7758C5.56415 13.5317 5.56415 13.1358 5.80832 12.8916C6.05249 12.6475 6.44835 12.6475 6.69251 12.8916L6.80665 13.0058L7.4758 12.3367C7.71913 12.0917 8.1142 12.0916 8.35837 12.3358Z" fill="#61646C"/>
</svg>
