<svg width="40" height="40" viewBox="0 0 40 40" fill="none" xmlns="http://www.w3.org/2000/svg">
<g clip-path="url(#clip0_5177_46561)">
<circle cx="20" cy="20" r="20" fill="#f1c012"/>
<path d="M19.9406 22.9622C23.9437 22.9622 27.3617 23.5969 27.3617 26.1364C27.3617 28.6749 23.9656 29.3327 19.9406 29.3327C15.9376 29.3327 12.5195 28.6981 12.5195 26.1595C12.5195 23.62 15.9156 22.9622 19.9406 22.9622ZM26.341 21.433C27.8714 21.4047 29.5167 21.6148 30.1247 21.764C31.4127 22.0172 32.2599 22.5342 32.6109 23.2854C32.9076 23.9022 32.9076 24.6177 32.6109 25.2334C32.074 26.3987 30.343 26.7727 29.6703 26.8694C29.5313 26.8904 29.4195 26.7696 29.4342 26.6298C29.7778 23.401 27.044 21.8701 26.3368 21.5181C26.3065 21.5024 26.3003 21.4782 26.3034 21.4635C26.3055 21.453 26.318 21.4362 26.341 21.433ZM13.3718 21.4309L13.6599 21.4335C13.6829 21.4366 13.6944 21.4534 13.6965 21.4629C13.6996 21.4786 13.6934 21.5018 13.6641 21.5186C12.9559 21.8706 10.222 23.4014 10.5657 26.6292C10.5804 26.77 10.4696 26.8898 10.3307 26.8698C9.65794 26.7732 7.92698 26.3991 7.39004 25.2339C7.09232 24.6171 7.09232 23.9026 7.39004 23.2859C7.74104 22.5346 8.58719 22.0177 9.87523 21.7634C10.4843 21.6152 12.1285 21.4051 13.6599 21.4335L13.3718 21.4309ZM19.9406 10.666C22.6661 10.666 24.8514 12.862 24.8514 15.6043C24.8514 18.3456 22.6661 20.5437 19.9406 20.5437C17.2152 20.5437 15.0298 18.3456 15.0298 15.6043C15.0298 12.862 17.2152 10.666 19.9406 10.666ZM26.6074 11.4896C29.2399 11.4896 31.3072 13.9808 30.6031 16.7557C30.1278 18.6239 28.4073 19.8648 26.4904 19.8143C26.2982 19.8091 26.1091 19.7912 25.9263 19.7597C25.7936 19.7366 25.7267 19.5863 25.802 19.4749C26.5332 18.3927 26.95 17.0909 26.95 15.6934C26.95 14.2351 26.4946 12.8754 25.7038 11.7606C25.6787 11.726 25.6599 11.6724 25.685 11.6325C25.7059 11.5999 25.7445 11.5831 25.7811 11.5747C26.0475 11.52 26.3211 11.4896 26.6074 11.4896ZM13.392 11.4895C13.6782 11.4895 13.9519 11.5199 14.2193 11.5746C14.2549 11.583 14.2946 11.6008 14.3155 11.6324C14.3395 11.6723 14.3217 11.7259 14.2967 11.7605C13.5059 12.8753 13.0504 14.235 13.0504 15.6933C13.0504 17.0908 13.4672 18.3926 14.1985 19.4748C14.2737 19.5862 14.2068 19.7365 14.0741 19.7596C13.8903 19.7921 13.7023 19.809 13.51 19.8142C11.5931 19.8646 9.87262 18.6238 9.39731 16.7556C8.69218 13.9807 10.7595 11.4895 13.392 11.4895Z" fill="white"/>
</g>
<defs>
<clipPath id="clip0_5177_46561">
<rect width="40" height="40" fill="white"/>
</clipPath>
</defs>
</svg>
