<svg width="20" height="20" viewBox="0 0 20 20" fill="none" xmlns="http://www.w3.org/2000/svg">
<path d="M13.4 8.65757C13.4966 8.32674 13.8425 8.13671 14.1758 8.23338C14.2516 8.25588 14.3408 8.26674 14.45 8.26674C15.1758 8.26674 15.7667 7.6725 15.7667 6.94167C15.7667 6.34417 15.3633 5.82173 14.7841 5.67173C14.45 5.58507 14.2491 5.24337 14.3366 4.9092C14.4225 4.57503 14.7617 4.37673 15.0984 4.4609C16.2275 4.75423 17.0167 5.77419 17.0167 6.94086C17.0167 8.36086 15.865 9.51583 14.45 9.51583C14.2208 9.51583 14.0158 9.48835 13.8241 9.43252C13.4925 9.33585 13.3033 8.98924 13.4 8.65757ZM15.7475 9.94257C15.7391 9.94257 15.7317 9.94257 15.725 9.94257C15.39 9.94257 15.1125 10.2076 15.1008 10.5451C15.0875 10.8901 15.3575 11.1793 15.7025 11.1918C17.5633 11.2593 17.7083 12.8542 17.7083 13.3417V15C17.7083 15.345 17.9883 15.625 18.3333 15.625C18.6783 15.625 18.9583 15.345 18.9583 15V13.3417C18.9583 11.8267 18.1175 10.0276 15.7475 9.94257ZM5.55836 9.51674C5.78753 9.51674 5.99251 9.48916 6.18417 9.43333C6.51501 9.33583 6.70503 8.98924 6.60837 8.65757C6.5117 8.32674 6.16501 8.13671 5.83251 8.23338C5.75668 8.25588 5.66753 8.26674 5.55836 8.26674C4.83253 8.26674 4.24163 7.6725 4.24163 6.94167C4.24163 6.33917 4.64829 5.81339 5.23162 5.66339C5.56495 5.57756 5.7675 5.23675 5.68084 4.90259C5.59417 4.56759 5.25245 4.36504 4.91912 4.45337C3.78495 4.74587 2.99244 5.76917 2.99244 6.94167C2.99161 8.36167 4.14336 9.51674 5.55836 9.51674ZM4.8825 10.5417C4.86833 10.1967 4.58495 9.92423 4.23329 9.94257C1.87745 10.0376 1.04166 11.8334 1.04166 13.3417V15C1.04166 15.345 1.32166 15.625 1.66666 15.625C2.01166 15.625 2.29166 15.345 2.29166 15V13.3417C2.29166 12.7192 2.48582 11.2634 4.28415 11.1918C4.62915 11.1776 4.89666 10.8867 4.8825 10.5417ZM6.8817 5.83337C6.8817 4.11004 8.2842 2.70837 10.0067 2.70837C11.7292 2.70837 13.1317 4.11004 13.1317 5.83337C13.1317 7.55671 11.7292 8.95837 10.0067 8.95837C8.2842 8.95837 6.8817 7.55671 6.8817 5.83337ZM8.1317 5.83337C8.1317 6.86754 8.97337 7.70837 10.0067 7.70837C11.04 7.70837 11.8817 6.86754 11.8817 5.83337C11.8817 4.79921 11.04 3.95837 10.0067 3.95837C8.97337 3.95837 8.1317 4.79921 8.1317 5.83337ZM11.4808 10.1159H8.51836C5.32253 10.1159 4.18914 12.455 4.18914 14.4584V16.6667C4.18914 17.0117 4.46914 17.2917 4.81414 17.2917C5.15914 17.2917 5.43914 17.0117 5.43914 16.6667V14.4584C5.43914 13.7325 5.6617 11.3659 8.51836 11.3659H11.4808C14.3383 11.3659 14.56 13.7325 14.56 14.4584V16.6667C14.56 17.0117 14.84 17.2917 15.185 17.2917C15.53 17.2917 15.81 17.0117 15.81 16.6667V14.4584C15.8109 12.455 14.6766 10.1159 11.4808 10.1159Z" fill="#61646C"/>
</svg>
