<?xml version="1.0" encoding="UTF-8"?>
<svg width="49px" height="32px" viewBox="0 0 49 32" version="1.1" xmlns="http://www.w3.org/2000/svg" xmlns:xlink="http://www.w3.org/1999/xlink">
    <title>Tenant finding</title>
    <g id="New-Property-Menu" stroke="none" stroke-width="1" fill="none" fill-rule="evenodd">
        <g id="Pre-defined-Topic-Icons" transform="translate(-70.000000, -422.000000)" fill="#FFFFFF">
            <path d="M94.5,436 C98.7070077,436 102.346285,437.48815 104.936208,440.101075 C107.526131,442.714225 109,446.38465 109,450.625 L109,450.625 L109,454 L80,454 L80,450.625 C80,446.384875 81.4734231,442.714225 84.0631454,440.1013 C86.6529346,437.48815 90.2923231,436 94.5,436 Z M78.9090909,440 C79.8318693,440 80.7056557,440.098246 81.5191363,440.284874 C79.4186258,442.629618 78.0208336,445.606923 77.4844903,449.000456 L70,449 L70,447.71435 C70,443.17565 73.6638636,440 78.9090909,440 Z M110.090909,440 C115.240096,440 118.8638,443.059122 118.996245,447.463614 L119,447.71435 L119,449 L111.515442,449.000346 C110.979033,445.607209 109.581224,442.630344 107.481002,440.285757 C108.294667,440.098246 109.168327,440 110.090909,440 Z M78.5,429 C80.98175,429 83,431.01375 83,433.5 C83,435.98625 80.98175,438 78.5,438 C76.019375,438 74,435.98625 74,433.5 C74,431.01375 76.019375,429 78.5,429 Z M109.5,429 C111.98175,429 114,431.01375 114,433.5 C114,435.98625 111.98175,438 109.5,438 C107.019375,438 105,435.98625 105,433.5 C105,431.01375 107.019375,429 109.5,429 Z M94.5,422 C98.0832333,422 101,424.90875 101,428.5 C101,432.09125 98.0832333,435 94.5,435 C90.91525,435 88,432.09125 88,428.5 C88,424.90875 90.91525,422 94.5,422 Z" id="Tenant-finding"></path>
        </g>
    </g>
</svg>