<svg width="4" height="14" viewBox="0 0 4 14" fill="none" xmlns="http://www.w3.org/2000/svg">
<path d="M2.00007 3.0399C1.27105 3.0399 0.680067 2.44892 0.680067 1.7199C0.680068 0.990886 1.27105 0.399902 2.00007 0.399902C2.72908 0.399902 3.32007 0.990887 3.32007 1.7199C3.32007 2.44892 2.72908 3.0399 2.00007 3.0399Z" fill="#202020"/>
<path d="M2.00007 8.3199C1.27105 8.3199 0.680067 7.72892 0.680067 6.9999C0.680067 6.27089 1.27105 5.6799 2.00007 5.6799C2.72908 5.6799 3.32007 6.27089 3.32007 6.9999C3.32007 7.72892 2.72908 8.3199 2.00007 8.3199Z" fill="#202020"/>
<path d="M2.00007 13.5999C1.27105 13.5999 0.680067 13.0089 0.680067 12.2799C0.680067 11.5509 1.27105 10.9599 2.00007 10.9599C2.72908 10.9599 3.32007 11.5509 3.32007 12.2799C3.32007 13.0089 2.72908 13.5999 2.00007 13.5999Z" fill="#202020"/>
</svg>
