<svg width="4" height="14" viewBox="0 0 4 14" fill="none" xmlns="http://www.w3.org/2000/svg">
<path d="M1.99982 3.0399C1.27081 3.0399 0.679823 2.44892 0.679823 1.7199C0.679823 0.990886 1.27081 0.399902 1.99982 0.399902C2.72884 0.399902 3.31982 0.990887 3.31982 1.7199C3.31982 2.44892 2.72884 3.0399 1.99982 3.0399Z" fill="#8A8A8A"/>
<path d="M1.99982 8.3199C1.27081 8.3199 0.679823 7.72892 0.679823 6.9999C0.679823 6.27089 1.27081 5.6799 1.99982 5.6799C2.72884 5.6799 3.31982 6.27089 3.31982 6.9999C3.31982 7.72892 2.72884 8.3199 1.99982 8.3199Z" fill="#8A8A8A"/>
<path d="M1.99982 13.5999C1.27081 13.5999 0.679823 13.0089 0.679823 12.2799C0.679823 11.5509 1.27081 10.9599 1.99982 10.9599C2.72884 10.9599 3.31982 11.5509 3.31982 12.2799C3.31982 13.0089 2.72884 13.5999 1.99982 13.5999Z" fill="#8A8A8A"/>
</svg>
