<svg width="46" height="50" viewBox="0 0 46 50" fill="none" xmlns="http://www.w3.org/2000/svg">
<g filter="url(#filter0_dd_14546_7104)">
<rect x="7" y="7" width="32" height="32" rx="16" fill="white"/>
<path d="M22.9996 19.7C22.3921 19.7 21.8996 19.2075 21.8996 18.6C21.8996 17.9925 22.3921 17.5 22.9996 17.5C23.6071 17.5 24.0996 17.9925 24.0996 18.6C24.0996 19.2075 23.6071 19.7 22.9996 19.7Z" fill="#646464"/>
<path d="M22.9996 24.1C22.3921 24.1 21.8996 23.6075 21.8996 23C21.8996 22.3925 22.3921 21.9 22.9996 21.9C23.6071 21.9 24.0996 22.3925 24.0996 23C24.0996 23.6075 23.6071 24.1 22.9996 24.1Z" fill="#646464"/>
<path d="M22.9996 28.5C22.3921 28.5 21.8996 28.0075 21.8996 27.4C21.8996 26.7925 22.3921 26.3 22.9996 26.3C23.6071 26.3 24.0996 26.7925 24.0996 27.4C24.0996 28.0075 23.6071 28.5 22.9996 28.5Z" fill="#646464"/>
<rect x="7.4" y="7.4" width="31.2" height="31.2" rx="15.6" stroke="#D8DCDF" stroke-width="0.8"/>
</g>
<defs>
<filter id="filter0_dd_14546_7104" x="0" y="0" width="46" height="50" filterUnits="userSpaceOnUse" color-interpolation-filters="sRGB">
<feFlood flood-opacity="0" result="BackgroundImageFix"/>
<feColorMatrix in="SourceAlpha" type="matrix" values="0 0 0 0 0 0 0 0 0 0 0 0 0 0 0 0 0 0 127 0" result="hardAlpha"/>
<feMorphology radius="1" operator="erode" in="SourceAlpha" result="effect1_dropShadow_14546_7104"/>
<feOffset dy="4"/>
<feGaussianBlur stdDeviation="4"/>
<feColorMatrix type="matrix" values="0 0 0 0 0 0 0 0 0 0 0 0 0 0 0 0 0 0 0.1 0"/>
<feBlend mode="normal" in2="BackgroundImageFix" result="effect1_dropShadow_14546_7104"/>
<feColorMatrix in="SourceAlpha" type="matrix" values="0 0 0 0 0 0 0 0 0 0 0 0 0 0 0 0 0 0 127 0" result="hardAlpha"/>
<feMorphology radius="1" operator="erode" in="SourceAlpha" result="effect2_dropShadow_14546_7104"/>
<feOffset dy="-2"/>
<feGaussianBlur stdDeviation="3"/>
<feColorMatrix type="matrix" values="0 0 0 0 0 0 0 0 0 0 0 0 0 0 0 0 0 0 0.06 0"/>
<feBlend mode="normal" in2="effect1_dropShadow_14546_7104" result="effect2_dropShadow_14546_7104"/>
<feBlend mode="normal" in="SourceGraphic" in2="effect2_dropShadow_14546_7104" result="shape"/>
</filter>
</defs>
</svg>
