<svg width="24" height="24" viewBox="0 0 24 24" fill="none" xmlns="http://www.w3.org/2000/svg">
<rect x="0.5" y="0.5" width="23" height="23" rx="11.5" fill="#B9E8E4"/>
<rect x="0.5" y="0.5" width="23" height="23" rx="11.5" stroke="#28ad99"/>
<path d="M12 9.3601C11.514 9.3601 11.12 8.96611 11.12 8.4801C11.12 7.99409 11.514 7.6001 12 7.6001C12.486 7.6001 12.88 7.99409 12.88 8.4801C12.88 8.96611 12.486 9.3601 12 9.3601Z" fill="#28ad99"/>
<path d="M12 12.8801C11.514 12.8801 11.12 12.4861 11.12 12.0001C11.12 11.5141 11.514 11.1201 12 11.1201C12.486 11.1201 12.88 11.5141 12.88 12.0001C12.88 12.4861 12.486 12.8801 12 12.8801Z" fill="#28ad99"/>
<path d="M12 16.4001C11.514 16.4001 11.12 16.0061 11.12 15.5201C11.12 15.0341 11.514 14.6401 12 14.6401C12.486 14.6401 12.88 15.0341 12.88 15.5201C12.88 16.0061 12.486 16.4001 12 16.4001Z" fill="#28ad99"/>
</svg>
