<svg width="10" height="3" viewBox="0 0 10 3" fill="none" xmlns="http://www.w3.org/2000/svg">
  <path d="M2.32892 1.15997C2.32892 1.6517 1.9303 2.05033 1.43857 2.05033C0.946842 2.05033 0.548218 1.6517 0.548218 1.15997C0.548218 0.668247 0.946842 0.269623 1.43857 0.269623C1.9303 0.269623 2.32892 0.668247 2.32892 1.15997Z" fill="currentColor"/>
  <path d="M5.89033 1.15997C5.89033 1.6517 5.4917 2.05033 4.99998 2.05033C4.50825 2.05033 4.10962 1.6517 4.10962 1.15997C4.10962 0.668247 4.50825 0.269623 4.99998 0.269623C5.4917 0.269623 5.89033 0.668247 5.89033 1.15997Z" fill="currentColor"/>
  <path d="M9.45173 1.15997C9.45173 1.6517 9.05311 2.05033 8.56138 2.05033C8.06965 2.05033 7.67103 1.6517 7.67103 1.15997C7.67103 0.668247 8.06965 0.269623 8.56138 0.269623C9.05311 0.269623 9.45173 0.668247 9.45173 1.15997Z" fill="currentColor"/>
</svg>
