<svg width="24" height="24" viewBox="0 0 24 24" fill="none" xmlns="http://www.w3.org/2000/svg">
<path d="M12.0009 9.3601C11.5148 9.3601 11.1209 8.96611 11.1209 8.4801C11.1209 7.99409 11.5148 7.6001 12.0009 7.6001C12.4869 7.6001 12.8809 7.99409 12.8809 8.4801C12.8809 8.96611 12.4869 9.3601 12.0009 9.3601Z" fill="#646464"/>
<path d="M12.0009 12.8801C11.5148 12.8801 11.1209 12.4861 11.1209 12.0001C11.1209 11.5141 11.5148 11.1201 12.0009 11.1201C12.4869 11.1201 12.8809 11.5141 12.8809 12.0001C12.8809 12.4861 12.4869 12.8801 12.0009 12.8801Z" fill="#646464"/>
<path d="M12.0009 16.4001C11.5148 16.4001 11.1209 16.0061 11.1209 15.5201C11.1209 15.0341 11.5148 14.6401 12.0009 14.6401C12.4869 14.6401 12.8809 15.0341 12.8809 15.5201C12.8809 16.0061 12.4869 16.4001 12.0009 16.4001Z" fill="#646464"/>
</svg>
