<svg width="20" height="20" viewBox="0 0 20 20" fill="none" xmlns="http://www.w3.org/2000/svg">
<path d="M8.33325 14.375C8.33325 15.0625 8.89575 15.625 9.58325 15.625C10.2708 15.625 10.8333 15.0625 10.8333 14.375C10.8333 13.6875 10.2708 13.125 9.58325 13.125C8.89575 13.125 8.33325 13.6875 8.33325 14.375Z" fill="#51525C"/>
<path d="M8.33325 5.625C8.33325 6.3125 8.89575 6.875 9.58325 6.875C10.2708 6.875 10.8333 6.3125 10.8333 5.625C10.8333 4.9375 10.2708 4.375 9.58325 4.375C8.89575 4.375 8.33325 4.9375 8.33325 5.625Z" fill="#51525C"/>
<path d="M8.33325 10C8.33325 10.6875 8.89575 11.25 9.58325 11.25C10.2708 11.25 10.8333 10.6875 10.8333 10C10.8333 9.3125 10.2708 8.75 9.58325 8.75C8.89575 8.75 8.33325 9.3125 8.33325 10Z" fill="#51525C"/>
</svg>
