<svg width="20" height="20" viewBox="0 0 20 20" fill="none" xmlns="http://www.w3.org/2000/svg">
<path d="M1.875 10C1.875 5.51269 5.51269 1.875 10 1.875C14.4873 1.875 18.125 5.51269 18.125 10C18.125 14.4873 14.4873 18.125 10 18.125C5.51269 18.125 1.875 14.4873 1.875 10Z" fill="#16b364"/>
<path fill-rule="evenodd" clip-rule="evenodd" d="M13.502 6.92029C13.3059 6.92029 13.1308 6.99733 13.0048 7.1234L8.59942 11.5357L6.99557 9.92488C6.8695 9.79882 6.69441 9.72177 6.49831 9.72177C6.1131 9.72177 5.79794 10.0369 5.79794 10.4221C5.79794 10.6183 5.87498 10.7933 6.00104 10.9194L8.10216 13.0205C8.22823 13.1466 8.40332 13.2236 8.59942 13.2236C8.79553 13.2236 8.97062 13.1466 9.09669 13.0205L13.9993 8.11792C14.1254 7.99186 14.2024 7.81676 14.2024 7.62066C14.2024 7.23546 13.8872 6.92029 13.502 6.92029Z" fill="white"/>
</svg>
