<svg width="16" height="16" viewBox="0 0 16 16" fill="none" xmlns="http://www.w3.org/2000/svg">
<path d="M8.49021 7.794L10.2563 9.11856C10.4731 9.28095 10.5173 9.58854 10.3544 9.80491C10.2582 9.93442 10.111 10.0016 9.96142 10.0016C9.8589 10.0016 9.75586 9.96975 9.66756 9.90352L7.70527 8.43179C7.58164 8.33956 7.50903 8.19384 7.50903 8.03932V5.09585C7.50903 4.82456 7.72832 4.60527 7.99962 4.60527C8.27091 4.60527 8.49021 4.82456 8.49021 5.09585V7.794Z" fill="#999999"/>
<path fill-rule="evenodd" clip-rule="evenodd" d="M1.66663 8C1.66663 4.50759 4.50755 1.66667 7.99996 1.66667C11.4924 1.66667 14.3333 4.50759 14.3333 8C14.3333 11.4924 11.4924 14.3333 7.99996 14.3333C4.50755 14.3333 1.66663 11.4924 1.66663 8ZM2.64777 8C2.64777 10.9508 5.04915 13.3522 7.99996 13.3522C10.9508 13.3522 13.3521 10.9508 13.3521 8C13.3521 5.04919 10.9513 2.64782 7.99996 2.64782C5.04915 2.64782 2.64777 5.04919 2.64777 8Z" fill="#999999"/>
</svg>
