<svg width="14" height="14" viewBox="0 0 14 14" fill="none" xmlns="http://www.w3.org/2000/svg">
<path fill-rule="evenodd" clip-rule="evenodd" d="M0.599609 6.99961C0.599609 3.47043 3.47043 0.599609 6.99961 0.599609C10.5288 0.599609 13.3996 3.47043 13.3996 6.99961C13.3996 10.5288 10.5288 13.3996 6.99961 13.3996C3.47043 13.3996 0.599609 10.5288 0.599609 6.99961ZM1.59108 6.99961C1.59108 9.98148 4.01773 12.4081 6.99961 12.4081C9.98148 12.4081 12.4081 9.98148 12.4081 6.99961C12.4081 4.01773 9.98198 1.59108 6.99961 1.59108C4.01773 1.59108 1.59108 4.01773 1.59108 6.99961ZM7.49502 6.79144L9.27969 8.12994C9.49882 8.29404 9.54344 8.60487 9.37882 8.82352C9.28164 8.95439 9.13292 9.02232 8.98172 9.02232C8.87812 9.02232 8.77399 8.99009 8.68477 8.92317L6.70182 7.43594C6.57689 7.34274 6.50352 7.19549 6.50352 7.03934V4.06489C6.50352 3.79074 6.72512 3.56914 6.99927 3.56914C7.27342 3.56914 7.49502 3.79074 7.49502 4.06489V6.79144Z" fill="currentColor" fill-opacity="0.7"/>
</svg>
