<svg width="20" height="20" viewBox="0 0 20 20" fill="none" xmlns="http://www.w3.org/2000/svg">
<path d="M10.6193 9.73979L12.8501 11.4129C13.124 11.618 13.1798 12.0066 12.974 12.2799C12.8525 12.4435 12.6666 12.5284 12.4776 12.5284C12.3481 12.5284 12.218 12.4881 12.1064 12.4044L9.62776 10.5454C9.4716 10.4289 9.37988 10.2449 9.37988 10.0497V6.3316C9.37988 5.98891 9.65688 5.71191 9.99957 5.71191C10.3423 5.71191 10.6193 5.98891 10.6193 6.3316V9.73979Z" fill="#646464"/>
<path fill-rule="evenodd" clip-rule="evenodd" d="M2 10C2 5.58853 5.58853 2 10 2C14.4115 2 18 5.58853 18 10C18 14.4115 14.4115 18 10 18C5.58853 18 2 14.4115 2 10ZM3.23934 10C3.23934 13.7273 6.27266 16.7607 10 16.7607C13.7273 16.7607 16.7607 13.7273 16.7607 10C16.7607 6.27266 13.728 3.23934 10 3.23934C6.27266 3.23934 3.23934 6.27266 3.23934 10Z" fill="#646464"/>
</svg>
