<svg width="20" height="20" viewBox="0 0 20 20" fill="none" xmlns="http://www.w3.org/2000/svg">
<path d="M9.99999 1.04167C5.05999 1.04167 1.04166 5.06001 1.04166 10C1.04166 14.94 5.05999 18.9583 9.99999 18.9583C14.94 18.9583 18.9583 14.94 18.9583 10C18.9583 5.06001 14.94 1.04167 9.99999 1.04167ZM9.99999 17.7083C5.74916 17.7083 2.29166 14.2508 2.29166 10C2.29166 5.74917 5.74916 2.29167 9.99999 2.29167C14.2508 2.29167 17.7083 5.74917 17.7083 10C17.7083 14.2508 14.2508 17.7083 9.99999 17.7083ZM12.9417 12.0583C13.1858 12.3025 13.1858 12.6983 12.9417 12.9425C12.82 13.0642 12.66 13.1258 12.5 13.1258C12.34 13.1258 12.18 13.065 12.0583 12.9425L9.5583 10.4425C9.4408 10.325 9.37499 10.1658 9.37499 10.0008V5.83415C9.37499 5.48915 9.65499 5.20915 9.99999 5.20915C10.345 5.20915 10.625 5.48915 10.625 5.83415V9.74162L12.9417 12.0583Z" fill="#61646C"/>
</svg>
