<svg width="12" height="12" viewBox="0 0 12 12" fill="none" xmlns="http://www.w3.org/2000/svg">
<path d="M2.64534 10.9753C3.60295 11.6222 4.75736 12 6 12C6.00001 12 5.99999 12 6 12C9.31374 12 12 9.31376 12 6.00002C12 4.7184 11.5982 3.5306 10.9136 2.5558C9.82823 1.01021 8.0321 7.4104e-06 6.00002 0C6.00001 0 6.00003 0 6.00002 0C2.68631 0 0 2.68629 0 6C0 6.00001 0 5.99999 0 6C0 8.07108 1.04933 9.89706 2.64534 10.9753Z" fill="#646464" fill-opacity="0.6"/>
<path fill-rule="evenodd" clip-rule="evenodd" d="M5.99596 2.59961C6.41711 2.59961 6.75852 2.94101 6.75852 3.36216V6.18837C6.75852 6.60952 6.41711 6.95093 5.99596 6.95093C5.57481 6.95093 5.2334 6.60952 5.2334 6.18837V3.36216C5.2334 2.94101 5.57481 2.59961 5.99596 2.59961Z" fill="white"/>
<path fill-rule="evenodd" clip-rule="evenodd" d="M5.2334 8.63735C5.2334 8.21619 5.57481 7.87476 5.99596 7.87476H6.00359C6.42474 7.87476 6.76614 8.21619 6.76614 8.63735C6.76614 9.05851 6.42474 9.39983 6.00359 9.39983H5.99596C5.57481 9.39983 5.2334 9.05851 5.2334 8.63735Z" fill="white"/>
</svg>
