<svg width="12" height="13" viewBox="0 0 12 13" fill="none" xmlns="http://www.w3.org/2000/svg">
<path d="M2.64534 11.4753C3.60295 12.1222 4.75736 12.5 6 12.5C5.99999 12.5 6.00001 12.5 6 12.5C9.31374 12.5 12 9.81376 12 6.50002C12 5.2184 11.5982 4.0306 10.9136 3.0558C9.82823 1.51021 8.0321 0.500007 6.00002 0.5C6.00001 0.5 6.00003 0.5 6.00002 0.5C2.68631 0.5 0 3.18629 0 6.5C0 6.49999 0 6.50001 0 6.5C0 8.57108 1.04933 10.3971 2.64534 11.4753Z" fill="#A6A6A6"/>
<g clip-path="url(#clip0_22529_254561)">
<path d="M7.24598 8.8525L7.16214 9.19521C6.91064 9.29447 6.70974 9.37003 6.56014 9.42197C6.41037 9.47408 6.23636 9.5 6.03809 9.5C5.73362 9.5 5.4968 9.42541 5.32789 9.27727C5.15899 9.12853 5.07451 8.94005 5.07451 8.7114C5.07451 8.62288 5.08064 8.53184 5.09338 8.43908C5.10623 8.34621 5.12667 8.24162 5.15463 8.12472L5.46894 7.01223C5.49691 6.9057 5.52067 6.80477 5.53971 6.70932C5.55901 6.61446 5.56832 6.52718 5.56832 6.44862C5.56832 6.30655 5.5389 6.20717 5.48034 6.1513C5.42178 6.09559 5.31004 6.0673 5.14414 6.0673C5.06289 6.0673 4.97938 6.08032 4.89425 6.10548C4.80875 6.13076 4.73567 6.15517 4.67432 6.17786L4.75837 5.83489C4.96427 5.75106 5.16108 5.67927 5.34935 5.61968C5.53761 5.55994 5.7155 5.53004 5.88376 5.53004C6.18613 5.53004 6.41946 5.60312 6.58331 5.74928C6.74716 5.89555 6.82906 6.08516 6.82906 6.31881C6.82906 6.36715 6.82368 6.45233 6.81212 6.57407C6.80083 6.69609 6.7798 6.80789 6.74915 6.90957L6.43618 8.0176C6.41053 8.10659 6.38747 8.20834 6.36741 8.32282C6.3467 8.43655 6.33681 8.52345 6.33681 8.58175C6.33681 8.72887 6.36961 8.82932 6.43538 8.88272C6.50163 8.93612 6.61574 8.96268 6.77781 8.96268C6.85391 8.96268 6.94048 8.94919 7.03668 8.92268C7.13262 8.89617 7.20258 8.87288 7.24598 8.8525ZM7.32535 4.20068C7.32535 4.39373 7.25259 4.55861 7.10638 4.69417C6.96054 4.83022 6.78481 4.8983 6.57923 4.8983C6.373 4.8983 6.19683 4.83022 6.04933 4.69417C5.9021 4.55855 5.82832 4.39373 5.82832 4.20068C5.82832 4.00801 5.9021 3.84287 6.04933 3.70558C6.19657 3.56851 6.37305 3.5 6.57923 3.5C6.78475 3.5 6.96054 3.56867 7.10638 3.70558C7.2527 3.84287 7.32535 4.00806 7.32535 4.20068Z" fill="white"/>
</g>
<defs>
<clipPath id="clip0_22529_254561">
<rect width="6" height="6" fill="white" transform="translate(3 3.5)"/>
</clipPath>
</defs>
</svg>
