<svg width="12" height="12" viewBox="0 0 12 12" fill="none" xmlns="http://www.w3.org/2000/svg">
<g clip-path="url(#clip0_6167_118335)">
<path d="M2.64534 10.9753C3.60295 11.6222 4.75736 12 6 12C6.00001 12 5.99999 12 6 12C9.31374 12 12 9.31376 12 6.00002C12 4.7184 11.5982 3.5306 10.9136 2.5558C9.82823 1.01021 8.0321 7.4104e-06 6.00002 0C6.00001 0 6.00003 0 6.00002 0C2.68631 0 0 2.68629 0 6C0 6.00001 0 5.99999 0 6C0 8.07108 1.04933 9.89706 2.64534 10.9753Z" fill="#fa3939"/>
<path fill-rule="evenodd" clip-rule="evenodd" d="M6 3.17285C6.27614 3.17285 6.5 3.44129 6.5 3.77242V5.9946C6.5 6.32574 6.27614 6.59418 6 6.59418C5.72386 6.59418 5.5 6.32574 5.5 5.9946V3.77242C5.5 3.44129 5.72386 3.17285 6 3.17285Z" fill="white"/>
<path fill-rule="evenodd" clip-rule="evenodd" d="M5.5 8.32719C5.5 8.05103 5.72275 7.82715 5.99751 7.82715H6.00249C6.27726 7.82715 6.5 8.05103 6.5 8.32719C6.5 8.60334 6.27726 8.82715 6.00249 8.82715H5.99751C5.72275 8.82715 5.5 8.60334 5.5 8.32719Z" fill="white"/>
</g>
<defs>
<clipPath id="clip0_6167_118335">
<rect width="12" height="12" fill="white"/>
</clipPath>
</defs>
</svg>
