<svg width="16" height="16" viewBox="0 0 16 16" fill="none" xmlns="http://www.w3.org/2000/svg">
<path fill-rule="evenodd" clip-rule="evenodd" d="M12.7022 3.82307C12.7163 3.68449 12.6703 3.54095 12.5641 3.43478C12.4534 3.32401 12.3019 3.27869 12.1579 3.29884C12.141 3.29741 12.124 3.29669 12.1067 3.29669H3.92848C3.66338 3.29669 3.44848 3.51159 3.44848 3.77669C3.44848 4.04178 3.66338 4.25669 3.92848 4.25669H11.0634L3.43374 11.8864C3.24629 12.0738 3.24629 12.3777 3.43374 12.5652C3.62119 12.7526 3.92511 12.7526 4.11256 12.5652L11.7467 4.93102V12.113C11.7467 12.378 11.9616 12.593 12.2267 12.593C12.4918 12.593 12.7067 12.378 12.7067 12.113V3.89669C12.7067 3.87176 12.7052 3.84719 12.7022 3.82307Z" fill="#646464"/>
</svg>
