<svg xmlns="http://www.w3.org/2000/svg" width="22" height="27" viewBox="0 0 22 27">
  <g fill="none" fill-rule="evenodd">
    <path d="M-6-3h33v33H-6z"/>
    <path
      fill="#009FA9"
      fill-rule="nonzero"
      d="M22 6.3v16.2c0 2.485-2.01 4.5-4.49 4.5H4.49A4.495 4.495 0 0 1 0 22.5V2.25A2.247 2.247 0 0 1 2.245 0h14.367c1.156 0 2.108.876 2.232 2.002A4.5 4.5 0 0 1 22 6.3zm-3.143 15.3a2.247 2.247 0 0 1-2.245 2.25l-12.695-.002a.676.676 0 0 0 0 1.352H17.51a2.697 2.697 0 0 0 2.694-2.7V5.754a.673.673 0 1 0-1.347 0V21.6zm-9.861-4.555v1.405h1.635v-1.405c1.157-.094 2.09-.4 2.798-.92.708-.521 1.062-1.198 1.062-2.03 0-.666-.183-1.2-.548-1.6-.365-.4-.818-.7-1.357-.898-.54-.198-1.191-.37-1.955-.515v-2.45c.562.051 1.045.2 1.45.444.404.245.763.606 1.078 1.085l1.433-1.498a5.558 5.558 0 0 0-1.644-1.304c-.6-.307-1.373-.492-2.317-.554V5.4H8.996v1.405c-1.225.104-2.183.442-2.874 1.015-.691.572-1.037 1.274-1.037 2.107 0 .656.183 1.178.548 1.569.365.39.82.679 1.365.866.545.187 1.211.354 1.998.5v2.372a4.62 4.62 0 0 1-1.728-.554c-.5-.286-.874-.658-1.121-1.116L4.714 15.11a4.723 4.723 0 0 0 1.72 1.359c.685.322 1.54.515 2.562.577zm0-8.367v2.092c-.416-.104-.736-.232-.961-.383a.706.706 0 0 1-.337-.616c0-.292.112-.53.337-.718.225-.188.545-.312.96-.375zm1.635 6.525V13.19c.415.104.73.232.944.383a.73.73 0 0 1 .32.632c0 .552-.421.885-1.264 1z"/>
  </g>
</svg>
