<svg width="18" height="18" viewBox="0 0 18 18" fill="none" xmlns="http://www.w3.org/2000/svg">
<path d="M12.2 17.5423H5.80003C5.15972 17.5331 4.54649 17.2824 4.08299 16.8406C3.61948 16.3987 3.33986 15.7981 3.30003 15.159L2.5417 3.62565C2.53781 3.54203 2.55054 3.45847 2.57915 3.3798C2.60775 3.30113 2.65167 3.22891 2.70837 3.16732C2.76677 3.10349 2.83748 3.05213 2.91625 3.01632C2.99501 2.98052 3.0802 2.96102 3.1667 2.95899H14.8334C14.9191 2.9588 15.0039 2.97623 15.0826 3.01021C15.1613 3.0442 15.2321 3.094 15.2907 3.15652C15.3493 3.21905 15.3945 3.29296 15.4233 3.37366C15.4521 3.45437 15.4641 3.54014 15.4584 3.62565L14.7334 15.159C14.6931 15.8038 14.4088 16.4091 13.9382 16.8519C13.4676 17.2946 12.8461 17.5415 12.2 17.5423ZM3.8667 4.20899L4.50837 15.084C4.52957 15.4119 4.67496 15.7194 4.91493 15.9439C5.15491 16.1684 5.47142 16.293 5.80003 16.2923H12.2C12.5281 16.291 12.8435 16.1658 13.083 15.9417C13.3226 15.7176 13.4686 15.4112 13.4917 15.084L14.1667 4.25065L3.8667 4.20899Z" fill="#646464"/>
<path d="M16.5 4.20898H1.5C1.33424 4.20898 1.17527 4.14314 1.05806 4.02593C0.940848 3.90872 0.875 3.74974 0.875 3.58398C0.875 3.41822 0.940848 3.25925 1.05806 3.14204C1.17527 3.02483 1.33424 2.95898 1.5 2.95898H16.5C16.6658 2.95898 16.8247 3.02483 16.9419 3.14204C17.0592 3.25925 17.125 3.41822 17.125 3.58398C17.125 3.74974 17.0592 3.90872 16.9419 4.02593C16.8247 4.14314 16.6658 4.20898 16.5 4.20898Z" fill="#646464"/>
<path d="M11.5 4.20898H6.5C6.33491 4.20683 6.17719 4.14029 6.06045 4.02354C5.9437 3.90679 5.87716 3.74907 5.875 3.58398V2.08398C5.88556 1.65633 6.06016 1.24912 6.36265 0.946631C6.66513 0.644145 7.07235 0.469548 7.5 0.458984H10.5C10.9348 0.469857 11.3481 0.65024 11.6517 0.96163C11.9553 1.27302 12.1251 1.69075 12.125 2.12565V3.58398C12.1228 3.74907 12.0563 3.90679 11.9396 4.02354C11.8228 4.14029 11.6651 4.20683 11.5 4.20898ZM7.125 2.95898H10.875V2.12565C10.875 2.02619 10.8355 1.93081 10.7652 1.86049C10.6948 1.79016 10.5995 1.75065 10.5 1.75065H7.5C7.40054 1.75065 7.30516 1.79016 7.23483 1.86049C7.16451 1.93081 7.125 2.02619 7.125 2.12565V2.95898Z" fill="#646464"/>
<path d="M11.5 14.2096C11.3349 14.2075 11.1772 14.1409 11.0604 14.0242C10.9437 13.9074 10.8772 13.7497 10.875 13.5846V6.91797C10.875 6.75221 10.9408 6.59324 11.0581 6.47603C11.1753 6.35882 11.3342 6.29297 11.5 6.29297C11.6658 6.29297 11.8247 6.35882 11.9419 6.47603C12.0592 6.59324 12.125 6.75221 12.125 6.91797V13.5846C12.1228 13.7497 12.0563 13.9074 11.9396 14.0242C11.8228 14.1409 11.6651 14.2075 11.5 14.2096Z" fill="#646464"/>
<path d="M6.5 14.2096C6.33491 14.2075 6.17719 14.1409 6.06045 14.0242C5.9437 13.9074 5.87716 13.7497 5.875 13.5846V6.91797C5.875 6.75221 5.94085 6.59324 6.05806 6.47603C6.17527 6.35882 6.33424 6.29297 6.5 6.29297C6.66576 6.29297 6.82473 6.35882 6.94194 6.47603C7.05915 6.59324 7.125 6.75221 7.125 6.91797V13.5846C7.12284 13.7497 7.0563 13.9074 6.93955 14.0242C6.82281 14.1409 6.66509 14.2075 6.5 14.2096Z" fill="#646464"/>
<path d="M9 14.2096C8.83491 14.2075 8.67719 14.1409 8.56045 14.0242C8.4437 13.9074 8.37716 13.7497 8.375 13.5846V6.91797C8.375 6.75221 8.44085 6.59324 8.55806 6.47603C8.67527 6.35882 8.83424 6.29297 9 6.29297C9.16576 6.29297 9.32473 6.35882 9.44194 6.47603C9.55915 6.59324 9.625 6.75221 9.625 6.91797V13.5846C9.62284 13.7497 9.5563 13.9074 9.43955 14.0242C9.32281 14.1409 9.16509 14.2075 9 14.2096Z" fill="#646464"/>
</svg>
