<svg width="20" height="20" viewBox="0 0 20 20" fill="none" xmlns="http://www.w3.org/2000/svg">
<path fill-rule="evenodd" clip-rule="evenodd" d="M4 6.08184C4 5.82219 4.21049 5.61169 4.47015 5.61169H16.2239C16.4835 5.61169 16.694 5.82219 16.694 6.08184C16.694 6.3415 16.4835 6.55199 16.2239 6.55199H4.47015C4.21049 6.55199 4 6.3415 4 6.08184Z" fill="currentColor"/>
<path fill-rule="evenodd" clip-rule="evenodd" d="M9.04101 3.9403C8.81934 3.9403 8.60675 4.02836 8.45 4.1851C8.29325 4.34185 8.20519 4.55445 8.20519 4.77612V6.08209C8.20519 6.34175 7.9947 6.55224 7.73504 6.55224C7.47539 6.55224 7.26489 6.34175 7.26489 6.08209V4.77612C7.26489 4.30506 7.45202 3.8533 7.78511 3.52021C8.11819 3.18713 8.56996 3 9.04101 3H11.653C12.124 3 12.5758 3.18713 12.9089 3.52021C13.2419 3.8533 13.4291 4.30506 13.4291 4.77612V6.08209C13.4291 6.34175 13.2186 6.55224 12.9589 6.55224C12.6993 6.55224 12.4888 6.34175 12.4888 6.08209V4.77612C12.4888 4.55445 12.4007 4.34185 12.244 4.1851C12.0872 4.02836 11.8746 3.9403 11.653 3.9403H9.04101ZM5.77609 5.61194C6.03574 5.61194 6.24624 5.82243 6.24624 6.08209V15.2239C6.24624 15.4456 6.3343 15.6581 6.49104 15.8149C6.64779 15.9716 6.86039 16.0597 7.08206 16.0597H13.6119C13.8336 16.0597 14.0462 15.9716 14.2029 15.8149C14.3597 15.6581 14.4477 15.4456 14.4477 15.2239V6.08209C14.4477 5.82243 14.6582 5.61194 14.9179 5.61194C15.1775 5.61194 15.388 5.82243 15.388 6.08209V15.2239C15.388 15.6949 15.2009 16.1467 14.8678 16.4798C14.5347 16.8129 14.083 17 13.6119 17H7.08206C6.611 17 6.15924 16.8129 5.82615 16.4798C5.49307 16.1467 5.30594 15.6949 5.30594 15.2239V6.08209C5.30594 5.82243 5.51643 5.61194 5.77609 5.61194Z" fill="currentColor"/>
<path fill-rule="evenodd" clip-rule="evenodd" d="M9.04107 8.87689C9.30073 8.87689 9.51122 9.08739 9.51122 9.34704V13.265C9.51122 13.5246 9.30073 13.7351 9.04107 13.7351C8.78142 13.7351 8.57092 13.5246 8.57092 13.265V9.34704C8.57092 9.08739 8.78142 8.87689 9.04107 8.87689Z" fill="currentColor"/>
<path fill-rule="evenodd" clip-rule="evenodd" d="M11.6529 8.87689C11.9126 8.87689 12.1231 9.08739 12.1231 9.34704V13.265C12.1231 13.5246 11.9126 13.7351 11.6529 13.7351C11.3933 13.7351 11.1828 13.5246 11.1828 13.265V9.34704C11.1828 9.08739 11.3933 8.87689 11.6529 8.87689Z" fill="currentColor"/>
</svg>
