<svg width="10" height="12" viewBox="0 0 10 12" fill="none" xmlns="http://www.w3.org/2000/svg">
  <path d="M1.88366 10.918C1.88366 11.1016 2.03178 11.25 2.2154 11.25H7.83235C8.01569 11.25 8.16437 11.1016 8.16437 10.918L8.40315 4.67871H1.64441L1.88366 10.918Z" fill="white"/>
  <path d="M8.89918 2.33681H7.34055V1.28422C7.34055 0.989625 7.10095 0.75 6.80633 0.75H3.31067C3.01579 0.75 2.77619 0.989344 2.77619 1.28422V2.33681H1.14811C0.853517 2.33681 0.613892 2.57641 0.613892 2.87103V3.45575C0.613892 3.75062 0.853493 3.99022 1.14811 3.99022H8.89946C9.19406 3.99022 9.43368 3.75062 9.43368 3.45575V2.87103C9.43341 2.57643 9.1938 2.33681 8.8992 2.33681H8.89918Z" fill="white"/>
</svg>
