<svg width="20" height="20" viewBox="0 0 20 20" fill="none" xmlns="http://www.w3.org/2000/svg">
<path fill-rule="evenodd" clip-rule="evenodd" d="M11.7493 14.168C11.7493 14.5822 12.0851 14.918 12.4993 14.918H18.3327C18.7469 14.918 19.0827 14.5822 19.0827 14.168V8.33464C19.0827 7.92042 18.7469 7.58464 18.3327 7.58464C17.9185 7.58464 17.5827 7.92042 17.5827 8.33464V12.3573L12.2883 7.06293C12.1385 6.91305 11.9958 6.7704 11.8658 6.66003C11.7241 6.53968 11.5488 6.41433 11.322 6.34064C11.004 6.23732 10.6614 6.23732 10.3434 6.34064C10.1166 6.41433 9.9413 6.53968 9.79954 6.66003C9.66954 6.77039 9.52693 6.91303 9.37709 7.0629L7.07849 9.3615C6.90474 9.53525 6.8059 9.63327 6.72839 9.69907C6.70393 9.71984 6.68763 9.73201 6.67829 9.73855C6.67015 9.73976 6.66188 9.73976 6.65374 9.73855C6.6444 9.73201 6.62811 9.71984 6.60364 9.69907C6.52613 9.63327 6.42729 9.53525 6.25354 9.3615L2.19635 5.30431C1.90345 5.01141 1.42858 5.01141 1.13569 5.30431C0.842792 5.5972 0.842792 6.07207 1.13569 6.36497L5.19288 10.4222C5.19873 10.428 5.20457 10.4339 5.21041 10.4397C5.36025 10.5896 5.50287 10.7322 5.63287 10.8426C5.77464 10.9629 5.94994 11.0883 6.17674 11.162C6.49474 11.2653 6.83729 11.2653 7.15529 11.162C7.38209 11.0883 7.55739 10.9629 7.69916 10.8426C7.82916 10.7322 7.97177 10.5896 8.12161 10.4397C8.12745 10.4339 8.1333 10.428 8.13915 10.4222L10.4202 8.14111C10.594 7.96735 10.6928 7.86934 10.7703 7.80354C10.7948 7.78277 10.8111 7.7706 10.8204 7.76406C10.8285 7.76284 10.8368 7.76284 10.845 7.76406C10.8543 7.7706 10.8706 7.78277 10.8951 7.80354C10.9726 7.86934 11.0714 7.96735 11.2452 8.14111L16.522 13.418H12.4993C12.0851 13.418 11.7493 13.7538 11.7493 14.168Z" fill="#fa3939"/>
</svg>
