<svg width="20" height="20" viewBox="0 0 20 20" fill="none" xmlns="http://www.w3.org/2000/svg">
<path fill-rule="evenodd" clip-rule="evenodd" d="M11.7493 5.83203C11.7493 5.41782 12.0851 5.08203 12.4993 5.08203H18.3327C18.7469 5.08203 19.0827 5.41782 19.0827 5.83203V11.6654C19.0827 12.0796 18.7469 12.4154 18.3327 12.4154C17.9185 12.4154 17.5827 12.0796 17.5827 11.6654V7.64269L12.2883 12.9371C12.1385 13.087 11.9958 13.2296 11.8658 13.34C11.7241 13.4603 11.5488 13.5857 11.322 13.6594C11.004 13.7627 10.6614 13.7627 10.3434 13.6594C10.1166 13.5857 9.9413 13.4603 9.79954 13.34C9.66954 13.2296 9.52693 13.087 9.37709 12.9371L7.07849 10.6385C6.90474 10.4647 6.8059 10.3667 6.72839 10.3009C6.70393 10.2802 6.68763 10.268 6.67829 10.2615C6.67015 10.2602 6.66188 10.2602 6.65374 10.2615C6.6444 10.268 6.62811 10.2802 6.60364 10.3009C6.52613 10.3667 6.42729 10.4647 6.25354 10.6385L2.19635 14.6957C1.90345 14.9886 1.42858 14.9886 1.13569 14.6957C0.842792 14.4028 0.842792 13.9279 1.13569 13.635L5.19288 9.57784C5.19873 9.57199 5.20457 9.56614 5.21041 9.56031C5.36025 9.41043 5.50287 9.26779 5.63287 9.15742C5.77464 9.03708 5.94994 8.91173 6.17674 8.83804C6.49474 8.73471 6.83729 8.73471 7.15529 8.83804C7.38209 8.91173 7.55739 9.03708 7.69916 9.15742C7.82916 9.26779 7.97177 9.41043 8.12161 9.5603C8.12745 9.56614 8.1333 9.57199 8.13915 9.57784L10.4202 11.8589C10.594 12.0326 10.6928 12.1307 10.7703 12.1965C10.7948 12.2172 10.8111 12.2294 10.8204 12.2359C10.8285 12.2372 10.8368 12.2372 10.845 12.2359C10.8543 12.2294 10.8706 12.2172 10.8951 12.1965C10.9726 12.1307 11.0714 12.0327 11.2452 11.8589L16.522 6.58203H12.4993C12.0851 6.58203 11.7493 6.24624 11.7493 5.83203Z" fill="#16b364"/>
</svg>
