<svg xmlns="http://www.w3.org/2000/svg" width="56" height="56" viewBox="0 0 56 56">
    <g fill="none" fill-rule="nonzero">
        <path fill="#38DBD0" d="M42.777 48.686c.145-1 .39-1.996.416-3 .077-2.41-.024-4.829.13-7.233a3.06 3.06 0 0 1 1.086-2.011c2.025-1.517 4.192-2.84 6.267-4.292 2.603-1.831 3.252-4.837 1.611-7.25-1.658-2.435-4.664-2.939-7.343-1.177-2.571 1.688-5.11 3.427-7.66 5.15-2.748 1.86-4.155 4.452-4.198 7.773-.042 3.256-.138 6.513-.083 9.768.041 2.497 1.714 4.37 4.082 4.857 2.172.447 4.432-.628 5.692-2.585z"/>
        <path fill="#f1c012" d="M17.528 4.5c.949.348 1.94.61 2.84 1.06 2.157 1.076 4.237 2.313 6.425 3.323a3.058 3.058 0 0 0 2.285 0c2.295-1.062 4.49-2.337 6.751-3.477 2.857-1.428 5.804-.57 7.141 2.02 1.357 2.615.373 5.499-2.451 7.022-2.707 1.46-5.44 2.87-8.168 4.29-2.943 1.536-5.886 1.536-8.829 0-2.886-1.509-5.798-2.971-8.636-4.565-2.178-1.222-3.033-3.584-2.337-5.899.642-2.12 2.66-3.594 4.979-3.774z"/>
        <path fill="#2e90fa" d="M13.146 48.686c-.145-1-.39-1.996-.417-3-.076-2.41.025-4.829-.13-7.233a3.06 3.06 0 0 0-1.085-2.011c-2.026-1.517-4.192-2.84-6.267-4.292-2.603-1.831-3.253-4.837-1.611-7.25 1.658-2.435 4.663-2.939 7.343-1.177 2.57 1.688 5.109 3.427 7.66 5.15 2.748 1.86 4.155 4.452 4.198 7.773.041 3.256.137 6.513.083 9.768-.042 2.497-1.714 4.37-4.082 4.857-2.172.447-4.433-.628-5.692-2.585z"/>
    </g>
</svg>
