<svg width="20" height="18" viewBox="0 0 20 18" fill="none" xmlns="http://www.w3.org/2000/svg">
<path fill-rule="evenodd" clip-rule="evenodd" d="M7.50007 2.0999C5.99049 2.0999 4.76673 3.32366 4.76673 4.83324C4.76673 6.34281 5.99049 7.56657 7.50007 7.56657C9.00964 7.56657 10.2334 6.34281 10.2334 4.83324C10.2334 3.32366 9.00964 2.0999 7.50007 2.0999ZM3.56673 4.83324C3.56673 2.66092 5.32774 0.899902 7.50007 0.899902C9.67239 0.899902 11.4334 2.66092 11.4334 4.83324C11.4334 7.00556 9.67239 8.76657 7.50007 8.76657C5.32774 8.76657 3.56673 7.00556 3.56673 4.83324ZM12.7521 1.45941C12.8343 1.1384 13.1612 0.944793 13.4822 1.02699C14.3283 1.24362 15.0782 1.73568 15.6137 2.42559C16.1493 3.11551 16.4399 3.96403 16.4399 4.8374C16.4399 5.71077 16.1493 6.5593 15.6137 7.24921C15.0782 7.93913 14.3283 8.43119 13.4822 8.64782C13.1612 8.73001 12.8343 8.53641 12.7521 8.21539C12.67 7.89438 12.8636 7.56751 13.1846 7.48532C13.7725 7.33478 14.2937 6.99284 14.6658 6.51341C15.0379 6.03397 15.2399 5.44432 15.2399 4.8374C15.2399 4.23049 15.0379 3.64083 14.6658 3.1614C14.2937 2.68196 13.7725 2.34002 13.1846 2.18949C12.8636 2.10729 12.67 1.78043 12.7521 1.45941ZM1.38545 12.0519C2.12309 11.3143 3.12355 10.8999 4.16673 10.8999H10.8334C11.8766 10.8999 12.877 11.3143 13.6147 12.0519C14.3523 12.7896 14.7667 13.7901 14.7667 14.8332V16.4999C14.7667 16.8313 14.4981 17.0999 14.1667 17.0999C13.8354 17.0999 13.5667 16.8313 13.5667 16.4999V14.8332C13.5667 14.1083 13.2788 13.4131 12.7662 12.9005C12.2536 12.3879 11.5583 12.0999 10.8334 12.0999H4.16673C3.44181 12.0999 2.74657 12.3879 2.23397 12.9005C1.72137 13.4131 1.4334 14.1083 1.4334 14.8332V16.4999C1.4334 16.8313 1.16477 17.0999 0.833398 17.0999C0.502028 17.0999 0.233398 16.8313 0.233398 16.4999V14.8332C0.233398 13.7901 0.647802 12.7896 1.38545 12.0519ZM16.0858 11.4582C16.1686 11.1374 16.4959 10.9444 16.8167 11.0273C17.6606 11.2452 18.4081 11.7371 18.9421 12.4259C19.476 13.1147 19.7661 13.9613 19.7667 14.8328V16.4999C19.7667 16.8313 19.4981 17.0999 19.1667 17.0999C18.8354 17.0999 18.5667 16.8313 18.5667 16.4999V14.8337C18.5663 14.2281 18.3647 13.6397 17.9937 13.1611C17.6226 12.6825 17.1031 12.3406 16.5167 12.1892C16.1959 12.1063 16.0029 11.7791 16.0858 11.4582Z" fill="#646464"/>
</svg>
