<svg width="20" height="20" viewBox="0 0 20 20" fill="none" xmlns="http://www.w3.org/2000/svg">
<rect x="1.0735" y="1.07333" width="17.8533" height="17.8533" rx="3.76" stroke="#ECECED" stroke-width="0.48"/>
<path d="M7.23061 3.33339C7.53526 3.33622 7.74042 3.44683 7.9756 3.56931C8.54231 3.8614 9.08778 4.19746 9.66207 4.47149C9.85477 4.55236 10.0695 4.55236 10.2622 4.47149C10.8645 4.18333 11.4403 3.83706 12.0336 3.5277C12.7831 3.13982 13.557 3.37223 13.9082 4.07654C14.264 4.78635 14.0053 5.56996 13.2649 5.98375C12.554 6.37948 11.8371 6.76265 11.1209 7.14896C10.3486 7.56589 9.57634 7.56589 8.80404 7.14896C8.04616 6.7391 7.2822 6.34179 6.53721 5.90837C5.96595 5.57702 5.74139 4.93553 5.92422 4.3066C6.09264 3.73028 6.59869 3.32753 7.23061 3.33339Z" fill="#FFBF41"/>
<path d="M6.241 15.1235C6.09221 14.8526 6.0846 14.6162 6.07221 14.3473C6.03975 13.7009 6.05529 13.0515 6.00368 12.4074C5.97693 12.1968 5.87037 12.0068 5.70584 11.8765C5.16141 11.4866 4.58066 11.149 4.02268 10.7776C3.32026 10.307 3.13417 9.50697 3.55979 8.84664C3.98783 8.17954 4.78373 8.0195 5.50371 8.46923C6.19362 8.90175 6.87584 9.34588 7.56036 9.78777C8.29883 10.2641 8.68214 10.9474 8.7103 11.8377C8.73732 12.7116 8.77805 13.5847 8.77861 14.459C8.77989 15.1289 8.3449 15.6459 7.71841 15.7963C7.14389 15.9334 6.54965 15.6855 6.241 15.1235Z" fill="#4A7CE0"/>
<path d="M13.7593 15.1235C13.9081 14.8526 13.9157 14.6162 13.9281 14.3473C13.9606 13.7009 13.945 13.0515 13.9966 12.4074C14.0234 12.1968 14.13 12.0068 14.2945 11.8765C14.8389 11.4866 15.4197 11.149 15.9776 10.7776C16.6801 10.307 16.8662 9.50697 16.4405 8.84664C16.0125 8.17954 15.2166 8.0195 14.4966 8.46923C13.8067 8.90175 13.1245 9.34588 12.44 9.78777C11.7015 10.2641 11.3182 10.9474 11.29 11.8377C11.263 12.7116 11.2223 13.5847 11.2217 14.459C11.2204 15.1289 11.6554 15.6459 12.2819 15.7963C12.8564 15.9334 13.4507 15.6855 13.7593 15.1235Z" fill="#38DBD0"/>
</svg>
