<?xml version="1.0" encoding="UTF-8"?>
<svg width="32px" height="32px" viewBox="0 0 32 32" version="1.1" xmlns="http://www.w3.org/2000/svg" xmlns:xlink="http://www.w3.org/1999/xlink">
    <title>avt</title>
    <g id="Convo" stroke="none" stroke-width="1" fill="none" fill-rule="evenodd">
        <g id="New-convo-1.1" transform="translate(-110.000000, -268.000000)">
            <g id="convo-list" transform="translate(82.000000, 68.000000)">
                <g id="Console-/-Desktop-/-Elements-/-Lists-/-Message-Unread-Copy-5" transform="translate(12.000000, 182.000000)">
                    <g id="avt" transform="translate(16.000000, 18.000000)">
                        <circle id="Oval" fill="#FFFFFF" fill-rule="nonzero" cx="16" cy="16" r="16"></circle>
                        <g id="Clipped"></g>
                        <path d="M22.7066667,25.524 C22.7733333,25.0626667 22.8853333,24.6026667 22.8986667,24.14 C22.9333333,23.028 22.8866667,21.9133333 22.9586667,20.804 C22.9986667,20.4413333 23.1786667,20.1093333 23.4586667,19.876 C24.3933333,19.176 25.3933333,18.5666667 26.3493333,17.896 C27.5506667,17.052 27.8493333,15.6653333 27.0933333,14.5533333 C26.328,13.4293333 24.9413333,13.1973333 23.7053333,14.0093333 C22.52,14.788 21.3493333,15.5893333 20.172,16.3853333 C18.9053333,17.2426667 18.256,18.4386667 18.236,19.9706667 C18.2173333,21.472 18.1733333,22.9746667 18.1973333,24.476 C18.2173333,25.628 18.988,26.492 20.0813333,26.716 C21.0826667,26.9226667 22.1253333,26.4266667 22.7066667,25.524 Z" id="Path" fill="#38DBD0" fill-rule="nonzero"></path>
                        <path d="M11.06,5.14266667 C11.4973333,5.30266667 11.956,5.424 12.3693333,5.632 C13.3653333,6.128 14.324,6.69866667 15.3333333,7.164 C15.672,7.30133333 16.0493333,7.30133333 16.388,7.164 C17.4466667,6.67466667 18.4586667,6.08666667 19.5013333,5.56133333 C20.8186667,4.90266667 22.1786667,5.29733333 22.796,6.492 C23.4213333,7.69866667 22.9666667,9.02933333 21.6653333,9.73066667 C20.416,10.404 19.156,11.0546667 17.8973333,11.7106667 C16.54,12.4186667 15.1826667,12.4186667 13.8253333,11.7106667 C12.4933333,11.0146667 11.1506667,10.34 9.84133333,9.604 C8.83733333,9.04133333 8.44266667,7.952 8.764,6.884 C9.06,5.90533333 9.99066667,5.22666667 11.06,5.14266667 Z" id="Path" fill="#f1c012" fill-rule="nonzero"></path>
                        <path d="M9.03866667,25.524 C8.972,25.0626667 8.85866667,24.6026667 8.84666667,24.14 C8.81066667,23.028 8.85733333,21.9133333 8.78666667,20.804 C8.74533333,20.4413333 8.56666667,20.1093333 8.28666667,19.876 C7.352,19.176 6.352,18.5666667 5.396,17.896 C4.19466667,17.052 3.89466667,15.6653333 4.652,14.5533333 C5.41733333,13.4293333 6.80266667,13.1973333 8.04,14.0093333 C9.22533333,14.788 10.396,15.5893333 11.572,16.3853333 C12.84,17.2426667 13.4893333,18.4386667 13.5093333,19.9706667 C13.528,21.472 13.572,22.9746667 13.5466667,24.476 C13.528,25.628 12.756,26.492 11.664,26.716 C10.6626667,26.9226667 9.62,26.4266667 9.03866667,25.524 Z" id="Path" fill="#2e90fa" fill-rule="nonzero"></path>
                    </g>
                </g>
            </g>
        </g>
    </g>
</svg>