<svg width="242" height="66" viewBox="0 0 242 66" fill="none" xmlns="http://www.w3.org/2000/svg">
<path d="M71.7914 7.73758C72.2358 7.73604 72.6762 7.82212 73.0873 7.9909C73.4985 8.15969 73.8724 8.40788 74.1877 8.72128C74.503 9.03469 74.7535 9.40718 74.9249 9.81747C75.0963 10.2278 75.1852 10.6678 75.1866 11.1125V18.6303H83.8208C84.2174 18.6231 84.6115 18.6951 84.98 18.842C85.3485 18.989 85.684 19.2079 85.9671 19.486C86.2501 19.7641 86.4749 20.0959 86.6283 20.4619C86.7818 20.828 86.8608 21.2209 86.8608 21.6178C86.8608 22.0148 86.7818 22.4077 86.6283 22.7738C86.4749 23.1398 86.2501 23.4716 85.9671 23.7497C85.684 24.0278 85.3485 24.2467 84.98 24.3936C84.6115 24.5406 84.2174 24.6125 83.8208 24.6054H75.1866V48.3166C75.1866 51.2071 75.2515 53.167 75.3814 54.1961C75.5072 55.2159 75.9094 56.1818 76.5443 56.9892C77.6449 58.275 79.1652 58.9179 81.1054 58.9179C81.9034 58.9179 83.0481 58.6694 84.5395 58.1724C85.3512 57.8999 86.2335 57.9269 87.027 58.2487C87.8205 58.5704 88.4727 59.1656 88.8659 59.9266C89.053 60.2908 89.1593 60.6911 89.1777 61.1002C89.196 61.5093 89.1258 61.9175 88.9719 62.297C88.818 62.6765 88.5841 63.0182 88.2861 63.2989C87.9881 63.5796 87.633 63.7925 87.2452 63.9233C84.583 64.8329 82.5377 65.2877 81.1093 65.2877C76.7751 65.2877 73.4442 63.8096 71.1165 60.8534C69.886 59.3071 69.1263 57.6666 68.8374 55.9318C68.5485 54.1971 68.403 51.6593 68.4011 48.3185V11.1125C68.4039 10.2153 68.7626 9.35582 69.3983 8.72301C70.034 8.0902 70.8947 7.73577 71.7914 7.73758ZM156.591 18.6303C157.488 18.6269 158.35 18.9803 158.987 19.6126C159.624 20.245 159.984 21.1045 159.987 22.0023V43.3034C159.987 46.1946 159.938 48.3793 159.84 49.8574C159.742 51.3355 159.338 53.0867 158.629 55.1112C157.955 57.0741 156.862 58.8666 155.426 60.3642C152.259 63.6407 148.12 65.2789 143.01 65.2789C137.9 65.2789 133.759 63.6407 130.586 60.3642C129.152 58.8655 128.059 57.0734 127.384 55.1112C126.67 53.0874 126.266 51.3361 126.172 49.8574C126.08 48.4624 126.032 46.4366 126.027 43.78V22.0023L126.033 21.8191C126.085 20.9381 126.477 20.1118 127.126 19.515C127.776 18.9182 128.632 18.5978 129.514 18.6216C130.396 18.6454 131.233 19.0116 131.85 19.6426C132.467 20.2735 132.814 21.1198 132.818 22.0023V43.74C132.822 46.025 132.854 47.727 132.915 48.8458C133.003 50.1557 133.247 51.4503 133.643 52.7021C134.063 54.0821 134.727 55.2223 135.632 56.1228C137.508 57.9862 139.966 58.9179 143.005 58.9179C146.045 58.9179 148.502 57.9862 150.378 56.1228C151.283 55.223 151.945 54.0828 152.366 52.7021C152.762 51.4506 153.007 50.1558 153.094 48.8458C153.158 47.6568 153.191 45.8093 153.191 43.3034V22.0023C153.195 21.1045 153.554 20.245 154.191 19.6126C154.828 18.9803 155.69 18.6269 156.587 18.6303M199.859 0.510192C200.756 0.507343 201.617 0.860915 202.254 1.4932C202.89 2.1255 203.25 2.98478 203.253 3.8822V42.8103C203.249 45.593 203.217 47.6691 203.156 49.0387C203.091 50.485 202.799 52.1398 202.279 54.0032C201.76 55.8665 200.983 57.5048 199.95 58.9179C196.911 63.1592 192.351 65.2795 186.271 65.2789C180.84 65.2789 176.345 63.512 172.786 59.9782C171.089 58.2804 169.796 56.2214 169.004 53.9544C168.163 51.6096 167.678 49.6823 167.549 48.1723C167.42 46.6624 167.355 44.5577 167.354 41.8581C167.354 38.9669 167.403 36.7498 167.499 35.2067C167.596 33.6636 167.986 31.7681 168.668 29.5201C169.347 27.2728 170.365 25.3454 171.723 23.738C174.893 19.9476 179.258 18.0521 184.82 18.0514C189.8 18.0514 193.681 20.0113 196.462 23.931V3.8822C196.466 2.98444 196.825 2.12486 197.462 1.49251C198.099 0.860169 198.961 0.506825 199.858 0.510192M113.703 18.0524C114.617 18.0524 115.729 18.1684 117.039 18.4003C117.446 18.4724 117.834 18.6315 118.175 18.8666C118.515 19.1017 118.802 19.4074 119.014 19.763C119.227 20.1185 119.36 20.5157 119.406 20.9274C119.452 21.3392 119.408 21.756 119.279 22.1495C119.006 22.9515 118.461 23.6319 117.737 24.0715C117.013 24.5112 116.158 24.6819 115.321 24.5537C114.785 24.4672 114.243 24.4203 113.7 24.4134C109.885 24.4134 107.007 25.5699 105.067 27.8828C104.352 28.719 103.819 29.8274 103.466 31.2081C103.131 32.4695 102.919 33.7608 102.834 35.0634C102.773 36.1874 102.741 37.9264 102.737 40.2803V61.3309C102.737 62.232 102.379 63.0961 101.743 63.7332C101.106 64.3703 100.242 64.7283 99.3417 64.7283C98.4413 64.7283 97.5777 64.3703 96.941 63.7332C96.3042 63.0961 95.9465 62.232 95.9465 61.3309V40.2511C95.9465 37.2702 95.9949 35.0761 96.0916 33.6688C96.1871 32.1914 96.5264 30.5369 97.1094 28.7054C97.6697 26.9114 98.5942 25.2525 99.8248 23.8325C103.125 19.9772 107.749 18.0498 113.698 18.0504L113.703 18.0524ZM216.546 18.6313C217.443 18.6279 218.305 18.9813 218.942 19.6136C219.579 20.246 219.938 21.1055 219.942 22.0033V61.329C219.942 62.23 219.584 63.0941 218.948 63.7313C218.311 64.3684 217.447 64.7263 216.547 64.7263C215.646 64.7263 214.783 64.3684 214.146 63.7313C213.509 63.0941 213.152 62.23 213.152 61.329V22.0023C213.155 21.1049 213.515 20.2456 214.151 19.6133C214.788 18.981 215.649 18.6275 216.546 18.6303M185.306 24.4124C181.748 24.4124 178.999 25.5371 177.059 27.7864C176.154 28.8135 175.475 30.1779 175.022 31.8795C174.569 33.5811 174.309 35.0755 174.243 36.3625C174.181 37.5658 174.149 39.2505 174.146 41.4166V42.2879C174.151 44.265 174.183 45.808 174.243 46.9171C174.308 48.1061 174.615 49.5354 175.164 51.2052C175.714 52.8749 176.506 54.2887 177.541 55.4465C179.674 57.7595 182.585 58.916 186.271 58.916C189.7 58.916 192.319 57.8238 194.13 55.6395C194.844 54.7396 195.378 53.5994 195.73 52.2187C196.058 51.0045 196.269 49.7618 196.362 48.5076C196.427 47.4154 196.459 45.7769 196.459 43.5919C196.459 40.5707 196.427 38.3214 196.362 36.844C196.297 35.3665 196.037 33.7604 195.582 32.0257C195.128 30.2903 194.449 28.8766 193.545 27.7844C191.604 25.5351 188.856 24.4105 185.299 24.4105M25.2197 0.124268C39.1473 0.124268 50.4452 11.4458 50.4452 25.4221C50.4504 29.3297 49.5506 33.1855 47.8163 36.6867C46.082 40.1879 43.5604 43.2393 40.4495 45.6014C39.7179 46.1362 38.8057 46.3618 37.9095 46.2297C37.0132 46.0976 36.2047 45.6183 35.6584 44.8952C35.1121 44.1721 34.8717 43.2631 34.9891 42.3642C35.1064 41.4654 35.5722 40.6487 36.2858 40.0903C38.548 38.3752 40.3819 36.1584 41.6433 33.6143C42.9047 31.0701 43.5592 28.2679 43.5554 25.4279C43.5554 15.272 35.3459 7.04174 25.2216 7.04369C15.0973 7.04564 6.89368 15.2759 6.89368 25.4279C6.89058 28.2872 7.55439 31.1078 8.83231 33.6652C10.1102 36.2226 11.967 38.4464 14.2549 40.1595C14.989 40.7069 15.4757 41.5237 15.6079 42.4302C15.7402 43.3368 15.5071 44.2587 14.96 44.9933C14.4129 45.7279 13.5966 46.2149 12.6906 46.3472C11.7847 46.4795 10.8633 46.2463 10.1292 45.6989C6.98136 43.3413 4.42668 40.2813 2.66827 36.7623C0.909859 33.2433 -0.00377716 29.3623 1.17365e-05 25.4279C0.000985694 11.4585 11.2901 0.126217 25.2197 0.124268ZM27.3945 16.0721L27.6867 16.2017L34.0087 19.1975C35.7306 20.0113 36.3929 21.9263 35.4871 23.4856C34.6164 24.9796 32.6081 25.5887 30.9232 24.9036L30.7284 24.8188L24.7366 21.9799L18.7429 24.8208C17.0871 25.6063 15.0418 25.0839 14.0912 23.6581L13.9841 23.4885C13.1134 21.9945 13.6919 20.1594 15.2756 19.2979L15.4626 19.2004L21.7816 16.2046C22.6568 15.7939 23.6078 15.5701 24.5741 15.5472C25.5405 15.5244 26.501 15.7032 27.3945 16.0721ZM216.547 2.14942C217.842 2.14942 218.926 2.56718 219.798 3.40271C220.67 4.23824 221.107 5.3304 221.108 6.6792C221.108 8.0293 220.671 9.12146 219.798 9.95569C218.925 10.7899 217.841 11.2077 216.547 11.209C215.255 11.209 214.172 10.7912 213.298 9.95569C212.423 9.12016 211.986 8.028 211.988 6.6792C211.988 5.32975 212.408 4.23759 213.249 3.40271C214.155 2.56523 215.255 2.14714 216.547 2.14844V2.14942Z" fill="#28ad99"/>
<path d="M236.217 11.3164C233.026 11.3164 230.435 8.78054 230.435 5.65876C230.435 4.91254 230.586 4.17382 230.877 3.48505C231.169 2.79627 231.595 2.17101 232.133 1.64519C232.67 1.11937 233.307 0.703351 234.008 0.421035C234.709 0.138719 235.46 -0.00433602 236.217 0.000100098C239.439 0.000100098 242 2.50908 242 5.65876C241.999 6.4049 241.849 7.14352 241.557 7.83218C241.266 8.52084 240.839 9.14599 240.302 9.67171C239.764 10.1974 239.127 10.6134 238.426 10.8956C237.725 11.1779 236.975 11.3209 236.217 11.3164ZM236.217 0.908261C233.516 0.908261 231.336 2.99009 231.336 5.65876C231.336 8.27355 233.518 10.4352 236.217 10.4352C237.504 10.4352 238.737 9.93224 239.648 9.0367C240.558 8.14116 241.07 6.92627 241.072 5.65876C241.072 2.99009 238.917 0.908261 236.217 0.908261ZM237.772 8.91426L236.054 6.35142H234.962V8.91426H233.98V2.42922H236.681C237.8 2.42922 238.89 3.19885 238.89 4.40427C238.89 5.84731 237.581 6.32833 237.199 6.32833L238.971 8.91715L237.772 8.91426ZM236.681 3.22964H234.962V5.52504H236.681C237.252 5.52504 237.881 5.07096 237.881 4.40427C237.877 4.0925 237.75 3.79462 237.525 3.57487C237.301 3.35513 236.997 3.23113 236.681 3.22964Z" fill="#28ad99"/>
</svg>
