<svg width="16" height="18" viewBox="0 0 16 18" fill="none" xmlns="http://www.w3.org/2000/svg">
<path fill-rule="evenodd" clip-rule="evenodd" d="M0.370605 4.19485C0.370605 3.87647 0.623629 3.61837 0.93575 3.61837H15.0644C15.3765 3.61837 15.6295 3.87647 15.6295 4.19485C15.6295 4.51323 15.3765 4.77133 15.0644 4.77133H0.93575C0.623629 4.77133 0.370605 4.51323 0.370605 4.19485Z" fill="#646464"/>
<path fill-rule="evenodd" clip-rule="evenodd" d="M6.43043 1.56897C6.16397 1.56897 5.90842 1.67695 5.72 1.86915C5.53158 2.06134 5.42573 2.32202 5.42573 2.59382V4.19515C5.42573 4.51354 5.1727 4.77163 4.86058 4.77163C4.54846 4.77163 4.29544 4.51354 4.29544 4.19515V2.59382C4.29544 2.01623 4.52038 1.4623 4.92076 1.05388C5.32115 0.645463 5.86419 0.416016 6.43043 0.416016H9.57012C10.1364 0.416016 10.6794 0.645463 11.0798 1.05388C11.4802 1.4623 11.7051 2.01623 11.7051 2.59382V4.19515C11.7051 4.51354 11.4521 4.77163 11.14 4.77163C10.8278 4.77163 10.5748 4.51354 10.5748 4.19515V2.59382C10.5748 2.32202 10.469 2.06134 10.2806 1.86915C10.0921 1.67695 9.83658 1.56897 9.57012 1.56897H6.43043ZM2.50581 3.61868C2.81794 3.61868 3.07096 3.87677 3.07096 4.19515V15.4045C3.07096 15.6763 3.17681 15.9369 3.36523 16.1291C3.55365 16.3213 3.8092 16.4293 4.07566 16.4293H11.9249C12.1914 16.4293 12.4469 16.3213 12.6353 16.1291C12.8237 15.9369 12.9296 15.6763 12.9296 15.4045V4.19515C12.9296 3.87677 13.1826 3.61868 13.4947 3.61868C13.8069 3.61868 14.0599 3.87677 14.0599 4.19515V15.4045C14.0599 15.9821 13.8349 16.536 13.4346 16.9444C13.0342 17.3528 12.4911 17.5823 11.9249 17.5823H4.07566C3.50943 17.5823 2.96638 17.3528 2.56599 16.9444C2.16561 16.536 1.94067 15.9821 1.94067 15.4045V4.19515C1.94067 3.87677 2.19369 3.61868 2.50581 3.61868Z" fill="#646464"/>
<path fill-rule="evenodd" clip-rule="evenodd" d="M6.4301 7.62196C6.74222 7.62196 6.99524 7.88006 6.99524 8.19844V13.0024C6.99524 13.3208 6.74222 13.5789 6.4301 13.5789C6.11798 13.5789 5.86495 13.3208 5.86495 13.0024V8.19844C5.86495 7.88006 6.11798 7.62196 6.4301 7.62196Z" fill="#646464"/>
<path fill-rule="evenodd" clip-rule="evenodd" d="M9.56964 7.62196C9.88176 7.62196 10.1348 7.88006 10.1348 8.19844V13.0024C10.1348 13.3208 9.88176 13.5789 9.56964 13.5789C9.25752 13.5789 9.00449 13.3208 9.00449 13.0024V8.19844C9.00449 7.88006 9.25752 7.62196 9.56964 7.62196Z" fill="#646464"/>
</svg>
