
<svg width="24" height="24" viewBox="0 0 24 24" fill="none" xmlns="http://www.w3.org/2000/svg">
<rect width="24" height="24" rx="4" fill="#D6D9DB"/>
<path d="M8.4743 3.87962C8.86214 3.88316 9.12333 4.02132 9.42273 4.17433C10.1442 4.53921 10.8386 4.959 11.5697 5.30132C11.815 5.40234 12.0884 5.40234 12.3337 5.30132C13.1005 4.94135 13.8336 4.5088 14.5889 4.12235C15.5431 3.63782 16.5282 3.92814 16.9754 4.80796C17.4283 5.69463 17.099 6.67351 16.1564 7.19041C15.2514 7.68475 14.3387 8.1634 13.427 8.64597C12.4438 9.1668 11.4606 9.1668 10.4774 8.64597C9.51255 8.13398 8.53998 7.63767 7.59155 7.09625C6.86429 6.68234 6.57841 5.88099 6.81117 5.09534C7.02558 4.37541 7.66982 3.8723 8.4743 3.87962Z" fill="#202020"/>
<path d="M7.21431 18.6078C7.02488 18.2693 7.0152 17.974 6.99943 17.6381C6.95811 16.8307 6.9779 16.0195 6.9122 15.2149C6.87815 14.9518 6.74249 14.7145 6.53303 14.5517C5.83992 14.0646 5.10058 13.6429 4.39023 13.179C3.49599 12.5911 3.25909 11.5918 3.80094 10.7669C4.34589 9.93359 5.35914 9.73366 6.27574 10.2954C7.15405 10.8357 8.02257 11.3905 8.89402 11.9425C9.83415 12.5375 10.3221 13.3911 10.358 14.5031C10.3924 15.5949 10.4442 16.6855 10.4449 17.7776C10.4465 18.6144 9.89275 19.2603 9.09517 19.4482C8.36375 19.6194 7.60723 19.3098 7.21431 18.6078Z" fill="#202020"/>
<path d="M16.7857 18.6078C16.9751 18.2693 16.9848 17.974 17.0006 17.6381C17.0419 16.8307 17.0221 16.0195 17.0878 15.2149C17.1219 14.9518 17.2575 14.7145 17.467 14.5517C18.1601 14.0646 18.8994 13.6429 19.6098 13.179C20.504 12.5911 20.7409 11.5918 20.1991 10.7669C19.6541 9.93359 18.6409 9.73366 17.7243 10.2954C16.846 10.8357 15.9774 11.3905 15.106 11.9425C14.1658 12.5375 13.6779 13.3911 13.642 14.5031C13.6076 15.5949 13.5558 16.6855 13.5551 17.7776C13.5535 18.6144 14.1073 19.2603 14.9048 19.4482C15.6363 19.6194 16.3928 19.3098 16.7857 18.6078Z" fill="#202020"/>
</svg>
