<svg width="200" height="60" viewBox="0 0 200 60" fill="none" xmlns="http://www.w3.org/2000/svg">
<g id="Frame" clip-path="url(#clip0_3011_169747)">
<path id="Vector" d="M28.8 22.6C28.8 26 26 28.8 22.6 28.8C19.2 28.8 16.4 26 16.4 22.6C16.4 19.2 19.2 16.4 22.6 16.4C26 16.4 28.8 19.2 28.8 22.6ZM22.6 31.2C19.2 31.2 16.4 34 16.4 37.4C16.4 40.8 19.2 43.6 22.6 43.6C26 43.6 28.8 40.8 28.8 37.4C28.8 34 26 31.2 22.6 31.2ZM60 30C60 46.6 46.6 60 30 60C13.4 60 0 46.6 0 30C0 13.4 13.4 0 30 0C46.6 0 60 13.4 60 30ZM52 30C52 17.8 42.2 8 30 8C17.8 8 8 17.8 8 30C8 42.2 17.8 52 30 52C42.2 52 52 42.2 52 30ZM37.4 31.2C34 31.2 31.2 34 31.2 37.4C31.2 40.8 34 43.6 37.4 43.6C40.8 43.6 43.6 40.8 43.6 37.4C43.6 34 40.8 31.2 37.4 31.2ZM37.4 16.4C34 16.4 31.2 19.2 31.2 22.6C31.2 26 34 28.8 37.4 28.8C40.8 28.8 43.6 26 43.6 22.6C43.6 19.2 40.8 16.4 37.4 16.4ZM140.6 11.8C140.8 11.8 141 12 141.2 12.2V18.6C141.2 19 140.8 19.2 140.6 19.2H130C129.6 19.2 129.4 18.8 129.4 18.6V12.4C129.4 12 129.8 11.8 130 11.8H140.6ZM140.4 20.8H120C119.8 20.8 119.4 21 119.4 21.4L116.8 31.4L116.6 32L113.4 21.4C113.4 21.2 113 20.8 112.8 20.8H104.8C104.6 20.8 104.2 21 104.2 21.4L101.2 31.4L101 32L100.8 31.4L99.6 26.4L98.4 21.4C98.4 21.2 98 20.8 97.8 20.8H81.8V12.2C81.8 12 81.4 11.6 81 11.8L71 15C70.6 15 70.4 15.2 70.4 15.6V21H67.8C67.6 21 67.2 21.2 67.2 21.6V29.2C67.2 29.4 67.4 29.8 67.8 29.8H70.4V39.2C70.4 45.8 74 48.8 80.6 48.8C83.4 48.8 86 48.2 87.8 47.2V39.2C87.8 38.8 87.4 38.6 87.2 38.8C86.2 39.2 85.2 39.4 84.4 39.4C82.6 39.4 81.6 38.6 81.6 36.6V29.8H87.4C87.6 29.8 88 29.6 88 29.2V22.8L95.6 48C95.6 48.2 96 48.6 96.2 48.6H104.6C104.8 48.6 105.2 48.4 105.2 48L108.8 36.8L110.6 42.6L112.2 48C112.2 48.2 112.6 48.6 112.8 48.6H121.2C121.4 48.6 121.8 48.4 121.8 48L129.4 22.8V48C129.4 48.2 129.6 48.6 130 48.6H140.2C140.4 48.6 140.8 48.4 140.8 48V21.4C140.8 21.2 140.6 20.8 140.4 20.8ZM153.8 11.8H143.6C143.4 11.8 143 12 143 12.4V47.8C143 48 143.2 48.4 143.6 48.4H153.8C154 48.4 154.4 48.2 154.4 47.8V12.2C154.4 12 154.2 11.8 153.8 11.8ZM167.4 11.8H156.8C156.6 11.8 156.2 12 156.2 12.4V18.6C156.2 18.8 156.4 19.2 156.8 19.2H167.4C167.6 19.2 168 19 168 18.6V12.2C168 12 167.8 11.8 167.4 11.8ZM167.2 20.8H157C156.8 20.8 156.4 21 156.4 21.4V47.6C156.4 47.8 156.6 48.2 157 48.2H167.2C167.4 48.2 167.8 48 167.8 47.6V21.4C167.8 21.2 167.6 20.8 167.2 20.8ZM199.4 34.4C199.4 42 193 48.6 184 48.6C175.2 48.6 168.8 42 168.8 34.4C168.8 26.8 175.2 20.2 184.2 20.2C193 20.2 199.4 26.8 199.4 34.4ZM188.6 34.6C188.6 31.8 186.6 29.6 184.2 29.8C181.6 29.8 179.8 32 179.8 34.6C179.8 37.2 181.8 39.4 184.2 39.4C186.8 39.4 188.6 37.2 188.6 34.6Z" fill="#F22F46"/>
</g>
<defs>
<clipPath id="clip0_3011_169747">
<rect width="200" height="60" fill="white"/>
</clipPath>
</defs>
</svg>
