<svg width="16" height="16" viewBox="0 0 16 16" fill="none" xmlns="http://www.w3.org/2000/svg">
<g clip-path="url(#clip0_2682_66985)">
<path d="M15.7455 2.89371C15.39 3.05132 15.0207 3.17586 14.6423 3.26575C15.0617 2.86772 15.374 2.37041 15.5503 1.81978C15.6008 1.66175 15.4292 1.5251 15.2865 1.60971C14.7606 1.92177 14.1926 2.15644 13.5999 2.3065C13.5654 2.31521 13.53 2.31961 13.4945 2.31961C13.3866 2.31961 13.2817 2.27954 13.1992 2.20683C12.5689 1.65137 11.7584 1.34546 10.9168 1.34546C10.5526 1.34546 10.185 1.40222 9.82398 1.51418C8.70549 1.86109 7.84248 2.78371 7.57172 3.92201C7.47014 4.34897 7.44264 4.77632 7.48992 5.19216C7.4919 5.20958 7.49015 5.22721 7.48479 5.2439C7.47943 5.26059 7.47058 5.27594 7.45883 5.28894C7.44552 5.30397 7.42886 5.31565 7.41021 5.32304C7.39155 5.33044 7.37142 5.33333 7.35143 5.3315C4.90311 5.10404 2.69532 3.9245 1.13474 2.01022C1.05516 1.91258 0.902552 1.92456 0.839123 2.03335C0.533521 2.55764 0.372021 3.1573 0.372021 3.76749C0.372021 4.70263 0.747723 5.5839 1.40032 6.22635C1.12537 6.16125 0.860638 6.05877 0.61353 5.92176C0.49416 5.85544 0.347289 5.94068 0.345612 6.07721C0.328526 7.46642 1.14188 8.70256 2.3603 9.25919C2.14072 9.26422 1.92121 9.24592 1.70549 9.20461C1.57106 9.17895 1.45813 9.30647 1.49987 9.4368C1.89535 10.6715 2.95844 11.5816 4.23062 11.7882C3.17479 12.497 1.94524 12.8709 0.66553 12.8709L0.266578 12.8706C0.143659 12.8706 0.0396982 12.9507 0.00837342 13.0698C-0.0224832 13.1871 0.0343538 13.3108 0.139173 13.3717C1.5812 14.211 3.22604 14.6545 4.89659 14.6545C6.35887 14.6545 7.7267 14.3643 8.96214 13.792C10.0947 13.2674 11.0955 12.5174 11.9368 11.563C12.7205 10.6739 13.3334 9.64749 13.7583 8.51239C14.1633 7.43038 14.3774 6.27585 14.3774 5.17359V5.12109C14.3773 4.9441 14.4574 4.77757 14.597 4.6642C15.127 4.23389 15.5894 3.72643 15.9686 3.15878C16.069 3.00863 15.9107 2.82045 15.7455 2.89371Z" fill="#76A9EA"/>
</g>
<defs>
<clipPath id="clip0_2682_66985">
<rect width="16" height="16" fill="white"/>
</clipPath>
</defs>
</svg>
