<svg width="24" height="24" viewBox="0 0 24 24" fill="none" xmlns="http://www.w3.org/2000/svg">
<path d="M20.9998 21.751C20.8078 21.751 20.6157 21.677 20.4697 21.531L2.46975 3.53201C2.17675 3.23901 2.17675 2.76397 2.46975 2.47097C2.76275 2.17797 3.23779 2.17797 3.53078 2.47097L21.5298 20.47C21.8228 20.763 21.8228 21.238 21.5298 21.531C21.3838 21.678 21.1918 21.751 20.9998 21.751Z" fill="#61646C"/>
<path d="M7.24953 3.47705L19.1085 7.85693C19.8015 8.11393 20.2495 8.75702 20.2495 9.49902C20.2495 10.241 19.8015 10.8861 19.1085 11.1421L12.5154 13.5771L11.3477 12.4095L18.5885 9.73511C18.7215 9.68711 18.7495 9.57902 18.7495 9.49902C18.7495 9.41902 18.7215 9.31292 18.5885 9.26392L7.24953 5.07593V8.31151L5.74953 6.81159V3C5.74953 2.586 6.08553 2.25 6.49953 2.25C6.91353 2.25 7.24953 2.586 7.24953 3V3.47705Z" fill="#61646C"/>
<path d="M7.02984 10.2131C6.55736 9.74065 5.74953 10.0753 5.74953 10.7434V20.25H4.49953C4.08553 20.25 3.74953 20.586 3.74953 21C3.74953 21.414 4.08553 21.75 4.49953 21.75H8.49953C8.91353 21.75 9.24953 21.414 9.24953 21C9.24953 20.586 8.91353 20.25 8.49953 20.25H7.24953V15.522L9.86767 14.555C10.3808 14.3655 10.525 13.708 10.1381 13.3212C9.93113 13.1142 9.62262 13.0466 9.34802 13.148L7.24953 13.9231V10.7434C7.24953 10.5445 7.1705 10.3538 7.02984 10.2131Z" fill="#61646C"/>
</svg>
