<svg width="24" height="24" viewBox="0 0 24 24" fill="none" xmlns="http://www.w3.org/2000/svg">
<rect width="24" height="24" rx="4" fill="#f1c012"/>
<path fill-rule="evenodd" clip-rule="evenodd" d="M4 12C4 7.58853 7.58853 4 12 4C16.4115 4 20 7.58853 20 12C20 16.4115 16.4115 20 12 20C7.58853 20 4 16.4115 4 12ZM5.23934 12C5.23934 15.7273 8.27266 18.7607 12 18.7607C15.7273 18.7607 18.7607 15.7273 18.7607 12C18.7607 8.27266 15.728 5.23934 12 5.23934C8.27266 5.23934 5.23934 8.27266 5.23934 12ZM12.6193 11.7398L14.8501 13.4129C15.124 13.618 15.1798 14.0066 14.974 14.2799C14.8525 14.4435 14.6666 14.5284 14.4776 14.5284C14.3481 14.5284 14.218 14.4881 14.1064 14.4044L11.6278 12.5454C11.4716 12.4289 11.3799 12.2449 11.3799 12.0497V8.3316C11.3799 7.98891 11.6569 7.71191 11.9996 7.71191C12.3423 7.71191 12.6193 7.98891 12.6193 8.3316V11.7398Z" fill="#F2F5F7"/>
</svg>
