<svg width="10" height="13" viewBox="0 0 10 13" fill="none" xmlns="http://www.w3.org/2000/svg">
<path fill-rule="evenodd" clip-rule="evenodd" d="M8.42848 0.5C8.94277 0.5 9.28563 0.842857 9.28563 1.35714V6.07143C9.29306 6.6054 9.17565 7.13372 8.94277 7.61429L8.08563 8.81429C7.45776 9.38226 6.68367 9.76348 5.85068 9.91494C5.01769 10.0664 4.15895 9.98205 3.37134 9.67143C2.86395 9.47534 2.39852 9.18445 1.99991 8.81429C1.57134 8.47143 1.3142 8.04286 1.05706 7.61429C0.824175 7.13372 0.706771 6.6054 0.714199 6.07143V1.35714C0.714199 0.842857 1.05706 0.5 1.57134 0.5C2.08563 0.5 2.42848 0.842857 2.42848 1.35714V6.07143C2.42848 6.32857 2.42848 6.58571 2.59991 6.92857L3.1142 7.52857C3.63786 7.9799 4.30867 8.22383 4.99991 8.21429C5.68984 8.21613 6.35804 7.97315 6.88563 7.52857C7.14277 7.35714 7.22848 7.1 7.39991 6.84286L7.57134 6.07143V1.35714C7.57134 0.842857 7.9142 0.5 8.42848 0.5ZM1.57134 10.7857H8.42848C8.94277 10.7857 9.28563 11.1286 9.28563 11.6429C9.28563 12.1571 8.94277 12.5 8.42848 12.5H1.57134C1.34401 12.5 1.126 12.4097 0.96525 12.2489C0.804505 12.0882 0.714199 11.8702 0.714199 11.6429C0.714199 11.4155 0.804505 11.1975 0.96525 11.0368C1.126 10.876 1.34401 10.7857 1.57134 10.7857Z" fill="#8A8A8A"/>
</svg>
