<svg width="20" height="21" viewBox="0 0 20 21" fill="none" xmlns="http://www.w3.org/2000/svg">
<path d="M14.6375 12.6285C14.4783 12.6285 14.3182 12.5677 14.1966 12.4469C13.9524 12.2035 13.9508 11.8077 14.1949 11.5627L15.8341 9.91438C16.5075 9.24938 16.875 8.35772 16.875 7.40105C16.875 6.44605 16.5058 5.55103 15.8358 4.8802C14.4491 3.4927 12.1907 3.4927 10.8024 4.8802L9.16341 6.52771C8.92008 6.77272 8.52422 6.77354 8.27922 6.53021C8.03505 6.28687 8.03324 5.89104 8.27657 5.64604L9.9174 3.99771C11.7941 2.12104 14.8442 2.1227 16.7192 3.99687C17.6258 4.9027 18.125 6.11189 18.125 7.40105C18.125 8.69439 17.625 9.90105 16.7175 10.7994L15.0816 12.4444C14.9583 12.5677 14.7983 12.6285 14.6375 12.6285ZM10.0826 17.4344L11.7316 15.7944C11.9757 15.551 11.9776 15.1552 11.7334 14.9102C11.4901 14.6652 11.0942 14.6652 10.8492 14.9077L9.20003 16.5494C7.81337 17.9369 5.555 17.9369 4.16667 16.5494C2.77917 15.1619 2.77919 12.9044 4.16585 11.5177L5.81502 9.87771C6.05919 9.63437 6.06082 9.23854 5.81665 8.99354C5.57332 8.74854 5.17745 8.74854 4.93245 8.99104L3.28328 10.6327C1.40828 12.5077 1.40828 15.5577 3.28328 17.4327C4.22162 18.3702 5.45333 18.8385 6.68416 18.8385C7.915 18.8385 9.14593 18.371 10.0826 17.4344ZM18.125 14.8819C18.125 14.5369 17.845 14.2569 17.5 14.2569H15.8333C15.4883 14.2569 15.2083 14.5369 15.2083 14.8819C15.2083 15.2269 15.4883 15.5069 15.8333 15.5069H17.5C17.845 15.5069 18.125 15.2269 18.125 14.8819ZM14.7917 18.2152V16.5485C14.7917 16.2035 14.5117 15.9235 14.1667 15.9235C13.8217 15.9235 13.5417 16.2035 13.5417 16.5485V18.2152C13.5417 18.5602 13.8217 18.8402 14.1667 18.8402C14.5117 18.8402 14.7917 18.5602 14.7917 18.2152ZM4.79167 6.54854C4.79167 6.20354 4.51167 5.92354 4.16667 5.92354H2.5C2.155 5.92354 1.875 6.20354 1.875 6.54854C1.875 6.89354 2.155 7.17354 2.5 7.17354H4.16667C4.51167 7.17354 4.79167 6.89354 4.79167 6.54854ZM6.45833 4.88188V3.21521C6.45833 2.87021 6.17833 2.59021 5.83333 2.59021C5.48833 2.59021 5.20833 2.87021 5.20833 3.21521V4.88188C5.20833 5.22688 5.48833 5.50688 5.83333 5.50688C6.17833 5.50688 6.45833 5.22688 6.45833 4.88188Z" fill="#61646C"/>
</svg>
