<svg width="20" height="20" viewBox="0 0 20 20" fill="none" xmlns="http://www.w3.org/2000/svg">
<g id="Icon">
<path id="vector" d="M16.2502 7.29134C14.986 7.29134 13.9585 6.26301 13.9585 4.99967C13.9585 3.73634 14.986 2.70801 16.2502 2.70801C17.5143 2.70801 18.5418 3.73634 18.5418 4.99967C18.5418 6.26301 17.5143 7.29134 16.2502 7.29134ZM16.2502 3.95801C15.676 3.95801 15.2085 4.42551 15.2085 4.99967C15.2085 5.57384 15.676 6.04134 16.2502 6.04134C16.8243 6.04134 17.2918 5.57384 17.2918 4.99967C17.2918 4.42551 16.8243 3.95801 16.2502 3.95801ZM17.7085 14.1663V9.99967C17.7085 9.65467 17.4285 9.37467 17.0835 9.37467C16.7385 9.37467 16.4585 9.65467 16.4585 9.99967V14.1663C16.4585 15.4805 15.8977 16.0413 14.5835 16.0413H4.5835C3.26933 16.0413 2.7085 15.4805 2.7085 14.1663V6.66634C2.7085 5.35217 3.26933 4.79134 4.5835 4.79134H11.2502C11.5952 4.79134 11.8752 4.51134 11.8752 4.16634C11.8752 3.82134 11.5952 3.54134 11.2502 3.54134H4.5835C2.5685 3.54134 1.4585 4.65134 1.4585 6.66634V14.1663C1.4585 16.1813 2.5685 17.2913 4.5835 17.2913H14.5835C16.5985 17.2913 17.7085 16.1813 17.7085 14.1663ZM10.4952 11.738L14.141 8.82134C14.4102 8.60551 14.4543 8.21217 14.2384 7.94301C14.0226 7.67301 13.6293 7.6305 13.3593 7.8455L9.7135 10.7622C9.6385 10.823 9.52766 10.823 9.45349 10.7622L5.80766 7.8455C5.53849 7.6305 5.14605 7.67301 4.92855 7.94301C4.71271 8.21217 4.75683 8.60551 5.026 8.82134L8.67183 11.738C8.94017 11.953 9.26183 12.0597 9.5835 12.0597C9.90516 12.0597 10.226 11.953 10.4952 11.738Z" fill="#61646C"/>
</g>
</svg>
