<svg width="20" height="20" viewBox="0 0 20 20" fill="none" xmlns="http://www.w3.org/2000/svg">
<path d="M3.33734 18.1242C2.9565 18.1242 2.58666 17.9741 2.30666 17.6941C1.91166 17.3 1.77582 16.7275 1.95082 16.2008L2.6515 14.1167C2.73317 13.8608 2.72577 13.6041 2.62994 13.4016C2.13661 12.3408 1.87819 11.1659 1.87819 9.99919C1.87819 5.52002 5.5224 1.875 10.0016 1.875C10.3099 1.875 10.61 1.89334 10.91 1.92917C11.2533 1.97084 11.4967 2.28252 11.455 2.62502C11.4133 2.96752 11.0934 3.21085 10.76 3.17001C10.5092 3.13918 10.2591 3.12419 10.0016 3.12419C6.21156 3.12419 3.12819 6.20749 3.12819 9.99832C3.12819 10.9842 3.34736 11.9767 3.76153 12.8683C3.99153 13.3525 4.02151 13.935 3.84067 14.5042L3.13734 16.5967C3.10234 16.7008 3.15585 16.775 3.19085 16.81C3.22585 16.845 3.30072 16.8984 3.40488 16.8634L5.48659 16.1641C6.06575 15.98 6.6482 16.0084 7.1382 16.2425C8.0232 16.6542 9.01573 16.8733 10.0016 16.8733C13.7924 16.8733 16.8757 13.79 16.8757 9.99919C16.8757 9.74169 16.8608 9.49166 16.8308 9.24082C16.7891 8.89832 17.0325 8.58669 17.3758 8.54502C17.7125 8.50419 18.0291 8.74752 18.0708 9.09002C18.1075 9.39002 18.1249 9.68915 18.1249 9.99832C18.1249 14.4775 14.4807 18.1225 10.0007 18.1225C8.83491 18.1225 7.65995 17.8633 6.60495 17.3725C6.39829 17.2733 6.13996 17.2667 5.87579 17.3508L3.80161 18.0475C3.64828 18.0992 3.4915 18.1242 3.33734 18.1242ZM18.1249 4.16667C18.1249 2.90333 17.0974 1.875 15.8333 1.875C14.5691 1.875 13.5416 2.90333 13.5416 4.16667C13.5416 5.43 14.5691 6.45833 15.8333 6.45833C17.0974 6.45833 18.1249 5.43 18.1249 4.16667ZM16.8749 4.16667C16.8749 4.74083 16.4074 5.20833 15.8333 5.20833C15.2591 5.20833 14.7916 4.74083 14.7916 4.16667C14.7916 3.5925 15.2591 3.125 15.8333 3.125C16.4074 3.125 16.8749 3.5925 16.8749 4.16667ZM13.9583 8.33333C13.9583 7.98833 13.6783 7.70833 13.3333 7.70833H6.6666C6.3216 7.70833 6.0416 7.98833 6.0416 8.33333C6.0416 8.67833 6.3216 8.95833 6.6666 8.95833H13.3333C13.6783 8.95833 13.9583 8.67833 13.9583 8.33333ZM11.4583 11.6667C11.4583 11.3217 11.1783 11.0417 10.8333 11.0417H6.6666C6.3216 11.0417 6.0416 11.3217 6.0416 11.6667C6.0416 12.0117 6.3216 12.2917 6.6666 12.2917H10.8333C11.1783 12.2917 11.4583 12.0117 11.4583 11.6667Z" fill="#51525C"/>
</svg>
