<svg xmlns="http://www.w3.org/2000/svg" width="27" height="24" viewBox="0 0 27 24">
    <path fill="#00A99F" fill-rule="nonzero" d="M16 18.667h-2.667v-1.334h-2.666v-2.666h4.666a.668.668 0 0 0 0-1.334H14A3.337 3.337 0 0 1 10.667 10a3.338 3.338 0 0 1 2.666-3.267v-1.4H16v1.334h2.667v2.666H14a.668.668 0 0 0 0 1.334h1.333A3.337 3.337 0 0 1 18.667 14 3.338 3.338 0 0 1 16 17.267v1.4zM14.667 0c6.617 0 12 5.384 12 12s-5.383 12-12 12v-2.667C19.812 21.333 24 17.147 24 12s-4.188-9.333-9.333-9.333C9.52 2.667 5.333 6.853 5.333 12H8l-4 5.333L0 12h2.667c0-6.616 5.382-12 12-12z"/>
</svg>
