<svg width="20" height="21" viewBox="0 0 20 21" fill="none" xmlns="http://www.w3.org/2000/svg">
<g id="Leading Icon">
<path id="upload" fill-rule="evenodd" clip-rule="evenodd" d="M9.39993 13.0004C9.39993 13.3318 9.66856 13.6004 9.99993 13.6004C10.3313 13.6004 10.5999 13.3318 10.5999 13.0004V4.44892L13.7423 7.59132C13.9767 7.82564 14.3566 7.82564 14.5909 7.59132C14.8252 7.35701 14.8252 6.97711 14.5909 6.74279L10.4242 2.57613C10.1899 2.34181 9.80999 2.34181 9.57567 2.57613L5.409 6.74279C5.17469 6.97711 5.17469 7.35701 5.409 7.59132C5.64332 7.82564 6.02322 7.82564 6.25753 7.59132L9.39994 4.44892L9.39993 13.0004ZM3.0999 13.0004C3.0999 12.6691 2.83127 12.4004 2.4999 12.4004C2.16853 12.4004 1.8999 12.6691 1.8999 13.0004V16.3338C1.8999 16.9349 2.13871 17.5115 2.56379 17.9365C2.98888 18.3616 3.56541 18.6004 4.16657 18.6004H15.8332C16.4344 18.6004 17.0109 18.3616 17.436 17.9365C17.8611 17.5115 18.0999 16.9349 18.0999 16.3338V13.0004C18.0999 12.6691 17.8313 12.4004 17.4999 12.4004C17.1685 12.4004 16.8999 12.6691 16.8999 13.0004V16.3338C16.8999 16.6167 16.7875 16.888 16.5875 17.088C16.3874 17.2881 16.1161 17.4004 15.8332 17.4004H4.16657C3.88367 17.4004 3.61236 17.2881 3.41232 17.088C3.21228 16.888 3.0999 16.6167 3.0999 16.3338V13.0004Z" fill="#28ad99"/>
</g>
</svg>
