<svg width="44" height="44" viewBox="0 0 44 44" fill="none" xmlns="http://www.w3.org/2000/svg">
<path d="M39.8494 13.9782L38.0266 1.21722C37.8767 0.171016 36.5908 -0.263742 35.8387 0.488383L33.1837 3.14334C29.7697 1.08384 25.8937 0 21.9082 0C9.92267 0 0.299986 9.38094 0.000407756 21.3564C-0.0159204 22.011 0.459916 22.5724 1.10694 22.6656L6.25812 23.402C7.02606 23.514 7.74046 22.9111 7.7298 22.1079C7.62298 14.2043 14.0066 7.73438 21.9082 7.73438C23.8216 7.73438 25.7124 8.12333 27.4598 8.86729L24.9005 11.4265C24.1531 12.1739 24.5773 13.4637 25.6294 13.6144L38.3903 15.4372C39.2311 15.564 39.9699 14.8327 39.8494 13.9782ZM42.8928 21.4338L37.7455 20.6986C37.0805 20.6144 36.2739 21.1843 36.2739 22.0859C36.2739 29.9046 29.9128 36.2656 22.0942 36.2656C20.1956 36.265 18.3164 35.8836 16.5679 35.144L19.0453 32.6666C19.7927 31.9192 19.3685 30.6293 18.3164 30.4787L5.55549 28.6546C4.71735 28.5349 3.9751 29.2536 4.09645 30.1136L5.91918 42.8746C6.06923 43.922 7.35399 44.3538 8.10707 43.6035L10.8262 40.8856C14.2238 42.9262 18.0973 44 22.0942 44C34.0218 44 43.6432 34.6656 43.9994 22.7494C44.0183 22.0935 43.5425 21.527 42.8928 21.4338Z" fill="#28C0C0"/>
</svg>
