<svg width="44" height="44" viewBox="0 0 44 44" fill="none" xmlns="http://www.w3.org/2000/svg">
<rect width="44" height="44" rx="22" fill="#F2F5F7"/>
<path fill-rule="evenodd" clip-rule="evenodd" d="M20.73 12.55C19.673 12.55 18.9015 13.298 18.9015 14.1246C18.9015 14.9515 19.6733 15.7 20.73 15.7H23.2697C24.3264 15.7 25.0983 14.9515 25.0983 14.1246C25.0983 13.298 24.3268 12.55 23.2697 12.55H20.73ZM17.5652 13.4496C17.9074 12.1344 19.228 11.2 20.73 11.2H23.2697C24.7717 11.2 26.0924 12.1344 26.4346 13.4496H28.3491C29.1961 13.4496 30.0173 13.7472 30.6301 14.2902C31.2446 14.8346 31.5999 15.5833 31.5999 16.3746V29.8749C31.5999 30.6663 31.2446 31.415 30.6301 31.9594C30.0173 32.5023 29.1961 32.7999 28.3491 32.7999H15.6507C14.8038 32.7999 13.9825 32.5023 13.3697 31.9594C12.7552 31.415 12.3999 30.6663 12.3999 29.8749V16.3746C12.3999 15.5833 12.7552 14.8346 13.3697 14.2902C13.9825 13.7472 14.8038 13.4496 15.6507 13.4496H17.5652ZM17.5652 14.7996H15.6507C15.1505 14.7996 14.6798 14.9761 14.3401 15.2771C14.002 15.5766 13.8221 15.9725 13.8221 16.3746V29.8749C13.8221 30.277 14.002 30.6729 14.3401 30.9725C14.6798 31.2735 15.1505 31.4499 15.6507 31.4499H28.3491C28.8493 31.4499 29.32 31.2735 29.6597 30.9725C29.9978 30.6729 30.1777 30.277 30.1777 29.8749V16.3746C30.1777 15.9725 29.9978 15.5766 29.6597 15.2771C29.32 14.9761 28.8493 14.7996 28.3491 14.7996H26.4346C26.0925 16.1148 24.7719 17.05 23.2697 17.05H20.73C19.2277 17.05 17.9073 16.1148 17.5652 14.7996ZM17.7586 22.0001C17.7586 21.6274 18.077 21.3251 18.4697 21.3251H25.8094C26.2021 21.3251 26.5205 21.6274 26.5205 22.0001C26.5205 22.3729 26.2021 22.6751 25.8094 22.6751H18.4697C18.077 22.6751 17.7586 22.3729 17.7586 22.0001ZM17.7586 26.5002C17.7586 26.1274 18.077 25.8252 18.4697 25.8252H25.8094C26.2021 25.8252 26.5205 26.1274 26.5205 26.5002C26.5205 26.873 26.2021 27.1752 25.8094 27.1752H18.4697C18.077 27.1752 17.7586 26.873 17.7586 26.5002Z" fill="#646464"/>
</svg>
