<svg width="14" height="16" viewBox="0 0 14 16" fill="none" xmlns="http://www.w3.org/2000/svg">
  <path
    d="M7 1.44397C8.42746 1.44397 9.58334 2.59985 9.58334 4.0273C9.58334 5.45476 8.42746 6.61064 7 6.61064C5.57255 6.61064 4.41667 5.45476 4.41667 4.0273C4.41667 2.59985 5.57255 1.44397 7 1.44397ZM11.8969 14.2773H11.8886H11.8803H11.872H11.8637H11.8553H11.847H11.8386H11.8303H11.8219H11.8135H11.8051H11.7966H11.7882H11.7797H11.7713H11.7628H11.7543H11.7458H11.7373H11.7288H11.7202H11.7117H11.7031H11.6946H11.686H11.6774H11.6688H11.6602H11.6515H11.6429H11.6342H11.6256H11.6169H11.6082H11.5995H11.5908H11.5821H11.5733H11.5646H11.5558H11.547H11.5383H11.5295H11.5207H11.5119H11.503H11.4942H11.4854H11.4765H11.4676H11.4587H11.4499H11.441H11.432H11.4231H11.4142H11.4053H11.3963H11.3873H11.3784H11.3694H11.3604H11.3514H11.3424H11.3334H11.3243H11.3153H11.3062H11.2972H11.2881H11.279H11.2699H11.2608H11.2517H11.2426H11.2334H11.2243H11.2152H11.206H11.1968H11.1876H11.1785H11.1693H11.1601H11.1508H11.1416H11.1324H11.1231H11.1139H11.1046H11.0954H11.0861H11.0768H11.0675H11.0582H11.0489H11.0396H11.0302H11.0209H11.0116H11.0022H10.9928H10.9835H10.9741H10.9647H10.9553H10.9459H10.9365H10.9271H10.9177H10.9082H10.8988H10.8893H10.8799H10.8704H10.8609H10.8514H10.842H10.8325H10.823H10.8134H10.8039H10.7944H10.7849H10.7753H10.7658H10.7562H10.7467H10.7371H10.7275H10.7179H10.7083H10.6987H10.6891H10.6795H10.6699H10.6603H10.6507H10.641H10.6314H10.6217H10.6121H10.6024H10.5927H10.5831H10.5734H10.5637H10.554H10.5443H10.5346H10.5249H10.5152H10.5054H10.4957H10.486H10.4762H10.4665H10.4567H10.447H10.4372H10.4274H10.4177H10.4079H10.3981H10.3883H10.3785H10.3687H10.3589H10.3491H10.3393H10.3295H10.3196H10.3098H10.3H10.2901H10.2803H10.2704H10.2606H10.2507H10.2408H10.231H10.2211H10.2112H10.2013H10.1914H10.1815H10.1717H10.1618H10.1518H10.1419H10.132H10.1221H10.1122H10.1023H10.0923H10.0824H10.0725H10.0625H10.0526H10.0426H10.0327H10.0227H10.0128H10.0028H9.99283H9.98286H9.97289H9.96291H9.95293H9.94295H9.93297H9.92298H9.91299H9.90299H9.89299H9.88299H9.87299H9.86298H9.85297H9.84296H9.83295H9.82293H9.81291H9.80289H9.79286H9.78283H9.7728H9.76277H9.75274H9.7427H9.73266H9.72262H9.71258H9.70253H9.69248H9.68243H9.67238H9.66233H9.65227H9.64222H9.63216H9.6221H9.61204H9.60197H9.59191H9.58184H9.57177H9.5617H9.55163H9.54156H9.53149H9.52141H9.51133H9.50126H9.49118H9.4811H9.47102H9.46094H9.45086H9.44077H9.43069H9.4206H9.41052H9.40043H9.39035H9.38026H9.37017H9.36008H9.34999H9.33991H9.32982H9.31973H9.30964H9.29955H9.28946H9.27937H9.26928H9.25919H9.24909H9.23901H9.22892H9.21883H9.20874H9.19865H9.18856H9.17847H9.16838H9.15829H9.1482H9.13812H9.12803H9.11795H9.10786H9.09778H9.08769H9.07761H9.06753H9.05745H9.04737H9.03729H9.02722H9.01714H9.00706H8.99699H8.98692H8.97685H8.96678H8.95671H8.94664H8.93657H8.92651H8.91645H8.90639H8.89633H8.88627H8.87621H8.86616H8.85611H8.84606H8.83601H8.82597H8.81592H8.80588H8.79584H8.7858H8.77577H8.76574H8.7557H8.74568H8.73565H8.72563H8.71561H8.70559H8.69557H8.68556H8.67555H8.66554H8.65554H8.64554H8.63554H8.62555H8.61555H8.60556H8.59558H8.58559H8.57561H8.56564H8.55566H8.54569H8.53573H8.52576H8.5158H8.50585H8.4959H8.48595H8.476H8.46606H8.45612H8.44619H8.43626H8.42633H8.41641H8.40649H8.39658H8.38667H8.37676H8.36686H8.35696H8.34707H8.33718H8.32729H8.31741H8.30754H8.29767H8.2878H8.27794H8.26808H8.25823H8.24838H8.23854H8.2287H8.21887H8.20904H8.19922H8.1894H8.17959H8.16978H8.15997H8.15018H8.14039H8.1306H8.12082H8.11104H8.10127H8.09151H8.08175H8.07199H8.06224H8.0525H8.04276H8.03303H8.02331H8.01359H8.00388H7.99417H7.98447H7.97477H7.96508H7.9554H7.94572H7.93605H7.92639H7.91673H7.90708H7.89743H7.8878H7.87816H7.86854H7.85892H7.84931H7.8397H7.83011H7.82051H7.81093H7.80135H7.79178H7.78222H7.77266H7.76311H7.75357H7.74403H7.73451H7.72499H7.71547H7.70597H7.69647H7.68698H7.6775H7.66802H7.65855H7.64909H7.63964H7.63019H7.62076H7.61133H7.60191H7.59249H7.58309H7.57369H7.5643H7.55492H7.54555H7.53619H7.52683H7.51748H7.50814H7.49881H7.48949H7.48018H7.47087H7.46157H7.45229H7.44301H7.43374H7.42448H7.41522H7.40598H7.39674H7.38752H7.3783H7.36909H7.3599H7.35071H7.34153H7.33236H7.32319H7.31404H7.3049H7.29577H7.28664H7.27753H7.26842H7.25933H7.25025H7.24117H7.2321H7.22305H7.214H7.20497H7.19594H7.18693H7.17792H7.16893H7.15994H7.15097H7.142H7.13305H7.1241H7.11517H7.10625H7.09733H7.08843H7.07954H7.07066H7.06179H7.05293H7.04408H7.03524H7.02642H7.0176H7.0088H7H6.99121H6.9824H6.97359H6.96476H6.95592H6.94707H6.93822H6.92935H6.92046H6.91157H6.90267H6.89376H6.88483H6.8759H6.86696H6.858H6.84904H6.84006H6.83107H6.82208H6.81307H6.80406H6.79503H6.786H6.77695H6.76789H6.75883H6.74975H6.74067H6.73157H6.72247H6.71335H6.70423H6.69509H6.68595H6.6768H6.66764H6.65847H6.64929H6.6401H6.6309H6.62169H6.61247H6.60325H6.59401H6.58477H6.57551H6.56625H6.55698H6.5477H6.53841H6.52912H6.51981H6.5105H6.50117H6.49184H6.4825H6.47315H6.4638H6.45443H6.44506H6.43568H6.42629H6.41689H6.40749H6.39807H6.38865H6.37922H6.36978H6.36034H6.35089H6.34143H6.33196H6.32248H6.313H6.30351H6.29401H6.2845H6.27499H6.26547H6.25594H6.2464H6.23686H6.22731H6.21775H6.20819H6.19862H6.18904H6.17946H6.16987H6.16027H6.15066H6.14105H6.13143H6.1218H6.11217H6.10253H6.09289H6.08324H6.07358H6.06391H6.05424H6.04457H6.03488H6.02519H6.0155H6.0058H5.99609H5.98637H5.97665H5.96693H5.9572H5.94746H5.93772H5.92797H5.91821H5.90845H5.89869H5.88892H5.87914H5.86936H5.85957H5.84978H5.83998H5.83018H5.82037H5.81056H5.80074H5.79091H5.78109H5.77125H5.76141H5.75157H5.74172H5.73187H5.72201H5.71215H5.70228H5.69241H5.68253H5.67265H5.66277H5.65288H5.64299H5.63309H5.62319H5.61328H5.60337H5.59345H5.58354H5.57361H5.56369H5.55376H5.54382H5.53388H5.52394H5.51399H5.50405H5.49409H5.48414H5.47418H5.46421H5.45424H5.44427H5.4343H5.42432H5.41434H5.40436H5.39437H5.38438H5.37439H5.36439H5.35439H5.34439H5.33439H5.32438H5.31437H5.30436H5.29434H5.28432H5.2743H5.26428H5.25425H5.24422H5.23419H5.22416H5.21412H5.20409H5.19405H5.184H5.17396H5.16391H5.15387H5.14382H5.13376H5.12371H5.11365H5.10359H5.09354H5.08347H5.07341H5.06335H5.05328H5.04321H5.03314H5.02307H5.013H5.00293H4.99285H4.98278H4.9727H4.96262H4.95255H4.94247H4.93238H4.9223H4.91222H4.90214H4.89205H4.88197H4.87188H4.86179H4.85171H4.84162H4.83153H4.82144H4.81135H4.80126H4.79117H4.78108H4.77099H4.7609H4.75081H4.74072H4.73063H4.72054H4.71045H4.70036H4.69027H4.68018H4.67009H4.66H4.64991H4.63982H4.62973H4.61964H4.60955H4.59947H4.58938H4.5793H4.56921H4.55913H4.54904H4.53896H4.52888H4.5188H4.50872H4.49864H4.48856H4.47848H4.46841H4.45833H4.44826H4.43819H4.42812H4.41805H4.40798H4.39792H4.38785H4.37779H4.36773H4.35767H4.34761H4.33756H4.32751H4.31745H4.3074H4.29736H4.28731H4.27727H4.26722H4.25718H4.24715H4.23711H4.22708H4.21705H4.20702H4.197H4.18697H4.17695H4.16693H4.15692H4.14691H4.1369H4.12689H4.11689H4.10688H4.09689H4.08689H4.0769H4.06691H4.05692H4.04694H4.03696H4.02698H4.01701H4.00704H3.99708H3.98711H3.97715H3.9672H3.95725H3.9473H3.93735H3.92741H3.91747H3.90754H3.89761H3.88768H3.87776H3.86784H3.85793H3.84802H3.83812H3.82821H3.81832H3.80842H3.79854H3.78865H3.77877H3.7689H3.75903H3.74916H3.7393H3.72944H3.71959H3.70974H3.6999H3.69006H3.68023H3.6704H3.66058H3.65076H3.64095H3.63114H3.62134H3.61155H3.60175H3.59197H3.58219H3.57241H3.56264H3.55288H3.54312H3.53337H3.52362H3.51388H3.50414H3.49441H3.48469H3.47497H3.46526H3.45555H3.44585H3.43615H3.42647H3.41678H3.40711H3.39744H3.38778H3.37812H3.36847H3.35883H3.34919H3.33956H3.32993H3.32032H3.3107H3.3011H3.2915H3.28191H3.27233H3.26275H3.25318H3.24362H3.23407H3.22452H3.21498H3.20544H3.19592H3.1864H3.17688H3.16738H3.15788H3.14839H3.13891H3.12944H3.11997H3.11051H3.10106H3.09162H3.08218H3.07275H3.06333H3.05392H3.04452H3.03512H3.02574H3.01636H3.00698H2.99762H2.98827H2.97892H2.96958H2.96025H2.95093H2.94162H2.93232H2.92302H2.91374H2.90446H2.89519H2.88593H2.87668H2.86744H2.8582H2.84898H2.83976H2.83056H2.82136H2.81217H2.80299H2.79382H2.78467H2.77551H2.76637H2.75724H2.74812H2.73901H2.72991H2.72081H2.71173H2.70266H2.69359H2.68454H2.67549H2.66646H2.65744H2.64842H2.63942H2.63043H2.62144H2.61247H2.60351H2.59455H2.58561H2.57668H2.56776H2.55885H2.54995H2.54106H2.53218H2.52331H2.51446H2.50561H2.49677H2.48795H2.47914H2.47033H2.46154H2.45276H2.44399H2.43523H2.42649H2.41775H2.40903H2.40031H2.39161H2.38292H2.37424H2.36558H2.35692H2.34828H2.33965H2.33102H2.32242H2.31382H2.30524H2.29666H2.2881H2.27955H2.27102H2.26249H2.25398H2.24548H2.23699H2.22852H2.22005H2.2116H2.20317H2.19474H2.18633H2.17793H2.16954H2.16116H2.1528H2.14445H2.13611H2.12779H2.11948H2.11118H2.1029C1.42231 14.2773 1.07065 13.8029 1.13534 13.3757C1.27527 12.4515 1.63291 11.3544 2.47188 10.4926C3.29308 9.64908 4.66026 8.94397 7 8.94397C9.33977 8.94397 10.7069 9.6491 11.5281 10.4926C12.367 11.3544 12.7246 12.4516 12.8645 13.3757C12.9291 13.8029 12.5775 14.2773 11.8969 14.2773Z"
    stroke="#767477" stroke-width="1.5" />
</svg>
