<svg width="20" height="20" viewBox="0 0 20 20" fill="none" xmlns="http://www.w3.org/2000/svg">
<path fill-rule="evenodd" clip-rule="evenodd" d="M7.26641 5.83372C7.26641 4.32415 8.49016 3.10039 9.99974 3.10039C11.5093 3.10039 12.7331 4.32415 12.7331 5.83372C12.7331 7.3433 11.5093 8.56706 9.99974 8.56706C8.49016 8.56706 7.26641 7.3433 7.26641 5.83372ZM9.99974 1.90039C7.82742 1.90039 6.06641 3.6614 6.06641 5.83372C6.06641 8.00604 7.82742 9.76706 9.99974 9.76706C12.1721 9.76706 13.9331 8.00604 13.9331 5.83372C13.9331 3.6614 12.1721 1.90039 9.99974 1.90039ZM6.66673 11.9004C5.62355 11.9004 4.62309 12.3148 3.88544 13.0524C3.1478 13.7901 2.7334 14.7905 2.7334 15.8337V17.5004C2.7334 17.8318 3.00203 18.1004 3.3334 18.1004C3.66477 18.1004 3.9334 17.8318 3.9334 17.5004V15.8337C3.9334 15.1088 4.22137 14.4136 4.73397 13.901C5.24657 13.3884 5.94181 13.1004 6.66673 13.1004H13.3334C14.0583 13.1004 14.7536 13.3884 15.2662 13.901C15.7788 14.4136 16.0667 15.1088 16.0667 15.8337V17.5004C16.0667 17.8318 16.3354 18.1004 16.6667 18.1004C16.9981 18.1004 17.2667 17.8318 17.2667 17.5004V15.8337C17.2667 14.7905 16.8523 13.7901 16.1147 13.0524C15.377 12.3148 14.3766 11.9004 13.3334 11.9004H6.66673Z" fill="#646464"/>
</svg>
