<svg width="20" height="20" viewBox="0 0 20 20" fill="none" xmlns="http://www.w3.org/2000/svg">
<path d="M10.0075 8.95833C8.05421 8.95833 6.46588 7.36917 6.46588 5.41667C6.46588 3.46417 8.05421 1.875 10.0075 1.875C11.9609 1.875 13.5492 3.46417 13.5492 5.41667C13.5492 7.36917 11.9609 8.95833 10.0075 8.95833ZM10.0075 3.125C8.74338 3.125 7.71588 4.1525 7.71588 5.41667C7.71588 6.68083 8.74338 7.70833 10.0075 7.70833C11.2717 7.70833 12.2992 6.68083 12.2992 5.41667C12.2992 4.1525 11.2709 3.125 10.0075 3.125ZM13.3308 18.125H6.66923C4.65256 18.125 3.54169 17.0209 3.54169 15.0159C3.54169 12.7984 4.79669 10.2083 8.33335 10.2083H11.6667C15.2034 10.2083 16.4584 12.7975 16.4584 15.0159C16.4584 17.0209 15.3475 18.125 13.3308 18.125ZM8.33335 11.4583C5.04752 11.4583 4.79169 14.1809 4.79169 15.0159C4.79169 16.3192 5.3534 16.875 6.66923 16.875H13.3308C14.6466 16.875 15.2084 16.3192 15.2084 15.0159C15.2084 14.1817 14.9525 11.4583 11.6667 11.4583H8.33335Z" fill="#61646C"/>
</svg>
