<svg width="20" height="20" viewBox="0 0 20 20" fill="none" xmlns="http://www.w3.org/2000/svg">
<path d="M12.961 18.125H7.04016C5.20266 18.125 4.19012 17.1183 4.19012 15.2916C4.19012 13.2883 5.32351 10.9492 8.51935 10.9492H11.4818C14.6776 10.9492 15.811 13.2883 15.811 15.2916C15.811 17.1183 14.7985 18.125 12.961 18.125ZM8.51935 12.1992C5.66185 12.1992 5.44012 14.5658 5.44012 15.2916C5.44012 16.4166 5.90433 16.875 7.04016 16.875H12.961C14.0968 16.875 14.561 16.4158 14.561 15.2916C14.561 14.5658 14.3385 12.1992 11.4818 12.1992H8.51935ZM10.0069 9.80164C8.28104 9.80164 6.87679 8.39748 6.87679 6.67165C6.87679 4.94582 8.28104 3.54167 10.0069 3.54167C11.7327 3.54167 13.1377 4.94582 13.1377 6.67165C13.1377 8.39748 11.7327 9.80164 10.0069 9.80164ZM10.0069 4.79167C8.97021 4.79167 8.12679 5.63498 8.12679 6.67165C8.12679 7.70832 8.97021 8.55164 10.0069 8.55164C11.0435 8.55164 11.8877 7.70832 11.8877 6.67165C11.8877 5.63498 11.0435 4.79167 10.0069 4.79167ZM18.9585 10.5417C18.9585 8.89502 17.9377 7.23338 15.6585 7.23338H14.8501C14.5051 7.23338 14.2251 7.51338 14.2251 7.85838C14.2251 8.20338 14.5051 8.48338 14.8501 8.48338H15.6585C17.5094 8.48338 17.7085 9.92252 17.7085 10.5417C17.7085 11.2617 17.451 11.5166 16.7251 11.5166H16.4251C16.0801 11.5166 15.8001 11.7966 15.8001 12.1416C15.8001 12.4866 16.0801 12.7666 16.4251 12.7666H16.7251C18.1443 12.7666 18.9585 11.9559 18.9585 10.5417ZM15.0827 6.69586C16.2085 6.46919 17.0252 5.4642 17.0252 4.30837C17.0252 2.9667 15.9335 1.875 14.5918 1.875C13.9577 1.875 13.3676 2.10997 12.931 2.53581C12.6835 2.77664 12.6785 3.1725 12.9194 3.42C13.1594 3.6675 13.5568 3.67253 13.8035 3.4317C14.006 3.2342 14.286 3.12581 14.5918 3.12581C15.2443 3.12581 15.7752 3.65668 15.7752 4.30918C15.7752 4.87252 15.3793 5.3617 14.8352 5.4717C14.4968 5.54003 14.2776 5.86996 14.346 6.20829C14.406 6.50496 14.6668 6.71 14.9576 6.71C14.9993 6.70833 15.041 6.70419 15.0827 6.69586ZM4.19185 12.1416C4.19185 11.7966 3.91185 11.5166 3.56685 11.5166H3.27429C2.54846 11.5166 2.29102 11.2617 2.29102 10.5417C2.29102 9.92252 2.49015 8.48338 4.34098 8.48338H5.16597C5.51097 8.48338 5.79097 8.20338 5.79097 7.85838C5.79097 7.51338 5.51097 7.23338 5.16597 7.23338H4.34098C1.90515 7.23338 1.04102 9.01585 1.04102 10.5417C1.04102 11.9559 1.85513 12.7666 3.27429 12.7666H3.56685C3.91185 12.7666 4.19185 12.4866 4.19185 12.1416ZM5.67185 6.20666C5.74019 5.86833 5.52099 5.5383 5.18266 5.46997C4.63266 5.35914 4.23346 4.87079 4.23346 4.30745C4.23346 3.65495 4.7685 3.12419 5.42517 3.12419C5.72517 3.12419 6.00761 3.23502 6.22178 3.43669C6.47261 3.67419 6.86766 3.66249 7.10516 3.41166C7.34266 3.16083 7.33097 2.76505 7.08014 2.52838C6.63431 2.10671 6.04682 1.87419 5.42598 1.87419C4.08015 1.87419 2.98438 2.96579 2.98438 4.30745C2.98438 5.46245 3.80514 6.46671 4.93597 6.69505C4.97764 6.70338 5.01935 6.70746 5.06018 6.70746C5.35101 6.70829 5.61102 6.50333 5.67185 6.20666Z" fill="#61646C"/>
</svg>
