<svg width="20" height="20" viewBox="0 0 20 20" fill="none" xmlns="http://www.w3.org/2000/svg">
<path fill-rule="evenodd" clip-rule="evenodd" d="M13.7518 19.0121C16.0446 19.0121 17.9033 17.1534 17.9033 14.8606C17.9033 12.5678 16.0446 10.7091 13.7518 10.7091C11.459 10.7091 9.60034 12.5678 9.60034 14.8606C9.60034 17.1534 11.459 19.0121 13.7518 19.0121ZM15.6236 13.6769C15.8137 13.4869 15.8137 13.1788 15.6236 12.9888C15.4337 12.7988 15.1256 12.7988 14.9356 12.9888L13.7408 14.1836L12.5904 13.0332C12.4086 12.8514 12.1138 12.8514 11.9319 13.0332C11.7501 13.215 11.7501 13.5098 11.9319 13.6917L13.0824 14.8421L11.8802 16.0443C11.6902 16.2343 11.6902 16.5423 11.8802 16.7323C12.0701 16.9223 12.3782 16.9223 12.5682 16.7323L13.7704 15.5301L14.9134 16.6731C15.0952 16.855 15.39 16.855 15.5719 16.6731C15.7537 16.4913 15.7537 16.1965 15.5719 16.0147L14.4288 14.8717L15.6236 13.6769Z" fill="#3D3D3D"/>
<path fill-rule="evenodd" clip-rule="evenodd" d="M9.06438 13.2347C8.97464 13.2339 8.88418 13.2335 8.79301 13.2335C7.01155 13.2335 5.49021 13.3802 4.44782 13.7493C3.93411 13.9311 3.61234 14.1413 3.42637 14.3451C3.26234 14.5248 3.16809 14.7354 3.16809 15.0471C3.16809 15.3604 3.26258 15.5736 3.42698 15.7554C3.61265 15.9606 3.93337 16.1724 4.44513 16.3561C5.48391 16.7289 7.00409 16.8806 8.79301 16.8806C8.92656 16.8806 9.05864 16.8798 9.18917 16.8781C9.35976 17.2588 9.57816 17.6134 9.83673 17.9343C9.49548 17.9465 9.14677 17.952 8.79301 17.952C5.162 17.952 2.09668 17.3536 2.09668 15.0471C2.09668 12.7396 5.18076 12.1621 8.79301 12.1621C9.06997 12.1621 9.34363 12.1655 9.61289 12.173C9.38861 12.5002 9.20351 12.8563 9.06438 13.2347ZM8.79301 2.05936C10.6477 2.05936 12.1525 3.56361 12.1525 5.47613C12.1525 7.38866 10.6477 8.89291 8.79301 8.89291C6.93828 8.89291 5.43357 7.38866 5.43357 5.47613C5.43357 3.56361 6.93828 2.05936 8.79301 2.05936ZM8.79301 0.987946C11.2524 0.987946 13.2239 2.98491 13.2239 5.47613C13.2239 7.96736 11.2524 9.96432 8.79301 9.96432C6.33361 9.96432 4.36216 7.96736 4.36216 5.47613C4.36216 2.98491 6.33361 0.987946 8.79301 0.987946Z" fill="#3D3D3D"/>
</svg>
