<svg width="16" height="16" viewBox="0 0 16 16" fill="none" xmlns="http://www.w3.org/2000/svg">
<path fill-rule="evenodd" clip-rule="evenodd" d="M7.99978 1.5199C6.26192 1.5199 4.85311 2.92871 4.85311 4.66656C4.85311 6.40442 6.26192 7.81323 7.99978 7.81323C9.73764 7.81323 11.1464 6.40442 11.1464 4.66656C11.1464 2.92871 9.73764 1.5199 7.99978 1.5199ZM5.81311 4.66656C5.81311 3.4589 6.79212 2.4799 7.99978 2.4799C9.20744 2.4799 10.1864 3.4589 10.1864 4.66656C10.1864 5.87423 9.20744 6.85323 7.99978 6.85323C6.79212 6.85323 5.81311 5.87423 5.81311 4.66656Z" fill="#999999"/>
<path d="M5.33337 9.5199C4.49883 9.5199 3.69846 9.85142 3.10834 10.4415C2.51823 11.0316 2.18671 11.832 2.18671 12.6666V13.9999C2.18671 14.265 2.40161 14.4799 2.66671 14.4799C2.9318 14.4799 3.14671 14.265 3.14671 13.9999V12.6666C3.14671 12.0866 3.37709 11.5304 3.78717 11.1204C4.19725 10.7103 4.75343 10.4799 5.33337 10.4799H10.6667C11.2466 10.4799 11.8028 10.7103 12.2129 11.1204C12.623 11.5304 12.8534 12.0866 12.8534 12.6666V13.9999C12.8534 14.265 13.0683 14.4799 13.3334 14.4799C13.5985 14.4799 13.8134 14.265 13.8134 13.9999V12.6666C13.8134 11.832 13.4818 11.0316 12.8917 10.4415C12.3016 9.85142 11.5013 9.5199 10.6667 9.5199H5.33337Z" fill="#999999"/>
</svg>
