<svg width="16" height="16" viewBox="0 0 16 16" fill="none" xmlns="http://www.w3.org/2000/svg">
<path fill-rule="evenodd" clip-rule="evenodd" d="M7.99972 1.51992C6.26186 1.51992 4.85305 2.92873 4.85305 4.66659C4.85305 6.40444 6.26186 7.81325 7.99972 7.81325C9.73757 7.81325 11.1464 6.40444 11.1464 4.66659C11.1464 2.92873 9.73757 1.51992 7.99972 1.51992ZM5.81305 4.66659C5.81305 3.45892 6.79206 2.47992 7.99972 2.47992C9.20738 2.47992 10.1864 3.45892 10.1864 4.66659C10.1864 5.87425 9.20738 6.85325 7.99972 6.85325C6.79206 6.85325 5.81305 5.87425 5.81305 4.66659Z" fill="#999999"/>
<path d="M5.33331 9.51992C4.49876 9.51992 3.6984 9.85144 3.10828 10.4416C2.51817 11.0317 2.18665 11.832 2.18665 12.6666V13.9999C2.18665 14.265 2.40155 14.4799 2.66665 14.4799C2.93174 14.4799 3.14665 14.265 3.14665 13.9999V12.6666C3.14665 12.0866 3.37703 11.5305 3.78711 11.1204C4.19718 10.7103 4.75337 10.4799 5.33331 10.4799H10.6666C11.2466 10.4799 11.8028 10.7103 12.2129 11.1204C12.6229 11.5305 12.8533 12.0866 12.8533 12.6666V13.9999C12.8533 14.265 13.0682 14.4799 13.3333 14.4799C13.5984 14.4799 13.8133 14.265 13.8133 13.9999V12.6666C13.8133 11.832 13.4818 11.0317 12.8917 10.4416C12.3016 9.85144 11.5012 9.51992 10.6666 9.51992H5.33331Z" fill="#999999"/>
</svg>
