<svg width="14" height="17" viewBox="0 0 14 17" fill="none" xmlns="http://www.w3.org/2000/svg">
<path fill-rule="evenodd" clip-rule="evenodd" d="M11.058 12.4187C10.0885 12.0708 8.66961 11.9294 6.99982 11.9294C5.3371 11.9294 3.91715 12.0663 2.94424 12.4108C2.46478 12.5805 2.16445 12.7767 1.99088 12.9669C1.83778 13.1347 1.74982 13.3312 1.74982 13.6221C1.74982 13.9146 1.83801 14.1135 1.99145 14.2832C2.16474 14.4748 2.46409 14.6724 2.94173 14.8438C3.91127 15.1918 5.33013 15.3334 6.99982 15.3334C8.66209 15.3334 10.0821 15.1964 11.0551 14.852C11.5346 14.6822 11.8351 14.486 12.0087 14.2958C12.1619 14.128 12.2498 13.9315 12.2498 13.6407C12.2498 13.3479 12.1616 13.1488 12.0081 12.9792C11.8349 12.7876 11.5356 12.59 11.058 12.4187ZM10.1353 4.68909C10.1353 2.90404 8.73093 1.50005 6.99982 1.50005C5.26871 1.50005 3.86429 2.90404 3.86429 4.68909C3.86429 6.47414 5.26871 7.87812 6.99982 7.87812C8.73093 7.87812 10.1353 6.47414 10.1353 4.68909ZM13.2498 13.6407C13.2498 11.487 10.3888 10.9294 6.99982 10.9294C3.62834 10.9294 0.749817 11.4684 0.749817 13.6221C0.749817 15.7749 3.61082 16.3334 6.99982 16.3334C10.3705 16.3334 13.2498 15.7943 13.2498 13.6407ZM11.1353 4.68909C11.1353 2.36391 9.29529 0.500053 6.99982 0.500053C4.70434 0.500053 2.86429 2.36391 2.86429 4.68909C2.86429 7.01426 4.70434 8.87812 6.99982 8.87812C9.29529 8.87812 11.1353 7.01426 11.1353 4.68909Z" fill="#3D3D3D"/>
</svg>
