<svg width="14" height="14" viewBox="0 0 14 14" fill="none" xmlns="http://www.w3.org/2000/svg">
<path fill-rule="evenodd" clip-rule="evenodd" d="M6.99952 1.32959C5.4789 1.32959 4.24619 2.5623 4.24619 4.08292C4.24619 5.60355 5.4789 6.83626 6.99952 6.83626C8.52015 6.83626 9.75286 5.60355 9.75286 4.08292C9.75286 2.5623 8.52015 1.32959 6.99952 1.32959ZM5.08619 4.08292C5.08619 3.02622 5.94282 2.16959 6.99952 2.16959C8.05623 2.16959 8.91286 3.02622 8.91286 4.08292C8.91286 5.13963 8.05623 5.99626 6.99952 5.99626C5.94282 5.99626 5.08619 5.13963 5.08619 4.08292Z" fill="#202020"/>
<path d="M4.66642 8.32959C3.93619 8.32959 3.23587 8.61967 2.71952 9.13602C2.20317 9.65237 1.91309 10.3527 1.91309 11.0829V12.2496C1.91309 12.4815 2.10113 12.6696 2.33309 12.6696C2.56505 12.6696 2.75309 12.4815 2.75309 12.2496V11.0829C2.75309 10.5755 2.95467 10.0888 3.31349 9.72999C3.67231 9.37117 4.15897 9.16959 4.66642 9.16959H9.33309C9.84053 9.16959 10.3272 9.37117 10.686 9.72999C11.0448 10.0888 11.2464 10.5755 11.2464 11.0829V12.2496C11.2464 12.4815 11.4345 12.6696 11.6664 12.6696C11.8984 12.6696 12.0864 12.4815 12.0864 12.2496V11.0829C12.0864 10.3527 11.7963 9.65237 11.28 9.13602C10.7636 8.61967 10.0633 8.32959 9.33309 8.32959H4.66642Z" fill="#202020"/>
</svg>
