<svg width="24" height="24" viewBox="0 0 24 24" fill="none" xmlns="http://www.w3.org/2000/svg">
<path d="M20.208 8.14028L14.088 3.0093C12.879 1.9943 11.121 1.9943 9.91199 3.0093L3.79199 8.14028C2.83599 8.93328 2.25 9.52731 2.25 11.6493V17.9993C2.25 20.4173 3.582 21.7493 6 21.7493H18C20.418 21.7493 21.75 20.4173 21.75 17.9993V11.6493C21.75 9.52731 21.164 8.93328 20.208 8.14028ZM20.25 17.9993C20.25 19.5763 19.577 20.2493 18 20.2493H6C4.423 20.2493 3.75 19.5763 3.75 17.9993V11.6493C3.75 10.1233 4.00202 9.91433 4.74902 9.29433L10.875 4.15834C11.201 3.88534 11.601 3.74831 12 3.74831C12.399 3.74831 12.799 3.88534 13.125 4.15834L19.251 9.29433C19.998 9.91433 20.25 10.1233 20.25 11.6493V17.9993Z" fill="#51525C"/>
<path fill-rule="evenodd" clip-rule="evenodd" d="M13.5 10.5009L16.5303 13.4707C16.8232 13.7636 16.8232 14.2384 16.5303 14.5313L13.5 17.5007C13.2071 17.7936 12.7322 17.7936 12.4393 17.5007C12.1464 17.2078 12.1464 16.733 12.4393 16.4401L14.1893 14.751H8C7.58579 14.751 7.25 14.4152 7.25 14.001C7.25 13.5868 7.58579 13.251 8 13.251H14.1893L12.4393 11.5616C12.1464 11.2687 12.1464 10.7938 12.4393 10.5009C12.7322 10.208 13.2071 10.208 13.5 10.5009Z" fill="#51525C"/>
</svg>
