<svg width="32" height="32" viewBox="0 0 32 32" fill="none" xmlns="http://www.w3.org/2000/svg">
<path d="M26.944 10.8548L18.784 4.01354C17.172 2.6602 14.828 2.6602 13.216 4.01354L5.05599 10.8548C3.78132 11.9122 3 12.7042 3 15.5336V24.0002C3 27.2242 4.776 29.0002 8 29.0002H24C27.224 29.0002 29 27.2242 29 24.0002V15.5336C29 12.7042 28.2187 11.9122 26.944 10.8548ZM27 24.0002C27 26.1029 26.1027 27.0002 24 27.0002H8C5.89733 27.0002 5 26.1029 5 24.0002V15.5336C5 13.4989 5.33603 13.2202 6.33203 12.3936L14.5 5.5456C14.9347 5.1816 15.468 4.99889 16 4.99889C16.532 4.99889 17.0653 5.1816 17.5 5.5456L25.668 12.3936C26.664 13.2202 27 13.4989 27 15.5336V24.0002Z" fill="#61646C"/>
<path fill-rule="evenodd" clip-rule="evenodd" d="M18 14.0002L22.0405 17.9598C22.431 18.3504 22.431 18.9835 22.0405 19.3741L18 23.3333C17.6095 23.7238 16.9763 23.7238 16.5858 23.3333C16.1953 22.9427 16.1953 22.3096 16.5858 21.919L18.9191 19.6669H10.6667C10.1144 19.6669 9.66669 19.2192 9.66669 18.6669C9.66669 18.1147 10.1144 17.6669 10.6667 17.6669H18.9191L16.5858 15.4144C16.1953 15.0239 16.1953 14.3907 16.5858 14.0002C16.9763 13.6096 17.6095 13.6096 18 14.0002Z" fill="#61646C"/>
</svg>
