<svg width="16" height="16" viewBox="0 0 16 16" fill="none" xmlns="http://www.w3.org/2000/svg">
<path d="M14.1937 7.29595L13.3233 6.285C13.1568 6.09305 13.0224 5.73474 13.0224 5.4788V4.39107C13.0224 3.71284 12.4656 3.15618 11.7872 3.15618H10.6991C10.4495 3.15618 10.0847 3.02182 9.89265 2.85546L8.88139 1.98528C8.43977 1.60777 7.71652 1.60777 7.2685 1.98528L6.26361 2.86186C6.0716 3.02182 5.70678 3.15618 5.45716 3.15618H4.3499C3.67145 3.15618 3.11462 3.71284 3.11462 4.39107V5.4852C3.11462 5.73474 2.98021 6.09305 2.8202 6.285L1.95615 7.30235C1.58493 7.74384 1.58493 8.46046 1.95615 8.90195L2.8202 9.9193C2.98021 10.1112 3.11462 10.4696 3.11462 10.7191V11.8132C3.11462 12.4915 3.67145 13.0481 4.3499 13.0481H5.45716C5.70678 13.0481 6.0716 13.1825 6.26361 13.3488L7.2749 14.219C7.71652 14.5965 8.43977 14.5965 8.88779 14.219L9.89905 13.3488C10.0911 13.1825 10.4495 13.0481 10.7055 13.0481H11.7936C12.472 13.0481 13.0288 12.4915 13.0288 11.8132V10.7255C13.0288 10.476 13.1633 10.1112 13.3297 9.9193L14.2001 8.90835C14.5713 8.46686 14.5713 7.73744 14.1937 7.29595ZM10.7375 6.89285L7.64612 9.98328C7.55651 10.0729 7.43491 10.124 7.3069 10.124C7.17889 10.124 7.05728 10.0729 6.96768 9.98328L5.41876 8.43487C5.23315 8.24931 5.23315 7.94219 5.41876 7.75664C5.60437 7.57108 5.91159 7.57108 6.0972 7.75664L7.3069 8.96594L10.0591 6.21462C10.2447 6.02906 10.5519 6.02906 10.7375 6.21462C10.9231 6.40017 10.9231 6.70729 10.7375 6.89285Z" fill="#f1c012"/>
</svg>
