<svg width="16" height="16" viewBox="0 0 16 16" fill="none" xmlns="http://www.w3.org/2000/svg">
<path d="M7.99967 1.33301C4.31967 1.33301 1.33301 4.31967 1.33301 7.99967C1.33301 11.6797 4.31967 14.6663 7.99967 14.6663C11.6797 14.6663 14.6663 11.6797 14.6663 7.99967C14.6663 4.31967 11.6797 1.33301 7.99967 1.33301ZM10.6863 6.79968L7.573 9.90633C7.47966 10.0063 7.353 10.053 7.21967 10.053C7.093 10.053 6.96633 10.0063 6.86633 9.90633L5.31301 8.35303C5.11968 8.15969 5.11968 7.83965 5.31301 7.64632C5.50634 7.45299 5.82634 7.45299 6.01967 7.64632L7.21967 8.84635L9.97968 6.09302C10.173 5.89302 10.493 5.89302 10.6863 6.09302C10.8797 6.28635 10.8797 6.59968 10.6863 6.79968Z" fill="#099250"/>
</svg>
