<svg width="16" height="16" viewBox="0 0 16 16" fill="none" xmlns="http://www.w3.org/2000/svg">
<path d="M8.00086 5.3601C7.51485 5.3601 7.12086 4.96611 7.12086 4.4801C7.12086 3.99409 7.51485 3.6001 8.00086 3.6001C8.48687 3.6001 8.88086 3.99409 8.88086 4.4801C8.88086 4.96611 8.48687 5.3601 8.00086 5.3601Z" fill="currentColor"/>
<path d="M8.00086 8.8801C7.51485 8.8801 7.12086 8.48611 7.12086 8.0001C7.12086 7.51409 7.51485 7.1201 8.00086 7.1201C8.48687 7.1201 8.88086 7.51409 8.88086 8.0001C8.88086 8.48611 8.48687 8.8801 8.00086 8.8801Z" fill="currentColor"/>
<path d="M8.00086 12.4001C7.51485 12.4001 7.12086 12.0061 7.12086 11.5201C7.12086 11.0341 7.51485 10.6401 8.00086 10.6401C8.48687 10.6401 8.88086 11.0341 8.88086 11.5201C8.88086 12.0061 8.48687 12.4001 8.00086 12.4001Z" fill="currentColor"/>
</svg>
