<svg width="32" height="32" viewBox="0 0 32 32" fill="none" xmlns="http://www.w3.org/2000/svg">
<g clip-path="url(#clip0_16837_2180)">
<path d="M0.499756 16C0.499756 7.43959 7.43934 0.5 15.9998 0.5C24.5602 0.5 31.4998 7.43959 31.4998 16C31.4998 24.5604 24.5602 31.5 15.9998 31.5C7.43934 31.5 0.499756 24.5604 0.499756 16Z" stroke="#28ad99"/>
<path d="M17.0583 12H11.4118C10.6317 12 9.99976 12.6328 9.99976 13.412V19.0585C9.99976 19.8387 10.6325 20.4706 11.4118 20.4706H17.0583C17.8384 20.4706 18.4703 19.8378 18.4703 19.0585V18.989L20.9119 20.374C21.3883 20.644 21.9998 20.3171 21.9998 19.7728V13.4032C21.9998 12.8597 21.3883 12.5319 20.9119 12.8028L18.4703 14.1878V13.412C18.4703 12.6319 17.8376 12 17.0583 12Z" fill="#28ad99"/>
</g>
<defs>
<clipPath id="clip0_16837_2180">
<rect width="32" height="32" fill="white" transform="translate(-0.000244141)"/>
</clipPath>
</defs>
</svg>
