<svg width="20" height="20" viewBox="0 0 20 20" fill="none" xmlns="http://www.w3.org/2000/svg">
<g id="video 1">
<path id="Vector" d="M16.85 6.44662C16.6082 6.33652 16.3352 6.28467 16.0608 6.29675C15.7864 6.30883 15.5212 6.38437 15.2943 6.51511L12.4074 8.14978V6.85C12.4069 6.49208 12.2382 6.14894 11.9383 5.89585C11.6383 5.64277 11.2316 5.5004 10.8075 5.5H3.34094C2.91674 5.5004 2.51007 5.64277 2.21012 5.89585C1.91017 6.14894 1.74145 6.49208 1.74097 6.85V13.15C1.74145 13.5079 1.91017 13.8511 2.21012 14.1041C2.51007 14.3572 2.91674 14.4996 3.34094 14.5H10.8075C11.2316 14.4996 11.6383 14.3572 11.9383 14.1041C12.2382 13.8511 12.4069 13.5079 12.4074 13.15V11.8501L15.2948 13.4849C15.5212 13.6165 15.7864 13.6926 16.0609 13.7047C16.3355 13.7168 16.6086 13.6644 16.85 13.5534C17.1249 13.4246 17.353 13.2351 17.5099 13.0052C17.6668 12.7752 17.7466 12.5136 17.7407 12.2484V7.7518C17.7466 7.48652 17.6669 7.22487 17.51 6.99493C17.3531 6.76499 17.1249 6.57544 16.85 6.44662ZM11.3408 13.15C11.3406 13.2693 11.2844 13.3837 11.1844 13.468C11.0844 13.5524 10.9489 13.5999 10.8075 13.6H3.34094C3.19954 13.5999 3.06399 13.5524 2.96401 13.468C2.86403 13.3837 2.80778 13.2693 2.80761 13.15V6.85C2.80778 6.7307 2.86403 6.61632 2.96401 6.53196C3.06399 6.4476 3.19954 6.40014 3.34094 6.4H10.8075C10.9489 6.40014 11.0844 6.4476 11.1844 6.53196C11.2844 6.61632 11.3406 6.7307 11.3408 6.85V13.15ZM16.674 12.2482C16.6798 12.3504 16.6525 12.452 16.595 12.5421C16.5376 12.6322 16.4522 12.7075 16.3479 12.7598C16.277 12.7936 16.1961 12.8095 16.1148 12.8056C16.0335 12.8017 15.9552 12.7782 15.8893 12.7378L12.4074 10.7664V9.23356L15.8886 7.26256C15.955 7.22277 16.0333 7.1996 16.1145 7.19572C16.1958 7.19183 16.2767 7.20739 16.3479 7.2406C16.4521 7.29286 16.5375 7.36803 16.5949 7.45808C16.6524 7.54812 16.6797 7.64965 16.674 7.7518V12.2482Z" fill="#646464"/>
</g>
</svg>
