<svg width="25" height="24" viewBox="0 0 25 24" fill="none" xmlns="http://www.w3.org/2000/svg">
<rect x="0.640625" width="24" height="24" rx="12" fill="#E1F8F5"/>
<path d="M17.5693 6.95326C17.4782 6.86905 17.3409 6.80376 17.2169 6.80005H13.0848C12.8325 6.81357 12.5284 7.01901 12.518 7.30559C12.5076 7.58788 12.7758 7.84724 13.058 7.83801L15.9654 7.83802L12.2857 11.4882C12.0826 11.6913 12.0826 12.0205 12.2857 12.2236C12.4887 12.4267 12.818 12.4267 13.0211 12.2236L16.6713 8.65864V11.46C16.6715 11.7111 16.9213 12.0074 17.2037 12.0001C17.486 11.9928 17.7061 11.6849 17.7092 11.4332L17.7225 7.30565C17.7183 7.16724 17.6673 7.05088 17.5693 6.95326Z" fill="#28ad99"/>
<path fill-rule="evenodd" clip-rule="evenodd" d="M7.44043 7.66672C7.44043 7.18807 7.82845 6.80005 8.3071 6.80005H10.1822C10.4955 6.80005 10.7495 7.04949 10.7495 7.3572C10.7495 7.6649 10.4955 7.91434 10.1822 7.91434H8.57498V16.0858H16.7059V14.3215C16.7059 14.0138 16.9599 13.7643 17.2732 13.7643C17.5865 13.7643 17.8404 14.0138 17.8404 14.3215V16.3334C17.8404 16.812 17.4524 17.2001 16.9738 17.2001H8.3071C7.82845 17.2001 7.44043 16.812 7.44043 16.3334V7.66672Z" fill="#28ad99"/>
</svg>
