<svg width="37" height="36" viewBox="0 0 37 36" fill="none" xmlns="http://www.w3.org/2000/svg">
<rect x="0.19873" width="36" height="36" rx="4" fill="#28ad99"/>
<g clip-path="url(#clip0_6441_47069)">
<path fill-rule="evenodd" clip-rule="evenodd" d="M21.7291 7.70247C21.9632 7.70247 22.1877 7.79546 22.3532 7.96099C22.5188 8.12652 22.6118 8.35102 22.6118 8.58512V27.4149C22.6118 27.649 22.5188 27.8735 22.3532 28.039C22.1877 28.2046 21.9632 28.2976 21.7291 28.2976C21.495 28.2976 21.2705 28.2046 21.105 28.039C20.9395 27.8735 20.8465 27.649 20.8465 27.4149V8.58512C20.8465 8.35102 20.9395 8.12652 21.105 7.96099C21.2705 7.79546 21.495 7.70247 21.7291 7.70247ZM18.1985 11.2331C18.4326 11.2331 18.6571 11.326 18.8227 11.4916C18.9882 11.6571 19.0812 11.8816 19.0812 12.1157V23.8843C19.0812 24.1184 18.9882 24.3429 18.8227 24.5085C18.6571 24.674 18.4326 24.767 18.1985 24.767C17.9644 24.767 17.7399 24.674 17.5744 24.5085C17.4089 24.3429 17.3159 24.1184 17.3159 23.8843V12.1157C17.3159 11.8816 17.4089 11.6571 17.5744 11.4916C17.7399 11.326 17.9644 11.2331 18.1985 11.2331ZM11.1374 12.4099C11.3714 12.4099 11.596 12.5029 11.7615 12.6684C11.927 12.834 12.02 13.0585 12.02 13.2926V22.7075C12.02 22.9416 11.927 23.1661 11.7615 23.3316C11.596 23.4971 11.3714 23.5901 11.1374 23.5901C10.9033 23.5901 10.6788 23.4971 10.5132 23.3316C10.3477 23.1661 10.2547 22.9416 10.2547 22.7075V13.2926C10.2547 13.0585 10.3477 12.834 10.5132 12.6684C10.6788 12.5029 10.9033 12.4099 11.1374 12.4099ZM25.2597 13.5868C25.4938 13.5868 25.7183 13.6798 25.8838 13.8453C26.0494 14.0108 26.1424 14.2353 26.1424 14.4694V21.5306C26.1424 21.7647 26.0494 21.9892 25.8838 22.1547C25.7183 22.3203 25.4938 22.4132 25.2597 22.4132C25.0256 22.4132 24.8011 22.3203 24.6356 22.1547C24.4701 21.9892 24.3771 21.7647 24.3771 21.5306V14.4694C24.3771 14.2353 24.4701 14.0108 24.6356 13.8453C24.8011 13.6798 25.0256 13.5868 25.2597 13.5868ZM14.6679 14.7636C14.902 14.7636 15.1265 14.8566 15.2921 15.0222C15.4576 15.1877 15.5506 15.4122 15.5506 15.6463V20.3537C15.5506 20.5878 15.4576 20.8123 15.2921 20.9779C15.1265 21.1434 14.902 21.2364 14.6679 21.2364C14.4339 21.2364 14.2093 21.1434 14.0438 20.9779C13.8783 20.8123 13.7853 20.5878 13.7853 20.3537V15.6463C13.7853 15.4122 13.8783 15.1877 14.0438 15.0222C14.2093 14.8566 14.4339 14.7636 14.6679 14.7636ZM7.60677 15.9405C7.84086 15.9405 8.06537 16.0335 8.23089 16.199C8.39642 16.3646 8.48942 16.5891 8.48942 16.8232V19.1769C8.48942 19.411 8.39642 19.6355 8.23089 19.801C8.06537 19.9665 7.84086 20.0595 7.60677 20.0595C7.37268 20.0595 7.14817 19.9665 6.98264 19.801C6.81711 19.6355 6.72412 19.411 6.72412 19.1769V16.8232C6.72412 16.5891 6.81711 16.3646 6.98264 16.199C7.14817 16.0335 7.37268 15.9405 7.60677 15.9405ZM28.7903 15.9405C29.0244 15.9405 29.2489 16.0335 29.4144 16.199C29.58 16.3646 29.6729 16.5891 29.6729 16.8232V19.1769C29.6729 19.411 29.58 19.6355 29.4144 19.801C29.2489 19.9665 29.0244 20.0595 28.7903 20.0595C28.5562 20.0595 28.3317 19.9665 28.1662 19.801C28.0006 19.6355 27.9076 19.411 27.9076 19.1769V16.8232C27.9076 16.5891 28.0006 16.3646 28.1662 16.199C28.3317 16.0335 28.5562 15.9405 28.7903 15.9405Z" fill="white"/>
</g>
<defs>
<clipPath id="clip0_6441_47069">
<rect width="24" height="24" fill="white" transform="translate(6.19873 6)"/>
</clipPath>
</defs>
</svg>
