<svg width="20" height="20" viewBox="0 0 20 20" fill="none" xmlns="http://www.w3.org/2000/svg">
<path d="M9.43584 18.1259C8.97001 18.1259 8.51252 17.9618 8.13752 17.6443L5.06166 15.0383C4.87416 14.8791 4.635 14.7917 4.38834 14.7917H2.91586C1.88253 14.7917 1.04086 13.9509 1.04086 12.9167V7.08421C1.04086 6.05004 1.88253 5.20921 2.91586 5.20921H4.38834C4.635 5.20921 4.87414 5.12179 5.06247 4.96263L8.13834 2.35663C8.745 1.84246 9.56838 1.73173 10.2892 2.0659C11.01 2.40007 11.4575 3.10094 11.4575 3.89594V16.1066C11.4575 16.9016 11.01 17.6025 10.2892 17.9367C10.015 18.0633 9.72418 18.1259 9.43584 18.1259ZM2.91668 6.4584C2.57251 6.4584 2.29168 6.7384 2.29168 7.0834V12.9159C2.29168 13.2609 2.57251 13.5409 2.91668 13.5409H4.38915C4.93082 13.5409 5.45663 13.7333 5.86996 14.0841L8.94583 16.6901C9.17833 16.8876 9.48496 16.9308 9.7633 16.8008C10.0416 16.6716 10.2075 16.4117 10.2075 16.105V3.89431C10.2075 3.58764 10.0416 3.32747 9.7633 3.19831C9.4858 3.06914 9.17914 3.11085 8.94664 3.30919L5.86996 5.91498C5.45663 6.26498 4.93082 6.4584 4.38915 6.4584H2.91668ZM13.9725 13.9759C15.0383 12.9151 15.625 11.5026 15.625 10.0001C15.625 8.49756 15.0383 7.08507 13.9725 6.02423C13.7275 5.7809 13.3317 5.78086 13.0884 6.02586C12.8442 6.27003 12.8458 6.66672 13.09 6.91006C13.9183 7.73506 14.375 8.83338 14.375 10.0009C14.375 11.1684 13.9183 12.2667 13.09 13.0917C12.8458 13.335 12.8442 13.7309 13.0884 13.9759C13.2101 14.0984 13.3709 14.16 13.5309 14.16C13.6909 14.1583 13.85 14.0976 13.9725 13.9759ZM16.3309 16.3343C18.025 14.6443 18.9583 12.3942 18.9583 10.0001C18.9583 7.6059 18.025 5.35583 16.3309 3.66583C16.0859 3.42167 15.69 3.42248 15.4467 3.66665C15.2034 3.91082 15.2033 4.30668 15.4483 4.55084C16.9058 6.00418 17.7083 7.93923 17.7083 10.0001C17.7083 12.0609 16.9058 13.9951 15.4483 15.4493C15.2033 15.6934 15.2034 16.0893 15.4467 16.3335C15.5684 16.456 15.7292 16.5168 15.8892 16.5168C16.0492 16.5168 16.2084 16.456 16.3309 16.3343Z" fill="#61646C"/>
</svg>
