<svg width="21" height="20" viewBox="0 0 21 20" fill="none" xmlns="http://www.w3.org/2000/svg">
<g clip-path="url(#clip0_9994_3285)">
<path fill-rule="evenodd" clip-rule="evenodd" d="M4.22966 6.63706C5.31029 5.58871 6.54299 4.46186 7.54166 3.54727C8.84519 2.46293 10.7216 2.96643 10.7216 5.26813V15.1473C10.7216 16.9563 8.80967 17.5544 7.51163 16.431C6.45983 15.5207 5.18245 14.1464 4.17474 13.1262H1.01049C0.463669 13.1262 0.0203857 12.642 0.0203857 12.0447V7.71858C0.0203857 7.12127 0.463669 6.63706 1.01049 6.63706H4.22966ZM8.25413 4.39206C8.64519 4.06676 9.5406 4.14932 9.5406 5.06588V14.9059C9.5406 15.672 8.76186 15.9538 8.37246 15.6168C7.62375 15.0775 5.798 13.1422 5.01278 12.2812V7.39387C5.94662 6.50951 7.49462 5.04863 8.25413 4.39206ZM1.10759 12.0447V7.63295H3.93459V12.0447L1.10759 12.0447Z" fill="#646464"/>
<rect x="12.8375" y="6.86011" width="1.30737" height="6.37073" rx="0.653687" fill="#646464"/>
<rect x="18.5343" y="6.86011" width="1.30737" height="6.37073" rx="0.653687" fill="#646464"/>
<rect x="15.6859" y="4.28809" width="1.30737" height="11.0573" rx="0.653687" fill="#646464"/>
</g>
<defs>
<clipPath id="clip0_9994_3285">
<rect width="20" height="20" fill="white" transform="translate(0.0203857)"/>
</clipPath>
</defs>
</svg>
