<svg width="16" height="16" viewBox="0 0 16 16" fill="none" xmlns="http://www.w3.org/2000/svg">
<path fill-rule="evenodd" clip-rule="evenodd" d="M9.17191 2.97282C9.3105 3.03942 9.39863 3.17958 9.39863 3.33334V12.6667C9.39863 12.8204 9.3105 12.9606 9.17191 13.0272C9.03332 13.0938 8.86882 13.0751 8.74876 12.979L5.52499 10.4H2.99863C2.77772 10.4 2.59863 10.2209 2.59863 10V6C2.59863 5.77909 2.77772 5.6 2.99863 5.6H5.52499L8.74876 3.02099C8.86882 2.92494 9.03332 2.90621 9.17191 2.97282Z" fill="#646464"/>
<path fill-rule="evenodd" clip-rule="evenodd" d="M11.7425 5.35712C11.8987 5.20093 12.152 5.20097 12.3082 5.3572C13.0081 6.05731 13.4013 7.00672 13.4013 7.99667C13.4013 8.98662 13.0081 9.93603 12.3082 10.6361C12.152 10.7924 11.8987 10.7924 11.7425 10.6362C11.5863 10.48 11.5862 10.2268 11.7424 10.0705C12.2923 9.52046 12.6013 8.77449 12.6013 7.99667C12.6013 7.21886 12.2923 6.47289 11.7424 5.9228C11.5862 5.76657 11.5863 5.51331 11.7425 5.35712Z" fill="#646464"/>
</svg>
