<svg width="48" height="48" viewBox="0 0 48 48" fill="none" xmlns="http://www.w3.org/2000/svg">
<rect width="48" height="48" rx="24" fill="white"/>
<g clip-path="url(#clip0_8097_93069)">
<path d="M30.1356 18.1356C30.5261 18.5261 30.5261 19.1593 30.1356 19.5498L19.7327 29.9527C19.3422 30.3432 18.709 30.3432 18.3185 29.9527L17.5608 29.195C17.1703 28.8044 17.1703 28.1713 17.5608 27.7808L27.9637 17.3779C28.3542 16.9874 28.9874 16.9874 29.3779 17.3779L30.1356 18.1356ZM29.9254 27.6406C30.3159 28.0312 30.3159 28.6643 29.9254 29.0548L29.2611 29.7191C28.8706 30.1096 28.2374 30.1096 27.8469 29.7191L17.771 19.6432C17.3805 19.2527 17.3805 18.6195 17.771 18.229L18.4353 17.5647C18.8258 17.1742 19.459 17.1742 19.8495 17.5647L29.9254 27.6406Z" fill="#231F20"/>
<path d="M24.0003 43.6803C34.8693 43.6803 43.6803 34.8693 43.6803 24.0003C43.6803 13.1313 34.8693 4.32031 24.0003 4.32031C13.1313 4.32031 4.32031 13.1313 4.32031 24.0003C4.32031 34.8693 13.1313 43.6803 24.0003 43.6803Z" fill="#fa3939"/>
<path d="M22 15.1836C22 13.9776 22.9776 13 24.1836 13C25.3896 13 26.3671 13.9776 26.3671 15.1836V25.5381C26.3671 26.7441 25.3896 27.7217 24.1836 27.7217C22.9776 27.7217 22 26.7441 22 25.5381V15.1836Z" fill="white"/>
<path d="M22 32.9052C22 31.6993 22.9776 30.7217 24.1836 30.7217C25.3896 30.7217 26.3671 31.6993 26.3671 32.9052C26.3671 34.1112 25.3896 35.0888 24.1836 35.0888C22.9776 35.0888 22 34.1112 22 32.9052Z" fill="white"/>
</g>
<defs>
<clipPath id="clip0_8097_93069">
<rect width="48" height="48" fill="white"/>
</clipPath>
</defs>
</svg>
