<svg width="14" height="12" viewBox="0 0 14 12" fill="none" xmlns="http://www.w3.org/2000/svg">
<path d="M6.99961 8.37207C6.64176 8.37207 6.3418 8.67203 6.3418 9.02988C6.3418 9.38773 6.64176 9.68769 6.99961 9.68769C7.3443 9.68769 7.65741 9.38773 7.64163 9.04567C7.65741 8.6694 7.36008 8.37207 6.99961 8.37207Z" fill="#fa3939"/>
<path d="M13.0881 10.7033C13.5012 9.99023 13.5039 9.14034 13.0934 8.42991L8.97287 1.294C8.56503 0.575674 7.82828 0.149414 7.00208 0.149414C6.17587 0.149414 5.43912 0.578305 5.03128 1.29137L0.905503 8.43517C0.49503 9.1535 0.497662 10.0087 0.913397 10.7217C1.32387 11.4269 2.05798 11.8505 2.87893 11.8505H11.1094C11.933 11.8505 12.6724 11.4216 13.0881 10.7033ZM12.1935 10.1876C11.9646 10.5823 11.5594 10.8164 11.1068 10.8164H2.8763C2.42899 10.8164 2.02641 10.5875 1.80275 10.2007C1.57647 9.80868 1.57384 9.34032 1.80012 8.94563L5.9259 1.80446C6.14956 1.41241 6.5495 1.18086 7.00208 1.18086C7.45202 1.18086 7.8546 1.41504 8.07825 1.80709L12.2014 8.94827C12.4224 9.33243 12.4198 9.79552 12.1935 10.1876Z" fill="#fa3939"/>
<path d="M6.83595 3.75441C6.52284 3.84387 6.32812 4.12805 6.32812 4.47274C6.34391 4.68061 6.35707 4.8911 6.37286 5.09897C6.41759 5.89097 6.46232 6.66719 6.50705 7.45919C6.52284 7.72758 6.7307 7.92229 6.99909 7.92229C7.26748 7.92229 7.47797 7.71442 7.49113 7.4434C7.49113 7.28027 7.49113 7.13029 7.50692 6.96452C7.53586 6.45669 7.56744 5.94886 7.59638 5.44103C7.61217 5.11213 7.64111 4.78322 7.6569 4.45432C7.6569 4.33591 7.64111 4.23066 7.59638 4.12541C7.46219 3.83072 7.14907 3.68074 6.83595 3.75441Z" fill="#fa3939"/>
</svg>
