<svg width="24" height="24" viewBox="0 0 24 24" fill="none" xmlns="http://www.w3.org/2000/svg">
<g clip-path="url(#clip0_4790_27115)">
<path fill-rule="evenodd" clip-rule="evenodd" d="M4.46881 20H19.531C21.0717 20 22.0338 18.3312 21.2619 16.9979L13.7308 3.98963C12.9604 2.65906 11.0394 2.65906 10.2691 3.98963L2.73796 16.9979C1.96603 18.3312 2.92815 20 4.46881 20ZM13.2499 16.75C13.2499 17.4403 12.6903 18 11.9999 18C11.3096 18 10.7499 17.4403 10.7499 16.75C10.7499 16.0596 11.3096 15.5 11.9999 15.5C12.6903 15.5 13.2499 16.0596 13.2499 16.75ZM12.9999 8.99997C12.9999 8.44768 12.5522 7.99997 11.9999 7.99997C11.4476 7.99997 10.9999 8.44768 10.9999 8.99997V13C10.9999 13.5523 11.4476 14 11.9999 14C12.5522 14 12.9999 13.5523 12.9999 13V8.99997Z" fill="#f1c012"/>
</g>
<defs>
<clipPath id="clip0_4790_27115">
<rect width="24" height="24" fill="white"/>
</clipPath>
</defs>
</svg>
