<svg width="14px" height="14px" viewBox="0 0 14 14" version="1.1" xmlns="http://www.w3.org/2000/svg" xmlns:xlink="http://www.w3.org/1999/xlink">
  <g id="Lease-Summary" stroke="none" stroke-width="1" fill="none" fill-rule="evenodd">
    <g id="Lease-Summary-Tenant-1-Copy-3" transform="translate(-28.000000, -1018.000000)" fill="#F2F5F7" fill-rule="nonzero">
      <g id="Group-18" transform="translate(16.000000, 919.000000)">
        <g id="Group-9" transform="translate(12.000000, 96.000000)">
          <g id="icon_global" transform="translate(0.000000, 3.000000)">
            <path d="M7,0 C10.8659932,0 14,3.13400675 14,7 C14,7.79580939 13.8672007,8.56060184 13.6225538,9.27342558 C13.6104362,9.33678877 13.5885226,9.39661318 13.5590431,9.45178591 C12.5649692,12.1085464 10.0033709,14 7,14 C3.99587635,14 1.43374683,12.1075982 0.440670821,9.44985399 C0.412052769,9.39735992 0.390899227,9.34017314 0.377917415,9.27994765 C0.133540183,8.56486228 0,7.79802613 0,7 C0,3.13400675 3.13400675,0 7,0 Z M8.66968009,9.80412393 L5.33031991,9.80412393 C5.70801156,11.4277548 6.3763844,12.5008082 7,12.5008082 C7.6236156,12.5008082 8.29198844,11.4277548 8.66968009,9.80412393 Z M3.96603736,9.80380584 L2.06747342,9.80313862 C2.68760335,10.8919996 3.6578821,11.7555327 4.8250628,12.2404911 C4.45125019,11.580612 4.15933381,10.7478796 3.96603736,9.80380584 Z M11.9325266,9.80313862 L10.0339626,9.80380584 C9.84066619,10.7478796 9.54874981,11.580612 9.17517475,12.240031 C10.3421179,11.7555327 11.3123967,10.8919996 11.9325266,9.80313862 Z M3.76206454,5.57919082 L1.50696297,5.57929238 C1.3898704,6.03333046 1.32758621,6.5093916 1.32758621,7 C1.32758621,7.51035296 1.39498454,8.0049642 1.52136599,8.47541849 L3.76740112,8.47602874 C3.72043754,7.99981773 3.69612069,7.50577407 3.69612069,7 C3.69612069,6.51374703 3.71859668,6.03833645 3.76206454,5.57919082 Z M8.90093771,5.57868304 L5.09906229,5.57868304 C5.05038972,6.03088637 5.0237069,6.50709533 5.0237069,7 C5.0237069,7.51292664 5.05260148,8.00777366 5.10510212,8.47630366 L8.89489788,8.47630366 C8.94739852,8.00777366 8.9762931,7.51292664 8.9762931,7 C8.9762931,6.50709533 8.94961028,6.03088637 8.90093771,5.57868304 Z M12.493037,5.57929238 L10.2379355,5.57919082 C10.2814033,6.03833645 10.3038793,6.51374703 10.3038793,7 C10.3038793,7.50577407 10.2795625,7.99981773 10.2325989,8.47602874 L12.478634,8.47541849 C12.6050155,8.0049642 12.6724138,7.51035296 12.6724138,7 C12.6724138,6.5093916 12.6101296,6.03333046 12.493037,5.57929238 Z M4.82482525,1.75996904 L4.74480359,1.79358644 C3.59421364,2.29265596 2.64148221,3.1619652 2.0369184,4.25120505 L3.9549163,4.25117781 C4.14805588,3.28444465 4.44401421,2.4321606 4.82482525,1.75996904 Z M7,1.49919181 C6.36940142,1.49919181 5.69303766,2.59641091 5.31774205,4.25062455 L8.68225795,4.25062455 C8.30696234,2.59641091 7.63059858,1.49919181 7,1.49919181 Z M9.1749372,1.75950885 L9.2129833,1.82780605 C9.57560779,2.48912337 9.85838399,3.3166785 10.0450837,4.25117781 L11.9630816,4.25120505 C11.3445161,3.13673849 10.3614693,2.25250767 9.1749372,1.75950885 Z" id="Combined-Shape"></path>
          </g>
        </g>
      </g>
    </g>
  </g>
</svg>
