<svg width="24" height="24" viewBox="0 0 24 24" fill="none" xmlns="http://www.w3.org/2000/svg">
<path d="M4.00392 21.75C3.54692 21.75 3.10311 21.5699 2.76711 21.2339C2.29311 20.7609 2.13011 20.0739 2.34011 19.4418L3.18093 16.9407C3.27893 16.6337 3.27005 16.3257 3.15505 16.0827C2.56305 14.8096 2.25295 13.3996 2.25295 11.9995C2.25295 6.62424 6.62599 2.25 12.001 2.25C17.377 2.25 21.75 6.62324 21.75 11.9995C21.75 17.3758 17.377 21.749 12.001 21.749C10.602 21.749 9.19204 21.438 7.92604 20.849C7.67804 20.7299 7.36804 20.7219 7.05104 20.823L4.56203 21.659C4.37703 21.72 4.18892 21.75 4.00392 21.75ZM12 3.75008C7.45201 3.75008 3.75197 7.45028 3.75197 11.9995C3.75197 13.1826 4.01498 14.3736 4.51198 15.4437C4.78798 16.0247 4.82395 16.7237 4.60695 17.4068L3.76296 19.9179C3.72096 20.0429 3.78492 20.1319 3.82692 20.1739C3.86892 20.2159 3.959 20.2799 4.084 20.2379L6.58205 19.3989C7.27504 19.1779 7.97598 19.2119 8.56398 19.4929C9.62598 19.9869 10.817 20.2499 12 20.2499C16.549 20.2499 20.249 16.5497 20.249 12.0005C20.249 7.45126 16.549 3.75008 12 3.75008Z" fill="#61646C"/>
<path d="M9.19653 7.69729C9.35973 7.70387 9.54034 7.71685 9.71196 8.09707C9.91565 8.54848 10.3553 9.67761 10.4126 9.79176C10.4697 9.90607 10.5079 10.0393 10.4315 10.1917C10.3553 10.344 10.3226 10.4392 10.2083 10.5725C10.0937 10.7057 9.95445 10.8456 9.85161 10.9478C9.73672 11.0617 9.61737 11.1854 9.75107 11.4137C9.88478 11.6423 10.3573 12.414 11.0383 13.0194C11.9134 13.797 12.6437 14.0423 12.8727 14.1569C13.1018 14.2711 13.2355 14.2521 13.3691 14.0994C13.5028 13.9473 13.9526 13.4193 14.1054 13.191C14.2582 12.9624 14.4109 13.0004 14.6209 13.0765C14.8308 13.1526 15.9535 13.7145 16.1827 13.8286C16.4117 13.9428 16.5646 13.9999 16.6217 14.095C16.679 14.1905 16.679 14.6474 16.488 15.1804C16.2973 15.7136 15.3619 16.2279 14.9419 16.2657C14.522 16.3039 14.1282 16.4552 12.1932 15.6947C9.86507 14.7795 8.39492 12.4006 8.2803 12.2484L8.27779 12.2451C8.15437 12.0807 7.34498 11.0025 7.34498 9.88698C7.34498 8.76364 7.9368 8.21134 8.14675 7.98287C8.35654 7.75441 8.60471 7.69729 8.75751 7.69729H9.19653Z" fill="#61646C"/>
</svg>
