<svg width="16" height="16" viewBox="0 0 16 16" fill="none" xmlns="http://www.w3.org/2000/svg">
<g clip-path="url(#clip0_4339_37330)">
<path d="M11.5181 0.733437H4.48187C2.40787 0.733437 0.726562 2.41475 0.726562 4.48875V11.525C0.726562 13.599 2.40787 15.2803 4.48187 15.2803H11.5181C13.5921 15.2803 15.2734 13.599 15.2734 11.525V4.48875C15.2734 2.41475 13.5921 0.733437 11.5181 0.733437Z" fill="url(#paint0_linear_4339_37330)"/>
<path d="M7.99986 2.72281C7.09131 2.72297 6.19883 2.9624 5.4122 3.41702C4.62557 3.87164 3.97255 4.52541 3.51883 5.31256C3.06512 6.09972 2.82671 6.99248 2.82761 7.90103C2.8285 8.80958 3.06866 9.70187 3.52393 10.4881L2.8208 13.1797L5.55674 12.455C6.24996 12.8263 7.01872 13.0346 7.80456 13.0642C8.5904 13.0937 9.37263 12.9437 10.0918 12.6255C10.8109 12.3073 11.448 11.8293 11.9547 11.2279C12.4614 10.6265 12.8242 9.91744 13.0157 9.15472C13.2072 8.39199 13.2222 7.59564 13.0597 6.82623C12.8971 6.05682 12.5613 5.33459 12.0777 4.71447C11.5941 4.09435 10.9755 3.59266 10.2689 3.24754C9.56226 2.90242 8.78626 2.72296 7.99986 2.72281ZM11.0417 10.9375C10.3472 11.6316 9.43623 12.0675 8.45993 12.1727C7.48364 12.2779 6.50072 12.0462 5.67424 11.5159L4.08486 11.9375L4.49111 10.385C4.01652 9.71618 3.74298 8.92565 3.70271 8.10654C3.66245 7.28743 3.85714 6.47388 4.26385 5.76174C4.67055 5.0496 5.27233 4.46854 5.99828 4.08702C6.72423 3.7055 7.5441 3.53942 8.36129 3.60835C9.17848 3.67727 9.95895 3.97833 10.6107 4.47605C11.2625 4.97377 11.7585 5.64742 12.0402 6.41762C12.3218 7.18782 12.3775 8.02249 12.2006 8.82328C12.0237 9.62407 11.6216 10.3576 11.0417 10.9375Z" fill="white"/>
<path d="M10.5918 9.25C10.592 9.33505 10.5848 9.41996 10.5702 9.50375C10.5565 9.5887 10.5356 9.67233 10.5077 9.75375C10.4436 9.93469 10.0936 10.1562 10.0936 10.1562C9.84493 10.3218 9.54773 10.3989 9.2499 10.375C9.18006 10.3679 9.11068 10.3568 9.04209 10.3419C8.92584 10.3159 8.86927 10.2994 8.86927 10.2994C8.81302 10.2828 8.66709 10.2369 8.66709 10.2369C8.52115 10.1912 8.48834 10.1825 8.48834 10.1825C8.26667 10.1159 8.05184 10.0283 7.84677 9.92094C7.37396 9.66406 6.85896 9.20375 6.85896 9.20375C6.55405 8.93268 6.27837 8.6304 6.03646 8.30187C5.90778 8.10955 5.79691 7.90589 5.70521 7.69344C5.69271 7.66219 5.63115 7.52187 5.63115 7.52187C5.56865 7.38187 5.54677 7.32781 5.54677 7.32781C5.52427 7.27344 5.48427 7.16094 5.48427 7.16094C5.46145 7.09455 5.44277 7.02682 5.42834 6.95812C5.41684 6.89615 5.40912 6.83354 5.40521 6.77062C5.38709 6.44187 5.55052 6.09594 5.55052 6.09594C5.73021 5.72406 5.90459 5.63906 5.90459 5.63906C5.98258 5.60386 6.06299 5.57431 6.14521 5.55062C6.2266 5.52538 6.31038 5.50863 6.39521 5.50063C6.42061 5.49814 6.44625 5.50036 6.47084 5.50719C6.53646 5.525 6.67552 5.76812 6.67552 5.76812C6.71865 5.83375 6.79334 5.95562 6.79334 5.95562C6.86834 6.07687 6.93115 6.17437 6.93115 6.17437C6.99365 6.27281 7.0524 6.35906 7.0524 6.35906C7.06396 6.37281 7.1199 6.445 7.1199 6.445C7.15063 6.48384 7.17861 6.52477 7.20365 6.5675C7.22082 6.59844 7.23146 6.63259 7.2349 6.66781C7.23865 6.73937 7.14302 6.85219 7.14302 6.85219C7.07806 6.92687 7.00766 6.99664 6.9324 7.06094C6.8581 7.12394 6.78766 7.19135 6.72146 7.26281C6.62521 7.36844 6.62771 7.43281 6.62771 7.43281C6.63147 7.46015 6.63894 7.48686 6.6499 7.51219C6.67052 7.55937 6.68459 7.58375 6.68459 7.58375C6.69834 7.60781 6.73927 7.66656 6.73927 7.66656C6.78021 7.72531 6.78396 7.73219 6.78396 7.73219C6.97262 8.02704 7.19715 8.29734 7.4524 8.53687C7.82209 8.8675 8.3274 9.11156 8.3274 9.11156C8.3349 9.11469 8.39771 9.14875 8.39771 9.14875C8.46021 9.18312 8.48615 9.19406 8.48615 9.19406C8.51177 9.20531 8.56115 9.22031 8.56115 9.22031C8.58731 9.22922 8.61476 9.23376 8.6424 9.23375C8.70677 9.23031 8.80115 9.12281 8.80115 9.12281C8.86462 9.04896 8.92368 8.97143 8.97802 8.89062C9.03365 8.80885 9.09517 8.73125 9.16209 8.65844C9.26365 8.55062 9.33521 8.54656 9.33521 8.54656C9.37052 8.54626 9.40555 8.55284 9.43834 8.56594C9.48332 8.58655 9.52705 8.60982 9.56927 8.63562C9.6474 8.68312 9.66302 8.69312 9.66302 8.69312C9.75677 8.74187 9.86052 8.79312 9.86052 8.79312C9.96552 8.84469 10.0943 8.90562 10.0943 8.90562C10.223 8.96656 10.293 9.00187 10.293 9.00187C10.5502 9.11312 10.5743 9.17625 10.5743 9.17625C10.5837 9.19984 10.5896 9.22469 10.5918 9.25Z" fill="white"/>
</g>
<defs>
<linearGradient id="paint0_linear_4339_37330" x1="8" y1="15.2803" x2="8" y2="0.733437" gradientUnits="userSpaceOnUse">
<stop stop-color="#00D02D"/>
<stop offset="0.25" stop-color="#10D93A"/>
<stop offset="0.75" stop-color="#3AF15D"/>
<stop offset="1" stop-color="#51FE71"/>
</linearGradient>
<clipPath id="clip0_4339_37330">
<rect width="16" height="16" fill="white"/>
</clipPath>
</defs>
</svg>
