<svg width="24" height="24" viewBox="0 0 24 24" fill="none" xmlns="http://www.w3.org/2000/svg">
<g clip-path="url(#clip0_10334_7567)">
<g filter="url(#filter0_f_10334_7567)">
<path d="M6.68622 20.213L7.04575 20.426C8.55581 21.3222 10.2872 21.7963 12.0529 21.7971H12.0566C17.4789 21.7971 21.8918 17.3851 21.8941 11.9625C21.895 9.33474 20.8727 6.86366 19.0153 5.00485C18.1044 4.08814 17.0206 3.36122 15.8268 2.86618C14.633 2.37113 13.3528 2.1178 12.0604 2.12084C6.63394 2.12084 2.22088 6.53228 2.21895 11.9546C2.21628 13.8062 2.73769 15.6207 3.7229 17.1884L3.95696 17.5603L2.96296 21.1892L6.68622 20.213ZM0.121094 24.0005L1.80038 17.8692C0.764721 16.0749 0.219866 14.0393 0.220509 11.9538C0.223244 5.4297 5.53248 0.12207 12.0567 0.12207C15.2228 0.123679 18.1944 1.35576 20.4294 3.59228C22.6643 5.82881 23.894 8.80162 23.8928 11.9633C23.8899 18.4869 18.5799 23.7955 12.0566 23.7955H12.0514C10.0707 23.7947 8.12436 23.2978 6.39553 22.3551L0.121094 24.0005Z" fill="#E9E9E9"/>
</g>
<path d="M0 23.8784L1.67929 17.7471C0.641844 15.9485 0.0969093 13.9081 0.0994155 11.8317C0.10215 5.30763 5.41139 0 11.9357 0C15.1017 0.00160867 18.0734 1.23369 20.3083 3.47021C22.5432 5.70674 23.7729 8.67955 23.7717 11.8412C23.7688 18.3648 18.4588 23.6734 11.9355 23.6734H11.9303C9.94959 23.6726 8.00327 23.1757 6.27444 22.233L0 23.8784Z" fill="white"/>
<path d="M11.9392 1.99905C6.51265 1.99905 2.0996 6.41049 2.09767 11.8328C2.09499 13.6844 2.6164 15.4989 3.60161 17.0666L3.83567 17.4387L2.84167 21.0675L6.56509 20.0912L6.92463 20.3042C8.43468 21.2004 10.1661 21.6743 11.9318 21.6753H11.9355C17.3578 21.6753 21.7708 17.2634 21.7729 11.8407C21.777 10.5482 21.5247 9.26779 21.0306 8.07351C20.5364 6.87922 19.8103 5.79481 18.8942 4.88307C17.9832 3.96633 16.8994 3.2394 15.7056 2.74436C14.5117 2.24932 13.2316 1.99599 11.9392 1.99905Z" fill="url(#paint0_linear_10334_7567)"/>
<path fill-rule="evenodd" clip-rule="evenodd" d="M8.97704 6.88502C8.75537 6.3926 8.52211 6.38263 8.31154 6.3741L7.74464 6.36719C7.54742 6.36719 7.22697 6.44119 6.95607 6.73718C6.68518 7.03317 5.9209 7.74855 5.9209 9.20359C5.9209 10.6586 6.98069 12.0646 7.12836 12.2621C7.27604 12.4597 9.17426 15.5408 12.1804 16.7262C14.6785 17.7113 15.1868 17.5154 15.7293 17.4662C16.2717 17.4169 17.479 16.7508 17.7253 16.0602C17.9716 15.3696 17.9717 14.7779 17.8979 14.6542C17.8241 14.5305 17.6268 14.457 17.3308 14.309C17.0348 14.161 15.5811 13.4456 15.31 13.3469C15.039 13.2481 14.8419 13.199 14.6445 13.495C14.4471 13.791 13.8811 14.4568 13.7084 14.6542C13.5358 14.8516 13.3635 14.8764 13.0676 14.7285C12.7716 14.5807 11.8192 14.2683 10.6893 13.2608C9.81017 12.4769 9.21673 11.5088 9.04396 11.213C8.87119 10.9171 9.02562 10.7569 9.17394 10.6096C9.30666 10.477 9.46961 10.2642 9.61777 10.0916C9.76593 9.91896 9.81467 9.79557 9.91312 9.59851C10.0116 9.40145 9.96251 9.22836 9.88851 9.08052C9.81451 8.93269 9.2399 7.46993 8.97704 6.88502Z" fill="white"/>
</g>
<defs>
<filter id="filter0_f_10334_7567" x="-6.94091" y="-6.93993" width="37.8955" height="38.0019" filterUnits="userSpaceOnUse" color-interpolation-filters="sRGB">
<feFlood flood-opacity="0" result="BackgroundImageFix"/>
<feBlend mode="normal" in="SourceGraphic" in2="BackgroundImageFix" result="shape"/>
<feGaussianBlur stdDeviation="3.531" result="effect1_foregroundBlur_10334_7567"/>
</filter>
<linearGradient id="paint0_linear_10334_7567" x1="11.735" y1="3.17981" x2="11.8348" y2="19.9944" gradientUnits="userSpaceOnUse">
<stop stop-color="#57D163"/>
<stop offset="1" stop-color="#23B33A"/>
</linearGradient>
<clipPath id="clip0_10334_7567">
<rect width="23.8932" height="24" fill="white"/>
</clipPath>
</defs>
</svg>
