<svg width="15" height="15" viewBox="0 0 15 15" fill="none" xmlns="http://www.w3.org/2000/svg">
<g clip-path="url(#clip0_1665_570583)">
<path d="M10.8962 1.14185H4.73951C2.92476 1.14185 1.45361 2.61299 1.45361 4.42774V10.5845C1.45361 12.3992 2.92476 13.8704 4.73951 13.8704H10.8962C12.711 13.8704 14.1821 12.3992 14.1821 10.5845V4.42774C14.1821 2.61299 12.711 1.14185 10.8962 1.14185Z" fill="url(#paint0_linear_1665_570583)"/>
<path d="M7.81781 2.88257C7.02283 2.8827 6.2419 3.0922 5.55361 3.49C4.86531 3.88779 4.29391 4.45984 3.89691 5.1486C3.49991 5.83736 3.29131 6.61853 3.29209 7.41351C3.29287 8.20849 3.50301 8.98924 3.90137 9.67722L3.28613 12.0323L5.68008 11.3982C6.28665 11.7231 6.95931 11.9054 7.64692 11.9312C8.33453 11.9571 9.01898 11.8258 9.64823 11.5474C10.2775 11.269 10.835 10.8508 11.2783 10.3245C11.7216 9.79827 12.0391 9.17787 12.2067 8.51048C12.3742 7.8431 12.3874 7.1463 12.2452 6.47306C12.1029 5.79982 11.8091 5.16788 11.3859 4.62527C10.9628 4.08266 10.4215 3.64368 9.8032 3.3417C9.18491 3.03973 8.50591 2.8827 7.81781 2.88257ZM10.4795 10.0704C9.87174 10.6778 9.07463 11.0592 8.22037 11.1512C7.36612 11.2433 6.50606 11.0405 5.78289 10.5766L4.39219 10.9454L4.74766 9.58698C4.33239 9.00177 4.09304 8.31005 4.05781 7.59333C4.02258 6.87661 4.19293 6.16476 4.5488 5.54163C4.90467 4.91851 5.43122 4.41008 6.06643 4.07625C6.70163 3.74242 7.41902 3.5971 8.13406 3.65741C8.84911 3.71772 9.53202 3.98115 10.1023 4.41665C10.6726 4.85216 11.1066 5.4416 11.3531 6.11553C11.5995 6.78945 11.6483 7.51979 11.4935 8.22048C11.3387 8.92117 10.9869 9.56302 10.4795 10.0704Z" fill="white"/>
<path d="M10.0859 8.59382C10.0861 8.66824 10.0798 8.74254 10.067 8.81585C10.055 8.89018 10.0367 8.96336 10.0123 9.0346C9.95625 9.19292 9.65 9.38679 9.65 9.38679C9.43236 9.53165 9.17232 9.59907 8.91172 9.5782C8.85061 9.57196 8.7899 9.56228 8.72988 9.54921C8.62816 9.52652 8.57867 9.51203 8.57867 9.51203C8.52945 9.49753 8.40176 9.45734 8.40176 9.45734C8.27406 9.41742 8.24535 9.40976 8.24535 9.40976C8.05139 9.35146 7.86342 9.27482 7.68398 9.18089C7.27027 8.95613 6.81965 8.55335 6.81965 8.55335C6.55285 8.31617 6.31163 8.05168 6.09996 7.76421C5.98737 7.59593 5.89035 7.41773 5.81011 7.23183C5.79918 7.20449 5.74531 7.08171 5.74531 7.08171C5.69062 6.95921 5.67148 6.91191 5.67148 6.91191C5.65179 6.86433 5.61679 6.76589 5.61679 6.76589C5.59683 6.70781 5.58048 6.64854 5.56785 6.58843C5.55779 6.53421 5.55103 6.47942 5.54761 6.42437C5.53176 6.13671 5.67476 5.83402 5.67476 5.83402C5.83199 5.50863 5.98457 5.43425 5.98457 5.43425C6.05281 5.40345 6.12317 5.37759 6.19511 5.35687C6.26633 5.33478 6.33963 5.32012 6.41386 5.31312C6.43609 5.31094 6.45852 5.31289 6.48004 5.31886C6.53746 5.33445 6.65914 5.54718 6.65914 5.54718C6.69687 5.6046 6.76222 5.71124 6.76222 5.71124C6.82785 5.81734 6.88281 5.90265 6.88281 5.90265C6.9375 5.98878 6.9889 6.06425 6.9889 6.06425C6.99902 6.07628 7.04797 6.13945 7.04797 6.13945C7.07485 6.17343 7.09934 6.20925 7.12125 6.24664C7.13628 6.27371 7.14558 6.30359 7.14859 6.33441C7.15187 6.39703 7.0682 6.49574 7.0682 6.49574C7.01136 6.56108 6.94976 6.62214 6.8839 6.67839C6.8189 6.73352 6.75726 6.79251 6.69933 6.85503C6.61511 6.94746 6.6173 7.00378 6.6173 7.00378C6.62059 7.02771 6.62713 7.05107 6.63672 7.07324C6.65476 7.11453 6.66707 7.13585 6.66707 7.13585C6.6791 7.15691 6.71492 7.20831 6.71492 7.20831C6.75074 7.25972 6.75402 7.26574 6.75402 7.26574C6.9191 7.52373 7.11556 7.76024 7.3389 7.96984C7.66238 8.25913 8.10453 8.47269 8.10453 8.47269C8.11109 8.47542 8.16605 8.50523 8.16605 8.50523C8.22074 8.53531 8.24343 8.54488 8.24343 8.54488C8.26586 8.55472 8.30906 8.56785 8.30906 8.56785C8.33195 8.57564 8.35597 8.57961 8.38015 8.5796C8.43648 8.5766 8.51906 8.48253 8.51906 8.48253C8.5746 8.41791 8.62627 8.35007 8.67383 8.27937C8.7225 8.20782 8.77632 8.13992 8.83488 8.07621C8.92375 7.98187 8.98636 7.97831 8.98636 7.97831C9.01726 7.97805 9.04791 7.98381 9.0766 7.99527C9.11596 8.01331 9.15422 8.03367 9.19117 8.05624C9.25953 8.09781 9.2732 8.10656 9.2732 8.10656C9.35523 8.14921 9.44601 8.19406 9.44601 8.19406C9.53789 8.23917 9.65054 8.29249 9.65054 8.29249C9.7632 8.34581 9.82445 8.37671 9.82445 8.37671C10.0495 8.47406 10.0705 8.52929 10.0705 8.52929C10.0788 8.54994 10.0839 8.57168 10.0859 8.59382Z" fill="white"/>
</g>
<defs>
<linearGradient id="paint0_linear_1665_570583" x1="7.81787" y1="13.8704" x2="7.81787" y2="1.14185" gradientUnits="userSpaceOnUse">
<stop stop-color="#00D02D"/>
<stop offset="0.25" stop-color="#10D93A"/>
<stop offset="0.75" stop-color="#3AF15D"/>
<stop offset="1" stop-color="#51FE71"/>
</linearGradient>
<clipPath id="clip0_1665_570583">
<rect width="14" height="14" fill="white" transform="translate(0.817871 0.5)"/>
</clipPath>
</defs>
</svg>
