<svg width="20" height="20" viewBox="0 0 20 20" fill="none" xmlns="http://www.w3.org/2000/svg">
<path fill-rule="evenodd" clip-rule="evenodd" d="M17.4981 9.99893C17.4981 14.1394 14.1416 17.4959 10.0011 17.4959C5.86066 17.4959 2.50415 14.1394 2.50415 9.99893C2.50415 5.85847 5.86066 2.50195 10.0011 2.50195C14.1416 2.50195 17.4981 5.85847 17.4981 9.99893ZM10.571 6.92139C10.571 6.47956 10.2128 6.12139 9.771 6.12139C9.32917 6.12139 8.971 6.47956 8.971 6.92139V10.7492L11.588 13.0858C11.9176 13.3801 12.4233 13.3515 12.7176 13.0219C13.0118 12.6923 12.9832 12.1866 12.6536 11.8923L10.571 10.0328V6.92139Z" fill="white"/>
</svg>
