<svg width="24" height="24" viewBox="0 0 24 24" fill="none" xmlns="http://www.w3.org/2000/svg">
<g id="Icon container">
<g id="Vector">
<path d="M13.7616 3.79639C12.4498 3.49959 11.0843 3.53992 9.79231 3.91362C8.50337 4.28646 7.3296 4.97898 6.38001 5.92681L3.57955 8.5583V5.00722C3.57955 4.6815 3.3155 4.41746 2.98979 4.41746C2.66407 4.41746 2.40002 4.6815 2.40002 5.00722L2.40002 9.92187C2.40002 10.2476 2.66407 10.5117 2.98979 10.5117H7.90446C8.23018 10.5117 8.49422 10.2476 8.49422 9.92193C8.49422 9.59621 8.23018 9.33216 7.90446 9.33216H4.47848L7.19432 6.78019L7.2076 6.76732C8.01751 5.957 9.01949 5.36505 10.1201 5.04671C11.2206 4.72837 12.3839 4.69401 13.5013 4.94684C14.6187 5.19968 15.6539 5.73146 16.5102 6.49257C17.3666 7.25369 18.0161 8.21932 18.3983 9.29938C18.507 9.60644 18.844 9.76727 19.151 9.65861C19.4581 9.54996 19.6189 9.21295 19.5103 8.90589C19.0616 7.638 18.2991 6.50443 17.2938 5.61095C16.2886 4.71747 15.0734 4.0932 13.7616 3.79639Z" fill="white"/>
<path d="M21.5997 13.2177C21.6047 13.0665 21.5519 12.9134 21.4401 12.7944C21.319 12.6656 21.1538 12.6033 20.9901 12.6088H16.0953C15.7695 12.6088 15.5055 12.8728 15.5055 13.1986C15.5055 13.5243 15.7695 13.7883 16.0953 13.7883H19.521L16.8057 16.3398L16.7925 16.3527C15.9825 17.163 14.9806 17.7549 13.88 18.0733C12.7794 18.3916 11.6162 18.426 10.4987 18.1731C9.38131 17.9203 8.34614 17.3885 7.48981 16.6274C6.63349 15.8663 5.98393 14.9007 5.60174 13.8206C5.49308 13.5135 5.15608 13.3527 4.84902 13.4614C4.54196 13.57 4.38112 13.907 4.48978 14.2141C4.93844 15.482 5.70097 16.6155 6.70622 17.509C7.71147 18.4025 8.92667 19.0268 10.2384 19.3236C11.5502 19.6204 12.9158 19.5801 14.2077 19.2064C15.4967 18.8335 16.6704 18.141 17.62 17.1932L20.4202 14.562V18.1133C20.4202 18.439 20.6842 18.703 21.0099 18.703C21.3357 18.703 21.5997 18.439 21.5997 18.1133V13.2177Z" fill="white"/>
</g>
</g>
</svg>
