<svg width="21" height="20" viewBox="0 0 21 20" fill="none" xmlns="http://www.w3.org/2000/svg">
<path d="M13.7 18.5413H7.29997C6.65965 18.5321 6.04643 18.2815 5.58293 17.8396C5.11942 17.3977 4.8398 16.7972 4.79997 16.158L4.04164 4.62468C4.03775 4.54106 4.05048 4.45749 4.07909 4.37882C4.10769 4.30015 4.15161 4.22793 4.2083 4.16634C4.26671 4.10251 4.33742 4.05115 4.41619 4.01535C4.49495 3.97954 4.58014 3.96004 4.66664 3.95801H16.3333C16.419 3.95782 16.5038 3.97526 16.5825 4.00924C16.6612 4.04322 16.732 4.09302 16.7907 4.15554C16.8493 4.21807 16.8944 4.29198 16.9232 4.37268C16.9521 4.45339 16.964 4.53916 16.9583 4.62468L16.2333 16.158C16.1931 16.8029 15.9087 17.4082 15.4382 17.8509C14.9676 18.2936 14.3461 18.5405 13.7 18.5413V18.5413ZM5.36664 5.20801L6.0083 16.083C6.0295 16.4109 6.17489 16.7185 6.41487 16.9429C6.65484 17.1674 6.97136 17.292 7.29997 17.2913H13.7C14.028 17.2901 14.3434 17.1648 14.583 16.9407C14.8225 16.7166 14.9685 16.4102 14.9916 16.083L15.6666 5.24968L5.36664 5.20801Z" fill="white"/>
<path d="M18 5.20801H3C2.83424 5.20801 2.67527 5.14216 2.55806 5.02495C2.44085 4.90774 2.375 4.74877 2.375 4.58301C2.375 4.41725 2.44085 4.25828 2.55806 4.14107C2.67527 4.02386 2.83424 3.95801 3 3.95801H18C18.1658 3.95801 18.3247 4.02386 18.4419 4.14107C18.5592 4.25828 18.625 4.41725 18.625 4.58301C18.625 4.74877 18.5592 4.90774 18.4419 5.02495C18.3247 5.14216 18.1658 5.20801 18 5.20801V5.20801Z" fill="white"/>
<path d="M13 5.20801H8C7.83491 5.20585 7.67719 5.13931 7.56045 5.02256C7.4437 4.90582 7.37716 4.7481 7.375 4.58301V3.08301C7.38556 2.65536 7.56016 2.24814 7.86265 1.94565C8.16513 1.64317 8.57235 1.46857 9 1.45801H12C12.4348 1.46888 12.8481 1.64926 13.1517 1.96065C13.4553 2.27204 13.6251 2.68977 13.625 3.12467V4.58301C13.6228 4.7481 13.5563 4.90582 13.4396 5.02256C13.3228 5.13931 13.1651 5.20585 13 5.20801V5.20801ZM8.625 3.95801H12.375V3.12467C12.375 3.02522 12.3355 2.92984 12.2652 2.85951C12.1948 2.78918 12.0995 2.74967 12 2.74967H9C8.90054 2.74967 8.80516 2.78918 8.73483 2.85951C8.66451 2.92984 8.625 3.02522 8.625 3.12467V3.95801Z" fill="white"/>
<path d="M13 15.2077C12.8349 15.2055 12.6772 15.139 12.5604 15.0222C12.4437 14.9055 12.3772 14.7478 12.375 14.5827V7.91602C12.375 7.75026 12.4408 7.59128 12.5581 7.47407C12.6753 7.35686 12.8342 7.29102 13 7.29102C13.1658 7.29102 13.3247 7.35686 13.4419 7.47407C13.5592 7.59128 13.625 7.75026 13.625 7.91602V14.5827C13.6228 14.7478 13.5563 14.9055 13.4396 15.0222C13.3228 15.139 13.1651 15.2055 13 15.2077V15.2077Z" fill="white"/>
<path d="M8 15.2077C7.83491 15.2055 7.67719 15.139 7.56045 15.0222C7.4437 14.9055 7.37716 14.7478 7.375 14.5827V7.91602C7.375 7.75026 7.44085 7.59128 7.55806 7.47407C7.67527 7.35686 7.83424 7.29102 8 7.29102C8.16576 7.29102 8.32473 7.35686 8.44194 7.47407C8.55915 7.59128 8.625 7.75026 8.625 7.91602V14.5827C8.62284 14.7478 8.5563 14.9055 8.43955 15.0222C8.32281 15.139 8.16509 15.2055 8 15.2077V15.2077Z" fill="white"/>
<path d="M10.5 15.2077C10.3349 15.2055 10.1772 15.139 10.0604 15.0222C9.9437 14.9055 9.87716 14.7478 9.875 14.5827V7.91602C9.875 7.75026 9.94085 7.59128 10.0581 7.47407C10.1753 7.35686 10.3342 7.29102 10.5 7.29102C10.6658 7.29102 10.8247 7.35686 10.9419 7.47407C11.0592 7.59128 11.125 7.75026 11.125 7.91602V14.5827C11.1228 14.7478 11.0563 14.9055 10.9396 15.0222C10.8228 15.139 10.6651 15.2055 10.5 15.2077V15.2077Z" fill="white"/>
</svg>
