<svg width="22" height="22" viewBox="0 0 22 22" fill="none" xmlns="http://www.w3.org/2000/svg">
<path d="M8.73048 13.0682C8.13231 13.2495 7.4977 13.347 6.84032 13.347C3.2467 13.347 0.333496 10.4338 0.333496 6.84014C0.333496 5.8356 0.561131 4.88423 0.967632 4.0348L5.70135 8.76852L8.7687 5.70117L4.03498 0.967449C4.88441 0.560948 5.83578 0.333313 6.84032 0.333313C10.4339 0.333313 13.3471 3.24652 13.3471 6.84014C13.3471 7.79492 13.1415 8.70166 12.7721 9.5185L20.4893 17.2357C21.3363 18.0828 21.3363 19.4561 20.4893 20.3031L19.761 21.0314C18.914 21.8784 17.5407 21.8784 16.6937 21.0314L8.73048 13.0682Z" fill="white"/>
</svg>
