<svg width="24" height="24" viewBox="0 0 24 24" fill="none" xmlns="http://www.w3.org/2000/svg">
<path fill-rule="evenodd" clip-rule="evenodd" d="M21.1087 2.00962C21.1486 2.00323 21.1893 1.99995 21.2306 2C21.319 1.99989 21.4046 2.015 21.4848 2.04312C21.6018 2.08395 21.7047 2.15174 21.7871 2.23822C21.8559 2.31011 21.9111 2.39572 21.9481 2.49142C21.9835 2.58262 22.0019 2.68159 21.9998 2.78386C21.9992 2.81972 21.996 2.85512 21.9905 2.88986C21.5692 5.94839 20.3314 8.83697 18.4072 11.2517C16.6233 13.4902 14.3108 15.2447 11.6826 16.3599C11.8244 17.248 11.7178 18.1594 11.3727 18.9926C11.004 19.8828 10.3795 20.6436 9.57837 21.179C8.77721 21.7143 7.83531 22 6.87176 22H2.76923C2.34439 22 2 21.6556 2 21.2308V17.1282C2 16.1647 2.28572 15.2228 2.82104 14.4216C3.35636 13.6205 4.11722 12.996 5.00742 12.6273C5.84054 12.2822 6.75192 12.1756 7.64002 12.3174C8.75528 9.68914 10.5097 7.37663 12.7483 5.59278C15.1626 3.66886 18.0507 2.43113 21.1087 2.00962ZM10.0496 16.1692C10.0276 16.111 10.0131 16.0518 10.0057 15.9927C9.84002 15.5355 9.57554 15.118 9.22877 14.7712C8.88198 14.4244 8.46449 14.1599 8.00721 13.9943C7.9481 13.9868 7.88893 13.9724 7.83075 13.9504C7.80013 13.9389 7.77068 13.9255 7.74247 13.9107C7.66977 13.891 7.59626 13.8737 7.52206 13.859C6.87546 13.7304 6.20524 13.7964 5.59616 14.0487C4.98708 14.3009 4.46649 14.7282 4.10022 15.2764C3.73395 15.8245 3.53845 16.469 3.53845 17.1282V20.4615H6.87176C7.53103 20.4615 8.17549 20.2661 8.72365 19.8998C9.27181 19.5335 9.69905 19.0129 9.95134 18.4038C10.2036 17.7948 10.2696 17.1245 10.141 16.4779C10.1263 16.4037 10.109 16.3302 10.0893 16.2575C10.0744 16.2293 10.0611 16.1998 10.0496 16.1692ZM10.3166 13.6834C10.6737 14.0405 10.9711 14.4489 11.2003 14.8927C12.2315 14.4451 13.2083 13.8889 14.1149 13.2357C13.34 11.8227 12.1773 10.6599 10.7642 9.88509C10.111 10.7917 9.55485 11.7685 9.10721 12.7996C9.55111 13.0289 9.95952 13.3263 10.3166 13.6834ZM11.7368 8.66791C13.2248 9.53642 14.4635 10.7752 15.3321 12.2632C16.0094 11.6643 16.6361 11.0056 17.204 10.2929C18.7381 8.36777 19.793 6.11179 20.2892 3.71079C17.8882 4.20695 15.6322 5.26184 13.707 6.79595C12.9944 7.36385 12.3356 7.9906 11.7368 8.66791Z" fill="#646464"/>
</svg>
