<svg width="24" height="24" viewBox="0 0 24 24" fill="none" xmlns="http://www.w3.org/2000/svg">
<path fill-rule="evenodd" clip-rule="evenodd" d="M3.86047 3.39535C3.73711 3.39535 3.61881 3.44435 3.53158 3.53158C3.44435 3.61881 3.39535 3.73711 3.39535 3.86047V5.02326C3.39535 5.40857 3.08299 5.72093 2.69767 5.72093C2.31236 5.72093 2 5.40857 2 5.02326V3.86047C2 3.36704 2.19601 2.89382 2.54492 2.54492C2.89382 2.19601 3.36704 2 3.86047 2H5.02326C5.40857 2 5.72093 2.31236 5.72093 2.69767C5.72093 3.08299 5.40857 3.39535 5.02326 3.39535H3.86047ZM10.1395 2.69767C10.1395 2.31236 10.4519 2 10.8372 2H13.1628C13.5481 2 13.8605 2.31236 13.8605 2.69767C13.8605 3.08299 13.5481 3.39535 13.1628 3.39535H10.8372C10.4519 3.39535 10.1395 3.08299 10.1395 2.69767ZM18.2791 2.69767C18.2791 2.31236 18.5914 2 18.9767 2H20.1395C20.633 2 21.1062 2.19601 21.4551 2.54492C21.804 2.89382 22 3.36704 22 3.86047V5.02326C22 5.40857 21.6876 5.72093 21.3023 5.72093C20.917 5.72093 20.6047 5.40857 20.6047 5.02326V3.86047C20.6047 3.73711 20.5556 3.6188 20.4684 3.53158C20.3812 3.44435 20.2629 3.39535 20.1395 3.39535H18.9767C18.5914 3.39535 18.2791 3.08299 18.2791 2.69767ZM2.69767 10.1395C3.08299 10.1395 3.39535 10.4519 3.39535 10.8372V13.1628C3.39535 13.5481 3.08299 13.8605 2.69767 13.8605C2.31236 13.8605 2 13.5481 2 13.1628V10.8372C2 10.4519 2.31236 10.1395 2.69767 10.1395ZM21.3023 10.1395C21.6876 10.1395 22 10.4519 22 10.8372V13.1628C22 13.5481 21.6876 13.8605 21.3023 13.8605C20.917 13.8605 20.6047 13.5481 20.6047 13.1628V10.8372C20.6047 10.4519 20.917 10.1395 21.3023 10.1395ZM2.69767 18.2791C3.08299 18.2791 3.39535 18.5914 3.39535 18.9767V20.1395C3.39535 20.2629 3.44435 20.3812 3.53158 20.4684C3.6188 20.5556 3.73711 20.6047 3.86047 20.6047H5.02326C5.40857 20.6047 5.72093 20.917 5.72093 21.3023C5.72093 21.6876 5.40857 22 5.02326 22H3.86047C3.36704 22 2.89382 21.804 2.54492 21.4551C2.19601 21.1062 2 20.633 2 20.1395V18.9767C2 18.5914 2.31236 18.2791 2.69767 18.2791ZM21.3023 18.2791C21.6876 18.2791 22 18.5914 22 18.9767V20.1395C22 20.633 21.804 21.1062 21.4551 21.4551C21.1062 21.804 20.633 22 20.1395 22H18.9767C18.5914 22 18.2791 21.6876 18.2791 21.3023C18.2791 20.917 18.5914 20.6047 18.9767 20.6047H20.1395C20.2629 20.6047 20.3812 20.5556 20.4684 20.4684C20.5556 20.3812 20.6047 20.2629 20.6047 20.1395V18.9767C20.6047 18.5914 20.917 18.2791 21.3023 18.2791ZM10.1395 21.3023C10.1395 20.917 10.4519 20.6047 10.8372 20.6047H13.1628C13.5481 20.6047 13.8605 20.917 13.8605 21.3023C13.8605 21.6876 13.5481 22 13.1628 22H10.8372C10.4519 22 10.1395 21.6876 10.1395 21.3023Z" fill="#646464"/>
</svg>
