<svg width="24" height="24" viewBox="0 0 24 24" fill="none" xmlns="http://www.w3.org/2000/svg">
<path d="M17.8333 2H6.16667C5.062 2.00132 4.00296 2.44073 3.22185 3.22185C2.44073 4.00296 2.00132 5.062 2 6.16667L2 17.8333C2.00132 18.938 2.44073 19.997 3.22185 20.7782C4.00296 21.5593 5.062 21.9987 6.16667 22H17.8333C18.938 21.9987 19.997 21.5593 20.7782 20.7782C21.5593 19.997 21.9987 18.938 22 17.8333V6.16667C21.9987 5.062 21.5593 4.00296 20.7782 3.22185C19.997 2.44073 18.938 2.00132 17.8333 2ZM20.3333 17.8333C20.3333 18.4964 20.0699 19.1323 19.6011 19.6011C19.1323 20.0699 18.4964 20.3333 17.8333 20.3333H6.16667C5.50363 20.3333 4.86774 20.0699 4.3989 19.6011C3.93006 19.1323 3.66667 18.4964 3.66667 17.8333V6.16667C3.66667 5.50363 3.93006 4.86774 4.3989 4.3989C4.86774 3.93006 5.50363 3.66667 6.16667 3.66667H17.8333C18.4964 3.66667 19.1323 3.93006 19.6011 4.3989C20.0699 4.86774 20.3333 5.50363 20.3333 6.16667V17.8333ZM17 9.5C17 9.72101 16.9122 9.93297 16.7559 10.0893C16.5996 10.2455 16.3877 10.3333 16.1667 10.3333C15.9457 10.3333 15.7337 10.2455 15.5774 10.0893C15.4211 9.93297 15.3333 9.72101 15.3333 9.5C15.3333 9.27899 15.2455 9.06702 15.0893 8.91074C14.933 8.75446 14.721 8.66667 14.5 8.66667H12.8333V15.3333H13.6667C13.8877 15.3333 14.0996 15.4211 14.2559 15.5774C14.4122 15.7337 14.5 15.9457 14.5 16.1667C14.5 16.3877 14.4122 16.5996 14.2559 16.7559C14.0996 16.9122 13.8877 17 13.6667 17H10.3333C10.1123 17 9.90036 16.9122 9.74408 16.7559C9.5878 16.5996 9.5 16.3877 9.5 16.1667C9.5 15.9457 9.5878 15.7337 9.74408 15.5774C9.90036 15.4211 10.1123 15.3333 10.3333 15.3333H11.1667V8.66667H9.5C9.27899 8.66667 9.06702 8.75446 8.91074 8.91074C8.75446 9.06702 8.66667 9.27899 8.66667 9.5C8.66667 9.72101 8.57887 9.93297 8.42259 10.0893C8.26631 10.2455 8.05435 10.3333 7.83333 10.3333C7.61232 10.3333 7.40036 10.2455 7.24408 10.0893C7.0878 9.93297 7 9.72101 7 9.5C7 8.83696 7.26339 8.20107 7.73223 7.73223C8.20107 7.26339 8.83696 7 9.5 7H14.5C15.163 7 15.7989 7.26339 16.2678 7.73223C16.7366 8.20107 17 8.83696 17 9.5Z" fill="#646464"/>
</svg>
