<svg width="24" height="24" viewBox="0 0 24 24" fill="none" xmlns="http://www.w3.org/2000/svg">
<path d="M17.7067 11.6047C18.2559 10.7161 18.5789 9.70643 18.6475 8.6641C18.6475 8.44316 18.5597 8.23127 18.4034 8.07505C18.2472 7.91882 18.0352 7.83105 17.8142 7.83105C17.5932 7.83105 17.3812 7.91882 17.2249 8.07505C17.0686 8.23127 16.9808 8.44316 16.9808 8.6641C16.9132 9.39374 16.6779 10.0979 16.2933 10.7217C16.2353 10.8147 16.1962 10.9182 16.1782 11.0263C16.1603 11.1344 16.1637 11.245 16.1885 11.3517C16.2133 11.4585 16.2588 11.5593 16.3226 11.6484C16.3863 11.7376 16.467 11.8133 16.56 11.8713C16.653 11.9293 16.7566 11.9684 16.8647 11.9864C16.9728 12.0043 17.0835 12.0009 17.1902 11.9761C17.4059 11.9261 17.5929 11.7925 17.71 11.6047H17.7067Z" fill="#646464"/>
<path d="M9.48084 7.83105C9.25983 7.83105 9.04786 7.91882 8.89158 8.07505C8.7353 8.23127 8.64751 8.44316 8.64751 8.6641C8.57988 9.39374 8.3446 10.0979 7.96001 10.7217C7.84287 10.9095 7.80516 11.1361 7.85517 11.3517C7.90518 11.5673 8.03881 11.7542 8.22667 11.8713C8.41453 11.9884 8.64123 12.0261 8.8569 11.9761C9.07257 11.9261 9.25954 11.7925 9.37667 11.6047C9.92474 10.7158 10.2466 9.70614 10.3142 8.6641C10.3142 8.44316 10.2264 8.23127 10.0701 8.07505C9.91381 7.91882 9.70185 7.83105 9.48084 7.83105Z" fill="#646464"/>
<path d="M18.25 17.4851C17.6817 17.1836 17.095 16.8712 17.0133 16.5171C16.975 16.3564 16.9925 15.994 17.4425 15.2901C20.0833 14.9119 22 11.184 22 7.83101C22.0233 7.16836 21.9099 6.50802 21.6668 5.89107C21.4238 5.27413 21.0563 4.71379 20.5873 4.24494C20.1183 3.77609 19.5578 3.40876 18.9406 3.16581C18.3235 2.92286 17.6629 2.80949 17 2.83276C16.1942 2.8107 15.3954 2.98833 14.6749 3.34983C13.9544 3.71132 13.3347 4.24543 12.8708 4.90454C12.2277 3.79529 11.2364 2.92909 10.0508 2.4402C8.86509 1.95131 7.55121 1.86704 6.31277 2.20043C5.07432 2.53383 3.98046 3.26627 3.20074 4.28425C2.42101 5.30223 1.99896 6.54889 2 7.83101C2 11.139 3.88084 14.8994 6.49167 15.899C6.31102 16.1997 6.19998 16.537 6.16667 16.8862C6.16667 18.1949 7.4075 18.7747 8.31334 19.1987C8.81334 19.4319 9.5 19.7527 9.5 20.0009C9.43211 20.2596 9.3106 20.5011 9.14333 20.7098C9.08424 20.8019 9.04387 20.9048 9.02454 21.0125C9.0052 21.1202 9.00728 21.2307 9.03065 21.3376C9.05402 21.4445 9.09822 21.5457 9.16074 21.6356C9.22326 21.7254 9.30286 21.802 9.395 21.8611C9.58109 21.9804 9.80698 22.0209 10.023 21.9737C10.1299 21.9504 10.2312 21.9062 10.321 21.8437C10.4109 21.7812 10.4876 21.7016 10.5467 21.6095C10.9004 21.1422 11.1152 20.5847 11.1667 20.0009C11.1667 18.6922 9.92583 18.1124 9.02 17.6892C8.52 17.4551 7.83334 17.1344 7.82584 16.9686C7.95252 16.6702 8.11123 16.3864 8.29917 16.1223C10.2592 15.8674 11.9083 14.0397 12.8425 11.7905C13.3672 13.1794 14.3776 14.3313 15.6867 15.0327C15.3762 15.6015 15.2714 16.2599 15.39 16.897C15.645 17.9883 16.6558 18.5256 17.4683 18.9579C17.9817 19.2312 18.5625 19.5411 18.6508 19.8476C18.6727 20.1686 18.5797 20.4869 18.3883 20.7457C18.3328 20.8404 18.2965 20.9453 18.2816 21.0541C18.2667 21.163 18.2735 21.2737 18.3016 21.3799C18.3297 21.4861 18.3785 21.5857 18.4453 21.673C18.512 21.7602 18.5954 21.8335 18.6906 21.8884C18.7857 21.9433 18.8908 21.9789 18.9998 21.993C19.1088 22.0072 19.2195 21.9997 19.3256 21.9709C19.4316 21.9421 19.531 21.8926 19.6178 21.8253C19.7047 21.758 19.7773 21.6742 19.8317 21.5787C20.0495 21.2629 20.1995 20.9054 20.2721 20.5287C20.3447 20.152 20.3383 19.7644 20.2533 19.3903C20.0678 18.9525 19.7942 18.5575 19.4496 18.2297C19.105 17.902 18.6967 17.6486 18.25 17.4851ZM7.83334 14.4953C5.62834 14.4953 3.66667 10.7683 3.66667 7.83101C3.66667 6.72633 4.10566 5.66689 4.88706 4.88577C5.66846 4.10464 6.72827 3.6658 7.83334 3.6658C8.9384 3.6658 9.99821 4.10464 10.7796 4.88577C11.561 5.66689 12 6.72633 12 7.83101C12 10.7683 10.0383 14.4953 7.83334 14.4953ZM13.6667 7.83101C13.6415 7.38685 13.7106 6.94238 13.8692 6.52673C14.0278 6.11107 14.2725 5.7336 14.5872 5.41903C14.9019 5.10445 15.2795 4.85987 15.6953 4.7013C16.1111 4.54272 16.5557 4.47373 17 4.49885C17.4443 4.47373 17.8889 4.54272 18.3047 4.7013C18.7205 4.85987 19.0981 5.10445 19.4128 5.41903C19.7275 5.7336 19.9722 6.11107 20.1308 6.52673C20.2894 6.94238 20.3585 7.38685 20.3333 7.83101C20.3333 10.6634 18.62 13.6623 17 13.6623C15.38 13.6623 13.6667 10.6634 13.6667 7.83101Z" fill="#646464"/>
</svg>
