<svg width="24" height="24" viewBox="0 0 24 24" fill="none" xmlns="http://www.w3.org/2000/svg">
<path fill-rule="evenodd" clip-rule="evenodd" d="M5.84615 2C4.82609 2 3.84781 2.40522 3.12651 3.12651C2.40522 3.84781 2 4.82609 2 5.84615C2 6.86622 2.40522 7.8445 3.12651 8.5658C3.84781 9.28709 4.82609 9.69231 5.84615 9.69231C6.86622 9.69231 7.8445 9.28709 8.5658 8.5658C9.28709 7.8445 9.69231 6.86622 9.69231 5.84615C9.69231 4.82609 9.28709 3.84781 8.5658 3.12651C7.8445 2.40522 6.86622 2 5.84615 2ZM4.21437 4.21437C4.64715 3.78159 5.23412 3.53846 5.84615 3.53846C6.45819 3.53846 7.04516 3.78159 7.47794 4.21437C7.91072 4.64715 8.15385 5.23412 8.15385 5.84615C8.15385 6.45819 7.91072 7.04516 7.47794 7.47794C7.04516 7.91072 6.45819 8.15385 5.84615 8.15385C5.23412 8.15385 4.64715 7.91072 4.21437 7.47794C3.78159 7.04516 3.53846 6.45819 3.53846 5.84615C3.53846 5.23412 3.78159 4.64715 4.21437 4.21437Z" fill="#646464"/>
<path d="M16.6465 3.31316C16.9469 3.01276 16.9469 2.52571 16.6465 2.2253C16.3461 1.9249 15.859 1.9249 15.5586 2.2253L12.4817 5.30223C12.1813 5.60263 12.1813 6.08968 12.4817 6.39008L15.5586 9.46701C15.859 9.76741 16.3461 9.76741 16.6465 9.46701C16.9469 9.1666 16.9469 8.67955 16.6465 8.37915L14.8827 6.61539H19.1795C19.5195 6.61539 19.8456 6.75046 20.086 6.99089C20.3265 7.23132 20.4615 7.55742 20.4615 7.89744V10.9744C20.4615 11.3992 20.8059 11.7436 21.2308 11.7436C21.6556 11.7436 22 11.3992 22 10.9744V7.89744C22 7.14939 21.7028 6.43198 21.1739 5.90303C20.6449 5.37408 19.9275 5.07692 19.1795 5.07692H14.8827L16.6465 3.31316Z" fill="#646464"/>
<path d="M2.76923 12.2564C3.19407 12.2564 3.53846 12.6008 3.53846 13.0256V16.1026C3.53846 16.4426 3.67353 16.7687 3.91397 17.0091C4.1544 17.2495 4.48049 17.3846 4.82051 17.3846H9.11727L7.35351 15.6209C7.0531 15.3204 7.0531 14.8334 7.35351 14.533C7.65391 14.2326 8.14096 14.2326 8.44136 14.533L11.5183 17.6099C11.8187 17.9103 11.8187 18.3974 11.5183 18.6978L8.44136 21.7747C8.14096 22.0751 7.65391 22.0751 7.35351 21.7747C7.0531 21.4743 7.0531 20.9872 7.35351 20.6868L9.11727 18.9231H4.82051C4.07247 18.9231 3.35506 18.6259 2.82611 18.097C2.29716 17.568 2 16.8506 2 16.1026V13.0256C2 12.6008 2.3444 12.2564 2.76923 12.2564Z" fill="#646464"/>
<path fill-rule="evenodd" clip-rule="evenodd" d="M18.1538 14.3077C17.1338 14.3077 16.1555 14.7129 15.4342 15.4342C14.7129 16.1555 14.3077 17.1338 14.3077 18.1538C14.3077 19.1739 14.7129 20.1522 15.4342 20.8735C16.1555 21.5948 17.1338 22 18.1538 22C19.1739 22 20.1522 21.5948 20.8735 20.8735C21.5948 20.1522 22 19.1739 22 18.1538C22 17.1338 21.5948 16.1555 20.8735 15.4342C20.1522 14.7129 19.1739 14.3077 18.1538 14.3077ZM16.5221 16.5221C16.9548 16.0893 17.5418 15.8462 18.1538 15.8462C18.7659 15.8462 19.3529 16.0893 19.7856 16.5221C20.2184 16.9548 20.4615 17.5418 20.4615 18.1538C20.4615 18.7659 20.2184 19.3529 19.7856 19.7856C19.3529 20.2184 18.7659 20.4615 18.1538 20.4615C17.5418 20.4615 16.9548 20.2184 16.5221 19.7856C16.0893 19.3529 15.8462 18.7659 15.8462 18.1538C15.8462 17.5418 16.0893 16.9548 16.5221 16.5221Z" fill="#646464"/>
</svg>
