<svg width="24" height="24" viewBox="0 0 24 24" fill="none" xmlns="http://www.w3.org/2000/svg">
<path d="M12.0093 10.7179C9.58971 10.7179 7.62223 8.76205 7.62223 6.35897C7.62223 3.9559 9.58971 2 12.0093 2C14.4289 2 16.3964 3.9559 16.3964 6.35897C16.3964 8.76205 14.4289 10.7179 12.0093 10.7179ZM12.0093 3.53846C10.4434 3.53846 9.17061 4.80308 9.17061 6.35897C9.17061 7.91487 10.4434 9.17949 12.0093 9.17949C13.5753 9.17949 14.848 7.91487 14.848 6.35897C14.848 4.80308 13.5742 3.53846 12.0093 3.53846ZM16.1259 22H7.87412C5.37605 22 4 20.6411 4 18.1734C4 15.4441 5.55458 12.2564 9.93548 12.2564H14.0645C18.4454 12.2564 20 15.4431 20 18.1734C20 20.6411 18.6239 22 16.1259 22ZM9.93548 13.7949C5.86529 13.7949 5.54839 17.1457 5.54839 18.1734C5.54839 19.7775 6.24418 20.4615 7.87412 20.4615H16.1259C17.7558 20.4615 18.4516 19.7775 18.4516 18.1734C18.4516 17.1467 18.1347 13.7949 14.0645 13.7949H9.93548Z" fill="#646464"/>
</svg>
