<svg width="24" height="24" viewBox="0 0 24 24" fill="none" xmlns="http://www.w3.org/2000/svg">
<path d="M12 2.25C7.175 2.25 3.25 6.175 3.25 11C3.25 16.118 7.94699 19.2199 11.055 21.2729L11.584 21.624C11.71 21.708 11.855 21.75 12 21.75C12.145 21.75 12.29 21.708 12.416 21.624L12.945 21.2729C16.053 19.2199 20.75 16.118 20.75 11C20.75 6.175 16.825 2.25 12 2.25ZM12.119 20.021L12 20.1001L11.881 20.021C8.87101 18.033 4.75 15.311 4.75 11C4.75 7.002 8.002 3.75 12 3.75C15.998 3.75 19.25 7.002 19.25 11C19.25 15.311 15.128 18.034 12.119 20.021Z" fill="#646464"/>
<path d="M16.25 11C16.25 13.344 14.344 15.25 12 15.25C9.656 15.25 7.75 13.344 7.75 11C7.75 8.656 9.656 6.75 12 6.75C14.344 6.75 16.25 8.656 16.25 11ZM14.75 11C14.75 9.483 13.517 8.25 12 8.25C10.483 8.25 9.25 9.483 9.25 11C9.25 12.517 10.483 13.75 12 13.75C13.517 13.75 14.75 12.517 14.75 11ZM12.75 10.689V9.687C12.75 9.273 12.414 8.937 12 8.937C11.586 8.937 11.25 9.273 11.25 9.687V10.999C11.25 11.198 11.329 11.389 11.47 11.529L12.408 12.467C12.554 12.613 12.746 12.687 12.938 12.687C13.13 12.687 13.322 12.614 13.468 12.467C13.761 12.174 13.761 11.699 13.468 11.406L12.75 10.689Z" fill="#646464"/>
</svg>
