<svg width="24" height="24" viewBox="0 0 24 24" fill="none" xmlns="http://www.w3.org/2000/svg">
<path d="M19.6891 2.38817C19.1492 1.981 18.4083 1.89177 17.551 2.13176L12.7743 3.46711C11.5595 3.81787 10.7125 4.93594 10.7125 6.18514V14.3457C9.94699 13.6924 8.96505 13.2823 7.87905 13.2823C5.46387 13.2823 3.5 15.2381 3.5 17.6411C3.5 20.0442 5.46387 22 7.87905 22C10.2942 22 12.2581 20.0442 12.2581 17.6411V12.0003C12.2581 11.3213 12.6568 10.7132 13.1978 10.5563L18.8009 8.99731C19.8498 8.70809 20.5 7.90917 20.5 6.91228V4.34825C20.501 3.45494 20.227 2.79533 19.6891 2.38817ZM7.87905 20.4626C6.31598 20.4626 5.04555 19.198 5.04555 17.6421C5.04555 16.0863 6.31598 14.8217 7.87905 14.8217C9.44211 14.8217 10.7125 16.0863 10.7125 17.6421C10.7125 19.198 9.44211 20.4626 7.87905 20.4626ZM18.9555 6.91428C18.9555 7.02402 18.9555 7.36031 18.3867 7.51723L12.7743 9.07819C12.5929 9.13049 12.4209 9.20131 12.2581 9.28952V6.18714C12.2581 5.60972 12.6383 5.11024 13.1988 4.94819L17.9694 3.61484C18.1456 3.56562 18.3084 3.54098 18.4434 3.54098C18.5805 3.54098 18.6886 3.56559 18.7556 3.61585C18.8834 3.71123 18.9555 3.97896 18.9555 4.35125V6.91428Z" fill="#646464"/>
</svg>
