<svg width="24" height="24" viewBox="0 0 24 24" fill="none" xmlns="http://www.w3.org/2000/svg">
<path d="M11.2569 13.6228C11.3053 13.7215 11.3727 13.8097 11.4554 13.8823C11.538 13.9548 11.6342 14.0103 11.7384 14.0455C11.8426 14.0807 11.9527 14.095 12.0624 14.0874C12.1721 14.0798 12.2793 14.0506 12.3777 14.0015C12.476 13.9523 12.5637 13.8842 12.6356 13.801C12.7075 13.7178 12.7623 13.6212 12.7966 13.5167C12.831 13.4122 12.8444 13.302 12.836 13.1924C12.8276 13.0827 12.7976 12.9758 12.7476 12.8778L8.16459 3.71172C8.0954 3.57328 7.98901 3.45684 7.85736 3.37546C7.72571 3.29408 7.574 3.25098 7.41922 3.25098C7.26445 3.25098 7.11274 3.29408 6.98108 3.37546C6.84943 3.45684 6.74305 3.57328 6.67385 3.71172L2.09081 12.8778C2.04089 12.9758 2.01085 13.0827 2.00244 13.1924C1.99403 13.302 2.00741 13.4122 2.0418 13.5167C2.07619 13.6212 2.13092 13.7178 2.20283 13.801C2.27475 13.8842 2.36242 13.9523 2.46079 14.0015C2.55917 14.0506 2.6663 14.0798 2.77602 14.0874C2.88573 14.095 2.99586 14.0807 3.10004 14.0455C3.20423 14.0103 3.30042 13.9548 3.38306 13.8823C3.4657 13.8097 3.53316 13.7215 3.58155 13.6228L5.01729 10.7504H9.82032L11.2569 13.6228ZM5.85057 9.08388L7.41797 5.94741L8.98704 9.08388H5.85057Z" fill="#646464"/>
<path d="M21.756 10.994C21.5998 10.8378 21.3879 10.75 21.1669 10.75C20.9459 10.75 20.734 10.8378 20.5778 10.994L12.8341 18.7376L9.25682 15.1604C9.17995 15.0808 9.08801 15.0173 8.98634 14.9736C8.88468 14.93 8.77534 14.907 8.66469 14.906C8.55405 14.905 8.44433 14.9261 8.34192 14.968C8.23951 15.0099 8.14647 15.0718 8.06823 15.15C7.99 15.2283 7.92812 15.3213 7.88622 15.4237C7.84433 15.5261 7.82324 15.6359 7.8242 15.7465C7.82517 15.8571 7.84815 15.9665 7.89182 16.0681C7.9355 16.1698 7.99898 16.2618 8.07856 16.3386L12.245 20.505C12.4012 20.6612 12.6131 20.749 12.8341 20.749C13.055 20.749 13.267 20.6612 13.4232 20.505L21.756 12.1722C21.9122 12.016 22 11.8041 22 11.5831C22 11.3621 21.9122 11.1502 21.756 10.994Z" fill="#646464"/>
</svg>
