<svg width="24" height="24" viewBox="0 0 24 24" fill="none" xmlns="http://www.w3.org/2000/svg">
<path d="M15.5414 14.3377C15.8798 14.5923 15.9465 15.0718 15.6901 15.4078C15.5394 15.6054 15.3087 15.7103 15.0759 15.7103C14.9149 15.7103 14.7509 15.6593 14.6124 15.5545C13.114 14.4253 10.886 14.4253 9.38759 15.5545C9.05118 15.81 8.56628 15.7438 8.30987 15.4078C8.05347 15.0718 8.11913 14.5933 8.45861 14.3377C10.4955 12.8023 13.5045 12.8023 15.5414 14.3377ZM12 9.08292C9.55489 9.08292 7.19182 9.95143 5.34465 11.5276C5.02363 11.8025 4.98558 12.2841 5.26353 12.6048C5.54147 12.9255 6.0267 12.9602 6.34875 12.6863C7.91592 11.3484 9.92307 10.6112 12.001 10.6112C14.0789 10.6112 16.0851 11.3484 17.6532 12.6863C17.7989 12.8105 17.9763 12.8706 18.1548 12.8706C18.3712 12.8706 18.5857 12.7799 18.7375 12.6048C19.0154 12.2851 18.9774 11.8025 18.6563 11.5276C16.8082 9.95143 14.4451 9.08292 12 9.08292ZM21.7435 8.70008C19.0605 6.31448 15.601 5 12 5C8.399 5 4.93954 6.31448 2.25649 8.70008C1.93957 8.98109 1.91282 9.4637 2.19589 9.77832C2.47897 10.0929 2.96623 10.1184 3.28212 9.83739C5.68313 7.70328 8.77849 6.52727 12 6.52727C15.2215 6.52727 18.3169 7.70328 20.7179 9.83739C20.8645 9.96772 21.0471 10.0318 21.2307 10.0318C21.442 10.0318 21.6513 9.94631 21.8041 9.77729C22.0872 9.4637 22.0604 8.98109 21.7435 8.70008ZM12 16.9636C11.4339 16.9636 10.9744 17.4198 10.9744 17.9818C10.9744 18.5439 11.4339 19 12 19C12.5661 19 13.0256 18.5439 13.0256 17.9818C13.0256 17.4198 12.5661 16.9636 12 16.9636Z" fill="#646464"/>
</svg>
