<svg width="24" height="24" viewBox="0 0 24 24" fill="none" xmlns="http://www.w3.org/2000/svg">
<path d="M21.8191 9.79442C20.9205 5.3507 16.6637 2 11.9158 2C6.44792 2 1.99957 6.48651 1.99957 12C1.99957 17.5135 6.48515 22 11.9996 22C13.0796 22 13.8479 21.5275 14.0563 20.7349C14.2879 19.854 13.7317 18.9116 12.6042 18.2754C12.3122 18.1107 12.1559 17.814 12.2238 17.5544C12.3112 17.2214 12.8498 16.8326 14.0777 16.8326H16.1475C16.8833 16.8326 19.3996 16.6902 20.9075 14.8539C21.9307 13.6074 22.2377 11.906 21.8191 9.79442ZM19.8293 13.9674C18.7093 15.3312 16.7289 15.4372 16.1475 15.4372H14.0777C11.5354 15.4372 10.9828 16.787 10.874 17.2C10.6442 18.0726 11.074 19.014 11.9177 19.4902C12.5837 19.866 12.7382 20.2586 12.7066 20.3805C12.6824 20.4735 12.4461 20.6047 11.9987 20.6047C7.25355 20.6047 3.39401 16.7451 3.39401 12C3.39401 7.25488 7.21631 3.39535 11.9149 3.39535C16.0117 3.39535 19.6814 6.26513 20.4498 10.0688C20.7837 11.7479 20.5744 13.0595 19.8293 13.9674ZM17.8321 10.1395C17.8321 10.7814 17.3112 11.3023 16.6694 11.3023C16.0275 11.3023 15.5019 10.7814 15.5019 10.1395C15.5019 9.49767 16.0182 8.97674 16.66 8.97674H16.6694C17.3112 8.97674 17.8321 9.49767 17.8321 10.1395ZM11.3205 7.34884C11.3205 7.9907 10.7996 8.51163 10.1577 8.51163C9.51587 8.51163 8.99028 7.9907 8.99028 7.34884C8.99028 6.70698 9.50656 6.18605 10.1484 6.18605H10.1577C10.7996 6.18605 11.3205 6.70698 11.3205 7.34884ZM15.0415 7.34884C15.0415 7.9907 14.5205 8.51163 13.8787 8.51163C13.2368 8.51163 12.7112 7.9907 12.7112 7.34884C12.7112 6.70698 13.2275 6.18605 13.8693 6.18605H13.8787C14.5205 6.18605 15.0415 6.70698 15.0415 7.34884ZM8.52982 10.1395C8.52982 10.7814 8.00889 11.3023 7.36703 11.3023C6.72517 11.3023 6.19959 10.7814 6.19959 10.1395C6.19959 9.49767 6.71586 8.97674 7.35772 8.97674H7.36703C8.00889 8.97674 8.52982 9.49767 8.52982 10.1395ZM8.52982 13.8605C8.52982 14.5023 8.00889 15.0233 7.36703 15.0233C6.72517 15.0233 6.19959 14.5023 6.19959 13.8605C6.19959 13.2186 6.71586 12.6977 7.35772 12.6977H7.36703C8.00889 12.6977 8.52982 13.2186 8.52982 13.8605Z" fill="#646464"/>
</svg>
