<svg width="24" height="24" viewBox="0 0 24 24" fill="none" xmlns="http://www.w3.org/2000/svg">
<path d="M16.1667 12.986V10.3327C16.1667 10.1116 16.0789 9.89968 15.9226 9.7434C15.7663 9.58712 15.5544 9.49932 15.3334 9.49932V4.01098C15.3334 3.66824 15.2458 3.33118 15.0789 3.03183C14.912 2.73248 14.6713 2.48079 14.3797 2.30067C14.0881 2.12055 13.7552 2.01798 13.4128 2.00273C13.0704 1.98747 12.7298 2.06002 12.4234 2.21348L10.2384 3.30515C9.76519 3.54046 9.36726 3.90342 9.08953 4.353C8.8118 4.80258 8.66534 5.32087 8.66669 5.84932V9.49932C8.44567 9.49932 8.23371 9.58712 8.07743 9.7434C7.92115 9.89968 7.83335 10.1116 7.83335 10.3327V12.986C7.3476 13.1577 6.92676 13.4753 6.62843 13.8954C6.33009 14.3155 6.16882 14.8174 6.16669 15.3327V17.8327C6.16801 18.9373 6.60742 19.9964 7.38854 20.7775C8.16965 21.5586 9.22869 21.998 10.3334 21.9993H13.6667C14.7714 21.998 15.8304 21.5586 16.6115 20.7775C17.3926 19.9964 17.832 18.9373 17.8334 17.8327V15.3327C17.8312 14.8174 17.67 14.3155 17.3716 13.8954C17.0733 13.4753 16.6524 13.1577 16.1667 12.986ZM9.50002 12.8327V11.166H14.5V12.8327H9.50002ZM10.3334 5.84932C10.3327 5.6305 10.3934 5.41588 10.5084 5.22974C10.6234 5.04359 10.7882 4.89334 10.9842 4.79598L13.1667 3.70432C13.2191 3.67718 13.2776 3.66404 13.3366 3.66618C13.3955 3.66831 13.453 3.68564 13.5033 3.71649C13.5536 3.74734 13.595 3.79067 13.6237 3.84226C13.6523 3.89386 13.6671 3.95198 13.6667 4.01098V9.49932H10.3334V5.84932ZM16.1667 17.8327C16.1667 18.4957 15.9033 19.1316 15.4345 19.6004C14.9656 20.0693 14.3297 20.3327 13.6667 20.3327H10.3334C9.67031 20.3327 9.03443 20.0693 8.56559 19.6004C8.09675 19.1316 7.83335 18.4957 7.83335 17.8327V15.3327C7.83335 15.1116 7.92115 14.8997 8.07743 14.7434C8.23371 14.5871 8.44567 14.4993 8.66669 14.4993H15.3334C15.5544 14.4993 15.7663 14.5871 15.9226 14.7434C16.0789 14.8997 16.1667 15.1116 16.1667 15.3327V17.8327Z" fill="#646464"/>
</svg>
