<svg width="24" height="24" viewBox="0 0 24 24" fill="none" xmlns="http://www.w3.org/2000/svg">
<path d="M12 2C6.91613 2 4 4.89744 4 9.94872V14.0513C4 19.1026 6.91613 22 12 22C17.0839 22 20 19.1026 20 14.0513V9.94872C20 4.89744 17.0839 2 12 2ZM12 7.12821C12.4263 7.12821 12.7742 7.47282 12.7742 7.89744V9.4359C12.7742 9.86051 12.4263 10.2051 12 10.2051C11.5737 10.2051 11.2258 9.86051 11.2258 9.4359V7.89744C11.2258 7.47282 11.5737 7.12821 12 7.12821ZM18.4516 14.0513C18.4516 19.3497 14.944 20.4615 12 20.4615C9.056 20.4615 5.54839 19.3497 5.54839 14.0513V9.94872C5.54839 5.10872 8.47484 3.76618 11.2258 3.56926V5.73122C10.3267 6.05019 9.67742 6.89538 9.67742 7.89744V9.4359C9.67742 10.7087 10.72 11.7436 12 11.7436C13.28 11.7436 14.3226 10.7087 14.3226 9.4359V7.89744C14.3226 6.89641 13.6733 6.05019 12.7742 5.73122V3.56926C15.5252 3.76618 18.4516 5.10872 18.4516 9.94872V14.0513Z" fill="#646464"/>
</svg>
