<svg width="24" height="24" viewBox="0 0 24 24" fill="none" xmlns="http://www.w3.org/2000/svg">
<path fill-rule="evenodd" clip-rule="evenodd" d="M3.33292 8.90601C3.33292 8.49179 3.6687 8.15601 4.08292 8.15601H21.2308C21.645 8.15601 21.9808 8.49179 21.9808 8.90601V12.506C21.9808 12.7049 21.9017 12.8957 21.7611 13.0363C21.6204 13.177 21.4297 13.256 21.2308 13.256C20.8865 13.256 20.5558 13.3932 20.3117 13.6381C20.0674 13.883 19.9298 14.2157 19.9298 14.5631C19.9298 14.9106 20.0674 15.2433 20.3117 15.4882C20.5558 15.7331 20.8865 15.8703 21.2308 15.8703C21.645 15.8703 21.9808 16.2061 21.9808 16.6203V20.2203C21.9808 20.6344 21.6452 20.9701 21.2311 20.9703L4.33042 20.9785C3.91621 20.9787 3.58026 20.6431 3.58005 20.2289C3.57985 19.8147 3.91548 19.4787 4.32969 19.4785L20.4808 19.4707V17.2678C20.0191 17.1392 19.5939 16.8928 19.2494 16.5473C18.7244 16.0207 18.4298 15.3069 18.4298 14.5631C18.4298 13.8194 18.7244 13.1056 19.2494 12.579C19.5939 12.2335 20.0191 11.9871 20.4808 11.8585V9.65601H4.08292C3.6687 9.65601 3.33292 9.32022 3.33292 8.90601Z" fill="#646464"/>
<path fill-rule="evenodd" clip-rule="evenodd" d="M11.57 3.00088C11.7082 2.99426 11.8457 3.02517 11.9678 3.09036L21.5918 8.22498C21.9669 8.42506 22.1092 8.89218 21.9097 9.26833C21.7102 9.64448 21.2445 9.78721 20.8695 9.58713L11.4372 4.55477C9.1955 4.72551 7.17024 5.91639 5.72443 7.76944M11.57 3.00088C8.74162 3.1364 6.24074 4.60415 4.51285 6.81887L11.57 3.00088ZM4.51285 6.81887C2.94557 8.82948 2.00317 11.4674 2.00317 14.3441L4.51285 6.81887ZM5.72443 7.76944C4.37335 9.50281 3.54137 11.8045 3.54137 14.3441C3.54137 16.2223 3.99706 17.9718 4.78151 19.4571H21.2307C21.6554 19.4571 21.9998 19.8025 21.9998 20.2286C21.9998 20.6546 21.6554 21 21.2307 21H4.32996C4.057 21 3.80449 20.8549 3.66645 20.6187C2.61333 18.8167 2.00317 16.6576 2.00317 14.3441" fill="#646464"/>
<path d="M2 14.1451V14.4246L2.98217 14.2372L4.00612 10.975L4.49771 9.88179L5.15176 8.62051L5.58438 7.99775L5.73659 7.80087L6.96276 6.53852L8.56464 5.44239L9.63266 4.76742L11.7212 3.29685L11.6531 3.00757H11.4327L4.62701 6.68391L4.45075 6.90087L3.53987 8.69861L2 14.1451Z" fill="#646464"/>
<path fill-rule="evenodd" clip-rule="evenodd" d="M15.0779 12.2703C15.4922 12.2703 15.8279 12.6061 15.8279 13.0203V13.0303C15.8279 13.4445 15.4922 13.7803 15.0779 13.7803C14.6637 13.7803 14.3279 13.4445 14.3279 13.0303V13.0203C14.3279 12.6061 14.6637 12.2703 15.0779 12.2703Z" fill="#646464"/>
<path fill-rule="evenodd" clip-rule="evenodd" d="M7.89969 12.2703C8.3139 12.2703 8.64969 12.6061 8.64969 13.0203V13.0303C8.64969 13.4445 8.3139 13.7803 7.89969 13.7803C7.48548 13.7803 7.14969 13.4445 7.14969 13.0303V13.0203C7.14969 12.6061 7.48548 12.2703 7.89969 12.2703Z" fill="#646464"/>
<path fill-rule="evenodd" clip-rule="evenodd" d="M10.9761 15.356C11.3903 15.356 11.7261 15.6917 11.7261 16.106V16.116C11.7261 16.5302 11.3903 16.866 10.9761 16.866C10.5619 16.866 10.2261 16.5302 10.2261 16.116V16.106C10.2261 15.6917 10.5619 15.356 10.9761 15.356Z" fill="#646464"/>
</svg>
