<svg width="24" height="24" viewBox="0 0 24 24" fill="none" xmlns="http://www.w3.org/2000/svg">
<path d="M16.086 13.9229C16.2423 14.0861 16.4543 14.1778 16.6753 14.1778C16.8963 14.1778 17.1082 14.0861 17.2645 13.9229L21.3895 9.61318C21.583 9.41105 21.7366 9.17108 21.8413 8.90696C21.9461 8.64284 22 8.35975 22 8.07386C22 7.78797 21.9461 7.50488 21.8413 7.24076C21.7366 6.97664 21.583 6.73667 21.3895 6.53454L17.2637 2.22567C17.1052 2.07554 16.8975 1.99483 16.6836 2.00026C16.4697 2.00568 16.266 2.09681 16.1147 2.25479C15.9633 2.41277 15.876 2.62549 15.8706 2.84892C15.8653 3.07234 15.9424 3.28936 16.086 3.45503L19.67 7.19885H6.16745C5.06218 7.19885 4.00217 7.6575 3.22062 8.4739C2.43907 9.2903 2 10.3976 2 11.5521L2 17.6467C2.00132 18.8009 2.44082 19.9073 3.22208 20.7234C4.00334 21.5395 5.06258 21.9986 6.16745 22H17.8363C18.0574 22 18.2694 21.9083 18.4257 21.745C18.582 21.5817 18.6698 21.3603 18.6698 21.1293C18.6698 20.8984 18.582 20.677 18.4257 20.5137C18.2694 20.3504 18.0574 20.2587 17.8363 20.2587H6.16745C5.50429 20.2587 4.86828 19.9835 4.39935 19.4937C3.93042 19.0038 3.66698 18.3395 3.66698 17.6467V11.5521C3.66698 10.8594 3.93042 10.195 4.39935 9.70519C4.86828 9.21535 5.50429 8.94016 6.16745 8.94016H19.68L16.086 12.6918C15.9297 12.8551 15.842 13.0765 15.842 13.3074C15.842 13.5382 15.9297 13.7597 16.086 13.9229Z" fill="#646464"/>
</svg>
