<svg width="24" height="24" viewBox="0 0 24 24" fill="none" xmlns="http://www.w3.org/2000/svg">
<path d="M22.0001 8.92493C22.0001 7.36901 20.7355 6.10438 19.1796 6.10438H16.9918L14.7733 2.37714C14.5559 2.01303 14.0852 1.89098 13.719 2.10944C13.3549 2.32688 13.2339 2.79869 13.4513 3.16382L15.201 6.10335H8.89223L10.6677 3.16792C10.8882 2.80484 10.7713 2.33201 10.4082 2.11149C10.042 1.89098 9.57121 2.00791 9.35172 2.37099L7.09432 6.10233H4.8204C3.26448 6.10233 1.99985 7.36696 1.99985 8.92288C1.99985 10.0398 2.65731 10.9988 3.60193 11.4552L4.30958 18.5364C4.5424 20.8667 5.79378 22 8.13638 22H15.9005C18.2431 22 19.4956 20.8677 19.7273 18.5364L20.437 11.4337C21.3601 10.9711 22.0001 10.0255 22.0001 8.92493ZM4.8204 7.64286H19.1796C19.8863 7.64286 20.4617 8.21826 20.4617 8.92493C20.4617 9.63161 19.8863 10.207 19.1796 10.207H4.8204C4.11372 10.207 3.53833 9.63161 3.53833 8.92493C3.53833 8.21826 4.11372 7.64286 4.8204 7.64286ZM18.198 18.3856C18.0657 19.7015 17.6482 20.4636 15.9015 20.4636H8.13738C6.38146 20.4636 5.97631 19.7333 5.84092 18.3856L5.17735 11.7455H18.8627L18.198 18.3856ZM14.8205 16.1045C14.8205 16.5292 14.4759 16.8738 14.0513 16.8738H12.7692V18.1558C12.7692 18.5805 12.4246 18.9251 12 18.9251C11.5754 18.9251 11.2308 18.5805 11.2308 18.1558V16.8738H9.94868C9.52406 16.8738 9.17944 16.5292 9.17944 16.1045C9.17944 15.6799 9.52406 15.3353 9.94868 15.3353H11.2308V14.0532C11.2308 13.6286 11.5754 13.284 12 13.284C12.4246 13.284 12.7692 13.6286 12.7692 14.0532V15.3353H14.0513C14.4759 15.3353 14.8205 15.6799 14.8205 16.1045Z" fill="#646464"/>
</svg>
