<svg width="24" height="24" viewBox="0 0 24 24" fill="none" xmlns="http://www.w3.org/2000/svg">
<path d="M19.9819 21.745C18.7036 21.745 17.2139 20.955 17.2139 18.745C17.2139 16.845 19.2069 14.715 19.4384 14.475C19.7202 14.175 20.2436 14.175 20.5255 14.475C20.757 14.715 22.75 16.845 22.75 18.745C22.76 20.955 21.2603 21.745 19.9819 21.745ZM19.9819 16.145C19.4183 16.865 18.7237 17.945 18.7237 18.735C18.7237 19.735 19.1465 20.235 19.9819 20.235C20.8174 20.235 21.2401 19.735 21.2401 18.735C21.2502 17.945 20.5456 16.865 19.9819 16.145ZM8.96019 19.755C8.19521 19.755 7.43023 19.465 6.85649 18.895L2.1257 14.245C1.56203 13.695 1.25 12.955 1.25 12.165C1.25 11.375 1.56203 10.635 2.1257 10.085L9.22189 3.105C10.3794 1.965 12.2717 1.965 13.4393 3.105L20.5355 10.085C20.7066 10.255 20.7872 10.495 20.7469 10.735C20.7066 10.975 20.5557 11.185 20.3342 11.285L17.2944 12.785L11.0739 18.905C10.4901 19.465 9.72517 19.755 8.96019 19.755ZM2.9712 12.915C3.0316 13.015 3.10206 13.105 3.18258 13.185L7.91337 17.835C8.48711 18.405 9.4232 18.405 10.007 17.835L15.0096 12.915H2.9712ZM2.9712 11.415H16.6704L18.7137 10.405L12.3724 4.165C11.7987 3.595 10.8525 3.595 10.2788 4.165L3.19265 11.145C3.10206 11.225 3.0316 11.315 2.9712 11.415Z" fill="#646464"/>
</svg>
