<svg width="24" height="24" viewBox="0 0 24 24" fill="none" xmlns="http://www.w3.org/2000/svg">
<path d="M18.1538 21H5.84615C3.36615 21 2 19.6299 2 17.1429V6.85714C2 4.37006 3.36615 3 5.84615 3H18.1538C20.6338 3 22 4.37006 22 6.85714V17.1429C22 19.6299 20.6338 21 18.1538 21ZM5.84615 4.54286C4.22872 4.54286 3.53846 5.23509 3.53846 6.85714V17.1429C3.53846 18.7649 4.22872 19.4571 5.84615 19.4571H18.1538C19.7713 19.4571 20.4615 18.7649 20.4615 17.1429V6.85714C20.4615 5.23509 19.7713 4.54286 18.1538 4.54286H5.84615ZM17.8974 12.7714H16.359C16.359 13.3382 15.8995 13.8 15.3333 13.8C14.7672 13.8 14.3077 13.3382 14.3077 12.7714V11.2286C14.3077 10.6618 14.7672 10.2 15.3333 10.2C15.8995 10.2 16.359 10.6618 16.359 11.2286H17.8974C17.8974 9.8112 16.7477 8.65714 15.3333 8.65714C13.919 8.65714 12.7692 9.8112 12.7692 11.2286V12.7714C12.7692 14.1888 13.919 15.3429 15.3333 15.3429C16.7477 15.3429 17.8974 14.1888 17.8974 12.7714ZM11.2308 12.7714H9.69231C9.69231 13.3382 9.23282 13.8 8.66667 13.8C8.10051 13.8 7.64103 13.3382 7.64103 12.7714V11.2286C7.64103 10.6618 8.10051 10.2 8.66667 10.2C9.23282 10.2 9.69231 10.6618 9.69231 11.2286H11.2308C11.2308 9.8112 10.081 8.65714 8.66667 8.65714C7.25231 8.65714 6.10256 9.8112 6.10256 11.2286V12.7714C6.10256 14.1888 7.25231 15.3429 8.66667 15.3429C10.081 15.3429 11.2308 14.1888 11.2308 12.7714Z" fill="#646464"/>
</svg>
