<svg width="24" height="24" viewBox="0 0 24 24" fill="none" xmlns="http://www.w3.org/2000/svg">
<path d="M11.9995 22C11.9257 22 11.8518 21.9878 11.7807 21.9636C10.314 21.4704 3 18.6238 3 10.9614V5.48227C3 5.15006 3.23263 4.86241 3.55661 4.7982C8.061 3.88996 9.65787 3.09162 11.6802 2.08008C11.875 1.98237 12.1333 1.96942 12.3281 2.06713C14.3228 3.08053 15.8984 3.88158 20.4434 4.7982C20.7674 4.86334 21 5.15006 21 5.48227V10.9624C21 18.6247 13.686 21.4714 12.2193 21.9646C12.1473 21.9878 12.0734 22 11.9995 22ZM4.38455 6.05184V10.9614C4.38455 17.3499 10.3086 19.9509 11.9995 20.5623C13.6905 19.9509 19.6146 17.3489 19.6146 10.9614V6.05184C15.5338 5.19106 13.8178 4.38316 12.0133 3.47026C10.0962 4.42597 8.43204 5.19943 4.38455 6.05184ZM11.5768 14.3507L15.2689 10.6284C15.5394 10.3557 15.5394 9.91367 15.2689 9.64101C14.9985 9.36835 14.56 9.36835 14.2895 9.64101L11.0867 12.8701L9.72983 11.5022C9.45938 11.2295 9.02091 11.2295 8.75046 11.5022C8.48002 11.7748 8.48002 12.2169 8.75046 12.4895L10.5965 14.3507C10.7313 14.4866 10.9085 14.5554 11.0858 14.5554C11.263 14.5554 11.442 14.4875 11.5768 14.3507Z" fill="#646464"/>
</svg>
