<svg width="24" height="24" viewBox="0 0 24 24" fill="none" xmlns="http://www.w3.org/2000/svg">
<path d="M12 21.7499C7.727 21.7499 4.25 18.2729 4.25 13.9999C4.25 11.6789 4.914 10.0249 6.47 8.4699C6.769 8.1709 7.10599 7.87194 7.45599 7.56194C8.82999 6.34394 10.25 5.08491 10.25 3.00091C10.25 2.72391 10.402 2.46996 10.646 2.33996C10.891 2.20996 11.186 2.22394 11.416 2.37694C11.476 2.41694 16.814 6.07492 14.577 12.3779C15.034 12.0309 15.485 11.5659 15.801 10.9559C16.099 10.3799 16.25 9.72191 16.25 9.00091C16.25 8.69691 16.434 8.42194 16.716 8.30694C16.997 8.19194 17.321 8.25791 17.535 8.47491C18.943 9.9049 19.75 11.9199 19.75 14.0009C19.75 18.2729 16.273 21.7499 12 21.7499ZM11.562 4.47191C11.059 6.37191 9.63701 7.63195 8.45001 8.68395C8.12401 8.97295 7.809 9.25096 7.53 9.52996C6.265 10.795 5.75 12.0899 5.75 13.9999C5.75 17.4459 8.554 20.2499 12 20.2499C15.446 20.2499 18.25 17.4459 18.25 13.9999C18.25 12.8919 17.971 11.8089 17.459 10.8709C17.37 11.1379 17.261 11.3969 17.133 11.6449C15.903 14.0239 13.293 14.7 13.182 14.728C12.89 14.801 12.583 14.6929 12.402 14.4529C12.22 14.2129 12.199 13.8889 12.348 13.6279C14.975 9.03092 12.936 5.88791 11.562 4.47191Z" fill="#646464"/>
</svg>
