<svg width="24" height="24" viewBox="0 0 24 24" fill="none" xmlns="http://www.w3.org/2000/svg">
<path fill-rule="evenodd" clip-rule="evenodd" d="M4.96774 2C4.43327 2 4 2.43327 4 2.96774V21.0323C4 21.5667 4.43327 22 4.96774 22H14C15.4544 22 16.8493 21.4222 17.8777 20.3938C18.9061 19.3654 19.4839 17.9705 19.4839 16.5161C19.4839 15.0617 18.9061 13.6669 17.8777 12.6384C17.4342 12.195 16.9226 11.8353 16.3675 11.5696C16.4425 11.5025 16.5158 11.4331 16.5874 11.3616C17.6158 10.3331 18.1935 8.93828 18.1935 7.48387C18.1935 6.02946 17.6158 4.63461 16.5874 3.60619C15.5589 2.57776 14.1641 2 12.7097 2H4.96774ZM5.93548 12.9677V20.0645H14C14.9411 20.0645 15.8436 19.6907 16.5091 19.0252C17.1745 18.3598 17.5484 17.4572 17.5484 16.5161C17.5484 15.575 17.1745 14.6725 16.5091 14.007C15.8436 13.3416 14.9411 12.9677 14 12.9677H5.93548ZM12.7097 11.0323C13.6508 11.0323 14.5533 10.6584 15.2188 9.99296C15.8842 9.32751 16.2581 8.42496 16.2581 7.48387C16.2581 6.54278 15.8842 5.64023 15.2188 4.97478C14.5533 4.30933 13.6508 3.93548 12.7097 3.93548H5.93548V11.0323H12.7097Z" fill="#646464"/>
</svg>
