<svg width="24" height="24" viewBox="0 0 24 24" fill="none" xmlns="http://www.w3.org/2000/svg">
<path d="M21.75 6.056C21.749 6.643 21.52 7.194 21.104 7.608L7.14099 21.531C6.99999 21.671 6.81 21.75 6.612 21.75H3C2.586 21.75 2.25 21.414 2.25 21V17.389C2.25 17.191 2.32799 17 2.46899 16.86L16.392 2.896C16.805 2.48 17.357 2.251 17.944 2.25H17.947C18.533 2.25 19.084 2.47801 19.499 2.89301L21.108 4.50201C21.522 4.91701 21.751 5.469 21.75 6.056ZM17.617 8.96301L15.037 6.383L3.75 17.699V20.251H6.302L17.617 8.96301ZM20.25 6.05399C20.25 5.86799 20.178 5.69301 20.047 5.56201L18.438 3.953C18.307 3.822 18.132 3.75 17.947 3.75H17.946C17.76 3.75 17.586 3.82301 17.455 3.95401L16.096 5.319L18.681 7.90399L20.046 6.54501C20.177 6.41501 20.249 6.23999 20.25 6.05399Z" fill="#646464"/>
</svg>
