<svg width="24" height="24" viewBox="0 0 24 24" fill="none" xmlns="http://www.w3.org/2000/svg">
<path d="M10.009 10.26C7.66503 10.26 5.75903 8.35301 5.75903 6.01001C5.75903 3.66701 7.66503 1.76001 10.009 1.76001C12.353 1.76001 14.259 3.66701 14.259 6.01001C14.259 8.35301 12.353 10.26 10.009 10.26ZM10.009 3.26001C8.49203 3.26001 7.25903 4.49301 7.25903 6.01001C7.25903 7.52701 8.49203 8.76001 10.009 8.76001C11.526 8.76001 12.759 7.52701 12.759 6.01001C12.759 4.49301 11.525 3.26001 10.009 3.26001ZM11 21.26H6C3.582 21.26 2.25 19.935 2.25 17.53C2.25 14.868 3.756 11.76 8 11.76H12C12.421 11.76 12.787 11.786 13.119 11.84C13.528 11.905 13.807 12.29 13.74 12.699C13.675 13.108 13.281 13.3861 12.881 13.3201C12.629 13.2791 12.341 13.26 12 13.26H8C4.057 13.26 3.75 16.529 3.75 17.53C3.75 19.093 4.423 19.76 6 19.76H11C11.414 19.76 11.75 20.096 11.75 20.51C11.75 20.924 11.414 21.26 11 21.26ZM18 22.189C17.896 22.189 17.791 22.167 17.693 22.124C17.54 22.055 13.929 20.408 13.339 17.418C13.101 16.213 13.334 15.07 13.981 14.28C14.523 13.617 15.2991 13.265 16.2271 13.26C16.2321 13.26 16.237 13.26 16.241 13.26C17.011 13.26 17.59 13.5751 18 13.9711C18.41 13.5751 18.9891 13.26 19.7581 13.26C19.7631 13.26 19.767 13.26 19.772 13.26C20.701 13.264 21.478 13.6161 22.019 14.2791C22.665 15.0681 22.899 16.212 22.662 17.418H22.661C22.071 20.408 18.461 22.055 18.307 22.124C18.209 22.167 18.104 22.189 18 22.189ZM16.24 14.76C16.238 14.76 16.237 14.76 16.235 14.76C15.762 14.762 15.394 14.92 15.141 15.229C14.786 15.665 14.6621 16.374 14.8101 17.126C15.1651 18.926 17.213 20.178 17.999 20.599C18.785 20.179 20.833 18.926 21.188 17.127C21.335 16.373 21.2121 15.663 20.8571 15.229C20.6041 14.92 20.236 14.763 19.762 14.76C19.761 14.76 19.759 14.76 19.757 14.76C19.019 14.76 18.7361 15.481 18.7061 15.564C18.5981 15.861 18.314 16.062 17.999 16.062C17.997 16.062 17.994 16.062 17.991 16.062C17.673 16.059 17.389 15.858 17.288 15.557C17.263 15.481 16.979 14.76 16.24 14.76ZM21.925 17.272H21.9351H21.925Z" fill="#646464"/>
</svg>
