<svg width="24" height="24" viewBox="0 0 24 24" fill="none" xmlns="http://www.w3.org/2000/svg">
<path d="M9.56979 10.2927C11.8566 10.2927 13.7161 8.4322 13.7161 6.14634C13.7161 3.86049 11.8566 2 9.56979 2C7.28296 2 5.42345 3.86049 5.42345 6.14634C5.42345 8.4322 7.28296 10.2927 9.56979 10.2927ZM9.56979 3.46341C11.0498 3.46341 12.2527 4.66634 12.2527 6.14634C12.2527 7.62634 11.0498 8.82927 9.56979 8.82927C8.08979 8.82927 6.88686 7.62634 6.88686 6.14634C6.88686 4.66634 8.08979 3.46341 9.56979 3.46341ZM12.3717 13.2781C12.1258 13.2381 11.8449 13.2195 11.5122 13.2195H7.60976C3.76293 13.2195 3.46341 16.4088 3.46341 17.3854C3.46341 18.9103 4.12 19.561 5.65854 19.561H10.5366C10.9405 19.561 11.2683 19.8888 11.2683 20.2927C11.2683 20.6966 10.9405 21.0244 10.5366 21.0244H5.65854C3.29951 21.0244 2 19.7317 2 17.3854C2 14.7883 3.46927 11.7561 7.60976 11.7561H11.5122C11.9229 11.7561 12.28 11.7814 12.6039 11.8341C13.0029 11.8975 13.2751 12.2731 13.2097 12.6722C13.1463 13.0712 12.76 13.3415 12.3717 13.2781ZM17.3659 12.7317C14.8107 12.7317 12.7317 14.8107 12.7317 17.3659C12.7317 19.921 14.8107 22 17.3659 22C19.921 22 22 19.921 22 17.3659C22 14.8107 19.921 12.7317 17.3659 12.7317ZM17.3659 20.5366C15.6176 20.5366 14.1951 19.1141 14.1951 17.3659C14.1951 15.6176 15.6176 14.1951 17.3659 14.1951C19.1141 14.1951 20.5366 15.6176 20.5366 17.3659C20.5366 19.1141 19.1141 20.5366 17.3659 20.5366ZM18.9288 17.8937C19.2147 18.1786 19.2147 18.643 18.9288 18.9288C18.7864 19.0713 18.599 19.1434 18.4117 19.1434C18.2244 19.1434 18.0371 19.0722 17.8946 18.9288L16.8497 17.8839C16.7121 17.7463 16.6351 17.561 16.6351 17.3668V15.9034C16.6351 15.4995 16.9629 15.1717 17.3668 15.1717C17.7707 15.1717 18.0985 15.4995 18.0985 15.9034V17.0634L18.9288 17.8937Z" fill="#646464"/>
</svg>
