<svg width="24" height="24" viewBox="0 0 24 24" fill="none" xmlns="http://www.w3.org/2000/svg">
<path fill-rule="evenodd" clip-rule="evenodd" d="M10.1911 17.6329C10.6709 17.1532 11.3215 16.8837 12 16.8837C12.6785 16.8837 13.3291 17.1532 13.8089 17.6329C14.2886 18.1127 14.5581 18.7633 14.5581 19.4418C14.5581 20.1203 14.2886 20.7709 13.8089 21.2507C13.3291 21.7304 12.6785 21.9999 12 21.9999C11.3215 21.9999 10.6709 21.7304 10.1911 21.2507C9.71138 20.7709 9.44186 20.1203 9.44186 19.4418C9.44186 18.7633 9.71138 18.1127 10.1911 17.6329ZM12 18.279C11.6916 18.279 11.3958 18.4015 11.1778 18.6196C10.9597 18.8377 10.8372 19.1334 10.8372 19.4418C10.8372 19.7502 10.9597 20.046 11.1778 20.264C11.3958 20.4821 11.6916 20.6046 12 20.6046C12.3084 20.6046 12.6042 20.4821 12.8222 20.264C13.0403 20.046 13.1628 19.7502 13.1628 19.4418C13.1628 19.1334 13.0403 18.8377 12.8222 18.6196C12.6042 18.4015 12.3084 18.279 12 18.279Z" fill="#646464"/>
<path fill-rule="evenodd" clip-rule="evenodd" d="M10.1911 2.74926C10.6709 2.26952 11.3215 2 12 2C12.6785 2 13.3291 2.26952 13.8089 2.74926C14.2886 3.22901 14.5581 3.87968 14.5581 4.55814C14.5581 5.2366 14.2886 5.88727 13.8089 6.36702C13.3291 6.84676 12.6785 7.11628 12 7.11628C11.3215 7.11628 10.6709 6.84676 10.1911 6.36702C9.71138 5.88727 9.44186 5.2366 9.44186 4.55814C9.44186 3.87968 9.71138 3.22901 10.1911 2.74926ZM12 3.39535C11.6916 3.39535 11.3958 3.51786 11.1778 3.73592C10.9597 3.95399 10.8372 4.24975 10.8372 4.55814C10.8372 4.86653 10.9597 5.16229 11.1778 5.38036C11.3958 5.59842 11.6916 5.72093 12 5.72093C12.3084 5.72093 12.6042 5.59842 12.8222 5.38036C13.0403 5.16229 13.1628 4.86653 13.1628 4.55814C13.1628 4.24975 13.0403 3.95399 12.8222 3.73592C12.6042 3.51786 12.3084 3.39535 12 3.39535Z" fill="#646464"/>
<path fill-rule="evenodd" clip-rule="evenodd" d="M2.74926 10.1912C3.22901 9.71141 3.87968 9.44189 4.55814 9.44189C5.2366 9.44189 5.88727 9.71141 6.36702 10.1912C6.84676 10.6709 7.11628 11.3216 7.11628 12C7.11628 12.6785 6.84676 13.3292 6.36702 13.8089C5.88727 14.2887 5.2366 14.5582 4.55814 14.5582C3.87968 14.5582 3.22901 14.2887 2.74926 13.8089C2.26952 13.3292 2 12.6785 2 12C2 11.3216 2.26952 10.6709 2.74926 10.1912ZM4.55814 10.8372C4.24975 10.8372 3.95399 10.9598 3.73592 11.1778C3.51786 11.3959 3.39535 11.6916 3.39535 12C3.39535 12.3084 3.51786 12.6042 3.73592 12.8223C3.95399 13.0403 4.24975 13.1628 4.55814 13.1628C4.86653 13.1628 5.16229 13.0403 5.38036 12.8223C5.59842 12.6042 5.72093 12.3084 5.72093 12C5.72093 11.6916 5.59842 11.3959 5.38036 11.1778C5.16229 10.9598 4.86653 10.8372 4.55814 10.8372Z" fill="#646464"/>
<path fill-rule="evenodd" clip-rule="evenodd" d="M17.633 10.1912C18.1127 9.71141 18.7634 9.44189 19.4419 9.44189C20.1203 9.44189 20.771 9.71141 21.2507 10.1912C21.7305 10.6709 22 11.3216 22 12C22 12.6785 21.7305 13.3292 21.2507 13.8089C20.771 14.2887 20.1203 14.5582 19.4419 14.5582C18.7634 14.5582 18.1127 14.2887 17.633 13.8089C17.1532 13.3292 16.8837 12.6785 16.8837 12C16.8837 11.3216 17.1532 10.6709 17.633 10.1912ZM19.4419 10.8372C19.1335 10.8372 18.8377 10.9598 18.6196 11.1778C18.4016 11.3959 18.2791 11.6916 18.2791 12C18.2791 12.3084 18.4016 12.6042 18.6196 12.8223C18.8377 13.0403 19.1335 13.1628 19.4419 13.1628C19.7503 13.1628 20.046 13.0403 20.2641 12.8223C20.4821 12.6042 20.6047 12.3084 20.6047 12C20.6047 11.6916 20.4821 11.3959 20.2641 11.1778C20.046 10.9598 19.7503 10.8372 19.4419 10.8372Z" fill="#646464"/>
<path fill-rule="evenodd" clip-rule="evenodd" d="M12.902 5.4602C13.1745 5.18774 13.6162 5.18774 13.8887 5.4602L18.5398 10.1114C18.8123 10.3838 18.8123 10.8256 18.5398 11.098C18.2674 11.3705 17.8256 11.3705 17.5532 11.098L12.902 6.44686C12.6296 6.17441 12.6296 5.73266 12.902 5.4602Z" fill="#646464"/>
<path fill-rule="evenodd" clip-rule="evenodd" d="M5.46016 12.902C5.73262 12.6295 6.17436 12.6295 6.44682 12.902L11.098 17.5531C11.3704 17.8256 11.3704 18.2673 11.098 18.5398C10.8255 18.8123 10.3838 18.8123 10.1113 18.5398L5.46016 13.8886C5.1877 13.6162 5.1877 13.1744 5.46016 12.902Z" fill="#646464"/>
<path fill-rule="evenodd" clip-rule="evenodd" d="M18.5398 12.902C18.8123 13.1744 18.8123 13.6162 18.5398 13.8886L13.8887 18.5398C13.6162 18.8123 13.1745 18.8123 12.902 18.5398C12.6296 18.2673 12.6296 17.8256 12.902 17.5531L17.5532 12.902C17.8256 12.6295 18.2674 12.6295 18.5398 12.902Z" fill="#646464"/>
<path fill-rule="evenodd" clip-rule="evenodd" d="M11.098 5.4602C11.3704 5.73266 11.3704 6.17441 11.098 6.44686L6.44682 11.098C6.17436 11.3705 5.73262 11.3705 5.46016 11.098C5.1877 10.8256 5.1877 10.3838 5.46016 10.1114L10.1113 5.4602C10.3838 5.18774 10.8255 5.18774 11.098 5.4602Z" fill="#646464"/>
</svg>
