<svg width="24" height="24" viewBox="0 0 24 24" fill="none" xmlns="http://www.w3.org/2000/svg">
<path d="M20.03 8.47L14.03 2.47C13.889 2.329 13.699 2.25 13.5 2.25H7.5C5.082 2.25 3.75 3.582 3.75 6V18C3.75 20.418 5.082 21.75 7.5 21.75H16.5C18.918 21.75 20.25 20.418 20.25 18V9C20.25 8.801 20.171 8.61 20.03 8.47ZM14.25 4.811L17.689 8.25H16.5C14.923 8.25 14.25 7.577 14.25 6V4.811ZM16.5 20.25H7.5C5.923 20.25 5.25 19.577 5.25 18V6C5.25 4.423 5.923 3.75 7.5 3.75H12.75V6C12.75 8.418 14.082 9.75 16.5 9.75H18.75V18C18.75 19.577 18.077 20.25 16.5 20.25ZM15.03 11.803C15.323 12.096 15.323 12.571 15.03 12.864L11.697 16.198C11.556 16.339 11.366 16.418 11.167 16.418C10.968 16.418 10.777 16.339 10.637 16.198L8.96997 14.531C8.67697 14.238 8.67697 13.763 8.96997 13.47C9.26297 13.177 9.73801 13.177 10.031 13.47L11.168 14.607L13.9709 11.803C14.2629 11.51 14.737 11.51 15.03 11.803Z" fill="#646464"/>
</svg>
