<svg width="24" height="24" viewBox="0 0 24 24" fill="none" xmlns="http://www.w3.org/2000/svg">
<path d="M11.9989 8.1525C9.87801 8.1525 8.15297 9.87753 8.15297 11.9985C8.15297 14.1194 9.87801 15.8444 11.9989 15.8444C14.1198 15.8444 15.8449 14.1194 15.8449 11.9985C15.8449 9.87753 14.1198 8.1525 11.9989 8.1525ZM11.9989 14.306C10.7262 14.306 9.69135 13.2712 9.69135 11.9985C9.69135 10.7257 10.7262 9.69088 11.9989 9.69088C13.2717 9.69088 14.3065 10.7257 14.3065 11.9985C14.3065 13.2712 13.2717 14.306 11.9989 14.306ZM21.4425 14.0014C20.7308 13.5891 20.2877 12.822 20.2867 11.9985C20.2857 11.177 20.7257 10.4109 21.4466 9.99344C21.9748 9.68679 22.1553 9.0068 21.8497 8.47759L20.1349 5.51776C19.8293 4.98958 19.1493 4.80806 18.6201 5.11266C17.9032 5.52598 17.012 5.52598 16.2931 5.10856C15.5844 4.6973 15.1434 3.93323 15.1434 3.11379C15.1434 2.49946 14.6429 2 14.0286 2H9.97235C9.357 2 8.85756 2.49946 8.85756 3.11379C8.85756 3.93323 8.41654 4.69729 7.70581 5.1106C6.98892 5.52596 6.09872 5.52698 5.38183 5.11367C4.85161 4.80804 4.17268 4.99061 3.86705 5.51879L2.15021 8.48172C1.84458 9.0099 2.0261 9.68881 2.5594 9.99854C3.27013 10.4098 3.7132 11.1759 3.71525 11.9974C3.71731 12.8199 3.2763 13.5881 2.55633 14.0055C2.29994 14.1542 2.11533 14.3932 2.03944 14.6804C1.96355 14.9665 2.00253 15.265 2.15124 15.5224L3.86499 18.4802C4.17061 19.0094 4.85058 19.193 5.38183 18.8863C6.09872 18.473 6.98791 18.474 7.69454 18.8832L7.69658 18.8842C7.69965 18.8863 7.70274 18.8884 7.70684 18.8904C8.41552 19.3017 8.85549 20.0657 8.85446 20.8862C8.85446 21.5005 9.35392 22 9.96825 22H14.0286C14.6429 22 15.1424 21.5005 15.1424 20.8872C15.1424 20.0667 15.5834 19.3027 16.2951 18.8894C17.011 18.474 17.9012 18.472 18.6191 18.8863C19.1483 19.1919 19.8272 19.0104 20.1339 18.4822L21.8507 15.5193C22.1553 14.9891 21.9738 14.3091 21.4425 14.0014ZM19.0047 17.3592C17.8868 16.872 16.5894 16.9387 15.5208 17.5572C14.4614 18.1715 13.7619 19.2576 13.6265 20.4596H10.3682C10.2349 19.2576 9.5334 18.1694 8.47397 17.5561C7.40735 16.9377 6.10795 16.872 4.99314 17.3592L3.68449 15.0998C4.66392 14.3788 5.25567 13.222 5.25157 11.9913C5.24849 10.7688 4.65776 9.62011 3.68345 8.89912L4.99314 6.63871C6.10898 7.12484 7.4084 7.0592 8.47706 6.43975C9.53547 5.82645 10.2349 4.73935 10.3703 3.53838H13.6265C13.7609 4.74037 14.4614 5.82646 15.5229 6.44182C16.5884 7.06025 17.8878 7.12588 19.0047 6.63975L20.3144 8.89912C19.337 9.61908 18.7463 10.7739 18.7483 12.0026C18.7493 13.2271 19.3401 14.3778 20.3154 15.1008L19.0047 17.3592Z" fill="#646464"/>
</svg>
