<svg width="24" height="24" viewBox="0 0 24 24" fill="none" xmlns="http://www.w3.org/2000/svg">
<path d="M22 11.233C22.0071 10.6091 21.7848 10.0044 21.3754 9.53412C20.966 9.06387 20.3981 8.76095 19.78 8.6831C20.03 8.22821 20.3933 7.16987 20.325 4.50983C20.32 4.24197 20.2536 3.97884 20.131 3.74077C20.0083 3.5027 19.8326 3.29606 19.6175 3.13682C19.4133 2.98451 19.1769 2.88109 18.9266 2.8345C18.6762 2.78791 18.4186 2.79939 18.1733 2.86807C16.9326 3.21626 15.7704 3.80028 14.75 4.58829C14.3425 3.91065 13.8904 3.26097 13.3967 2.64354C13.2241 2.44172 13.0099 2.27969 12.7689 2.16861C12.5279 2.05752 12.2657 2 12.0004 2C11.7351 2 11.473 2.05752 11.2319 2.16861C10.9909 2.27969 10.7768 2.44172 10.6042 2.64354C10.1123 3.25978 9.66189 3.90807 9.25585 4.58411C8.23012 3.79841 7.06475 3.21494 5.82168 2.86473C5.57706 2.79612 5.31994 2.78498 5.07032 2.83218C4.8207 2.87937 4.58533 2.98362 4.38251 3.13682C4.1676 3.29567 3.99202 3.50188 3.86935 3.73952C3.74667 3.97715 3.68018 4.23986 3.67501 4.50733C3.60668 7.1682 3.97251 8.22571 4.21835 8.68059C3.60021 8.75904 3.0325 9.06254 2.6234 9.53324C2.2143 10.0039 1.99241 10.6089 2.00001 11.233C2.00001 14.8136 7.32251 17.23 9.89835 18.1898C9.5111 18.5382 9.17649 18.9411 8.90501 19.3859C8.75008 19.6454 8.66744 19.9418 8.66568 20.2442C8.66392 20.5466 8.74311 20.8439 8.89501 21.1052C9.04989 21.3766 9.27353 21.6023 9.54334 21.7594C9.81316 21.9165 10.1196 21.9995 10.4317 22H13.5683C13.8808 21.9991 14.1874 21.9156 14.4573 21.7579C14.7271 21.6002 14.9506 21.3739 15.105 21.1019C15.2569 20.8407 15.3361 20.5436 15.3345 20.2414C15.3329 19.9392 15.2505 19.6429 15.0958 19.3834C14.939 19.1262 14.7582 18.8844 14.5558 18.6614H15.3333C15.7754 18.6614 16.1993 18.8373 16.5119 19.1503C16.8244 19.4634 17 19.888 17 20.3307C17 20.5521 17.0878 20.7644 17.2441 20.9209C17.4004 21.0774 17.6123 21.1653 17.8333 21.1653C18.0544 21.1653 18.2663 21.0774 18.4226 20.9209C18.5789 20.7644 18.6667 20.5521 18.6667 20.3307C18.6646 19.6401 18.4483 18.9673 18.0477 18.4053C17.6472 17.8432 17.0822 17.4197 16.4308 17.1932C19.0125 15.9404 22 13.9122 22 11.233ZM15.6433 6.04476C16.4994 5.29549 17.5184 4.757 18.6192 4.47227C18.6192 4.47227 18.6575 4.48813 18.6592 4.54989C18.7117 6.58144 18.4808 7.65481 18.2675 7.95778C18.1454 8.13734 17.9877 8.28975 17.8042 8.4055C17.6207 8.52125 17.4153 8.59785 17.2008 8.63052C16.9966 8.65941 16.7885 8.64555 16.5899 8.58981C16.3912 8.53407 16.2062 8.43766 16.0467 8.30667C15.8677 8.18822 15.7146 8.03457 15.5967 7.85504C15.4788 7.67552 15.3985 7.47387 15.3608 7.26233C15.3231 7.0508 15.3287 6.83379 15.3772 6.62448C15.4258 6.41518 15.5163 6.21795 15.6433 6.04476ZM11.91 3.68102C11.9208 3.66731 11.9345 3.65622 11.9502 3.6486C11.9658 3.64097 11.983 3.63701 12.0004 3.63701C12.0178 3.63701 12.035 3.64097 12.0507 3.6486C12.0664 3.65622 12.0801 3.66731 12.0908 3.68102C12.7259 4.4403 13.2655 5.2748 13.6975 6.16578C13.7147 6.19493 13.7339 6.22282 13.755 6.24925C13.661 6.65826 13.65 7.08201 13.7225 7.49539C13.5843 7.82685 13.3536 8.1114 13.0581 8.31501C12.7627 8.51862 12.4149 8.63266 12.0564 8.64349C11.6979 8.65432 11.3439 8.56148 11.0367 8.37608C10.7295 8.19068 10.4821 7.92056 10.3242 7.59805C10.3059 7.5714 10.2861 7.54577 10.265 7.52126C10.3433 7.10962 10.3382 6.68642 10.25 6.27679C10.2544 6.27041 10.2583 6.26372 10.2617 6.25676C10.6941 5.32849 11.2485 4.46224 11.91 3.68102ZM5.34085 4.54906C5.34049 4.53476 5.34313 4.52054 5.34858 4.50731C5.35403 4.49409 5.36218 4.48215 5.37251 4.47227C6.4806 4.75579 7.50766 5.29356 8.37251 6.04309C8.49565 6.21976 8.58213 6.41939 8.62683 6.63014C8.67153 6.8409 8.67354 7.0585 8.63275 7.27005C8.59195 7.4816 8.50917 7.68279 8.38932 7.86172C8.26947 8.04064 8.11498 8.19365 7.93501 8.31168C7.77721 8.44196 7.59408 8.53796 7.39725 8.59356C7.20042 8.64917 6.9942 8.66318 6.79168 8.63469C6.57817 8.60232 6.37371 8.52588 6.19124 8.41022C6.00877 8.29456 5.85228 8.1422 5.73168 7.96279C5.51835 7.65564 5.28835 6.58144 5.34085 4.54906ZM13.5683 20.3307H10.4317C10.38 20.3307 10.3483 20.2923 10.3383 20.2339C10.7565 19.6004 11.3166 19.0736 11.9742 18.6956C12.6573 19.0746 13.2355 19.6178 13.6567 20.2764C13.648 20.2925 13.6353 20.3059 13.6198 20.3155C13.6043 20.325 13.5865 20.3302 13.5683 20.3307ZM14.23 16.3319C14.7575 15.5646 15.1287 14.7006 15.3225 13.7895C15.3585 13.571 15.3064 13.3472 15.1777 13.1671C15.0489 12.9871 14.854 12.8657 14.6358 12.8297C14.4177 12.7936 14.1942 12.8458 14.0145 12.9747C13.8347 13.1037 13.7135 13.2989 13.6775 13.5174C13.3601 14.6432 12.79 15.6815 12.0108 16.5531C11.2405 15.6528 10.663 14.6037 10.3142 13.4707C10.2902 13.3637 10.2454 13.2625 10.1824 13.1728C10.1194 13.0832 10.0394 13.0069 9.94691 12.9482C9.85444 12.8895 9.75134 12.8497 9.64349 12.8309C9.53564 12.8121 9.42516 12.8148 9.31835 12.8388C9.21154 12.8628 9.1105 12.9077 9.02099 12.9708C8.93148 13.0339 8.85527 13.1141 8.79669 13.2067C8.73811 13.2993 8.69832 13.4026 8.67959 13.5106C8.66085 13.6186 8.66355 13.7293 8.68751 13.8363C8.92127 14.7326 9.30413 15.583 9.82001 16.3519C7.25001 15.2936 3.66668 13.353 3.66668 11.233C3.66295 11.1127 3.68361 10.9928 3.72741 10.8807C3.77121 10.7687 3.83724 10.6666 3.92152 10.5808C4.00579 10.495 4.10656 10.4272 4.21774 10.3815C4.32891 10.3358 4.44818 10.3131 4.56835 10.3148H19.4317C19.5518 10.3131 19.6711 10.3358 19.7823 10.3815C19.8935 10.4272 19.9942 10.495 20.0785 10.5808C20.1628 10.6666 20.2288 10.7687 20.2726 10.8807C20.3164 10.9928 20.3371 11.1127 20.3333 11.233C20.3333 13.3388 16.7958 15.2685 14.23 16.3319Z" fill="#646464"/>
</svg>
