<svg width="24" height="24" viewBox="0 0 24 24" fill="none" xmlns="http://www.w3.org/2000/svg">
<path d="M14.5015 6.1616C14.5015 6.38261 14.4137 6.59458 14.2574 6.75086C14.1012 6.90714 13.8892 6.99493 13.6682 6.99493H10.3349C10.1138 6.99493 9.90188 6.90714 9.7456 6.75086C9.58932 6.59458 9.50152 6.38261 9.50152 6.1616C9.50152 5.94059 9.58932 5.72863 9.7456 5.57235C9.90188 5.41607 10.1138 5.32827 10.3349 5.32827H13.6682C13.8892 5.32827 14.1012 5.41607 14.2574 5.57235C14.4137 5.72863 14.5015 5.94059 14.5015 6.1616ZM19.5015 6.7616V15.4758C19.5012 16.5228 19.1067 17.5314 18.3965 18.3008L19.4382 20.8458C19.4796 20.9471 19.5007 21.0556 19.5002 21.1651C19.4996 21.2746 19.4776 21.3829 19.4352 21.4838C19.3928 21.5847 19.331 21.6764 19.2532 21.7534C19.1755 21.8305 19.0833 21.8914 18.9819 21.9329C18.8806 21.9743 18.7721 21.9953 18.6626 21.9948C18.5532 21.9943 18.4448 21.9722 18.3439 21.9299C18.243 21.8875 18.1513 21.8257 18.0743 21.7479C17.9973 21.6701 17.9363 21.5779 17.8949 21.4766L17.0015 19.2824C15.4364 20.0078 13.7261 20.3655 12.0015 20.3283C10.2769 20.3652 8.56673 20.0075 7.00152 19.2824L6.10735 21.4766C6.06697 21.5793 6.00657 21.673 5.92967 21.7522C5.85277 21.8314 5.7609 21.8946 5.65939 21.938C5.55788 21.9814 5.44877 22.0042 5.33838 22.0051C5.22798 22.0059 5.11852 21.9849 5.01634 21.9431C4.91416 21.9013 4.8213 21.8396 4.74316 21.7616C4.66501 21.6836 4.60314 21.5909 4.56113 21.4888C4.51913 21.3867 4.49783 21.2773 4.49847 21.1669C4.4991 21.0565 4.52167 20.9474 4.56485 20.8458L5.60569 18.3008C4.89579 17.5313 4.50159 16.5227 4.50152 15.4758V6.7616C4.49879 5.8778 4.77817 5.01619 5.29901 4.30216C5.81984 3.58813 6.55495 3.05894 7.39735 2.7916C8.88226 2.29197 10.4351 2.02328 12.0015 1.99493C13.5681 2.02305 15.121 2.29203 16.6057 2.79243C17.4482 3.05938 18.1834 3.58836 18.7043 4.3023C19.2252 5.01624 19.5045 5.87785 19.5015 6.7616ZM17.8349 11.7758C16.5407 13.7158 14.5432 15.3283 12.0015 15.3283C9.45985 15.3283 7.46235 13.7158 6.16819 11.7758V15.4758C6.16424 15.9176 6.2791 16.3523 6.50077 16.7345C6.72243 17.1167 7.04274 17.4323 7.42819 17.6483C8.84332 18.3648 10.4162 18.7133 12.0015 18.6616C13.5866 18.7135 15.1593 18.365 16.574 17.6483C16.9597 17.4325 17.2802 17.1169 17.502 16.7347C17.7239 16.3525 17.8388 15.9177 17.8349 15.4758V11.7758ZM17.8349 6.99493V6.7616C17.8367 6.23155 17.6693 5.71474 17.3571 5.28638C17.0449 4.85803 16.6042 4.54047 16.099 4.37993C14.778 3.93234 13.3961 3.69008 12.0015 3.6616C10.6071 3.69028 9.22524 3.93225 7.90402 4.3791C7.39886 4.53991 6.95816 4.85765 6.64599 5.28612C6.33381 5.7146 6.16644 6.23147 6.16819 6.7616V6.99493C6.16819 9.03077 8.37235 13.6616 12.0015 13.6616C15.6307 13.6616 17.8349 9.03077 17.8349 6.99493ZM12.0015 16.1616C11.8367 16.1616 11.6756 16.2105 11.5385 16.302C11.4015 16.3936 11.2947 16.5238 11.2316 16.676C11.1685 16.8283 11.152 16.9959 11.1842 17.1575C11.2164 17.3192 11.2957 17.4676 11.4123 17.5842C11.5288 17.7007 11.6773 17.7801 11.8389 17.8123C12.0006 17.8444 12.1682 17.8279 12.3204 17.7648C12.4727 17.7018 12.6028 17.595 12.6944 17.4579C12.786 17.3209 12.8349 17.1598 12.8349 16.9949C12.8349 16.7739 12.7471 16.562 12.5908 16.4057C12.4345 16.2494 12.2225 16.1616 12.0015 16.1616Z" fill="#646464"/>
</svg>
