<svg width="24" height="24" viewBox="0 0 24 24" fill="none" xmlns="http://www.w3.org/2000/svg">
<path fill-rule="evenodd" clip-rule="evenodd" d="M9.77767 6.34911C10.3671 5.75971 11.1665 5.42859 12 5.42859C12.8335 5.42859 13.6329 5.75971 14.2223 6.34911C14.8117 6.93851 15.1429 7.73791 15.1429 8.57145C15.1429 9.40498 14.8117 10.2044 14.2223 10.7938C13.6329 11.3832 12.8335 11.7143 12 11.7143C11.1665 11.7143 10.3671 11.3832 9.77767 10.7938C9.18827 10.2044 8.85715 9.40498 8.85715 8.57145C8.85715 7.73791 9.18827 6.93851 9.77767 6.34911ZM12 7.14287C11.6211 7.14287 11.2578 7.29338 10.9899 7.56129C10.7219 7.8292 10.5714 8.19257 10.5714 8.57145C10.5714 8.95033 10.7219 9.31369 10.9899 9.5816C11.2578 9.84951 11.6211 10 12 10C12.3789 10 12.7422 9.84951 13.0102 9.5816C13.2781 9.31369 13.4286 8.95033 13.4286 8.57145C13.4286 8.19257 13.2781 7.8292 13.0102 7.56129C12.7422 7.29338 12.3789 7.14287 12 7.14287Z" fill="#646464"/>
<path fill-rule="evenodd" clip-rule="evenodd" d="M5.14286 3.71429C4.76398 3.71429 4.40061 3.8648 4.1327 4.1327C3.8648 4.40061 3.71429 4.76398 3.71429 5.14286V7.42857C3.71429 7.90196 3.33053 8.28571 2.85714 8.28571C2.38376 8.28571 2 7.90196 2 7.42857V5.14286C2 4.30932 2.33112 3.50992 2.92052 2.92052C3.50992 2.33112 4.30932 2 5.14286 2H7.42857C7.90196 2 8.28571 2.38376 8.28571 2.85714C8.28571 3.33053 7.90196 3.71429 7.42857 3.71429H5.14286Z" fill="#646464"/>
<path fill-rule="evenodd" clip-rule="evenodd" d="M2.85714 15.7142C3.33053 15.7142 3.71429 16.098 3.71429 16.5714V18.8571C3.71429 19.236 3.8648 19.5993 4.1327 19.8672C4.40061 20.1352 4.76398 20.2857 5.14286 20.2857H7.42857C7.90196 20.2857 8.28571 20.6694 8.28571 21.1428C8.28571 21.6162 7.90196 21.9999 7.42857 21.9999H5.14286C4.30932 21.9999 3.50992 21.6688 2.92052 21.0794C2.33112 20.49 2 19.6906 2 18.8571V16.5714C2 16.098 2.38376 15.7142 2.85714 15.7142Z" fill="#646464"/>
<path fill-rule="evenodd" clip-rule="evenodd" d="M15.7143 2.85714C15.7143 2.38376 16.0981 2 16.5714 2H18.8572C19.6907 2 20.4901 2.33112 21.0795 2.92052C21.6689 3.50992 22 4.30932 22 5.14286V7.42857C22 7.90196 21.6163 8.28571 21.1429 8.28571C20.6695 8.28571 20.2857 7.90196 20.2857 7.42857V5.14286C20.2857 4.76398 20.1352 4.40061 19.8673 4.1327C19.5994 3.8648 19.236 3.71429 18.8572 3.71429H16.5714C16.0981 3.71429 15.7143 3.33053 15.7143 2.85714Z" fill="#646464"/>
<path fill-rule="evenodd" clip-rule="evenodd" d="M21.1429 15.7142C21.6163 15.7142 22 16.098 22 16.5714V18.8571C22 19.6906 21.6689 20.49 21.0795 21.0794C20.4901 21.6688 19.6907 21.9999 18.8572 21.9999H16.5714C16.0981 21.9999 15.7143 21.6162 15.7143 21.1428C15.7143 20.6694 16.0981 20.2857 16.5714 20.2857H18.8572C19.236 20.2857 19.5994 20.1352 19.8673 19.8672C20.1352 19.5993 20.2857 19.236 20.2857 18.8571V16.5714C20.2857 16.098 20.6695 15.7142 21.1429 15.7142Z" fill="#646464"/>
<path fill-rule="evenodd" clip-rule="evenodd" d="M9.7143 15.1429C9.33542 15.1429 8.97206 15.2934 8.70415 15.5613C8.43624 15.8292 8.28573 16.1926 8.28573 16.5714C8.28573 17.0448 7.90197 17.4286 7.42858 17.4286C6.9552 17.4286 6.57144 17.0448 6.57144 16.5714C6.57144 15.7379 6.90256 14.9385 7.49196 14.3491C8.08136 13.7597 8.88076 13.4286 9.7143 13.4286H14.2857C15.1193 13.4286 15.9187 13.7597 16.5081 14.3491C17.0975 14.9385 17.4286 15.7379 17.4286 16.5714C17.4286 17.0448 17.0448 17.4286 16.5714 17.4286C16.0981 17.4286 15.7143 17.0448 15.7143 16.5714C15.7143 16.1926 15.5638 15.8292 15.2959 15.5613C15.028 15.2934 14.6646 15.1429 14.2857 15.1429H9.7143Z" fill="#646464"/>
</svg>
