<svg width="24" height="24" viewBox="0 0 24 24" fill="none" xmlns="http://www.w3.org/2000/svg">
<path d="M19.9072 9.44211C21.0615 9.44211 22 8.50359 22 7.34928C22 6.19497 21.0615 5.25645 19.9072 5.25645C18.9994 5.25645 18.232 5.84152 17.9427 6.65167H14.5402C14.45 5.48527 13.6938 4.79138 12.4651 4.79138H11.535C10.3062 4.79138 9.55094 5.48527 9.45978 6.65167H6.05729C5.76802 5.84152 5.00158 5.25645 4.09283 5.25645C2.93852 5.25645 2 6.19497 2 7.34928C2 8.50359 2.93852 9.44211 4.09283 9.44211C5.00065 9.44211 5.76802 8.85705 6.05729 8.04689H7.53994C5.91405 9.31189 4.96905 11.4028 4.83046 14.1077C3.6408 14.184 2.93111 14.943 2.93111 16.1857V17.1158C2.93111 18.4264 3.71336 19.2086 5.02394 19.2086H5.95408C7.26466 19.2086 8.04691 18.4264 8.04691 17.1158V16.1857C8.04691 14.9644 7.36042 14.211 6.20797 14.1124C6.31772 12.1805 6.96326 9.51093 9.53047 8.48219C9.76021 9.38164 10.469 9.90718 11.535 9.90718H12.4651C13.532 9.90718 14.2398 9.38257 14.4695 8.48219C17.0367 9.51093 17.6823 12.1805 17.792 14.1124C16.6387 14.21 15.9531 14.9644 15.9531 16.1857V17.1158C15.9531 18.4264 16.7354 19.2086 18.046 19.2086H18.9761C20.2867 19.2086 21.0689 18.4264 21.0689 17.1158V16.1857C21.0689 14.943 20.3592 14.184 19.1695 14.1077C19.0309 11.4028 18.086 9.31189 16.4601 8.04689H17.9427C18.232 8.85705 18.9994 9.44211 19.9072 9.44211ZM6.6526 16.1857V17.1158C6.6526 17.6637 6.50285 17.8134 5.95499 17.8134H5.02485C4.47699 17.8134 4.32724 17.6637 4.32724 17.1158V16.1857C4.32724 15.6378 4.47699 15.4881 5.02485 15.4881H5.95499C6.50285 15.4881 6.6526 15.6378 6.6526 16.1857ZM19.6746 16.1857V17.1158C19.6746 17.6637 19.5249 17.8134 18.977 17.8134H18.0469C17.499 17.8134 17.3493 17.6637 17.3493 17.1158V16.1857C17.3493 15.6378 17.499 15.4881 18.0469 15.4881H18.977C19.5249 15.4881 19.6746 15.6378 19.6746 16.1857ZM19.9072 6.65167C20.2923 6.65167 20.6048 6.9642 20.6048 7.34928C20.6048 7.73436 20.2923 8.04689 19.9072 8.04689C19.5221 8.04689 19.2096 7.73436 19.2096 7.34928C19.2096 6.9642 19.5221 6.65167 19.9072 6.65167ZM4.0947 8.04689C3.70962 8.04689 3.39709 7.73436 3.39709 7.34928C3.39709 6.9642 3.70962 6.65167 4.0947 6.65167C4.47978 6.65167 4.79231 6.9642 4.79231 7.34928C4.79231 7.73436 4.47978 8.04689 4.0947 8.04689ZM13.1636 7.81435C13.1636 8.36221 13.0139 8.51196 12.466 8.51196H11.5359C10.988 8.51196 10.8383 8.36221 10.8383 7.81435V6.88421C10.8383 6.33635 10.988 6.1866 11.5359 6.1866H12.466C13.0139 6.1866 13.1636 6.33635 13.1636 6.88421V7.81435Z" fill="#646464"/>
</svg>
