<svg width="24" height="24" viewBox="0 0 24 24" fill="none" xmlns="http://www.w3.org/2000/svg">
<path d="M12 2C7.03714 2 3 6.02564 3 10.9744C3 16.2236 7.83119 19.4051 11.028 21.5107L11.5721 21.8708C11.7017 21.9569 11.8509 22 12 22C12.1491 22 12.2983 21.9569 12.4279 21.8708L12.972 21.5107C16.1688 19.4051 21 16.2236 21 10.9744C21 6.02564 16.9629 2 12 2ZM12.1224 20.2267L12 20.3078L11.8776 20.2267C8.7816 18.1877 4.54286 15.3959 4.54286 10.9744C4.54286 6.87385 7.88777 3.53846 12 3.53846C16.1122 3.53846 19.4571 6.87385 19.4571 10.9744C19.4571 15.3959 15.2174 18.1887 12.1224 20.2267ZM12 7.64103C10.1568 7.64103 8.65714 9.13641 8.65714 10.9744C8.65714 12.8123 10.1568 14.3077 12 14.3077C13.8432 14.3077 15.3429 12.8123 15.3429 10.9744C15.3429 9.13641 13.8432 7.64103 12 7.64103ZM12 12.7692C11.0074 12.7692 10.2 11.9641 10.2 10.9744C10.2 9.98462 11.0074 9.17949 12 9.17949C12.9926 9.17949 13.8 9.98462 13.8 10.9744C13.8 11.9641 12.9926 12.7692 12 12.7692Z" fill="#646464"/>
</svg>
