<svg width="24" height="24" viewBox="0 0 24 24" fill="none" xmlns="http://www.w3.org/2000/svg">
<path d="M9.2973 9.01429C9.7451 9.01429 10.1081 9.37885 10.1081 9.82857V9.83943C10.1081 10.2891 9.7451 10.6537 9.2973 10.6537C8.8495 10.6537 8.48649 10.2891 8.48649 9.83943V9.82857C8.48649 9.37885 8.8495 9.01429 9.2973 9.01429Z" fill="#646464"/>
<path fill-rule="evenodd" clip-rule="evenodd" d="M4.13733 4.64649C5.50584 3.27212 7.36193 2.5 9.2973 2.5C11.2327 2.5 13.0888 3.27212 14.4573 4.64649C15.8258 6.02086 16.5946 7.88491 16.5946 9.82857C16.5946 11.6183 15.9427 13.3405 14.7711 14.6751C15.1238 14.8236 15.4481 15.0405 15.7238 15.3174C16.0479 15.6428 16.2894 16.0356 16.4348 16.463C16.9793 16.3073 17.4974 16.0652 17.9689 15.7446C18.655 15.278 19.2238 14.6576 19.6304 13.9325C20.0371 13.2074 20.2704 12.3973 20.312 11.5661C20.3462 10.8827 20.25 10.2004 20.0301 9.55553C19.5567 9.53591 19.1067 9.33845 18.7703 9.00065C18.4155 8.64433 18.2162 8.16105 18.2162 7.65714C18.2162 7.15323 18.4155 6.66996 18.7703 6.31364C19.1251 5.95732 19.6063 5.75714 20.1081 5.75714C20.6099 5.75714 21.0911 5.95732 21.4459 6.31364C21.8007 6.66996 22 7.15323 22 7.65714C22 8.12226 21.8302 8.56979 21.525 8.91614C21.8393 9.78912 21.9781 10.7178 21.9316 11.6479C21.8773 12.731 21.5733 13.7867 21.0434 14.7316C20.5135 15.6766 19.7723 16.485 18.8781 17.0931C18.1821 17.5664 17.4082 17.9083 16.5946 18.1042V18.5143C16.5946 19.3061 16.2814 20.0656 15.7238 20.6255C15.1663 21.1854 14.4101 21.5 13.6216 21.5H4.97297C4.18449 21.5 3.4283 21.1854 2.87076 20.6255C2.31322 20.0656 2 19.3061 2 18.5143V17.4286C2 16.6367 2.31322 15.8773 2.87076 15.3174C3.14647 15.0405 3.47076 14.8236 3.82351 14.6751C2.65185 13.3405 2 11.6183 2 9.82857C2 7.88491 2.76882 6.02086 4.13733 4.64649ZM14.9729 17.4197L14.973 17.4379V18.5143C14.973 18.8742 14.8306 19.2194 14.5772 19.4739C14.3237 19.7284 13.98 19.8714 13.6216 19.8714H4.97297C4.61457 19.8714 4.27085 19.7284 4.01742 19.4739C3.764 19.2194 3.62162 18.8742 3.62162 18.5143V17.4286C3.62162 17.0686 3.764 16.7234 4.01742 16.4689C4.27085 16.2144 4.61457 16.0714 4.97297 16.0714H5.47505C6.61539 16.7756 7.93676 17.1571 9.2973 17.1571C10.6578 17.1571 11.9792 16.7756 13.1195 16.0714H13.6216C13.98 16.0714 14.3237 16.2144 14.5772 16.4689C14.8285 16.7213 14.9706 17.063 14.9729 17.4197ZM9.2973 4.12857C7.79201 4.12857 6.34838 4.72911 5.28399 5.79806C4.21959 6.86702 3.62162 8.31684 3.62162 9.82857C3.62162 11.3403 4.21959 12.7901 5.28399 13.8591C6.34838 14.928 7.79201 15.5286 9.2973 15.5286C10.8026 15.5286 12.2462 14.928 13.3106 13.8591C14.375 12.7901 14.973 11.3403 14.973 9.82857C14.973 8.31684 14.375 6.86702 13.3106 5.79806C12.2462 4.72911 10.8026 4.12857 9.2973 4.12857Z" fill="#646464"/>
</svg>
