<svg width="24" height="24" viewBox="0 0 24 24" fill="none" xmlns="http://www.w3.org/2000/svg">
<path fill-rule="evenodd" clip-rule="evenodd" d="M5.71761 21.9545C6.34381 22.0599 6.98715 21.9814 7.56962 21.7285C11.2586 20.1119 14.6085 17.8119 17.4423 14.9498C20.2849 12.1073 21.9822 8.51519 21.9822 5.3395C22.029 4.8916 21.9753 4.43889 21.8248 4.01442C21.6744 3.58995 21.4311 3.20442 21.1126 2.88598C20.7942 2.56754 20.4087 2.32422 19.9842 2.17378C19.5597 2.02334 19.107 1.96957 18.6591 2.0164C15.4843 2.0164 11.8922 3.71376 9.04878 6.55631C6.18933 9.39121 3.88992 12.7397 2.27098 16.4265C2.01987 17.01 1.94194 17.6535 2.04649 18.2801C2.15105 18.9067 2.43367 19.4899 2.86065 19.9603C3.2333 20.333 3.39311 20.4909 3.54195 20.638C3.67191 20.7664 3.79383 20.8868 4.04164 21.1346C4.50923 21.5643 5.09141 21.8491 5.71761 21.9545ZM18.6591 3.26569H18.7243L18.789 3.25891C19.052 3.23142 19.3177 3.26298 19.5669 3.3513C19.816 3.43961 20.0423 3.58244 20.2293 3.76936C20.4162 3.95629 20.559 4.18259 20.6473 4.43176C20.7356 4.68093 20.7672 4.94667 20.7397 5.20959L20.7329 5.27437V5.3395C20.7329 8.10132 19.2328 11.3926 16.5589 14.0665L16.5546 14.0708C13.8322 16.8203 10.6143 19.0299 7.07061 20.5832C6.71022 20.7393 6.31231 20.7877 5.92498 20.7225C5.54475 20.6585 5.19073 20.4877 4.90409 20.2303C4.85583 20.1821 4.81241 20.1388 4.77278 20.0992L11.5897 13.2824C11.8336 13.0384 11.8336 12.6429 11.5897 12.399C11.3457 12.155 10.9502 12.155 10.7063 12.399L3.88623 19.219C3.8494 19.1823 3.81006 19.143 3.76788 19.1008C3.51196 18.8114 3.34238 18.4558 3.27874 18.0744C3.21387 17.6857 3.26183 17.2865 3.41688 16.9241C4.97258 13.383 7.1816 10.1667 9.92834 7.44348L9.93203 7.43981C12.6069 4.76574 15.8982 3.26569 18.6591 3.26569Z" fill="#646464"/>
</svg>
