<svg width="24" height="24" viewBox="0 0 24 24" fill="none" xmlns="http://www.w3.org/2000/svg">
<path fill-rule="evenodd" clip-rule="evenodd" d="M11 4.22054C10.9739 4.20972 10.946 4.20424 10.9177 4.2044C10.89 4.20456 10.8625 4.21018 10.837 4.22095C10.8365 4.22113 10.8361 4.22131 10.8357 4.22149L3.65754 7.34799C3.59685 7.37557 3.55101 7.42437 3.52759 7.48379C3.5034 7.54517 3.50427 7.6136 3.53003 7.67434L3.53264 7.68048L8.49352 19.6727C8.50396 19.699 8.5195 19.7229 8.53932 19.743C8.55915 19.7631 8.58281 19.779 8.6089 19.7898C8.635 19.8007 8.66299 19.8061 8.69123 19.806C8.71913 19.8058 8.74671 19.8001 8.77238 19.7892C8.77271 19.7891 8.77303 19.7889 8.77335 19.7888L15.9493 16.6628C15.9499 16.6626 15.9505 16.6623 15.9511 16.662C16.0105 16.635 16.0572 16.586 16.0811 16.5252C16.1053 16.4638 16.1044 16.3954 16.0787 16.3346L16.0761 16.3285L11.1153 4.33757C11.1049 4.31136 11.0893 4.28747 11.0695 4.26738C11.0497 4.24728 11.0261 4.23136 11 4.22054ZM10.909 2.69436C11.1388 2.69303 11.3665 2.73772 11.5788 2.8258C11.791 2.91387 11.9835 3.04354 12.1448 3.20718C12.3048 3.36947 12.431 3.5619 12.516 3.77331L17.4704 15.7486C17.6492 16.1729 17.6549 16.6505 17.486 17.079C17.3166 17.5086 16.9853 17.8546 16.5634 18.0424L16.5579 18.0448L9.373 21.1747L9.36959 21.1762C9.15828 21.267 8.93092 21.3145 8.70093 21.316C8.47093 21.3175 8.24298 21.2728 8.03053 21.1847C7.81808 21.0967 7.62543 20.9669 7.46396 20.8031C7.30386 20.6407 7.17763 20.4481 7.0926 20.2366L2.13981 8.26388C2.13931 8.26271 2.13882 8.26153 2.13832 8.26036C1.95947 7.83605 1.95384 7.35851 2.12273 6.93003C2.29263 6.499 2.62475 6.15479 3.04534 5.96759L3.05086 5.96513L10.2408 2.83354C10.452 2.74301 10.6792 2.6957 10.909 2.69436Z" fill="#646464"/>
<path fill-rule="evenodd" clip-rule="evenodd" d="M14.0698 3.43899C14.0698 3.022 14.4078 2.68396 14.8248 2.68396H15.8315C16.2987 2.68396 16.7468 2.86957 17.0772 3.19996C17.4076 3.53035 17.5932 3.97846 17.5932 4.4457V7.96917C17.5932 8.38616 17.2552 8.7242 16.8382 8.7242C16.4212 8.7242 16.0832 8.38616 16.0832 7.96917V4.4457C16.0832 4.37895 16.0567 4.31493 16.0095 4.26773C15.9623 4.22054 15.8982 4.19402 15.8315 4.19402H14.8248C14.4078 4.19402 14.0698 3.85598 14.0698 3.43899Z" fill="#646464"/>
<path fill-rule="evenodd" clip-rule="evenodd" d="M19.1633 5.15755C19.3262 4.77368 19.7694 4.59451 20.1532 4.75736C20.4137 4.86785 20.6656 4.97116 20.909 5.06735L20.9264 5.0745C21.3565 5.25699 21.6965 5.60283 21.8716 6.03596C22.0467 6.46909 22.0426 6.95404 21.8602 7.38414L21.8593 7.38619L21.8593 7.38619L19.5459 12.7962C19.3819 13.1796 18.9382 13.3575 18.5548 13.1936C18.1714 13.0296 17.9935 12.5859 18.1574 12.2025L20.47 6.79453C20.4701 6.79431 20.4702 6.79408 20.4703 6.79385C20.496 6.73258 20.4965 6.66358 20.4716 6.60194C20.4474 6.54199 20.401 6.49375 20.3423 6.46709C20.0901 6.3673 19.8305 6.26076 19.5635 6.1475C19.1796 5.98464 19.0004 5.54143 19.1633 5.15755Z" fill="#646464"/>
</svg>
