<svg width="24" height="24" viewBox="0 0 24 24" fill="none" xmlns="http://www.w3.org/2000/svg">
<path d="M16.8718 7.14874V3.79487C16.8718 2.80513 16.0667 2 15.0769 2H8.92309C7.93335 2 7.12822 2.80513 7.12822 3.79487V7.14874C5.84206 7.24823 5.07693 8.08205 5.07693 9.4359V18.1538C5.07693 20.6338 6.44309 22 8.92309 22H15.0769C17.5569 22 18.9231 20.6338 18.9231 18.1538V9.4359C18.9231 8.08103 18.158 7.24823 16.8718 7.14874ZM8.92309 3.53846H15.0769C15.2185 3.53846 15.3333 3.65333 15.3333 3.79487V7.12821H8.66668V3.79487C8.66668 3.65333 8.78155 3.53846 8.92309 3.53846ZM17.3846 18.1538C17.3846 19.7713 16.6944 20.4615 15.0769 20.4615H8.92309C7.30565 20.4615 6.6154 19.7713 6.6154 18.1538V9.4359C6.6154 8.8318 6.78052 8.66667 7.38463 8.66667H16.6154C17.2195 8.66667 17.3846 8.8318 17.3846 9.4359V18.1538ZM14.3077 17.1282C14.3077 17.5528 13.9631 17.8974 13.5385 17.8974H10.4616C10.0369 17.8974 9.69232 17.5528 9.69232 17.1282C9.69232 16.7036 10.0369 16.359 10.4616 16.359H13.5385C13.9631 16.359 14.3077 16.7036 14.3077 17.1282ZM9.69232 5.33333C9.69232 4.90872 10.0369 4.5641 10.4616 4.5641C10.8862 4.5641 11.2308 4.90872 11.2308 5.33333C11.2308 5.75795 10.8862 6.10256 10.4616 6.10256C10.0369 6.10256 9.69232 5.75795 9.69232 5.33333ZM12.7692 5.33333C12.7692 4.90872 13.1139 4.5641 13.5385 4.5641C13.9631 4.5641 14.3077 4.90872 14.3077 5.33333C14.3077 5.75795 13.9631 6.10256 13.5385 6.10256C13.1139 6.10256 12.7692 5.75795 12.7692 5.33333Z" fill="#646464"/>
</svg>
