<svg width="24" height="24" viewBox="0 0 24 24" fill="none" xmlns="http://www.w3.org/2000/svg">
<path d="M18.6532 8.66667C17.7698 8.66667 16.9225 8.31548 16.2978 7.69036C15.6731 7.06524 15.3221 6.21739 15.3221 5.33333C15.3221 4.44928 15.6731 3.60143 16.2978 2.97631C16.9225 2.35119 17.7698 2 18.6532 2C19.5367 2 20.3839 2.35119 21.0086 2.97631C21.6333 3.60143 21.9843 4.44928 21.9843 5.33333C21.9843 6.21739 21.6333 7.06524 21.0086 7.69036C20.3839 8.31548 19.5367 8.66667 18.6532 8.66667ZM18.6532 3.66667C18.2115 3.66667 17.7879 3.84226 17.4755 4.15482C17.1632 4.46738 16.9877 4.89131 16.9877 5.33333C16.9877 5.77536 17.1632 6.19928 17.4755 6.51185C17.7879 6.82441 18.2115 7 18.6532 7C19.0949 7 19.5186 6.82441 19.8309 6.51185C20.1433 6.19928 20.3188 5.77536 20.3188 5.33333C20.3188 4.89131 20.1433 4.46738 19.8309 4.15482C19.5186 3.84226 19.0949 3.66667 18.6532 3.66667ZM19.8624 22H12.4816C12.1082 22.0033 11.7406 21.9079 11.4158 21.7236C11.0911 21.5392 10.8207 21.2724 10.632 20.95C10.447 20.6393 10.3474 20.2853 10.3432 19.9237C10.3389 19.5621 10.4302 19.2058 10.6078 18.8908L14.302 12.2583C14.4922 11.9296 14.7655 11.6567 15.0943 11.467C15.4232 11.2773 15.7961 11.1774 16.1757 11.1774C16.5553 11.1774 16.9283 11.2773 17.2571 11.467C17.586 11.6567 17.8592 11.9296 18.0495 12.2583L21.7345 18.8858C21.9124 19.2012 22.004 19.5581 21.9999 19.9202C21.9958 20.2824 21.8962 20.637 21.7111 20.9483C21.5225 21.2707 21.2523 21.5377 20.9277 21.7223C20.6032 21.9069 20.2357 22.0027 19.8624 22ZM16.1741 12.8333C16.0898 12.8313 16.0067 12.8522 15.9333 12.8937C15.86 12.9353 15.7993 12.9959 15.7577 13.0692L12.0635 19.7017C12.0278 19.7632 12.0094 19.8333 12.0103 19.9044C12.0112 19.9756 12.0313 20.0452 12.0685 20.1058C12.1112 20.1776 12.1723 20.2366 12.2456 20.2766C12.3188 20.3167 12.4015 20.3362 12.4849 20.3333H19.8657C19.9493 20.3358 20.0319 20.3159 20.1052 20.2756C20.1784 20.2353 20.2395 20.1761 20.2821 20.1042C20.3187 20.0425 20.338 19.9721 20.338 19.9004C20.338 19.8287 20.3187 19.7583 20.2821 19.6967L16.5913 13.07C16.5498 12.9963 16.4891 12.9353 16.4155 12.8936C16.342 12.8519 16.2585 12.8311 16.1741 12.8333ZM8.65999 21.1667C8.65999 20.9457 8.57225 20.7337 8.41608 20.5774C8.2599 20.4211 8.04808 20.3333 7.82722 20.3333H4.78761C4.59286 20.3332 4.40148 20.2824 4.23225 20.186C4.06303 20.0895 3.92177 19.9507 3.82233 19.7831C3.7229 19.6155 3.66871 19.425 3.66507 19.2301C3.66144 19.0353 3.70849 18.8428 3.80161 18.6717L9.34119 8.42167C9.43594 8.24301 9.57777 8.09372 9.75129 7.99001C9.92482 7.88629 10.1234 7.83211 10.3255 7.83333C10.5278 7.83168 10.7267 7.88567 10.9005 7.98943C11.0742 8.09318 11.2161 8.2427 11.3107 8.42167L12.3325 10.3108C12.3846 10.4071 12.4551 10.4922 12.54 10.5613C12.6249 10.6303 12.7226 10.6819 12.8274 10.7132C12.9323 10.7445 13.0423 10.7547 13.1511 10.7435C13.26 10.7322 13.3655 10.6996 13.4617 10.6475C13.558 10.5954 13.643 10.5249 13.712 10.4399C13.781 10.3549 13.8326 10.2572 13.8638 10.1522C13.8951 10.0473 13.9054 9.93724 13.8941 9.82833C13.8828 9.71942 13.8502 9.6138 13.7982 9.5175L12.7772 7.62917C12.5386 7.18687 12.1848 6.8174 11.7534 6.55989C11.322 6.30239 10.8291 6.16643 10.3268 6.16643C9.82447 6.16643 9.33151 6.30239 8.90013 6.55989C8.46875 6.8174 8.115 7.18687 7.87635 7.62917L2.33594 17.8792C2.10618 18.3043 1.99063 18.7819 2.00059 19.2651C2.01056 19.7483 2.14569 20.2207 2.39278 20.636C2.63986 21.0513 2.99044 21.3953 3.41022 21.6344C3.83 21.8735 4.3046 21.9995 4.78761 22H7.82722C8.04808 22 8.2599 21.9122 8.41608 21.7559C8.57225 21.5996 8.65999 21.3877 8.65999 21.1667Z" fill="#646464"/>
</svg>
