<svg width="24" height="24" viewBox="0 0 24 24" fill="none" xmlns="http://www.w3.org/2000/svg">
<path d="M9.56301 13.1443C9.65541 13.2367 9.70731 13.362 9.70731 13.4927V16.0363C9.70672 16.2425 9.66546 16.4466 9.58591 16.6368C9.50636 16.8271 9.39008 16.9997 9.24372 17.145C9.09735 17.2902 8.92378 17.4051 8.73294 17.4832C8.54211 17.5613 8.33774 17.601 8.13155 17.6C7.83924 17.5943 7.55409 17.5085 7.30713 17.352C7.06016 17.1955 6.86085 16.9743 6.73087 16.7124C6.72706 16.7052 6.72344 16.6978 6.72 16.6904V16.2762C6.73886 16.2354 6.76325 16.1973 6.79255 16.163C6.83503 16.1132 6.88698 16.0724 6.94538 16.0429C7.00378 16.0134 7.06746 15.9958 7.13272 15.9911C7.19798 15.9865 7.26352 15.9948 7.32552 16.0157C7.38751 16.0366 7.44473 16.0697 7.49385 16.1129C7.54296 16.1561 7.58299 16.2087 7.6116 16.2675C7.65971 16.3665 7.73329 16.4509 7.8248 16.512C7.91631 16.5732 8.02245 16.6089 8.13231 16.6154C8.21014 16.6161 8.28732 16.6013 8.35934 16.5718C8.43135 16.5422 8.49674 16.4986 8.55167 16.4435C8.6066 16.3883 8.64996 16.3228 8.67921 16.2507C8.70846 16.1785 8.723 16.1013 8.72199 16.0235V13.4927C8.72199 13.362 8.77389 13.2367 8.86628 13.1443C8.95868 13.0519 9.08399 13 9.21465 13C9.34531 13 9.47062 13.0519 9.56301 13.1443Z" fill="#646464"/>
<path fill-rule="evenodd" clip-rule="evenodd" d="M13.1909 13.4642C13.4948 13.7641 13.6674 14.1723 13.6706 14.5993C13.6693 14.8109 13.6263 15.0202 13.5442 15.2152C13.462 15.4102 13.3422 15.5871 13.1917 15.7358C13.0411 15.8845 12.8628 16.0022 12.6668 16.0819C12.4708 16.1617 12.261 16.2021 12.0494 16.2008H11.4127V17.1263C11.4127 17.2519 11.3628 17.3724 11.2739 17.4612C11.1851 17.5501 11.0646 17.6 10.939 17.6C10.8133 17.6 10.6928 17.5501 10.604 17.4612C10.5152 17.3724 10.4653 17.2519 10.4653 17.1263V13.758C10.4653 13.557 10.5451 13.3642 10.6872 13.222C10.8294 13.0799 11.0222 13 11.2232 13H12.0494C12.4763 12.9974 12.8869 13.1644 13.1909 13.4642ZM11.4142 13.9475H12.0494C12.1368 13.9445 12.2239 13.9591 12.3055 13.9905C12.3872 14.0219 12.4617 14.0694 12.5246 14.1302C12.5875 14.191 12.6375 14.2638 12.6716 14.3443C12.7058 14.4249 12.7234 14.5114 12.7234 14.5989C12.7234 14.6864 12.7058 14.773 12.6716 14.8535C12.6375 14.934 12.5875 15.0068 12.5246 15.0676C12.4617 15.1284 12.3872 15.1759 12.3055 15.2073C12.2239 15.2387 12.1368 15.2533 12.0494 15.2504H11.4187L11.4142 13.9475Z" fill="#646464"/>
<path d="M17.1202 15.4404C17.2268 15.547 17.2867 15.6916 17.2867 15.8423V16.0962C17.2835 16.4962 17.1224 16.8786 16.8385 17.1603C16.5545 17.442 16.1708 17.6 15.7708 17.6C15.5726 17.6009 15.3761 17.5627 15.1927 17.4877C15.0092 17.4126 14.8423 17.3021 14.7015 17.1625C14.5607 17.023 14.4488 16.857 14.3722 16.6742C14.2956 16.4914 14.2558 16.2952 14.255 16.097V14.5053C14.2556 14.3069 14.2953 14.1106 14.3718 13.9276C14.4483 13.7446 14.5602 13.5785 14.701 13.4388C14.8418 13.299 15.0087 13.1884 15.1923 13.1133C15.3759 13.0381 15.5725 12.9999 15.7708 13.0008C16.0476 13.003 16.3187 13.0801 16.5551 13.224C16.7916 13.3678 16.9847 13.5731 17.1139 13.8179C17.1522 13.8904 17.171 13.9715 17.1687 14.0535C17.1664 14.1354 17.1429 14.2154 17.1006 14.2856C17.0583 14.3558 16.9986 14.4139 16.9272 14.4543C16.8558 14.4946 16.7752 14.5159 16.6933 14.5159C16.6064 14.5149 16.5215 14.4904 16.4474 14.4451C16.3733 14.3997 16.3129 14.3351 16.2726 14.2582C16.2236 14.1669 16.1515 14.0901 16.0634 14.0355C15.9753 13.981 15.8744 13.9506 15.7708 13.9475C15.696 13.9467 15.6217 13.961 15.5524 13.9894C15.4831 14.0177 15.4202 14.0597 15.3673 14.1127C15.3144 14.1657 15.2727 14.2287 15.2445 14.2981C15.2163 14.3675 15.2022 14.4418 15.2031 14.5167V16.0841C15.2023 16.1589 15.2165 16.2331 15.2447 16.3024C15.2729 16.3717 15.3147 16.4347 15.3676 16.4876C15.4204 16.5405 15.4833 16.5824 15.5526 16.6107C15.6218 16.639 15.696 16.6533 15.7708 16.6526C15.919 16.6507 16.0607 16.5917 16.1665 16.4879C16.2722 16.3841 16.3339 16.2436 16.3385 16.0955V16.0318H16.1498C16.0493 16.0318 15.9529 15.9919 15.8818 15.9208C15.8108 15.8497 15.7708 15.7533 15.7708 15.6528C15.7708 15.5523 15.8108 15.4559 15.8818 15.3849C15.9529 15.3138 16.0493 15.2739 16.1498 15.2739H16.7183C16.869 15.2739 17.0136 15.3337 17.1202 15.4404Z" fill="#646464"/>
<path d="M20.03 8.47L14.03 2.47C13.889 2.329 13.699 2.25 13.5 2.25H7.5C5.082 2.25 3.75 3.582 3.75 6V18C3.75 20.418 5.082 21.75 7.5 21.75H16.5C18.918 21.75 20.25 20.418 20.25 18V9C20.25 8.801 20.171 8.61 20.03 8.47ZM14.25 4.811L17.689 8.25H16.5C14.923 8.25 14.25 7.577 14.25 6V4.811ZM16.5 20.25H7.5C5.923 20.25 5.25 19.577 5.25 18V6C5.25 4.423 5.923 3.75 7.5 3.75H12.75V6C12.75 8.418 14.082 9.75 16.5 9.75H18.75V18C18.75 19.577 18.077 20.25 16.5 20.25Z" fill="#646464"/>
</svg>
