<svg width="24" height="24" viewBox="0 0 24 24" fill="none" xmlns="http://www.w3.org/2000/svg">
<path d="M12.2129 2.25302C10.2239 2.19002 8.36302 2.92314 6.94702 4.30014C5.53002 5.67714 4.75 7.52409 4.75 9.50009C4.75 11.2551 5.493 12.977 7.021 14.763C7.763 15.631 8.25 16.2781 8.25 17.3221V18.0001C8.25 20.2431 9.75798 21.7501 12.001 21.7501C14.244 21.7501 15.751 20.2431 15.751 18.0001V17.317C15.751 16.259 16.242 15.609 16.936 14.804C18.101 13.452 19.288 11.757 19.249 9.43099C19.186 5.58299 16.0289 2.36202 12.2129 2.25302ZM12 20.2501C10.591 20.2501 9.75 19.4091 9.75 18.0001V17.7501H14.251V18.0001C14.251 19.4091 13.409 20.2501 12 20.2501ZM15.7991 13.825C15.1861 14.536 14.621 15.2661 14.377 16.2501H12.75V13.3111L14.53 11.5311C14.823 11.2381 14.823 10.7631 14.53 10.4701C14.237 10.1771 13.762 10.1771 13.469 10.4701L11.999 11.94L10.5291 10.4701C10.2361 10.1771 9.76102 10.1771 9.46802 10.4701C9.17502 10.7631 9.17502 11.2381 9.46802 11.5311L11.248 13.3111V16.2501H9.6189C9.3749 15.2811 8.80991 14.5482 8.15991 13.7882C6.87291 12.2852 6.24805 10.8821 6.24805 9.50009C6.24805 7.93309 6.86697 6.46806 7.99097 5.37606C9.07397 4.32406 10.4901 3.75009 11.9971 3.75009C12.0541 3.75009 12.111 3.75104 12.168 3.75204C15.193 3.83904 17.6961 6.39716 17.7471 9.45516C17.7791 11.2782 16.7801 12.687 15.7991 13.825Z" fill="#646464"/>
</svg>
