<svg width="24" height="24" viewBox="0 0 24 24" fill="none" xmlns="http://www.w3.org/2000/svg">
<path d="M17.8333 4.5C18.376 3.77968 18.6686 2.90186 18.6667 2H17C17 2.66304 16.7366 3.29893 16.2678 3.76777C15.7989 4.23661 15.163 4.5 14.5 4.5H9.5C8.83696 4.5 8.20107 4.23661 7.73223 3.76777C7.26339 3.29893 7 2.66304 7 2L5.33333 2C5.3314 2.90186 5.624 3.77968 6.16667 4.5H2V5.33333C2.05832 6.23284 2.3372 7.10416 2.812 7.87036C3.28681 8.63657 3.94295 9.2741 4.7225 9.72667L7 19.6075C7.02773 20.2517 7.30331 20.8603 7.76918 21.3062C8.23505 21.752 8.85517 22.0006 9.5 22H14.5C15.1448 22.0006 15.765 21.752 16.2308 21.3062C16.6967 20.8603 16.9723 20.2517 17 19.6075L19.2775 9.72667C20.057 9.2741 20.7132 8.63657 21.188 7.87036C21.6628 7.10416 21.9417 6.23284 22 5.33333V4.5H17.8333ZM15.0733 6.16667C15.9874 6.83036 16.755 7.67511 17.3283 8.64833C16.7548 8.61279 16.1801 8.69437 15.6392 8.8881C15.0982 9.08184 14.6023 9.38367 14.1818 9.77521C13.7613 10.1668 13.4248 10.6398 13.193 11.1656C12.9612 11.6913 12.8388 12.2588 12.8333 12.8333V17H11.1667V12.8333C11.1612 12.2588 11.0388 11.6913 10.807 11.1656C10.5752 10.6398 10.2387 10.1668 9.8182 9.77521C9.39765 9.38367 8.9018 9.08184 8.36085 8.8881C7.81989 8.69437 7.24516 8.61279 6.67167 8.64833C7.24505 7.67511 8.01264 6.83036 8.92667 6.16667H15.0733ZM6.43833 6.16667C5.93384 6.72467 5.49255 7.33672 5.1225 7.99167C4.53096 7.51406 4.08258 6.88258 3.82667 6.16667H6.43833ZM7 10.3333C7.29403 10.3331 7.58577 10.385 7.86167 10.4867C7.81908 10.6907 7.82796 10.9021 7.8875 11.1018C7.94705 11.3015 8.0554 11.4832 8.20276 11.6306C8.35012 11.7779 8.53185 11.8863 8.73156 11.9458C8.93127 12.0054 9.14267 12.0143 9.34667 11.9717C9.44832 12.2476 9.50023 12.5393 9.5 12.8333V17C9.03989 16.9993 8.58864 17.1265 8.19667 17.3675L6.56917 10.3133C6.71 10.3267 6.85333 10.3333 7 10.3333ZM14.5 20.3333H9.5C9.27899 20.3333 9.06702 20.2455 8.91074 20.0893C8.75446 19.933 8.66667 19.721 8.66667 19.5C8.66667 19.279 8.75446 19.067 8.91074 18.9107C9.06702 18.7545 9.27899 18.6667 9.5 18.6667H14.5C14.721 18.6667 14.933 18.7545 15.0893 18.9107C15.2455 19.067 15.3333 19.279 15.3333 19.5C15.3333 19.721 15.2455 19.933 15.0893 20.0893C14.933 20.2455 14.721 20.3333 14.5 20.3333ZM15.8033 17.3675C15.4114 17.1265 14.9601 16.9993 14.5 17V12.8333C14.4998 12.5393 14.5517 12.2476 14.6533 11.9717C14.8573 12.0143 15.0687 12.0054 15.2684 11.9458C15.4681 11.8863 15.6499 11.7779 15.7972 11.6306C15.9446 11.4832 16.0529 11.3015 16.1125 11.1018C16.172 10.9021 16.1809 10.6907 16.1383 10.4867C16.5571 10.3601 16.9935 10.3016 17.4308 10.3133L15.8033 17.3675ZM18.8775 7.99167C18.5075 7.33672 18.0662 6.72467 17.5617 6.16667H20.1733C19.9174 6.88258 19.469 7.51406 18.8775 7.99167Z" fill="#646464"/>
</svg>
