<svg width="24" height="24" viewBox="0 0 24 24" fill="none" xmlns="http://www.w3.org/2000/svg">
<path d="M12.001 2.25C6.626 2.25 2.25295 6.62302 2.25295 11.999C2.25295 13.399 2.56405 14.808 3.15505 16.082C3.27005 16.325 3.27893 16.633 3.18093 16.94L2.34011 19.441C2.13011 20.073 2.29311 20.76 2.76711 21.233C3.10311 21.569 3.54692 21.749 4.00392 21.749C4.18992 21.749 4.37705 21.719 4.56105 21.658L7.05007 20.822C7.36707 20.721 7.67707 20.729 7.92507 20.848C9.19207 21.437 10.601 21.748 12 21.748C17.376 21.748 21.749 17.375 21.749 11.999C21.749 6.62302 17.377 2.25 12.001 2.25ZM12.001 20.248C10.818 20.248 9.62796 19.985 8.56496 19.491C7.97596 19.21 7.27703 19.176 6.58303 19.397L4.08498 20.236C3.95998 20.278 3.8699 20.214 3.8279 20.172C3.7859 20.13 3.72193 20.041 3.76393 19.916L4.60793 17.405C4.82493 16.722 4.78996 16.023 4.51296 15.442C4.01596 14.372 3.75295 13.182 3.75295 11.998C3.75295 7.44999 7.453 3.74902 12.001 3.74902C16.55 3.74902 20.25 7.44899 20.25 11.998C20.25 16.547 16.55 20.248 12.001 20.248Z" fill="#646464"/>
<path d="M12 12.05C10.677 12.05 9.6001 10.973 9.6001 9.64999C9.6001 8.32699 10.677 7.25 12 7.25C13.323 7.25 14.3999 8.32699 14.3999 9.64999C14.3999 10.973 13.323 12.05 12 12.05ZM12 8.75C11.504 8.75 11.1001 9.15399 11.1001 9.64999C11.1001 10.146 11.504 10.55 12 10.55C12.496 10.55 12.8999 10.146 12.8999 9.64999C12.8999 9.15399 12.496 8.75 12 8.75ZM15.75 16V15.697C15.75 14.233 14.6831 12.75 12.6421 12.75H11.3589C9.31789 12.75 8.25098 14.232 8.25098 15.697V16C8.25098 16.414 8.58698 16.75 9.00098 16.75C9.41498 16.75 9.75098 16.414 9.75098 16V15.697C9.75098 14.977 10.2479 14.25 11.3589 14.25H12.6421C13.7531 14.25 14.25 14.977 14.25 15.697V16C14.25 16.414 14.586 16.75 15 16.75C15.414 16.75 15.75 16.414 15.75 16Z" fill="#646464"/>
</svg>
