<svg width="24" height="24" viewBox="0 0 24 24" fill="none" xmlns="http://www.w3.org/2000/svg">
<path d="M12.2568 7.89744V11.681L14.0849 13.5067C14.3859 13.8072 14.3859 14.2944 14.0849 14.5949C13.935 14.7446 13.7378 14.8205 13.5406 14.8205C13.3434 14.8205 13.1462 14.7457 12.9962 14.5949L10.9422 12.5436C10.7974 12.399 10.7163 12.2031 10.7163 12V7.89744C10.7163 7.47282 11.0614 7.12821 11.4865 7.12821C11.9117 7.12821 12.2568 7.47282 12.2568 7.89744ZM11.5131 2C8.62616 2 5.92111 3.24507 4.04064 5.37841V2.76923C4.04064 2.34462 3.69556 2 3.27037 2C2.84519 2 2.50011 2.34462 2.50011 2.76923V6.8718C2.50011 7.29641 2.84519 7.64103 3.27037 7.64103H7.37846C7.80364 7.64103 8.14872 7.29641 8.14872 6.8718C8.14872 6.44718 7.80364 6.10256 7.37846 6.10256H5.48163C7.05502 4.48308 9.21282 3.53846 11.5144 3.53846C16.1709 3.53846 19.9605 7.33436 19.9605 12C19.9605 16.6656 16.1719 20.4615 11.5144 20.4615C8.27926 20.4615 5.38508 18.6615 3.96266 15.764C3.77471 15.3835 3.31651 15.2235 2.93137 15.4122C2.54932 15.5989 2.39219 16.0596 2.57809 16.4411C4.2624 19.8698 7.68541 22 11.5131 22C17.019 22 21.5 17.5138 21.5 12C21.5 6.48615 17.02 2 11.5131 2Z" fill="#646464"/>
</svg>
