<svg width="24" height="24" viewBox="0 0 24 24" fill="none" xmlns="http://www.w3.org/2000/svg">
<path fill-rule="evenodd" clip-rule="evenodd" d="M14.0513 2C14.4761 2 14.8205 2.3444 14.8205 2.76923V6.87179C14.8205 6.9398 14.8475 7.00502 14.8956 7.0531C14.9437 7.10119 15.0089 7.1282 15.0769 7.1282H19.1795C19.6043 7.1282 19.9487 7.4726 19.9487 7.89744C19.9487 8.32227 19.6043 8.66667 19.1795 8.66667H15.0769C14.6009 8.66667 14.1444 8.47756 13.8077 8.14096C13.4711 7.80436 13.282 7.34782 13.282 6.87179V2.76923C13.282 2.3444 13.6264 2 14.0513 2Z" fill="#646464"/>
<path fill-rule="evenodd" clip-rule="evenodd" d="M6.87178 3.53846C6.53176 3.53846 6.20567 3.67353 5.96524 3.91397C5.7248 4.1544 5.58973 4.48049 5.58973 4.82051V19.1795C5.58973 19.5195 5.7248 19.8456 5.96524 20.086C6.20567 20.3265 6.53176 20.4615 6.87178 20.4615H17.1282C17.4682 20.4615 17.7943 20.3265 18.0347 20.086C18.2752 19.8456 18.4102 19.5195 18.4102 19.1795V8.21606L13.7326 3.53846H6.87178ZM4.87738 2.82611C5.40633 2.29716 6.12374 2 6.87178 2H14.0513C14.2553 2 14.4509 2.08104 14.5952 2.2253L19.7234 7.35351C19.8677 7.49777 19.9487 7.69342 19.9487 7.89744V19.1795C19.9487 19.9275 19.6515 20.6449 19.1226 21.1739C18.5936 21.7028 17.8762 22 17.1282 22H6.87178C6.12374 22 5.40633 21.7028 4.87738 21.1739C4.34843 20.6449 4.05127 19.9275 4.05127 19.1795V4.82051C4.05127 4.07247 4.34843 3.35506 4.87738 2.82611Z" fill="#646464"/>
<path fill-rule="evenodd" clip-rule="evenodd" d="M12 9.1795C12.4248 9.1795 12.7692 9.5239 12.7692 9.94874V14.0513C12.7692 14.4761 12.4248 14.8205 12 14.8205C11.5752 14.8205 11.2308 14.4761 11.2308 14.0513V9.94874C11.2308 9.5239 11.5752 9.1795 12 9.1795Z" fill="#646464"/>
<path fill-rule="evenodd" clip-rule="evenodd" d="M9.1795 12C9.1795 11.5752 9.5239 11.2308 9.94874 11.2308H14.0513C14.4761 11.2308 14.8205 11.5752 14.8205 12C14.8205 12.4248 14.4761 12.7692 14.0513 12.7692H9.94874C9.5239 12.7692 9.1795 12.4248 9.1795 12Z" fill="#646464"/>
<path fill-rule="evenodd" clip-rule="evenodd" d="M9.1795 17.1282C9.1795 16.7033 9.5239 16.3589 9.94874 16.3589H14.0513C14.4761 16.3589 14.8205 16.7033 14.8205 17.1282C14.8205 17.553 14.4761 17.8974 14.0513 17.8974H9.94874C9.5239 17.8974 9.1795 17.553 9.1795 17.1282Z" fill="#646464"/>
</svg>
