<svg width="24" height="24" viewBox="0 0 24 24" fill="none" xmlns="http://www.w3.org/2000/svg">
<path d="M21.3585 2.6411C20.9647 2.24927 20.4372 2.02112 19.882 2.00257C19.3267 1.98402 18.7851 2.17643 18.366 2.5411L6.56104 12.9428C4.6152 13.3094 2.00104 14.3936 2.00104 16.6653C2.00258 18.0793 2.56498 19.4349 3.56484 20.4348C4.5647 21.4347 5.92036 21.997 7.33437 21.9986C9.6052 21.9986 10.6902 19.3853 11.0569 17.4394L21.461 5.63026C21.825 5.21134 22.0167 4.67012 21.9977 4.11552C21.9787 3.56092 21.7503 3.03411 21.3585 2.6411ZM10.4519 15.6044L8.3952 13.5478L10.066 12.0753L11.9244 13.9336L10.4519 15.6044ZM7.33437 20.3319C6.36225 20.3308 5.43026 19.9442 4.74286 19.2568C4.05547 18.5694 3.66881 17.6374 3.6677 16.6653C3.6677 15.4086 5.86687 14.7594 7.04187 14.5511L9.44854 16.9569C9.23937 18.1328 8.59104 20.3319 7.33437 20.3319ZM20.2085 4.53193L13.0285 12.6803L11.3185 10.9711L19.4644 3.7936C19.5647 3.70752 19.6937 3.66237 19.8258 3.66714C19.9579 3.67192 20.0833 3.72626 20.1772 3.81935C20.271 3.91245 20.3263 4.03746 20.3321 4.16951C20.338 4.30156 20.2938 4.43095 20.2085 4.53193Z" fill="#646464"/>
</svg>
