<svg width="24" height="24" viewBox="0 0 24 24" fill="none" xmlns="http://www.w3.org/2000/svg">
<path fill-rule="evenodd" clip-rule="evenodd" d="M8.11111 5.07692V4.82051C8.11111 4.07247 8.41157 3.35506 8.9464 2.82611C9.48123 2.29716 10.2066 2 10.963 2H13.037C13.7934 2 14.5188 2.29716 15.0536 2.82611C15.5884 3.35506 15.8889 4.07247 15.8889 4.82051V5.07692H16.1481C16.9045 5.07692 17.6299 5.37408 18.1647 5.90303C18.6995 6.43198 19 7.14939 19 7.89744V18.1538C19 18.9019 18.6995 19.6193 18.1647 20.1482C17.6299 20.6772 16.9045 20.9744 16.1481 20.9744H15.8889V21.2308C15.8889 21.6556 15.5407 22 15.1111 22C14.6816 22 14.3333 21.6556 14.3333 21.2308V20.9744H9.66667V21.2308C9.66667 21.6556 9.31844 22 8.88889 22C8.45933 22 8.11111 21.6556 8.11111 21.2308V20.9744H7.85185C7.09549 20.9744 6.37011 20.6772 5.83529 20.1482C5.30046 19.6193 5 18.9019 5 18.1538V7.89744C5 7.14939 5.30046 6.43198 5.83529 5.90303C6.37011 5.37408 7.09549 5.07692 7.85185 5.07692H8.11111ZM10.0463 3.91397C10.2894 3.67353 10.6192 3.53846 10.963 3.53846H13.037C13.3808 3.53846 13.7106 3.67353 13.9537 3.91397C14.1968 4.1544 14.3333 4.48049 14.3333 4.82051V5.07692H9.66667V4.82051C9.66667 4.48049 9.80324 4.1544 10.0463 3.91397ZM16.1481 19.4359C16.4919 19.4359 16.8217 19.3008 17.0648 19.0604C17.3079 18.82 17.4444 18.4939 17.4444 18.1538V16.8718H6.55556V18.1538C6.55556 18.4939 6.69213 18.82 6.93523 19.0604C7.17833 19.3008 7.50805 19.4359 7.85185 19.4359H16.1481ZM17.4444 15.3333H6.55556V10.7179H17.4444V15.3333ZM17.4444 7.89744V9.17949H6.55556V7.89744C6.55556 7.55741 6.69213 7.23132 6.93523 6.99089C7.17833 6.75046 7.50805 6.61539 7.85185 6.61539H16.1481C16.4919 6.61539 16.8217 6.75046 17.0648 6.99089C17.3079 7.23132 17.4444 7.55742 17.4444 7.89744Z" fill="#646464"/>
</svg>
