<svg width="24" height="24" viewBox="0 0 24 24" fill="none" xmlns="http://www.w3.org/2000/svg">
<path fill-rule="evenodd" clip-rule="evenodd" d="M14.0645 3.53846C13.7223 3.53846 13.3941 3.67353 13.1521 3.91397C12.9102 4.1544 12.7742 4.48049 12.7742 4.82051V5.07692H14.0645C14.4067 5.07692 14.7349 4.94185 14.9769 4.70142C15.2189 4.46099 15.3549 4.13489 15.3549 3.79487V3.53846H14.0645ZM11.2258 10.117V7.68734C10.6445 7.75716 10.0743 7.90542 9.53107 8.12898C8.74833 8.45112 8.03711 8.9233 7.43802 9.51855C6.83893 10.1138 6.36371 10.8205 6.03949 11.5982C5.71526 12.3759 5.54839 13.2095 5.54839 14.0513C5.54839 14.8931 5.71526 15.7267 6.03949 16.5044C6.36371 17.2821 6.83893 17.9888 7.43802 18.584C8.03711 19.1793 8.74833 19.6514 9.53107 19.9736C10.3138 20.2957 11.1528 20.4615 12 20.4615C12.8472 20.4615 13.6862 20.2957 14.4689 19.9736C15.2517 19.6514 15.9629 19.1793 16.562 18.584C17.1611 17.9888 17.6363 17.2821 17.9605 16.5044C18.2847 15.7267 18.4516 14.8931 18.4516 14.0513C18.4516 13.2095 18.2847 12.3759 17.9605 11.5982C17.6363 10.8205 17.1611 10.1138 16.562 9.51855C15.9629 8.9233 15.2517 8.45112 14.4689 8.12898C13.9257 7.90543 13.3555 7.75716 12.7742 7.68735V10.1169C13.087 10.0456 13.4011 9.93118 13.718 9.77362C14.1004 9.58351 14.5655 9.73739 14.7568 10.1173C14.9482 10.4972 14.7933 10.9593 14.4109 11.1495C12.8168 11.942 11.1831 11.942 9.589 11.1495C9.20662 10.9593 9.05175 10.4972 9.24308 10.1173C9.43441 9.73739 9.8995 9.58351 10.2819 9.77362C10.5988 9.9312 10.913 10.0456 11.2258 10.117ZM16.0718 5.78928C15.6811 6.17744 15.1883 6.44078 14.6561 6.55347C14.7925 6.60115 14.9276 6.65254 15.0615 6.70762C16.0321 7.10709 16.914 7.69258 17.6569 8.43069C18.3997 9.1688 18.989 10.0451 19.391 11.0094C19.7931 11.9738 20 13.0074 20 14.0513C20 15.0951 19.7931 16.1287 19.391 17.0931C18.989 18.0575 18.3997 18.9338 17.6569 19.6719C16.914 20.41 16.0321 20.9955 15.0615 21.3949C14.0909 21.7944 13.0506 22 12 22C10.9494 22 9.90914 21.7944 8.93853 21.3949C7.96793 20.9955 7.08601 20.41 6.34315 19.6719C5.60028 18.9338 5.011 18.0575 4.60896 17.0931C4.20693 16.1287 4 15.0951 4 14.0513C4 13.0074 4.20693 11.9738 4.60896 11.0094C5.011 10.0451 5.60028 9.1688 6.34315 8.43069C7.08601 7.69258 7.96793 7.10708 8.93853 6.70762C9.66987 6.40664 10.4408 6.21571 11.2258 6.13987V4.82051C11.2258 4.07247 11.5249 3.35506 12.0573 2.82611C12.5896 2.29716 13.3117 2 14.0645 2H16.129C16.5566 2 16.9032 2.3444 16.9032 2.76923V3.79487C16.9032 4.54292 16.6042 5.26033 16.0718 5.78928Z" fill="#646464"/>
</svg>
