<svg width="24" height="24" viewBox="0 0 24 24" fill="none" xmlns="http://www.w3.org/2000/svg">
<path d="M12 22C11.8509 22 11.7017 21.9569 11.5721 21.8708L11.028 21.5107C7.83119 19.4051 3 16.2236 3 10.9744C3 6.02564 7.03714 2 12 2C16.9629 2 21 6.02564 21 10.9744C21 16.2236 16.1688 19.4051 12.972 21.5107L12.4279 21.8708C12.2983 21.9569 12.1491 22 12 22ZM12 3.53846C7.88777 3.53846 4.54286 6.87385 4.54286 10.9744C4.54286 15.3959 8.78264 18.1887 11.8776 20.2267L12 20.3078L12.1224 20.2267C15.2184 18.1877 19.4571 15.3959 19.4571 10.9744C19.4571 6.87385 16.1122 3.53846 12 3.53846Z" fill="#646464"/>
<path d="M15.5292 10.253V13.2281C15.5292 13.4718 15.3317 13.6693 15.088 13.6693H13.1911V11.9047C13.1911 11.4174 12.796 11.0224 12.3088 11.0224H11.7469C11.2596 11.0224 10.8646 11.4174 10.8646 11.9047V13.6693H8.91195C8.66833 13.6693 8.47081 13.4718 8.47081 13.2281V10.253C8.47073 9.96372 8.61248 9.69272 8.85018 9.5278L11.4971 7.69174C11.8 7.48345 12.2 7.48345 12.5029 7.69174L15.1498 9.5278C15.3875 9.69272 15.5293 9.96372 15.5292 10.253Z" fill="#646464"/>
</svg>
