<svg width="24" height="24" viewBox="0 0 24 24" fill="none" xmlns="http://www.w3.org/2000/svg">
<path d="M18.6596 14.5H2.83456C2.61355 14.5 2.40159 14.5878 2.24531 14.7441C2.08903 14.9004 2.00123 15.1123 2.00123 15.3334C2.00123 15.5544 2.08903 15.7663 2.24531 15.9226C2.40159 16.0789 2.61355 16.1667 2.83456 16.1667H18.6596C19.1829 16.1676 19.6991 16.0453 20.1664 15.8096C20.6337 15.574 21.0389 15.2316 21.3493 14.8102C21.6597 14.3888 21.8665 13.9003 21.953 13.3841C22.0394 12.868 22.0032 12.3387 21.8471 11.8392C21.1101 9.46492 19.6309 7.3897 17.6269 5.91863C15.6229 4.44755 13.1997 3.65822 10.7137 3.66669H2.83456C2.61355 3.66669 2.40159 3.75449 2.24531 3.91077C2.08903 4.06705 2.00123 4.27901 2.00123 4.50003C2.00123 4.72104 2.08903 4.933 2.24531 5.08928C2.40159 5.24556 2.61355 5.33336 2.83456 5.33336H5.33456V7.83336H2.83456C2.61355 7.83336 2.40159 7.92116 2.24531 8.07744C2.08903 8.23372 2.00123 8.44568 2.00123 8.66669C2.00123 8.88771 2.08903 9.09967 2.24531 9.25595C2.40159 9.41223 2.61355 9.50003 2.83456 9.50003H18.8454C19.4633 10.3654 19.9398 11.3235 20.2571 12.3384C20.3357 12.5868 20.3541 12.8504 20.3106 13.1073C20.2671 13.3642 20.1631 13.6071 20.0071 13.8159C19.8526 14.0284 19.6499 14.2012 19.4157 14.3202C19.1814 14.4391 18.9223 14.5008 18.6596 14.5ZM9.50123 7.83336H7.00123V5.33336H9.50123V7.83336ZM11.1679 7.83336V5.35169C13.449 5.44701 15.6281 6.32313 17.3404 7.83336H11.1679Z" fill="#646464"/>
<path d="M21.1667 18.6667H2.83333C2.61232 18.6667 2.40036 18.7545 2.24408 18.9108C2.0878 19.067 2 19.279 2 19.5C2 19.721 2.0878 19.933 2.24408 20.0893C2.40036 20.2456 2.61232 20.3334 2.83333 20.3334H21.1667C21.3877 20.3334 21.5996 20.2456 21.7559 20.0893C21.9122 19.933 22 19.721 22 19.5C22 19.279 21.9122 19.067 21.7559 18.9108C21.5996 18.7545 21.3877 18.6667 21.1667 18.6667Z" fill="#646464"/>
</svg>
