<svg width="24" height="24" viewBox="0 0 24 24" fill="none" xmlns="http://www.w3.org/2000/svg">
<path fill-rule="evenodd" clip-rule="evenodd" d="M11.6218 2.09879C11.8566 1.96707 12.1434 1.96707 12.3782 2.09879L16.4818 4.40054C16.4894 4.40462 16.4969 4.40882 16.5043 4.41315L20.5961 6.70825C20.7198 6.77497 20.8267 6.87622 20.9008 7.0075C20.9707 7.13143 21.0025 7.26642 20.9999 7.39898V16.6154C20.9999 16.8933 20.8495 17.1496 20.6066 17.2858L12.3903 21.8944C12.2758 21.9615 12.1424 22 12 22C11.8576 22 11.7242 21.9615 11.6097 21.8944L3.39335 17.2858C3.15045 17.1496 3.00013 16.8933 3.00013 16.6154V7.39779C2.99795 7.27759 3.02403 7.15545 3.08117 7.04139C3.09233 7.01908 3.10456 6.99733 3.11783 6.97621C3.19057 6.86024 3.28989 6.76986 3.40338 6.70855L11.6218 2.09879ZM14.5407 5.07693L12 3.65181L5.34502 7.38462L7.88578 8.80974L14.5407 5.07693ZM9.45926 9.69232L16.1142 5.95951L18.655 7.38462L12 11.1174L9.45926 9.69232ZM7.49547 10.356C7.50305 10.3604 7.5107 10.3647 7.51842 10.3688L11.2286 12.4499V19.9155L4.54296 16.1655V8.69989L7.49547 10.356ZM12.7714 19.9155L19.457 16.1655V8.6999L12.7714 12.4499V19.9155Z" fill="#646464"/>
</svg>
