<svg width="24" height="24" viewBox="0 0 24 24" fill="none" xmlns="http://www.w3.org/2000/svg">
<path fill-rule="evenodd" clip-rule="evenodd" d="M7 2.25C7.41421 2.25 7.75 2.58579 7.75 3V6C7.75 6.41421 7.41421 6.75 7 6.75C6.58579 6.75 6.25 6.41421 6.25 6V3C6.25 2.58579 6.58579 2.25 7 2.25ZM10.5 2.25C10.9142 2.25 11.25 2.58579 11.25 3V6C11.25 6.41421 10.9142 6.75 10.5 6.75C10.0858 6.75 9.75 6.41421 9.75 6V3C9.75 2.58579 10.0858 2.25 10.5 2.25ZM14 2.25C14.4142 2.25 14.75 2.58579 14.75 3V6C14.75 6.41421 14.4142 6.75 14 6.75C13.5858 6.75 13.25 6.41421 13.25 6V3C13.25 2.58579 13.5858 2.25 14 2.25ZM1.25 9C1.25 8.58579 1.58579 8.25 2 8.25H19.2866C20.2408 8.25 21.1314 8.68549 21.7705 9.41825C22.4067 10.1478 22.75 11.1177 22.75 12.1111V12.8889C22.75 13.8823 22.4067 14.8522 21.7705 15.5817C21.1314 16.3145 20.2408 16.75 19.2866 16.75H19.1266C18.9024 17.3135 18.6197 17.8559 18.281 18.3685C17.8155 19.0731 17.2448 19.7049 16.599 20.25H19C19.4142 20.25 19.75 20.5858 19.75 21C19.75 21.4142 19.4142 21.75 19 21.75H2C1.58579 21.75 1.25 21.4142 1.25 21C1.25 20.5858 1.58579 20.25 2 20.25H4.40096C3.75516 19.7049 3.18452 19.0731 2.719 18.3685C1.76037 16.9175 1.24967 15.2277 1.25 13.5C1.25 13.4999 1.25 13.5001 1.25 13.5V9ZM7.16309 20.25H13.8369C15.1365 19.6415 16.2641 18.7002 17.0295 17.5416C17.3968 16.9857 17.6845 16.3886 17.8881 15.7667C18.127 15.037 18.2502 14.2728 18.25 13.5002V9.75H2.75V13.5C2.7497 14.9309 3.17246 16.3337 3.97052 17.5416C4.73595 18.7002 5.86355 19.6415 7.16309 20.25ZM19.75 9.81744V13.4998C19.75 13.4998 19.75 13.4999 19.75 13.4998C19.7501 14.081 19.6924 14.6582 19.5792 15.2233C19.9644 15.1527 20.3376 14.9425 20.64 14.5958C21.0215 14.1584 21.25 13.5457 21.25 12.8889V12.1111C21.25 11.4543 21.0215 10.8416 20.64 10.4042C20.3826 10.109 20.0738 9.9128 19.75 9.81744Z" fill="#646464"/>
</svg>
