<svg width="24" height="24" viewBox="0 0 24 24" fill="none" xmlns="http://www.w3.org/2000/svg">
<path fill-rule="evenodd" clip-rule="evenodd" d="M12 3.53846C10.8888 3.53846 9.78851 3.75733 8.76191 4.18256C7.73531 4.60779 6.80252 5.23106 6.01679 6.01679C5.23106 6.80252 4.60779 7.73531 4.18256 8.76191C3.75733 9.78851 3.53846 10.8888 3.53846 12C3.53846 13.1112 3.75733 14.2115 4.18256 15.2381C4.60779 16.2647 5.23106 17.1975 6.01679 17.9832C6.80252 18.7689 7.73531 19.3922 8.76191 19.8174C9.78851 20.2427 10.8888 20.4615 12 20.4615C14.2441 20.4615 16.3964 19.5701 17.9832 17.9832C19.5701 16.3964 20.4615 14.2441 20.4615 12C20.4615 9.75586 19.5701 7.60364 17.9832 6.01679C16.3964 4.42994 14.2441 3.53846 12 3.53846ZM8.17317 2.7612C9.38642 2.25866 10.6868 2 12 2C14.6522 2 17.1957 3.05357 19.0711 4.92893C20.9464 6.8043 22 9.34784 22 12C22 14.6522 20.9464 17.1957 19.0711 19.0711C17.1957 20.9464 14.6522 22 12 22C10.6868 22 9.38642 21.7413 8.17317 21.2388C6.95991 20.7362 5.85752 19.9997 4.92893 19.0711C4.00035 18.1425 3.26375 17.0401 2.7612 15.8268C2.25866 14.6136 2 13.3132 2 12C2 10.6868 2.25866 9.38642 2.7612 8.17317C3.26375 6.95991 4.00035 5.85752 4.92893 4.92893C5.85752 4.00035 6.95991 3.26375 8.17317 2.7612Z" fill="#646464"/>
<path fill-rule="evenodd" clip-rule="evenodd" d="M8.41022 8.41028C9.19317 8.41028 10.1944 8.72019 10.6367 9.60473C10.8267 9.98471 10.6727 10.4468 10.2927 10.6368C9.91271 10.8268 9.45065 10.6727 9.26066 10.2928C9.19011 10.1516 8.90932 9.94874 8.41022 9.94874C7.91112 9.94874 7.63033 10.1516 7.55978 10.2928C7.36978 10.6727 6.90773 10.8268 6.52774 10.6368C6.14776 10.4468 5.99374 9.98471 6.18373 9.60473C6.626 8.72019 7.62726 8.41028 8.41022 8.41028Z" fill="#646464"/>
<path fill-rule="evenodd" clip-rule="evenodd" d="M15.5897 8.41028C16.3727 8.41028 17.3739 8.72019 17.8162 9.60473C18.0062 9.98471 17.8522 10.4468 17.4722 10.6368C17.0922 10.8268 16.6302 10.6727 16.4402 10.2928C16.3696 10.1516 16.0888 9.94874 15.5897 9.94874C15.0906 9.94874 14.8098 10.1516 14.7393 10.2928C14.5493 10.6727 14.0872 10.8268 13.7072 10.6368C13.3273 10.4468 13.1732 9.98471 13.3632 9.60473C13.8055 8.72019 14.8068 8.41028 15.5897 8.41028Z" fill="#646464"/>
<path fill-rule="evenodd" clip-rule="evenodd" d="M8.89757 14.5275C9.20102 14.2301 9.68805 14.2351 9.98537 14.5386C10.248 14.8066 10.5614 15.0195 10.9074 15.1649C11.2533 15.3102 11.6248 15.3851 12 15.3851C12.3753 15.3851 12.7467 15.3102 13.0927 15.1649C13.4386 15.0195 13.7521 14.8066 14.0147 14.5386C14.312 14.2351 14.799 14.2301 15.1025 14.5275C15.4059 14.8248 15.4109 15.3118 15.1136 15.6153C14.7077 16.0295 14.2233 16.3586 13.6887 16.5832C13.154 16.8079 12.5799 16.9236 12 16.9236C11.4201 16.9236 10.846 16.8079 10.3114 16.5832C9.77676 16.3586 9.29232 16.0295 8.88647 15.6153C8.58915 15.3118 8.59412 14.8248 8.89757 14.5275Z" fill="#646464"/>
</svg>
