<svg width="24" height="24" viewBox="0 0 24 24" fill="none" xmlns="http://www.w3.org/2000/svg">
<path fill-rule="evenodd" clip-rule="evenodd" d="M7.55556 8.48649H8.48841C8.4482 8.41412 8.41004 8.34124 8.37393 8.26815C8.03396 7.57995 7.83334 6.78974 7.83334 6.05405C7.83334 4.97885 8.27233 3.94769 9.05373 3.1874C9.83513 2.42712 10.8949 2 12 2C13.1051 2 14.1649 2.42712 14.9463 3.1874C15.7277 3.94769 16.1667 4.97885 16.1667 6.05405C16.1667 6.78974 15.9661 7.57995 15.6261 8.26815C15.59 8.34124 15.5518 8.41412 15.5116 8.48649H16.4444C16.9047 8.48649 17.2778 8.8495 17.2778 9.2973C17.2778 9.7451 16.9047 10.1081 16.4444 10.1081H14.6975L16.0484 16.2421L18.17 16.9302C18.557 17.0556 18.8938 17.2963 19.1324 17.6182C19.3711 17.94 19.4997 18.3268 19.5 18.7237V20.1081C19.5 20.6099 19.2951 21.0911 18.9305 21.4459C18.5658 21.8007 18.0713 22 17.5556 22H6.44444C5.92875 22 5.43417 21.8007 5.06951 21.4459C4.70486 21.0911 4.5 20.6099 4.5 20.1081V18.7256C4.49994 18.3284 4.62835 17.9411 4.86703 17.6189C5.10571 17.2967 5.44254 17.0558 5.82981 16.9303L7.95158 16.2421L9.30252 10.1081H7.55556C7.09532 10.1081 6.72222 9.7451 6.72222 9.2973C6.72222 8.8495 7.09532 8.48649 7.55556 8.48649ZM12 3.62162C11.337 3.62162 10.7011 3.8779 10.2322 4.33406C9.7634 4.79023 9.50001 5.40893 9.50001 6.05405C9.50001 6.52161 9.63273 7.07302 9.87608 7.56564C10.0795 7.9775 10.332 8.29231 10.5859 8.48649H13.4141C13.6681 8.29231 13.9205 7.9775 14.1239 7.56564C14.3673 7.07302 14.5 6.52161 14.5 6.05405C14.5 5.40893 14.2366 4.79023 13.7678 4.33406C13.2989 3.8779 12.663 3.62162 12 3.62162ZM9.6975 16.0541H14.3025L12.993 10.1081H11.007L9.6975 16.0541ZM8.8019 17.6757L6.35686 18.4687C6.30152 18.4866 6.2532 18.5211 6.2191 18.5671C6.185 18.6131 6.16665 18.6685 6.16667 18.7252V20.1081C6.16667 20.1798 6.19593 20.2485 6.24803 20.2992C6.30012 20.3499 6.37077 20.3784 6.44444 20.3784H17.5556C17.6292 20.3784 17.6999 20.3499 17.752 20.2992C17.8041 20.2485 17.8333 20.1798 17.8333 20.1081V18.7249C17.8333 18.6682 17.8149 18.613 17.7808 18.567C17.7467 18.521 17.6986 18.4866 17.6433 18.4687L15.1981 17.6757H8.8019Z" fill="#646464"/>
</svg>
