<svg width="24" height="24" viewBox="0 0 24 24" fill="none" xmlns="http://www.w3.org/2000/svg">
<path fill-rule="evenodd" clip-rule="evenodd" d="M12 20.5C16.6944 20.5 20.5 16.6944 20.5 12C20.5 7.30558 16.6944 3.5 12 3.5C7.30558 3.5 3.5 7.30558 3.5 12C3.5 16.6944 7.30558 20.5 12 20.5ZM12 22C17.5228 22 22 17.5228 22 12C22 6.47715 17.5228 2 12 2C6.47715 2 2 6.47715 2 12C2 17.5228 6.47715 22 12 22Z" fill="#646464"/>
<path fill-rule="evenodd" clip-rule="evenodd" d="M12 16.6588C14.573 16.6588 16.6588 14.573 16.6588 12C16.6588 9.42702 14.573 7.34121 12 7.34121C9.42702 7.34121 7.34121 9.42702 7.34121 12C7.34121 14.573 9.42702 16.6588 12 16.6588ZM12 18C15.3137 18 18 15.3137 18 12C18 8.68629 15.3137 6 12 6C8.68629 6 6 8.68629 6 12C6 15.3137 8.68629 18 12 18Z" fill="#646464"/>
<path fill-rule="evenodd" clip-rule="evenodd" d="M9.94165 9.9364C9.94165 9.66026 10.1655 9.4364 10.4417 9.4364H13.4575C13.9105 9.4364 14.2001 9.91908 13.9869 10.3187L11.8643 14.2988C11.7344 14.5424 11.4315 14.6346 11.1879 14.5047C10.9442 14.3747 10.852 14.0719 10.982 13.8282L12.7909 10.4364H10.4417C10.1655 10.4364 9.94165 10.2125 9.94165 9.9364Z" fill="#646464"/>
</svg>
