<svg width="24" height="24" viewBox="0 0 24 24" fill="none" xmlns="http://www.w3.org/2000/svg">
<path d="M12 2C6.48558 2 2 6.48558 2 12C2 17.5144 6.48558 22 12 22C17.5144 22 22 17.5144 22 12C22 6.48558 17.5144 2 12 2ZM12 20.6047C7.25488 20.6047 3.39535 16.7451 3.39535 12C3.39535 7.25488 7.25488 3.39535 12 3.39535C16.7451 3.39535 20.6047 7.25488 20.6047 12C20.6047 16.7451 16.7451 20.6047 12 20.6047ZM12.6977 7.34884V12C12.6977 12.3851 12.3851 12.6977 12 12.6977C11.6149 12.6977 11.3023 12.3851 11.3023 12V7.34884C11.3023 6.96372 11.6149 6.65116 12 6.65116C12.3851 6.65116 12.6977 6.96372 12.6977 7.34884Z" fill="#646464"/>
</svg>
