<svg width="24" height="24" viewBox="0 0 24 24" fill="none" xmlns="http://www.w3.org/2000/svg">
<path d="M6.86945 22C6.22145 22 5.57137 21.8328 4.97377 21.4996C3.73743 20.8096 3 19.5556 3 18.1457V5.85428C3 4.44445 3.73743 3.1915 4.97377 2.50042C6.21423 1.8073 7.67687 1.83601 8.88955 2.57527L19.2535 8.89748C20.3469 9.56395 21 10.7245 21 12C21 13.2755 20.3469 14.4351 19.2535 15.1025L8.88955 21.4248C8.26109 21.8072 7.56579 22 6.86945 22ZM6.86945 3.54103C6.47859 3.54103 6.08772 3.64145 5.72875 3.84242C4.98612 4.25665 4.54386 5.00941 4.54386 5.85428V18.1457C4.54386 18.9906 4.98715 19.7434 5.72875 20.1576C6.47344 20.5739 7.35394 20.5585 8.08422 20.1136L18.4482 13.7913C19.0797 13.4058 19.4571 12.7362 19.4571 12C19.4571 11.2638 19.0797 10.5942 18.4482 10.2087L8.08422 3.88647C7.70571 3.6568 7.28808 3.54103 6.86945 3.54103Z" fill="#646464"/>
</svg>
