<svg width="24" height="24" viewBox="0 0 24 24" fill="none" xmlns="http://www.w3.org/2000/svg">
<path d="M12 10.2051C12.4248 10.2051 12.7692 10.5495 12.7692 10.9744V12.2564H14.0513C14.4761 12.2564 14.8205 12.6008 14.8205 13.0256C14.8205 13.4505 14.4761 13.7949 14.0513 13.7949H12.7692V15.0769C12.7692 15.5018 12.4248 15.8462 12 15.8462C11.5752 15.8462 11.2308 15.5018 11.2308 15.0769V13.7949H9.94872C9.52389 13.7949 9.17949 13.4505 9.17949 13.0256C9.17949 12.6008 9.52389 12.2564 9.94872 12.2564H11.2308V10.9744C11.2308 10.5495 11.5752 10.2051 12 10.2051Z" fill="#646464"/>
<path fill-rule="evenodd" clip-rule="evenodd" d="M6.92868 2.82611C7.45763 2.29716 8.17504 2 8.92308 2H15.0769C15.5018 2 15.8462 2.3444 15.8462 2.76923C15.8462 3.19407 15.5018 3.53846 15.0769 3.53846H12.7692V7.12821H14.0513C15.0714 7.12821 16.0496 7.53342 16.7709 8.25472C17.4922 8.97601 17.8974 9.9543 17.8974 10.9744V21.2308C17.8974 21.6556 17.553 22 17.1282 22H6.8718C6.44697 22 6.10257 21.6556 6.10257 21.2308V10.9744C6.10257 9.9543 6.50779 8.97601 7.22908 8.25472C7.95038 7.53342 8.92866 7.12821 9.94872 7.12821H11.2308V3.53846H8.92308C8.58306 3.53846 8.25697 3.67353 8.01654 3.91397C7.7761 4.1544 7.64103 4.48049 7.64103 4.82051C7.64103 5.24535 7.29663 5.58974 6.8718 5.58974C6.44697 5.58974 6.10257 5.24535 6.10257 4.82051C6.10257 4.07247 6.39973 3.35506 6.92868 2.82611ZM9.94872 8.66667C9.33668 8.66667 8.74971 8.9098 8.31694 9.34257C7.88416 9.77535 7.64103 10.3623 7.64103 10.9744V20.4615H16.359V10.9744C16.359 10.3623 16.1158 9.77535 15.6831 9.34257C15.2503 8.9098 14.6633 8.66667 14.0513 8.66667H9.94872Z" fill="#646464"/>
</svg>
