<svg width="24" height="24" viewBox="0 0 24 24" fill="none" xmlns="http://www.w3.org/2000/svg">
<path d="M14.0852 12.8334C13.8379 12.8334 13.5961 12.76 13.3905 12.6227C13.1848 12.4853 13.0245 12.2901 12.9299 12.0617C12.8352 11.8333 12.8105 11.582 12.8587 11.3395C12.907 11.097 13.0261 10.8743 13.201 10.6995C13.3759 10.5247 13.5987 10.4056 13.8413 10.3574C14.0838 10.3091 14.3353 10.3339 14.5638 10.4285C14.7923 10.5231 14.9876 10.6833 15.125 10.8889C15.2624 11.0945 15.3358 11.3361 15.3358 11.5834C15.3358 11.9149 15.204 12.2328 14.9695 12.4672C14.735 12.7017 14.4169 12.8334 14.0852 12.8334ZM20.2136 8.89502C19.8789 6.96177 18.8709 5.20917 17.3679 3.94731C15.8649 2.68545 13.9638 1.99567 12.001 2.00002C6.24861 2.00002 4.60125 5.89502 3.5133 8.47252C3.29269 9.20181 2.91766 9.87511 2.41367 10.4467C2.26312 10.5345 2.14387 10.6672 2.07269 10.8262C2.00151 10.9852 1.98199 11.1626 2.01686 11.3333C2.05173 11.504 2.13924 11.6594 2.26709 11.7778C2.39495 11.8962 2.55671 11.9716 2.72964 11.9934C4.79034 12.1666 6.86289 11.8525 8.77967 11.0767C8.67392 11.311 8.64298 11.5721 8.69106 11.8246C8.73915 12.0771 8.86393 12.3086 9.04841 12.4876C9.23288 12.6667 9.46809 12.7845 9.72198 12.8251C9.97588 12.8657 10.2361 12.8271 10.4673 12.7145C10.6984 12.602 10.8892 12.4209 11.0137 12.196C11.1382 11.9711 11.1903 11.7133 11.1629 11.4578C11.1356 11.2022 11.0301 10.9613 10.8608 10.7679C10.6915 10.5744 10.4667 10.4378 10.2169 10.3767C11.8548 9.45956 13.2666 8.18764 14.3487 6.65419C14.4173 6.56553 14.4674 6.46393 14.4959 6.35548C14.5243 6.24702 14.5306 6.13394 14.5143 6.023C14.498 5.91207 14.4595 5.80556 14.4011 5.70985C14.3426 5.61415 14.2655 5.53122 14.1742 5.46603C14.0829 5.40083 13.9795 5.35472 13.8699 5.33045C13.7604 5.30618 13.6471 5.30425 13.5369 5.32477C13.4266 5.3453 13.3216 5.38786 13.2282 5.4499C13.1347 5.51194 13.0548 5.5922 12.9931 5.68585C12.0209 7.05406 10.7518 8.18481 9.28063 8.99352C7.80951 9.80222 6.17449 10.2679 4.49788 10.3559C4.68712 9.97835 4.86303 9.55919 5.04978 9.12002C6.07521 6.69002 7.35157 3.66669 12.001 3.66669C13.6482 3.66275 15.2383 4.26994 16.4633 5.37068C17.6884 6.47142 18.4612 7.98738 18.6321 9.62502C18.6512 9.80407 18.7278 9.97213 18.8505 10.104C18.9731 10.2359 19.1352 10.3246 19.3124 10.3567C19.6162 10.4161 19.8871 10.5859 20.0728 10.8334C20.2585 11.0809 20.3458 11.3884 20.3178 11.6965C20.2898 12.0046 20.1485 12.2914 19.9212 12.5014C19.6939 12.7114 19.3968 12.8297 19.0873 12.8334C19.0168 12.8314 18.9466 12.8239 18.8772 12.8109C18.6828 12.7754 18.4821 12.8106 18.3113 12.9101C18.1406 13.0096 18.011 13.1668 17.946 13.3534C17.1824 15.5175 14.6121 17.8334 12.001 17.8334C9.58334 17.8334 7.3324 15.9309 6.36033 14.0509C6.25862 13.8546 6.08308 13.7068 5.87232 13.6399C5.66157 13.573 5.43286 13.5925 5.23652 13.6942C5.04018 13.7959 4.89228 13.9713 4.82537 14.182C4.75845 14.3927 4.778 14.6213 4.8797 14.8175C5.74374 16.429 7.05981 17.7533 8.66629 18.6275V21.1667C8.66629 21.3877 8.75413 21.5997 8.91047 21.7559C9.06682 21.9122 9.27887 22 9.49997 22C9.72108 22 9.93313 21.9122 10.0895 21.7559C10.2458 21.5997 10.3337 21.3877 10.3337 21.1667V19.2817C11.4259 19.575 12.5762 19.575 13.6684 19.2817V21.1667C13.6684 21.3877 13.7562 21.5997 13.9126 21.7559C14.0689 21.9122 14.281 22 14.5021 22C14.7232 22 14.9352 21.9122 15.0916 21.7559C15.2479 21.5997 15.3358 21.3877 15.3358 21.1667V18.6284C17.0566 17.7036 18.4383 16.2554 19.2807 14.4934C19.9359 14.4487 20.5567 14.1844 21.043 13.7433C21.5292 13.3022 21.8525 12.7101 21.9603 12.0627C22.0682 11.4152 21.9545 10.7503 21.6375 10.1755C21.3206 9.6007 20.8189 9.14955 20.2136 8.89502Z" fill="#646464"/>
</svg>
