<svg width="24" height="24" viewBox="0 0 24 24" fill="none" xmlns="http://www.w3.org/2000/svg">
<path d="M17.7692 2H6.23077C3.50256 2 2 3.50256 2 6.23077V17.7692C2 20.4974 3.50256 22 6.23077 22H17.7692C20.4974 22 22 20.4974 22 17.7692V6.23077C22 3.50256 20.4974 2 17.7692 2ZM20.4615 17.7692C20.4615 19.6564 19.6564 20.4615 17.7692 20.4615H6.23077C4.34359 20.4615 3.53846 19.6564 3.53846 17.7692V6.23077C3.53846 4.34359 4.34359 3.53846 6.23077 3.53846H17.7692C19.6564 3.53846 20.4615 4.34359 20.4615 6.23077V17.7692Z" fill="#646464"/>
</svg>
