<svg width="24" height="24" viewBox="0 0 24 24" fill="none" xmlns="http://www.w3.org/2000/svg">
<path d="M20.651 15.105L18.0082 13.529C16.7282 12.767 15.0752 13.138 14.2452 14.376L13.483 15.513C11.322 14.457 9.54416 12.674 8.48716 10.504L9.61802 9.75199C10.859 8.92699 11.2362 7.27598 10.4772 5.99298L8.91417 3.35297C8.42717 2.53197 7.47917 2.10396 6.51817 2.29596C5.07517 2.58496 3.80411 3.46996 3.03111 4.72296C2.26111 5.97096 2.05116 7.43097 2.43516 8.83197C4.12816 14.993 9.00918 19.871 15.1742 21.563C15.6302 21.688 16.0921 21.75 16.5511 21.75C17.5011 21.75 18.4391 21.485 19.2801 20.966C20.5331 20.193 21.4182 18.922 21.7062 17.479C21.8932 16.548 21.47 15.594 20.651 15.105ZM20.2352 17.186C20.0282 18.222 19.392 19.135 18.492 19.691C17.604 20.239 16.5671 20.391 15.5711 20.118C9.91515 18.565 5.43516 14.089 3.88316 8.43598C3.60916 7.43998 3.76019 6.40197 4.30919 5.51197C4.86419 4.61097 5.77718 3.97599 6.83018 3.76499C6.87918 3.75499 6.92915 3.74997 6.97715 3.74997C7.23915 3.74997 7.48715 3.88696 7.62315 4.11896L9.18614 6.75797C9.53914 7.35297 9.36419 8.11996 8.78819 8.50296L7.12706 9.60797C6.82706 9.80697 6.7122 10.19 6.8502 10.521C8.0902 13.495 10.5012 15.911 13.4642 17.15C13.7902 17.287 14.1761 17.174 14.3761 16.876L15.4911 15.211C15.8771 14.636 16.6451 14.463 17.2401 14.817L19.8822 16.393C20.1562 16.556 20.2982 16.875 20.2352 17.186ZM14.3082 9.28696C14.2702 9.19496 14.2501 9.09797 14.2501 8.99997V5.66696C14.2501 5.25296 14.5861 4.91696 15.0001 4.91696C15.4141 4.91696 15.7501 5.25296 15.7501 5.66696V7.18997L19.4701 3.46997C19.7631 3.17697 20.2381 3.17697 20.5311 3.46997C20.8241 3.76297 20.8241 4.23798 20.5311 4.53098L16.8111 8.25098H18.3331C18.7471 8.25098 19.0831 8.58698 19.0831 9.00098C19.0831 9.41498 18.7471 9.75098 18.3331 9.75098H15.0001C14.9021 9.75098 14.805 9.73097 14.713 9.69297C14.53 9.61596 14.3842 9.46996 14.3082 9.28696Z" fill="#646464"/>
</svg>
