<svg width="24" height="24" viewBox="0 0 24 24" fill="none" xmlns="http://www.w3.org/2000/svg">
<path fill-rule="evenodd" clip-rule="evenodd" d="M12 2C12.4248 2 12.7692 2.3444 12.7692 2.76923V4.08859C13.5492 4.16443 14.3152 4.35536 15.0418 4.65634C16.0062 5.0558 16.8825 5.6413 17.6206 6.37941C18.3587 7.11751 18.9442 7.99377 19.3437 8.95816C19.6446 9.6848 19.8356 10.4508 19.9114 11.2308H21.2308C21.6556 11.2308 22 11.5752 22 12C22 12.4248 21.6556 12.7692 21.2308 12.7692H19.9114C19.8356 13.5492 19.6446 14.3152 19.3437 15.0418C18.9442 16.0062 18.3587 16.8825 17.6206 17.6206C16.8825 18.3587 16.0062 18.9442 15.0418 19.3437C14.3152 19.6446 13.5492 19.8356 12.7692 19.9114V21.2308C12.7692 21.6556 12.4248 22 12 22C11.5752 22 11.2308 21.6556 11.2308 21.2308V19.9114C10.4508 19.8356 9.6848 19.6446 8.95816 19.3437C7.99377 18.9442 7.11751 18.3587 6.37941 17.6206C5.6413 16.8825 5.0558 16.0062 4.65634 15.0418C4.35536 14.3152 4.16443 13.5492 4.08859 12.7692H2.76923C2.3444 12.7692 2 12.4248 2 12C2 11.5752 2.3444 11.2308 2.76923 11.2308H4.08859C4.16443 10.4508 4.35536 9.6848 4.65634 8.95816C5.0558 7.99377 5.6413 7.11751 6.37941 6.37941C7.11751 5.6413 7.99377 5.0558 8.95816 4.65634C9.6848 4.35536 10.4508 4.16443 11.2308 4.08859V2.76923C11.2308 2.3444 11.5752 2 12 2ZM9.5469 6.0777C10.3246 5.75555 11.1582 5.58974 12 5.58974C12.8418 5.58974 13.6754 5.75555 14.4531 6.0777C15.2308 6.39984 15.9375 6.87202 16.5327 7.46726C17.128 8.06251 17.6002 8.76917 17.9223 9.5469C18.2445 10.3246 18.4103 11.1582 18.4103 12C18.4103 12.8418 18.2445 13.6754 17.9223 14.4531C17.6002 15.2308 17.128 15.9375 16.5327 16.5327C15.9375 17.128 15.2308 17.6002 14.4531 17.9223C13.6754 18.2445 12.8418 18.4103 12 18.4103C11.1582 18.4103 10.3246 18.2445 9.5469 17.9223C8.76917 17.6002 8.06251 17.128 7.46726 16.5327C6.87202 15.9375 6.39984 15.2308 6.0777 14.4531C5.75555 13.6754 5.58974 12.8418 5.58974 12C5.58974 11.1582 5.75555 10.3246 6.0777 9.5469C6.39984 8.76917 6.87202 8.06251 7.46726 7.46726C8.06251 6.87202 8.76917 6.39984 9.5469 6.0777ZM10.7179 12C10.7179 11.2919 11.2919 10.7179 12 10.7179C12.7081 10.7179 13.2821 11.2919 13.2821 12C13.2821 12.7081 12.7081 13.2821 12 13.2821C11.2919 13.2821 10.7179 12.7081 10.7179 12Z" fill="#646464"/>
</svg>
