<svg width="24" height="24" viewBox="0 0 24 24" fill="none" xmlns="http://www.w3.org/2000/svg">
<path d="M21 16.75H20.75V9.5C20.75 7.082 19.418 5.75 17 5.75H16.75V3.5C16.75 3.086 16.414 2.75 16 2.75C15.586 2.75 15.25 3.086 15.25 3.5V5.75H12.75V3.5C12.75 3.086 12.414 2.75 12 2.75C11.586 2.75 11.25 3.086 11.25 3.5V5.75H8.75V3.5C8.75 3.086 8.414 2.75 8 2.75C7.586 2.75 7.25 3.086 7.25 3.5V5.75H7C4.582 5.75 3.25 7.082 3.25 9.5V16.75H3C2.586 16.75 2.25 17.086 2.25 17.5V18.5C2.25 20.016 3.483 21.25 5 21.25H19C20.517 21.25 21.75 20.016 21.75 18.5V17.5C21.75 17.086 21.414 16.75 21 16.75ZM7 7.25H17C18.577 7.25 19.25 7.923 19.25 9.5V10.654C18.511 10.951 17.869 11.632 17.405 12.251C16.863 11.427 15.964 10.5 14.663 10.5C13.419 10.5 12.546 11.347 12 12.142C11.454 11.347 10.58 10.5 9.336 10.5C8.036 10.5 7.13599 11.427 6.59399 12.251C6.13099 11.631 5.489 10.951 4.75 10.654V9.5C4.75 7.923 5.423 7.25 7 7.25ZM4.75 12.424C5.215 12.859 5.70401 13.548 6.00101 14.103C6.14101 14.364 6.42301 14.518 6.71701 14.497C7.01201 14.476 7.26801 14.281 7.36801 14.003C7.37501 13.983 8.12299 12.001 9.33499 12.001C10.545 12.001 11.284 13.981 11.292 14.001C11.398 14.3 11.682 14.5 11.999 14.5C12 14.5 12 14.5 12.001 14.5C12.319 14.499 12.602 14.299 12.708 13.999C12.89 13.481 13.639 12.001 14.663 12.001C15.875 12.001 16.623 13.983 16.63 14.003C16.731 14.282 16.986 14.476 17.282 14.498C17.575 14.516 17.858 14.365 17.998 14.104C18.295 13.549 18.785 12.86 19.25 12.425V16.751H4.75V12.424ZM20.25 18.5C20.25 19.189 19.689 19.75 19 19.75H5C4.311 19.75 3.75 19.189 3.75 18.5V18.25H20.25V18.5Z" fill="#646464"/>
</svg>
