<svg width="24" height="24" viewBox="0 0 24 24" fill="none" xmlns="http://www.w3.org/2000/svg">
<path fill-rule="evenodd" clip-rule="evenodd" d="M12 2C10.6868 2 9.38642 2.25866 8.17317 2.7612C6.96342 3.2623 5.8639 3.99609 4.937 4.92088L4.92888 4.92888L4.92088 4.937C3.99609 5.8639 3.2623 6.96342 2.7612 8.17317C2.25866 9.38642 2 10.6868 2 12C2 13.3132 2.25866 14.6136 2.7612 15.8268C3.26232 17.0366 3.99615 18.1362 4.921 19.0631L4.92888 19.0711L4.93687 19.079C5.8638 20.0038 6.96336 20.7377 8.17317 21.2388C9.38642 21.7413 10.6868 22 12 22C13.3132 22 14.6136 21.7413 15.8268 21.2388C17.0367 20.7377 18.1363 20.0038 19.0632 19.0789C19.0659 19.0763 19.0685 19.0737 19.0711 19.0711C19.0737 19.0685 19.0763 19.0659 19.0789 19.0632C20.0038 18.1363 20.7377 17.0367 21.2388 15.8268C21.7413 14.6136 22 13.3132 22 12C22 10.6868 21.7413 9.38642 21.2388 8.17317C20.7377 6.96337 20.0039 5.8638 19.079 4.93688L19.0711 4.92888L19.0631 4.92099C18.1362 3.99615 17.0366 3.26232 15.8268 2.7612C14.6136 2.25866 13.3132 2 12 2ZM18.5024 17.4145C19.0469 16.7606 19.4907 16.027 19.8174 15.2381C20.1442 14.4492 20.3491 13.6167 20.4265 12.7692H17.8471C17.712 13.7958 17.3088 14.7692 16.6784 15.5906L18.5024 17.4145ZM15.5906 16.6784C14.7692 17.3088 13.7958 17.712 12.7692 17.8471V20.4265C13.6167 20.3491 14.4492 20.1442 15.2381 19.8174C16.027 19.4907 16.7606 19.0469 17.4145 18.5024L15.5906 16.6784ZM4.18256 8.76191C4.50934 7.97298 4.95309 7.23945 5.49764 6.58549L7.32156 8.40942C6.69116 9.23079 6.28796 10.2042 6.15292 11.2308H3.5735C3.65086 10.3833 3.85577 9.55084 4.18256 8.76191ZM6.58549 5.49764L8.40942 7.32156C9.23079 6.69116 10.2042 6.28796 11.2308 6.15292V3.5735C10.3833 3.65086 9.55084 3.85577 8.76191 4.18256C7.97298 4.50934 7.23945 4.95309 6.58549 5.49764ZM6.58549 18.5024C7.23945 19.0469 7.97298 19.4907 8.76191 19.8174C9.55084 20.1442 10.3833 20.3491 11.2308 20.4265V17.8471C10.2042 17.712 9.23079 17.3088 8.40942 16.6784L6.58549 18.5024ZM7.32156 15.5906C6.69116 14.7692 6.28796 13.7958 6.15292 12.7692H3.5735C3.65086 13.6167 3.85577 14.4492 4.18256 15.2381C4.50934 16.027 4.95309 16.7605 5.49763 17.4145L7.32156 15.5906ZM15.2381 4.18256C16.027 4.50934 16.7605 4.95309 17.4145 5.49763L15.5906 7.32156C14.7692 6.69116 13.7958 6.28796 12.7692 6.15292V3.5735C13.6167 3.65086 14.4492 3.85577 15.2381 4.18256ZM18.5024 6.58549L16.6784 8.40942C17.3088 9.23079 17.712 10.2042 17.8471 11.2308H20.4265C20.3491 10.3833 20.1442 9.55084 19.8174 8.76191C19.4907 7.97298 19.0469 7.23945 18.5024 6.58549ZM16.359 12C16.359 10.8439 15.8997 9.73521 15.0823 8.91774C14.2648 8.10027 13.1561 7.64103 12 7.64103C10.8439 7.64103 9.73521 8.10027 8.91774 8.91774C8.10027 9.73521 7.64103 10.8439 7.64103 12C7.64103 13.1561 8.10027 14.2648 8.91774 15.0823C9.73521 15.8997 10.8439 16.359 12 16.359C13.1561 16.359 14.2648 15.8997 15.0823 15.0823C15.8997 14.2648 16.359 13.1561 16.359 12Z" fill="#646464"/>
</svg>
