<svg width="24" height="24" viewBox="0 0 24 24" fill="none" xmlns="http://www.w3.org/2000/svg">
<path d="M18.5929 9.14374C18.5929 9.12397 18.5929 9.1042 18.5929 9.08357C18.5929 5.44245 15.6412 2.49072 12.0001 2.49072C8.35899 2.49072 5.40726 5.44245 5.40726 9.08357C5.40726 9.10416 5.40726 9.12393 5.40726 9.14374C2.21977 10.9038 1.06257 14.9145 2.82258 18.102C4.5826 21.2895 8.59334 22.4467 11.7808 20.6867C11.8547 20.6459 11.9279 20.6037 12.0001 20.5601C15.1177 22.4412 19.1699 21.4388 21.051 18.3213C22.9321 15.2038 21.9298 11.1515 18.8123 9.27041C18.7399 9.22677 18.6668 9.18453 18.5929 9.14374ZM12.0001 18.5385C11.1135 17.7465 10.5424 16.6612 10.3915 15.4819C11.4465 15.7462 12.5504 15.7462 13.6055 15.4819C13.4545 16.6593 12.8846 17.7429 12.0001 18.5344V18.5385ZM12.0001 14.0282C11.4798 14.0285 10.9627 13.9464 10.4681 13.7851C10.6929 12.7748 11.2287 11.8603 12.0001 11.1702C12.7715 11.8603 13.3073 12.7748 13.5321 13.7851C13.0375 13.9464 12.5204 14.0285 12.0001 14.0282ZM8.97234 12.9898C8.06024 12.2834 7.42336 11.2808 7.17169 10.1549C8.28029 9.7939 9.48079 9.83622 10.5612 10.2744C9.82045 11.0382 9.27531 11.9698 8.97234 12.9898ZM13.439 10.2703C14.5194 9.83208 15.7199 9.78976 16.8285 10.1508C16.5777 11.2781 15.9408 12.2824 15.0279 12.9898C14.7255 11.9684 14.1803 11.0353 13.439 10.2703ZM12.0001 4.13895C14.4879 4.14216 16.5872 5.99063 16.9052 8.4581C15.2431 8.04072 13.4838 8.28696 12.0001 9.14456C10.5164 8.28692 8.75713 8.04072 7.09503 8.4581C7.413 5.99067 9.51229 4.14216 12.0001 4.13895ZM3.75907 14.8523C3.75923 13.3238 4.46702 11.8814 5.67592 10.946C6.1569 12.5677 7.24023 13.9439 8.70368 14.7921C8.70368 14.8119 8.70368 14.8317 8.70368 14.8523C8.70278 16.5632 9.36916 18.207 10.5612 19.4343C8.03039 20.4602 5.14712 19.2402 4.12123 16.7094C3.88211 16.1195 3.75911 15.4889 3.75907 14.8523ZM15.2965 19.7969C14.6597 19.7974 14.0289 19.6743 13.439 19.4344C14.631 18.2071 15.2974 16.5632 15.2965 14.8523C15.2965 14.8317 15.2965 14.812 15.2965 14.7922C16.7603 13.9441 17.8439 12.5679 18.3251 10.9461C20.4825 12.6204 20.8741 15.7265 19.1998 17.8839C18.2638 19.0899 16.8232 19.796 15.2965 19.7969Z" fill="#646464"/>
</svg>
