<svg width="24" height="24" viewBox="0 0 24 24" fill="none" xmlns="http://www.w3.org/2000/svg">
<path d="M18.5376 15.95L15.9885 12.425C16.535 12.3131 17.0069 11.973 17.2589 11.4604C17.568 10.8327 17.4912 10.1012 17.0577 9.55154L13.4394 2.66418C12.7426 1.77861 11.2575 1.77861 10.5606 2.66418L6.94232 9.55154C6.50884 10.1022 6.4321 10.8337 6.74114 11.4604C6.99418 11.973 7.465 12.3131 8.01153 12.425L5.46145 15.9511C4.94604 16.6086 4.85581 17.4818 5.22396 18.2277C5.59211 18.9715 6.33981 19.4337 7.17567 19.4337H11.2222L11.2222 21.2295C11.2222 21.6548 11.5707 22 12 22C12.4294 22 12.7778 21.6548 12.7778 21.2295L12.7778 19.4327H16.8244C17.6603 19.4327 18.408 18.9704 18.7761 18.2266C19.1443 17.4808 19.054 16.6085 18.5376 15.95ZM8.16917 10.4978L11.7874 3.61034C11.858 3.51993 11.9513 3.50662 12.0011 3.50662C12.0508 3.50662 12.1431 3.51993 12.2147 3.61034L15.833 10.4978C15.9242 10.6138 15.891 10.7258 15.863 10.7834C15.835 10.8399 15.7666 10.9344 15.6204 10.9344H8.38384C8.23658 10.9344 8.16812 10.8399 8.14116 10.7834C8.11109 10.7269 8.07791 10.6138 8.16917 10.4978ZM17.3792 17.5486C17.3284 17.6513 17.1718 17.8917 16.8244 17.8917H7.17567C6.82826 17.8917 6.6727 17.6523 6.62085 17.5486C6.569 17.4448 6.47256 17.1726 6.6893 16.8952L9.9415 12.4744H14.0575L17.3087 16.8941C17.5265 17.1726 17.43 17.4448 17.3792 17.5486Z" fill="#646464"/>
</svg>
