<svg width="24" height="24" viewBox="0 0 24 24" fill="none" xmlns="http://www.w3.org/2000/svg">
<path fill-rule="evenodd" clip-rule="evenodd" d="M10 3.75L6.23743 3.75C6.01875 3.75 5.84952 3.79531 5.75 3.84203V7.25H9C9.41421 7.25 9.75 7.58579 9.75 8C9.75 8.41421 9.41421 8.75 9 8.75H5.75L5.75 11.25H9C9.41421 11.25 9.75 11.5858 9.75 12C9.75 12.4142 9.41421 12.75 9 12.75H5.75V15.25H9C9.41421 15.25 9.75 15.5858 9.75 16C9.75 16.4142 9.41421 16.75 9 16.75H5.75L5.75 20.158C5.84952 20.2047 6.01875 20.25 6.23743 20.25L10 20.25C14.5564 20.25 18.25 16.5563 18.25 12C18.25 7.44365 14.5564 3.75 10 3.75ZM4.25 20.324C4.25 20.9132 4.67696 21.2822 5.00287 21.4602C5.3569 21.6536 5.79479 21.75 6.23743 21.75L10 21.75C15.3848 21.75 19.75 17.3848 19.75 12C19.75 6.61522 15.3848 2.25 10 2.25L6.23743 2.25C5.79479 2.25 5.3569 2.3464 5.00287 2.5398C4.67696 2.71785 4.25 3.08679 4.25 3.67599L4.25 20.324Z" fill="#646464"/>
</svg>
