<svg width="24" height="24" viewBox="0 0 24 24" fill="none" xmlns="http://www.w3.org/2000/svg">
<path d="M20.03 8.47L14.03 2.47C13.889 2.329 13.699 2.25 13.5 2.25H7.5C5.082 2.25 3.75 3.582 3.75 6V18C3.75 20.418 5.082 21.75 7.5 21.75H16.5C18.918 21.75 20.25 20.418 20.25 18V9C20.25 8.801 20.171 8.61 20.03 8.47ZM14.25 4.811L17.689 8.25H16.5C14.923 8.25 14.25 7.577 14.25 6V4.811ZM16.5 20.25H7.5C5.923 20.25 5.25 19.577 5.25 18V6C5.25 4.423 5.923 3.75 7.5 3.75H12.75V6C12.75 8.418 14.082 9.75 16.5 9.75H18.75V18C18.75 19.577 18.077 20.25 16.5 20.25Z" fill="#646464"/>
<path d="M10.3148 14.4399C10.4214 14.5465 10.4813 14.6911 10.4813 14.8418V15.095C10.4785 15.4951 10.3176 15.8779 10.0336 16.1598C9.7497 16.4418 9.36579 16.6 8.96565 16.6C8.76732 16.6009 8.57076 16.5627 8.38721 16.4875C8.20366 16.4124 8.03672 16.3018 7.89595 16.1621C7.75518 16.0224 7.64334 15.8563 7.56682 15.6733C7.4903 15.4903 7.45061 15.294 7.45001 15.0957V13.5043C7.45061 13.306 7.4903 13.1097 7.56682 12.9267C7.64334 12.7437 7.75518 12.5776 7.89595 12.4379C8.03672 12.2982 8.20366 12.1876 8.38721 12.1125C8.57076 12.0373 8.76732 11.9991 8.96565 12C9.24247 12.0023 9.5135 12.0795 9.74995 12.2235C9.98639 12.3675 10.1794 12.5728 10.3085 12.8177C10.3374 12.8729 10.3551 12.9333 10.3606 12.9954C10.3661 13.0575 10.3594 13.12 10.3407 13.1795C10.3221 13.2389 10.2919 13.2941 10.2519 13.3419C10.2119 13.3897 10.1629 13.4292 10.1077 13.4581C10.0525 13.4869 9.99208 13.5046 9.93001 13.5101C9.86793 13.5157 9.80538 13.5089 9.74592 13.4903C9.68645 13.4716 9.63125 13.4414 9.58345 13.4015C9.53565 13.3615 9.49619 13.3125 9.46733 13.2572C9.41822 13.1661 9.34602 13.0895 9.25796 13.0351C9.16991 12.9807 9.06911 12.9504 8.96565 12.9473C8.89085 12.9466 8.81666 12.9608 8.74743 12.9891C8.67819 13.0174 8.6153 13.0593 8.56244 13.1122C8.50958 13.1652 8.46782 13.2281 8.43959 13.2974C8.41136 13.3666 8.39724 13.4409 8.39805 13.5157V15.0828C8.39713 15.1577 8.41118 15.232 8.43936 15.3013C8.46755 15.3707 8.5093 15.4337 8.56217 15.4868C8.61504 15.5398 8.67796 15.5817 8.74725 15.61C8.81653 15.6384 8.89079 15.6527 8.96565 15.652C9.11379 15.6501 9.25549 15.5911 9.36122 15.4873C9.46696 15.3836 9.52859 15.243 9.53326 15.095V15.0313H9.34456C9.24407 15.0313 9.14769 14.9914 9.07663 14.9203C9.00557 14.8493 8.96565 14.7529 8.96565 14.6524C8.96565 14.5519 9.00557 14.4555 9.07663 14.3845C9.14769 14.3134 9.24407 14.2735 9.34456 14.2735H9.91293C10.0637 14.2735 10.2082 14.3334 10.3148 14.4399Z" fill="#646464"/>
<path d="M12.616 12.1387C12.7049 12.2276 12.7548 12.348 12.7548 12.4737V16.1256C12.7548 16.2512 12.7049 16.3717 12.616 16.4605C12.5272 16.5493 12.4067 16.5992 12.2811 16.5992C12.1555 16.5992 12.035 16.5493 11.9462 16.4605C11.8574 16.3717 11.8075 16.2512 11.8075 16.1256V12.4737C11.8075 12.348 11.8574 12.2276 11.9462 12.1387C12.035 12.0499 12.1555 12 12.2811 12C12.4067 12 12.5272 12.0499 12.616 12.1387Z" fill="#646464"/>
<path d="M15.0282 12.9473V13.8097L15.9672 13.8082C16.0928 13.8082 16.2132 13.8581 16.3021 13.9469C16.3909 14.0357 16.4408 14.1562 16.4408 14.2818C16.4408 14.4074 16.3909 14.5279 16.3021 14.6167C16.2132 14.7055 16.0928 14.7555 15.9672 14.7555H15.0282V16.1195C15.0282 16.2451 14.9783 16.3656 14.8895 16.4544C14.8007 16.5433 14.6802 16.5932 14.5546 16.5932C14.429 16.5932 14.3085 16.5433 14.2197 16.4544C14.1308 16.3656 14.0809 16.2451 14.0809 16.1195V12.4737C14.0809 12.348 14.1308 12.2276 14.2197 12.1387C14.3085 12.0499 14.429 12 14.5546 12H16.0801C16.2057 12 16.3262 12.0499 16.415 12.1387C16.5038 12.2276 16.5537 12.348 16.5537 12.4737C16.5537 12.5993 16.5038 12.7197 16.415 12.8086C16.3262 12.8974 16.2057 12.9473 16.0801 12.9473H15.0282Z" fill="#646464"/>
</svg>
