<svg width="24" height="24" viewBox="0 0 24 24" fill="none" xmlns="http://www.w3.org/2000/svg">
<path d="M17.7692 2H6.23077C3.50256 2 2 3.50256 2 6.23077V17.7692C2 20.4974 3.50256 22 6.23077 22H17.7692C20.4974 22 22 20.4974 22 17.7692V6.23077C22 3.50256 20.4974 2 17.7692 2ZM17.3846 20.4615H6.61539V20.0718C6.61539 19.2174 6.87696 16.4307 10.2462 16.4307H13.7538C17.123 16.4307 17.3846 19.2174 17.3846 20.0718V20.4615ZM20.4615 17.7692C20.4615 19.2113 19.9867 20.0174 18.9231 20.3189V20.0718C18.9231 17.682 17.5692 14.8923 13.7538 14.8923H10.2462C6.43081 14.8923 5.07692 17.6831 5.07692 20.0718V20.3189C4.01333 20.0174 3.53846 19.2103 3.53846 17.7692V6.23077C3.53846 4.34359 4.34359 3.53846 6.23077 3.53846H17.7692C19.6564 3.53846 20.4615 4.34359 20.4615 6.23077V17.7692ZM12.0083 6.10256C9.88826 6.10256 8.16211 7.82769 8.16211 9.94872C8.16211 12.0697 9.88826 13.7949 12.0083 13.7949C14.1283 13.7949 15.8544 12.0697 15.8544 9.94872C15.8544 7.82769 14.1283 6.10256 12.0083 6.10256ZM12.0083 12.2564C10.7365 12.2564 9.70057 11.2215 9.70057 9.94872C9.70057 8.6759 10.7365 7.64103 12.0083 7.64103C13.2801 7.64103 14.316 8.6759 14.316 9.94872C14.316 11.2215 13.2801 12.2564 12.0083 12.2564Z" fill="#646464"/>
</svg>
