<svg width="24" height="24" viewBox="0 0 24 24" fill="none" xmlns="http://www.w3.org/2000/svg">
<path fill-rule="evenodd" clip-rule="evenodd" d="M19.5305 2.06209C19.8153 2.18324 20 2.46142 20 2.76925V21.2308C20 21.6556 19.6534 22 19.2258 22H18.1935C17.766 22 17.4194 21.6556 17.4194 21.2308V18.1538C17.4194 17.729 17.766 17.3846 18.1935 17.3846C18.284 17.3846 18.3709 17.4 18.4516 17.4284V15.8462H14.0645C13.6388 15.8462 13.293 15.5047 13.2903 15.0817C13.2784 13.1835 13.3226 11.1762 14.0371 9.03244C14.7552 6.8775 16.1299 4.6404 18.6914 2.21264C18.9156 2.00017 19.2457 1.94095 19.5305 2.06209ZM18.4516 14.3077V4.66751C16.8866 6.41604 16.0073 8.01465 15.5069 9.51604C14.9635 11.1466 14.8515 12.7043 14.8387 14.3077H18.4516ZM4.77419 3.02566C5.20177 3.02566 5.54839 3.37005 5.54839 3.79489V6.87181C5.54839 7.48385 5.79309 8.07082 6.22866 8.50359C6.47594 8.74929 6.77324 8.93386 7.09677 9.04752V3.79489C7.09677 3.37005 7.44339 3.02566 7.87097 3.02566C8.29854 3.02566 8.64516 3.37005 8.64516 3.79489V9.04752C8.9687 8.93386 9.266 8.74929 9.51328 8.50359C9.94885 8.07082 10.1935 7.48385 10.1935 6.87181V3.79489C10.1935 3.37005 10.5402 3.02566 10.9677 3.02566C11.3953 3.02566 11.7419 3.37005 11.7419 3.79489V6.87181C11.7419 7.89187 11.3341 8.87015 10.6082 9.59145C10.0675 10.1287 9.38331 10.4905 8.64516 10.6403V21.2308C8.64516 21.6556 8.29854 22 7.87097 22C7.44339 22 7.09677 21.6556 7.09677 21.2308V10.6403C6.35862 10.4905 5.67446 10.1287 5.13378 9.59145C4.40783 8.87015 4 7.89187 4 6.87181V3.79489C4 3.37005 4.34662 3.02566 4.77419 3.02566Z" fill="#646464"/>
</svg>
