<svg width="24" height="24" viewBox="0 0 24 24" fill="none" xmlns="http://www.w3.org/2000/svg">
<path d="M21.287 6.88195C21.286 6.87995 21.287 6.87797 21.286 6.87597C21.284 6.87097 21.279 6.86797 21.277 6.86297C20.89 6.15997 20.287 5.57996 19.525 5.24096L13.525 2.57396C12.556 2.14396 11.447 2.14396 10.478 2.57396L4.47803 5.24096C3.71503 5.57996 3.11295 6.15997 2.72595 6.86297C2.72395 6.86797 2.71904 6.87097 2.71704 6.87597C2.71604 6.87797 2.71694 6.87995 2.71594 6.88195C2.42294 7.42095 2.25305 8.02895 2.25305 8.66695V15.334C2.25305 16.814 3.12698 18.1589 4.47998 18.7609L10.48 21.428C10.962 21.642 11.479 21.748 11.996 21.75C11.999 21.75 12.001 21.751 12.004 21.751C12.007 21.751 12.009 21.75 12.012 21.75C12.529 21.749 13.046 21.642 13.528 21.428L19.528 18.7609C20.881 18.1599 21.755 16.815 21.755 15.334V8.66695C21.75 8.02895 21.58 7.41995 21.287 6.88195ZM11.0861 3.94396C11.3761 3.81496 11.689 3.74996 12 3.74996C12.311 3.74996 12.6239 3.81395 12.9139 3.94295L18.9139 6.60995C19.0839 6.68595 19.233 6.79097 19.376 6.90197L16.6429 8.11696L9.38403 4.69997L11.0861 3.94396ZM7.573 5.50496L14.832 8.92196L12.92 9.77196C12.334 10.027 11.663 10.0269 11.085 9.77395L4.62402 6.90197C4.76702 6.79097 4.91606 6.68495 5.08606 6.60995L7.573 5.50496ZM5.08606 17.389C4.27406 17.028 3.75 16.221 3.75 15.333V8.66595C3.75 8.50095 3.78595 8.34297 3.81995 8.18697L10.48 11.147C10.729 11.255 10.987 11.3339 11.25 11.3859V20.108C11.196 20.089 11.1391 20.078 11.0861 20.055L5.08606 17.389ZM20.25 15.333C20.25 16.221 19.7259 17.028 18.9139 17.389L12.9139 20.056C12.8609 20.08 12.804 20.09 12.75 20.109V11.3859C13.014 11.3329 13.274 11.2539 13.524 11.1449L15.879 10.098V11.89C15.879 12.304 16.215 12.64 16.629 12.64C17.043 12.64 17.379 12.304 17.379 11.89V9.43197L20.179 8.18795C20.214 8.34495 20.249 8.50195 20.249 8.66695V15.333H20.25Z" fill="#646464"/>
</svg>
