<svg width="24" height="24" viewBox="0 0 24 24" fill="none" xmlns="http://www.w3.org/2000/svg">
<path fill-rule="evenodd" clip-rule="evenodd" d="M13.2459 3.54797C12.8719 3.35759 12.4483 3.25 12 3.25C10.6352 3.25 9.5026 4.24423 9.28698 5.54793C8.78013 5.88006 8.31044 6.34075 7.91607 6.81561C7.52948 7.28109 7.18581 7.79582 6.92713 8.28832C4.85069 8.56818 3.25 10.3471 3.25 12.5C3.25 14.4456 4.55676 16.0849 6.34064 16.5898L6.40779 17.0087L6.41364 17.0439C6.53595 17.7778 6.63509 18.3727 6.75522 18.8521C6.87952 19.3481 7.03895 19.777 7.311 20.1624C7.6782 20.6827 8.17183 21.1009 8.74536 21.3775C9.17028 21.5825 9.61954 21.6693 10.1293 21.7103C10.6219 21.75 11.2249 21.75 11.9689 21.75H12.0311C12.7751 21.75 13.3781 21.75 13.8707 21.7103C14.3805 21.6693 14.8297 21.5825 15.2546 21.3775C15.8282 21.1009 16.3218 20.6827 16.689 20.1624C16.961 19.777 17.1205 19.3481 17.2448 18.8521C17.3649 18.3727 17.464 17.7779 17.5863 17.044L17.5915 17.0133L17.6594 16.5898C19.4432 16.0849 20.75 14.4456 20.75 12.5C20.75 10.3494 19.1528 8.57202 17.0796 8.28923C16.5773 7.27905 15.7815 6.14282 14.7079 5.51825C14.6472 5.17557 14.5231 4.85462 14.3482 4.56833C14.7655 4.05297 15.409 3.75 16 3.75C16.4142 3.75 16.75 3.41421 16.75 3C16.75 2.58579 16.4142 2.25 16 2.25C14.9902 2.25 13.949 2.72619 13.2459 3.54797ZM14.4738 7.20261C14.0276 8.11872 13.0875 8.75 12 8.75C10.933 8.75 10.0079 8.1423 9.55197 7.25413C9.39061 7.40844 9.22844 7.58318 9.07 7.77396C8.65135 8.27805 8.30513 8.83808 8.10294 9.30113C7.98619 9.56849 7.72501 9.74389 7.43335 9.75079C5.94556 9.786 4.75 11.0035 4.75 12.5C4.75 13.8848 5.77421 15.0316 7.1062 15.2221C7.23443 15.2405 7.36588 15.25 7.5 15.25C8.09644 15.25 8.6465 15.061 9.09647 14.7395C9.33426 14.5696 9.64909 14.5533 9.90315 14.6977C10.5212 15.0491 11.236 15.25 12 15.25C12.764 15.25 13.4788 15.0491 14.0968 14.6977C14.3509 14.5533 14.6657 14.5696 14.9035 14.7395C15.3535 15.061 15.9036 15.25 16.5 15.25C16.6341 15.25 16.7656 15.2405 16.8938 15.2221C18.2258 15.0316 19.25 13.8848 19.25 12.5C19.25 11.0035 18.0544 9.786 16.5666 9.75079C16.275 9.74389 16.0138 9.56849 15.8971 9.30113C15.5533 8.51387 15.0539 7.73107 14.4738 7.20261ZM16.1173 16.733C15.5094 16.6786 14.9376 16.496 14.4301 16.2126C13.6913 16.5575 12.8673 16.75 12 16.75C11.1327 16.75 10.3087 16.5575 9.56993 16.2126C9.06238 16.496 8.4906 16.6786 7.88274 16.733L7.88813 16.7667C7.88826 16.7675 7.88839 16.7683 7.88852 16.769C8.01694 17.5395 8.10662 18.074 8.21023 18.4875C8.31145 18.8914 8.41307 19.1226 8.53649 19.2975C8.75681 19.6096 9.05299 19.8605 9.3971 20.0265C9.58987 20.1195 9.83463 20.1817 10.2497 20.2152C10.675 20.2494 11.2176 20.25 12 20.25C12.7824 20.25 13.325 20.2494 13.7503 20.2152C14.1654 20.1817 14.4101 20.1195 14.6029 20.0265C14.947 19.8605 15.2432 19.6096 15.4635 19.2975C15.5869 19.1226 15.6885 18.8914 15.7898 18.4875C15.8934 18.074 15.9831 17.5395 16.1115 16.7689C16.1116 16.7682 16.1117 16.7675 16.1119 16.7667L16.1173 16.733ZM12 4.75C11.3096 4.75 10.75 5.30964 10.75 6C10.75 6.69036 11.3096 7.25 12 7.25C12.6904 7.25 13.25 6.69036 13.25 6C13.25 5.66139 13.1164 5.35553 12.8973 5.12973C12.6692 4.89464 12.3522 4.75 12 4.75Z" fill="#646464"/>
</svg>
