<svg width="24" height="24" viewBox="0 0 24 24" fill="none" xmlns="http://www.w3.org/2000/svg">
<path d="M16.8852 4.08444C16.5302 3.72942 15.9546 3.72942 15.5996 4.08444C15.2446 4.43946 15.2446 5.01507 15.5996 5.37009L18.8962 8.66666H7.75758C6.23057 8.66666 4.76611 9.27326 3.68635 10.353C2.6066 11.4328 2 12.8972 2 14.4242C2 15.9512 2.6066 17.4157 3.68635 18.4955C4.76611 19.5752 6.23057 20.1818 7.75758 20.1818H8.9697C9.47177 20.1818 9.87879 19.7748 9.87879 19.2727C9.87879 18.7706 9.47177 18.3636 8.9697 18.3636H7.75758C6.71278 18.3636 5.71078 17.9486 4.972 17.2098C4.23322 16.471 3.81818 15.469 3.81818 14.4242C3.81818 13.3794 4.23322 12.3774 4.972 11.6387C5.71078 10.8999 6.71278 10.4848 7.75758 10.4848H18.8962L15.5996 13.7814C15.2446 14.1364 15.2446 14.712 15.5996 15.0671C15.9546 15.4221 16.5302 15.4221 16.8852 15.0671L21.7337 10.2186C21.9112 10.0411 22 9.80841 22 9.57575C22 9.45249 21.9755 9.33495 21.931 9.22777C21.8867 9.12054 21.8209 9.02009 21.7337 8.93293L16.8852 4.08444Z" fill="#646464"/>
</svg>
