<svg width="24" height="24" viewBox="0 0 24 24" fill="none" xmlns="http://www.w3.org/2000/svg">
<path fill-rule="evenodd" clip-rule="evenodd" d="M9.25 2C9.25 1.58579 9.58579 1.25 10 1.25H14C14.4142 1.25 14.75 1.58579 14.75 2C14.75 2.41421 14.4142 2.75 14 2.75H12.75V6.28363C16.7206 6.64145 19.8801 9.81256 20.2197 13.7884C20.2394 13.8555 20.25 13.9265 20.25 14C20.25 14.0392 20.247 14.0777 20.2412 14.1153C20.247 14.2428 20.25 14.3711 20.25 14.5C20.25 19.0563 16.5563 22.75 12 22.75C7.44365 22.75 3.75 19.0563 3.75 14.5C3.75 14.3711 3.75296 14.2428 3.75881 14.1153C3.75301 14.0777 3.75 14.0392 3.75 14C3.75 13.9265 3.76057 13.8555 3.78026 13.7884C4.11992 9.81256 7.27935 6.64145 11.25 6.28363V2.75H10C9.58579 2.75 9.25 2.41421 9.25 2ZM10.3491 7.95335C7.81541 8.59027 5.85057 10.6595 5.36551 13.25H8.79686C8.95832 11.1365 9.513 9.5498 10.0826 8.43901C10.1717 8.2653 10.261 8.10348 10.3491 7.95335ZM8.75182 14.75H5.25454C5.3655 17.7976 7.49686 20.3296 10.3491 21.0467C10.261 20.8965 10.1717 20.7347 10.0826 20.561C9.42646 19.2814 8.79011 17.3704 8.75182 14.75ZM13.6509 21.0466C16.5031 20.3296 18.6345 17.7976 18.7455 14.75H15.2482C15.2099 17.3704 14.5735 19.2814 13.9174 20.561C13.8283 20.7347 13.739 20.8965 13.6509 21.0466ZM13.748 14.75H10.252C10.29 17.1184 10.8635 18.7965 11.4174 19.8765C11.6223 20.2761 11.8256 20.5958 12 20.8397C12.1744 20.5958 12.3777 20.2761 12.5826 19.8765C13.1365 18.7965 13.71 17.1184 13.748 14.75ZM13.6983 13.25H10.3017C10.4582 11.4012 10.9449 10.0447 11.4174 9.12349C11.6223 8.72387 11.8256 8.40418 12 8.16028C12.1744 8.40418 12.3777 8.72387 12.5826 9.12349C13.0551 10.0447 13.5418 11.4012 13.6983 13.25ZM15.2031 13.25H18.6345C18.1494 10.6595 16.1846 8.59027 13.6509 7.95335C13.739 8.10348 13.8283 8.2653 13.9174 8.43901C14.487 9.5498 15.0417 11.1365 15.2031 13.25Z" fill="#646464"/>
</svg>
