<svg width="24" height="24" viewBox="0 0 24 24" fill="none" xmlns="http://www.w3.org/2000/svg">
<path d="M15.817 18.5789C14.446 19.5649 12.961 19.8969 11.583 19.8969C10.066 19.8969 8.68502 19.4949 7.71902 19.1189C7.21402 20.3359 7.032 21.134 7.027 21.155C6.952 21.508 6.64003 21.749 6.29403 21.749C6.24303 21.749 6.191 21.7439 6.139 21.7329C5.734 21.6479 5.47502 21.2509 5.56002 20.8459C5.61702 20.5749 7.02701 14.1489 13.709 9.13292C14.041 8.88392 14.511 8.95195 14.759 9.28295C15.008 9.61395 14.941 10.0839 14.61 10.3329C11.36 12.7729 9.44702 15.5989 8.35202 17.7549C9.92602 18.3539 12.676 18.99 14.942 17.361C19.691 13.945 18.186 7.09991 17.321 4.32091C16.758 4.90491 15.902 5.58891 14.726 5.99791C13.882 6.28691 13.111 6.49092 12.365 6.68792C11.144 7.01092 10.09 7.2889 9.04403 7.8499C5.35903 9.8359 5.35204 13.9149 6.24704 16.1729C6.40004 16.5579 6.21102 16.9939 5.82602 17.1469C5.44202 17.2989 5.00502 17.1109 4.85202 16.7259C3.76002 13.9699 3.78503 8.97996 8.33303 6.52996C9.53603 5.88496 10.724 5.5709 11.981 5.2379C12.701 5.0479 13.446 4.85095 14.235 4.57995C15.651 4.08695 16.466 3.07495 16.751 2.66295C16.938 2.37495 17.283 2.21091 17.647 2.25591C18.008 2.30091 18.304 2.54492 18.42 2.89092C19.089 4.69492 22.14 14.0319 15.817 18.5789Z" fill="#646464"/>
</svg>
