<svg width="24" height="24" viewBox="0 0 24 24" fill="none" xmlns="http://www.w3.org/2000/svg">
<path d="M21.7745 20.6872L17.835 16.7477C19.1519 15.1856 19.9488 13.1723 19.9488 10.9744C19.9488 6.02564 15.9232 2 10.9745 2C6.02576 2 2.00012 6.02564 2.00012 10.9744C2.00012 15.9231 6.02576 19.9487 10.9745 19.9487C13.1724 19.9487 15.1858 19.1518 16.7478 17.8349L20.6873 21.7744C20.837 21.9241 21.034 22 21.2309 22C21.4278 22 21.6248 21.9251 21.7745 21.7744C22.075 21.4749 22.075 20.9877 21.7745 20.6872ZM3.53858 10.9744C3.53858 6.87385 6.87397 3.53846 10.9745 3.53846C15.075 3.53846 18.4104 6.87385 18.4104 10.9744C18.4104 15.0749 15.075 18.4103 10.9745 18.4103C6.87397 18.4103 3.53858 15.0749 3.53858 10.9744ZM14.0514 10.2051H11.7437V7.89744C11.7437 7.47282 11.3991 7.12821 10.9745 7.12821C10.5499 7.12821 10.2052 7.47282 10.2052 7.89744V10.2051H7.89756C7.47294 10.2051 7.12833 10.5497 7.12833 10.9744C7.12833 11.399 7.47294 11.7436 7.89756 11.7436H10.2052V14.0513C10.2052 14.4759 10.5499 14.8205 10.9745 14.8205C11.3991 14.8205 11.7437 14.4759 11.7437 14.0513V11.7436H14.0514C14.476 11.7436 14.8206 11.399 14.8206 10.9744C14.8206 10.5497 14.476 10.2051 14.0514 10.2051Z" fill="#646464"/>
</svg>
