<svg width="24" height="24" viewBox="0 0 24 24" fill="none" xmlns="http://www.w3.org/2000/svg">
<path fill-rule="evenodd" clip-rule="evenodd" d="M12 3.39535C11.3627 3.39535 10.7514 3.64853 10.3008 4.0992C9.85008 4.54987 9.5969 5.16111 9.5969 5.79845V8.62015C9.5969 9.1596 9.1596 9.5969 8.62016 9.5969H5.79845C5.16111 9.5969 4.54987 9.85008 4.0992 10.3008C3.64853 10.7514 3.39535 11.3627 3.39535 12C3.39535 12.6373 3.64853 13.2486 4.0992 13.6992C4.54987 14.1499 5.16111 14.4031 5.79845 14.4031H8.62015C9.1596 14.4031 9.5969 14.8404 9.5969 15.3798V18.2015C9.5969 18.8389 9.85008 19.4501 10.3008 19.9008C10.7514 20.3515 11.3627 20.6047 12 20.6047C12.6373 20.6047 13.2486 20.3515 13.6992 19.9008C14.1499 19.4501 14.4031 18.8389 14.4031 18.2015V15.3798C14.4031 14.8404 14.8404 14.4031 15.3798 14.4031H18.2015C18.8389 14.4031 19.4501 14.1499 19.9008 13.6992C20.3515 13.2486 20.6047 12.6373 20.6047 12C20.6047 11.3627 20.3515 10.7514 19.9008 10.3008C19.4501 9.85008 18.8389 9.5969 18.2015 9.5969H15.3798C14.8404 9.5969 14.4031 9.1596 14.4031 8.62016V5.79845C14.4031 5.16111 14.1499 4.54987 13.6992 4.0992C13.2486 3.64853 12.6373 3.39535 12 3.39535ZM9.31409 3.11254C10.0264 2.40019 10.9926 2 12 2C13.0074 2 13.9736 2.40019 14.6859 3.11254C15.3983 3.82489 15.7984 4.79104 15.7984 5.79845V8.20155H18.2015C19.209 8.20155 20.1751 8.60174 20.8875 9.31409C21.5998 10.0264 22 10.9926 22 12C22 13.0074 21.5998 13.9736 20.8875 14.6859C20.1751 15.3983 19.209 15.7984 18.2015 15.7984H15.7984V18.2015C15.7984 19.209 15.3983 20.1751 14.6859 20.8875C13.9736 21.5998 13.0074 22 12 22C10.9926 22 10.0264 21.5998 9.31409 20.8875C8.60174 20.1751 8.20155 19.209 8.20155 18.2015V15.7984H5.79845C4.79104 15.7984 3.82489 15.3983 3.11254 14.6859C2.40019 13.9736 2 13.0074 2 12C2 10.9926 2.40019 10.0264 3.11254 9.31409C3.82489 8.60174 4.79104 8.20155 5.79845 8.20155H8.20155V5.79845C8.20155 4.79104 8.60174 3.82489 9.31409 3.11254Z" fill="#646464"/>
</svg>
