<svg width="24" height="24" viewBox="0 0 24 24" fill="none" xmlns="http://www.w3.org/2000/svg">
<path d="M15.334 15.3333C15.334 15.4982 15.2851 15.6593 15.1935 15.7963C15.102 15.9334 14.9718 16.0402 14.8195 16.1032C14.6673 16.1663 14.4997 16.1828 14.3381 16.1507C14.1764 16.1185 14.0279 16.0391 13.9114 15.9226C13.7948 15.806 13.7155 15.6576 13.6833 15.4959C13.6512 15.3343 13.6677 15.1667 13.7307 15.0144C13.7938 14.8622 13.9006 14.732 14.0377 14.6404C14.1747 14.5489 14.3358 14.5 14.5006 14.5C14.7216 14.5 14.9336 14.5878 15.0899 14.7441C15.2462 14.9004 15.334 15.1123 15.334 15.3333ZM17.834 14.5C17.6691 14.5 17.508 14.5489 17.371 14.6404C17.2339 14.732 17.1271 14.8622 17.0641 15.0144C17.001 15.1667 16.9845 15.3343 17.0166 15.4959C17.0488 15.6576 17.1282 15.806 17.2447 15.9226C17.3612 16.0391 17.5097 16.1185 17.6714 16.1507C17.833 16.1828 18.0006 16.1663 18.1529 16.1032C18.3051 16.0402 18.4353 15.9334 18.5269 15.7963C18.6184 15.6593 18.6673 15.4982 18.6673 15.3333C18.6673 15.1123 18.5795 14.9004 18.4232 14.7441C18.2669 14.5878 18.055 14.5 17.834 14.5ZM16.1673 12C16.0025 12 15.8414 12.0489 15.7043 12.1404C15.5673 12.232 15.4605 12.3622 15.3974 12.5144C15.3343 12.6667 15.3178 12.8343 15.35 12.9959C15.3821 13.1576 15.4615 13.306 15.578 13.4226C15.6946 13.5391 15.8431 13.6185 16.0047 13.6507C16.1664 13.6828 16.3339 13.6663 16.4862 13.6032C16.6385 13.5402 16.7686 13.4334 16.8602 13.2963C16.9518 13.1593 17.0006 12.9982 17.0006 12.8333C17.0006 12.6123 16.9128 12.4004 16.7566 12.2441C16.6003 12.0878 16.3883 12 16.1673 12ZM22.0006 15.3333C22.0022 16.6078 21.638 17.856 20.9513 18.9297C20.2645 20.0033 19.284 20.8573 18.1263 21.3902C16.9685 21.923 15.6822 22.1125 14.42 21.9359C13.1577 21.7594 11.9727 21.2243 11.0056 20.3942C10.7087 20.8835 10.2908 21.2882 9.79231 21.5694C9.29379 21.8506 8.73133 21.9989 8.15896 22H5.84229C5.20881 22.0005 4.5883 21.8205 4.05344 21.481C3.51858 21.1416 3.09152 20.6568 2.82229 20.0833C2.26537 18.8535 1.98489 17.5166 2.00063 16.1667C2.10069 14.5532 2.59762 12.9894 3.44729 11.6142C4.01532 10.7232 4.37534 9.71581 4.50063 8.66667C4.40559 8.04902 4.25098 7.44202 4.03896 6.85417C3.84889 6.36572 3.72392 5.85439 3.66729 5.33333C3.66729 4.44928 4.01848 3.60143 4.6436 2.97631C5.26873 2.35119 6.11657 2 7.00063 2C7.88468 2 8.73253 2.35119 9.35765 2.97631C9.98277 3.60143 10.334 4.44928 10.334 5.33333C10.2773 5.85439 10.1524 6.36572 9.96229 6.85417C9.75027 7.44202 9.59566 8.04902 9.50063 8.66667C9.57175 9.50202 9.83009 10.3106 10.2565 11.0325C11.1367 9.98865 12.3166 9.24076 13.6362 8.89026C14.9559 8.53975 16.3514 8.6036 17.6336 9.07313C18.9157 9.54267 20.0225 10.3952 20.8037 11.515C21.5849 12.6349 22.0027 13.9679 22.0006 15.3333ZM5.33396 5.33333C5.34729 5.45833 5.50979 5.97667 5.62896 6.355C5.91054 7.09815 6.09159 7.87558 6.16729 8.66667H7.83396C7.90967 7.87558 8.09071 7.09815 8.37229 6.355C8.48945 6.01254 8.58793 5.66397 8.66729 5.31083C8.66431 4.86881 8.48585 4.44607 8.17118 4.13562C7.85651 3.82517 7.43141 3.65243 6.98938 3.65542C6.54735 3.6584 6.12461 3.83686 5.81416 4.15153C5.50371 4.4662 5.33098 4.89131 5.33396 5.33333ZM9.66729 19.38C10.1218 18.3705 10.3494 17.2736 10.334 16.1667C10.2233 14.8223 9.79121 13.5241 9.07396 12.3817C8.71307 11.7227 8.40112 11.0381 8.14063 10.3333H5.86063C5.60014 11.0381 5.28819 11.7227 4.92729 12.3817C4.21005 13.5241 3.77791 14.8223 3.66729 16.1667C3.65197 17.2739 3.87953 18.371 4.33396 19.3808C4.46929 19.6662 4.68292 19.9072 4.94996 20.0759C5.21701 20.2445 5.52646 20.3338 5.84229 20.3333H8.15896C8.47488 20.3337 8.7844 20.2443 9.05145 20.0755C9.3185 19.9067 9.53208 19.6655 9.66729 19.38ZM20.334 15.3333C20.3354 14.247 19.9825 13.1898 19.3288 12.3222C18.675 11.4546 17.7561 10.8238 16.7115 10.5257C15.6668 10.2276 14.5534 10.2784 13.5403 10.6703C12.5271 11.0623 11.6694 11.774 11.0973 12.6975C11.6554 13.7713 11.9642 14.9571 12.0006 16.1667C12.0008 17.0277 11.8865 17.8849 11.6606 18.7158C12.3412 19.4572 13.2299 19.9757 14.2102 20.2034C15.1905 20.431 16.2167 20.3572 17.1544 19.9915C18.092 19.6258 18.8973 18.9854 19.4646 18.1542C20.032 17.323 20.335 16.3397 20.334 15.3333Z" fill="#646464"/>
</svg>
