<svg width="24" height="24" viewBox="0 0 24 24" fill="none" xmlns="http://www.w3.org/2000/svg">
<path fill-rule="evenodd" clip-rule="evenodd" d="M6.03049 6.26791C4.52664 7.19783 3.75 8.38425 3.75 9.56523C3.75 10.6111 4.35909 11.6612 5.54292 12.5337C6.36331 11.1307 7.99765 10.6512 9.4555 11.0272C10.8813 11.3949 12.1448 12.5503 12.5847 14.3683C14.7147 14.2793 16.6013 13.7086 17.9695 12.8626C19.4734 11.9326 20.25 10.7462 20.25 9.56523C20.25 8.38425 19.4734 7.19783 17.9695 6.26791C16.4773 5.34519 14.3687 4.75 12 4.75C9.63132 4.75 7.5227 5.34519 6.03049 6.26791ZM12.7498 15.8623C15.0593 15.7503 17.1642 15.1241 18.7584 14.1383C20.5119 13.054 21.75 11.4578 21.75 9.56523C21.75 7.67263 20.5119 6.07643 18.7584 4.99212C16.9933 3.90063 14.6019 3.25 12 3.25C9.39811 3.25 7.00674 3.90063 5.24159 4.99212C3.48807 6.07643 2.25 7.67263 2.25 9.56523C2.25 11.4578 3.48807 13.054 5.24159 14.1383C6.83564 15.124 8.94038 15.7502 11.2497 15.8623C11.2309 17.3165 10.4088 18.327 9.26405 18.8525C8.07854 19.3966 6.59255 19.3915 5.42524 18.7793C5.0584 18.587 4.60508 18.7284 4.41271 19.0952C4.22034 19.4621 4.36178 19.9154 4.72861 20.1078C6.33052 20.9478 8.30608 20.9427 9.88979 20.2157C11.4882 19.482 12.7302 17.9859 12.7498 15.8623ZM11.0165 14.3459C10.6366 13.2746 9.84963 12.6779 9.0809 12.4797C8.17245 12.2454 7.28869 12.5339 6.83665 13.3003C8.00377 13.8559 9.43618 14.2338 11.0165 14.3459Z" fill="#646464"/>
</svg>
