<svg width="24" height="24" viewBox="0 0 24 24" fill="none" xmlns="http://www.w3.org/2000/svg">
<path fill-rule="evenodd" clip-rule="evenodd" d="M10.364 8.45291C9.78078 8.0959 9.12589 7.8446 8.42592 7.72557L9.23335 6.74488C9.54976 6.36063 9.39683 5.77936 8.93231 5.60051C8.08899 5.27598 7.15523 5.27598 6.31195 5.60051C5.84743 5.77936 5.69445 6.36063 6.01086 6.74488L6.79107 7.6926C4.08853 8.0393 2 10.3484 2 13.1452C2 16.1815 4.4614 18.6429 7.49765 18.6429C9 18.6429 10.3616 18.0403 11.3539 17.0636C12.4829 18.0472 13.9587 18.6429 15.5736 18.6429C19.1228 18.6429 22 15.7657 22 12.2165C22 8.66726 19.1228 5.79006 15.5736 5.79006C13.43 5.79006 11.5315 6.8396 10.364 8.45291ZM9.75613 9.48232C9.09968 9.07669 8.32599 8.8426 7.49765 8.8426C5.1214 8.8426 3.19503 10.769 3.19503 13.1452C3.19503 15.5215 5.1214 17.4478 7.49765 17.4478C8.68028 17.4478 9.75141 16.9707 10.5292 16.1984C9.66379 15.1036 9.14719 13.7204 9.14719 12.2165C9.14719 11.2387 9.36552 10.312 9.75613 9.48232ZM11.2775 15.2024C10.688 14.3557 10.3422 13.3264 10.3422 12.2165C10.3422 11.5338 10.473 10.8816 10.7109 10.2837C11.3885 11.0441 11.8003 12.0466 11.8003 13.1452C11.8003 13.8904 11.6109 14.5913 11.2775 15.2024ZM12.1105 16.1375C12.6702 15.2764 12.9953 14.2487 12.9953 13.1452C12.9953 11.5893 12.3489 10.1844 11.3101 9.18425C12.2585 7.85316 13.8147 6.98509 15.5736 6.98509C18.4628 6.98509 20.805 9.3273 20.805 12.2165C20.805 15.1056 18.4628 17.4478 15.5736 17.4478C14.2455 17.4478 13.033 16.9529 12.1105 16.1375Z" fill="#646464"/>
</svg>
