<svg width="24" height="24" viewBox="0 0 24 24" fill="none" xmlns="http://www.w3.org/2000/svg">
<path d="M18.1538 6.10256H17.8974V4.82051C17.8974 4.61641 17.8164 4.42048 17.6718 4.27689L15.6205 2.22561C15.4759 2.081 15.281 2 15.0769 2H7.89744C6.90769 2 6.10256 2.80513 6.10256 3.79487V6.10256H5.84615C3.36615 6.10256 2 7.46872 2 9.94872V15.5897C2 16.8626 3.0359 17.8974 4.30769 17.8974H6.10256V20.2051C6.10256 21.1949 6.90769 22 7.89744 22H16.1026C17.0923 22 17.8974 21.1949 17.8974 20.2051V17.8974H19.6923C20.9641 17.8974 22 16.8626 22 15.5897V9.94872C22 7.46872 20.6338 6.10256 18.1538 6.10256ZM7.64103 3.79487C7.64103 3.65333 7.7559 3.53846 7.89744 3.53846H14.7579L16.359 5.13952V6.10256H7.64103V3.79487ZM16.359 20.2051C16.359 20.3467 16.2441 20.4615 16.1026 20.4615H7.89744C7.7559 20.4615 7.64103 20.3467 7.64103 20.2051V15.8462H16.359V20.2051ZM20.4615 15.5897C20.4615 16.0144 20.1159 16.359 19.6923 16.359H17.8974V15.0769C17.8974 14.6523 17.5528 14.3077 17.1282 14.3077H6.8718C6.44718 14.3077 6.10256 14.6523 6.10256 15.0769V16.359H4.30769C3.8841 16.359 3.53846 16.0144 3.53846 15.5897V9.94872C3.53846 8.33128 4.22872 7.64103 5.84615 7.64103H18.1538C19.7713 7.64103 20.4615 8.33128 20.4615 9.94872V15.5897ZM18.1538 10.9744C18.1538 11.5405 17.6944 12 17.1282 12C16.5621 12 16.1026 11.5405 16.1026 10.9744C16.1026 10.4082 16.5621 9.94872 17.1282 9.94872C17.6944 9.94872 18.1538 10.4082 18.1538 10.9744Z" fill="#646464"/>
</svg>
