<svg width="24" height="24" viewBox="0 0 24 24" fill="none" xmlns="http://www.w3.org/2000/svg">
<path d="M11.9995 22C11.9257 22 11.8518 21.9878 11.7807 21.9636C10.314 21.4704 3 18.6238 3 10.9614V5.48227C3 5.15006 3.23263 4.86241 3.55661 4.7982C8.061 3.88996 9.65787 3.09162 11.6802 2.08008C11.8759 1.98237 12.1343 1.96942 12.3281 2.06713C14.3228 3.08053 15.8984 3.88158 20.4434 4.7982C20.7674 4.86334 21 5.15006 21 5.48227V10.9624C21 18.6247 13.686 21.4714 12.2193 21.9646C12.1473 21.9878 12.0734 22 11.9995 22ZM4.38455 6.05184V10.9614C4.38455 17.3499 10.3086 19.9509 11.9995 20.5623C13.6905 19.9509 19.6146 17.3489 19.6146 10.9614V6.05184C15.5338 5.19106 13.8178 4.38316 12.0133 3.47026C10.0962 4.42597 8.43204 5.19943 4.38455 6.05184Z" fill="#646464"/>
</svg>
