<svg width="24" height="24" viewBox="0 0 24 24" fill="none" xmlns="http://www.w3.org/2000/svg">
<path d="M16.9032 8.20919V6.8718C16.9032 4.18564 14.7035 2 12 2C9.29652 2 7.09677 4.18564 7.09677 6.8718V8.20919C5.09626 8.47277 4 9.79077 4 12V18.1538C4 20.6338 5.37497 22 7.87097 22H16.129C18.625 22 20 20.6338 20 18.1538V12C20 9.7918 18.9037 8.4738 16.9032 8.20919ZM12 3.53846C13.8498 3.53846 15.3548 5.03385 15.3548 6.8718V8.15385H8.64516V6.8718C8.64516 5.03385 10.1502 3.53846 12 3.53846ZM18.4516 18.1538C18.4516 19.7713 17.7569 20.4615 16.129 20.4615H7.87097C6.2431 20.4615 5.54839 19.7713 5.54839 18.1538V12C5.54839 10.3826 6.2431 9.69231 7.87097 9.69231H16.129C17.7569 9.69231 18.4516 10.3826 18.4516 12V18.1538ZM13.311 14.0513C13.311 14.4738 13.0921 14.8308 12.7742 15.0637V17.1282C12.7742 17.5528 12.4274 17.8974 12 17.8974C11.5726 17.8974 11.2258 17.5528 11.2258 17.1282V15.0379C10.9285 14.803 10.725 14.4564 10.725 14.0513C10.725 13.3436 11.2981 12.7692 12.0103 12.7692H12.0207C12.7329 12.7692 13.311 13.3436 13.311 14.0513Z" fill="#646464"/>
</svg>
