<svg width="24" height="24" viewBox="0 0 24 24" fill="none" xmlns="http://www.w3.org/2000/svg">
<path fill-rule="evenodd" clip-rule="evenodd" d="M4.5 2.75C4.03587 2.75 3.59075 2.93437 3.26256 3.26256C2.93437 3.59075 2.75 4.03587 2.75 4.5V19.5C2.75 19.9641 2.93437 20.4092 3.26256 20.7374C3.59075 21.0656 4.03587 21.25 4.5 21.25H19.5C19.9641 21.25 20.4092 21.0656 20.7374 20.7374C21.0656 20.4092 21.25 19.9641 21.25 19.5V4.5C21.25 4.03587 21.0656 3.59075 20.7374 3.26256C20.4092 2.93437 19.9641 2.75 19.5 2.75H4.5ZM2.2019 2.2019C2.8114 1.59241 3.63805 1.25 4.5 1.25H19.5C20.362 1.25 21.1886 1.59241 21.7981 2.2019C22.4076 2.8114 22.75 3.63805 22.75 4.5V19.5C22.75 20.362 22.4076 21.1886 21.7981 21.7981C21.1886 22.4076 20.362 22.75 19.5 22.75H4.5C3.63805 22.75 2.8114 22.4076 2.2019 21.7981C1.59241 21.1886 1.25 20.362 1.25 19.5V4.5C1.25 3.63805 1.59241 2.8114 2.2019 2.2019Z" fill="#646464"/>
</svg>
