<svg width="24" height="24" viewBox="0 0 24 24" fill="none" xmlns="http://www.w3.org/2000/svg">
<path fill-rule="evenodd" clip-rule="evenodd" d="M6.22349 2.28085C6.51594 1.64405 7.15835 1.25 7.84932 1.25L16.1507 1.25C16.8417 1.25 17.4841 1.64406 17.7765 2.28085L19.1402 5.25015C21.2069 9.75022 17.7868 14.75 12.793 14.75H12.75V21.25H15C15.4142 21.25 15.75 21.5858 15.75 22C15.75 22.4142 15.4142 22.75 15 22.75H9.00001C8.5858 22.75 8.25001 22.4142 8.25001 22C8.25001 21.5858 8.5858 21.25 9.00001 21.25H11.25V14.75H11.207C6.21318 14.75 2.79311 9.75022 4.8598 5.25015L6.22349 2.28085ZM7.84932 2.75C7.72357 2.75 7.62586 2.82141 7.58661 2.90687L6.22292 5.87618C4.64519 9.31156 7.22745 13.25 11.207 13.25H12.793C16.7726 13.25 19.3548 9.31156 17.7771 5.87618L16.4134 2.90687C16.3742 2.82141 16.2765 2.75 16.1507 2.75L7.84932 2.75Z" fill="#646464"/>
</svg>
