<svg width="24" height="24" viewBox="0 0 24 24" fill="none" xmlns="http://www.w3.org/2000/svg">
<path d="M21.7745 20.6872L17.835 16.7477C19.1519 15.1856 19.9488 13.1723 19.9488 10.9744C19.9488 6.02564 15.9232 2 10.9745 2C6.02576 2 2.00012 6.02564 2.00012 10.9744C2.00012 15.9231 6.02576 19.9487 10.9745 19.9487C13.1724 19.9487 15.1858 19.1518 16.7478 17.8349L20.6873 21.7744C20.837 21.9241 21.034 22 21.2309 22C21.4278 22 21.6248 21.9251 21.7745 21.7744C22.075 21.4749 22.075 20.9877 21.7745 20.6872ZM3.53858 10.9744C3.53858 6.87385 6.87397 3.53846 10.9745 3.53846C15.075 3.53846 18.4104 6.87385 18.4104 10.9744C18.4104 15.0749 15.075 18.4103 10.9745 18.4103C6.87397 18.4103 3.53858 15.0749 3.53858 10.9744Z" fill="#646464"/>
<path d="M14.08 10.9502C13.666 13.0854 10.9635 14.3154 10.9635 14.3154C10.9635 14.3154 8.26106 13.0854 7.84671 10.9502C7.59259 9.64004 8.14779 8.32216 9.55919 8.31545C10.6106 8.31051 10.9635 9.37003 10.9635 9.37003C10.9635 9.37003 11.3165 8.31016 12.3675 8.31545C13.7821 8.32216 14.3341 9.6404 14.08 10.9502Z" fill="#646464"/>
</svg>
