<svg width="24" height="24" viewBox="0 0 24 24" fill="none" xmlns="http://www.w3.org/2000/svg">
<path d="M9.36202 19.7355C9.36202 19.9126 9.29285 20.0824 9.16972 20.2076C9.04659 20.3328 8.87959 20.4032 8.70546 20.4032H2.65662C2.48249 20.4032 2.31549 20.3328 2.19236 20.2076C2.06923 20.0824 2.00006 19.9126 2.00006 19.7355C2.00006 19.5584 2.06923 19.3886 2.19236 19.2634C2.31549 19.1382 2.48249 19.0679 2.65662 19.0679H8.70546C8.87959 19.0679 9.04659 19.1382 9.16972 19.2634C9.29285 19.3886 9.36202 19.5584 9.36202 19.7355Z" fill="#646464"/>
<path d="M2.65662 17.7331H7.39233C7.56646 17.7331 7.73346 17.6627 7.85659 17.5375C7.97972 17.4123 8.04889 17.2425 8.04889 17.0654C8.04889 16.8883 7.97972 16.7185 7.85659 16.5933C7.73346 16.4681 7.56646 16.3978 7.39233 16.3978H2.65662C2.48249 16.3978 2.31549 16.4681 2.19236 16.5933C2.06923 16.7185 2.00006 16.8883 2.00006 17.0654C2.00006 17.2425 2.06923 17.4123 2.19236 17.5375C2.31549 17.6627 2.48249 17.7331 2.65662 17.7331Z" fill="#646464"/>
<path d="M2.65656 15.0628H6.07919C6.25332 15.0628 6.42032 14.9925 6.54345 14.8673C6.66658 14.7421 6.73576 14.5723 6.73576 14.3952C6.73576 14.2181 6.66658 14.0483 6.54345 13.9231C6.42032 13.7979 6.25332 13.7275 6.07919 13.7275H2.65656C2.48243 13.7275 2.31543 13.7979 2.1923 13.9231C2.06917 14.0483 2 14.2181 2 14.3952C2 14.5723 2.06917 14.7421 2.1923 14.8673C2.31543 14.9925 2.48243 15.0628 2.65656 15.0628Z" fill="#646464"/>
<path d="M5.58012 3.31358C5.87672 3.01307 5.87672 2.52588 5.58012 2.22538C5.28353 1.92487 4.80266 1.92487 4.50606 2.22538L2.48151 4.27658C2.18491 4.57708 2.18491 5.06428 2.48151 5.36478C2.6293 5.51452 2.82369 5.59038 3.01804 5.59038C3.2124 5.59038 3.40679 5.51554 3.55458 5.36478L5.58012 3.31358ZM18.6789 3.31358C18.3823 3.01307 18.3823 2.52588 18.6789 2.22538C18.9755 1.92487 19.4564 1.92487 19.753 2.22538L21.7776 4.27658C22.0741 4.57708 22.0741 5.06428 21.7776 5.36478C21.6298 5.51452 21.4354 5.59038 21.241 5.59038C21.0467 5.59038 20.8523 5.51554 20.7045 5.36478L18.6789 3.31358ZM12.0991 19.436C13.3999 19.436 14.6662 19.0904 15.7706 18.4299C18.032 17.1161 19.4381 14.6526 19.4381 12.0004C19.4381 7.90003 16.1462 4.56478 12.0991 4.56478C9.48138 4.56478 7.04994 5.98829 5.74917 8.28872C5.25821 9.13279 4.94327 10.0702 4.81573 11.0732C4.76208 11.4947 4.37959 11.7933 3.96557 11.7369C3.54952 11.6825 3.25602 11.2968 3.30967 10.8753C3.46454 9.66402 3.84495 8.53076 4.43612 7.51438C6.00313 4.74526 8.9388 3.02538 12.0991 3.02538C16.9834 3.02538 20.9566 7.05086 20.9566 11.9994C20.9566 14.8875 19.5667 17.5807 17.2962 19.2442L18.7355 20.6822C19.0342 20.9806 19.0383 21.4676 18.7437 21.7701C18.5959 21.923 18.3986 22 18.2032 22C18.0109 22 17.8187 21.9261 17.6709 21.7784L15.9478 20.0575C14.7604 20.6472 13.4485 20.9744 12.0991 20.9744C11.68 20.9744 11.3399 20.6298 11.3399 20.2052C11.3399 19.7806 11.68 19.436 12.0991 19.436ZM12.8887 7.93905V12.0415C12.8887 12.4661 12.5486 12.8107 12.1295 12.8107C11.7104 12.8107 11.3703 12.4661 11.3703 12.0415V7.93905C11.3703 7.51445 11.7104 7.16985 12.1295 7.16985C12.5486 7.16985 12.8887 7.51445 12.8887 7.93905Z" fill="#646464"/>
</svg>
