<svg width="24" height="24" viewBox="0 0 24 24" fill="none" xmlns="http://www.w3.org/2000/svg">
<path d="M18.1544 14.3077C16.7615 14.3077 15.5502 15.0595 14.8754 16.1723L9.40761 13.439C9.58813 12.9939 9.69282 12.5097 9.69282 12C9.69282 11.4903 9.58813 11.0061 9.40761 10.561L14.8754 7.8277C15.5502 8.93949 16.7615 9.69231 18.1544 9.69231C20.2744 9.69231 22.0005 7.96718 22.0005 5.84615C22.0005 3.72513 20.2744 2 18.1544 2C16.0344 2 14.3082 3.72513 14.3082 5.84615C14.3082 6.02359 14.3369 6.19386 14.3605 6.36514L8.55024 9.26976C7.85486 8.58053 6.90002 8.15385 5.84567 8.15385C3.72567 8.15385 1.99951 9.87897 1.99951 12C1.99951 14.121 3.72567 15.8462 5.84567 15.8462C6.899 15.8462 7.85486 15.4184 8.55024 14.7302L14.3605 17.6349C14.3369 17.8061 14.3082 17.9764 14.3082 18.1538C14.3082 20.2749 16.0344 22 18.1544 22C20.2744 22 22.0005 20.2749 22.0005 18.1538C22.0005 16.0328 20.2744 14.3077 18.1544 14.3077ZM18.1544 3.53846C19.4262 3.53846 20.4621 4.57333 20.4621 5.84615C20.4621 7.11897 19.4262 8.15385 18.1544 8.15385C16.8826 8.15385 15.8467 7.11897 15.8467 5.84615C15.8467 4.57333 16.8826 3.53846 18.1544 3.53846ZM5.84667 14.3077C4.57487 14.3077 3.53897 13.2728 3.53897 12C3.53897 10.7272 4.57487 9.69231 5.84667 9.69231C7.11846 9.69231 8.15436 10.7272 8.15436 12C8.15436 13.2728 7.11846 14.3077 5.84667 14.3077ZM18.1544 20.4615C16.8826 20.4615 15.8467 19.4267 15.8467 18.1538C15.8467 16.881 16.8826 15.8462 18.1544 15.8462C19.4262 15.8462 20.4621 16.881 20.4621 18.1538C20.4621 19.4267 19.4262 20.4615 18.1544 20.4615Z" fill="#646464"/>
</svg>
