<svg width="24" height="24" viewBox="0 0 24 24" fill="none" xmlns="http://www.w3.org/2000/svg">
<path d="M16.6215 6.10256H18.5184C16.945 4.48308 14.7872 3.53846 12.4856 3.53846C7.82911 3.53846 4.03953 7.33436 4.03953 12C4.03953 16.6656 7.82808 20.4615 12.4856 20.4615C15.7207 20.4615 18.6149 18.6615 20.0373 15.764C20.2253 15.3835 20.6855 15.2235 21.0686 15.4122C21.4507 15.5989 21.6078 16.0596 21.4219 16.4411C19.7376 19.8698 16.3146 22 12.4869 22C6.98102 22 2.5 17.5138 2.5 12C2.5 6.48615 6.97999 2 12.4869 2C15.3738 2 18.0789 3.24507 19.9594 5.37841V2.76923C19.9594 2.34462 20.3044 2 20.7296 2C21.1548 2 21.4999 2.34462 21.4999 2.76923V6.8718C21.4999 7.29641 21.1548 7.64103 20.7296 7.64103H16.6215C16.1964 7.64103 15.8513 7.29641 15.8513 6.8718C15.8513 6.44718 16.1964 6.10256 16.6215 6.10256ZM12.5135 7.12821C12.0883 7.12821 11.7432 7.47282 11.7432 7.89744V12C11.7432 12.2041 11.8243 12.4 11.9691 12.5436L14.0231 14.5949C14.1731 14.7446 14.3703 14.8205 14.5675 14.8205C14.7647 14.8205 14.9619 14.7457 15.1119 14.5949C15.4128 14.2944 15.4128 13.8072 15.1119 13.5067L13.2837 11.681V7.89744C13.2837 7.47282 12.9386 7.12821 12.5135 7.12821Z" fill="#646464"/>
</svg>
