<svg width="24" height="24" viewBox="0 0 24 24" fill="none" xmlns="http://www.w3.org/2000/svg">
<path d="M13.9365 8.69486L18.6959 3.93548H14.5806C14.0462 3.93548 13.6129 3.50221 13.6129 2.96774C13.6129 2.43327 14.0462 2 14.5806 2H21.0323C21.1691 2 21.2994 2.02841 21.4174 2.07966" fill="#646464"/>
<path fill-rule="evenodd" clip-rule="evenodd" d="M20.0645 5.30405L15.3051 10.0634C16.2942 11.3521 16.8387 12.9383 16.8387 14.5806C16.8387 16.5484 16.057 18.4355 14.6656 19.8269C13.2742 21.2183 11.3871 22 9.41935 22C7.45162 22 5.56448 21.2183 4.17308 19.8269C2.78168 18.4355 2 16.5484 2 14.5806C2 12.6129 2.78168 10.7258 4.17308 9.33437C5.56448 7.94297 7.45162 7.16129 9.41935 7.16129C11.0617 7.16129 12.6478 7.7058 13.9365 8.69486M5.54167 10.703C6.5701 9.67454 7.96494 9.09677 9.41935 9.09677C10.8738 9.09677 12.2686 9.67454 13.297 10.703C14.3255 11.7314 14.9032 13.1262 14.9032 14.5806C14.9032 16.0351 14.3255 17.4299 13.297 18.4583C12.2686 19.4868 10.8738 20.0645 9.41935 20.0645C7.96494 20.0645 6.5701 19.4868 5.54167 18.4583C4.51325 17.4299 3.93548 16.0351 3.93548 14.5806C3.93548 13.1262 4.51325 11.7314 5.54167 10.703Z" fill="#646464"/>
<path d="M20.0645 5.30405V9.41935C20.0645 9.95382 20.4978 10.3871 21.0323 10.3871C21.5667 10.3871 22 9.95382 22 9.41935V2.96774C22 2.82293 21.9682 2.68554 21.9112 2.56219C21.8734 2.48029 21.8236 2.40258 21.7617 2.33174C21.734 2.30002 21.7043 2.27013 21.6727 2.24226" fill="#646464"/>
<path d="M21.6727 2.24226C21.5952 2.17369 21.5093 2.11963 21.4186 2.08018L21.6727 2.24226Z" fill="#646464"/>
<path d="M21.7269 2.39627L21.5329 3.84458L19.9234 5.43561L13.875 8.75718L20.1552 2.47188C20.4761 2.31899 21.1552 2.02026 21.3044 2.04849C21.4536 2.07672 21.6482 2.22154 21.7269 2.29043V2.39627Z" fill="#646464"/>
</svg>
