<svg width="24" height="24" viewBox="0 0 24 24" fill="none" xmlns="http://www.w3.org/2000/svg">
<path d="M12.8333 22C11.5077 21.9987 10.2367 21.4712 9.29927 20.5335C8.36188 19.5957 7.83467 18.3242 7.83334 16.998C7.83334 15.6974 8.83334 13.6257 10.7933 10.8388C11.0261 10.5145 11.3326 10.2503 11.6876 10.0681C12.0427 9.88582 12.436 9.79077 12.835 9.79077C13.234 9.79077 13.6273 9.88582 13.9824 10.0681C14.3374 10.2503 14.644 10.5145 14.8767 10.8388C16.8375 13.6257 17.8333 15.6974 17.8333 16.998C17.832 18.3242 17.3048 19.5957 16.3674 20.5335C15.43 21.4712 14.159 21.9987 12.8333 22ZM12.8333 11.4482C12.7003 11.4472 12.5691 11.4787 12.451 11.54C12.3329 11.6013 12.2316 11.6906 12.1558 11.8C9.75918 15.2006 9.50001 16.5678 9.50001 16.998C9.50001 17.8824 9.8512 18.7306 10.4763 19.3559C11.1014 19.9813 11.9493 20.3326 12.8333 20.3326C13.7174 20.3326 14.5652 19.9813 15.1904 19.3559C15.8155 18.7306 16.1667 17.8824 16.1667 16.998C16.1667 16.5678 15.9075 15.2006 13.5108 11.8C13.4351 11.6906 13.3338 11.6013 13.2157 11.54C13.0976 11.4787 12.9664 11.4472 12.8333 11.4482Z" fill="#646464"/>
<path d="M6.16667 11.1623C5.062 11.161 4.00296 10.7214 3.22185 9.93993C2.44073 9.1585 2.00132 8.09903 2 6.99391C2 5.94348 2.70167 4.61378 4.145 2.92809C4.39534 2.63693 4.70557 2.40327 5.05449 2.2431C5.4034 2.08292 5.78277 2 6.16667 2C6.55056 2 6.92993 2.08292 7.27885 2.2431C7.62776 2.40327 7.93799 2.63693 8.18833 2.92809C9.63167 4.61211 10.3333 5.94182 10.3333 6.99391C10.332 8.09903 9.8926 9.1585 9.11148 9.93993C8.33037 10.7214 7.27133 11.161 6.16667 11.1623ZM6.16667 3.65922C6.02275 3.65851 5.88046 3.68961 5.74995 3.75028C5.61944 3.81095 5.50393 3.8997 5.41167 4.0102C3.7925 5.90097 3.66667 6.77049 3.66667 6.99391C3.66667 7.65722 3.93006 8.29337 4.3989 8.7624C4.86774 9.23143 5.50363 9.49493 6.16667 9.49493C6.82971 9.49493 7.46559 9.23143 7.93443 8.7624C8.40328 8.29337 8.66667 7.65722 8.66667 6.99391C8.66667 6.77216 8.54083 5.90263 6.92167 4.0127C6.82972 3.90165 6.71434 3.81237 6.58379 3.75125C6.45325 3.69013 6.3108 3.6587 6.16667 3.65922Z" fill="#646464"/>
<path d="M18.25 10.2985C17.2558 10.2974 16.3026 9.90181 15.5996 9.1985C14.8965 8.49519 14.5011 7.54161 14.5 6.54698C14.5 5.63744 15.0833 4.4578 16.2883 2.94051C16.5242 2.64694 16.8228 2.41004 17.1623 2.24727C17.5018 2.0845 17.8735 2 18.25 2C18.6265 2 18.9982 2.0845 19.3377 2.24727C19.6772 2.41004 19.9758 2.64694 20.2117 2.94051C21.4167 4.4578 22 5.63744 22 6.54698C21.9989 7.54161 21.6035 8.49519 20.9004 9.1985C20.1974 9.90181 19.2442 10.2974 18.25 10.2985ZM18.25 3.65914C18.1238 3.65893 17.9992 3.68742 17.8855 3.74244C17.7719 3.79747 17.6723 3.87759 17.5942 3.97677C16.2692 5.64745 16.1667 6.36608 16.1667 6.54698C16.1667 7.09974 16.3862 7.62986 16.7769 8.02072C17.1676 8.41158 17.6975 8.63117 18.25 8.63117C18.8025 8.63117 19.3324 8.41158 19.7231 8.02072C20.1138 7.62986 20.3333 7.09974 20.3333 6.54698C20.3333 6.36608 20.2308 5.64745 18.9058 3.9776C18.8278 3.87827 18.7282 3.79799 18.6146 3.74282C18.501 3.68765 18.3763 3.65903 18.25 3.65914Z" fill="#646464"/>
</svg>
