<svg width="24" height="24" viewBox="0 0 24 24" fill="none" xmlns="http://www.w3.org/2000/svg">
<path d="M16.129 22H7.87097C5.37497 22 4 20.6338 4 18.1538V5.84615C4 3.36615 5.37497 2 7.87097 2H16.129C18.625 2 20 3.36615 20 5.84615V18.1538C20 20.6338 18.625 22 16.129 22ZM7.87097 3.53846C6.2431 3.53846 5.54839 4.22872 5.54839 5.84615V18.1538C5.54839 19.7713 6.2431 20.4615 7.87097 20.4615H16.129C17.7569 20.4615 18.4516 19.7713 18.4516 18.1538V5.84615C18.4516 4.22872 17.7569 3.53846 16.129 3.53846H7.87097ZM14.3226 5.84615C14.3226 5.42154 13.9757 5.07692 13.5484 5.07692H10.4516C10.0243 5.07692 9.67742 5.42154 9.67742 5.84615C9.67742 6.27077 10.0243 6.61539 10.4516 6.61539H13.5484C13.9757 6.61539 14.3226 6.27077 14.3226 5.84615ZM12 17.1282C11.4302 17.1282 10.9677 17.5877 10.9677 18.1538C10.9677 18.72 11.4302 19.1795 12 19.1795C12.5698 19.1795 13.0323 18.72 13.0323 18.1538C13.0323 17.5877 12.5698 17.1282 12 17.1282Z" fill="currentColor"/>
</svg>
