<svg width="24" height="24" viewBox="0 0 24 24" fill="none" xmlns="http://www.w3.org/2000/svg">
<path d="M11.7493 7.75734V4.99123C11.7503 4.27422 11.3204 3.64026 10.6544 3.37526C9.98936 3.10926 9.23842 3.2734 8.74542 3.7964L2.81744 10.0662C2.06044 10.8662 2.06044 12.1214 2.81744 12.9214L8.74542 19.1912C9.23942 19.7122 9.99136 19.8773 10.6544 19.6113C11.3204 19.3453 11.7503 18.7114 11.7493 17.9964V15.2493C14.6643 15.3213 16.5983 15.8203 17.5023 16.7363C18.1713 17.4143 18.2963 18.3033 18.2803 19.5193C18.2733 20.0823 18.6343 20.5593 19.1763 20.7063C19.2863 20.7363 19.3984 20.7503 19.5064 20.7503C19.9404 20.7503 20.3424 20.5213 20.5674 20.1253C21.3304 18.7873 21.7503 17.1413 21.7503 15.4893C21.7493 10.6793 18.2063 7.95034 11.7493 7.75734ZM19.7383 18.3643C19.6393 17.4053 19.3474 16.4694 18.5694 15.6824C17.2614 14.3574 14.8563 13.7402 10.9993 13.7402C10.5853 13.7402 10.2493 14.0762 10.2493 14.4902V17.9964C10.2493 18.1294 10.1674 18.1893 10.0994 18.2173C10.0324 18.2453 9.92927 18.2582 9.83527 18.1592L3.90729 11.8892C3.69629 11.6662 3.69629 11.3172 3.90729 11.0952L9.83527 4.82619C9.92827 4.72819 10.0304 4.74135 10.0994 4.76735C10.1684 4.79435 10.2493 4.85527 10.2493 4.98927V8.4944C10.2493 8.9084 10.5853 9.2444 10.9993 9.2444C15.2193 9.2444 20.2493 10.3273 20.2493 15.4883C20.2493 16.4853 20.0713 17.4743 19.7383 18.3643Z" fill="#646464"/>
</svg>
