<svg width="24" height="24" viewBox="0 0 24 24" fill="none" xmlns="http://www.w3.org/2000/svg">
<path d="M19.6928 2H7.99691C5.43703 2 4.81042 3.24407 4.34787 4.62964L2.2977 10.7832C1.81772 12.2231 1.92237 13.5266 2.59003 14.4527C3.04744 15.0886 4.00223 15.8455 5.94573 15.8455H9.18249V18.3961C9.18249 19.6842 9.82253 20.8801 10.8943 21.596C11.2943 21.8627 11.7547 22 12.2203 22C12.4675 22 12.7157 21.961 12.9587 21.8831C13.6602 21.6574 14.21 21.1334 14.4777 20.4144L16.6601 13.7943H19.6918C20.9635 13.7943 21.9994 12.7595 21.9994 11.4867V4.30758C22.0004 3.03482 20.9645 2 19.6928 2ZM15.374 12.7841L13.0285 19.9027C12.9351 20.1499 12.7393 20.3375 12.488 20.4185C12.2357 20.4996 11.967 20.4616 11.7486 20.316C11.1056 19.8873 10.722 19.1694 10.722 18.3961V15.0763C10.722 14.6517 10.3774 14.3071 9.95281 14.3071H5.94685C5.23304 14.3071 4.28742 14.1768 3.83821 13.5533C3.4731 13.0456 3.44233 12.2139 3.75821 11.2693L5.80839 5.11577C6.17247 4.02146 6.40109 3.53738 7.99691 3.53738H16.1032V12.2549C15.7709 12.2569 15.4775 12.4692 15.374 12.7841ZM20.462 11.4867C20.462 11.9113 20.1164 12.2559 19.6928 12.2559H17.6416V3.53838H19.6928C20.1164 3.53838 20.462 3.88298 20.462 4.30758V11.4867Z" fill="#646464"/>
</svg>
