<svg width="24" height="24" viewBox="0 0 24 24" fill="none" xmlns="http://www.w3.org/2000/svg">
<path d="M13 10.25C13.4142 10.25 13.75 10.5858 13.75 11V11.01C13.75 11.4242 13.4142 11.76 13 11.76C12.5858 11.76 12.25 11.4242 12.25 11.01V11C12.25 10.5858 12.5858 10.25 13 10.25Z" fill="#646464"/>
<path d="M11.75 13.99C11.75 13.5758 11.4142 13.24 11 13.24C10.5858 13.24 10.25 13.5758 10.25 13.99V14C10.25 14.4142 10.5858 14.75 11 14.75C11.4142 14.75 11.75 14.4142 11.75 14V13.99Z" fill="#646464"/>
<path fill-rule="evenodd" clip-rule="evenodd" d="M12.6669 2.65681C12.5383 2.40701 12.2809 2.25 12 2.25C11.7191 2.25 11.4617 2.40701 11.3331 2.65681L2.83313 19.1738C2.74132 19.3522 2.72482 19.5599 2.7873 19.7506C2.84979 19.9412 2.98606 20.0989 3.16565 20.1883C5.81625 21.5084 8.84221 22.2498 11.9989 22.25C15.0632 22.2544 18.0869 21.549 20.8329 20.1891C21.0129 20.0999 21.1496 19.9422 21.2124 19.7514C21.2752 19.5605 21.2588 19.3525 21.1669 19.1738L12.6669 2.65681ZM12 20.75C9.3476 20.75 6.79833 20.1846 4.52208 19.17L5.71203 16.8577C7.74654 17.7772 9.95668 18.253 12.195 18.25C14.3159 18.2527 16.4127 17.8255 18.3597 16.9971L19.4774 19.1689C17.1265 20.2138 14.5794 20.7537 12.0011 20.75H12ZM17.6713 15.6594C15.9388 16.3808 14.0778 16.7525 12.196 16.75H12.1939C10.1947 16.7529 8.22043 16.3333 6.39939 15.522L12 4.63904L17.6713 15.6594Z" fill="#646464"/>
</svg>
