<svg width="24" height="24" viewBox="0 0 24 24" fill="none" xmlns="http://www.w3.org/2000/svg">
<path d="M16 19.25H9.5C5.502 19.25 2.25 15.998 2.25 12C2.25 8.002 5.502 4.75 9.5 4.75C11.264 4.75 12.9641 5.39198 14.2881 6.55798C14.7021 6.92298 15.0711 7.33303 15.3921 7.78003C15.5931 7.75903 15.794 7.74902 16 7.74902C19.171 7.74902 21.75 10.328 21.75 13.499C21.75 16.67 19.171 19.25 16 19.25ZM9.5 6.25C6.329 6.25 3.75 8.829 3.75 12C3.75 15.171 6.329 17.75 9.5 17.75H16C18.344 17.75 20.25 15.844 20.25 13.5C20.25 11.156 18.344 9.25 16 9.25C15.717 9.25 15.4449 9.27503 15.1689 9.32703C14.8669 9.38503 14.5551 9.24801 14.3931 8.98401C14.0931 8.49901 13.7239 8.06102 13.2959 7.68402C12.2469 6.75902 10.898 6.25 9.5 6.25Z" fill="#646464"/>
</svg>
