<svg width="24" height="24" viewBox="0 0 24 24" fill="none" xmlns="http://www.w3.org/2000/svg">
<path d="M12 21.75C11.94 21.75 11.88 21.74 11.83 21.73C11.77 21.72 11.71 21.69 11.65 21.66L7.66 19.67C7.29 19.48 7.14 19.03 7.32 18.66C7.51 18.29 7.96 18.14 8.33 18.32L11.25 19.79V16.72C9.47 16.56 7.82 15.82 6.53 14.6C5.08 13.21 4.25 11.29 4.25 9.33V6C4.25 5.59 4.59 5.25 5 5.25C6.28 5.25 7.52 5.55 8.64 6.12C9.74 3.79 11.47 2.46 11.55 2.4C11.82 2.2 12.18 2.2 12.45 2.4C12.53 2.46 14.27 3.78 15.36 6.12C16.48 5.55 17.72 5.25 19 5.25C19.41 5.25 19.75 5.59 19.75 6V9.33C19.75 11.29 18.92 13.21 17.47 14.59C16.19 15.81 14.53 16.55 12.75 16.71V19.78L15.66 18.32C16.03 18.13 16.48 18.28 16.67 18.66C16.86 19.03 16.71 19.48 16.33 19.67L12.35 21.66C12.29 21.69 12.23 21.71 12.17 21.73C12.11 21.74 12.06 21.75 12 21.75ZM5.75 6.79V9.33C5.75 10.9 6.4 12.39 7.57 13.5C8.56 14.44 9.87 15.04 11.25 15.2V12.66C11.25 11.09 10.6 9.61 9.43 8.49C9.18 8.25 8.9 8.03 8.6 7.83C8.59 7.82 8.58 7.82 8.57 7.81C7.73 7.25 6.76 6.91 5.75 6.79ZM12.75 12.67V15.21C14.13 15.05 15.44 14.45 16.43 13.51C17.6 12.39 18.25 10.91 18.25 9.33V6.79C17.24 6.91 16.27 7.25 15.43 7.81C15.42 7.82 15.41 7.82 15.4 7.83C15.1 8.03 14.82 8.25 14.57 8.5C13.4 9.61 12.75 11.09 12.75 12.67ZM9.91 6.93C10.1 7.08 10.29 7.24 10.46 7.41C11.1 8.02 11.61 8.72 11.99 9.49C12.37 8.72 12.89 8.01 13.52 7.41C13.7 7.24 13.88 7.08 14.07 6.93C13.45 5.53 12.53 4.51 11.98 3.99C11.46 4.52 10.53 5.53 9.91 6.93Z" fill="#646464"/>
</svg>
