<svg width="24" height="24" viewBox="0 0 24 24" fill="none" xmlns="http://www.w3.org/2000/svg">
<path d="M12 21.75C11.012 21.75 10.124 21.237 9.62205 20.378C9.41405 20.02 9.53404 19.561 9.89204 19.352C10.248 19.144 10.708 19.264 10.918 19.622C11.377 20.409 12.623 20.409 13.082 19.622C13.291 19.264 13.751 19.144 14.108 19.352C14.466 19.56 14.587 20.02 14.378 20.378C13.876 21.237 12.988 21.75 12 21.75ZM20.675 18.325C20.8 18.065 20.765 17.757 20.586 17.532C20.567 17.509 18.745 15.189 18.745 12.5V8.99502C18.745 5.27602 15.719 2.25003 12 2.25003C8.28104 2.25003 5.25504 5.27602 5.25504 8.99502V12.5C5.25504 15.189 3.43304 17.509 3.41404 17.532C3.23504 17.757 3.20005 18.066 3.32505 18.325C3.45005 18.584 3.71204 18.75 4.00004 18.75H20C20.288 18.75 20.55 18.584 20.675 18.325ZM6.75504 12.5V8.99502C6.75504 6.10302 9.10804 3.75003 12 3.75003C14.892 3.75003 17.245 6.10302 17.245 8.99502V12.5C17.245 14.436 17.995 16.158 18.613 17.25H5.38602C6.00502 16.158 6.75504 14.436 6.75504 12.5ZM3.74604 8.07502C3.91704 6.36602 4.60705 4.78302 5.74305 3.49702C6.01705 3.18602 5.98704 2.71203 5.67704 2.43803C5.36604 2.16303 4.89205 2.19302 4.61805 2.50402C3.27405 4.02702 2.45603 5.90202 2.25403 7.92602C2.21203 8.33802 2.51302 8.70602 2.92502 8.74702C2.95002 8.74902 2.97604 8.75103 3.00104 8.75103C3.38104 8.75003 3.70804 8.46102 3.74604 8.07502ZM21.075 8.74603C21.487 8.70503 21.788 8.33703 21.746 7.92503C21.544 5.90203 20.726 4.02703 19.382 2.50303C19.109 2.19303 18.634 2.16202 18.323 2.43702C18.012 2.71102 17.983 3.18503 18.257 3.49603C19.392 4.78203 20.083 6.36503 20.254 8.07403C20.293 8.46103 20.619 8.74902 20.999 8.74902C21.024 8.75002 21.049 8.74903 21.075 8.74603Z" fill="#646464"/>
</svg>
