<svg width="24" height="24" viewBox="0 0 24 24" fill="none" xmlns="http://www.w3.org/2000/svg">
<path d="M10.2257 20.7495C10.2257 21.4395 9.65131 21.9995 8.94362 21.9995C8.23695 21.9995 7.65643 21.4395 7.65643 20.7495C7.65643 20.0595 8.22566 19.4995 8.93335 19.4995H8.94362C9.65131 19.4995 10.2257 20.0595 10.2257 20.7495ZM17.1488 19.4995H17.1385C16.4308 19.4995 15.8616 20.0595 15.8616 20.7495C15.8616 21.4395 16.4411 21.9995 17.1488 21.9995C17.8564 21.9995 18.4308 21.4395 18.4308 20.7495C18.4308 20.0595 17.8564 19.4995 17.1488 19.4995ZM21.9538 8.24149L20.9139 14.4075C20.6442 15.8535 19.9734 17.4995 17.1282 17.4995H8.65027C7.25642 17.4995 6.05535 16.4845 5.85843 15.1385L4.3097 4.57349C4.21944 3.96149 3.67489 3.50049 3.04104 3.50049H2.76923C2.34462 3.50049 2 3.16449 2 2.75049C2 2.33649 2.34462 2.00049 2.76923 2.00049H3.04204C4.43589 2.00049 5.63696 3.01548 5.83389 4.36148L5.92816 5.00049H19.1795C20.0185 5.00049 20.8083 5.36048 21.3457 5.98848C21.8821 6.61548 22.1046 7.43749 21.9538 8.24149ZM20.1631 6.94849C19.919 6.66349 19.56 6.49948 19.1785 6.49948H6.14664L7.38149 14.9265C7.47175 15.5385 8.01643 15.9995 8.65027 15.9995H17.1282C18.7662 15.9995 19.1652 15.4035 19.398 14.1525L20.438 7.98547C20.5088 7.60747 20.4072 7.23349 20.1631 6.94849ZM14.5088 9.38548L12.3169 11.5215L11.4933 10.7185C11.1928 10.4255 10.7056 10.4255 10.4051 10.7185C10.1046 11.0115 10.1046 11.4865 10.4051 11.7795L11.7723 13.1125C11.9169 13.2535 12.1118 13.3325 12.3159 13.3325C12.52 13.3325 12.7159 13.2535 12.8595 13.1125L15.5949 10.4455C15.8954 10.1535 15.8954 9.67748 15.5949 9.38448C15.2944 9.09148 14.8093 9.09248 14.5088 9.38548Z" fill="#646464"/>
</svg>
