<svg width="24" height="24" viewBox="0 0 24 24" fill="none" xmlns="http://www.w3.org/2000/svg">
<path d="M12 2C7.03714 2 3 6.02564 3 10.9744C3 16.2236 7.83119 19.4051 11.028 21.5107L11.5721 21.8708C11.7017 21.9569 11.8509 22 12 22C12.1491 22 12.2983 21.9569 12.4279 21.8708L12.972 21.5107C16.1688 19.4051 21 16.2236 21 10.9744C21 6.02564 16.9629 2 12 2ZM12.1224 20.2267L12 20.3078L11.8776 20.2267C8.7816 18.1877 4.54286 15.3959 4.54286 10.9744C4.54286 6.87385 7.88777 3.53846 12 3.53846C16.1122 3.53846 19.4571 6.87385 19.4571 10.9744C19.4571 15.3959 15.2174 18.1887 12.1224 20.2267ZM15.3429 10.9744C15.3429 11.399 14.9973 11.7436 14.5714 11.7436H12.7714V13.5385C12.7714 13.9631 12.4258 14.3077 12 14.3077C11.5742 14.3077 11.2286 13.9631 11.2286 13.5385V11.7436H9.42857C9.00274 11.7436 8.65714 11.399 8.65714 10.9744C8.65714 10.5497 9.00274 10.2051 9.42857 10.2051H11.2286V8.41026C11.2286 7.98564 11.5742 7.64103 12 7.64103C12.4258 7.64103 12.7714 7.98564 12.7714 8.41026V10.2051H14.5714C14.9973 10.2051 15.3429 10.5497 15.3429 10.9744Z" fill="#646464"/>
</svg>
