<svg width="24" height="24" viewBox="0 0 24 24" fill="none" xmlns="http://www.w3.org/2000/svg">
<path fill-rule="evenodd" clip-rule="evenodd" d="M8.17317 2.7612C9.38642 2.25866 10.6868 2 12 2C13.3132 2 14.6136 2.25866 15.8268 2.7612C17.0401 3.26375 18.1425 4.00035 19.0711 4.92893C19.9997 5.85752 20.7362 6.95991 21.2388 8.17317C21.7413 9.38642 22 10.6868 22 12C22 13.3132 21.7413 14.6136 21.2388 15.8268C20.7362 17.0401 19.9997 18.1425 19.0711 19.0711C18.1425 19.9997 17.0401 20.7362 15.8268 21.2388C14.6136 21.7413 13.3132 22 12 22C10.6868 22 9.38642 21.7413 8.17317 21.2388C6.95991 20.7362 5.85752 19.9997 4.92893 19.0711C4.00035 18.1425 3.26375 17.0401 2.7612 15.8268C2.25866 14.6136 2 13.3132 2 12C2 10.6868 2.25866 9.38642 2.7612 8.17317C3.26375 6.95991 4.00035 5.85752 4.92893 4.92893C5.85752 4.00035 6.95991 3.26375 8.17317 2.7612ZM12 3.53846C10.8888 3.53846 9.78851 3.75733 8.76191 4.18256C7.73531 4.60779 6.80252 5.23106 6.01679 6.01679C5.23106 6.80252 4.60779 7.73531 4.18256 8.76191C3.75733 9.78851 3.53846 10.8888 3.53846 12C3.53846 13.1112 3.75733 14.2115 4.18256 15.2381C4.60779 16.2647 5.23106 17.1975 6.01679 17.9832C6.80252 18.7689 7.73531 19.3922 8.76191 19.8174C9.78851 20.2427 10.8888 20.4615 12 20.4615C13.1112 20.4615 14.2115 20.2427 15.2381 19.8174C16.2647 19.3922 17.1975 18.7689 17.9832 17.9832C18.7689 17.1975 19.3922 16.2647 19.8174 15.2381C20.2427 14.2115 20.4615 13.1112 20.4615 12C20.4615 10.8888 20.2427 9.78851 19.8174 8.76191C19.3922 7.73531 18.7689 6.80252 17.9832 6.01679C17.1975 5.23106 16.2647 4.60779 15.2381 4.18256C14.2115 3.75733 13.1112 3.53846 12 3.53846Z" fill="#646464"/>
<path fill-rule="evenodd" clip-rule="evenodd" d="M8.15384 9.94874C8.15384 9.5239 8.49824 9.1795 8.92307 9.1795H8.93333C9.35816 9.1795 9.70256 9.5239 9.70256 9.94874C9.70256 10.3736 9.35816 10.718 8.93333 10.718H8.92307C8.49824 10.718 8.15384 10.3736 8.15384 9.94874Z" fill="#646464"/>
<path fill-rule="evenodd" clip-rule="evenodd" d="M14.3077 9.94874C14.3077 9.5239 14.6521 9.1795 15.0769 9.1795H15.0872C15.512 9.1795 15.8564 9.5239 15.8564 9.94874C15.8564 10.3736 15.512 10.718 15.0872 10.718H15.0769C14.6521 10.718 14.3077 10.3736 14.3077 9.94874Z" fill="#646464"/>
<path fill-rule="evenodd" clip-rule="evenodd" d="M12 15.0251C11.6248 15.0251 11.2533 15.1 10.9074 15.2453C10.5614 15.3907 10.248 15.6036 9.98535 15.8717C9.68803 16.1751 9.20101 16.1801 8.89755 15.8828C8.5941 15.5854 8.58913 15.0984 8.88645 14.795C9.29231 14.3807 9.77674 14.0517 10.3114 13.827C10.846 13.6024 11.4201 13.4866 12 13.4866C12.5799 13.4866 13.154 13.6024 13.6886 13.827C14.2233 14.0517 14.7077 14.3807 15.1136 14.795C15.4109 15.0984 15.4059 15.5854 15.1025 15.8828C14.799 16.1801 14.312 16.1751 14.0147 15.8717C13.752 15.6036 13.4386 15.3907 13.0926 15.2453C12.7467 15.1 12.3752 15.0251 12 15.0251Z" fill="#646464"/>
</svg>
