<svg width="24" height="24" viewBox="0 0 24 24" fill="none" xmlns="http://www.w3.org/2000/svg">
<path d="M22 20.2286C22 20.6544 21.6554 21 21.2308 21H4.30769C2.86256 21 2 20.135 2 18.6857V3.77143C2 3.3456 2.34462 3 2.76923 3C3.19385 3 3.53846 3.3456 3.53846 3.77143V18.6857C3.53846 19.2915 3.70359 19.4571 4.30769 19.4571H21.2308C21.6554 19.4571 22 19.8027 22 20.2286ZM6.8718 16.8857C7.29641 16.8857 7.64103 16.5401 7.64103 16.1143V13.0286C7.64103 12.6027 7.29641 12.2571 6.8718 12.2571C6.44718 12.2571 6.10256 12.6027 6.10256 13.0286V16.1143C6.10256 16.5401 6.44718 16.8857 6.8718 16.8857ZM10.9744 16.8857C11.399 16.8857 11.7436 16.5401 11.7436 16.1143V8.91429C11.7436 8.48846 11.399 8.14286 10.9744 8.14286C10.5497 8.14286 10.2051 8.48846 10.2051 8.91429V16.1143C10.2051 16.5401 10.5497 16.8857 10.9744 16.8857ZM15.0769 16.8857C15.5015 16.8857 15.8462 16.5401 15.8462 16.1143V10.9714C15.8462 10.5456 15.5015 10.2 15.0769 10.2C14.6523 10.2 14.3077 10.5456 14.3077 10.9714V16.1143C14.3077 16.5401 14.6523 16.8857 15.0769 16.8857ZM19.1795 16.8857C19.6041 16.8857 19.9487 16.5401 19.9487 16.1143V4.8C19.9487 4.37417 19.6041 4.02857 19.1795 4.02857C18.7549 4.02857 18.4103 4.37417 18.4103 4.8V16.1143C18.4103 16.5401 18.7549 16.8857 19.1795 16.8857Z" fill="#646464"/>
</svg>
