<svg width="24" height="24" viewBox="0 0 24 24" fill="none" xmlns="http://www.w3.org/2000/svg">
<path d="M19.5 20.3333H7.73669C8.37994 19.3433 8.7045 18.18 8.66669 17V13.6667H14.5C14.721 13.6667 14.933 13.5789 15.0893 13.4226C15.2456 13.2663 15.3334 13.0543 15.3334 12.8333C15.3334 12.6123 15.2456 12.4004 15.0893 12.2441C14.933 12.0878 14.721 12 14.5 12H8.66669V8.66667C8.66669 7.34058 9.19347 6.06881 10.1312 5.13113C11.0688 4.19345 12.3406 3.66667 13.6667 3.66667C14.9928 3.66667 16.2645 4.19345 17.2022 5.13113C18.1399 6.06881 18.6667 7.34058 18.6667 8.66667C18.6667 8.88768 18.7545 9.09964 18.9108 9.25592C19.067 9.4122 19.279 9.5 19.5 9.5C19.721 9.5 19.933 9.4122 20.0893 9.25592C20.2456 9.09964 20.3334 8.88768 20.3334 8.66667C20.3334 6.89856 19.631 5.20286 18.3807 3.95262C17.1305 2.70238 15.4348 2 13.6667 2C11.8986 2 10.2029 2.70238 8.95264 3.95262C7.7024 5.20286 7.00002 6.89856 7.00002 8.66667V12H5.33335C5.11234 12 4.90038 12.0878 4.7441 12.2441C4.58782 12.4004 4.50002 12.6123 4.50002 12.8333C4.50002 13.0543 4.58782 13.2663 4.7441 13.4226C4.90038 13.5789 5.11234 13.6667 5.33335 13.6667H7.00002V17C7.00002 18 6.75669 20.3333 4.50002 20.3333C4.27901 20.3333 4.06704 20.4211 3.91076 20.5774C3.75448 20.7337 3.66669 20.9457 3.66669 21.1667C3.66669 21.3877 3.75448 21.5996 3.91076 21.7559C4.06704 21.9122 4.27901 22 4.50002 22H19.5C19.721 22 19.933 21.9122 20.0893 21.7559C20.2456 21.5996 20.3334 21.3877 20.3334 21.1667C20.3334 20.9457 20.2456 20.7337 20.0893 20.5774C19.933 20.4211 19.721 20.3333 19.5 20.3333Z" fill="#646464"/>
</svg>
