<svg width="24" height="24" viewBox="0 0 24 24" fill="none" xmlns="http://www.w3.org/2000/svg">
<path fill-rule="evenodd" clip-rule="evenodd" d="M6.8718 3.53846C5.98774 3.53846 5.13989 3.88965 4.51477 4.51477C3.88965 5.13989 3.53846 5.98774 3.53846 6.8718V17.1282C3.53846 18.0123 3.88965 18.8601 4.51477 19.4852C5.13989 20.1103 5.98774 20.4615 6.8718 20.4615H17.1282C18.0123 20.4615 18.8601 20.1103 19.4852 19.4852C20.1103 18.8601 20.4615 18.0123 20.4615 17.1282V6.8718C20.4615 5.98774 20.1103 5.13989 19.4852 4.51477C18.8601 3.88965 18.0123 3.53846 17.1282 3.53846H6.8718ZM3.42692 3.42692C4.34055 2.51328 5.57971 2 6.8718 2H17.1282C18.4203 2 19.6594 2.51328 20.5731 3.42692C21.4867 4.34055 22 5.57971 22 6.8718V17.1282C22 18.4203 21.4867 19.6594 20.5731 20.5731C19.6594 21.4867 18.4203 22 17.1282 22H6.8718C5.57971 22 4.34055 21.4867 3.42692 20.5731C2.51328 19.6594 2 18.4203 2 17.1282V6.8718C2 5.57971 2.51328 4.34055 3.42692 3.42692Z" fill="#646464"/>
<path fill-rule="evenodd" clip-rule="evenodd" d="M11.9954 7.641C11.1483 7.64125 10.3097 7.80994 9.52831 8.13733C8.97957 8.36726 8.46682 8.6722 8.00432 9.04249L9.98256 10.9853C10.5865 10.6118 11.2866 10.4101 12.0063 10.4102C12.726 10.4104 13.426 10.6123 14.0299 10.986L16.0066 9.04408C14.9052 8.16516 13.5142 7.64102 12 7.64102C11.9985 7.64102 11.9969 7.64101 11.9954 7.641ZM12.0139 6.10256C10.9564 6.10033 9.90914 6.30972 8.93377 6.71839C7.95841 7.12707 7.07468 7.72677 6.33462 8.48219C6.03757 8.7854 6.04227 9.27191 6.34511 9.56933L9.37691 12.5468C9.66981 12.8344 10.137 12.8414 10.4383 12.5626C10.8649 12.1678 11.4248 11.9486 12.006 11.9487C12.5873 11.9488 13.1472 12.1683 13.5737 12.5633C13.875 12.8424 14.3425 12.8355 14.6355 12.5477L17.6673 9.56924C17.813 9.42605 17.8958 9.23077 17.8974 9.02646C17.899 8.82215 17.8192 8.62561 17.6757 8.48019C16.2321 7.01738 14.2296 6.10636 12.0139 6.10256Z" fill="#646464"/>
</svg>
