<svg width="24" height="24" viewBox="0 0 24 24" fill="none" xmlns="http://www.w3.org/2000/svg">
<path d="M21.2092 6.8214C20.7199 6.58698 20.1544 6.65108 19.7321 6.98969L17.3488 8.89671V8.48837C17.3488 6.23907 16.1098 5 13.8605 5H5.48837C3.23907 5 2 6.23907 2 8.48837V15.9302C2 18.1795 3.23907 19.4186 5.48837 19.4186H13.8605C16.1098 19.4186 17.3488 18.1795 17.3488 15.9302V15.5219L19.733 17.4298C19.986 17.6326 20.2922 17.7366 20.6019 17.7366C20.8075 17.7366 21.0139 17.6912 21.2092 17.5972C21.6957 17.3628 22 16.8799 22 16.3395V8.08003C22 7.53864 21.6967 7.05675 21.2092 6.8214ZM15.9535 15.9302C15.9535 17.3972 15.3274 18.0233 13.8605 18.0233H5.48837C4.0214 18.0233 3.39535 17.3972 3.39535 15.9302V8.48837C3.39535 7.0214 4.0214 6.39535 5.48837 6.39535H13.8605C15.3274 6.39535 15.9535 7.0214 15.9535 8.48837V15.9302ZM20.6047 16.3395L17.3488 13.7348V10.6847L20.6047 8.08003V16.3395Z" fill="#646464"/>
</svg>
