<svg width="24" height="24" viewBox="0 0 24 24" fill="none" xmlns="http://www.w3.org/2000/svg">
<path d="M20.8025 3.19532C18.8239 1.21679 15.8695 1.69933 11.9991 4.61212C8.12951 1.69933 5.17588 1.21595 3.19568 3.19532C1.21548 5.17468 1.69969 8.12831 4.61249 11.9987C1.69969 15.8682 1.21631 18.8227 3.19568 20.8021C3.56679 21.1869 4.01275 21.4917 4.5061 21.6976C4.99944 21.9036 5.52973 22.0064 6.0643 21.9997C7.70697 21.9997 9.6905 21.1229 11.9991 19.3861C14.3068 21.1229 16.2903 21.9997 17.9338 21.9997C18.4684 22.0064 18.9987 21.9036 19.492 21.6976C19.9854 21.4917 20.4313 21.1869 20.8025 20.8021C22.7818 18.8227 22.3026 15.8691 19.3856 11.9987C22.2984 8.12831 22.7818 5.17468 20.8025 3.19532ZM17.9038 3.68787C18.2223 3.67828 18.5394 3.73388 18.8357 3.85125C19.1319 3.96863 19.401 4.1453 19.6265 4.37043C21.0816 5.82641 20.0065 8.29833 18.303 10.6536C17.6046 9.83014 16.8179 8.97423 15.9211 8.07664C15.0244 7.17905 14.166 6.3923 13.3425 5.69307C14.9244 4.54879 16.5595 3.68787 17.9038 3.68787ZM17.2588 11.9987C16.4162 13.0155 15.5236 13.9664 14.7452 14.749C13.9668 15.5315 13.0158 16.4158 11.9991 17.2584C10.9823 16.4158 10.0314 15.5232 9.25296 14.749C8.47454 13.9747 7.58195 13.0155 6.73937 11.9987C7.58195 10.9819 8.47454 10.0302 9.25296 9.25259C10.0314 8.47501 10.9823 7.58159 11.9991 6.73817C13.0158 7.57992 13.9668 8.47418 14.7493 9.25259C15.5319 10.031 16.4162 10.9819 17.2588 11.9987ZM4.37163 4.37127C4.59688 4.14574 4.86593 3.96876 5.16221 3.85122C5.45849 3.73368 5.77571 3.67809 6.0943 3.68787C7.43861 3.68787 9.07377 4.54879 10.6556 5.69307C9.83218 6.3923 8.97543 7.17905 8.077 8.07664C7.17858 8.97423 6.3935 9.82681 5.69426 10.6536C3.99159 8.29833 2.91482 5.82641 4.37163 4.37127ZM4.37163 19.6228C2.91648 18.1676 3.99159 15.6949 5.69426 13.3405C6.3935 14.1639 7.18025 15.0198 8.077 15.9174C8.97376 16.815 9.82718 17.6034 10.6514 18.3018C8.29703 20.007 5.82511 21.0829 4.37163 19.6261V19.6228ZM19.6232 19.6228C18.1689 21.0763 15.6978 20.0037 13.3434 18.3018C14.1651 17.6034 15.0219 16.8125 15.9178 15.9174C16.8137 15.0223 17.6013 14.1672 18.2997 13.3405C20.0065 15.6991 21.0833 18.171 19.6265 19.6261L19.6232 19.6228Z" fill="#646464"/>
<path d="M11.999 13.6655C12.9195 13.6655 13.6658 12.9192 13.6658 11.9986C13.6658 11.0781 12.9195 10.3318 11.999 10.3318C11.0784 10.3318 10.3321 11.0781 10.3321 11.9986C10.3321 12.9192 11.0784 13.6655 11.999 13.6655Z" fill="#646464"/>
</svg>
