<svg width="24" height="24" viewBox="0 0 24 24" fill="none" xmlns="http://www.w3.org/2000/svg">
<path d="M21.9994 11.1667C21.9969 10.5283 21.7502 9.915 21.31 9.45264C20.8698 8.99027 20.2694 8.71383 19.6319 8.68C18.7967 6.7453 17.2541 5.20267 15.3194 4.3675C15.2855 3.72999 15.0091 3.12957 14.5467 2.68936C14.0844 2.24915 13.4711 2.00251 12.8327 2H11.166C10.5276 2.00251 9.91438 2.24915 9.45201 2.68936C8.98965 3.12957 8.71321 3.72999 8.67938 4.3675C6.74482 5.20289 5.20226 6.74544 4.36688 8.68C3.7769 8.70879 3.21642 8.94659 2.78573 9.35083C2.35505 9.75508 2.08227 10.2994 2.01622 10.8864C1.95016 11.4733 2.09514 12.0647 2.42521 12.5545C2.75527 13.0444 3.24888 13.4008 3.81771 13.56C4.05419 14.818 4.57829 16.0042 5.34908 17.0261C6.11987 18.048 7.11647 18.8778 8.26104 19.4508L7.86104 20.9508C7.80405 21.1643 7.83419 21.3917 7.94483 21.583C8.05548 21.7743 8.23756 21.9138 8.45104 21.9708C8.52115 21.9898 8.59342 21.9996 8.66604 22C8.84959 22 9.02799 21.9394 9.17355 21.8275C9.31911 21.7157 9.42369 21.559 9.47104 21.3817L9.83271 20.0433C11.2544 20.43 12.7535 20.43 14.1752 20.0433L14.5319 21.3817C14.5918 21.5919 14.7319 21.7701 14.9221 21.878C15.1122 21.9859 15.3371 22.0147 15.5483 21.9583C15.7595 21.9019 15.9401 21.7648 16.0511 21.5765C16.1621 21.3882 16.1947 21.1638 16.1419 20.9517L15.7419 19.4517C16.8863 18.8782 17.8828 18.0481 18.6537 17.0261C19.4246 16.0042 19.949 14.818 20.186 13.56C20.7071 13.412 21.1659 13.0984 21.493 12.6667C21.8202 12.2349 21.9979 11.7084 21.9994 11.1667ZM11.166 3.66667H12.8327C13.0537 3.66667 13.2657 3.75446 13.422 3.91074C13.5782 4.06702 13.666 4.27899 13.666 4.5C13.666 4.72101 13.5782 4.93298 13.422 5.08926C13.2657 5.24554 13.0537 5.33333 12.8327 5.33333H11.166C10.945 5.33333 10.7331 5.24554 10.5768 5.08926C10.4205 4.93298 10.3327 4.72101 10.3327 4.5C10.3327 4.27899 10.4205 4.06702 10.5768 3.91074C10.7331 3.75446 10.945 3.66667 11.166 3.66667ZM4.49938 10.3333H6.16604C6.38706 10.3333 6.59902 10.4211 6.7553 10.5774C6.91158 10.7337 6.99938 10.9457 6.99938 11.1667C6.99938 11.3877 6.91158 11.5996 6.7553 11.7559C6.59902 11.9122 6.38706 12 6.16604 12H4.49938C4.27836 12 4.0664 11.9122 3.91012 11.7559C3.75384 11.5996 3.66604 11.3877 3.66604 11.1667C3.66604 10.9457 3.75384 10.7337 3.91012 10.5774C4.0664 10.4211 4.27836 10.3333 4.49938 10.3333ZM11.9994 18.6667C11.4111 18.6659 10.8255 18.5874 10.2577 18.4333L11.6744 13.13C11.6935 13.0576 11.736 12.9936 11.7953 12.9479C11.8547 12.9022 11.9274 12.8775 12.0023 12.8775C12.0772 12.8775 12.1499 12.9022 12.2092 12.9479C12.2686 12.9936 12.3111 13.0576 12.3302 13.13L13.7469 18.4333C13.1772 18.5878 12.5896 18.6663 11.9994 18.6667ZM15.2952 17.7925L13.9369 12.7008C13.8265 12.2719 13.5758 11.8923 13.2247 11.6224C12.8736 11.3525 12.4422 11.2079 11.9994 11.2117C11.5564 11.2078 11.1248 11.3523 10.7735 11.6222C10.4222 11.8921 10.1714 12.2718 10.061 12.7008L8.70354 17.7925C7.92737 17.3522 7.24798 16.7599 6.70602 16.051C6.16406 15.3421 5.77066 14.5311 5.54938 13.6667H6.16604C6.8071 13.6434 7.41466 13.3745 7.86305 12.9158C8.31144 12.4571 8.56634 11.8435 8.57501 11.2021C8.58368 10.5607 8.34546 9.94048 7.90964 9.46979C7.47381 8.9991 6.87373 8.71395 6.23354 8.67333C6.91417 7.49983 7.93261 6.55864 9.15604 5.9725C9.3865 6.28994 9.68867 6.54847 10.038 6.72702C10.3872 6.90558 10.7738 6.99911 11.166 7H12.8327C13.225 6.99917 13.6115 6.90567 13.9608 6.72711C14.3101 6.54855 14.6123 6.28999 14.8427 5.9725C16.066 6.55852 17.0842 7.49976 17.7644 8.67333C17.1242 8.71403 16.5241 8.99927 16.0883 9.47004C15.6526 9.9408 15.4144 10.5611 15.4232 11.2025C15.432 11.8439 15.687 12.4575 16.1355 12.9161C16.584 13.3748 17.1916 13.6435 17.8327 13.6667H18.4494C18.2278 14.531 17.8343 15.3419 17.2924 16.0507C16.7505 16.7596 16.0712 17.352 15.2952 17.7925ZM19.4994 12H17.8327C17.6117 12 17.3997 11.9122 17.2435 11.7559C17.0872 11.5996 16.9994 11.3877 16.9994 11.1667C16.9994 10.9457 17.0872 10.7337 17.2435 10.5774C17.3997 10.4211 17.6117 10.3333 17.8327 10.3333H19.4994C19.7204 10.3333 19.9324 10.4211 20.0886 10.5774C20.2449 10.7337 20.3327 10.9457 20.3327 11.1667C20.3327 11.3877 20.2449 11.5996 20.0886 11.7559C19.9324 11.9122 19.7204 12 19.4994 12Z" fill="#646464"/>
</svg>
