<svg width="24" height="24" viewBox="0 0 24 24" fill="none" xmlns="http://www.w3.org/2000/svg">
<path d="M12 22.75C6.07 22.75 1.25 17.93 1.25 12C1.25 6.07 6.07 1.25 12 1.25C17.93 1.25 22.75 6.07 22.75 12C22.75 17.93 17.93 22.75 12 22.75ZM12 2.75C6.9 2.75 2.75 6.9 2.75 12C2.75 17.1 6.9 21.25 12 21.25C17.1 21.25 21.25 17.1 21.25 12C21.25 6.9 17.1 2.75 12 2.75ZM12 17.75C9.86 17.75 8.56 16.61 8.5 16.56C8.19 16.28 8.16 15.81 8.44 15.5C8.71 15.19 9.18 15.16 9.49 15.43C9.54 15.47 10.46 16.25 12 16.25C13.54 16.25 14.47 15.47 14.51 15.44C14.82 15.17 15.29 15.2 15.57 15.51C15.84 15.82 15.81 16.29 15.51 16.56C15.44 16.61 14.14 17.75 12 17.75Z" fill="#646464"/>
<path d="M10 10C10 10.8284 9.32843 11.5 8.5 11.5C7.67157 11.5 7 10.8284 7 10C7 9.17157 7.67157 8.5 8.5 8.5C9.32843 8.5 10 9.17157 10 10Z" fill="#646464"/>
<path d="M17 10C17 10.8284 16.3284 11.5 15.5 11.5C14.6716 11.5 14 10.8284 14 10C14 9.17157 14.6716 8.5 15.5 8.5C16.3284 8.5 17 9.17157 17 10Z" fill="#646464"/>
</svg>
