<svg width="24" height="24" viewBox="0 0 24 24" fill="none" xmlns="http://www.w3.org/2000/svg">
<path d="M14.0828 12.8334C13.8356 12.8334 13.5939 12.76 13.3884 12.6227C13.1828 12.4853 13.0226 12.2901 12.928 12.0617C12.8334 11.8333 12.8086 11.582 12.8569 11.3395C12.9051 11.097 13.0241 10.8743 13.199 10.6995C13.3738 10.5247 13.5965 10.4056 13.839 10.3574C14.0814 10.3091 14.3328 10.3339 14.5612 10.4285C14.7896 10.5231 14.9848 10.6833 15.1222 10.8889C15.2595 11.0945 15.3328 11.3361 15.3328 11.5834C15.3328 11.9149 15.2011 12.2328 14.9667 12.4672C14.7323 12.7017 14.4144 12.8334 14.0828 12.8334ZM21.937 17.12C22.041 17.7185 22.0129 18.3325 21.8546 18.919C21.6963 19.5055 21.4117 20.0503 21.0207 20.5152C20.6297 20.9801 20.1418 21.3539 19.5911 21.6104C19.0404 21.8669 18.4403 21.9999 17.8328 22H14.4995C14.2785 22 14.0665 21.9122 13.9102 21.7559C13.754 21.5997 13.6662 21.3877 13.6662 21.1667V19.2809C13.1222 19.4243 12.5621 19.498 11.9995 19.5C11.4366 19.4971 10.8764 19.4215 10.3328 19.275V21.1667C10.3328 21.3877 10.245 21.5997 10.0888 21.7559C9.93248 21.9122 9.72052 22 9.4995 22H6.16617C5.55869 21.9999 4.9586 21.8669 4.40792 21.6104C3.85725 21.3539 3.36932 20.9801 2.97832 20.5152C2.58732 20.0503 2.3027 19.5055 2.14442 18.919C1.98613 18.3325 1.958 17.7185 2.062 17.12L2.312 15.67C2.39514 15.1878 2.62083 14.7415 2.95999 14.3887C3.29915 14.0359 3.73621 13.7928 4.21482 13.6908C4.69343 13.5887 5.19165 13.6324 5.64521 13.8161C6.09877 13.9999 6.48688 14.3153 6.7595 14.7217C7.81284 16.27 9.84034 17.8334 11.9995 17.8334C14.6078 17.8334 17.1778 15.5175 17.9412 13.3534C18.0024 13.1907 18.1116 13.0504 18.2543 12.9512C18.397 12.8519 18.5665 12.7984 18.7403 12.7975L19.1003 12.8034C19.2617 12.8053 19.4218 12.7752 19.5714 12.7148C19.7211 12.6543 19.8572 12.5647 19.9718 12.4512C20.0865 12.3377 20.1775 12.2025 20.2395 12.0535C20.3014 11.9045 20.3332 11.7447 20.3328 11.5834C20.3325 11.2911 20.2298 11.0081 20.0426 10.7837C19.8553 10.5593 19.5953 10.4076 19.3078 10.355C19.1305 10.3229 18.9684 10.2341 18.8458 10.102C18.7232 9.96997 18.6467 9.80172 18.6278 9.62252C18.4566 7.98526 17.6839 6.4698 16.4594 5.36954C15.2349 4.26928 13.6457 3.6625 11.9995 3.66669C7.352 3.66669 6.07617 6.69002 5.05117 9.12002C4.8645 9.55919 4.68867 9.97836 4.4995 10.3559C6.17516 10.2673 7.80908 9.80086 9.27902 8.99157C10.749 8.18228 12.0169 7.05105 12.9878 5.68252C13.0514 5.59344 13.1319 5.51776 13.2248 5.45979C13.3176 5.40182 13.4209 5.36271 13.5289 5.34468C13.6368 5.32665 13.7473 5.33006 13.8539 5.35471C13.9605 5.37936 14.0613 5.42477 14.1503 5.48836C14.2394 5.55194 14.3151 5.63244 14.3731 5.72527C14.431 5.81811 14.4702 5.92145 14.4882 6.02939C14.5062 6.13734 14.5028 6.24778 14.4782 6.35441C14.4535 6.46105 14.4081 6.56178 14.3445 6.65086C13.2629 8.18432 11.8517 9.45625 10.2145 10.3734C10.4641 10.4346 10.6887 10.5713 10.8578 10.7648C11.0268 10.9584 11.1322 11.1993 11.1594 11.4548C11.1867 11.7103 11.1345 11.968 11.01 12.1928C10.8855 12.4177 10.6948 12.5986 10.4637 12.7111C10.2327 12.8236 9.97258 12.8622 9.71884 12.8216C9.4651 12.781 9.23004 12.6631 9.04568 12.4841C8.86132 12.3051 8.73661 12.0736 8.68853 11.8212C8.64045 11.5687 8.67135 11.3076 8.777 11.0734C6.86102 11.8492 4.78934 12.1632 2.7295 11.99C2.55781 11.967 2.39756 11.8911 2.27103 11.7728C2.14451 11.6544 2.058 11.4996 2.02353 11.3299C1.98906 11.1601 2.00836 10.9838 2.07873 10.8255C2.1491 10.6673 2.26705 10.5348 2.41617 10.4467C2.91995 9.87511 3.29482 9.20181 3.51534 8.47252C4.60284 5.89502 6.2495 2.00002 11.9995 2.00002C13.9615 1.99538 15.8618 2.68506 17.3641 3.94699C18.8664 5.20892 19.8738 6.9617 20.2078 8.89502C20.7381 9.11672 21.1911 9.49017 21.5099 9.96847C21.8286 10.4468 21.999 11.0086 21.9995 11.5834C21.9981 12.2758 21.7452 12.9442 21.2878 13.4642C21.2937 13.4859 21.3087 13.5034 21.3128 13.5267L21.937 17.12ZM8.66617 18.6167C7.34805 17.9103 6.22106 16.8946 5.382 15.6567C5.3106 15.5488 5.21372 15.4601 5.09992 15.3985C4.98613 15.3368 4.85891 15.3042 4.7295 15.3034H4.71534C4.53289 15.3072 4.35744 15.3743 4.21897 15.4931C4.0805 15.612 3.98761 15.7753 3.95617 15.955L3.70617 17.4042C3.64362 17.7632 3.66029 18.1315 3.75503 18.4834C3.84977 18.8352 4.02029 19.1621 4.25463 19.4411C4.48898 19.7202 4.78149 19.9446 5.11169 20.0987C5.44188 20.2529 5.80178 20.3329 6.16617 20.3334H8.66617V18.6167ZM20.2953 17.4042L19.772 14.3934C19.6135 14.4311 19.4521 14.4551 19.2895 14.465C18.4488 16.2391 17.0622 17.6975 15.3328 18.6267V20.3334H17.8328C18.1974 20.3333 18.5574 20.2535 18.8879 20.0996C19.2183 19.9457 19.5111 19.7214 19.7457 19.4424C19.9803 19.1634 20.1511 18.8365 20.246 18.4845C20.341 18.1326 20.3578 17.7633 20.2953 17.4042Z" fill="#646464"/>
</svg>
