<svg width="24" height="24" viewBox="0 0 24 24" fill="none" xmlns="http://www.w3.org/2000/svg">
<path d="M21.7746 6.55438L20.6926 5.47245L17.4445 2.22538C17.144 1.92487 16.6568 1.92487 16.3563 2.22538C16.0558 2.52588 16.0558 3.01307 16.3563 3.31357L16.8948 3.85192L14.7359 6.01204L14.1974 5.47345C14.1974 5.47345 14.1964 5.47347 14.1964 5.47245L13.3852 4.66118C13.0847 4.36068 12.5975 4.36068 12.297 4.66118C11.9965 4.96168 11.9965 5.44888 12.297 5.74938L12.5648 6.01705L6.32802 12.2538C6.29931 12.2825 6.27985 12.3122 6.25216 12.3409C6.24395 12.3481 6.23369 12.3513 6.22549 12.3584C6.20908 12.3738 6.20392 12.3954 6.18956 12.4118C5.45215 13.2005 5.05118 14.0251 5.02349 14.8681C4.99887 15.626 5.27477 16.3684 5.82449 17.0873L2.22562 20.6862C1.92512 20.9867 1.92512 21.4739 2.22562 21.7744C2.37536 21.9241 2.5723 22 2.76922 22C2.96613 22 3.16308 21.9252 3.31282 21.7744L6.91056 18.1765C7.60489 18.7078 8.32076 18.9818 9.03663 18.9818C9.95454 18.9818 10.8725 18.5448 11.7474 17.672L17.982 11.4353L18.2506 11.7039C18.4004 11.8537 18.5973 11.9298 18.7942 11.9298C18.9912 11.9298 19.1881 11.8547 19.3378 11.7039C19.6383 11.4034 19.6383 10.9165 19.3378 10.616L18.5256 9.80371L17.9871 9.26512L20.147 7.10524L20.6854 7.64359C20.8352 7.79332 21.0321 7.86944 21.229 7.86944C21.426 7.86944 21.6228 7.79435 21.7725 7.64359C22.0751 7.34103 22.0751 6.85489 21.7746 6.55438ZM10.6592 16.5818C9.52382 17.7182 8.55156 17.7182 7.41622 16.5818C6.83368 15.9982 6.54546 15.4382 6.56289 14.9152C6.57212 14.6414 6.67163 14.3552 6.84496 14.0629L7.87669 15.0957C8.02643 15.2455 8.22338 15.3213 8.42029 15.3213C8.61618 15.3213 8.81403 15.2465 8.96377 15.0957C9.26427 14.7962 9.26427 14.308 8.96377 14.0075L7.85516 12.8988L8.9361 11.8179L10.0397 12.9213C10.1894 13.0711 10.3864 13.1472 10.5833 13.1472C10.7802 13.1472 10.977 13.0721 11.1268 12.9213C11.4273 12.6208 11.4273 12.1339 11.1268 11.8334L10.0233 10.7297L11.1052 9.64771L12.214 10.7564C12.3637 10.9062 12.5606 10.982 12.7576 10.982C12.9545 10.982 13.1513 10.9072 13.301 10.7564C13.6015 10.4559 13.6015 9.96875 13.301 9.66825L12.1924 8.55952L13.6508 7.10124L16.3533 9.80371C16.3533 9.80371 16.3533 9.80471 16.3543 9.80471C16.3553 9.80471 16.3553 9.80469 16.3553 9.80571L16.8928 10.3431L10.6592 16.5818ZM16.9009 8.17491L15.8241 7.09798L17.984 4.93811L19.0619 6.01504L16.9009 8.17491Z" fill="#646464"/>
</svg>
