<svg width="24" height="24" viewBox="0 0 24 24" fill="none" xmlns="http://www.w3.org/2000/svg">
<path d="M12 22C11.4075 22 10.8151 21.7754 10.3636 21.3251L8.28587 19.2542C8.01433 18.9855 7.58224 18.9557 7.27676 19.1834L5.88005 20.2286C5.33079 20.6389 4.60768 20.7035 3.99568 20.3979C3.38162 20.0922 3 19.4768 3 18.7927V5.84635C3 3.36622 4.37006 2 6.85714 2H17.1429C19.6299 2 21 3.36622 21 5.84635V18.7916C21 19.4758 20.6184 20.0912 20.0043 20.3969C19.3923 20.7025 18.6692 20.6379 18.12 20.2276L16.7221 19.1814C16.4177 18.9537 15.9836 18.9835 15.7141 19.2532L13.6364 21.3241C13.1849 21.7754 12.5925 22 12 22ZM7.73756 17.4941C8.33516 17.4941 8.93069 17.7218 9.37709 18.1659L11.4548 20.2379C11.7459 20.5281 12.2541 20.5281 12.5462 20.2379L14.6239 18.167C15.4334 17.3598 16.7365 17.2695 17.6479 17.9526L19.0467 18.9988C19.1578 19.0829 19.2618 19.0491 19.3163 19.0234C19.3687 18.9968 19.4581 18.9321 19.4581 18.7937V5.84635C19.4581 4.22883 18.7659 3.53854 17.1439 3.53854H6.85815C5.23609 3.53854 4.54386 4.22883 4.54386 5.84635V18.7916C4.54386 18.9301 4.63341 18.9947 4.68587 19.0214C4.74038 19.0481 4.8432 19.0809 4.95532 18.9968L6.35315 17.9506C6.76252 17.6449 7.25104 17.4941 7.73756 17.4941ZM16.8857 8.92343C16.8857 8.4988 16.5401 8.15416 16.1143 8.15416H10.9714C10.5456 8.15416 10.2 8.4988 10.2 8.92343C10.2 9.34807 10.5456 9.69271 10.9714 9.69271H16.1143C16.5401 9.69271 16.8857 9.34807 16.8857 8.92343ZM16.8857 13.0262C16.8857 12.6016 16.5401 12.2569 16.1143 12.2569H10.9714C10.5456 12.2569 10.2 12.6016 10.2 13.0262C10.2 13.4508 10.5456 13.7955 10.9714 13.7955H16.1143C16.5401 13.7955 16.8857 13.4508 16.8857 13.0262ZM7.88571 8.15416C7.45989 8.15416 7.11429 8.4988 7.11429 8.92343C7.11429 9.34807 7.45989 9.69271 7.88571 9.69271C8.31154 9.69271 8.65714 9.34807 8.65714 8.92343C8.65714 8.4988 8.31154 8.15416 7.88571 8.15416ZM7.88571 12.2569C7.45989 12.2569 7.11429 12.6016 7.11429 13.0262C7.11429 13.4508 7.45989 13.7955 7.88571 13.7955C8.31154 13.7955 8.65714 13.4508 8.65714 13.0262C8.65714 12.6016 8.31154 12.2569 7.88571 12.2569Z" fill="#646464"/>
</svg>
