<svg width="24" height="24" viewBox="0 0 24 24" fill="none" xmlns="http://www.w3.org/2000/svg">
<path d="M21 15.75H20.75V7.5C20.75 5.082 19.418 3.75 17 3.75H7C4.582 3.75 3.25 5.082 3.25 7.5V15.75H3C2.586 15.75 2.25 16.086 2.25 16.5V17.5C2.25 19.248 3.252 20.25 5 20.25H19C20.748 20.25 21.75 19.248 21.75 17.5V16.5C21.75 16.086 21.414 15.75 21 15.75ZM4.75 7.5C4.75 5.923 5.423 5.25 7 5.25H17C18.577 5.25 19.25 5.923 19.25 7.5V15.75H4.75V7.5ZM20.25 17.5C20.25 18.423 19.923 18.75 19 18.75H5C4.077 18.75 3.75 18.423 3.75 17.5V17.25H20.25V17.5Z" fill="#646464"/>
</svg>
