<svg width="24" height="24" viewBox="0 0 24 24" fill="none" xmlns="http://www.w3.org/2000/svg">
<path d="M17.6326 15.3333C17.0587 15.3317 16.4901 15.4439 15.9599 15.6634C15.4296 15.883 14.9482 16.2056 14.5434 16.6125L12.0434 19.1125C11.6573 19.5006 11.1981 19.8083 10.6923 20.0179C10.1865 20.2274 9.64423 20.3347 9.09677 20.3333H4.60177C4.41693 20.3334 4.23621 20.2787 4.08248 20.1761C3.92876 20.0734 3.80894 19.9275 3.73818 19.7567C3.66743 19.586 3.64893 19.3981 3.68502 19.2168C3.72112 19.0355 3.81018 18.869 3.94093 18.7383L6.59927 16.0833L17.6434 13.1375C18.176 12.9955 18.6467 12.6814 18.9823 12.2442C19.318 11.807 19.4997 11.2712 19.4993 10.72V4.5C19.4993 3.83696 19.2359 3.20107 18.767 2.73223C18.2982 2.26339 17.6623 2 16.9993 2H10.7793C10.2282 1.99976 9.69256 2.18158 9.25553 2.5172C8.81849 2.85281 8.50458 3.32341 8.3626 3.85583L5.41593 14.9042L2.7626 17.56C2.39883 17.9237 2.15109 18.3872 2.05072 18.8917C1.95035 19.3963 2.00185 19.9192 2.19872 20.3945C2.39559 20.8698 2.72897 21.276 3.15672 21.5617C3.58446 21.8475 4.08734 22 4.60177 22H9.09677C9.86319 22.002 10.6224 21.852 11.3305 21.5586C12.0385 21.2652 12.6814 20.8343 13.2218 20.2908L15.7218 17.7908C16.0998 17.4138 16.5811 17.1572 17.1049 17.0534C17.6287 16.9497 18.1715 17.0034 18.6648 17.2078C19.158 17.4122 19.5797 17.7582 19.8765 18.202C20.1734 18.6459 20.3321 19.1677 20.3326 19.7017V22H21.9993V19.7017C21.9977 18.5439 21.5372 17.4339 20.7187 16.6151C19.9002 15.7962 18.7904 15.3353 17.6326 15.3333ZM17.8326 4.84667V9.98833L15.2618 7.41667L17.8326 4.84667ZM14.0826 6.23917L11.5109 3.66667H16.6559L14.0826 6.23917ZM17.0543 11.5675L8.95093 13.7283L14.0826 8.59583L17.0543 11.5675ZM9.93177 4.44417L12.9051 7.41667L7.7701 12.5525L9.93177 4.44417Z" fill="#646464"/>
</svg>
