<svg width="24" height="24" viewBox="0 0 24 24" fill="none" xmlns="http://www.w3.org/2000/svg">
<path d="M12 7.12821C9.31385 7.12821 7.12821 9.31385 7.12821 12C7.12821 14.6862 9.31385 16.8718 12 16.8718C14.6862 16.8718 16.8718 14.6862 16.8718 12C16.8718 9.31385 14.6862 7.12821 12 7.12821ZM12 15.3333C10.1621 15.3333 8.66667 13.8379 8.66667 12C8.66667 10.1621 10.1621 8.66667 12 8.66667C13.8379 8.66667 15.3333 10.1621 15.3333 12C15.3333 13.8379 13.8379 15.3333 12 15.3333ZM11.2308 4.82051V2.76923C11.2308 2.34462 11.5754 2 12 2C12.4246 2 12.7692 2.34462 12.7692 2.76923V4.82051C12.7692 5.24513 12.4246 5.58974 12 5.58974C11.5754 5.58974 11.2308 5.24513 11.2308 4.82051ZM12.7692 19.1795V21.2308C12.7692 21.6554 12.4246 22 12 22C11.5754 22 11.2308 21.6554 11.2308 21.2308V19.1795C11.2308 18.7549 11.5754 18.4103 12 18.4103C12.4246 18.4103 12.7692 18.7549 12.7692 19.1795ZM4.82051 12.7692H2.76923C2.34462 12.7692 2 12.4246 2 12C2 11.5754 2.34462 11.2308 2.76923 11.2308H4.82051C5.24513 11.2308 5.58974 11.5754 5.58974 12C5.58974 12.4246 5.24513 12.7692 4.82051 12.7692ZM22 12C22 12.4246 21.6554 12.7692 21.2308 12.7692H19.1795C18.7549 12.7692 18.4103 12.4246 18.4103 12C18.4103 11.5754 18.7549 11.2308 19.1795 11.2308H21.2308C21.6554 11.2308 22 11.5754 22 12ZM4.92922 6.0164C4.62871 5.71588 4.62871 5.22873 4.92922 4.92822C5.22973 4.6277 5.71692 4.6277 6.01743 4.92822L7.46769 6.37847C7.7682 6.67899 7.7682 7.16614 7.46769 7.46665C7.31794 7.6164 7.12102 7.6923 6.9241 7.6923C6.72717 7.6923 6.53025 7.61742 6.38051 7.46665L4.92922 6.0164ZM19.0708 17.9836C19.3713 18.2841 19.3713 18.7713 19.0708 19.0718C18.921 19.2215 18.7241 19.2974 18.5272 19.2974C18.3303 19.2974 18.1334 19.2226 17.9836 19.0718L16.5333 17.6215C16.2328 17.321 16.2328 16.8339 16.5333 16.5333C16.8339 16.2328 17.321 16.2328 17.6215 16.5333L19.0708 17.9836ZM7.46769 16.5323C7.7682 16.8328 7.7682 17.32 7.46769 17.6205L6.01743 19.0708C5.86768 19.2205 5.67076 19.2964 5.47384 19.2964C5.27692 19.2964 5.07999 19.2216 4.93025 19.0708C4.62974 18.7703 4.62974 18.2831 4.93025 17.9826L6.38051 16.5323C6.68 16.2318 7.16717 16.2318 7.46769 16.5323ZM16.5323 7.46769C16.2318 7.16717 16.2318 6.67999 16.5323 6.37948L17.9826 4.92922C18.2831 4.62871 18.7703 4.62871 19.0708 4.92922C19.3713 5.22973 19.3713 5.71692 19.0708 6.01743L17.6205 7.46769C17.4708 7.61743 17.2739 7.69333 17.0769 7.69333C16.88 7.69333 16.6831 7.61743 16.5323 7.46769Z" fill="#646464"/>
</svg>
