<svg width="24" height="24" viewBox="0 0 24 24" fill="none" xmlns="http://www.w3.org/2000/svg">
<path d="M16.6694 22C16.1986 22 15.7248 21.9364 15.2571 21.8082C8.93479 20.0727 3.9274 15.0695 2.19092 8.75023C1.79603 7.31325 2.0124 5.81575 2.80217 4.53569C3.59502 3.24949 4.89873 2.34278 6.37879 2.04636C7.35626 1.85046 8.33681 2.2874 8.83632 3.13051L10.4394 5.83727C11.2179 7.15219 10.8311 8.84662 9.55825 9.69281L8.39835 10.4641C9.4825 12.6909 11.306 14.5187 13.5225 15.6018L14.3043 14.4356C15.1546 13.1648 16.85 12.7842 18.1639 13.5668L20.8748 15.1833C21.7138 15.6838 22.1486 16.6623 21.9568 17.6193C21.6614 19.0993 20.7537 20.403 19.4685 21.1958C18.6049 21.7282 17.6438 22 16.6694 22ZM6.84956 3.53565C6.7993 3.53565 6.74805 3.54079 6.69881 3.55105C5.61774 3.76747 4.68233 4.41875 4.11307 5.34289C3.54997 6.25575 3.39507 7.32145 3.6761 8.342C5.26899 14.1412 9.86301 18.7322 15.6643 20.324C16.6848 20.604 17.7494 20.4481 18.6602 19.8861C19.5833 19.3168 20.2358 18.3793 20.4481 17.3167C20.5117 16.9977 20.367 16.6706 20.087 16.5044L17.3761 14.8879C16.7627 14.5238 15.976 14.7023 15.5821 15.292L14.4385 16.9998C14.2334 17.3055 13.8376 17.4224 13.5032 17.2808C10.4641 16.011 7.99222 13.532 6.71935 10.4816C6.5778 10.141 6.69766 9.74924 7.00331 9.54513L8.70711 8.41174C9.2979 8.0189 9.47734 7.23221 9.11528 6.62193L7.51215 3.91515C7.37163 3.67616 7.11726 3.53565 6.84956 3.53565ZM14.9431 14.8633H14.9534H14.9431ZM17.8982 9.94616C17.8982 7.82505 16.172 6.09985 14.0519 6.09985C13.6272 6.09985 13.2826 6.44448 13.2826 6.86912C13.2826 7.29375 13.6272 7.63838 14.0519 7.63838C15.3237 7.63838 16.3597 8.67329 16.3597 9.94616C16.3597 10.3708 16.7043 10.7154 17.1289 10.7154C17.5536 10.7154 17.8982 10.3708 17.8982 9.94616ZM20.9752 9.94616C20.9752 6.12857 17.8695 3.02281 14.0519 3.02281C13.6272 3.02281 13.2826 3.36744 13.2826 3.79207C13.2826 4.2167 13.6272 4.56133 14.0519 4.56133C17.0212 4.56133 19.4367 6.97681 19.4367 9.94616C19.4367 10.3708 19.7813 10.7154 20.206 10.7154C20.6306 10.7154 20.9752 10.3708 20.9752 9.94616Z" fill="#646464"/>
</svg>
