<svg width="24" height="24" viewBox="0 0 24 24" fill="none" xmlns="http://www.w3.org/2000/svg">
<path d="M11.9995 22C11.9257 22 11.8518 21.9878 11.7807 21.9636C10.314 21.4704 3 18.6238 3 10.9614V5.48227C3 5.15006 3.23263 4.86241 3.55661 4.7982C8.061 3.88996 9.65787 3.09162 11.6802 2.08008C11.8759 1.98237 12.1343 1.96942 12.3281 2.06713C14.3228 3.08053 15.8984 3.88158 20.4434 4.7982C20.7674 4.86334 21 5.15006 21 5.48227V10.9624C21 18.6247 13.686 21.4714 12.2193 21.9646C12.1473 21.9878 12.0734 22 11.9995 22ZM4.38455 6.05184V10.9614C4.38455 17.3499 10.3086 19.9509 11.9995 20.5623C13.6905 19.9509 19.6146 17.3489 19.6146 10.9614V6.05184C15.5338 5.19106 13.8178 4.38316 12.0133 3.47026C10.0962 4.42597 8.43204 5.19943 4.38455 6.05184ZM12.6549 12.5695C12.6622 12.5509 12.7361 12.3825 13.2401 12.0447C14.1484 11.4361 14.5554 10.5623 14.3846 9.5824C14.212 8.59692 13.4099 7.78823 12.4333 7.61514C11.7152 7.48859 10.9916 7.68308 10.4424 8.14836C9.89318 8.61365 9.57659 9.29575 9.57659 10.0197C9.57659 10.405 9.88673 10.7177 10.2689 10.7177C10.651 10.7177 10.9611 10.405 10.9611 10.0197C10.9611 9.70986 11.096 9.4176 11.3323 9.21753C11.5714 9.01559 11.8795 8.93287 12.1933 8.99056C12.6013 9.06315 12.9493 9.41397 13.0213 9.82436C13.0674 10.0905 13.061 10.4887 12.4721 10.8833C12.0761 11.1494 11.5298 11.5673 11.3424 12.1238C11.2215 12.4839 11.4143 12.8646 11.7697 12.993C11.8445 13.02 11.9203 13.0321 11.9959 13.0321C12.2812 13.0311 12.5506 12.8505 12.6549 12.5695ZM12.9411 14.788C12.9411 14.2744 12.5285 13.8575 12.018 13.8575H12.0088C11.4993 13.8575 11.0903 14.2744 11.0903 14.788C11.0903 15.3017 11.5085 15.7186 12.018 15.7186C12.5275 15.7186 12.9411 15.3017 12.9411 14.788Z" fill="#646464"/>
</svg>
