<svg width="24" height="24" viewBox="0 0 24 24" fill="none" xmlns="http://www.w3.org/2000/svg">
<path fill-rule="evenodd" clip-rule="evenodd" d="M4.1327 4.1327C4.40061 3.8648 4.76398 3.71429 5.14286 3.71429H11.1429V12V14.5714H3.71429V5.14286C3.71429 4.76398 3.8648 4.40061 4.1327 4.1327ZM12.8571 12.8571V15.4286L12.8571 20.2857H15.7143V16.5714V12.8571H12.8571ZM17.4286 17.4286V20.2857H18.8571C19.236 20.2857 19.5994 20.1352 19.8673 19.8673C20.1352 19.5994 20.2857 19.236 20.2857 18.8571V17.4286H17.4286ZM20.2857 15.7143H17.4286V12.8571H20.2857V15.7143ZM22 16.5714V18.8571C22 19.6907 21.6689 20.4901 21.0795 21.0795C20.4901 21.6689 19.6907 22 18.8571 22H16.5714H12H5.14286C4.30932 22 3.50992 21.6689 2.92052 21.0795C2.33112 20.4901 2 19.6907 2 18.8571V15.4286V5.14286C2 4.30932 2.33112 3.50992 2.92052 2.92052C3.50992 2.33112 4.30932 2 5.14286 2H12H18.8571C19.6907 2 20.4901 2.33112 21.0795 2.92052C21.6689 3.50992 22 4.30932 22 5.14286V12V16.5714ZM20.2857 11.1429H16.5714H12.8571L12.8571 3.71429H18.8571C19.236 3.71429 19.5994 3.8648 19.8673 4.1327C20.1352 4.40061 20.2857 4.76398 20.2857 5.14286V11.1429ZM3.71429 16.2857H11.1429V20.2857H5.14286C4.76398 20.2857 4.40061 20.1352 4.1327 19.8673C3.8648 19.5994 3.71429 19.236 3.71429 18.8571V16.2857Z" fill="#646464"/>
</svg>
