<svg width="24" height="24" viewBox="0 0 24 24" fill="none" xmlns="http://www.w3.org/2000/svg">
<path fill-rule="evenodd" clip-rule="evenodd" d="M12 2C11.0297 2 10.0991 2.38545 9.41302 3.07156C8.72692 3.75767 8.34146 4.68823 8.34146 5.65854V10.5366C8.34146 11.5069 8.72692 12.4375 9.41302 13.1236C10.0991 13.8097 11.0297 14.1951 12 14.1951C12.9703 14.1951 13.9009 13.8097 14.587 13.1236C15.2731 12.4375 15.6585 11.5069 15.6585 10.5366V5.65854C15.6585 4.68823 15.2731 3.75767 14.587 3.07156C13.9009 2.38545 12.9703 2 12 2ZM10.4478 4.10635C10.8595 3.69469 11.4178 3.46341 12 3.46341C12.5822 3.46341 13.1405 3.69469 13.5522 4.10635C13.9639 4.51802 14.1951 5.07635 14.1951 5.65854V10.5366C14.1951 11.1188 13.9639 11.6771 13.5522 12.0888C13.1405 12.5004 12.5822 12.7317 12 12.7317C11.4178 12.7317 10.8595 12.5004 10.4478 12.0888C10.0362 11.6771 9.80488 11.1188 9.80488 10.5366V5.65854C9.80488 5.07635 10.0362 4.51802 10.4478 4.10635Z" fill="#646464"/>
<path d="M5.90244 10.5366C5.90244 10.1325 5.57484 9.80488 5.17073 9.80488C4.76662 9.80488 4.43903 10.1325 4.43903 10.5366C4.43903 12.5419 5.23563 14.465 6.65358 15.883C7.89802 17.1274 9.53159 17.8933 11.2683 18.0621V20.5366H8.09756C7.69345 20.5366 7.36585 20.8642 7.36585 21.2683C7.36585 21.6724 7.69345 22 8.09756 22H15.9024C16.3066 22 16.6341 21.6724 16.6341 21.2683C16.6341 20.8642 16.3066 20.5366 15.9024 20.5366H12.7317V18.0621C14.4684 17.8933 16.102 17.1274 17.3464 15.883C18.7644 14.465 19.561 12.5419 19.561 10.5366C19.561 10.1325 19.2334 9.80488 18.8293 9.80488C18.4252 9.80488 18.0976 10.1325 18.0976 10.5366C18.0976 12.1538 17.4551 13.7047 16.3116 14.8482C15.1681 15.9917 13.6172 16.6341 12 16.6341C10.3828 16.6341 8.83189 15.9917 7.68837 14.8482C6.54486 13.7047 5.90244 12.1538 5.90244 10.5366Z" fill="#646464"/>
</svg>
