<svg width="24" height="24" viewBox="0 0 24 24" fill="none" xmlns="http://www.w3.org/2000/svg">
<path d="M9.17949 5.31429C9.17949 4.88846 9.5241 4.54286 9.94872 4.54286H21.2308C21.6554 4.54286 22 4.88846 22 5.31429C22 5.74011 21.6554 6.08571 21.2308 6.08571H9.94872C9.5241 6.08571 9.17949 5.74011 9.17949 5.31429ZM21.2308 11.2286H9.94872C9.5241 11.2286 9.17949 11.5742 9.17949 12C9.17949 12.4258 9.5241 12.7714 9.94872 12.7714H21.2308C21.6554 12.7714 22 12.4258 22 12C22 11.5742 21.6554 11.2286 21.2308 11.2286ZM21.2308 17.9143H9.94872C9.5241 17.9143 9.17949 18.2599 9.17949 18.6857C9.17949 19.1115 9.5241 19.4571 9.94872 19.4571H21.2308C21.6554 19.4571 22 19.1115 22 18.6857C22 18.2599 21.6554 17.9143 21.2308 17.9143ZM6.61539 5.31429C6.61539 6.59074 5.58051 7.62857 4.30769 7.62857C3.03487 7.62857 2 6.59074 2 5.31429C2 4.03783 3.03487 3 4.30769 3C5.58051 3 6.61539 4.03783 6.61539 5.31429ZM5.07692 5.31429C5.07692 4.88846 4.73231 4.54286 4.30769 4.54286C3.88308 4.54286 3.53846 4.88846 3.53846 5.31429C3.53846 5.74011 3.88308 6.08571 4.30769 6.08571C4.73231 6.08571 5.07692 5.74011 5.07692 5.31429ZM6.61539 12C6.61539 13.2765 5.58051 14.3143 4.30769 14.3143C3.03487 14.3143 2 13.2765 2 12C2 10.7235 3.03487 9.68571 4.30769 9.68571C5.58051 9.68571 6.61539 10.7235 6.61539 12ZM5.07692 12C5.07692 11.5742 4.73231 11.2286 4.30769 11.2286C3.88308 11.2286 3.53846 11.5742 3.53846 12C3.53846 12.4258 3.88308 12.7714 4.30769 12.7714C4.73231 12.7714 5.07692 12.4258 5.07692 12ZM6.61539 18.6857C6.61539 19.9622 5.58051 21 4.30769 21C3.03487 21 2 19.9622 2 18.6857C2 17.4093 3.03487 16.3714 4.30769 16.3714C5.58051 16.3714 6.61539 17.4093 6.61539 18.6857ZM5.07692 18.6857C5.07692 18.2599 4.73231 17.9143 4.30769 17.9143C3.88308 17.9143 3.53846 18.2599 3.53846 18.6857C3.53846 19.1115 3.88308 19.4571 4.30769 19.4571C4.73231 19.4571 5.07692 19.1115 5.07692 18.6857Z" fill="#646464"/>
</svg>
