<svg width="24" height="24" viewBox="0 0 24 24" fill="none" xmlns="http://www.w3.org/2000/svg">
<g clip-path="url(#clip0_406_2048)">
<path fill-rule="evenodd" clip-rule="evenodd" d="M12.0053 3.47151L12.8861 3.53866C14.9132 3.69321 16.8614 4.39011 18.5265 5.55635C20.1814 6.71539 21.4961 8.29556 22.335 10.1331C22.4743 10.4969 22.5249 10.8889 22.4823 11.2764C22.4385 11.6745 22.2978 12.0557 22.0723 12.3867L22.0691 12.3916C21.8386 12.7329 21.5279 13.0124 21.1642 13.2057C20.8005 13.3989 20.395 13.5 19.9832 13.5H4.00018C3.58855 13.5 3.18322 13.399 2.81975 13.2058C2.45628 13.0126 2.14578 12.7331 1.91552 12.3919L1.91165 12.3862C1.68621 12.0554 1.54542 11.6744 1.50166 11.2765C1.45905 10.8891 1.50967 10.4973 1.64911 10.1337C2.48986 8.29457 3.80709 6.71342 5.46461 5.55425C7.13246 4.38786 9.08341 3.6917 11.1129 3.53876L12.0053 3.47151ZM0.267175 9.549C1.21826 7.45005 2.71656 5.64566 4.60496 4.32502C6.49337 3.00439 8.70231 2.21616 11.0002 2.043V1C11.0002 0.734784 11.1055 0.48043 11.2931 0.292893C11.4806 0.105357 11.735 0 12.0002 0C12.2654 0 12.5197 0.105357 12.7073 0.292893C12.8948 0.48043 13.0002 0.734784 13.0002 1V2.043C15.2955 2.218 17.5015 3.00714 19.387 4.32773C21.2725 5.64831 22.7682 7.45173 23.7172 9.549C23.956 10.149 24.0439 10.7985 23.9733 11.4404C23.9027 12.0824 23.6757 12.6972 23.3122 13.231C22.9444 13.7757 22.4485 14.2218 21.8681 14.5303C21.2877 14.8387 20.6404 15 19.9832 15H13.0002V21C13.0002 21.7956 12.9477 22.5587 12.3851 23.1213C11.8225 23.6839 11.0887 24 10.2931 24C9.49742 24 8.73436 23.6839 8.17175 23.1213C7.60914 22.5587 7.38769 22.0189 7.38769 21.2233C7.38769 20.9581 7.49304 20.7037 7.68058 20.5162C7.86812 20.3287 8.02785 20.2233 8.29307 20.2233C8.55828 20.2233 8.81264 20.3287 9.00017 20.5162C9.18771 20.7694 9.29307 21.0237 9.29307 21.289C9.29307 21.5542 9.39843 21.8085 9.58596 21.9961C9.7735 22.1836 10.0279 22.289 10.2931 22.289C10.5583 22.289 10.8126 22.1836 11.0002 21.9961C11.1877 21.8085 11.2931 21.5542 11.2931 21.289V15H4.00017C3.34304 15 2.69596 14.8387 2.1157 14.5303C1.53545 14.2218 1.03978 13.7757 0.672174 13.231C0.308423 12.6973 0.0812663 12.0825 0.010651 11.4405C-0.0599644 10.7985 0.0281218 10.149 0.267175 9.549Z" fill="#646464"/>
</g>
<defs>
<clipPath id="clip0_406_2048">
<rect width="24" height="24" fill="white"/>
</clipPath>
</defs>
</svg>
