<svg width="24" height="24" viewBox="0 0 24 24" fill="none" xmlns="http://www.w3.org/2000/svg">
<path d="M18 5.75H16.54L16.054 4.28906C15.747 3.36906 14.8889 2.75 13.9189 2.75H10.0811C9.11105 2.75 8.25305 3.36906 7.94604 4.28906L7.45996 5.75H6C3.582 5.75 2.25 7.082 2.25 9.5V17.5C2.25 19.918 3.582 21.25 6 21.25H18C20.418 21.25 21.75 19.918 21.75 17.5V9.5C21.75 7.082 20.418 5.75 18 5.75ZM20.25 17.5C20.25 19.077 19.577 19.75 18 19.75H6C4.423 19.75 3.75 19.077 3.75 17.5V9.5C3.75 7.923 4.423 7.25 6 7.25H8C8.323 7.25 8.60891 7.04306 8.71191 6.73706L9.37012 4.76196C9.47212 4.45496 9.75805 4.24902 10.0811 4.24902H13.9189C14.2419 4.24902 14.5279 4.45496 14.6299 4.76196L15.2881 6.73608C15.3911 7.04208 15.677 7.24902 16 7.24902H18C19.577 7.24902 20.25 7.92202 20.25 9.49902V17.5ZM12 9.75C9.933 9.75 8.25 11.432 8.25 13.5C8.25 15.568 9.933 17.25 12 17.25C14.067 17.25 15.75 15.568 15.75 13.5C15.75 11.432 14.067 9.75 12 9.75ZM12 15.75C10.76 15.75 9.75 14.741 9.75 13.5C9.75 12.259 10.76 11.25 12 11.25C13.24 11.25 14.25 12.259 14.25 13.5C14.25 14.741 13.24 15.75 12 15.75ZM18.5 10C18.5 10.552 18.052 11 17.5 11C16.948 11 16.5 10.552 16.5 10C16.5 9.448 16.948 9 17.5 9C18.052 9 18.5 9.448 18.5 10Z" fill="#646464"/>
</svg>
