<svg width="24" height="24" viewBox="0 0 24 24" fill="none" xmlns="http://www.w3.org/2000/svg">
<path d="M22.001 5.33351V4.30781C22.001 2.86261 21.1384 2 19.6932 2H18.6675C17.3126 2 16.4797 2.76517 16.3792 4.05139H7.62077C7.52128 2.76517 6.68743 2 5.33249 2H4.3068C2.86159 2 1.99899 2.86261 1.99899 4.30781V5.33351C1.99899 6.68845 2.76415 7.52132 4.05037 7.62081V16.3792C2.76415 16.4787 1.99899 17.3116 1.99899 18.6665V19.6922C1.99899 21.1374 2.86159 22 4.3068 22H5.33249C6.68743 22 7.52025 21.2348 7.62077 19.9486H16.3792C16.4787 21.2348 17.3126 22 18.6675 22H19.6932C21.1384 22 22.001 21.1374 22.001 19.6922V18.6665C22.001 17.3116 21.2359 16.4787 19.9496 16.3792V7.62081C21.2359 7.52132 22.001 6.68845 22.001 5.33351ZM17.8982 4.30781C17.8982 3.70368 18.0634 3.53854 18.6675 3.53854H19.6932C20.2973 3.53854 20.4625 3.70368 20.4625 4.30781V5.33351C20.4625 5.93764 20.2973 6.10278 19.6932 6.10278H18.6675C18.0634 6.10278 17.8982 5.93764 17.8982 5.33351V4.30781ZM16.3792 18.4111H7.62077C7.52743 17.211 6.79 16.4725 5.58891 16.3802V7.62182C6.78898 7.52848 7.52743 6.79102 7.62077 5.59096H16.3792C16.4725 6.79102 17.21 7.5295 18.4111 7.62182V16.3802C17.211 16.4725 16.4725 17.211 16.3792 18.4111ZM3.53853 5.33351V4.30781C3.53853 3.70368 3.70366 3.53854 4.3078 3.53854H5.33349C5.93763 3.53854 6.10276 3.70368 6.10276 4.30781V5.33351C6.10276 5.93764 5.93763 6.10278 5.33349 6.10278H4.3078C3.70366 6.10278 3.53853 5.93764 3.53853 5.33351ZM6.10276 19.6932C6.10276 20.2974 5.93763 20.4625 5.33349 20.4625H4.3078C3.70366 20.4625 3.53853 20.2974 3.53853 19.6932V18.6675C3.53853 18.0634 3.70366 17.8983 4.3078 17.8983H5.33349C5.93763 17.8983 6.10276 18.0634 6.10276 18.6675V19.6932ZM20.4625 18.6675V19.6932C20.4625 20.2974 20.2973 20.4625 19.6932 20.4625H18.6675C18.0634 20.4625 17.8982 20.2974 17.8982 19.6932V18.6675C17.8982 18.0634 18.0634 17.8983 18.6675 17.8983H19.6932C20.2973 17.8983 20.4625 18.0634 20.4625 18.6675Z" fill="#646464"/>
</svg>
