<svg width="24" height="24" viewBox="0 0 24 24" fill="none" xmlns="http://www.w3.org/2000/svg">
<path d="M20.03 8.47L14.03 2.47C13.889 2.329 13.699 2.25 13.5 2.25H7.5C5.082 2.25 3.75 3.582 3.75 6V18C3.75 20.418 5.082 21.75 7.5 21.75H16.5C18.918 21.75 20.25 20.418 20.25 18V9C20.25 8.801 20.171 8.61 20.03 8.47ZM14.25 4.811L17.689 8.25H16.5C14.923 8.25 14.25 7.577 14.25 6V4.811ZM16.5 20.25H7.5C5.923 20.25 5.25 19.577 5.25 18V6C5.25 4.423 5.923 3.75 7.5 3.75H12.75V6C12.75 8.418 14.082 9.75 16.5 9.75H18.75V18C18.75 19.577 18.077 20.25 16.5 20.25Z" fill="#646464"/>
<path fill-rule="evenodd" clip-rule="evenodd" d="M12.8014 16.5717C12.6911 16.6128 12.569 16.6087 12.4618 16.5603C12.3546 16.512 12.2711 16.4234 12.2295 16.3139L11.9915 15.6873H10.3497L10.1089 16.3153C10.0765 16.3986 10.0195 16.4701 9.94549 16.5205C9.87144 16.5709 9.78378 16.5979 9.69403 16.5979C9.64015 16.5976 9.58675 16.5878 9.53632 16.5689C9.48177 16.5483 9.43184 16.5172 9.38938 16.4774C9.34692 16.4376 9.31278 16.3898 9.28889 16.3369C9.26501 16.284 9.25185 16.2268 9.25018 16.1688C9.24851 16.1108 9.25836 16.0531 9.27915 15.9989L10.6822 12.3369C10.7209 12.2379 10.7887 12.1528 10.8768 12.0927C10.9649 12.0326 11.0691 12.0003 11.1759 12C11.2808 12.0003 11.3832 12.0317 11.4701 12.09C11.557 12.1484 11.6245 12.2311 11.664 12.3278L13.0592 16.001C13.08 16.0553 13.0898 16.1131 13.0881 16.1712C13.0864 16.2293 13.0732 16.2865 13.0493 16.3395C13.0253 16.3925 12.9911 16.4403 12.9486 16.4802C12.906 16.52 12.856 16.5511 12.8014 16.5717ZM11.6562 14.8046H10.6879L11.1738 13.5338L11.6562 14.8046Z" fill="#646464"/>
<path d="M14.75 16.1585C14.75 16.2756 14.7032 16.3879 14.62 16.4707C14.5367 16.5535 14.4238 16.6 14.306 16.6C14.1882 16.6 14.0753 16.5535 13.992 16.4707C13.9088 16.3879 13.862 16.2756 13.862 16.1585V12.4415C13.862 12.3244 13.9088 12.2121 13.992 12.1293C14.0753 12.0465 14.1882 12 14.306 12C14.4238 12 14.5367 12.0465 14.62 12.1293C14.7032 12.2121 14.75 12.3244 14.75 12.4415V16.1585Z" fill="#646464"/>
</svg>
