<svg width="24" height="24" viewBox="0 0 24 24" fill="none" xmlns="http://www.w3.org/2000/svg">
<path d="M15.7209 15.4875C18.6707 15.4875 21.0698 13.0884 21.0698 10.1386C21.0698 7.18886 18.6707 4.78979 15.7209 4.78979C15.5293 4.78979 15.3424 4.7991 15.1554 4.81863C14.8578 4.40282 14.5145 4.02144 14.1285 3.6819C12.8968 2.59725 11.3154 2 9.67442 2C5.95535 2 2.93024 5.02512 2.93024 8.74419C2.93024 12.4633 5.95535 15.4884 9.67442 15.4884H11.3023V16.9926C10.4549 17.2344 9.79251 17.8967 9.55065 18.7442H5.48838C5.10326 18.7442 4.7907 19.0567 4.7907 19.4419C4.7907 19.827 5.10326 20.1395 5.48838 20.1395H9.55065C9.8567 21.2093 10.8326 22 12 22C13.1674 22 14.1433 21.2093 14.4494 20.1395H18.5116C18.8967 20.1395 19.2093 19.827 19.2093 19.4419C19.2093 19.0567 18.8967 18.7442 18.5116 18.7442H14.4494C14.2075 17.8967 13.5451 17.2344 12.6977 16.9926V15.4884H15.7209V15.4875ZM13.1628 19.441C13.1628 20.0819 12.6409 20.6037 12 20.6037C11.3591 20.6037 10.8372 20.0819 10.8372 19.441C10.8372 18.8 11.3591 18.2782 12 18.2782C12.6409 18.2782 13.1628 18.8 13.1628 19.441ZM4.32559 8.74328C4.32559 5.79351 6.72466 3.39444 9.67442 3.39444C10.9749 3.39444 12.2297 3.86795 13.2055 4.72841C13.6036 5.08004 13.947 5.48654 14.2261 5.9377C14.3768 6.18329 14.6623 6.31074 14.9479 6.25679C15.2046 6.20842 15.4577 6.18514 15.7209 6.18514C17.9014 6.18514 19.6744 7.95816 19.6744 10.1386C19.6744 12.3191 17.9014 14.0921 15.7209 14.0921H9.67442C6.72466 14.0921 4.32559 11.693 4.32559 8.74328Z" fill="#646464"/>
</svg>
