<svg width="24" height="24" viewBox="0 0 24 24" fill="none" xmlns="http://www.w3.org/2000/svg">
<path fill-rule="evenodd" clip-rule="evenodd" d="M17.0532 3.49336L14.214 6.34379C14.0735 6.4848 13.8827 6.5642 13.6837 6.5645C13.4847 6.5648 13.2937 6.48598 13.1528 6.34539L12.5972 5.791C12.4981 5.69183 12.3798 5.61255 12.2502 5.55888C12.1206 5.50521 11.9818 5.47758 11.8415 5.47758C11.7013 5.47758 11.5624 5.50521 11.4328 5.55888C11.3033 5.61255 11.1855 5.69122 11.0864 5.7904L10.064 6.81273C10.0342 6.84251 10.0175 6.88289 10.0175 6.92499C10.0175 6.96709 10.0342 7.00747 10.064 7.03726L16.9553 13.9316C16.985 13.9612 17.0256 13.9781 17.0676 13.9781C17.1097 13.9781 17.15 13.9614 17.1798 13.9318M17.1798 13.9318L18.2022 12.9093C18.3014 12.8102 18.3802 12.6924 18.4338 12.5629C18.4875 12.4333 18.5151 12.2944 18.5151 12.1542C18.5151 12.014 18.4875 11.8752 18.4338 11.7456C18.3802 11.616 18.3015 11.4983 18.2023 11.3992L17.6473 10.8431C17.3553 10.5505 17.3551 10.0769 17.6467 9.78406L20.5369 6.88145L20.5381 6.88034C20.7679 6.6505 20.9493 6.37691 21.0715 6.07575C21.1938 5.77459 21.2544 5.45198 21.2498 5.127C21.2451 4.80202 21.1754 4.48126 21.0447 4.18369C20.914 3.88623 20.725 3.61799 20.4888 3.39481C19.5412 2.50031 18.0067 2.54041 17.0532 3.49336M15.9925 2.43268C17.4907 0.934555 19.9509 0.82434 21.5185 2.30402C21.9005 2.66498 22.2065 3.09912 22.4179 3.5803C22.6294 4.06148 22.7421 4.58018 22.7496 5.10571C22.7571 5.63124 22.6591 6.15292 22.4614 6.63991C22.2639 7.12653 21.9708 7.56864 21.5996 7.94011L21.5987 7.94097L19.2371 10.3127L19.2628 10.3384C19.5013 10.5768 19.6905 10.86 19.8196 11.1715C19.9487 11.483 20.0151 11.817 20.0151 12.1542C20.0151 12.4915 19.9487 12.8254 19.8196 13.137C19.6905 13.4485 19.5014 13.7316 19.2629 13.97L18.2404 14.9925C17.9293 15.3033 17.5074 15.4781 17.0676 15.4781C16.6278 15.4781 16.2061 15.3035 15.895 14.9926L15.4704 14.5678L9.64341 20.5516C9.08009 21.1167 8.3732 21.5175 7.59896 21.7106C6.91849 21.8804 6.20863 21.8842 5.5288 21.7236L3.49815 22.611C3.1926 22.7446 2.85386 22.783 2.52613 22.7213C2.19841 22.6595 1.8969 22.5004 1.66096 22.2647C1.46151 22.0653 1.32661 21.8101 1.27431 21.5329C1.22204 21.2559 1.2545 20.9695 1.36745 20.7112L2.30169 18.5704C2.12034 17.88 2.1099 17.1541 2.27342 16.4561C2.45989 15.6602 2.86515 14.9322 3.44345 14.3543L9.35152 8.44624L9.00307 8.09764C8.6922 7.78658 8.51752 7.36477 8.51752 6.92499C8.51752 6.48522 8.69216 6.06345 9.00303 5.75239L10.0256 4.72983C10.2641 4.49137 10.5472 4.30214 10.8588 4.17308C11.1703 4.04401 11.5043 3.97758 11.8415 3.97758C12.1788 3.97758 12.5127 4.04401 12.8243 4.17308C13.1357 4.30209 13.4186 4.49114 13.657 4.72945L13.681 4.75336L15.9915 2.43374L15.9925 2.43268ZM10.4119 9.50714L4.50391 15.4152C4.12341 15.7954 3.85656 16.2746 3.73388 16.7983C3.61119 17.322 3.63734 17.8695 3.80938 18.3792C3.86899 18.5557 3.86071 18.7482 3.78617 18.919L2.77398 21.2384C2.78362 21.2423 2.79365 21.2453 2.80396 21.2472C2.83536 21.2531 2.86781 21.2495 2.89708 21.2367L5.16951 20.2437C5.33388 20.1718 5.51854 20.1613 5.69001 20.2139C6.19192 20.3681 6.72639 20.3824 7.23582 20.2553C7.74391 20.1285 8.2079 19.8658 8.57806 19.4955L14.4099 13.5068L10.4119 9.50714Z" fill="#646464"/>
</svg>
