<svg width="24" height="24" viewBox="0 0 24 24" fill="none" xmlns="http://www.w3.org/2000/svg">
<path d="M20.8741 15.1833L18.1634 13.5668C16.8495 12.7842 15.1542 13.1648 14.3039 14.4356L13.5221 15.6018C11.3056 14.5187 9.48207 12.6909 8.39793 10.4641L9.55783 9.69281C10.8307 8.84662 11.2175 7.15322 10.439 5.83727L8.83589 3.13051C8.33639 2.2874 7.35789 1.85046 6.37836 2.04636C4.8983 2.34278 3.5946 3.25051 2.80175 4.53569C2.01197 5.81575 1.79663 7.31325 2.19049 8.75023C3.92697 15.0695 8.93437 20.0727 15.2567 21.8082C15.7244 21.9364 16.1982 22 16.669 22C17.6434 22 18.6055 21.7282 19.4681 21.1958C20.7533 20.403 21.661 19.0993 21.9564 17.6193C22.1492 16.6623 21.7142 15.6838 20.8741 15.1833ZM20.4477 17.3167C20.2354 18.3793 19.5829 19.3158 18.6598 19.8861C17.749 20.4481 16.6854 20.604 15.6638 20.324C9.86258 18.7322 5.26754 14.1402 3.67568 8.342C3.39464 7.32042 3.54955 6.25575 4.11265 5.34289C4.68293 4.41875 5.61834 3.76747 6.69839 3.55105C6.74865 3.54079 6.7999 3.53565 6.84913 3.53565C7.11786 3.53565 7.37223 3.67615 7.51172 3.91411L9.11485 6.6209C9.47692 7.23118 9.29748 8.01787 8.70668 8.41071L7.00289 9.5441C6.69621 9.74821 6.57738 10.141 6.71892 10.4805C7.99179 13.5309 10.4637 16.01 13.5028 17.2798C13.8372 17.4203 14.2329 17.3044 14.4381 16.9988L15.5817 15.291C15.9756 14.7012 16.7623 14.5227 17.3757 14.8869L20.0866 16.5034C20.3666 16.6716 20.5123 16.9977 20.4477 17.3167ZM15.5602 7.35119L17.0679 5.84343L15.5602 4.33568C15.2597 4.03515 15.2597 3.54795 15.5602 3.24742C15.8607 2.9469 16.3479 2.9469 16.6485 3.24742L18.1562 4.75518L19.6639 3.24742C19.9644 2.9469 20.4517 2.9469 20.7522 3.24742C21.0527 3.54795 21.0527 4.03515 20.7522 4.33568L19.2445 5.84343L20.7522 7.35119C21.0527 7.65171 21.0527 8.13892 20.7522 8.43944C20.6024 8.58919 20.4055 8.66509 20.2085 8.66509C20.0116 8.66509 19.8147 8.59022 19.6649 8.43944L18.1572 6.93169L16.6495 8.43944C16.4997 8.58919 16.3028 8.66509 16.1058 8.66509C15.9089 8.66509 15.7119 8.59022 15.5622 8.43944C15.2596 8.13892 15.2597 7.65069 15.5602 7.35119Z" fill="#646464"/>
</svg>
