<svg width="24" height="24" viewBox="0 0 24 24" fill="none" xmlns="http://www.w3.org/2000/svg">
<path fill-rule="evenodd" clip-rule="evenodd" d="M2.76923 2C2.3444 2 2 2.3444 2 2.76923C2 3.19407 2.3444 3.53846 2.76923 3.53846H3.79487C4.13489 3.53846 4.46099 3.67353 4.70142 3.91397C4.94185 4.1544 5.07692 4.48049 5.07692 4.82051V10.9233C4.5854 11.191 4.13021 11.5296 3.72732 11.9324C2.62134 13.0384 2 14.5385 2 16.1026C2 17.6667 2.62134 19.1667 3.72732 20.2727C4.8333 21.3787 6.33334 22 7.89744 22C9.46153 22 10.9616 21.3787 12.0676 20.2727C13.1735 19.1667 13.7949 17.6667 13.7949 16.1026C13.7949 15.6679 13.7469 15.2382 13.6539 14.8205H16.1025C16.7146 14.8205 17.3015 15.0636 17.7343 15.4964C18.0138 15.7758 18.2141 16.1196 18.321 16.4928C17.8965 16.6284 17.5061 16.8641 17.1851 17.1851C16.6561 17.714 16.359 18.4314 16.359 19.1795C16.359 19.9275 16.6561 20.6449 17.1851 21.1739C17.714 21.7028 18.4314 22 19.1795 22C19.9275 22 20.6449 21.7028 21.1739 21.1739C21.7028 20.6449 22 19.9275 22 19.1795C22 18.4314 21.7028 17.714 21.1739 17.1851C20.8155 16.8267 20.3706 16.5747 19.8883 16.4495C19.7507 15.6816 19.3814 14.9678 18.8222 14.4086C18.1009 13.6873 17.1226 13.2821 16.1025 13.2821H15.8462V8.66667H17.1282C17.553 8.66667 17.8974 8.32227 17.8974 7.89744C17.8974 7.4726 17.553 7.12821 17.1282 7.12821H6.61539V4.82051C6.61539 4.07247 6.31822 3.35506 5.78928 2.82611C5.26033 2.29716 4.54292 2 3.79487 2H2.76923ZM14.3077 8.66667H6.61539V10.3461C7.03307 10.2531 7.46278 10.2051 7.89744 10.2051C9.46153 10.2051 10.9616 10.8265 12.0676 11.9324C12.4704 12.3353 12.809 12.7905 13.0767 13.2821H14.3077V8.66667ZM4.81518 13.0203C5.63264 12.2028 6.74136 11.7436 7.89744 11.7436C9.05351 11.7436 10.1622 12.2028 10.9797 13.0203C11.7972 13.8378 12.2564 14.9465 12.2564 16.1026C12.2564 17.2586 11.7972 18.3674 10.9797 19.1848C10.1622 20.0023 9.05351 20.4615 7.89744 20.4615C6.74136 20.4615 5.63264 20.0023 4.81518 19.1848C3.99771 18.3674 3.53846 17.2586 3.53846 16.1026C3.53846 14.9465 3.99771 13.8378 4.81518 13.0203ZM18.2729 18.2729C18.5134 18.0325 18.8395 17.8974 19.1795 17.8974C19.5195 17.8974 19.8456 18.0325 20.086 18.2729C20.3265 18.5134 20.4615 18.8395 20.4615 19.1795C20.4615 19.5195 20.3265 19.8456 20.086 20.086C19.8456 20.3265 19.5195 20.4615 19.1795 20.4615C18.8395 20.4615 18.5134 20.3265 18.2729 20.086C18.0325 19.8456 17.8974 19.5195 17.8974 19.1795C17.8974 18.8395 18.0325 18.5134 18.2729 18.2729Z" fill="#646464"/>
</svg>
