<svg width="24" height="24" viewBox="0 0 24 24" fill="none" xmlns="http://www.w3.org/2000/svg">
<path d="M16.18 22.7481C15.85 22.7481 15.55 22.5281 15.46 22.1881C15.35 21.7881 15.59 21.3781 15.99 21.2681L17.42 20.8881L16.43 17.1881C16.19 17.1981 15.94 17.1981 15.69 17.1581C15.19 17.0881 14.72 16.9281 14.29 16.6781C13.86 16.4281 13.48 16.0981 13.18 15.6981C12.88 15.2981 12.66 14.8481 12.53 14.3681C12.36 13.7481 12.23 13.1281 12.11 12.5181C11.98 12.8481 11.81 13.1481 11.6 13.4181C11.29 13.8181 10.92 14.1481 10.49 14.3981C10.06 14.6481 9.58 14.8081 9.09 14.8781C8.85 14.9081 8.6 14.9181 8.36 14.9081L7.37 18.6081L8.8 18.9881C9.2 19.0981 9.44 19.5081 9.33 19.9081C9.22 20.3081 8.81 20.5481 8.41 20.4381L3.85 19.2181C3.45 19.1081 3.21 18.6981 3.32 18.2981C3.43 17.8981 3.84 17.6581 4.24 17.7681L5.93 18.2181L6.92 14.5181C6.7 14.4081 6.49 14.2781 6.3 14.1281C5.9 13.8181 5.57 13.4481 5.32 13.0081C5.07 12.5781 4.91 12.0981 4.85 11.6081C4.75 11.1181 4.79 10.6181 4.92 10.1381C6.12 5.67807 8.6 1.75807 8.71 1.59807C8.88 1.32807 9.21 1.19807 9.52 1.27807L12.56 2.03807C12.88 2.11807 13.11 2.39807 13.13 2.72807C13.13 2.78807 13.15 3.28807 13.15 4.07807L15.24 3.55807C15.55 3.47807 15.88 3.60807 16.05 3.87807C16.16 4.03807 18.64 7.95807 19.84 12.4181C19.97 12.8981 20.01 13.3981 19.94 13.8981C19.87 14.3981 19.72 14.8681 19.47 15.3081C19.22 15.7481 18.89 16.1181 18.49 16.4281C18.29 16.5781 18.09 16.7081 17.87 16.8181L18.86 20.5181L20.55 20.0681C20.96 19.9581 21.36 20.1981 21.47 20.5981C21.58 20.9981 21.34 21.4081 20.94 21.5181L16.38 22.7381C16.31 22.7381 16.24 22.7481 16.18 22.7481ZM13.22 9.58807C13.34 10.9581 13.56 12.4981 13.96 13.9881C14.04 14.2881 14.17 14.5581 14.35 14.7981C14.53 15.0381 14.76 15.2381 15.02 15.3881C15.28 15.5381 15.57 15.6381 15.87 15.6781C16.13 15.7081 16.4 15.6981 16.65 15.6481C16.68 15.6381 16.72 15.6181 16.76 15.6081C16.8 15.5981 16.83 15.5881 16.87 15.5881C17.12 15.5081 17.35 15.3881 17.56 15.2181C17.8 15.0381 18 14.8081 18.15 14.5481C18.3 14.2881 18.4 13.9981 18.44 13.6981C18.48 13.3981 18.46 13.0981 18.38 12.8081C17.99 11.3381 17.43 9.90807 16.88 8.66807L13.22 9.58807ZM8.1 13.3681C8.36 13.4281 8.62 13.4381 8.88 13.3981C9.18 13.3581 9.46 13.2581 9.73 13.1081C9.99 12.9581 10.22 12.7581 10.4 12.5181C10.58 12.2781 10.72 12.0081 10.79 11.7181C11.14 10.2881 11.35 8.81807 11.47 7.48807L7.79 6.56807C7.27 7.75807 6.75 9.11807 6.37 10.5281C6.29 10.8281 6.27 11.1281 6.31 11.4281C6.35 11.7281 6.45 12.0181 6.6 12.2781C6.75 12.5381 6.95 12.7681 7.19 12.9481C7.4 13.1081 7.63 13.2281 7.88 13.3081C7.92 13.3081 7.95 13.3181 7.99 13.3281C8.03 13.3381 8.06 13.3481 8.1 13.3681ZM13.1 5.79807C13.09 6.32807 13.08 7.11807 13.13 8.06807L16.24 7.28807C15.76 6.33807 15.34 5.58807 15.07 5.13807L13.11 5.62807C13.11 5.68807 13.1 5.74807 13.1 5.79807ZM8.44 5.17807L11.59 5.96807C11.6 5.86807 11.6 5.76807 11.61 5.66807C11.62 5.41807 11.63 5.23807 11.63 5.11807C11.65 4.36807 11.65 3.75807 11.64 3.34807L9.69 2.85807C9.41 3.33807 8.95 4.14807 8.44 5.17807ZM21.5 7.30807H19.98C19.57 7.30807 19.23 6.96807 19.23 6.55807C19.23 6.14807 19.57 5.80807 19.98 5.80807H21.5C21.91 5.80807 22.25 6.14807 22.25 6.55807C22.25 6.96807 21.91 7.30807 21.5 7.30807ZM4.02 6.54807H2.5C2.09 6.54807 1.75 6.20807 1.75 5.79807C1.75 5.38807 2.09 5.04807 2.5 5.04807H4.02C4.43 5.04807 4.77 5.38807 4.77 5.79807C4.77 6.20807 4.43 6.54807 4.02 6.54807ZM18.46 4.26807C18.18 4.26807 17.92 4.11807 17.79 3.85807C17.6 3.48807 17.75 3.03807 18.13 2.84807L19.65 2.08807C20.02 1.89807 20.47 2.05807 20.66 2.42807C20.85 2.79807 20.7 3.24807 20.32 3.43807L18.8 4.19807C18.69 4.24807 18.57 4.26807 18.46 4.26807ZM5.54 3.50807C5.43 3.50807 5.31 3.47807 5.21 3.42807L3.68 2.66807C3.31 2.48807 3.16 2.03807 3.35 1.65807C3.53 1.28807 3.98 1.14807 4.36 1.32807L5.88 2.08807C6.25 2.26807 6.4 2.71807 6.21 3.09807C6.08 3.35807 5.81 3.50807 5.54 3.50807Z" fill="#646464"/>
</svg>
