<svg width="24" height="24" viewBox="0 0 24 24" fill="none" xmlns="http://www.w3.org/2000/svg">
<path fill-rule="evenodd" clip-rule="evenodd" d="M18.0662 3.00514C18.0956 3.00172 18.1253 2.99999 18.1552 3C18.9338 3.00031 19.6941 3.23762 20.3354 3.68054C20.9767 4.12346 21.4688 4.75114 21.7467 5.48058C22.0246 6.21002 22.0752 7.00687 21.8918 7.76576C21.7366 8.40754 21.4203 8.99661 20.9755 9.47818V18.1714C20.9755 18.9216 20.6783 19.6411 20.1494 20.1715C19.6204 20.702 18.9029 21 18.1549 21H5.84648C5.09839 21 4.38094 20.702 3.85196 20.1715C3.32298 19.6411 3.02581 18.9216 3.02581 18.1714V9.47945C2.59352 9.01191 2.28222 8.44266 2.12226 7.82172C1.93222 7.08404 1.96431 6.30644 2.21446 5.58702C2.46462 4.8676 2.92163 4.23858 3.52787 3.77933C4.1341 3.32007 4.86238 3.05114 5.62085 3.00647C5.63587 3.00559 5.65091 3.00514 5.66595 3.00514H18.0662ZM18.2318 4.54419C18.2065 4.54671 18.1808 4.548 18.1549 4.548H5.69015C5.2426 4.57845 4.81343 4.73906 4.45527 5.01039C4.09153 5.28594 3.81732 5.66335 3.66722 6.095C3.51713 6.52665 3.49788 6.99321 3.6119 7.43583C3.72592 7.87844 3.96811 8.27727 4.3079 8.58202C4.47108 8.72836 4.56435 8.9375 4.56435 9.15703V18.1714C4.56435 18.5124 4.69943 18.8394 4.93988 19.0806C5.18032 19.3217 5.50644 19.4571 5.84648 19.4571H18.1549C18.4949 19.4571 18.821 19.3217 19.0615 19.0806C19.3019 18.8394 19.437 18.5124 19.437 18.1714V9.156C19.437 8.93662 19.5301 8.72762 19.6931 8.58129C20.0412 8.26875 20.2864 7.85764 20.3965 7.40231C20.5066 6.94698 20.4762 6.46887 20.3095 6.03121C20.1427 5.59354 19.8475 5.21693 19.4627 4.95118C19.0992 4.7001 18.6719 4.55915 18.2318 4.54419Z" fill="#646464"/>
</svg>
