<svg width="24" height="24" viewBox="0 0 24 24" fill="none" xmlns="http://www.w3.org/2000/svg">
<path d="M14.7107 7.69767L7.33862 11.1665C6.8828 11.3805 6.61489 11.8447 6.65582 12.3461C6.69582 12.8484 7.03537 13.2613 7.52002 13.3999L9.29487 13.907C9.6837 14.0187 9.98234 14.3162 10.093 14.7051L10.6 16.4799C10.7386 16.9646 11.1525 17.3034 11.6539 17.3443C11.6874 17.3471 11.7209 17.3479 11.7535 17.3479C12.2167 17.3479 12.6326 17.0856 12.8335 16.6605L16.3023 9.28924C16.52 8.82599 16.427 8.29389 16.066 7.93296C15.7051 7.57203 15.173 7.48 14.7107 7.69767ZM11.7963 15.5888L11.4344 14.3219C11.1898 13.4661 10.533 12.8092 9.6772 12.5646L8.41022 12.2028L14.8047 9.19431L11.7963 15.5888ZM12 2C6.48558 2 2 6.48558 2 12C2 17.5144 6.48558 22 12 22C17.5144 22 22 17.5144 22 12C22 6.48558 17.5144 2 12 2ZM12 20.6047C7.25488 20.6047 3.39535 16.7451 3.39535 12C3.39535 7.25488 7.25488 3.39535 12 3.39535C16.7451 3.39535 20.6047 7.25488 20.6047 12C20.6047 16.7451 16.7451 20.6047 12 20.6047Z" fill="#646464"/>
</svg>
