<svg width="24" height="24" viewBox="0 0 24 24" fill="none" xmlns="http://www.w3.org/2000/svg">
<path d="M2.76923 5.58974H7.12821V6.8718C7.12821 7.29641 7.47282 7.64103 7.89744 7.64103C8.32205 7.64103 8.66667 7.29641 8.66667 6.8718V2.76923C8.66667 2.34462 8.32205 2 7.89744 2C7.47282 2 7.12821 2.34462 7.12821 2.76923V4.05128H2.76923C2.34462 4.05128 2 4.3959 2 4.82051C2 5.24513 2.34462 5.58974 2.76923 5.58974ZM12 5.58974H21.2308C21.6554 5.58974 22 5.24513 22 4.82051C22 4.3959 21.6554 4.05128 21.2308 4.05128H12C11.5754 4.05128 11.2308 4.3959 11.2308 4.82051C11.2308 5.24513 11.5754 5.58974 12 5.58974ZM2.76923 12.7692H12C12.4246 12.7692 12.7692 12.4246 12.7692 12C12.7692 11.5754 12.4246 11.2308 12 11.2308H2.76923C2.34462 11.2308 2 11.5754 2 12C2 12.4246 2.34462 12.7692 2.76923 12.7692ZM21.2308 11.2308H16.8718V9.94872C16.8718 9.5241 16.5272 9.17949 16.1026 9.17949C15.6779 9.17949 15.3333 9.5241 15.3333 9.94872V14.0513C15.3333 14.4759 15.6779 14.8205 16.1026 14.8205C16.5272 14.8205 16.8718 14.4759 16.8718 14.0513V12.7692H21.2308C21.6554 12.7692 22 12.4246 22 12C22 11.5754 21.6554 11.2308 21.2308 11.2308ZM7.89744 16.359C7.47282 16.359 7.12821 16.7036 7.12821 17.1282V18.4103H2.76923C2.34462 18.4103 2 18.7549 2 19.1795C2 19.6041 2.34462 19.9487 2.76923 19.9487H7.12821V21.2308C7.12821 21.6554 7.47282 22 7.89744 22C8.32205 22 8.66667 21.6554 8.66667 21.2308V17.1282C8.66667 16.7036 8.32205 16.359 7.89744 16.359ZM21.2308 18.4103H12C11.5754 18.4103 11.2308 18.7549 11.2308 19.1795C11.2308 19.6041 11.5754 19.9487 12 19.9487H21.2308C21.6554 19.9487 22 19.6041 22 19.1795C22 18.7549 21.6554 18.4103 21.2308 18.4103Z" fill="#646464"/>
</svg>
