<svg width="24" height="24" viewBox="0 0 24 24" fill="none" xmlns="http://www.w3.org/2000/svg">
<path d="M20.7 19.7499H3.28999C2.96999 19.7499 2.65999 19.6499 2.40999 19.4599C2.14999 19.2699 1.95999 19.0099 1.85999 18.7099C1.43999 17.5299 1.23999 16.2899 1.24999 15.0299C1.26999 12.1199 2.42999 9.38995 4.50999 7.33995C6.55999 5.31995 9.24999 4.20995 12.1 4.24995C13.76 4.25995 15.42 4.66995 16.9 5.43995C17.27 5.62995 17.41 6.07995 17.22 6.44995C17.03 6.81995 16.58 6.95995 16.21 6.76995C14.94 6.10995 13.51 5.75995 12.09 5.74995C9.66999 5.72995 7.32999 6.66995 5.55999 8.40995C3.76999 10.1799 2.76999 12.5299 2.74999 15.0399C2.73999 16.1299 2.91999 17.1999 3.26999 18.2299L20.7 18.2499C21.14 17.0199 21.31 15.7599 21.22 14.4899C21.14 13.2099 20.8 11.9899 20.23 10.8499C20.04 10.4799 20.19 10.0299 20.56 9.83995C20.93 9.64995 21.38 9.79995 21.57 10.1699C22.24 11.4899 22.62 12.9099 22.72 14.3899C22.82 15.8699 22.62 17.3299 22.14 18.7299C22.04 19.0299 21.85 19.2799 21.59 19.4699C21.33 19.6499 21.02 19.7499 20.7 19.7499ZM5.03999 16.7499C4.65999 16.7499 4.32999 16.4599 4.28999 16.0799C4.26999 15.7899 4.24999 15.4899 4.24999 15.1999C4.24999 13.9499 4.53999 12.6999 5.07999 11.5899C5.61999 10.4699 6.41999 9.48995 7.38999 8.75995C8.35999 8.01995 9.49999 7.52995 10.69 7.33995C11.88 7.14995 13.11 7.26995 14.25 7.66995C14.64 7.80995 14.84 8.23995 14.71 8.62995C14.58 9.01995 14.14 9.22995 13.75 9.08995C12.85 8.76995 11.87 8.67995 10.93 8.82995C9.97999 8.96995 9.06999 9.35995 8.29999 9.94995C7.51999 10.5399 6.86999 11.3399 6.42999 12.2399C5.98999 13.1499 5.74999 14.1799 5.74999 15.1999C5.74999 15.4399 5.75999 15.6799 5.78999 15.9199C5.82999 16.3299 5.52999 16.6999 5.11999 16.7399C5.08999 16.7499 5.06999 16.7499 5.03999 16.7499ZM11 16.7499C10.81 16.7499 10.62 16.6799 10.47 16.5299C10.18 16.2399 10.18 15.7599 10.47 15.4699L19.47 6.46995C19.76 6.17995 20.24 6.17995 20.53 6.46995C20.82 6.75995 20.82 7.23995 20.53 7.52995L11.53 16.5299C11.38 16.6799 11.19 16.7499 11 16.7499Z" fill="#646464"/>
</svg>
