<svg width="24" height="24" viewBox="0 0 24 24" fill="none" xmlns="http://www.w3.org/2000/svg">
<path d="M17.294 6.39744H15.483C15.077 6.39744 14.7475 6.72482 14.7475 7.1282C14.7475 7.53159 15.077 7.85897 15.483 7.85897H19.4053C19.8112 7.85897 20.1407 7.53159 20.1407 7.1282V3.23077C20.1407 2.82738 19.8112 2.5 19.4053 2.5C18.9993 2.5 18.6698 2.82738 18.6698 3.23077V5.70948C16.8744 3.68282 14.2917 2.5 11.5353 2.5C6.2774 2.5 2 6.76185 2 12C2 17.2382 6.27839 21.5 11.5353 21.5C12.6162 21.5 13.6634 21.323 14.6438 20.9893C15.02 20.8613 15.1929 20.4388 15.0447 20.0701C14.8914 19.6887 14.4543 19.5122 14.0635 19.6396C13.2631 19.9004 12.4117 20.0385 11.5341 20.0385C7.08715 20.0385 3.46991 16.4324 3.46991 12C3.46991 7.56764 7.08813 3.96154 11.5341 3.96154C13.7316 3.96154 15.7918 4.85892 17.294 6.39744Z" fill="#646464"/>
<path d="M11.6343 7.35571C12.0595 7.35571 12.4045 7.70033 12.4045 8.12494V12.2275C12.4045 12.4316 12.3234 12.6275 12.1786 12.7711L10.1246 14.8224C9.97464 14.9722 9.77742 15.048 9.58023 15.048C9.38304 15.048 9.18583 14.9732 9.03588 14.8224C8.73496 14.5219 8.73496 14.0347 9.03588 13.7342L10.864 11.9085V8.12494C10.864 7.70033 11.2091 7.35571 11.6343 7.35571Z" fill="#646464"/>
<path d="M20.1547 11.5743C19.6653 11.5743 19.196 11.7677 18.8499 12.112C18.5039 12.4564 18.3094 12.9234 18.3094 13.4103V15.2463C18.3094 15.7332 18.5039 16.2002 18.8499 16.5446C19.196 16.8889 19.6653 17.0823 20.1547 17.0823C20.6441 17.0823 21.1134 16.8889 21.4595 16.5446C21.8055 16.2002 22 15.7332 22 15.2463V13.4103C22 12.9234 21.8055 12.4564 21.4595 12.112C21.1134 11.7677 20.6441 11.5743 20.1547 11.5743ZM20.7698 15.2463C20.7698 15.4086 20.705 15.5643 20.5896 15.6791C20.4743 15.7938 20.3178 15.8583 20.1547 15.8583C19.9916 15.8583 19.8351 15.7938 19.7198 15.6791C19.6044 15.5643 19.5396 15.4086 19.5396 15.2463V13.4103C19.5396 13.248 19.6044 13.0923 19.7198 12.9775C19.8351 12.8628 19.9916 12.7983 20.1547 12.7983C20.3178 12.7983 20.4743 12.8628 20.5896 12.9775C20.705 13.0923 20.7698 13.248 20.7698 13.4103V15.2463Z" fill="#646464"/>
<path d="M16.6998 11.6205C16.5874 11.5742 16.4637 11.5621 16.3444 11.5857C16.225 11.6093 16.1154 11.6677 16.0294 11.7533L14.1841 13.5893C14.0721 13.7047 14.0101 13.8593 14.0115 14.0198C14.0129 14.1803 14.0776 14.3338 14.1916 14.4472C14.3057 14.5607 14.4599 14.6251 14.6212 14.6265C14.7825 14.6279 14.9379 14.5662 15.0539 14.4547L15.8492 13.6634V16.47C15.8492 16.6324 15.914 16.788 16.0293 16.9028C16.1447 17.0176 16.3011 17.082 16.4643 17.082C16.6274 17.082 16.7838 17.0176 16.8992 16.9028C17.0145 16.788 17.0793 16.6324 17.0793 16.47V12.186C17.0794 12.065 17.0433 11.9466 16.9758 11.846C16.9082 11.7453 16.8122 11.6669 16.6998 11.6205Z" fill="#646464"/>
</svg>
