<svg width="24" height="24" viewBox="0 0 24 24" fill="none" xmlns="http://www.w3.org/2000/svg">
<path d="M21.41 9.54715C20.9525 8.91128 19.9977 8.15442 18.0542 8.15442H14.8174V5.60376C14.8174 4.3156 14.1774 3.11976 13.1056 2.40389C12.4934 1.99571 11.7406 1.89106 11.0412 2.1167C10.3397 2.34233 9.78986 2.86642 9.52218 3.58536L7.33978 10.2056H4.30805C3.03631 10.2056 2.00046 11.2404 2.00046 12.5132V19.6924C2.00046 20.9652 3.03631 22 4.30805 22H16.004C18.5639 22 19.1906 20.7559 19.6531 19.3703L21.7033 13.2167C22.1822 11.7768 22.0776 10.4733 21.41 9.54715ZM3.53785 19.6924V12.5132C3.53785 12.0886 3.88348 11.744 4.30705 11.744H6.35825V20.4616H4.30705C3.88348 20.4616 3.53785 20.117 3.53785 19.6924ZM20.2418 12.7296L18.1916 18.8832C17.8275 19.9775 17.5989 20.4616 16.003 20.4616H7.89665V11.744C8.22894 11.744 8.52232 11.5307 8.62591 11.2158L10.9714 4.09716C11.0648 3.84999 11.2606 3.66231 11.5119 3.58129C11.7632 3.49924 12.0318 3.53819 12.2513 3.68383C12.8944 4.11253 13.2779 4.83046 13.2779 5.60376V8.92362C13.2779 9.34822 13.6225 9.69282 14.0471 9.69282H18.0531C18.7669 9.69282 19.7126 9.82305 20.1618 10.4466C20.5269 10.9533 20.5577 11.7861 20.2418 12.7296Z" fill="#646464"/>
</svg>
