<svg width="24" height="24" viewBox="0 0 24 24" fill="none" xmlns="http://www.w3.org/2000/svg">
<path d="M20.4443 4.79835C15.899 3.88179 14.3233 3.08172 12.3286 2.06745C12.1338 1.96975 11.8754 1.98176 11.6807 2.0804C9.65912 3.09094 8.06125 3.89016 3.55664 4.79835C3.23264 4.86349 3 5.15019 3 5.48238V10.9621C3 18.624 10.3144 21.4705 11.7812 21.9637C11.8523 21.9878 11.9262 22 12 22C12.0738 22 12.1477 21.9878 12.2188 21.9637C13.6856 21.4705 21 18.624 21 10.9621V5.48238C21.0009 5.15019 20.7683 4.86256 20.4443 4.79835ZM19.6163 10.9621C19.6163 17.3501 13.692 19.9511 12.0009 20.5624C10.3098 19.9511 4.38552 17.3492 4.38552 10.9621V6.05282C8.43321 5.20047 10.0974 4.42728 12.0146 3.47163C13.8193 4.38447 15.5354 5.19209 19.6163 6.05282V10.9621ZM11.9899 8.50657C12.372 8.50657 12.6822 8.81922 12.6822 9.20446V11.2981H14.7591C15.1412 11.2981 15.4514 11.6108 15.4514 11.996C15.4514 12.3812 15.1412 12.6939 14.7591 12.6939H12.6822V14.7876C12.6822 15.1728 12.372 15.4855 11.9899 15.4855C11.6077 15.4855 11.2975 15.1728 11.2975 14.7876V12.6939H9.22063C8.83847 12.6939 8.52832 12.3812 8.52832 11.996C8.52832 11.6108 8.83847 11.2981 9.22063 11.2981H11.2975V9.20446C11.2975 8.81922 11.6077 8.50657 11.9899 8.50657Z" fill="#646464"/>
</svg>
