<svg width="24" height="24" viewBox="0 0 24 24" fill="none" xmlns="http://www.w3.org/2000/svg">
<path fill-rule="evenodd" clip-rule="evenodd" d="M9.05769 4C9.05769 3.58579 9.39348 3.25 9.80769 3.25H14.1923C14.6065 3.25 14.9423 3.58579 14.9423 4C14.9423 4.41421 14.6065 4.75 14.1923 4.75H12.75V6.19099C14.805 6.36616 16.7425 7.25706 18.2131 8.72064C19.8617 10.3613 20.7885 12.5873 20.7885 14.9091V16.3409H21.5C21.9142 16.3409 22.25 16.6767 22.25 17.0909C22.25 17.5051 21.9142 17.8409 21.5 17.8409H2.5C2.08579 17.8409 1.75 17.5051 1.75 17.0909C1.75 16.6767 2.08579 16.3409 2.5 16.3409H3.21154V14.9091C3.21154 12.5873 4.13834 10.3613 5.78689 8.72064C7.2575 7.25706 9.19495 6.36616 11.25 6.19099V4.75H9.80769C9.39348 4.75 9.05769 4.41421 9.05769 4ZM4.71154 16.3409H19.2885V14.9091C19.2885 12.9874 18.5215 11.1438 17.155 9.78384C15.7884 8.4238 13.9342 7.65909 12 7.65909C10.0658 7.65909 8.21158 8.4238 6.84501 9.78384C5.47855 11.1438 4.71154 12.9874 4.71154 14.9091V16.3409ZM1.75 20C1.75 19.5858 2.08579 19.25 2.5 19.25H21.5C21.9142 19.25 22.25 19.5858 22.25 20C22.25 20.4142 21.9142 20.75 21.5 20.75H2.5C2.08579 20.75 1.75 20.4142 1.75 20Z" fill="#646464"/>
</svg>
