<svg width="24" height="24" viewBox="0 0 24 24" fill="none" xmlns="http://www.w3.org/2000/svg">
<path fill-rule="evenodd" clip-rule="evenodd" d="M11.9994 2C11.7312 2 11.4671 2.06632 11.2307 2.19306C10.9943 2.31979 10.7929 2.50301 10.6444 2.72641C10.6401 2.73291 10.6359 2.73949 10.6318 2.74614L2.69258 15.6088C2.56916 15.7985 2.48651 16.0118 2.44992 16.2353C2.41266 16.4628 2.42403 16.6957 2.48327 16.9185C2.5425 17.1413 2.64827 17.3491 2.79361 17.5281C2.93894 17.7071 3.12055 17.8533 3.32646 17.957L3.32787 17.9578L10.8548 21.7287C11.2068 21.9053 11.5948 21.9982 11.9886 21.9999C11.9925 22 11.9964 22 12.0004 22M11.3027 4.31581V20.3924L3.95387 16.7107C3.92412 16.6956 3.89789 16.6745 3.87687 16.6486C3.85575 16.6226 3.84038 16.5924 3.83178 16.56C3.82317 16.5276 3.82152 16.4938 3.82693 16.4607C3.83235 16.4277 3.8447 16.3961 3.86319 16.3682C3.86722 16.3621 3.87116 16.3559 3.875 16.3497L11.3027 4.31581Z" fill="#646464"/>
<path fill-rule="evenodd" clip-rule="evenodd" d="M12.0125 21.9999C12.4058 21.998 12.7934 21.9052 13.145 21.7287L20.6724 17.9575C21.5439 17.5201 21.8371 16.4213 21.3059 15.6082L13.3671 2.74614C13.363 2.73949 13.3588 2.73291 13.3544 2.72641C13.206 2.50301 13.0046 2.31979 12.7682 2.19306C12.5318 2.06632 12.2677 2 11.9994 2M12.698 20.3919V4.3188L20.1239 16.3497C20.128 16.3564 20.1322 16.363 20.1365 16.3695C20.2149 16.4873 20.1717 16.6474 20.0465 16.7104L12.698 20.3919Z" fill="#646464"/>
</svg>
