<svg width="24" height="24" viewBox="0 0 24 24" fill="none" xmlns="http://www.w3.org/2000/svg">
<path fill-rule="evenodd" clip-rule="evenodd" d="M11.25 3.78363C7.04513 4.16255 3.75 7.69647 3.75 12C3.75 13.0518 3.94647 14.0563 4.30436 14.9799L11.25 11.5348V3.78363ZM12.75 3.78363V10.7908L15.6883 9.33339L18.9653 7.57656C17.6269 5.47368 15.3638 4.01914 12.75 3.78363ZM19.6522 8.91027L16.3866 10.661C16.3796 10.6647 16.3726 10.6684 16.3655 10.6719L4.9719 16.3231C6.42518 18.6806 9.02989 20.25 12 20.25C16.5563 20.25 20.25 16.5563 20.25 12C20.25 10.9064 20.0376 9.86389 19.6522 8.91027ZM2.25 12C2.25 6.61522 6.61522 2.25 12 2.25C15.7742 2.25 19.0463 4.39471 20.6662 7.52839C21.3591 8.86858 21.75 10.3897 21.75 12C21.75 17.3848 17.3848 21.75 12 21.75C8.1707 21.75 4.85841 19.5423 3.26388 16.3338C2.61468 15.0274 2.25 13.5552 2.25 12Z" fill="#646464"/>
</svg>
