<svg width="24" height="24" viewBox="0 0 24 24" fill="none" xmlns="http://www.w3.org/2000/svg">
<path d="M18.2271 21.5H5.77481C4.43701 21.5 3.22687 20.8178 2.53937 19.6759C1.85373 18.5358 1.8201 17.1558 2.44806 15.9833L8.5937 4.53184C9.27562 3.25924 10.5503 2.5 11.9997 2.5C13.4491 2.5 14.7236 3.25924 15.4055 4.53184L21.5511 15.9833C22.18 17.1558 22.1466 18.5358 21.4601 19.6759C20.7763 20.8178 19.5658 21.5 18.2271 21.5ZM12.0015 3.88941C11.0749 3.88941 10.2617 4.37409 9.82541 5.18603L3.67978 16.6375C3.2844 17.3744 3.3058 18.243 3.73747 18.9595C4.171 19.6787 4.93215 20.1088 5.77595 20.1088H18.2282C19.072 20.1088 19.8339 19.6797 20.2665 18.9595C20.6982 18.243 20.7186 17.3744 20.3242 16.6375L14.1786 5.18603C13.7413 4.37409 12.9281 3.88941 12.0015 3.88941Z" fill="#646464"/>
</svg>
