<svg width="24" height="24" viewBox="0 0 24 24" fill="none" xmlns="http://www.w3.org/2000/svg">
<path fill-rule="evenodd" clip-rule="evenodd" d="M8.53846 4.25C7.89324 4.25 7.36538 4.77579 7.36538 5.43032C7.36538 6.08484 7.89324 6.61063 8.53846 6.61063C9.18368 6.61063 9.71154 6.08484 9.71154 5.43032C9.71154 4.77579 9.18368 4.25 8.53846 4.25ZM5.86538 5.43032C5.86538 3.95268 7.05951 2.75 8.53846 2.75C10.0174 2.75 11.2115 3.95268 11.2115 5.43032C11.2115 6.90795 10.0174 8.11063 8.53846 8.11063C7.05951 8.11063 5.86538 6.90795 5.86538 5.43032ZM15.4615 4.25C14.8163 4.25 14.2885 4.77579 14.2885 5.43032C14.2885 6.08484 14.8163 6.61063 15.4615 6.61063C16.1068 6.61063 16.6346 6.08484 16.6346 5.43032C16.6346 4.77579 16.1068 4.25 15.4615 4.25ZM12.7885 5.43032C12.7885 3.95268 13.9826 2.75 15.4615 2.75C16.9405 2.75 18.1346 3.95268 18.1346 5.43032C18.1346 6.90795 16.9405 8.11063 15.4615 8.11063C13.9826 8.11063 12.7885 6.90795 12.7885 5.43032ZM3.92308 8.88276C3.27786 8.88276 2.75 9.40854 2.75 10.0631C2.75 10.7176 3.27786 11.2434 3.92308 11.2434C4.5683 11.2434 5.09615 10.7176 5.09615 10.0631C5.09615 9.40854 4.5683 8.88276 3.92308 8.88276ZM1.25 10.0631C1.25 8.58543 2.44412 7.38276 3.92308 7.38276C5.40203 7.38276 6.59615 8.58543 6.59615 10.0631C6.59615 11.5407 5.40203 12.7434 3.92308 12.7434C2.44412 12.7434 1.25 11.5407 1.25 10.0631ZM20.0769 8.88276C19.4317 8.88276 18.9038 9.40854 18.9038 10.0631C18.9038 10.7176 19.4317 11.2434 20.0769 11.2434C20.7221 11.2434 21.25 10.7176 21.25 10.0631C21.25 9.40854 20.7221 8.88276 20.0769 8.88276ZM17.4038 10.0631C17.4038 8.58543 18.598 7.38276 20.0769 7.38276C21.5559 7.38276 22.75 8.58543 22.75 10.0631C22.75 11.5407 21.5559 12.7434 20.0769 12.7434C18.598 12.7434 17.4038 11.5407 17.4038 10.0631ZM9.46875 9.77614C10.1981 9.2255 11.0864 8.92735 11.9997 8.92701H12.0003C12.9136 8.92735 13.8019 9.2255 14.5312 9.77614C15.2605 10.3266 15.7913 11.0996 16.0446 11.9784C16.2965 12.8507 16.881 13.5872 17.6699 14.0284C18.5384 14.4953 19.1935 15.28 19.4994 16.2186C19.8061 17.1595 19.7386 18.1829 19.3108 19.0751C18.883 19.9674 18.1277 20.6599 17.202 21.007C16.2786 21.3532 15.2577 21.3286 14.3521 20.9386C12.8439 20.3197 11.1542 20.3197 9.64601 20.9386C8.74037 21.3286 7.71947 21.3532 6.79605 21.007C5.87039 20.6599 5.11507 19.9674 4.68727 19.0751C4.2595 18.1829 4.19198 17.1595 4.49866 16.2186C4.80462 15.28 5.4597 14.4952 6.3283 14.0283C7.11768 13.5872 7.70276 12.8509 7.9554 11.9784C8.20865 11.0996 8.73953 10.3266 9.46875 9.77614ZM12 10.427C11.4132 10.4273 10.8421 10.6188 10.3725 10.9733C9.90287 11.3279 9.56019 11.8263 9.39665 12.394L9.3964 12.3949C9.03368 13.6482 8.19178 14.7077 7.05327 15.3415L7.04241 15.3475L7.04236 15.3474C6.51271 15.6309 6.11196 16.1094 5.92481 16.6835C5.73764 17.2577 5.77892 17.8824 6.03984 18.4266C6.30072 18.9707 6.76065 19.3917 7.32269 19.6025C7.88465 19.8132 8.5059 19.7977 9.05681 19.5592L9.06932 19.5537L9.06937 19.5539C10.9466 18.7813 13.0515 18.7813 14.9287 19.5539L14.9413 19.559L14.9413 19.5592C15.4922 19.7977 16.1134 19.8132 16.6754 19.6025C17.2374 19.3917 17.6974 18.9707 17.9582 18.4266C18.2192 17.8824 18.2604 17.2577 18.0733 16.6835C17.8861 16.1094 17.4854 15.6309 16.9557 15.3474L16.9445 15.3414L16.9446 15.3413C15.8066 14.7073 14.9654 13.6477 14.6035 12.3945L14.6033 12.394C14.4398 11.8263 14.0971 11.3279 13.6275 10.9733C13.1579 10.6188 12.5868 10.4273 12 10.427Z" fill="#646464"/>
</svg>
