<svg width="24" height="24" viewBox="0 0 24 24" fill="none" xmlns="http://www.w3.org/2000/svg">
<path d="M12.75 19C12.75 19.414 12.414 19.75 12 19.75H5C2.582 19.75 1.25 18.418 1.25 16V7C1.25 4.582 2.582 3.25 5 3.25H17C19.418 3.25 20.75 4.582 20.75 7V11C20.75 11.414 20.414 11.75 20 11.75C19.586 11.75 19.25 11.414 19.25 11V7C19.25 5.423 18.577 4.75 17 4.75H5C3.423 4.75 2.75 5.423 2.75 7V16C2.75 17.577 3.423 18.25 5 18.25H12C12.414 18.25 12.75 18.586 12.75 19ZM16.0591 7.394L11.147 10.966C11.059 11.029 10.942 11.029 10.854 10.966L5.94189 7.394C5.60489 7.149 5.13704 7.22601 4.89404 7.55901C4.65004 7.89401 4.72408 8.36399 5.05908 8.60699L9.97095 12.179C10.2789 12.403 10.64 12.515 11 12.515C11.36 12.515 11.7221 12.403 12.0291 12.179L16.9409 8.60699C17.2759 8.36399 17.35 7.89401 17.106 7.55901C16.863 7.22501 16.3961 7.148 16.0591 7.394Z" fill="#646464"/>
<path d="M22.53 16.53L20.53 18.53C20.384 18.676 20.192 18.75 20 18.75C19.808 18.75 19.616 18.677 19.47 18.53C19.177 18.237 19.177 17.762 19.47 17.469L20.1899 16.749H13C12.586 16.749 12.25 16.413 12.25 15.999C12.25 15.585 12.586 15.249 13 15.249H20.189L19.469 14.529C19.176 14.236 19.176 13.761 19.469 13.468C19.762 13.175 20.237 13.175 20.53 13.468L22.53 15.468C22.599 15.537 22.6539 15.62 22.6919 15.712C22.7679 15.895 22.7679 16.102 22.6919 16.285C22.6539 16.378 22.599 16.461 22.53 16.53Z" fill="#646464"/>
</svg>
