<svg width="24" height="24" viewBox="0 0 24 24" fill="none" xmlns="http://www.w3.org/2000/svg">
<path d="M20.4443 4.79835C15.899 3.88179 14.3233 3.08172 12.3286 2.06745C12.1338 1.96975 11.8754 1.98176 11.6807 2.0804C9.65912 3.09094 8.06125 3.89016 3.55664 4.79835C3.23264 4.86349 3 5.15019 3 5.48238V10.9621C3 18.624 10.3144 21.4705 11.7812 21.9637C11.8523 21.9878 11.9262 22 12 22C12.0738 22 12.1477 21.9878 12.2188 21.9637C13.6856 21.4705 21 18.624 21 10.9621V5.48238C21.0009 5.15019 20.7683 4.86256 20.4443 4.79835ZM19.6163 10.9621C19.6163 17.3501 13.692 19.9511 12.0009 20.5624C10.3098 19.9511 4.38552 17.3492 4.38552 10.9621V6.05282C8.43321 5.20047 10.0974 4.42728 12.0146 3.47163C13.8193 4.38447 15.5354 5.19209 19.6163 6.05282V10.9621ZM12.9425 14.3223C12.9425 14.836 12.5298 15.2528 12.0194 15.2528C11.5098 15.2528 11.0916 14.836 11.0916 14.3223C11.0916 13.8087 11.5006 13.3918 12.0101 13.3918H12.0194C12.5289 13.3918 12.9425 13.8087 12.9425 14.3223ZM12.0009 8.04131C12.3831 8.04131 12.6932 8.35396 12.6932 8.7392V11.5308C12.6932 11.916 12.3831 12.2286 12.0009 12.2286C11.6187 12.2286 11.3086 11.916 11.3086 11.5308V8.7392C11.3086 8.35396 11.6187 8.04131 12.0009 8.04131Z" fill="#646464"/>
</svg>
