<svg width="24" height="24" viewBox="0 0 24 24" fill="none" xmlns="http://www.w3.org/2000/svg">
<path fill-rule="evenodd" clip-rule="evenodd" d="M12 3.75C11.4284 3.75 10.8855 3.96916 10.4894 4.35103C10.0942 4.732 9.87753 5.24273 9.87753 5.76922C9.87753 6.13868 10.0107 6.67221 10.2649 7.31986C10.4352 7.7539 10.6473 8.2083 10.8758 8.65427C11.2309 8.54151 11.609 8.48075 12 8.48075C12.391 8.48075 12.7691 8.54152 13.1242 8.65428C13.3527 8.2083 13.5648 7.7539 13.7351 7.31986C13.9893 6.67221 14.1225 6.13868 14.1225 5.76922C14.1225 5.24273 13.9058 4.732 13.5106 4.35103C13.1145 3.96916 12.5716 3.75 12 3.75ZM13.0212 10.2285C12.7206 10.0711 12.3736 9.98075 12 9.98075C11.6264 9.98075 11.2794 10.0711 10.9788 10.2285C10.9606 10.2396 10.9421 10.2498 10.9234 10.2591C10.9155 10.2638 10.9075 10.2684 10.8993 10.2729C10.8951 10.2753 10.8908 10.2776 10.8865 10.2798C10.275 10.6397 9.87753 11.2855 9.87753 12C9.87753 12.7149 10.2754 13.361 10.8876 13.7208C10.8915 13.7228 10.8954 13.7249 10.8993 13.7271C10.9073 13.7315 10.9151 13.7359 10.9228 13.7405C10.9417 13.7499 10.9603 13.7602 10.9787 13.7713C11.2793 13.9288 11.6263 14.0192 12 14.0192C12.3737 14.0192 12.7207 13.9288 13.0213 13.7713C13.0397 13.7602 13.0583 13.7499 13.0772 13.7405C13.0849 13.7359 13.0927 13.7315 13.1007 13.7271C13.1046 13.7249 13.1085 13.7228 13.1124 13.7208C13.7246 13.361 14.1225 12.7149 14.1225 12C14.1225 11.2855 13.725 10.6397 13.1135 10.2798C13.1092 10.2776 13.1049 10.2753 13.1007 10.2729C13.0925 10.2684 13.0845 10.2638 13.0766 10.2591C13.0579 10.2498 13.0394 10.2396 13.0212 10.2285ZM14.4397 9.39868C14.9826 9.87839 15.3765 10.5173 15.5395 11.2453C16.0588 11.2127 16.5781 11.1624 17.0582 11.087C17.7698 10.9752 18.3256 10.8182 18.668 10.6274L18.6762 10.6228L18.6762 10.6229C18.9223 10.4898 19.1366 10.312 19.3078 10.101C19.4789 9.89005 19.6036 9.65001 19.6762 9.39522C19.7487 9.14047 19.768 8.87493 19.7331 8.61355C19.6983 8.35215 19.6098 8.09879 19.4717 7.86818C19.3335 7.63749 19.1481 7.43368 18.9249 7.26962C18.7016 7.10552 18.4453 6.98476 18.1705 6.91554C17.8957 6.84631 17.6089 6.8303 17.3272 6.86863C17.0455 6.90695 16.7757 6.99868 16.5333 7.13748L16.5252 7.14211L16.5252 7.14206C16.1841 7.33181 15.7672 7.71504 15.3129 8.25054C15.0151 8.60158 14.7199 8.99537 14.4397 9.39868ZM15.5396 12.7541C15.3767 13.4823 14.9828 14.1214 14.4397 14.6013C14.7199 15.0046 15.0151 15.3984 15.3129 15.7494C15.7672 16.2849 16.1841 16.6681 16.5252 16.8579L16.5333 16.8624L16.5333 16.8625C16.7757 17.0013 17.0455 17.093 17.3272 17.1313C17.6089 17.1696 17.8957 17.1536 18.1705 17.0844C18.4453 17.0152 18.7016 16.8944 18.9249 16.7303C19.1481 16.5663 19.3335 16.3624 19.4717 16.1318C19.6098 15.9012 19.6983 15.6478 19.7331 15.3864C19.768 15.125 19.7487 14.8595 19.6762 14.6047C19.6036 14.3499 19.4789 14.1099 19.3078 13.899C19.1366 13.688 18.9223 13.5101 18.6762 13.377L18.668 13.3726L18.668 13.3725C18.3254 13.1816 17.7694 13.0243 17.058 12.9123C16.5779 12.8367 16.0587 12.7864 15.5396 12.7541ZM13.1242 15.3457C13.3526 15.7917 13.5648 16.2461 13.7351 16.6801C13.9893 17.3278 14.1225 17.8613 14.1225 18.2308C14.1225 18.7573 13.9058 19.268 13.5106 19.649C13.1145 20.0308 12.5716 20.25 12 20.25C11.4284 20.25 10.8855 20.0308 10.4894 19.649C10.0942 19.268 9.87753 18.7573 9.87753 18.2308C9.87753 17.8613 10.0107 17.3278 10.2649 16.6801C10.4352 16.2461 10.6474 15.7917 10.8758 15.3457C11.2309 15.4584 11.609 15.5192 12 15.5192C12.391 15.5192 12.7691 15.4584 13.1242 15.3457ZM8.38211 18.0623C8.37909 18.119 8.37753 18.1752 8.37753 18.2308C8.37753 19.1732 8.76611 20.0712 9.44832 20.7289C10.1296 21.3856 11.0479 21.75 12 21.75C12.9521 21.75 13.8704 21.3856 14.5517 20.7289C15.2339 20.0712 15.6225 19.1732 15.6225 18.2308C15.6225 18.1752 15.6209 18.119 15.6179 18.0623C15.6756 18.0991 15.7336 18.1339 15.7918 18.1664C16.2022 18.4007 16.6553 18.5537 17.125 18.6176C17.5963 18.6817 18.076 18.6551 18.5369 18.539C18.9978 18.4229 19.4318 18.2193 19.8132 17.939C20.1947 17.6586 20.5165 17.3067 20.7585 16.9025C21.0006 16.4983 21.1579 16.0503 21.22 15.5847C21.2821 15.1189 21.2476 14.6461 21.1188 14.1939C20.9901 13.7418 20.77 13.3205 20.4727 12.954C20.1763 12.5887 19.8094 12.2853 19.3939 12.0599C19.357 12.0394 19.3193 12.0194 19.2809 12C19.3193 11.9805 19.357 11.9606 19.394 11.94C19.8094 11.7146 20.1764 11.4112 20.4727 11.046C20.77 10.6795 20.9901 10.2581 21.1188 9.80603C21.2476 9.35385 21.2821 8.88099 21.22 8.41528C21.1579 7.9496 21.0006 7.50167 20.7585 7.09744C20.5165 6.69328 20.1947 6.34134 19.8132 6.06096C19.4318 5.78061 18.9978 5.57709 18.5369 5.46098C18.076 5.34488 17.5963 5.31821 17.125 5.38232C16.6553 5.44623 16.2022 5.59924 15.7919 5.83351C15.7336 5.86603 15.6756 5.90082 15.6179 5.93769C15.6209 5.88095 15.6225 5.82476 15.6225 5.76922C15.6225 4.82682 15.2339 3.92883 14.5517 3.27114C13.8704 2.61435 12.9521 2.25 12 2.25C11.0479 2.25 10.1296 2.61435 9.44832 3.27114C8.76611 3.92883 8.37753 4.82682 8.37753 5.76922C8.37753 5.82476 8.37909 5.88095 8.3821 5.93769C8.32437 5.90082 8.26636 5.86603 8.20811 5.83351C7.79779 5.59924 7.3447 5.44623 6.87498 5.38232C6.40374 5.31821 5.92396 5.34488 5.46307 5.46098C5.00215 5.57709 4.56824 5.78061 4.1868 6.06096C3.8053 6.34134 3.48355 6.69328 3.24148 7.09744C2.99937 7.50167 2.84213 7.9496 2.78003 8.41528C2.71792 8.88099 2.7524 9.35385 2.88116 9.80603C3.0099 10.2581 3.23002 10.6795 3.52734 11.046C3.82363 11.4112 4.19056 11.7146 4.60599 11.94C4.64294 11.9605 4.68066 11.9805 4.71909 12C4.68068 12.0194 4.64299 12.0394 4.60607 12.0599C4.19061 12.2853 3.82365 12.5887 3.52734 12.954C3.23002 13.3205 3.0099 13.7418 2.88116 14.1939C2.7524 14.6461 2.71792 15.1189 2.78003 15.5847C2.84213 16.0503 2.99937 16.4983 3.24148 16.9025C3.48355 17.3067 3.8053 17.6586 4.1868 17.939C4.56824 18.2193 5.00215 18.4229 5.46307 18.539C5.92396 18.6551 6.40374 18.6817 6.87498 18.6176C7.34472 18.5537 7.79782 18.4007 8.20815 18.1664C8.26639 18.1339 8.32439 18.0991 8.38211 18.0623ZM9.56027 14.6013C9.28006 15.0046 8.98494 15.3984 8.68712 15.7494C8.23281 16.2849 7.81594 16.6681 7.47482 16.8579L7.47479 16.8578L7.46671 16.8625C7.22431 17.0013 6.95446 17.093 6.67276 17.1313C6.39106 17.1696 6.1043 17.1536 5.82948 17.0844C5.5547 17.0152 5.2984 16.8944 5.07512 16.7303C4.85191 16.5663 4.66649 16.3624 4.52832 16.1318C4.3902 15.9012 4.30173 15.6478 4.26687 15.3864C4.23201 15.125 4.25127 14.8595 4.32381 14.6047C4.39636 14.3499 4.52112 14.1099 4.69224 13.899C4.86341 13.688 5.07772 13.5101 5.32375 13.377L5.32378 13.3771L5.33198 13.3725C5.67439 13.1817 6.23018 13.0248 6.94181 12.913C7.42193 12.8375 7.94124 12.7872 8.46049 12.7546C8.62347 13.4826 9.01738 14.1216 9.56027 14.6013ZM8.46036 11.2459C8.62326 10.5176 9.01724 9.87851 9.56026 9.39868C9.28006 8.99537 8.98493 8.60158 8.68712 8.25054C8.23281 7.71504 7.81594 7.33181 7.47482 7.14206L7.46668 7.13753L7.46671 7.13748C7.22431 6.99868 6.95446 6.90695 6.67276 6.86863C6.39105 6.8303 6.1043 6.84631 5.82948 6.91554C5.5547 6.98476 5.2984 7.10552 5.07512 7.26962C4.85191 7.43368 4.66649 7.63749 4.52832 7.86818C4.3902 8.09878 4.30173 8.35215 4.26687 8.61355C4.23201 8.87493 4.25127 9.14047 4.32381 9.39522C4.39636 9.65001 4.52112 9.89005 4.69224 10.101C4.86341 10.312 5.07772 10.4898 5.32375 10.6229L5.33201 10.6274L5.33198 10.6274C5.67462 10.8183 6.23065 10.9757 6.94203 11.0877C7.42209 11.1632 7.94132 11.2136 8.46036 11.2459Z" fill="#646464"/>
</svg>
