<svg width="24" height="24" viewBox="0 0 24 24" fill="none" xmlns="http://www.w3.org/2000/svg">
<path d="M12 13.2164C12.6718 13.2164 13.2164 12.6718 13.2164 12C13.2164 11.3282 12.6718 10.7836 12 10.7836C11.3282 10.7836 10.7836 11.3282 10.7836 12C10.7836 12.6718 11.3282 13.2164 12 13.2164Z" fill="#646464"/>
<path fill-rule="evenodd" clip-rule="evenodd" d="M9.45364 15.8109C10.2074 16.3145 11.0935 16.5833 12 16.5833C13.2156 16.5833 14.3814 16.1004 15.2409 15.2409C16.1005 14.3814 16.5833 13.2156 16.5833 12C16.5833 11.0935 16.3145 10.2074 15.8109 9.45364C15.3073 8.69991 14.5915 8.11245 13.754 7.76555C12.9165 7.41865 11.9949 7.32788 11.1058 7.50473C10.2168 7.68158 9.40009 8.1181 8.7591 8.75909C8.11811 9.40008 7.68159 10.2168 7.50474 11.1058C7.32789 11.9949 7.41865 12.9165 7.76555 13.754C8.11246 14.5915 8.69992 15.3073 9.45364 15.8109ZM12 15.3333C11.3407 15.3333 10.6963 15.1378 10.1481 14.7716C9.59994 14.4053 9.1727 13.8847 8.9204 13.2756C8.66811 12.6665 8.6021 11.9963 8.73072 11.3497C8.85934 10.7031 9.17681 10.1092 9.64298 9.64298C10.1092 9.1768 10.7031 8.85933 11.3497 8.73071C11.9963 8.6021 12.6665 8.66811 13.2756 8.9204C13.8847 9.17269 14.4053 9.59993 14.7716 10.1481C15.1378 10.6963 15.3333 11.3407 15.3333 12C15.3333 12.8841 14.9821 13.7319 14.357 14.357C13.7319 14.9821 12.8841 15.3333 12 15.3333Z" fill="#646464"/>
<path fill-rule="evenodd" clip-rule="evenodd" d="M6.4443 3.6853C7.74004 2.81952 9.21514 2.2718 10.75 2.07842C11.1631 2.02638 11.5806 2 12 2C14.6513 2.00287 17.1932 3.05736 19.0679 4.9321C20.9426 6.80684 21.9971 9.34871 22 12C22 13.9778 21.4135 15.9112 20.3147 17.5557C19.2159 19.2002 17.6541 20.4819 15.8268 21.2388C13.9996 21.9957 11.9889 22.1937 10.0491 21.8078C8.10929 21.422 6.32746 20.4696 4.92894 19.0711C3.53041 17.6725 2.578 15.8907 2.19215 13.9509C1.8063 12.0111 2.00433 10.0004 2.76121 8.17316C3.51809 6.3459 4.79981 4.78412 6.4443 3.6853ZM7.13876 4.72464C8.5775 3.76331 10.269 3.25014 11.9993 3.25L20.75 12.0014C20.7497 13.7315 20.2366 15.4227 19.2754 16.8612C18.3139 18.3002 16.9473 19.4217 15.3485 20.0839C13.7496 20.7462 11.9903 20.9195 10.293 20.5819C8.59563 20.2442 7.03653 19.4109 5.81282 18.1872C4.58911 16.9635 3.75575 15.4044 3.41813 13.707C3.08051 12.0097 3.25379 10.2504 3.91606 8.65152C4.57832 7.05267 5.69983 5.6861 7.13876 4.72464ZM11.9993 3.25L20.75 12.0014C20.7475 9.68115 19.8246 7.45661 18.184 5.81598C16.5435 4.17548 14.3193 3.25268 11.9993 3.25Z" fill="#646464"/>
</svg>
