<svg width="24" height="24" viewBox="0 0 24 24" fill="none" xmlns="http://www.w3.org/2000/svg">
<path d="M9.75012 12L12 14.25M12 9.75012L14.25 12M14.9999 9.00014L9.00014 14.9999M13.6359 3.13623L20.8638 10.3641M3.13632 13.6358L10.3642 20.8637M17.4879 17.4879C13.4568 21.519 7.8639 21.1956 5.17431 20.74C4.69597 20.6592 4.25464 20.4314 3.91161 20.0884C3.56857 19.7454 3.34083 19.304 3.26001 18.8257C2.8044 16.1361 2.48285 10.5413 6.51208 6.51208C10.5413 2.48285 16.1361 2.8044 18.8257 3.26001C19.304 3.34083 19.7454 3.56857 20.0884 3.91161C20.4314 4.25464 20.6592 4.69597 20.74 5.17431C21.1956 7.8639 21.5171 13.4587 17.4879 17.4879Z" stroke="#646464" stroke-width="1.5" stroke-linecap="round" stroke-linejoin="round"/>
<g clip-path="url(#clip0_406_2202)">
<path d="M8.27693 21.75C7.04756 21.75 5.93812 21.6201 5.05858 21.4702C4.4189 21.3602 3.8492 21.0604 3.38943 20.6106C2.92967 20.1508 2.63982 19.5811 2.52987 18.9415C2.02013 15.903 1.78026 10.186 5.9881 5.97811C10.1959 1.77027 15.913 2.00015 18.9515 2.51988C19.5811 2.62983 20.1608 2.91968 20.6206 3.37944C21.0804 3.83921 21.3702 4.40892 21.4802 5.04859C21.9899 8.08703 22.2298 13.8041 18.0219 18.0119C15.0335 21.0004 11.2854 21.75 8.27693 21.75ZM3.75924 15.3133C3.72926 16.6127 3.8492 17.7921 4.00911 18.7016C4.06908 19.0314 4.21901 19.3213 4.44889 19.5611C4.67877 19.791 4.97862 19.9509 5.30845 20.0009C6.21798 20.1508 7.39738 20.2908 8.69671 20.2508L3.75924 15.3133ZM3.92915 13.3643L10.6357 20.0709C12.7746 19.7311 15.0535 18.8615 16.9525 16.9525C18.8515 15.0535 19.7311 12.7746 20.0709 10.6357L13.3643 3.92916C11.2254 4.26899 8.94658 5.13854 7.04756 7.04756C5.14853 8.95658 4.26898 11.2254 3.92915 13.3643ZM15.3133 3.75925L20.2408 8.68672C20.2708 7.38739 20.1508 6.20799 19.9909 5.29846C19.931 4.96863 19.781 4.67878 19.5511 4.4389C19.3213 4.20902 19.0214 4.0491 18.6916 3.99913C17.792 3.8492 16.6127 3.71927 15.3133 3.75925ZM8.99656 15.7431C8.80665 15.7431 8.61675 15.6731 8.46683 15.5232C8.17698 15.2334 8.17698 14.7536 8.46683 14.4638L9.80614 13.1244L9.21644 12.5347C8.92659 12.2449 8.92659 11.7651 9.21644 11.4753C9.50629 11.1854 9.98605 11.1854 10.2759 11.4753L10.8656 12.065L12.055 10.8756L11.4653 10.2759C11.1754 9.98606 11.1754 9.5063 11.4653 9.21645C11.7551 8.9266 12.2349 8.9266 12.5247 9.21645L13.1144 9.80615L14.4538 8.46683C14.7436 8.17698 15.2234 8.17698 15.5132 8.46683C15.8031 8.75669 15.8031 9.23644 15.5132 9.52629L14.1739 10.8656L14.7636 11.4553C15.0535 11.7452 15.0535 12.2249 14.7636 12.5148C14.4737 12.8046 13.994 12.8046 13.7041 12.5148L13.1144 11.9251L11.9251 13.1145L12.5148 13.7041C12.8046 13.994 12.8046 14.4738 12.5148 14.7636C12.2249 15.0535 11.7451 15.0535 11.4553 14.7636L10.8656 14.1739L9.52629 15.5132C9.38636 15.6731 9.19645 15.7431 8.99656 15.7431Z" fill="#646464"/>
</g>
<defs>
<clipPath id="clip0_406_2202">
<rect width="19.5" height="19.5" fill="white" transform="translate(2.25 2.25)"/>
</clipPath>
</defs>
</svg>
