<svg width="24" height="24" viewBox="0 0 24 24" fill="none" xmlns="http://www.w3.org/2000/svg">
<path fill-rule="evenodd" clip-rule="evenodd" d="M3.11111 10.8815C3.72476 10.8815 4.22222 11.3789 4.22222 11.9926V16.437C4.22222 17.0507 3.72476 17.5481 3.11111 17.5481C2.49746 17.5481 2 17.0507 2 16.437V11.9926C2 11.3789 2.49746 10.8815 3.11111 10.8815Z" fill="#646464"/>
<path fill-rule="evenodd" clip-rule="evenodd" d="M9.03701 6.43701C9.65066 6.43701 10.1481 6.93447 10.1481 7.54812V16.437C10.1481 17.0507 9.65066 17.5481 9.03701 17.5481C8.42336 17.5481 7.9259 17.0507 7.9259 16.437V7.54812C7.9259 6.93447 8.42336 6.43701 9.03701 6.43701Z" fill="#646464"/>
<path fill-rule="evenodd" clip-rule="evenodd" d="M14.963 15.3259C15.5766 15.3259 16.0741 15.8234 16.0741 16.437V16.4519C16.0741 17.0655 15.5766 17.563 14.963 17.563C14.3493 17.563 13.8519 17.0655 13.8519 16.4519V16.437C13.8519 15.8234 14.3493 15.3259 14.963 15.3259Z" fill="#646464"/>
<path fill-rule="evenodd" clip-rule="evenodd" d="M20.8889 15.3259C21.5025 15.3259 22 15.8234 22 16.437V16.4519C22 17.0655 21.5025 17.563 20.8889 17.563C20.2752 17.563 19.7778 17.0655 19.7778 16.4519V16.437C19.7778 15.8234 20.2752 15.3259 20.8889 15.3259Z" fill="#646464"/>
</svg>
