<svg width="24" height="24" viewBox="0 0 24 24" fill="none" xmlns="http://www.w3.org/2000/svg">
<path fill-rule="evenodd" clip-rule="evenodd" d="M3.89189 16.5946C3.82021 16.5946 3.75147 16.6231 3.70078 16.6737C3.6501 16.7244 3.62162 16.7932 3.62162 16.8649V20.1081C3.62162 20.1798 3.6501 20.2485 3.70078 20.2992C3.75147 20.3499 3.82021 20.3784 3.89189 20.3784H7.13514C7.20682 20.3784 7.27556 20.3499 7.32625 20.2992C7.37693 20.2485 7.40541 20.1798 7.40541 20.1081V16.8649C7.40541 16.7932 7.37693 16.7244 7.32625 16.6737C7.27556 16.6231 7.20682 16.5946 7.13514 16.5946H3.89189ZM2.55412 15.5271C2.90892 15.1723 3.39013 14.973 3.89189 14.973H7.13514C7.6369 14.973 8.11811 15.1723 8.47291 15.5271C8.8277 15.8819 9.02703 16.3631 9.02703 16.8649V20.1081C9.02703 20.6099 8.8277 21.0911 8.47291 21.4459C8.11811 21.8007 7.6369 22 7.13514 22H3.89189C3.39013 22 2.90892 21.8007 2.55412 21.4459C2.19932 21.0911 2 20.6099 2 20.1081V16.8649C2 16.3631 2.19932 15.8819 2.55412 15.5271Z" fill="#646464"/>
<path fill-rule="evenodd" clip-rule="evenodd" d="M6.05403 3.62162C5.69563 3.62162 5.35191 3.764 5.09848 4.01742C4.84505 4.27085 4.70268 4.61457 4.70268 4.97297V11.4595C4.70268 11.9073 4.33966 12.2703 3.89187 12.2703C3.44407 12.2703 3.08105 11.9073 3.08105 11.4595V4.97297C3.08105 4.18449 3.39428 3.4283 3.95182 2.87076C4.50936 2.31322 5.26555 2 6.05403 2H19.027C19.8155 2 20.5717 2.31322 21.1292 2.87076C21.6867 3.4283 22 4.18449 22 4.97297V17.9459C22 18.7344 21.6867 19.4906 21.1292 20.0482C20.5717 20.6057 19.8155 20.9189 19.027 20.9189H12.5405C12.0927 20.9189 11.7297 20.5559 11.7297 20.1081C11.7297 19.6603 12.0927 19.2973 12.5405 19.2973H19.027C19.3854 19.2973 19.7291 19.1549 19.9825 18.9015C20.236 18.6481 20.3784 18.3043 20.3784 17.9459V4.97297C20.3784 4.61457 20.236 4.27085 19.9825 4.01742C19.7291 3.764 19.3854 3.62162 19.027 3.62162H6.05403Z" fill="#646464"/>
<path fill-rule="evenodd" clip-rule="evenodd" d="M11.7297 7.13515C11.7297 6.68735 12.0927 6.32434 12.5405 6.32434H16.8649C17.3127 6.32434 17.6757 6.68735 17.6757 7.13515V11.4595C17.6757 11.9073 17.3127 12.2703 16.8649 12.2703C16.4171 12.2703 16.0541 11.9073 16.0541 11.4595V7.94596H12.5405C12.0927 7.94596 11.7297 7.58295 11.7297 7.13515Z" fill="#646464"/>
<path fill-rule="evenodd" clip-rule="evenodd" d="M17.4382 6.56182C17.7548 6.87846 17.7548 7.39184 17.4382 7.70848L12.0328 13.1139C11.7161 13.4305 11.2027 13.4305 10.8861 13.1139C10.5695 12.7972 10.5695 12.2839 10.8861 11.9672L16.2915 6.56182C16.6081 6.24518 17.1215 6.24518 17.4382 6.56182Z" fill="#646464"/>
</svg>
