<svg width="24" height="24" viewBox="0 0 24 24" fill="none" xmlns="http://www.w3.org/2000/svg">
<path d="M19.7119 4.30121C18.2819 2.91977 16.3978 2.10524 14.411 2.00951C12.4243 1.91378 10.4705 2.54339 8.91411 3.78092C8.57639 3.23941 8.10554 2.79333 7.54641 2.48516C6.98728 2.177 6.3585 2.01702 5.71996 2.02047C5.08142 2.02391 4.45441 2.19068 3.89864 2.50486C3.34288 2.81905 2.87688 3.27019 2.54504 3.81532C2.21321 4.36045 2.02658 4.98139 2.00295 5.61901C1.97932 6.25662 2.11947 6.88966 2.41005 7.45782C2.70063 8.02597 3.13196 8.51032 3.66294 8.86472C4.19393 9.21912 4.80688 9.43177 5.44342 9.4824C5.18094 11.0898 5.42612 12.739 6.14489 14.2007C6.18401 14.2757 6.19939 14.3607 6.18898 14.4446C6.17856 14.5284 6.14284 14.6072 6.08657 14.6702L3.66558 16.127C3.04952 16.4511 2.55973 16.9719 2.27423 17.6064C1.98873 18.2409 1.92396 18.9527 2.09023 19.6282C2.25649 20.3038 2.64423 20.9043 3.19168 21.3342C3.73913 21.764 4.41478 21.9984 5.11101 22C5.23825 22 5.36538 21.9925 5.49174 21.9775C5.95472 21.9237 6.39949 21.7658 6.79266 21.5156C7.18584 21.2655 7.51722 20.9296 7.76193 20.5332L9.48478 17.9301C9.54691 17.8694 9.6265 17.8296 9.7124 17.8163C9.7983 17.803 9.88621 17.8169 9.96381 17.856C11.519 18.6084 13.2751 18.8408 14.9727 18.519C16.6702 18.1971 18.2191 17.3381 19.3903 16.0688C20.9847 14.4994 21.9164 12.3791 21.9938 10.1442C22.0368 9.06572 21.8564 7.98999 21.4637 6.98451C21.071 5.97902 20.4746 5.06548 19.7119 4.30121ZM3.66558 5.76716C3.66558 5.35555 3.78773 4.95318 4.01659 4.61094C4.24544 4.2687 4.57072 4.00196 4.9513 3.84444C5.33187 3.68692 5.75064 3.64571 6.15465 3.72601C6.55867 3.80631 6.92978 4.00452 7.22106 4.29557C7.51233 4.58662 7.7107 4.95745 7.79106 5.36115C7.87142 5.76485 7.83018 6.18329 7.67254 6.56357C7.5149 6.94385 7.24795 7.26888 6.90544 7.49756C6.56294 7.72623 6.16026 7.84829 5.74833 7.84829C5.19595 7.84829 4.6662 7.62903 4.2756 7.23874C3.88501 6.84845 3.66558 6.31911 3.66558 5.76716ZM10.6969 16.361C10.2796 16.1545 9.80493 16.0941 9.34913 16.1896C8.89333 16.285 8.48282 16.5306 8.18348 16.8871C8.16348 16.9112 8.14516 16.9362 8.12766 16.962L6.35566 19.6408C6.181 19.9262 5.91299 20.1424 5.59704 20.2529C5.28108 20.3634 4.93662 20.3614 4.622 20.2471C4.30738 20.1329 4.04195 19.9135 3.87068 19.6261C3.69942 19.3387 3.63284 19.001 3.68224 18.6702C3.71794 18.4372 3.80935 18.2163 3.94873 18.0262C4.08811 17.836 4.27133 17.6823 4.48285 17.578L7.01631 16.0538C7.05327 16.0317 7.08837 16.0066 7.12128 15.9789C7.47707 15.6792 7.72169 15.2687 7.81583 14.8133C7.90996 14.358 7.84814 13.8842 7.6403 13.4682C7.09625 12.371 6.89509 11.1357 7.06296 9.92276L14.0885 16.9428C12.9255 17.0787 11.748 16.8767 10.6969 16.361ZM18.2123 14.8917C17.5578 15.5472 16.7857 16.0739 15.9363 16.4442C15.9288 16.4359 15.9263 16.4251 15.918 16.4167L8.13099 8.63496C8.55626 8.28718 8.89929 7.84972 9.1355 7.35392C9.37171 6.85813 9.49525 6.31626 9.49728 5.76716C9.49728 5.66809 9.47562 5.57486 9.46812 5.47829C10.7015 4.33753 12.3203 3.70384 14.001 3.70384C15.6817 3.70384 17.3005 4.33753 18.5339 5.47829C19.1355 6.08273 19.6053 6.80499 19.914 7.59966C20.2227 8.39434 20.3635 9.24424 20.3276 10.0959C20.2623 11.906 19.5053 13.6223 18.2123 14.8917Z" fill="#646464"/>
</svg>
