<svg width="24" height="24" viewBox="0 0 24 24" fill="none" xmlns="http://www.w3.org/2000/svg">
<path fill-rule="evenodd" clip-rule="evenodd" d="M10.0019 2.82763C10.5318 2.29771 11.2506 2 12 2C12.7494 2 13.4682 2.29771 13.9981 2.82763C14.528 3.35756 14.8257 4.07629 14.8257 4.82571V13.1396C15.5718 13.6694 16.1567 14.4003 16.5093 15.2514C16.9204 16.2441 16.9926 17.3446 16.7145 18.3825C16.4364 19.4203 15.8236 20.3373 14.9712 20.9914C14.1188 21.6455 13.0744 22 12 22C10.9256 22 9.88117 21.6455 9.02877 20.9914C8.17637 20.3373 7.56361 19.4203 7.28553 18.3825C7.00745 17.3446 7.07958 16.2441 7.49075 15.2514C7.84328 14.4003 8.42816 13.6694 9.17428 13.1396V4.82571C9.17428 4.07629 9.47199 3.35756 10.0019 2.82763ZM12 3.5413C11.6594 3.5413 11.3327 3.67662 11.0918 3.9175C10.8509 4.15837 10.7156 4.48507 10.7156 4.82571V13.5597C10.7156 13.8351 10.5687 14.0895 10.3303 14.2271C9.69361 14.5947 9.19604 15.1621 8.91472 15.8413C8.6334 16.5204 8.58404 17.2735 8.77431 17.9835C8.96457 18.6936 9.38383 19.3211 9.96705 19.7686C10.5503 20.2161 11.2649 20.4587 12 20.4587C12.7351 20.4587 13.4497 20.2161 14.0329 19.7686C14.6162 19.3211 15.0354 18.6936 15.2257 17.9835C15.416 17.2735 15.3666 16.5204 15.0853 15.8413C14.804 15.1621 14.3064 14.5947 13.6697 14.2271C13.4313 14.0895 13.2844 13.8351 13.2844 13.5597V4.82571C13.2844 4.48507 13.1491 4.15837 12.9082 3.9175C12.6673 3.67662 12.3406 3.5413 12 3.5413Z" fill="#646464"/>
<path fill-rule="evenodd" clip-rule="evenodd" d="M9.17428 8.94411C9.17428 8.51849 9.51931 8.17346 9.94493 8.17346H14.0551C14.4807 8.17346 14.8257 8.51849 14.8257 8.94411C14.8257 9.36973 14.4807 9.71476 14.0551 9.71476H9.94493C9.51931 9.71476 9.17428 9.36973 9.17428 8.94411Z" fill="#646464"/>
</svg>
