<svg width="24" height="24" viewBox="0 0 24 24" fill="none" xmlns="http://www.w3.org/2000/svg">
<path d="M17 21.75H10.5C6.502 21.75 3.25 18.498 3.25 14.5C3.25 10.502 6.502 7.25 10.5 7.25C12.264 7.25 13.9641 7.89198 15.2881 9.05798C15.7021 9.42298 16.0711 9.83303 16.3921 10.28C16.5931 10.259 16.794 10.249 17 10.249C20.171 10.249 22.75 12.828 22.75 15.999C22.75 19.17 20.171 21.75 17 21.75ZM10.5 8.75C7.329 8.75 4.75 11.329 4.75 14.5C4.75 17.671 7.329 20.25 10.5 20.25H17C19.344 20.25 21.25 18.344 21.25 16C21.25 13.656 19.344 11.75 17 11.75C16.717 11.75 16.4449 11.775 16.1689 11.827C15.8669 11.885 15.5551 11.748 15.3931 11.484C15.0931 10.999 14.7239 10.561 14.2959 10.184C13.2469 9.25902 11.898 8.75 10.5 8.75Z" fill="#646464"/>
<path d="M8.5 2.25C4.502 2.25 1.25 5.502 1.25 9.5C1.25 9.85188 1.27519 10.198 1.32386 10.5366C1.42539 11.2429 2.37032 11.1845 2.69353 10.5483C2.76689 10.4039 2.79527 10.2415 2.77905 10.0804C2.75984 9.88949 2.75 9.69587 2.75 9.5C2.75 6.329 5.329 3.75 8.5 3.75C9.898 3.75 11.2469 4.25902 12.2959 5.18402C12.7239 5.56102 13.0931 5.99901 13.3931 6.48401C13.5551 6.74801 13.8669 6.88503 14.1689 6.82703C14.4449 6.77503 14.717 6.75 15 6.75C16.4871 6.75 17.7979 7.51718 18.5576 8.67666C18.6716 8.85068 18.8451 8.98349 19.0447 9.0422C19.6673 9.22534 20.3066 8.69154 19.9818 8.12965C18.9871 6.40903 17.1267 5.24902 15 5.24902C14.794 5.24902 14.5931 5.25903 14.3921 5.28003C14.0711 4.83303 13.7021 4.42298 13.2881 4.05798C11.9641 2.89198 10.264 2.25 8.5 2.25Z" fill="#646464"/>
</svg>
