<svg width="24" height="24" viewBox="0 0 24 24" fill="none" xmlns="http://www.w3.org/2000/svg">
<path d="M16.6507 3.86047H12.2889L10.633 2.20465C10.5019 2.07349 10.3251 2 10.14 2H7.34927C5.09997 2 3.8609 3.23907 3.8609 5.48837V12C3.8609 14.2493 5.09997 15.4884 7.34927 15.4884H11.3028V16.9926C10.4553 17.2344 9.79294 17.8967 9.55108 18.7442H5.4879C5.10278 18.7442 4.79023 19.0567 4.79023 19.4419C4.79023 19.827 5.10278 20.1395 5.4879 20.1395H9.55017C9.85622 21.2093 10.8321 22 11.9995 22C13.167 22 14.1428 21.2093 14.4489 20.1395H18.5112C18.8963 20.1395 19.2088 19.827 19.2088 19.4419C19.2088 19.0567 18.8963 18.7442 18.5112 18.7442H14.4489C14.207 17.8967 13.5446 17.2344 12.6972 16.9926V15.4884H16.6507C18.9 15.4884 20.1391 14.2493 20.1391 12V7.34884C20.1391 5.09953 18.9 3.86047 16.6507 3.86047ZM13.1623 19.4419C13.1623 20.0828 12.6405 20.6047 11.9995 20.6047C11.3586 20.6047 10.8367 20.0828 10.8367 19.4419C10.8367 18.8009 11.3586 18.2791 11.9995 18.2791C12.6405 18.2791 13.1623 18.8009 13.1623 19.4419ZM18.7437 12C18.7437 13.467 18.1177 14.093 16.6507 14.093H7.34836C5.88139 14.093 5.25534 13.467 5.25534 12V5.48837C5.25534 4.0214 5.88139 3.39535 7.34836 3.39535H9.84973L11.5056 5.05116C11.6367 5.18232 11.8135 5.25581 11.9986 5.25581H16.6498C18.1168 5.25581 18.7428 5.88186 18.7428 7.34884V12H18.7437Z" fill="#646464"/>
</svg>
