<svg width="24" height="24" viewBox="0 0 24 24" fill="none" xmlns="http://www.w3.org/2000/svg">
<path d="M9.94869 13.2821C9.52386 13.2821 9.17946 13.6264 9.17946 14.0513C9.17946 14.4761 9.52386 14.8205 9.94869 14.8205H11.2307V16.1026C11.2307 16.5274 11.5751 16.8718 12 16.8718C12.4248 16.8718 12.7692 16.5274 12.7692 16.1026V14.8205H14.0513C14.4761 14.8205 14.8205 14.4761 14.8205 14.0513C14.8205 13.6264 14.4761 13.2821 14.0513 13.2821H12.7692V12C12.7692 11.5752 12.4248 11.2308 12 11.2308C11.5751 11.2308 11.2307 11.5752 11.2307 12V13.2821H9.94869Z" fill="#646464"/>
<path fill-rule="evenodd" clip-rule="evenodd" d="M9.17946 6.18026V3.79487C9.17946 3.31884 9.36856 2.86231 9.70517 2.52571C10.0418 2.1891 10.4983 2 10.9743 2H13.0256C13.5016 2 13.9582 2.1891 14.2948 2.52571C14.6314 2.86231 14.8205 3.31884 14.8205 3.79487V6.18026C15.5539 6.32998 16.2337 6.69186 16.7709 7.22908C17.4922 7.95037 17.8974 8.92866 17.8974 9.94872V20.2051C17.8974 20.6812 17.7083 21.1377 17.3717 21.4743C17.0351 21.8109 16.5786 22 16.1025 22H7.89741C7.42138 22 6.96485 21.8109 6.62825 21.4743C6.29164 21.1377 6.10254 20.6812 6.10254 20.2051V9.94872C6.10254 8.92865 6.50776 7.95037 7.22905 7.22908C7.76627 6.69186 8.44604 6.32998 9.17946 6.18026ZM10.793 3.61356C10.8411 3.56548 10.9063 3.53846 10.9743 3.53846H13.0256C13.0936 3.53846 13.1588 3.56548 13.2069 3.61356C13.255 3.66165 13.282 3.72687 13.282 3.79487V6.10256H10.7179V3.79487C10.7179 3.72687 10.7449 3.66165 10.793 3.61356ZM14.0513 7.64103C14.6633 7.64103 15.2503 7.88416 15.683 8.31693C16.1158 8.74971 16.3589 9.33668 16.3589 9.94872V20.2051C16.3589 20.2731 16.3319 20.3384 16.2838 20.3864C16.2358 20.4345 16.1705 20.4615 16.1025 20.4615H7.89741C7.82941 20.4615 7.76419 20.4345 7.7161 20.3864C7.66802 20.3384 7.641 20.2731 7.641 20.2051V9.94872C7.641 9.33668 7.88413 8.74971 8.31691 8.31693C8.74968 7.88416 9.33665 7.64103 9.94869 7.64103H14.0513Z" fill="#646464"/>
</svg>
