<svg width="24" height="24" viewBox="0 0 24 24" fill="none" xmlns="http://www.w3.org/2000/svg">
<path d="M16.129 2H7.87097C5.37497 2 4 3.36615 4 5.84615V18.1538C4 20.6338 5.37497 22 7.87097 22H16.129C18.625 22 20 20.6338 20 18.1538V5.84615C20 3.36615 18.625 2 16.129 2ZM18.4516 18.1538C18.4516 19.7713 17.7569 20.4615 16.129 20.4615H7.87097C6.2431 20.4615 5.54839 19.7713 5.54839 18.1538V5.84615C5.54839 4.22872 6.2431 3.53846 7.87097 3.53846H16.129C17.7569 3.53846 18.4516 4.22872 18.4516 5.84615V18.1538ZM12 10.2051C9.58039 10.2051 7.6129 12.161 7.6129 14.5641C7.6129 16.9672 9.58039 18.9231 12 18.9231C14.4196 18.9231 16.3871 16.9672 16.3871 14.5641C16.3871 12.161 14.4196 10.2051 12 10.2051ZM12 17.3846C10.4341 17.3846 9.16129 16.12 9.16129 14.5641C9.16129 13.0082 10.4341 11.7436 12 11.7436C13.5659 11.7436 14.8387 13.0082 14.8387 14.5641C14.8387 16.12 13.5659 17.3846 12 17.3846ZM10.9677 6.8718C10.9677 6.30564 11.4302 5.84615 12 5.84615C12.5698 5.84615 13.0323 6.30564 13.0323 6.8718C13.0323 7.43795 12.5698 7.89744 12 7.89744C11.4302 7.89744 10.9677 7.43795 10.9677 6.8718ZM13.2903 14.5641C13.2903 15.2718 12.7123 15.8462 12 15.8462C11.2877 15.8462 10.7097 15.2718 10.7097 14.5641C10.7097 13.8564 11.2877 13.2821 12 13.2821C12.7123 13.2821 13.2903 13.8564 13.2903 14.5641Z" fill="#646464"/>
</svg>
