<svg width="24" height="24" viewBox="0 0 24 24" fill="none" xmlns="http://www.w3.org/2000/svg">
<path fill-rule="evenodd" clip-rule="evenodd" d="M12.2591 4.84061C12.0928 4.77408 11.9072 4.77408 11.7409 4.84061L2.43856 8.56154C2.17369 8.66749 2 8.92403 2 9.20932C2 9.4946 2.17369 9.75114 2.43856 9.85709L5.72093 11.17V15.7209C5.72093 16.8591 6.60818 17.7517 7.74135 18.3183C8.90716 18.9012 10.4393 19.2093 12 19.2093C13.5607 19.2093 15.0928 18.9012 16.2587 18.3183C17.3918 17.7517 18.2791 16.8591 18.2791 15.7209V11.17L20.6047 10.2398V14.7907C20.6047 15.176 20.917 15.4884 21.3023 15.4884C21.6876 15.4884 22 15.176 22 14.7907V9.20932C22 8.92403 21.8263 8.66749 21.5614 8.56154L12.2591 4.84061ZM17.3382 10.0436C17.3276 10.0475 17.3171 10.0517 17.3068 10.0561L12 12.1788L6.69322 10.0561C6.68287 10.0517 6.6724 10.0475 6.6618 10.0435L4.57622 9.20932L12 6.2398L19.4238 9.20932L17.3382 10.0436ZM7.11628 11.7282L11.7409 13.578C11.9072 13.6446 12.0928 13.6446 12.2591 13.578L16.8837 11.7282V15.7209C16.8837 16.063 16.5949 16.5901 15.6346 17.0702C14.707 17.534 13.3999 17.8139 12 17.8139C10.6001 17.8139 9.29299 17.534 8.36537 17.0702C7.40511 16.5901 7.11628 16.063 7.11628 15.7209V11.7282Z" fill="#646464"/>
</svg>
