<svg width="24" height="24" viewBox="0 0 24 24" fill="none" xmlns="http://www.w3.org/2000/svg">
<path d="M12.1717 2H11.8283C6.40877 2 2.00045 6.40832 2.00045 11.8279V12.1721C2.00045 17.5917 6.40877 22 11.8283 22C13.6246 22 15.3139 21.3004 16.5846 20.0297L20.0294 16.5851C21.3001 15.3153 21.9995 13.6251 21.9995 11.8279C21.9995 6.40832 17.5912 2 12.1717 2ZM3.39489 12.1721V11.8279C3.39489 7.17762 7.17717 3.39535 11.8274 3.39535H12.1708C16.821 3.39535 20.6033 7.17762 20.6033 11.8279C20.6033 12.3609 20.5019 12.8735 20.3512 13.3693H18.2005C15.5363 13.3693 13.3688 15.5368 13.3688 18.2009V20.3526C12.873 20.5023 12.3604 20.6047 11.8274 20.6047C7.17717 20.6047 3.39489 16.8224 3.39489 12.1721ZM15.5976 19.0428C15.3409 19.2996 15.0609 19.5256 14.7641 19.7219V18.2009C14.7641 16.3061 16.3056 14.7647 18.2005 14.7647H19.7214C19.5252 15.0614 19.2991 15.3414 19.0415 15.5982L15.5976 19.0428Z" fill="#646464"/>
</svg>
