<svg width="24" height="24" viewBox="0 0 24 24" fill="none" xmlns="http://www.w3.org/2000/svg">
<path fill-rule="evenodd" clip-rule="evenodd" d="M17.6099 3.25094C17.9103 2.95053 18.3974 2.95053 18.6978 3.25094L21.7747 6.32786C22.0751 6.62826 22.0751 7.11531 21.7747 7.41572L18.6978 10.4926C18.3974 10.793 17.9103 10.793 17.6099 10.4926C17.3095 10.1922 17.3095 9.70519 17.6099 9.40478L20.1429 6.87179L17.6099 4.33879C17.3095 4.03839 17.3095 3.55134 17.6099 3.25094Z" fill="#646464"/>
<path fill-rule="evenodd" clip-rule="evenodd" d="M17.6099 13.5073C17.9103 13.2069 18.3974 13.2069 18.6978 13.5073L21.7747 16.5843C22.0751 16.8847 22.0751 17.3717 21.7747 17.6721L18.6978 20.749C18.3974 21.0495 17.9103 21.0495 17.6099 20.749C17.3095 20.4486 17.3095 19.9616 17.6099 19.6612L20.1429 17.1282L17.6099 14.5952C17.3095 14.2948 17.3095 13.8077 17.6099 13.5073Z" fill="#646464"/>
<path fill-rule="evenodd" clip-rule="evenodd" d="M2 6.87177C2 6.44694 2.3444 6.10254 2.76923 6.10254H5.84615C7.41025 6.10254 8.91029 6.72387 10.0163 7.82986C11.1223 8.93584 11.7436 10.4359 11.7436 12C11.7436 13.156 12.2028 14.2648 13.0203 15.0822C13.8378 15.8997 14.9465 16.3589 16.1026 16.3589H21.2308C21.6556 16.3589 22 16.7033 22 17.1282C22 17.553 21.6556 17.8974 21.2308 17.8974H16.1026C14.5385 17.8974 13.0384 17.2761 11.9324 16.1701C10.8265 15.0641 10.2051 13.5641 10.2051 12C10.2051 10.8439 9.74588 9.73518 8.92841 8.91771C8.11095 8.10025 7.00223 7.641 5.84615 7.641H2.76923C2.3444 7.641 2 7.2966 2 6.87177Z" fill="#646464"/>
<path fill-rule="evenodd" clip-rule="evenodd" d="M12.5632 7.28271C13.5836 6.51508 14.8263 6.10078 16.1031 6.10254C16.103 6.10254 16.1033 6.10254 16.1031 6.10254H21.2308C21.6556 6.10254 22 6.44694 22 6.87178C22 7.29661 21.6556 7.64101 21.2308 7.64101L16.1014 7.64101C15.1588 7.63962 14.2414 7.94542 13.4881 8.51212C13.1486 8.76752 12.6663 8.69935 12.4109 8.35986C12.1555 8.02037 12.2237 7.53811 12.5632 7.28271ZM9.53797 15.6403C9.79323 15.9799 9.72487 16.4622 9.38527 16.7174C8.36467 17.4846 7.12212 17.8988 5.84533 17.8974H2.76923C2.3444 17.8974 2 17.553 2 17.1282C2 16.7034 2.3444 16.359 2.76923 16.359H5.84615C6.78894 16.36 7.70726 16.0541 8.46088 15.4877C8.80048 15.2324 9.2827 15.3008 9.53797 15.6403Z" fill="#646464"/>
</svg>
