<svg width="24" height="24" viewBox="0 0 24 24" fill="none" xmlns="http://www.w3.org/2000/svg">
<path d="M9.91669 11.1666C10.607 11.1666 11.1667 10.607 11.1667 9.91663C11.1667 9.22627 10.607 8.66663 9.91669 8.66663C9.22633 8.66663 8.66669 9.22627 8.66669 9.91663C8.66669 10.607 9.22633 11.1666 9.91669 11.1666Z" fill="#646464"/>
<path d="M17.4167 4.5C18.107 4.5 18.6667 3.94036 18.6667 3.25C18.6667 2.55964 18.107 2 17.4167 2C16.7263 2 16.1667 2.55964 16.1667 3.25C16.1667 3.94036 16.7263 4.5 17.4167 4.5Z" fill="#646464"/>
<path d="M19.9167 8.66663C20.607 8.66663 21.1667 8.10698 21.1667 7.41663C21.1667 6.72627 20.607 6.16663 19.9167 6.16663C19.2263 6.16663 18.6667 6.72627 18.6667 7.41663C18.6667 8.10698 19.2263 8.66663 19.9167 8.66663Z" fill="#646464"/>
<path d="M9.91669 15.3334C10.607 15.3334 11.1667 14.7737 11.1667 14.0834C11.1667 13.393 10.607 12.8334 9.91669 12.8334C9.22633 12.8334 8.66669 13.393 8.66669 14.0834C8.66669 14.7737 9.22633 15.3334 9.91669 15.3334Z" fill="#646464"/>
<path d="M14.0833 15.3334C14.7737 15.3334 15.3333 14.7737 15.3333 14.0834C15.3333 13.393 14.7737 12.8334 14.0833 12.8334C13.393 12.8334 12.8333 13.393 12.8333 14.0834C12.8333 14.7737 13.393 15.3334 14.0833 15.3334Z" fill="#646464"/>
<path d="M21.9525 11.045C21.934 10.8523 21.8491 10.6721 21.7122 10.5353C21.5754 10.3984 21.3952 10.3135 21.2025 10.295C19.2772 10.1095 17.4764 9.26007 16.1088 7.89231C14.7412 6.52454 13.892 4.72364 13.7067 2.79833C13.6882 2.60568 13.6032 2.42546 13.4664 2.28861C13.3295 2.15176 13.1493 2.0668 12.9567 2.04833C12.6408 2.0175 12.3225 2 12 2C10.0222 2 8.08879 2.58649 6.4443 3.6853C4.79981 4.78412 3.51809 6.3459 2.76121 8.17317C2.00433 10.0004 1.8063 12.0111 2.19215 13.9509C2.578 15.8907 3.53041 17.6725 4.92894 19.0711C6.32746 20.4696 8.10929 21.422 10.0491 21.8079C11.9889 22.1937 13.9996 21.9957 15.8268 21.2388C17.6541 20.4819 19.2159 19.2002 20.3147 17.5557C21.4135 15.9112 22 13.9778 22 12C22 11.6775 21.9825 11.3592 21.9525 11.045ZM12 20.3333C9.78987 20.3333 7.67025 19.4554 6.10745 17.8926C4.54464 16.3298 3.66667 14.2101 3.66667 12C3.66667 9.78986 4.54464 7.67025 6.10745 6.10744C7.67025 4.54464 9.78987 3.66667 12 3.66667H12.1417C12.4887 5.71313 13.4636 7.60101 14.9313 9.06873C16.399 10.5364 18.2869 11.5113 20.3333 11.8583C20.3333 11.9058 20.3333 11.9525 20.3333 12C20.3309 14.2094 19.4522 16.3276 17.8899 17.8899C16.3276 19.4522 14.2094 20.3309 12 20.3333Z" fill="#646464"/>
</svg>
