<svg width="24" height="24" viewBox="0 0 24 24" fill="none" xmlns="http://www.w3.org/2000/svg">
<path d="M11.25 6C11.25 5.586 11.586 5.25 12 5.25H21C21.414 5.25 21.75 5.586 21.75 6C21.75 6.414 21.414 6.75 21 6.75H12C11.586 6.75 11.25 6.414 11.25 6ZM21 11.25H12C11.586 11.25 11.25 11.586 11.25 12C11.25 12.414 11.586 12.75 12 12.75H21C21.414 12.75 21.75 12.414 21.75 12C21.75 11.586 21.414 11.25 21 11.25ZM21 17.25H12C11.586 17.25 11.25 17.586 11.25 18C11.25 18.414 11.586 18.75 12 18.75H21C21.414 18.75 21.75 18.414 21.75 18C21.75 17.586 21.414 17.25 21 17.25Z" fill="#646464"/>
<path d="M9.53005 17.4701C9.82305 17.7631 9.82305 18.2381 9.53005 18.5311L6.53005 21.5311C6.46105 21.6001 6.37813 21.6552 6.28713 21.6932C6.19613 21.7312 6.09802 21.7511 6.00002 21.7511C5.90202 21.7511 5.80491 21.7312 5.71291 21.6932C5.62091 21.6552 5.53899 21.6001 5.46999 21.5311L2.46999 18.5311C2.17699 18.2381 2.17699 17.7631 2.46999 17.4701C2.76299 17.1771 3.23803 17.1771 3.53103 17.4701L5.251 19.1901V4.81115L3.53103 6.53112C3.23803 6.82412 2.76299 6.82412 2.46999 6.53112C2.17699 6.23812 2.17699 5.76309 2.46999 5.47009L5.46999 2.47009C5.53899 2.40109 5.62213 2.34622 5.71413 2.30822C5.89713 2.23222 6.10413 2.23222 6.28713 2.30822C6.37913 2.34622 6.46203 2.40109 6.53103 2.47009L9.53103 5.47009C9.82403 5.76309 9.82403 6.23812 9.53103 6.53112C9.38503 6.67712 9.193 6.75109 9.001 6.75109C8.809 6.75109 8.61697 6.67812 8.47097 6.53112L6.751 4.81115V19.1901L8.47097 17.4701C8.76297 17.1771 9.23705 17.1771 9.53005 17.4701Z" fill="#646464"/>
</svg>
