<svg width="24" height="24" viewBox="0 0 24 24" fill="none" xmlns="http://www.w3.org/2000/svg">
<path fill-rule="evenodd" clip-rule="evenodd" d="M4.87738 12.0569C5.40633 11.5279 6.12374 11.2308 6.87178 11.2308C7.61983 11.2308 8.33724 11.5279 8.86619 12.0569C9.39513 12.5858 9.6923 13.3032 9.6923 14.0513C9.6923 14.7993 9.39513 15.5167 8.86619 16.0457C8.33724 16.5746 7.61983 16.8718 6.87178 16.8718C6.12374 16.8718 5.40633 16.5746 4.87738 16.0457C4.34843 15.5167 4.05127 14.7993 4.05127 14.0513C4.05127 13.3032 4.34843 12.5858 4.87738 12.0569ZM6.87178 12.7692C6.53176 12.7692 6.20567 12.9043 5.96523 13.1447C5.7248 13.3852 5.58973 13.7113 5.58973 14.0513C5.58973 14.3913 5.7248 14.7174 5.96523 14.9578C6.20567 15.1983 6.53176 15.3333 6.87178 15.3333C7.2118 15.3333 7.5379 15.1983 7.77833 14.9578C8.01876 14.7174 8.15383 14.3913 8.15383 14.0513C8.15383 13.7113 8.01876 13.3852 7.77833 13.1447C7.5379 12.9043 7.2118 12.7692 6.87178 12.7692Z" fill="#646464"/>
<path fill-rule="evenodd" clip-rule="evenodd" d="M15.1338 12.0569C15.6627 11.5279 16.3801 11.2308 17.1282 11.2308C17.8762 11.2308 18.5936 11.5279 19.1226 12.0569C19.6515 12.5858 19.9487 13.3032 19.9487 14.0513C19.9487 14.7993 19.6515 15.5167 19.1226 16.0457C18.5936 16.5746 17.8762 16.8718 17.1282 16.8718C16.3801 16.8718 15.6627 16.5746 15.1338 16.0457C14.6048 15.5167 14.3077 14.7993 14.3077 14.0513C14.3077 13.3032 14.6048 12.5858 15.1338 12.0569ZM17.1282 12.7692C16.7882 12.7692 16.4621 12.9043 16.2216 13.1447C15.9812 13.3852 15.8461 13.7113 15.8461 14.0513C15.8461 14.3913 15.9812 14.7174 16.2216 14.9578C16.4621 15.1983 16.7882 15.3333 17.1282 15.3333C17.4682 15.3333 17.7943 15.1983 18.0347 14.9578C18.2752 14.7174 18.4102 14.3913 18.4102 14.0513C18.4102 13.7113 18.2752 13.3852 18.0347 13.1447C17.7943 12.9043 17.4682 12.7692 17.1282 12.7692Z" fill="#646464"/>
<path fill-rule="evenodd" clip-rule="evenodd" d="M3.53427 7.81666C3.49388 7.42981 3.16678 7.12823 2.76923 7.12823C2.3444 7.12823 2 7.47263 2 7.89747C2 8.6084 2.54602 9.07072 3.02603 9.31072C3.54202 9.56872 4.18785 9.69234 4.82051 9.69234H19.1795C19.8122 9.69234 20.458 9.56872 20.974 9.31072C21.454 9.07072 22 8.6084 22 7.89747C22 7.47263 21.6556 7.12823 21.2308 7.12823C20.8332 7.12823 20.5061 7.4298 20.4657 7.81666C20.4385 7.84268 20.3836 7.88588 20.286 7.93468C20.0326 8.06137 19.6349 8.15388 19.1795 8.15388H4.82051C4.36511 8.15388 3.96743 8.06137 3.71405 7.93468C3.61645 7.88589 3.56146 7.84268 3.53427 7.81666Z" fill="#646464"/>
</svg>
