<svg width="24" height="24" viewBox="0 0 24 24" fill="none" xmlns="http://www.w3.org/2000/svg">
<path d="M19.6017 12.8347C20.2375 12.834 20.8472 12.5811 21.2968 12.1315C21.7464 11.6819 21.9993 11.0722 22 10.4364C21.9991 9.76421 21.8397 9.10174 21.5348 8.50274C21.2298 7.90374 20.788 7.38508 20.245 6.98886L14.5075 2.81719C13.7796 2.28531 12.9015 1.99866 12 1.99866C11.0985 1.99866 10.2204 2.28531 9.4925 2.81719L3.755 6.98886C3.21204 7.38508 2.77016 7.90374 2.46523 8.50274C2.1603 9.10174 2.00091 9.76421 2 10.4364C2.00066 11.0722 2.25356 11.6819 2.70319 12.1315C3.15282 12.5811 3.76246 12.834 4.39833 12.8347H11.1667V21.168C11.1667 21.389 11.2545 21.601 11.4107 21.7573C11.567 21.9136 11.779 22.0014 12 22.0014C12.221 22.0014 12.433 21.9136 12.5893 21.7573C12.7455 21.601 12.8333 21.389 12.8333 21.168V12.8347H19.6017ZM14.9167 8.73053C15.1891 9.14005 15.3341 9.62114 15.3333 10.113V11.168H12.8333V5.59553L14.9167 8.73053ZM19.265 8.33469C19.5959 8.57624 19.8651 8.89247 20.0507 9.25766C20.2363 9.62285 20.3332 10.0267 20.3333 10.4364C20.3331 10.6303 20.256 10.8163 20.1188 10.9535C19.9816 11.0906 19.7956 11.1678 19.6017 11.168H17V10.113C17.0008 9.29284 16.7587 8.49078 16.3042 7.80803L14.2208 4.66636L19.265 8.33469ZM3.66667 10.4364C3.66682 10.0267 3.76365 9.62285 3.94929 9.25766C4.13492 8.89247 4.40412 8.57624 4.735 8.33469L9.7825 4.66803L7.69917 7.80969C7.24381 8.4916 7.00053 9.29306 7 10.113V11.168H4.39833C4.20435 11.1678 4.01838 11.0906 3.88121 10.9535C3.74404 10.8163 3.66689 10.6303 3.66667 10.4364ZM8.66667 11.168V10.113C8.66586 9.62114 8.81085 9.14005 9.08333 8.73053L11.1667 5.59553V11.168H8.66667Z" fill="#646464"/>
<path d="M5.33333 17.8347H3.66667V15.3347C3.66667 15.1137 3.57887 14.9017 3.42259 14.7454C3.26631 14.5891 3.05435 14.5013 2.83333 14.5013C2.61232 14.5013 2.40036 14.5891 2.24408 14.7454C2.0878 14.9017 2 15.1137 2 15.3347V21.168C2 21.389 2.0878 21.601 2.24408 21.7573C2.40036 21.9135 2.61232 22.0013 2.83333 22.0013C3.05435 22.0013 3.26631 21.9135 3.42259 21.7573C3.57887 21.601 3.66667 21.389 3.66667 21.168V19.5013H5.33333C5.55435 19.5013 5.76631 19.5891 5.92259 19.7454C6.07887 19.9017 6.16667 20.1137 6.16667 20.3347V21.168C6.16667 21.389 6.25446 21.601 6.41075 21.7573C6.56703 21.9135 6.77899 22.0013 7 22.0013C7.22101 22.0013 7.43298 21.9135 7.58926 21.7573C7.74554 21.601 7.83333 21.389 7.83333 21.168V20.3347C7.83333 19.6716 7.56994 19.0357 7.1011 18.5669C6.63226 18.0981 5.99638 17.8347 5.33333 17.8347Z" fill="#646464"/>
<path d="M21.1667 14.5013C20.9457 14.5013 20.7337 14.5891 20.5774 14.7454C20.4212 14.9017 20.3334 15.1137 20.3334 15.3347V17.8347H18.6667C18.0036 17.8347 17.3678 18.0981 16.8989 18.5669C16.4301 19.0357 16.1667 19.6716 16.1667 20.3347V21.168C16.1667 21.389 16.2545 21.601 16.4108 21.7573C16.567 21.9135 16.779 22.0013 17 22.0013C17.221 22.0013 17.433 21.9135 17.5893 21.7573C17.7456 21.601 17.8334 21.389 17.8334 21.168V20.3347C17.8334 20.1137 17.9212 19.9017 18.0774 19.7454C18.2337 19.5891 18.4457 19.5013 18.6667 19.5013H20.3334V21.168C20.3334 21.389 20.4212 21.601 20.5774 21.7573C20.7337 21.9135 20.9457 22.0013 21.1667 22.0013C21.3877 22.0013 21.5997 21.9135 21.7559 21.7573C21.9122 21.601 22 21.389 22 21.168V15.3347C22 15.1137 21.9122 14.9017 21.7559 14.7454C21.5997 14.5891 21.3877 14.5013 21.1667 14.5013Z" fill="#646464"/>
</svg>
