<svg width="24" height="24" viewBox="0 0 24 24" fill="none" xmlns="http://www.w3.org/2000/svg">
<path fill-rule="evenodd" clip-rule="evenodd" d="M21.75 12C21.75 13.505 21.5399 15.094 21.1599 16.634C21.1567 16.6494 21.1551 16.6645 21.1537 16.6794C21.152 16.6965 21.1503 16.7134 21.146 16.73C21.1363 16.7688 21.1248 16.8068 21.1134 16.8448C21.1035 16.8773 21.0937 16.9099 21.085 16.9431C21.0751 16.9813 21.0662 17.0198 21.0574 17.0583C21.0465 17.1055 21.0356 17.1527 21.0229 17.199C21.0188 17.2131 21.0123 17.2251 21.0058 17.2371C21.0012 17.2455 20.9966 17.2539 20.9929 17.2629L20.9494 17.4242C20.8715 17.7137 20.7937 18.003 20.7009 18.283L20.23 19.8081C19.866 20.9871 18.7741 21.748 17.5991 21.748H12.634C12.2839 21.748 12 21.4642 12 21.114C12 20.7638 12.2839 20.48 12.634 20.48H14.7981C14.5791 20.068 14.5329 19.594 14.6709 19.147L16.155 14.293C16.292 13.845 16.5951 13.478 17.0081 13.259C17.4231 13.04 17.899 12.9951 18.342 13.1321L19.2839 13.4209C19.6009 13.5179 19.884 13.674 20.134 13.865C20.204 13.235 20.25 12.608 20.25 11.999C20.25 7.45002 16.549 3.74902 12 3.74902C7.451 3.74902 3.75 7.45002 3.75 11.999C3.75 12.607 3.79597 13.234 3.86597 13.864C4.11597 13.673 4.39906 13.5169 4.71606 13.4199L5.65796 13.1311C6.10196 12.9931 6.57794 13.0381 6.99194 13.2581C7.40594 13.4781 7.70797 13.845 7.84497 14.292L9.3291 19.1479C9.4671 19.5949 9.4209 20.068 9.2019 20.481C8.9819 20.895 8.61399 21.198 8.16699 21.334L7.2019 21.6289C6.9359 21.7099 6.66688 21.749 6.40088 21.749C5.22588 21.749 4.13402 20.9881 3.77002 19.8091L3.29712 18.2759C3.20866 18.008 3.13148 17.7241 3.05424 17.4401C3.03718 17.3773 3.02012 17.3146 3.00293 17.252C3.00011 17.243 2.99533 17.2354 2.99054 17.2278C2.98513 17.2192 2.9797 17.2106 2.97705 17.2C2.96438 17.1537 2.95352 17.1065 2.94265 17.0593C2.93379 17.0208 2.92492 16.9823 2.91504 16.9441C2.9064 16.9114 2.89673 16.8797 2.88705 16.8479C2.87544 16.8098 2.86382 16.7718 2.854 16.7319C2.84975 16.7149 2.84806 16.6976 2.84637 16.6802C2.84487 16.6649 2.84337 16.6495 2.84009 16.634C2.46009 15.093 2.25 13.505 2.25 12C2.25 6.624 6.624 2.25 12 2.25C17.376 2.25 21.75 6.624 21.75 12ZM19.2729 17.8191C19.2719 17.8216 19.2712 17.8241 19.2705 17.8265C19.2698 17.829 19.2691 17.8315 19.2681 17.834L18.7949 19.3669C18.5929 20.0239 17.8929 20.3951 17.2339 20.1951L16.269 19.8999C16.183 19.8739 16.1391 19.8131 16.1221 19.7781C16.1031 19.7441 16.077 19.6739 16.103 19.5879L17.5869 14.7329C17.6129 14.6469 17.675 14.603 17.709 14.585C17.733 14.572 17.7739 14.5559 17.8259 14.5559C17.8489 14.5559 17.8739 14.5589 17.8999 14.5669L18.842 14.8569C19.462 15.0469 19.822 15.689 19.688 16.332C19.6782 16.3695 19.6695 16.4072 19.6607 16.4448C19.6515 16.4845 19.6423 16.524 19.6321 16.563C19.5261 16.988 19.4089 17.4111 19.2729 17.8191ZM6.09692 14.5659L5.15503 14.855C4.53503 15.046 4.17488 15.6881 4.30688 16.3291C4.31435 16.3594 4.32154 16.3896 4.32872 16.4199C4.33981 16.4666 4.3509 16.5133 4.36304 16.5601C4.47204 16.9861 4.58812 17.4079 4.72412 17.8169L5.2019 19.365C5.4049 20.022 6.10294 20.3951 6.76294 20.1931L7.72705 19.8979C7.81305 19.8709 7.857 19.8099 7.875 19.7759C7.894 19.7419 7.92004 19.6719 7.89404 19.5869L6.40991 14.731C6.38391 14.646 6.32209 14.602 6.28809 14.584C6.26409 14.572 6.2229 14.5549 6.1709 14.5549C6.1479 14.5549 6.12292 14.5579 6.09692 14.5659Z" fill="#646464"/>
</svg>
