<svg width="24" height="24" viewBox="0 0 24 24" fill="none" xmlns="http://www.w3.org/2000/svg">
<path d="M21.1667 2.00024C20.1596 1.98437 19.1721 2.27813 18.3374 2.8418C17.5028 3.40547 16.8614 4.21186 16.5 5.15191C15.0331 4.74767 13.5213 4.52875 12 4.50025C10.4787 4.52882 8.96692 4.74774 7.49999 5.15191C7.13857 4.21186 6.49718 3.40547 5.66255 2.8418C4.82793 2.27813 3.84033 1.98437 2.83332 2.00024H1.99999V11.9411C1.99815 12.5979 2.12661 13.2485 2.37794 13.8553C2.62926 14.462 2.99846 15.013 3.46416 15.4761L9.25582 21.2677C9.48741 21.5008 9.76297 21.6856 10.0665 21.8113C10.3701 21.9371 10.6956 22.0013 11.0242 22.0002H12.9767C13.3051 22.0012 13.6304 21.9369 13.9338 21.8112C14.2372 21.6854 14.5127 21.5007 14.7442 21.2677L20.535 15.4769C21.001 15.0138 21.3704 14.4628 21.6219 13.8558C21.8734 13.2489 22.0019 12.5981 22 11.9411V2.00024H21.1667ZM9.49999 19.1552L4.64249 14.2977C4.33213 13.9889 4.08608 13.6216 3.91858 13.2171C3.75108 12.8126 3.66545 12.3789 3.66666 11.9411V10.5127C4.2398 10.6608 4.7978 10.8622 5.33332 11.1144C5.4757 11.8169 5.85169 12.4504 6.40006 12.9119C6.94843 13.3734 7.63688 13.6357 8.35332 13.6561C9.14197 14.9038 9.54116 16.3581 9.49999 17.8336V19.1552ZM20.3333 11.9411C20.3346 12.379 20.249 12.8128 20.0813 13.2174C19.9137 13.6219 19.6674 13.9891 19.3567 14.2977L14.5 19.1552V17.8336C14.4588 16.3581 14.858 14.9038 15.6467 13.6561C16.3631 13.6357 17.0516 13.3734 17.5999 12.9119C18.1483 12.4504 18.5243 11.8169 18.6667 11.1144C19.2022 10.8622 19.7602 10.6608 20.3333 10.5127V11.9411ZM20.3333 8.81108C18.3075 9.27691 12.8333 11.1569 12.8333 17.8336V18.6669H11.1667V17.8336C11.1667 11.1561 5.69249 9.27691 3.66666 8.81108V3.75774C4.29188 3.93289 4.85817 4.27367 5.30571 4.74408C5.75324 5.2145 6.06538 5.79707 6.20916 6.43025L6.47332 7.22025L7.26249 6.95775C8.79761 6.47686 10.3919 6.21072 12 6.16691C13.6081 6.21083 15.2023 6.47696 16.7375 6.95775L17.5275 7.22025L17.79 6.43025C17.9341 5.79709 18.2464 5.21457 18.6941 4.74419C19.1417 4.2738 19.7081 3.933 20.3333 3.75774V8.81108Z" fill="#646464"/>
</svg>
