<svg width="24" height="24" viewBox="0 0 24 24" fill="none" xmlns="http://www.w3.org/2000/svg">
<path d="M10.4687 10.7179C12.8761 10.7179 14.8336 8.76205 14.8336 6.35897C14.8336 3.9559 12.8761 2 10.4687 2C8.06139 2 6.10387 3.9559 6.10387 6.35897C6.10387 8.76205 8.06139 10.7179 10.4687 10.7179ZM10.4687 3.53846C12.0267 3.53846 13.2931 4.80308 13.2931 6.35897C13.2931 7.91487 12.0267 9.17949 10.4687 9.17949C8.91074 9.17949 7.64441 7.91487 7.64441 6.35897C7.64441 4.80308 8.91074 3.53846 10.4687 3.53846ZM4.04054 18.1744C4.04054 19.7775 4.73173 20.4615 6.35135 20.4615H13.5405C13.9657 20.4615 14.3108 20.8062 14.3108 21.2308C14.3108 21.6554 13.9657 22 13.5405 22H6.35135C3.868 22 2.5 20.641 2.5 18.1744C2.5 15.4441 4.0467 12.2564 8.40541 12.2564H12.5135C16.1779 12.2564 17.5398 14.5015 18.0235 15.841C18.1683 16.24 17.9609 16.681 17.5614 16.8256C17.1639 16.9723 16.7212 16.7641 16.5754 16.3641C15.9571 14.6595 14.5912 13.7949 12.5135 13.7949H8.40541C4.35584 13.7949 4.04054 17.1477 4.04054 18.1744ZM21.5 19.1795C21.5 19.6041 21.1549 19.9487 20.7297 19.9487H16.6216C16.1964 19.9487 15.8514 19.6041 15.8514 19.1795C15.8514 18.7549 16.1964 18.4103 16.6216 18.4103H20.7297C21.1549 18.4103 21.5 18.7549 21.5 19.1795Z" fill="#646464"/>
</svg>
