<svg width="24" height="24" viewBox="0 0 24 24" fill="none" xmlns="http://www.w3.org/2000/svg">
<path d="M20.75 7C20.75 6.586 20.414 6.25 20 6.25H17.75V4C17.75 3.586 17.414 3.25 17 3.25C16.586 3.25 16.25 3.586 16.25 4V6.25H14C13.586 6.25 13.25 6.586 13.25 7C13.25 7.414 13.586 7.75 14 7.75H16.25V10C16.25 10.414 16.586 10.75 17 10.75C17.414 10.75 17.75 10.414 17.75 10V7.75H20C20.414 7.75 20.75 7.414 20.75 7ZM20.75 18.5V15.5C20.75 14.091 19.909 13.25 18.5 13.25H15.5C14.091 13.25 13.25 14.091 13.25 15.5V18.5C13.25 19.909 14.091 20.75 15.5 20.75H18.5C19.909 20.75 20.75 19.909 20.75 18.5ZM19.25 18.5C19.25 19.089 19.089 19.25 18.5 19.25H15.5C14.911 19.25 14.75 19.089 14.75 18.5V15.5C14.75 14.911 14.911 14.75 15.5 14.75H18.5C19.089 14.75 19.25 14.911 19.25 15.5V18.5ZM10.75 18.5V15.5C10.75 14.091 9.909 13.25 8.5 13.25H5.5C4.091 13.25 3.25 14.091 3.25 15.5V18.5C3.25 19.909 4.091 20.75 5.5 20.75H8.5C9.909 20.75 10.75 19.909 10.75 18.5ZM9.25 18.5C9.25 19.089 9.089 19.25 8.5 19.25H5.5C4.911 19.25 4.75 19.089 4.75 18.5V15.5C4.75 14.911 4.911 14.75 5.5 14.75H8.5C9.089 14.75 9.25 14.911 9.25 15.5V18.5ZM10.75 8.5V5.5C10.75 4.091 9.909 3.25 8.5 3.25H5.5C4.091 3.25 3.25 4.091 3.25 5.5V8.5C3.25 9.909 4.091 10.75 5.5 10.75H8.5C9.909 10.75 10.75 9.909 10.75 8.5ZM9.25 8.5C9.25 9.089 9.089 9.25 8.5 9.25H5.5C4.911 9.25 4.75 9.089 4.75 8.5V5.5C4.75 4.911 4.911 4.75 5.5 4.75H8.5C9.089 4.75 9.25 4.911 9.25 5.5V8.5Z" fill="#646464"/>
</svg>
