<svg width="24" height="24" viewBox="0 0 24 24" fill="none" xmlns="http://www.w3.org/2000/svg">
<path fill-rule="evenodd" clip-rule="evenodd" d="M9.36888 5.81816L6.09713 10.5496H17.9029L14.6311 5.81816L13.626 7.04165C13.4349 7.28772 13.1922 7.48943 12.9132 7.62978C12.6299 7.77236 12.3176 7.84726 12 7.84726C11.6824 7.84726 11.3701 7.77236 11.0868 7.62978C10.8078 7.48943 10.5651 7.28773 10.374 7.04165L9.36888 5.81816ZM19.3444 12.0496H22C22.4142 12.0496 22.75 11.7138 22.75 11.2996C22.75 10.8854 22.4142 10.5496 22 10.5496H19.7266L15.7927 4.86066L15.7916 4.85906C15.6666 4.67926 15.5015 4.5288 15.3069 4.42205C15.1121 4.31519 14.8943 4.25576 14.6706 4.2504C14.4469 4.24503 14.2263 4.29396 14.0265 4.39167C13.8316 4.48698 13.663 4.62544 13.5311 4.7941L12.4597 6.09832C12.4542 6.10495 12.4489 6.11168 12.4437 6.11849C12.3861 6.19369 12.3155 6.25135 12.2391 6.28982C12.1628 6.32821 12.0812 6.34726 12 6.34726C11.9188 6.34726 11.8372 6.32821 11.7609 6.28982C11.6845 6.25135 11.6139 6.19369 11.5563 6.11849C11.5511 6.11168 11.5458 6.10495 11.5403 6.09832L10.4688 4.79408C10.337 4.62543 10.1684 4.48698 9.97348 4.39167C9.77366 4.29396 9.5531 4.24503 9.32939 4.2504C9.1057 4.25576 8.88788 4.31519 8.69311 4.42205C8.49853 4.5288 8.33342 4.67926 8.2084 4.85906L8.20729 4.86067L4.27344 10.5496H2C1.58579 10.5496 1.25 10.8854 1.25 11.2996C1.25 11.7138 1.58579 12.0496 2 12.0496H4.65559C4.66253 12.0497 4.66948 12.0497 4.67642 12.0496H19.3236C19.3305 12.0497 19.3375 12.0497 19.3444 12.0496ZM7.66667 14.8498C6.82631 14.8498 6.08333 15.576 6.08333 16.5499C6.08333 17.5238 6.82631 18.25 7.66667 18.25C8.42996 18.25 9.11291 17.6509 9.23175 16.8112C9.23272 16.803 9.23383 16.7948 9.23506 16.7866C9.2449 16.7096 9.25 16.6306 9.25 16.5499C9.25 15.576 8.50702 14.8498 7.66667 14.8498ZM10.7259 16.1499C10.5376 14.5974 9.26816 13.3498 7.66667 13.3498C5.92969 13.3498 4.58333 14.8174 4.58333 16.5499C4.58333 18.2823 5.92969 19.75 7.66667 19.75C9.01858 19.75 10.1339 18.8609 10.5619 17.6499H13.4381C13.8661 18.8609 14.9814 19.75 16.3333 19.75C18.0703 19.75 19.4167 18.2823 19.4167 16.5499C19.4167 14.8174 18.0703 13.3498 16.3333 13.3498C14.7318 13.3498 13.4624 14.5974 13.2741 16.1499H10.7259ZM16.3333 14.8498C15.493 14.8498 14.75 15.576 14.75 16.5499C14.75 17.5238 15.493 18.25 16.3333 18.25C17.1737 18.25 17.9167 17.5238 17.9167 16.5499C17.9167 15.576 17.1737 14.8498 16.3333 14.8498Z" fill="#646464"/>
</svg>
