<svg width="24" height="24" viewBox="0 0 24 24" fill="none" xmlns="http://www.w3.org/2000/svg">
<path d="M20.1895 2.38839C19.6516 1.98124 18.914 1.89204 18.0613 2.131L10.2072 4.32481C8.87619 4.69708 8.14286 5.65887 8.14286 7.03515V15.8672C7.6224 15.5329 7.00629 15.3339 6.34286 15.3339C4.49966 15.3339 3 16.8292 3 18.667C3 20.5048 4.49966 22 6.34286 22C8.18606 22 9.68571 20.5048 9.68571 18.667V11.6409L19.4571 8.91299V12.7906C18.9367 12.4563 18.3206 12.2573 17.6571 12.2573C15.8139 12.2573 14.3143 13.7525 14.3143 15.5903C14.3143 17.4281 15.8139 18.9234 17.6571 18.9234C19.4942 18.9234 20.9887 17.4374 20.998 15.6078C20.998 15.6048 21 15.6027 21 15.5996V4.35035C21 3.45402 20.7275 2.7945 20.1895 2.38839ZM6.34286 20.4607C5.35029 20.4607 4.54286 19.6556 4.54286 18.666C4.54286 17.6763 5.35029 16.8713 6.34286 16.8713C7.33543 16.8713 8.14286 17.6763 8.14286 18.666C8.14286 19.6556 7.33543 20.4607 6.34286 20.4607ZM9.68571 10.0422V7.03415C9.68571 6.33883 9.94904 5.99322 10.6228 5.80555L18.4769 3.61198C18.8277 3.51456 19.126 3.51553 19.2576 3.61399C19.3852 3.70936 19.4571 3.97712 19.4571 4.34734V7.31307L9.68571 10.0422ZM17.6571 17.384C16.6646 17.384 15.8571 16.579 15.8571 15.5893C15.8571 14.5997 16.6646 13.7946 17.6571 13.7946C18.6497 13.7946 19.4571 14.5997 19.4571 15.5893C19.4571 16.579 18.6497 17.384 17.6571 17.384Z" fill="#646464"/>
</svg>
