<svg width="24" height="24" viewBox="0 0 24 24" fill="none" xmlns="http://www.w3.org/2000/svg">
<path fill-rule="evenodd" clip-rule="evenodd" d="M2 13.0286C2 12.6025 2.3444 12.2571 2.76923 12.2571H3.79487C4.21971 12.2571 4.5641 12.6025 4.5641 13.0286C4.5641 13.4546 4.21971 13.8 3.79487 13.8H2.76923C2.3444 13.8 2 13.4546 2 13.0286Z" fill="#646464"/>
<path fill-rule="evenodd" clip-rule="evenodd" d="M19.4359 13.0286C19.4359 12.6025 19.7803 12.2571 20.2051 12.2571H21.2308C21.6556 12.2571 22 12.6025 22 13.0286C22 13.4546 21.6556 13.8 21.2308 13.8H20.2051C19.7803 13.8 19.4359 13.4546 19.4359 13.0286Z" fill="#646464"/>
<path fill-rule="evenodd" clip-rule="evenodd" d="M4.89193 5.9002C5.19233 5.59894 5.67938 5.59894 5.97979 5.9002L6.69773 6.6202C6.99814 6.92146 6.99814 7.40991 6.69773 7.71117C6.39733 8.01243 5.91028 8.01243 5.60988 7.71117L4.89193 6.99117C4.59153 6.6899 4.59153 6.20146 4.89193 5.9002Z" fill="#646464"/>
<path fill-rule="evenodd" clip-rule="evenodd" d="M19.1081 5.9002C19.4085 6.20146 19.4085 6.6899 19.1081 6.99117L18.3901 7.71117C18.0897 8.01243 17.6027 8.01243 17.3023 7.71117C17.0019 7.40991 17.0019 6.92146 17.3023 6.6202L18.0202 5.9002C18.3206 5.59894 18.8077 5.59894 19.1081 5.9002Z" fill="#646464"/>
<path fill-rule="evenodd" clip-rule="evenodd" d="M12 9.68574C11.116 9.68574 10.2681 10.0379 9.64301 10.6648C9.01789 11.2917 8.6667 12.142 8.6667 13.0286C8.6667 13.4546 8.3223 13.8 7.89747 13.8C7.47263 13.8 7.12823 13.4546 7.12823 13.0286C7.12823 11.7328 7.64151 10.4901 8.55515 9.57388C9.46879 8.65763 10.7079 8.14288 12 8.14288C13.2921 8.14288 14.5313 8.65763 15.4449 9.57388C16.3585 10.4901 16.8718 11.7328 16.8718 13.0286C16.8718 13.4546 16.5274 13.8 16.1026 13.8C15.6778 13.8 15.3334 13.4546 15.3334 13.0286C15.3334 12.142 14.9822 11.2917 14.3571 10.6648C13.7319 10.0379 12.8841 9.68574 12 9.68574Z" fill="#646464"/>
<path fill-rule="evenodd" clip-rule="evenodd" d="M2 17.1428C2 16.7168 2.3444 16.3714 2.76923 16.3714H21.2308C21.6556 16.3714 22 16.7168 22 17.1428C22 17.5689 21.6556 17.9143 21.2308 17.9143H2.76923C2.3444 17.9143 2 17.5689 2 17.1428Z" fill="#646464"/>
<path fill-rule="evenodd" clip-rule="evenodd" d="M6.10254 20.2286C6.10254 19.8025 6.44694 19.4572 6.87177 19.4572H12C12.4248 19.4572 12.7692 19.8025 12.7692 20.2286C12.7692 20.6546 12.4248 21 12 21H6.87177C6.44694 21 6.10254 20.6546 6.10254 20.2286Z" fill="#646464"/>
<path fill-rule="evenodd" clip-rule="evenodd" d="M15.3333 20.2286C15.3333 19.8025 15.6777 19.4572 16.1025 19.4572H17.1282C17.553 19.4572 17.8974 19.8025 17.8974 20.2286C17.8974 20.6546 17.553 21 17.1282 21H16.1025C15.6777 21 15.3333 20.6546 15.3333 20.2286Z" fill="#646464"/>
<path fill-rule="evenodd" clip-rule="evenodd" d="M12 3C12.4248 3 12.7692 3.34538 12.7692 3.77143V4.8C12.7692 5.22605 12.4248 5.57143 12 5.57143C11.5752 5.57143 11.2308 5.22605 11.2308 4.8V3.77143C11.2308 3.34538 11.5752 3 12 3Z" fill="#646464"/>
</svg>
