<svg width="24" height="24" viewBox="0 0 24 24" fill="none" xmlns="http://www.w3.org/2000/svg">
<path fill-rule="evenodd" clip-rule="evenodd" d="M7.04841 3.75C6.65866 3.75 6.28509 3.91868 6.02283 4.21745L3.10074 7.54627C3.07606 7.57438 3.05268 7.60327 3.03059 7.63285H7.25748L8.9617 3.75H7.04841ZM10.5998 3.75L8.8956 7.63285H15.15L13.6162 3.75H10.5998ZM15.229 3.75L16.7628 7.63285H20.9694C20.9473 7.60327 20.9239 7.57438 20.8993 7.54627L17.9772 4.21745C17.7149 3.91868 17.3413 3.75 16.9516 3.75H15.229ZM21.0931 9.13285H16.788L13.2124 19.5424L20.9618 9.34108C21.0122 9.27473 21.056 9.20503 21.0931 9.13285ZM12 18.4548L15.202 9.13285H8.79799L12 18.4548ZM7.21197 9.13285L10.7876 19.5424L3.03818 9.34108C2.98778 9.27473 2.94403 9.20503 2.90691 9.13285H7.21197ZM4.89554 3.2279C5.44029 2.60732 6.22345 2.25 7.04841 2.25H16.9516C17.7765 2.25 18.5597 2.60732 19.1045 3.2279L22.0266 6.55672C22.9402 7.59756 22.994 9.14561 22.1563 10.2484L14.2826 20.6133C13.1313 22.1289 10.8687 22.1289 9.71741 20.6133L1.84373 10.2484C1.00597 9.14561 1.05978 7.59756 1.97345 6.55672L4.89554 3.2279Z" fill="#646464"/>
</svg>
