<svg width="24" height="24" viewBox="0 0 24 24" fill="none" xmlns="http://www.w3.org/2000/svg">
<path d="M12.0012 21.5C11.8924 21.5 11.7836 21.4775 11.6821 21.4313C11.3466 21.2783 3.45161 17.6124 2.18569 11.0843C1.69636 8.55866 2.18778 6.09493 3.49883 4.49473C4.56163 3.19856 6.08805 2.50822 7.91511 2.5C7.92435 2.5 7.9336 2.5 7.94078 2.5C10.0253 2.5 11.2964 3.68843 12.0002 4.7001C12.7039 3.68945 13.975 2.5 16.0595 2.5C16.0678 2.5 16.0769 2.5 16.0851 2.5C17.9132 2.50924 19.4407 3.19856 20.5035 4.49473C21.8135 6.0939 22.3039 8.55786 21.8135 11.0855C20.5496 17.6136 12.6536 21.2793 12.3181 21.4323C12.2186 21.4775 12.1099 21.5 12.0012 21.5ZM7.94078 4.03962C7.93463 4.03962 7.92851 4.03962 7.92338 4.03962C6.55077 4.04578 5.46338 4.52855 4.68987 5.47141C3.66503 6.72137 3.29468 8.70976 3.69682 10.7906C4.67857 15.8593 10.5578 19.1367 12.0002 19.8721C13.4425 19.1357 19.3248 15.849 20.3045 10.7906C20.7087 8.70873 20.3384 6.72035 19.3156 5.47141C18.5421 4.52855 17.4546 4.04678 16.079 4.04062C16.0738 4.04062 16.0677 4.04062 16.0616 4.04062C13.6046 4.04062 12.7398 6.5581 12.7316 6.58275C12.626 6.89806 12.3325 7.10958 12.0012 7.10958C11.6698 7.10958 11.3764 6.89704 11.2707 6.58275C11.2369 6.48107 10.3731 4.03962 7.94078 4.03962ZM13.6672 15.508L15.4901 12.7698H17.1305C17.5552 12.7698 17.8999 12.4247 17.8999 11.9995C17.8999 11.5743 17.5552 11.2292 17.1305 11.2292H15.0788C14.8213 11.2292 14.5812 11.3576 14.4386 11.5722L13.26 13.343L11.7058 8.67477C11.6124 8.39644 11.3692 8.19424 11.0779 8.15522C10.7886 8.11311 10.4993 8.2455 10.3351 8.49097L8.5122 11.2292H6.87184C6.44713 11.2292 6.10244 11.5743 6.10244 11.9995C6.10244 12.4247 6.44713 12.7698 6.87184 12.7698H8.92357C9.18106 12.7698 9.42114 12.6414 9.56374 12.4268L10.7424 10.656L12.2966 15.3242C12.3899 15.6026 12.6331 15.8048 12.9245 15.8438C12.9583 15.8489 12.9922 15.8511 13.027 15.8511C13.2825 15.8511 13.5226 15.7237 13.6672 15.508Z" fill="#646464"/>
</svg>
