<svg width="24" height="24" viewBox="0 0 24 24" fill="none" xmlns="http://www.w3.org/2000/svg">
<path fill-rule="evenodd" clip-rule="evenodd" d="M17.7472 2C17.1887 2 16.6357 2.11 16.1197 2.32373C15.6037 2.53745 15.1349 2.85071 14.74 3.24563L2.26107 15.7245C2.09391 15.8917 2 16.1184 2 16.3548V21.1087C2 21.6009 2.39907 22 2.89135 22H7.64521C7.88161 22 8.10833 21.9061 8.27549 21.7389L19.5642 10.4502L19.5659 10.4485L19.5676 10.4468L20.7544 9.26005C21.1493 8.86513 21.4625 8.3963 21.6763 7.88033C21.89 7.36435 22 6.81132 22 6.25284C22 5.69435 21.89 5.14133 21.6763 4.62535C21.4625 4.10937 21.1493 3.64054 20.7544 3.24563C20.3595 2.85071 19.8906 2.53745 19.3747 2.32373C18.8587 2.11 18.3057 2 17.7472 2ZM18.9356 8.55768L19.4938 7.99949C19.7232 7.77011 19.9051 7.49781 20.0293 7.19812C20.1534 6.89843 20.2173 6.57722 20.2173 6.25284C20.2173 5.92845 20.1534 5.60724 20.0293 5.30756C19.9051 5.00787 19.7232 4.73556 19.4938 4.50619C19.2644 4.27681 18.9921 4.09486 18.6924 3.97073C18.3928 3.84659 18.0715 3.7827 17.7472 3.7827C17.4228 3.7827 17.1016 3.84659 16.8019 3.97073C16.5022 4.09486 16.2299 4.27681 16.0005 4.50619L15.4423 5.06437L18.9356 8.55768ZM14.1818 6.32493L3.7827 16.724V20.2173H7.276L17.6751 9.81823L14.1818 6.32493Z" fill="#646464"/>
</svg>
