<svg width="24" height="24" viewBox="0 0 24 24" fill="none" xmlns="http://www.w3.org/2000/svg">
<path fill-rule="evenodd" clip-rule="evenodd" d="M7.45809 8.81141C6.86086 8.6882 6.24149 8.75114 5.67709 8.99358C5.11236 9.23615 4.62523 9.6489 4.28052 10.1839C3.93563 10.7192 3.75 11.3513 3.75 12C3.75 12.6487 3.93563 13.2808 4.28052 13.8161C4.62523 14.3511 5.11236 14.7638 5.67709 15.0064C6.24149 15.2489 6.86086 15.3118 7.45809 15.1886C8.04876 15.0667 8.59564 14.7673 9.02969 14.3231L9.71252 13.5237C9.98155 13.2088 10.455 13.1715 10.7699 13.4406C11.0849 13.7096 11.1221 14.183 10.8531 14.498L10.1548 15.3155C10.145 15.3269 10.1349 15.3381 10.1244 15.3489C9.482 16.0152 8.66014 16.4722 7.76118 16.6577C6.862 16.8432 5.93029 16.7477 5.08508 16.3847C4.24022 16.0218 3.52253 15.4091 3.01958 14.6285C2.51681 13.8482 2.25 12.9335 2.25 12C2.25 11.0665 2.51681 10.1518 3.01958 9.37148C3.52253 8.59088 4.24022 7.97825 5.08508 7.61534C5.93029 7.25229 6.862 7.15684 7.76118 7.34235C8.66014 7.52782 9.482 7.98483 10.1244 8.65109C10.1349 8.66195 10.145 8.67313 10.1548 8.6846L14.9703 14.3231C15.4044 14.7673 15.9513 15.0667 16.5419 15.1886C17.1391 15.3118 17.7585 15.2489 18.3229 15.0064C18.8876 14.7638 19.3748 14.3511 19.7195 13.8161C20.0644 13.2808 20.25 12.6487 20.25 12C20.25 11.3513 20.0644 10.7192 19.7195 10.1839C19.3748 9.6489 18.8876 9.23616 18.3229 8.99358C17.7585 8.75114 17.1391 8.6882 16.5419 8.81141C15.9512 8.93327 15.4044 9.23274 14.9703 9.67689L14.2875 10.4763C14.0184 10.7912 13.545 10.8285 13.2301 10.5594C12.9151 10.2904 12.8779 9.81701 13.1469 9.50205L13.8452 8.68455C13.855 8.6731 13.8651 8.66194 13.8756 8.65109C14.518 7.98483 15.3399 7.52782 16.2388 7.34235C17.138 7.15684 18.0697 7.25229 18.9149 7.61534C19.7598 7.97825 20.4775 8.59088 20.9804 9.37148C21.4832 10.1518 21.75 11.0665 21.75 12C21.75 12.9335 21.4832 13.8482 20.9804 14.6285C20.4775 15.4091 19.7598 16.0218 18.9149 16.3847C18.0697 16.7477 17.138 16.8432 16.2388 16.6577C15.3399 16.4722 14.518 16.0152 13.8756 15.3489C13.8651 15.3381 13.855 15.3269 13.8452 15.3154L9.02967 9.67686C8.59562 9.23273 8.04875 8.93327 7.45809 8.81141Z" fill="#646464"/>
</svg>
