<svg width="24" height="24" viewBox="0 0 24 24" fill="none" xmlns="http://www.w3.org/2000/svg">
<path fill-rule="evenodd" clip-rule="evenodd" d="M16.3998 2.75C15.1134 2.75 13.8798 3.261 12.9702 4.1706L12.9671 4.17364L10.7499 6.36557V12.1894L16.6695 6.26982C16.9623 5.97693 17.4372 5.97692 17.7301 6.26982C18.023 6.56271 18.023 7.03758 17.7301 7.33048L14.2105 10.8501H20.0002C20.3707 10.4396 20.6687 9.96833 20.8808 9.45634C21.1245 8.86788 21.25 8.23717 21.25 7.60023C21.25 6.96329 21.1245 6.33258 20.8808 5.74413C20.6371 5.15567 20.2798 4.62098 19.8294 4.1706C19.379 3.72021 18.8443 3.36295 18.2559 3.1192C17.6674 2.87545 17.0367 2.75 16.3998 2.75ZM18.5242 12.3501H12.7105L7.01052 18.0501H12.8685C12.8814 18.0501 12.8938 18.0451 12.9031 18.0362C12.9029 18.0364 12.9033 18.0359 12.9031 18.0362L18.5242 12.3501ZM4.44995 18.4894L1.46967 21.4697C1.17678 21.7626 1.17678 22.2374 1.46967 22.5303C1.76257 22.8232 2.23744 22.8232 2.53033 22.5303L5.51053 19.5501H12.8688C13.2794 19.5499 13.6734 19.3869 13.9639 19.0967L13.9672 19.0934L20.8901 12.0905C20.8906 12.09 20.8911 12.0895 20.8917 12.0889C21.4806 11.4996 21.9478 10.8001 22.2666 10.0304C22.5857 9.25991 22.75 8.43415 22.75 7.60023C22.75 6.76631 22.5857 5.94055 22.2666 5.1701C21.9475 4.39966 21.4797 3.69961 20.8901 3.10994C20.3004 2.52027 19.6004 2.05251 18.8299 1.73338C18.0595 1.41425 17.2337 1.25 16.3998 1.25C14.7163 1.25 13.1018 1.91848 11.911 3.10843C11.9105 3.10893 11.91 3.10944 11.9095 3.10994L9.48499 5.50677C9.47666 5.51465 9.4685 5.52271 9.46054 5.53095L4.90667 10.0328L4.90332 10.0362C4.61319 10.3266 4.45014 10.7203 4.44995 11.1308V18.4894ZM5.94995 16.9894V11.1315C5.94996 11.1186 5.95497 11.1062 5.96392 11.0969L9.24989 7.84845V13.6894L5.94995 16.9894Z" fill="#646464"/>
</svg>
