<svg width="24" height="24" viewBox="0 0 24 24" fill="none" xmlns="http://www.w3.org/2000/svg">
<path d="M10.9799 10.7175C13.3907 10.7175 15.3509 8.76171 15.3509 6.35876C15.3509 3.9558 13.3907 2 10.9799 2C8.5692 2 6.60893 3.9558 6.60893 6.35876C6.60893 8.76171 8.5692 10.7175 10.9799 10.7175ZM10.9799 3.53838C12.5401 3.53838 13.8082 4.80294 13.8082 6.35876C13.8082 7.91458 12.5401 9.17913 10.9799 9.17913C9.41974 9.17913 8.15164 7.91458 8.15164 6.35876C8.15164 4.80294 9.41974 3.53838 10.9799 3.53838ZM4.5427 18.1736C4.5427 19.7766 5.23486 20.4606 6.85676 20.4606H14.056C14.4818 20.4606 14.8274 20.8052 14.8274 21.2298C14.8274 21.6544 14.4818 21.999 14.056 21.999H6.85676C4.36992 21.999 3 20.6401 3 18.1736C3 15.4434 4.54888 12.2559 8.9137 12.2559H13.0276C15.8199 12.2559 17.2484 13.5635 17.955 14.6609C18.1854 15.0178 18.0814 15.4937 17.7225 15.7234C17.3635 15.9531 16.8875 15.8496 16.6571 15.4917C15.931 14.3656 14.7091 13.7943 13.0276 13.7943H8.9137C4.85844 13.7943 4.5427 17.147 4.5427 18.1736ZM20.772 20.6862C21.0733 20.9867 21.0733 21.4739 20.772 21.7744C20.6218 21.9241 20.4243 22 20.2269 22C20.0294 22 19.8319 21.9252 19.6817 21.7744L18.6842 20.7796L17.6866 21.7744C17.5364 21.9241 17.3389 22 17.1415 22C16.944 22 16.7465 21.9252 16.5963 21.7744C16.295 21.4739 16.295 20.9867 16.5963 20.6862L17.5939 19.6914L16.5963 18.6966C16.295 18.3961 16.295 17.9089 16.5963 17.6084C16.8977 17.3079 17.3862 17.3079 17.6876 17.6084L18.6852 18.6032L19.6828 17.6084C19.9841 17.3079 20.4727 17.3079 20.774 17.6084C21.0753 17.9089 21.0753 18.3961 20.774 18.6966L19.7764 19.6914L20.772 20.6862Z" fill="#646464"/>
</svg>
