<svg width="24" height="24" viewBox="0 0 24 24" fill="none" xmlns="http://www.w3.org/2000/svg">
<path d="M18.1538 3H5.84615C3.36615 3 2 4.37006 2 6.85714V17.1429C2 19.6299 3.36615 21 5.84615 21H18.1538C20.6338 21 22 19.6299 22 17.1429V6.85714C22 4.37006 20.6338 3 18.1538 3ZM5.84615 4.54286H18.1538C19.7713 4.54286 20.4615 5.23509 20.4615 6.85714V13.2229L16.3487 9.09936C15.6718 8.41947 14.4821 8.41947 13.8051 9.09936L8.92308 13.9944L8.14358 13.2136C7.46666 12.5338 6.27693 12.5338 5.60001 13.2136L3.53846 15.2811V6.85714C3.53846 5.23509 4.22872 4.54286 5.84615 4.54286ZM18.1538 19.4571H5.84615C4.33641 19.4571 3.64304 18.8441 3.55586 17.4442L6.68712 14.304C6.81738 14.1744 6.92508 14.1744 7.05534 14.304L8.01851 15.2698C8.49748 15.7512 9.34772 15.7501 9.82465 15.2698L14.8913 10.1887C15.0215 10.0591 15.1292 10.0591 15.2595 10.1887L20.4595 15.4036V17.1429C20.4616 18.7649 19.7713 19.4571 18.1538 19.4571ZM6.61539 8.91429C6.61539 8.20457 7.18974 7.62857 7.89744 7.62857C8.60513 7.62857 9.17949 8.20457 9.17949 8.91429C9.17949 9.624 8.60513 10.2 7.89744 10.2C7.18974 10.2 6.61539 9.624 6.61539 8.91429Z" fill="#646464"/>
</svg>
