<svg width="24" height="24" viewBox="0 0 24 24" fill="none" xmlns="http://www.w3.org/2000/svg">
<path d="M18.5833 4.57685C18.4809 4.13657 18.2899 3.72172 18.0221 3.35754C17.7543 2.99336 17.4152 2.68746 17.0255 2.45845C16.6357 2.22943 16.2035 2.08208 15.755 2.02536C15.3065 1.96865 14.8512 2.00374 14.4167 2.12852L12.98 2.53935C12.6161 2.64395 12.2809 2.83037 12 3.08435C11.7191 2.83037 11.3839 2.64395 11.02 2.53935L9.58333 2.12852C9.14911 2.00439 8.6942 1.9698 8.2462 2.02683C7.7982 2.08386 7.36646 2.23134 6.97719 2.4603C6.58792 2.68927 6.24924 2.99494 5.9817 3.35878C5.71416 3.72262 5.52334 4.13703 5.42083 4.57685C4.46233 4.75124 3.59524 5.25599 2.97028 6.00335C2.34531 6.75072 2.002 7.69345 2 8.66769L2 14.501C2.00132 15.6057 2.44073 16.6647 3.22185 17.4458C4.00296 18.227 5.062 18.6664 6.16667 18.6677H11.1667V20.3344H8.66667C8.44565 20.3344 8.23369 20.4222 8.07741 20.5784C7.92113 20.7347 7.83333 20.9467 7.83333 21.1677C7.83333 21.3887 7.92113 21.6007 8.07741 21.7569C8.23369 21.9132 8.44565 22.001 8.66667 22.001H15.3333C15.5543 22.001 15.7663 21.9132 15.9226 21.7569C16.0789 21.6007 16.1667 21.3887 16.1667 21.1677C16.1667 20.9467 16.0789 20.7347 15.9226 20.5784C15.7663 20.4222 15.5543 20.3344 15.3333 20.3344H12.8333V18.6677H17.8333C18.938 18.6664 19.997 18.227 20.7782 17.4458C21.5593 16.6647 21.9987 15.6057 22 14.501V8.66769C21.9982 7.69405 21.6555 6.75179 21.0313 6.00451C20.4072 5.25723 19.5411 4.75211 18.5833 4.57685ZM12.8333 4.94352C12.8334 4.76253 12.8924 4.58649 13.0014 4.44201C13.1104 4.29753 13.2635 4.19246 13.4375 4.14269L14.875 3.73185C15.1231 3.6609 15.3842 3.64851 15.6379 3.69566C15.8916 3.74281 16.1308 3.84821 16.3368 4.00356C16.5428 4.15892 16.71 4.35998 16.825 4.59091C16.9401 4.82184 17 5.07634 17 5.33435V8.61602C16.9988 8.97765 16.8805 9.32915 16.6626 9.61779C16.4447 9.90642 16.1391 10.1166 15.7917 10.2169L12.8333 11.0619V4.94352ZM7.66667 4.00102C7.87227 3.84623 8.11104 3.74134 8.36412 3.69463C8.61721 3.64792 8.87768 3.66066 9.125 3.73185L10.5625 4.14269C10.7365 4.19246 10.8896 4.29753 10.9986 4.44201C11.1076 4.58649 11.1666 4.76253 11.1667 4.94352V11.0619L8.20833 10.2169C7.86087 10.1166 7.55528 9.90642 7.33742 9.61779C7.11955 9.32915 7.00116 8.97765 7 8.61602V5.33435C6.99915 5.07546 7.05902 4.81998 7.1748 4.58842C7.29058 4.35686 7.45905 4.15568 7.66667 4.00102ZM20.3333 14.501C20.3333 15.1641 20.0699 15.7999 19.6011 16.2688C19.1323 16.7376 18.4964 17.001 17.8333 17.001H6.16667C5.50363 17.001 4.86774 16.7376 4.3989 16.2688C3.93006 15.7999 3.66667 15.1641 3.66667 14.501V8.66769C3.6688 8.15247 3.83007 7.6505 4.12841 7.23044C4.42674 6.81038 4.84758 6.49276 5.33333 6.32102V8.61602C5.33537 9.33964 5.57201 10.0431 6.00775 10.6208C6.44348 11.1985 7.05481 11.6194 7.75 11.8202L10.6258 12.6427C11.5246 12.8989 12.4771 12.8989 13.3758 12.6427L16.2517 11.8202C16.9465 11.6191 17.5575 11.1981 17.9929 10.6204C18.4283 10.0427 18.6647 9.33942 18.6667 8.61602V6.32102C19.1524 6.49276 19.5733 6.81038 19.8716 7.23044C20.1699 7.6505 20.3312 8.15247 20.3333 8.66769V14.501Z" fill="#646464"/>
</svg>
