<svg width="24" height="24" viewBox="0 0 24 24" fill="none" xmlns="http://www.w3.org/2000/svg">
<path fill-rule="evenodd" clip-rule="evenodd" d="M6.75 6.75V17.25H8.58333V6.75H6.75ZM10.0833 11.25V6.66667C10.0833 5.88426 9.44907 5.25 8.66667 5.25H6.66667C5.88426 5.25 5.25 5.88426 5.25 6.66667V7.25H4C3.62428 7.25 3.26394 7.39926 2.99827 7.66493C2.73259 7.93061 2.58333 8.29094 2.58333 8.66667V11.25H2C1.58579 11.25 1.25 11.5858 1.25 12C1.25 12.4142 1.58579 12.75 2 12.75H2.58333V15.3333C2.58333 15.7091 2.73259 16.0694 2.99827 16.3351C3.26394 16.6007 3.62428 16.75 4 16.75H5.25V17.3333C5.25 18.1157 5.88426 18.75 6.66667 18.75H8.66667C9.44907 18.75 10.0833 18.1157 10.0833 17.3333V12.75H13.9167V17.3333C13.9167 18.1157 14.5509 18.75 15.3333 18.75H17.3333C18.1157 18.75 18.75 18.1157 18.75 17.3333V16.75H20C20.3757 16.75 20.7361 16.6007 21.0017 16.3351C21.2674 16.0694 21.4167 15.7091 21.4167 15.3333V12.75H22C22.4142 12.75 22.75 12.4142 22.75 12C22.75 11.5858 22.4142 11.25 22 11.25H21.4167V8.66667C21.4167 8.29094 21.2674 7.93061 21.0017 7.66493C20.7361 7.39926 20.3757 7.25 20 7.25H18.75V6.66667C18.75 5.88426 18.1157 5.25 17.3333 5.25H15.3333C14.5509 5.25 13.9167 5.88426 13.9167 6.66667V11.25H10.0833ZM15.4167 17.25H17.25V6.75H15.4167V17.25ZM18.75 8.75V15.25H19.9167V8.75H18.75ZM5.25 15.25V8.75H4.08333V15.25H5.25Z" fill="#646464"/>
</svg>
