<svg width="24" height="24" viewBox="0 0 24 24" fill="none" xmlns="http://www.w3.org/2000/svg">
<path d="M16.9803 21.5C16.6838 21.5 16.3863 21.4291 16.1104 21.2843L12.1221 19.1945C12.0462 19.1544 11.9558 19.1544 11.8799 19.1945L7.89467 21.2823C7.2597 21.615 6.50481 21.5596 5.9242 21.1364C5.34668 20.7144 5.06148 20.015 5.18252 19.3095L5.94261 14.8924C5.95697 14.8092 5.92923 14.7251 5.86973 14.6665L2.54514 11.4357C2.05173 10.9561 1.87637 10.2505 2.08871 9.59429C2.30105 8.93805 2.85695 8.46873 3.54014 8.36911L8.13785 7.70363C8.22196 7.6913 8.29376 7.63894 8.33069 7.56397L10.3238 3.54032C10.6418 2.89847 11.284 2.5 12 2.5C12.716 2.5 13.3582 2.89847 13.6762 3.54032L15.6682 7.56297C15.7062 7.63896 15.7781 7.6913 15.8622 7.70363L20.4598 8.36911C21.1429 8.4677 21.699 8.93702 21.9113 9.59429C22.1237 10.2505 21.9482 10.9561 21.4548 11.4357L18.1312 14.6655C18.0696 14.725 18.0431 14.8092 18.0574 14.8924L18.8175 19.3115C18.9385 20.016 18.6554 20.7154 18.0768 21.1364C17.7506 21.3778 17.366 21.5 16.9803 21.5ZM12.001 17.6242C12.2872 17.6242 12.5744 17.692 12.835 17.8286L16.8234 19.9185C16.9824 20.0027 17.1116 19.938 17.1731 19.8928C17.2347 19.8486 17.3321 19.747 17.3023 19.5744L16.5422 15.1543C16.4417 14.5689 16.6366 13.9733 17.0623 13.5605L20.3849 10.3317C20.4844 10.2351 20.468 10.1262 20.4495 10.0708C20.431 10.0143 20.3797 9.91576 20.2413 9.89522L15.6437 9.22973C15.0579 9.14552 14.5522 8.77787 14.2907 8.24795L12.2995 4.22631C12.2206 4.0661 12.079 4.04246 12.002 4.04246C11.9251 4.04246 11.7836 4.0661 11.7046 4.22631L9.71249 8.24895C9.45194 8.77784 8.94622 9.14552 8.36049 9.22973L3.76278 9.89522C3.62429 9.91576 3.57198 10.0133 3.55454 10.0708C3.53607 10.1273 3.52067 10.2351 3.61915 10.3317L6.94274 13.5615C7.36743 13.9733 7.56231 14.5689 7.46178 15.1543L6.7017 19.5714C6.67195 19.7449 6.7705 19.8466 6.83205 19.8918C6.89565 19.937 7.02069 20.0006 7.18379 19.9174L11.1691 17.8296C11.4276 17.693 11.7148 17.6242 12.001 17.6242Z" fill="#646464"/>
</svg>
