<svg width="24" height="24" viewBox="0 0 24 24" fill="none" xmlns="http://www.w3.org/2000/svg">
<path d="M21.7502 6.5C21.7502 8.844 19.8442 10.75 17.5002 10.75C15.1562 10.75 13.2502 8.844 13.2502 6.5C13.2502 4.156 15.1562 2.25 17.5002 2.25C19.8442 2.25 21.7502 4.156 21.7502 6.5ZM20.2502 6.5C20.2502 4.983 19.0172 3.75 17.5002 3.75C15.9832 3.75 14.7502 4.983 14.7502 6.5C14.7502 8.017 15.9832 9.25 17.5002 9.25C19.0172 9.25 20.2502 8.017 20.2502 6.5ZM18.2502 6.189V5.187C18.2502 4.773 17.9142 4.437 17.5002 4.437C17.0862 4.437 16.7502 4.773 16.7502 5.187V6.49899C16.7502 6.69799 16.8292 6.88901 16.9702 7.02901L17.9082 7.967C18.0542 8.113 18.2462 8.187 18.4382 8.187C18.6302 8.187 18.8223 8.114 18.9683 7.967C19.2613 7.674 19.2613 7.19901 18.9683 6.90601L18.2502 6.189Z" fill="#646464"/>
<path d="M20.6512 15.106L18.0084 13.53C16.7274 12.767 15.0745 13.138 14.2455 14.377L13.4833 15.514C11.3223 14.458 9.54441 12.676 8.48741 10.505L9.61827 9.75299C10.8593 8.92799 11.2364 7.27699 10.4774 5.99399L8.91441 3.35501C8.42841 2.53301 7.47541 2.10701 6.51841 2.29801C5.07541 2.58701 3.80435 3.47201 3.03135 4.72501C2.26135 5.97301 2.05141 7.43302 2.43541 8.83402C4.12841 14.995 9.01042 19.873 15.1744 21.565C15.6304 21.69 16.0924 21.752 16.5514 21.752C17.5014 21.752 18.4394 21.487 19.2804 20.968C20.5334 20.195 21.4184 18.924 21.7064 17.481C21.8944 16.548 21.4702 15.594 20.6512 15.106ZM20.2355 17.186C20.0285 18.222 19.3923 19.135 18.4923 19.691C17.6043 20.239 16.5674 20.391 15.5714 20.118C9.91539 18.566 5.4354 14.089 3.8834 8.43601C3.6094 7.44001 3.76043 6.402 4.30943 5.512C4.86543 4.611 5.77743 3.97602 6.83043 3.76502C6.87943 3.75502 6.9294 3.75 6.9774 3.75C7.2394 3.75 7.48739 3.88699 7.62339 4.11899L9.18638 6.758C9.53938 7.353 9.36443 8.11999 8.78843 8.50299L7.1273 9.60801C6.8283 9.807 6.71245 10.19 6.85045 10.521C8.09145 13.495 10.5015 15.912 13.4645 17.15C13.7905 17.287 14.1763 17.174 14.3763 16.876L15.4913 15.211C15.8763 14.636 16.6413 14.462 17.2403 14.817L19.8834 16.393C20.1564 16.557 20.2985 16.875 20.2355 17.186Z" fill="#646464"/>
</svg>
