<svg width="24" height="24" viewBox="0 0 24 24" fill="none" xmlns="http://www.w3.org/2000/svg">
<path fill-rule="evenodd" clip-rule="evenodd" d="M9.45346 13.1786C10.4226 12.2095 11.7369 11.665 13.1074 11.665C14.4779 11.665 15.7923 12.2095 16.7614 13.1786C17.7305 14.1477 18.2749 15.462 18.2749 16.8325C18.2749 18.203 17.7305 19.5174 16.7614 20.4865C15.7923 21.4556 14.4779 22 13.1074 22C11.7369 22 10.4226 21.4556 9.45346 20.4865C8.48437 19.5174 7.93994 18.203 7.93994 16.8325C7.93994 15.462 8.48437 14.1477 9.45346 13.1786ZM13.1074 13.0131C12.0945 13.0131 11.123 13.4155 10.4067 14.1318C9.69039 14.8481 9.28798 15.8195 9.28798 16.8325C9.28798 17.8455 9.69039 18.817 10.4067 19.5333C11.123 20.2496 12.0945 20.652 13.1074 20.652C14.1204 20.652 15.0919 20.2496 15.8082 19.5333C16.5245 18.817 16.9269 17.8455 16.9269 16.8325C16.9269 15.8195 16.5245 14.8481 15.8082 14.1318C15.0919 13.4155 14.1204 13.0131 13.1074 13.0131Z" fill="#646464"/>
<path fill-rule="evenodd" clip-rule="evenodd" d="M3.64383 7.10825C4.61293 6.13916 5.9273 5.59473 7.2978 5.59473C8.6683 5.59473 9.98268 6.13916 10.9518 7.10825C11.5817 7.73816 12.0322 8.51396 12.2703 9.35615C12.3716 9.71435 12.1634 10.0869 11.8052 10.1882C11.447 10.2894 11.0745 10.0812 10.9732 9.72298C10.7971 9.1004 10.4641 8.52702 9.99856 8.06146C9.28227 7.34517 8.31078 6.94277 7.2978 6.94277C6.28482 6.94277 5.31333 7.34517 4.59704 8.06146C3.88076 8.77774 3.47835 9.74924 3.47835 10.7622C3.47835 11.7752 3.88076 12.7467 4.59704 13.463C5.03235 13.8983 5.56189 14.2177 6.13781 14.4013C6.49247 14.5143 6.68833 14.8935 6.57526 15.2482C6.46219 15.6028 6.08302 15.7987 5.72836 15.6856C4.94931 15.4373 4.2328 15.0051 3.64383 14.4162C2.67474 13.4471 2.13031 12.1327 2.13031 10.7622C2.13031 9.39171 2.67474 8.07734 3.64383 7.10825Z" fill="#646464"/>
<path fill-rule="evenodd" clip-rule="evenodd" d="M21.6722 8.26761C21.9354 8.53083 21.9354 8.95759 21.6722 9.22082L16.8193 14.0738C16.556 14.337 16.1293 14.337 15.8661 14.0738C15.6028 13.8105 15.6028 13.3838 15.8661 13.1206L20.719 8.26761C20.9822 8.00439 21.409 8.00439 21.6722 8.26761Z" fill="#646464"/>
<path fill-rule="evenodd" clip-rule="evenodd" d="M15.8626 2.19742C16.1259 2.46064 16.1259 2.8874 15.8626 3.15062L11.0097 8.00357C10.7465 8.26679 10.3197 8.26679 10.0565 8.00357C9.79326 7.74035 9.79326 7.31358 10.0565 7.05036L14.9094 2.19742C15.1727 1.93419 15.5994 1.93419 15.8626 2.19742Z" fill="#646464"/>
<path fill-rule="evenodd" clip-rule="evenodd" d="M16.0281 8.74421C16.0281 8.37196 16.3299 8.07019 16.7022 8.07019H21.1956C21.5679 8.07019 21.8696 8.37196 21.8696 8.74421C21.8696 9.11646 21.5679 9.41823 21.1956 9.41823H16.7022C16.3299 9.41823 16.0281 9.11646 16.0281 8.74421Z" fill="#646464"/>
<path fill-rule="evenodd" clip-rule="evenodd" d="M10.2186 2.67402C10.2186 2.30177 10.5203 2 10.8926 2H15.3861C15.7583 2 16.0601 2.30177 16.0601 2.67402C16.0601 3.04627 15.7583 3.34804 15.3861 3.34804H10.8926C10.5203 3.34804 10.2186 3.04627 10.2186 2.67402Z" fill="#646464"/>
<path fill-rule="evenodd" clip-rule="evenodd" d="M21.1956 8.07019C21.5679 8.07019 21.8696 8.37196 21.8696 8.74421V13.2377C21.8696 13.6099 21.5679 13.9117 21.1956 13.9117C20.8234 13.9117 20.5216 13.6099 20.5216 13.2377V8.74421C20.5216 8.37196 20.8234 8.07019 21.1956 8.07019Z" fill="#646464"/>
<path fill-rule="evenodd" clip-rule="evenodd" d="M15.3861 2C15.7583 2 16.0601 2.30177 16.0601 2.67402V7.16749C16.0601 7.53974 15.7583 7.84151 15.3861 7.84151C15.0138 7.84151 14.712 7.53974 14.712 7.16749V2.67402C14.712 2.30177 15.0138 2 15.3861 2Z" fill="#646464"/>
</svg>
