<svg width="24" height="24" viewBox="0 0 24 24" fill="none" xmlns="http://www.w3.org/2000/svg">
<path fill-rule="evenodd" clip-rule="evenodd" d="M12 2C12.291 2 12.5596 2.15591 12.704 2.40854L17.0283 9.9761C17.1717 10.2271 17.1707 10.5354 17.0256 10.7853C16.8805 11.0353 16.6134 11.1892 16.3243 11.1892H7.67568C7.38665 11.1892 7.11947 11.0353 6.9744 10.7853C6.82933 10.5354 6.8283 10.2271 6.9717 9.9761L11.296 2.40854C11.4404 2.15591 11.709 2 12 2ZM9.07285 9.56757H14.9272L12 4.44505L9.07285 9.56757Z" fill="#646464"/>
<path fill-rule="evenodd" clip-rule="evenodd" d="M14.5388 15.0793C15.2991 14.319 16.3302 13.8919 17.4054 13.8919C18.4806 13.8919 19.5118 14.319 20.2721 15.0793C21.0324 15.8396 21.4595 16.8708 21.4595 17.946C21.4595 19.0212 21.0324 20.0523 20.2721 20.8126C19.5118 21.5729 18.4806 22 17.4054 22C16.3302 22 15.2991 21.5729 14.5388 20.8126C13.7785 20.0523 13.3514 19.0212 13.3514 17.946C13.3514 16.8708 13.7785 15.8396 14.5388 15.0793ZM17.4054 15.5135C16.7603 15.5135 16.1416 15.7698 15.6854 16.226C15.2293 16.6821 14.973 17.3008 14.973 17.946C14.973 18.5911 15.2293 19.2098 15.6854 19.666C16.1416 20.1221 16.7603 20.3784 17.4054 20.3784C18.0506 20.3784 18.6693 20.1221 19.1254 19.666C19.5816 19.2098 19.8379 18.5911 19.8379 17.946C19.8379 17.3008 19.5816 16.6821 19.1254 16.226C18.6693 15.7698 18.0506 15.5135 17.4054 15.5135Z" fill="#646464"/>
<path fill-rule="evenodd" clip-rule="evenodd" d="M4.43242 15.5135C4.36074 15.5135 4.292 15.542 4.24131 15.5927C4.19062 15.6434 4.16215 15.7121 4.16215 15.7838V20.1081C4.16215 20.1798 4.19062 20.2485 4.24131 20.2992C4.29199 20.3499 4.36074 20.3784 4.43242 20.3784H8.75674C8.82842 20.3784 8.89717 20.3499 8.94785 20.2992C8.99854 20.2485 9.02701 20.1798 9.02701 20.1081V15.7838C9.02701 15.7121 8.99854 15.6434 8.94785 15.5927C8.89717 15.542 8.82842 15.5135 8.75674 15.5135H4.43242ZM3.09465 14.446C3.44945 14.0912 3.93066 13.8919 4.43242 13.8919H8.75674C9.2585 13.8919 9.73971 14.0912 10.0945 14.446C10.4493 14.8008 10.6486 15.282 10.6486 15.7838V20.1081C10.6486 20.6099 10.4493 21.0911 10.0945 21.4459C9.73971 21.8007 9.2585 22 8.75674 22H4.43242C3.93066 22 3.44945 21.8007 3.09465 21.4459C2.73985 21.0911 2.54053 20.6099 2.54053 20.1081V15.7838C2.54053 15.282 2.73985 14.8008 3.09465 14.446Z" fill="#646464"/>
</svg>
