<svg width="24" height="24" viewBox="0 0 24 24" fill="none" xmlns="http://www.w3.org/2000/svg">
<path d="M17.5835 10.306C17.2026 9.92747 17.0426 9.38795 17.1551 8.86382L18.0335 4.79085C18.2059 3.99492 18.0728 3.27694 17.6609 2.77127C17.375 2.41946 16.8124 2 15.7626 2H8.23844C7.1876 2 6.62606 2.41946 6.34013 2.77127C5.92826 3.27796 5.79614 3.99492 5.96749 4.79085L6.84592 8.86382C6.95844 9.38795 6.79845 9.92747 6.41652 10.306C4.85884 11.8537 4 13.9134 4 16.1023C4 16.5269 4.34684 16.8715 4.77419 16.8715H11.2258V21.2307C11.2258 21.6554 11.5726 22 12 22C12.4274 22 12.7742 21.6554 12.7742 21.2307V16.8715H19.2258C19.6532 16.8715 20 16.5269 20 16.1023C20 13.9134 19.1412 11.8547 17.5835 10.306ZM5.59173 15.334C5.76309 13.8467 6.42994 12.4692 7.51071 11.3942C8.26529 10.6445 8.58219 9.57877 8.35922 8.54179L7.48078 4.46882C7.41162 4.14573 7.43434 3.87298 7.54376 3.73862C7.68621 3.56425 8.03921 3.53854 8.23844 3.53854H15.7626C15.9608 3.53854 16.3148 3.56425 16.4573 3.73862C16.5657 3.87298 16.5894 4.14573 16.5203 4.46882L15.6418 8.54179C15.4189 9.57877 15.7357 10.6445 16.4903 11.3942C17.5711 12.4692 18.238 13.8467 18.4093 15.334H5.59173Z" fill="#646464"/>
</svg>
