<svg width="24" height="24" viewBox="0 0 24 24" fill="none" xmlns="http://www.w3.org/2000/svg">
<path d="M21.1667 19C20.9457 19 20.7337 18.9119 20.5774 18.7551C20.4211 18.5983 20.3333 18.3856 20.3333 18.1638V13.9828C19.8742 2.88628 4.12167 2.89547 3.66667 13.9828V18.1638C3.66667 18.3856 3.57887 18.5983 3.42259 18.7551C3.26631 18.9119 3.05435 19 2.83333 19C2.61232 19 2.40036 18.9119 2.24408 18.7551C2.0878 18.5983 2 18.3856 2 18.1638V13.9828C2.55083 0.666981 21.4542 0.677851 22 13.9828V18.1638C22 18.3856 21.9122 18.5983 21.7559 18.7551C21.5996 18.9119 21.3877 19 21.1667 19ZM18.6667 18.1638V13.9828C18.3333 5.11895 5.66667 5.1248 5.33333 13.9828V18.1638C5.33333 18.3856 5.42113 18.5983 5.57741 18.7551C5.73369 18.9119 5.94565 19 6.16667 19C6.38768 19 6.59964 18.9119 6.75592 18.7551C6.9122 18.5983 7 18.3856 7 18.1638V13.9828C7.21083 7.34995 16.7917 7.35497 17 13.9828V18.1638C17 18.3856 17.0878 18.5983 17.2441 18.7551C17.4004 18.9119 17.6123 19 17.8333 19C18.0543 19 18.2663 18.9119 18.4226 18.7551C18.5789 18.5983 18.6667 18.3856 18.6667 18.1638ZM15.3333 18.1638V13.9828C15.3333 13.0956 14.9821 12.2449 14.357 11.6176C13.7319 10.9903 12.8841 10.6379 12 10.6379C11.1159 10.6379 10.2681 10.9903 9.64298 11.6176C9.01786 12.2449 8.66667 13.0956 8.66667 13.9828V18.1638C8.66667 18.3856 8.75446 18.5983 8.91074 18.7551C9.06702 18.9119 9.27899 19 9.5 19C9.72101 19 9.93297 18.9119 10.0893 18.7551C10.2455 18.5983 10.3333 18.3856 10.3333 18.1638V13.9828C10.3333 13.5392 10.5089 13.1138 10.8215 12.8002C11.134 12.4865 11.558 12.3103 12 12.3103C12.442 12.3103 12.8659 12.4865 13.1785 12.8002C13.4911 13.1138 13.6667 13.5392 13.6667 13.9828V18.1638C13.6667 18.3856 13.7545 18.5983 13.9107 18.7551C14.067 18.9119 14.279 19 14.5 19C14.721 19 14.933 18.9119 15.0893 18.7551C15.2455 18.5983 15.3333 18.3856 15.3333 18.1638Z" fill="#646464"/>
</svg>
