<svg width="24" height="24" viewBox="0 0 24 24" fill="none" xmlns="http://www.w3.org/2000/svg">
<path fill-rule="evenodd" clip-rule="evenodd" d="M6.44563 4.75291C6.55072 4.45175 6.83479 4.25 7.15376 4.25H14.5923C16.1137 4.25 17.3985 5.30566 17.9616 6.78488L21.5679 16.259C21.8691 17.0505 21.7796 17.896 21.4251 18.5534C21.071 19.2101 20.4033 19.75 19.5328 19.75H4.46702C3.61302 19.75 2.95137 19.2286 2.5928 18.5863C2.23398 17.9436 2.13208 17.1152 2.40612 16.3298L6.44563 4.75291ZM7.90376 18.25H9.84051C10.0323 18.25 10.2481 18.1362 10.405 17.8551C10.5617 17.5745 10.6133 17.1913 10.4851 16.824L7.90376 9.42597V18.25ZM8.20981 5.75L11.9014 16.3298C12.1297 16.9841 12.0971 17.6682 11.8724 18.25H19.5328C19.7282 18.25 19.9481 18.1322 20.1048 17.8415C20.2612 17.5515 20.3058 17.1599 20.166 16.7927L16.5597 7.3185C16.1715 6.29876 15.3697 5.75 14.5923 5.75H8.20981ZM6.40376 9.42597V18.25H4.46702C4.27527 18.25 4.05944 18.1362 3.90251 17.8551C3.74583 17.5745 3.69422 17.1913 3.82238 16.824L6.40376 9.42597Z" fill="#646464"/>
</svg>
