<svg width="24" height="24" viewBox="0 0 24 24" fill="none" xmlns="http://www.w3.org/2000/svg">
<path d="M18.6857 7.12821H16.3714V6.35897C16.3714 3.95487 14.411 2 12 2C9.58903 2 7.62857 3.95487 7.62857 6.35897V7.12821H5.31429C4.03886 7.12821 3 8.16308 3 9.4359V18.1538C3 20.6338 4.37006 22 6.85714 22H17.1429C19.6299 22 21 20.6338 21 18.1538V9.4359C21 8.16308 19.9611 7.12821 18.6857 7.12821ZM9.17143 6.35897C9.17143 4.80308 10.4397 3.53846 12 3.53846C13.5603 3.53846 14.8286 4.80308 14.8286 6.35897V7.12821H9.17143V6.35897ZM19.4571 18.1538C19.4571 19.7713 18.7649 20.4615 17.1429 20.4615H6.85714C5.23509 20.4615 4.54286 19.7713 4.54286 18.1538V9.4359C4.54286 9.01128 4.88949 8.66667 5.31429 8.66667H7.62857V10.9744C7.62857 11.399 7.97417 11.7436 8.4 11.7436C8.82583 11.7436 9.17143 11.399 9.17143 10.9744V8.66667H14.8286V10.9744C14.8286 11.399 15.1742 11.7436 15.6 11.7436C16.0258 11.7436 16.3714 11.399 16.3714 10.9744V8.66667H18.6857C19.1105 8.66667 19.4571 9.01128 19.4571 9.4359V18.1538Z" fill="#646464"/>
</svg>
