<svg width="24" height="24" viewBox="0 0 24 24" fill="none" xmlns="http://www.w3.org/2000/svg">
<path d="M20.03 8.47L14.03 2.47C13.889 2.329 13.699 2.25 13.5 2.25H7.5C5.082 2.25 3.75 3.582 3.75 6V18C3.75 20.418 5.082 21.75 7.5 21.75H16.5C18.918 21.75 20.25 20.418 20.25 18V9C20.25 8.801 20.171 8.61 20.03 8.47ZM14.25 4.811L17.689 8.25H16.5C14.923 8.25 14.25 7.577 14.25 6V4.811ZM16.5 20.25H7.5C5.923 20.25 5.25 19.577 5.25 18V6C5.25 4.423 5.923 3.75 7.5 3.75H12.75V6C12.75 8.418 14.082 9.75 16.5 9.75H18.75V18C18.75 19.577 18.077 20.25 16.5 20.25ZM14.53 12.53L13.0601 14L14.53 15.47C14.823 15.763 14.823 16.238 14.53 16.531C14.384 16.677 14.192 16.751 14 16.751C13.808 16.751 13.616 16.678 13.47 16.531L12 15.061L10.53 16.531C10.384 16.677 10.192 16.751 10 16.751C9.808 16.751 9.61597 16.678 9.46997 16.531C9.17697 16.238 9.17697 15.763 9.46997 15.47L10.9399 14L9.46997 12.53C9.17697 12.237 9.17697 11.762 9.46997 11.469C9.76297 11.176 10.238 11.176 10.531 11.469L12.001 12.939L13.4709 11.469C13.7639 11.176 14.239 11.176 14.532 11.469C14.825 11.762 14.823 12.237 14.53 12.53Z" fill="#646464"/>
</svg>
