<svg width="24" height="24" viewBox="0 0 24 24" fill="none" xmlns="http://www.w3.org/2000/svg">
<path d="M21.1667 17.8332C20.9457 17.8332 20.7337 17.921 20.5774 18.0773C20.4211 18.2335 20.3333 18.4455 20.3333 18.6665C20.3333 19.1085 20.1577 19.5325 19.8452 19.845C19.5326 20.1576 19.1087 20.3332 18.6667 20.3332H15.3333V16.9998H17.0833C17.9449 16.9987 18.771 16.656 19.3802 16.0467C19.9895 15.4375 20.3322 14.6115 20.3333 13.7498C20.331 12.5947 19.9298 11.4757 19.1974 10.5824C18.465 9.68902 17.4465 9.07611 16.3142 8.84734L13.0833 8.19984C12.742 8.13182 12.4304 7.95862 12.1925 7.70454C11.9546 7.45047 11.8022 7.12827 11.7567 6.78317L11.4167 4.14651C11.3673 3.80122 11.2463 3.47008 11.0613 3.17437C10.8763 2.87867 10.6315 2.62494 10.3426 2.42951C10.0537 2.23408 9.72705 2.10127 9.38374 2.03961C9.04043 1.97796 8.68802 1.98882 8.34917 2.07151L4.425 3.18317C3.72778 3.38277 3.11428 3.8035 2.67691 4.382C2.23954 4.9605 2.00198 5.66545 2 6.39067L2 13.6665C2 14.5506 2.35119 15.3984 2.97631 16.0235C3.60143 16.6487 4.44928 16.9998 5.33333 16.9998H6.16667V20.3332H2.83333C2.61232 20.3332 2.40036 20.421 2.24408 20.5773C2.0878 20.7335 2 20.9455 2 21.1665C2 21.3875 2.0878 21.5995 2.24408 21.7558C2.40036 21.912 2.61232 21.9998 2.83333 21.9998H18.6667C19.5507 21.9998 20.3986 21.6487 21.0237 21.0235C21.6488 20.3984 22 19.5506 22 18.6665C22 18.4455 21.9122 18.2335 21.7559 18.0773C21.5996 17.921 21.3877 17.8332 21.1667 17.8332ZM3.66667 13.6665V6.39067C3.6679 6.02807 3.78677 5.67567 4.00541 5.3864C4.22406 5.09713 4.53066 4.88663 4.87917 4.78651L8.75583 3.68651C8.81634 3.67336 8.87808 3.66666 8.94 3.66651C9.13872 3.66698 9.33073 3.73845 9.4814 3.86803C9.63206 3.99761 9.73146 4.17676 9.76167 4.37317L9.88833 5.33317H7.83333C7.61232 5.33317 7.40036 5.42097 7.24408 5.57725C7.0878 5.73353 7 5.94549 7 6.16651C7 6.38752 7.0878 6.59948 7.24408 6.75576C7.40036 6.91204 7.61232 6.99984 7.83333 6.99984H10.1075C10.1448 7.26126 10.2133 7.51726 10.3117 7.76234L8.3625 8.94817C8.17364 9.06299 8.03813 9.24813 7.98578 9.46286C7.95986 9.56918 7.95513 9.67957 7.97187 9.78772C7.98861 9.89587 8.02648 9.99966 8.08333 10.0932C8.14018 10.1867 8.2149 10.2681 8.30321 10.3327C8.39152 10.3974 8.49169 10.444 8.59802 10.4699C8.81275 10.5222 9.03948 10.4872 9.22833 10.3723L11.2833 9.12234C11.5032 9.30409 11.7458 9.45647 12.005 9.57567L10.8592 11.5865C10.7498 11.7786 10.7211 12.0062 10.7796 12.2194C10.838 12.4326 10.9788 12.6138 11.1708 12.7232C11.3629 12.8326 11.5905 12.8612 11.8037 12.8028C12.0169 12.7443 12.1981 12.6036 12.3075 12.4115L13.6725 10.0165L15.9867 10.4798C16.7418 10.6325 17.421 11.0414 17.9094 11.6373C18.3977 12.2331 18.6652 12.9794 18.6667 13.7498C18.6667 14.1698 18.4999 14.5725 18.2029 14.8694C17.906 15.1664 17.5033 15.3332 17.0833 15.3332H5.33333C4.89131 15.3332 4.46738 15.1576 4.15482 14.845C3.84226 14.5325 3.66667 14.1085 3.66667 13.6665ZM7.83333 16.9998H13.6667V20.3332H7.83333V16.9998Z" fill="#646464"/>
</svg>
