<svg width="24" height="24" viewBox="0 0 24 24" fill="none" xmlns="http://www.w3.org/2000/svg">
<path d="M18.1538 2.5H5.84615C3.36615 2.5 2 3.95217 2 6.58855V14.3304C2 16.9667 3.36615 18.4189 5.84615 18.4189H18.1538C20.6338 18.4189 22 16.9667 22 14.3304V6.58855C22 3.95217 20.6338 2.5 18.1538 2.5ZM20.4615 14.3304C20.4615 16.1164 19.7713 16.8784 18.1538 16.8784H5.84615C4.22872 16.8784 3.53846 16.1164 3.53846 14.3304V6.58855C3.53846 4.80255 4.22872 4.04054 5.84615 4.04054H18.1538C19.7713 4.04054 20.4615 4.80255 20.4615 6.58855V14.3304ZM17.8974 20.7297C17.8974 21.1549 17.5528 21.5 17.1282 21.5H6.8718C6.44718 21.5 6.10256 21.1549 6.10256 20.7297C6.10256 20.3045 6.44718 19.9595 6.8718 19.9595H17.1282C17.5528 19.9595 17.8974 20.3045 17.8974 20.7297Z" fill="#646464"/>
</svg>
