<svg width="24" height="24" viewBox="0 0 24 24" fill="none" xmlns="http://www.w3.org/2000/svg">
<path fill-rule="evenodd" clip-rule="evenodd" d="M18.9007 14.1868L20.9333 13.6482L20.9366 13.649C21.0431 13.6179 21.1547 13.6086 21.2648 13.6214C21.375 13.6343 21.4814 13.6691 21.5779 13.7239C21.6744 13.7786 21.7591 13.8522 21.8268 13.9402C21.8946 14.0283 21.9441 14.129 21.9724 14.2365C22.0007 14.3441 22.0073 14.4562 21.9918 14.5663C21.9763 14.6764 21.939 14.7823 21.8821 14.8777C21.8251 14.9732 21.7497 15.0562 21.6603 15.122C21.5709 15.1878 21.4693 15.2349 21.3614 15.2607L19.3296 15.8002C19.1775 15.8407 19.0476 15.9401 18.9684 16.0765C18.8892 16.213 18.8673 16.3754 18.9073 16.5281L19.4452 18.5659C19.5016 18.7797 19.4711 19.0073 19.3602 19.1985C19.2494 19.3897 19.0673 19.529 18.8541 19.5856C18.6409 19.6422 18.414 19.6115 18.2233 19.5004C18.0327 19.3892 17.8938 19.2066 17.8374 18.9928L17.3003 16.955C17.2208 16.656 17.2035 16.3438 17.2496 16.0378L15.0882 14.7788C14.4923 15.4498 13.6963 15.9099 12.8186 16.0903V18.5917C13.1065 18.7051 13.368 18.8768 13.5868 19.0961L15.0732 20.587C15.2246 20.7442 15.3084 20.9548 15.3065 21.1735C15.3046 21.3921 15.2172 21.6012 15.0631 21.7558C14.9089 21.9104 14.7004 21.9981 14.4824 22C14.2645 22.0019 14.0545 21.9178 13.8977 21.7659L12.4112 20.2751C12.2995 20.1642 12.1486 20.102 11.9914 20.102C11.8342 20.102 11.6834 20.1642 11.5716 20.2751L10.081 21.7659C9.92422 21.9178 9.71422 22.0019 9.49625 22C9.27827 21.9981 9.06976 21.9104 8.91563 21.7558C8.76149 21.6012 8.67406 21.3921 8.67217 21.1735C8.67027 20.9548 8.75407 20.7442 8.9055 20.587L10.3919 19.092C10.6099 18.8746 10.8699 18.7044 11.1559 18.5917V16.0903C10.2789 15.9081 9.48405 15.4466 8.8897 14.7746L6.72823 16.0336C6.77435 16.3396 6.75709 16.6518 6.67752 16.9508L6.14047 18.9886C6.11252 19.0945 6.06406 19.1938 5.99784 19.2809C5.93162 19.368 5.84894 19.4411 5.75453 19.4962C5.66012 19.5512 5.55582 19.5871 5.44759 19.6017C5.33936 19.6163 5.22932 19.6094 5.12375 19.5814C5.01818 19.5534 4.91915 19.5048 4.83231 19.4384C4.74547 19.3719 4.67252 19.289 4.61764 19.1943C4.56275 19.0996 4.527 18.995 4.51242 18.8865C4.49784 18.7779 4.50472 18.6676 4.53267 18.5617L5.07054 16.5239C5.1106 16.3712 5.08863 16.2088 5.00946 16.0724C4.93028 15.9359 4.80037 15.8365 4.64822 15.796L2.61643 15.2565C2.41665 15.1888 2.24998 15.0475 2.15018 14.8612C2.05037 14.6749 2.02489 14.4575 2.07889 14.2531C2.13289 14.0487 2.26233 13.8724 2.44101 13.7601C2.61969 13.6478 2.83425 13.6078 3.04125 13.6482L5.07387 14.1868C5.37166 14.2655 5.65011 14.4049 5.8919 14.5962L8.04839 13.3388C7.75953 12.473 7.75953 11.5365 8.04839 10.6707L5.89024 9.41667C5.64845 9.60797 5.37 9.74733 5.0722 9.82606C5.0722 9.82606 2.89826 10.3922 2.82759 10.3922C2.62621 10.3913 2.43199 10.3171 2.28104 10.1834C2.13009 10.0497 2.03266 9.86558 2.00685 9.66526C1.98105 9.46494 2.02863 9.26203 2.14074 9.09424C2.25286 8.92645 2.42189 8.80519 2.61643 8.75297L4.64822 8.21017C4.80037 8.16966 4.93028 8.07027 5.00946 7.93381C5.08863 7.79735 5.1106 7.63496 5.07054 7.48228L4.53267 5.44449C4.50472 5.33861 4.49784 5.22824 4.51242 5.11969C4.527 5.01114 4.56275 4.90654 4.61764 4.81185C4.67252 4.71716 4.74547 4.63424 4.83231 4.56782C4.91915 4.50141 5.01818 4.45279 5.12375 4.42476C5.22932 4.39673 5.33936 4.38983 5.44759 4.40445C5.55582 4.41908 5.66012 4.45494 5.75453 4.50998C5.84894 4.56503 5.93162 4.63819 5.99784 4.72529C6.06406 4.81238 6.11252 4.91171 6.14047 5.01759L6.67419 7.05537C6.75377 7.35435 6.77103 7.66657 6.7249 7.97254L8.88638 9.23157C9.48208 8.56019 10.2781 8.09986 11.1559 7.91918V5.41781C10.8699 5.30512 10.6099 5.13486 10.3919 4.91753L8.9055 3.42255C8.75407 3.26529 8.67027 3.05467 8.67217 2.83606C8.67406 2.61744 8.76149 2.40832 8.91563 2.25372C9.06976 2.09913 9.27827 2.01144 9.49625 2.00954C9.71422 2.00764 9.92422 2.09169 10.081 2.24357L11.5674 3.73439C11.6792 3.84528 11.8301 3.90749 11.9873 3.90749C12.1445 3.90749 12.2953 3.84528 12.4071 3.73439L13.8935 2.24357C14.05 2.08722 14.2619 1.99961 14.4827 2C14.7036 2.00039 14.9152 2.08876 15.0711 2.24565C15.227 2.40255 15.3143 2.61512 15.314 2.83662C15.3136 3.05811 15.2255 3.27037 15.069 3.42672L13.5826 4.91753C13.3647 5.13486 13.1047 5.30512 12.8186 5.41781V7.91918C13.6956 8.10143 14.4905 8.56291 15.0848 9.2349L17.2463 7.97588C17.2002 7.66991 17.2174 7.35769 17.297 7.05871L17.8341 5.02092C17.862 4.91504 17.9105 4.81572 17.9767 4.72862C18.0429 4.64153 18.1256 4.56837 18.22 4.51332C18.3144 4.45827 18.4187 4.42241 18.5269 4.40779C18.6352 4.39317 18.7452 4.40007 18.8508 4.4281C18.9564 4.45613 19.0554 4.50474 19.1422 4.57116C19.2291 4.63757 19.302 4.72049 19.3569 4.81518C19.4118 4.90987 19.4475 5.01448 19.4621 5.12303C19.4767 5.23158 19.4698 5.34194 19.4419 5.44783L18.904 7.48561C18.8639 7.6383 18.8859 7.80068 18.9651 7.93715C19.0443 8.07361 19.1742 8.173 19.3263 8.21351L21.3581 8.75297C21.5494 8.80803 21.7146 8.93008 21.8238 9.09695C21.933 9.26382 21.9789 9.46443 21.9531 9.66234C21.9273 9.86025 21.8317 10.0423 21.6834 10.1755C21.5352 10.3087 21.3442 10.3841 21.1453 10.388C21.0763 10.388 18.9007 9.82189 18.9007 9.82189C18.6029 9.74316 18.3244 9.6038 18.0826 9.4125L15.9261 10.6707C16.215 11.5365 16.215 12.473 15.9261 13.3388L18.0826 14.5962C18.3244 14.4049 18.6029 14.2655 18.9007 14.1868ZM12 14.7246C13.4974 14.7246 14.7112 13.5071 14.7112 12.0053C14.7112 10.5036 13.4974 9.28613 12 9.28613C10.5027 9.28613 9.28881 10.5036 9.28881 12.0053C9.28881 13.5071 10.5027 14.7246 12 14.7246Z" fill="#646464"/>
</svg>
