<svg width="24" height="24" viewBox="0 0 24 24" fill="none" xmlns="http://www.w3.org/2000/svg">
<path fill-rule="evenodd" clip-rule="evenodd" d="M16.0871 3.46341L12.7671 6.78344C11.9814 6.21439 11.0312 5.90244 10.0488 5.90244C8.81971 5.90244 7.64099 6.39068 6.77192 7.25975C5.90285 8.12882 5.41461 9.30753 5.41461 10.5366C5.41461 11.7656 5.90285 12.9444 6.77192 13.8134C7.4813 14.5228 8.39698 14.9784 9.37794 15.1219C9.33878 15.2116 9.31705 15.3106 9.31705 15.4146V17.6098H7.12193C6.71782 17.6098 6.39022 17.9374 6.39022 18.3415C6.39022 18.7456 6.71782 19.0732 7.12193 19.0732H9.31705V21.2683C9.31705 21.6724 9.64465 22 10.0488 22C10.4529 22 10.7805 21.6724 10.7805 21.2683V19.0732H12.9756C13.3797 19.0732 13.7073 18.7456 13.7073 18.3415C13.7073 17.9374 13.3797 17.6098 12.9756 17.6098H10.7805V15.4146C10.7805 15.3106 10.7587 15.2116 10.7196 15.1219C11.7005 14.9784 12.6162 14.5228 13.3256 13.8134C14.1947 12.9444 14.6829 11.7656 14.6829 10.5366C14.6829 9.55416 14.371 8.6039 13.8019 7.81823L17.1219 4.49821V6.63415C17.1219 7.03826 17.4495 7.36585 17.8536 7.36585C18.2577 7.36585 18.5853 7.03826 18.5853 6.63415V2.73171C18.5853 2.54445 18.5139 2.35719 18.371 2.21431C18.3009 2.14416 18.22 2.09123 18.1337 2.05552C18.0474 2.01975 17.9528 2 17.8536 2H13.9512C13.5471 2 13.2195 2.3276 13.2195 2.73171C13.2195 3.13582 13.5471 3.46341 13.9512 3.46341H16.0871ZM10.0488 7.36585C9.20783 7.36585 8.40134 7.69991 7.80671 8.29454C7.21208 8.88917 6.87803 9.69565 6.87803 10.5366C6.87803 11.3775 7.21208 12.184 7.80671 12.7786C8.40134 13.3733 9.20783 13.7073 10.0488 13.7073C10.8897 13.7073 11.6962 13.3733 12.2908 12.7786C12.8854 12.184 13.2195 11.3775 13.2195 10.5366C13.2195 9.69565 12.8854 8.88917 12.2908 8.29454C11.6962 7.69991 10.8897 7.36585 10.0488 7.36585Z" fill="#646464"/>
</svg>
