<svg width="24" height="24" viewBox="0 0 24 24" fill="none" xmlns="http://www.w3.org/2000/svg">
<path d="M18.5376 13.3805L15.9885 10.1351C16.5351 10.0231 17.0069 9.68308 17.2589 9.17043C17.568 8.54271 17.4912 7.8112 17.0577 7.26157L13.4395 2.66418C12.7426 1.77861 11.2575 1.77861 10.5606 2.66418L6.94233 7.26157C6.50885 7.81223 6.43211 8.54374 6.74115 9.17043C6.99419 9.68308 7.46501 10.0231 8.01154 10.1351L5.46145 13.3815C4.94604 14.0391 4.85581 14.9123 5.22396 15.6582C5.59211 16.402 6.33981 16.8642 7.17568 16.8642H11.2222V21.2295C11.2222 21.6548 11.5707 22 12 22C12.4294 22 12.7778 21.6548 12.7778 21.2295V16.8632H16.8244C17.6603 16.8632 18.408 16.4009 18.7761 15.6571C19.1443 14.9112 19.054 14.039 18.5376 13.3805ZM8.16918 8.20778L11.7875 3.61034C11.858 3.51993 11.9513 3.50662 12.0011 3.50662C12.0509 3.50662 12.1431 3.51993 12.2147 3.61034L15.833 8.20778C15.9242 8.32387 15.891 8.43587 15.863 8.4934C15.835 8.54991 15.7666 8.6444 15.6204 8.6444H8.38385C8.23659 8.6444 8.16813 8.54991 8.14117 8.4934C8.11109 8.4369 8.07792 8.32387 8.16918 8.20778ZM17.3792 14.9791C17.3284 15.0818 17.1718 15.3222 16.8244 15.3222H7.17568C6.82826 15.3222 6.6727 15.0828 6.62085 14.9791C6.569 14.8753 6.47256 14.6031 6.68931 14.3257L9.94151 10.1844H14.0576L17.3087 14.3246C17.5265 14.603 17.43 14.8753 17.3792 14.9791Z" fill="#646464"/>
</svg>
