<svg width="24" height="24" viewBox="0 0 24 24" fill="none" xmlns="http://www.w3.org/2000/svg">
<path fill-rule="evenodd" clip-rule="evenodd" d="M12 2.75C8.53765 2.75 5.75 5.51239 5.75 8.89655C5.75 12.2807 8.53765 15.0431 12 15.0431C15.4623 15.0431 18.25 12.2807 18.25 8.89655C18.25 5.51239 15.4623 2.75 12 2.75ZM4.25 8.89655C4.25 4.66299 7.73036 1.25 12 1.25C16.2696 1.25 19.75 4.66299 19.75 8.89655C19.75 13.1301 16.2696 16.5431 12 16.5431C7.73036 16.5431 4.25 13.1301 4.25 8.89655ZM7.79817 17.5976C7.94422 17.21 8.37684 17.0142 8.76445 17.1602C9.79116 17.5471 10.8804 17.8017 12 17.8017C13.1196 17.8017 14.2088 17.5471 15.2356 17.1602C15.6232 17.0142 16.0558 17.21 16.2018 17.5976C16.3479 17.9852 16.1521 18.4179 15.7644 18.5639C14.833 18.9149 13.8192 19.1825 12.75 19.2706V22C12.75 22.4142 12.4142 22.75 12 22.75C11.5858 22.75 11.25 22.4142 11.25 22V19.2706C10.1808 19.1825 9.16703 18.9149 8.23555 18.5639C7.84794 18.4179 7.65212 17.9852 7.79817 17.5976Z" fill="#646464"/>
<path d="M15.5 11C16.3284 11 17 10.3284 17 9.5C17 8.67157 16.3284 8 15.5 8C14.6716 8 14 8.67157 14 9.5C14 10.3284 14.6716 11 15.5 11Z" fill="#646464"/>
<path d="M12.5 14C13.3284 14 14 13.3284 14 12.5C14 11.6716 13.3284 11 12.5 11C11.6716 11 11 11.6716 11 12.5C11 13.3284 11.6716 14 12.5 14Z" fill="#646464"/>
</svg>
