<svg width="24" height="24" viewBox="0 0 24 24" fill="none" xmlns="http://www.w3.org/2000/svg">
<path fill-rule="evenodd" clip-rule="evenodd" d="M6.15385 4.25C5.97907 4.25 5.80238 4.32303 5.6653 4.46798C5.52687 4.61436 5.44231 4.8214 5.44231 5.04545V19.75H14.1731V5.04545C14.1731 4.8214 14.0885 4.61436 13.9501 4.46798C13.813 4.32303 13.6363 4.25 13.4615 4.25H6.15385ZM15.6731 9.70455V5.04545C15.6731 4.44975 15.4497 3.87061 15.0399 3.43732C14.6288 3.00262 14.062 2.75 13.4615 2.75H6.15385C5.55337 2.75 4.98656 3.00262 4.57546 3.43732C4.16571 3.87061 3.94231 4.44975 3.94231 5.04545V19.75H2.5C2.08579 19.75 1.75 20.0858 1.75 20.5C1.75 20.9142 2.08579 21.25 2.5 21.25H17.1154C17.5296 21.25 17.8654 20.9142 17.8654 20.5C17.8654 20.0858 17.5296 19.75 17.1154 19.75H15.6731V11.2045H17.1154C17.2902 11.2045 17.4668 11.2776 17.6039 11.4225C17.7424 11.5689 17.8269 11.7759 17.8269 12V15.8636C17.8269 16.4593 18.0503 17.0385 18.4601 17.4718C18.8712 17.9065 19.438 18.1591 20.0385 18.1591C20.6389 18.1591 21.2057 17.9065 21.6168 17.4718C22.0266 17.0385 22.25 16.4593 22.25 15.8636V8.00415C22.25 8.00411 22.25 8.00419 22.25 8.00415C22.25 7.70819 22.195 7.41413 22.087 7.13864C21.9791 6.86314 21.8198 6.61021 21.6165 6.3953C21.6164 6.39524 21.6166 6.39535 21.6165 6.3953L19.8526 4.53012C19.568 4.22918 19.0933 4.21593 18.7924 4.50054C18.4914 4.78515 18.4782 5.25983 18.7628 5.56078L20.5267 7.42595C20.5949 7.49811 20.6513 7.5862 20.6904 7.68585C20.7295 7.78556 20.75 7.89375 20.75 8.00392V15.8636C20.75 16.0877 20.6654 16.2947 20.527 16.4411C20.3899 16.5861 20.2132 16.6591 20.0385 16.6591C19.8637 16.6591 19.687 16.5861 19.5499 16.4411C19.4115 16.2947 19.3269 16.0877 19.3269 15.8636V12C19.3269 11.4043 19.1035 10.8252 18.6938 10.3919C18.2827 9.95717 17.7159 9.70455 17.1154 9.70455H15.6731ZM6.86538 10.4545C6.86538 10.0403 7.20117 9.70455 7.61538 9.70455H12C12.4142 9.70455 12.75 10.0403 12.75 10.4545C12.75 10.8688 12.4142 11.2045 12 11.2045H7.61538C7.20117 11.2045 6.86538 10.8688 6.86538 10.4545Z" fill="#646464"/>
</svg>
