<svg width="24" height="24" viewBox="0 0 24 24" fill="none" xmlns="http://www.w3.org/2000/svg">
<path fill-rule="evenodd" clip-rule="evenodd" d="M21.9495 3.02902L15.3963 21.1765C15.3891 21.1962 15.3812 21.2156 15.3724 21.2347C15.2678 21.4631 15.0998 21.6566 14.8884 21.7922C14.677 21.9279 14.4311 22 14.1799 22C13.9288 22 13.6829 21.9279 13.4715 21.7922C13.2645 21.6594 13.0991 21.471 12.994 21.2488L9.57973 14.4203L2.75116 11.006C2.52896 10.9009 2.34063 10.7355 2.20777 10.5285C2.07211 10.3171 2 10.0712 2 9.82005C2 9.56888 2.07211 9.32298 2.20777 9.11159C2.34343 8.90019 2.53693 8.7322 2.76528 8.62756C2.78435 8.61881 2.80378 8.61087 2.82351 8.60375L20.9693 2.05111C21.2403 1.94608 21.5596 2.00292 21.7783 2.22165C21.9095 2.35285 21.9825 2.52022 21.9972 2.69165C22.002 2.74696 22.0007 2.80296 21.9931 2.85866C21.9853 2.9166 21.9708 2.9738 21.9495 3.02902ZM18.3086 4.62112L3.82572 9.85105L9.99435 12.9354L18.3086 4.62112ZM11.0646 14.0056L14.1489 20.1743L19.3789 5.6913L11.0646 14.0056Z" fill="#646464"/>
</svg>
