<svg width="24" height="24" viewBox="0 0 24 24" fill="none" xmlns="http://www.w3.org/2000/svg">
<path d="M8.3871 22H6.32258C4.86813 22 4 21.1374 4 19.6923V4.30769C4 2.86256 4.86813 2 6.32258 2H8.3871C9.84155 2 10.7097 2.86256 10.7097 4.30769V19.6923C10.7097 21.1374 9.84155 22 8.3871 22ZM6.32258 3.53846C5.71458 3.53846 5.54839 3.70359 5.54839 4.30769V19.6923C5.54839 20.2964 5.71458 20.4615 6.32258 20.4615H8.3871C8.9951 20.4615 9.16129 20.2964 9.16129 19.6923V4.30769C9.16129 3.70359 8.9951 3.53846 8.3871 3.53846H6.32258ZM17.6774 22H15.6129C14.1585 22 13.2903 21.1374 13.2903 19.6923V4.30769C13.2903 2.86256 14.1585 2 15.6129 2H17.6774C19.1319 2 20 2.86256 20 4.30769V19.6923C20 21.1374 19.1319 22 17.6774 22ZM15.6129 3.53846C15.0049 3.53846 14.8387 3.70359 14.8387 4.30769V19.6923C14.8387 20.2964 15.0049 20.4615 15.6129 20.4615H17.6774C18.2854 20.4615 18.4516 20.2964 18.4516 19.6923V4.30769C18.4516 3.70359 18.2854 3.53846 17.6774 3.53846H15.6129Z" fill="#646464"/>
</svg>
