<svg width="24" height="24" viewBox="0 0 24 24" fill="none" xmlns="http://www.w3.org/2000/svg">
<path fill-rule="evenodd" clip-rule="evenodd" d="M12 1.25C12.4142 1.25 12.75 1.58579 12.75 2V4.25L15 4.25C15.084 4.25 15.1673 4.25277 15.25 4.25823V3C15.25 2.58579 15.5858 2.25 16 2.25C16.4142 2.25 16.75 2.58579 16.75 3V4.68275C17.9388 5.31114 18.75 6.56009 18.75 8L18.75 9.32502C20.4617 9.67247 21.75 11.1858 21.75 13L21.75 21.25H22C22.4142 21.25 22.75 21.5858 22.75 22C22.75 22.4142 22.4142 22.75 22 22.75H2C1.58579 22.75 1.25 22.4142 1.25 22C1.25 21.5858 1.58579 21.25 2 21.25H2.25L2.24998 13C2.24998 11.1858 3.5383 9.67246 5.24999 9.32501L5.25001 7.99999C5.25001 6.56008 6.06124 5.31114 7.25 4.68275V3C7.25 2.58579 7.58579 2.25 8 2.25C8.41421 2.25 8.75 2.58579 8.75 3V4.25823C8.83269 4.25277 8.91605 4.25 9.00001 4.25L11.25 4.25V2C11.25 1.58579 11.5858 1.25 12 1.25ZM6.74999 9.25H17.25L17.25 8C17.25 7.02151 16.625 6.18707 15.7501 5.87784C15.5164 5.79527 15.2643 5.75 15 5.75L9.00001 5.75C8.73569 5.75 8.48356 5.79526 8.24994 5.87784C7.37503 6.18707 6.75001 7.02151 6.75001 8L6.74999 9.25ZM3.75 21.25H20.25L20.25 14.75H20C19.7334 14.75 19.4798 14.9614 19.4798 15.36V15.67C19.4798 16.8524 18.5156 17.75 17.3798 17.75C16.2266 17.75 15.2798 16.8351 15.2798 15.67V15.36C15.2798 15.0206 15.002 14.75 14.6798 14.75C14.3547 14.75 14.0798 15.0234 14.0798 15.36V15.67C14.0798 16.8523 13.1156 17.75 11.9798 17.75C10.8266 17.75 9.87979 16.8351 9.87979 15.67V15.36C9.87979 15.0206 9.60198 14.75 9.27979 14.75C8.95475 14.75 8.67978 15.0234 8.67978 15.36V15.67C8.67978 16.8523 7.71562 17.75 6.57979 17.75C5.42657 17.75 4.47979 16.8351 4.47979 15.67V15.34C4.47979 15.0174 4.22737 14.7566 3.89377 14.75H3.75L3.75 21.25ZM3.74999 13.25H3.90992C5.05428 13.2655 5.97978 14.1839 5.97978 15.34V15.67C5.97978 15.9849 6.233 16.25 6.57979 16.25C6.92395 16.25 7.17978 15.9876 7.17978 15.67V15.36C7.17978 14.2166 8.10483 13.25 9.27979 13.25C10.4376 13.25 11.3798 14.1994 11.3798 15.36V15.67C11.3798 15.9849 11.633 16.25 11.9798 16.25C12.324 16.25 12.5798 15.9876 12.5798 15.67V15.36C12.5798 14.2166 13.5048 13.25 14.6798 13.25C15.8376 13.25 16.7798 14.1994 16.7798 15.36V15.67C16.7798 15.9849 17.033 16.25 17.3798 16.25C17.724 16.25 17.9798 15.9876 17.9798 15.67V15.36C17.9798 14.2786 18.7666 13.25 20 13.25H20.25L20.25 13C20.25 11.7574 19.2426 10.75 18 10.75H5.99998C4.75734 10.75 3.74998 11.7574 3.74998 13L3.74999 13.25Z" fill="#646464"/>
</svg>
