<svg width="24" height="24" viewBox="0 0 24 24" fill="none" xmlns="http://www.w3.org/2000/svg">
<path d="M20.4368 5.28124C19.4778 4.81261 18.3659 4.93603 17.53 5.60372L12.7688 9.4036V7.81323C12.7688 6.7246 12.1697 5.75503 11.2056 5.28225C10.2465 4.81362 9.13471 4.93704 8.29877 5.60473L3.05649 9.78936C2.38569 10.3254 2 11.1308 2 11.9986C2 12.8664 2.38569 13.6721 3.05649 14.2081L8.29877 18.3945C8.79828 18.7927 9.39629 18.998 10.0015 18.998C10.4087 18.998 10.8199 18.9047 11.2056 18.717C12.1697 18.2442 12.7688 17.2749 12.7688 16.1863V14.5946L17.53 18.3968C18.0295 18.7949 18.6275 19 19.2327 19C19.6399 19 20.0511 18.9067 20.4368 18.719C21.4009 18.2463 22 17.2769 22 16.1883V7.81829C22 6.72344 21.4009 5.75402 20.4368 5.28124ZM11.2302 16.1832C11.2302 16.6788 10.9697 17.1006 10.5338 17.3142C10.1051 17.5247 9.62609 17.4698 9.25172 17.1722L4.00932 12.9868C3.70981 12.7473 3.53754 12.3864 3.53754 11.9976C3.53754 11.6088 3.70981 11.2479 4.00932 11.0084L9.25172 6.82403C9.62609 6.52543 10.1061 6.47262 10.5338 6.68101C10.9697 6.89459 11.2302 7.31741 11.2302 7.81196V16.1832ZM20.4615 16.1832C20.4615 16.6788 20.201 17.1006 19.7651 17.3142C19.3353 17.5247 18.8573 17.4698 18.4829 17.1722L13.2405 12.9868C12.941 12.7473 12.7688 12.3864 12.7688 11.9976C12.7688 11.6088 12.941 11.2479 13.2405 11.0084L18.4829 6.82403C18.8573 6.52543 19.3363 6.47262 19.7651 6.68101C20.201 6.89459 20.4615 7.31741 20.4615 7.81196V16.1832Z" fill="#646464"/>
</svg>
