<svg width="24" height="24" viewBox="0 0 24 24" fill="none" xmlns="http://www.w3.org/2000/svg">
<path d="M7.89744 16.9032H14.0513C16.5313 16.9032 17.8974 15.5283 17.8974 13.0323V12.7484C20.1795 12.6121 22 10.7179 22 8.3871C22 5.96748 20.0441 4 17.641 4H16.6154H16.1026H5.33333C4.62667 4 4.05128 4.5791 4.05128 5.29032V13.0323C4.05128 15.5283 5.41744 16.9032 7.89744 16.9032ZM20.4615 8.3871C20.4615 9.86426 19.3313 11.0668 17.8974 11.2V5.57523C19.3313 5.70736 20.4615 6.90994 20.4615 8.3871ZM5.58974 5.54839H16.1026H16.359V13.0323C16.359 14.6601 15.6687 15.3548 14.0513 15.3548H7.89744C6.28 15.3548 5.58974 14.6601 5.58974 13.0323V5.54839ZM22 19.2258C22 19.6532 21.6554 20 21.2308 20H2.76923C2.34462 20 2 19.6532 2 19.2258C2 18.7985 2.34462 18.4516 2.76923 18.4516H21.2308C21.6554 18.4516 22 18.7985 22 19.2258Z" fill="#646464"/>
</svg>
