<svg width="24" height="24" viewBox="0 0 24 24" fill="none" xmlns="http://www.w3.org/2000/svg">
<path fill-rule="evenodd" clip-rule="evenodd" d="M11.1449 2.03609C10.7738 2.06756 10.4082 2.11932 10.0493 2.19032C9.58605 2.28197 9.2848 2.73181 9.37645 3.19507C9.46809 3.65834 9.91794 3.95959 10.3812 3.86794C10.6317 3.81838 10.8865 3.78008 11.1449 3.75363V20.2464C10.8865 20.2199 10.6317 20.1816 10.3812 20.1321C9.91794 20.0404 9.46809 20.3417 9.37645 20.8049C9.2848 21.2682 9.58605 21.718 10.0493 21.8097C10.4082 21.8807 10.7738 21.9324 11.1449 21.9639V22H12C17.5228 22 22 17.5228 22 12C22 6.47715 17.5228 2 12 2H11.1449V2.03609ZM20.2899 12C20.2899 16.2897 17.0317 19.8183 12.8551 20.2463V3.7537C17.0317 4.18167 20.2899 7.71034 20.2899 12Z" fill="#646464"/>
<path d="M7.39462 5.10592C7.78704 4.84321 7.89218 4.31212 7.62947 3.9197C7.36675 3.52728 6.83566 3.42214 6.44324 3.68486C5.3531 4.41469 4.41469 5.3531 3.68486 6.44324C3.42214 6.83566 3.52728 7.36675 3.9197 7.62947C4.31212 7.89218 4.84321 7.78704 5.10592 7.39462C5.7114 6.49023 6.49023 5.7114 7.39462 5.10592Z" fill="#646464"/>
<path d="M3.86794 10.3812C3.95959 9.91794 3.65834 9.46809 3.19507 9.37645C2.73181 9.2848 2.28197 9.58605 2.19032 10.0493C2.06537 10.6809 2 11.3332 2 12C2 12.6668 2.06537 13.3191 2.19032 13.9507C2.28197 14.4139 2.73181 14.7152 3.19507 14.6236C3.65834 14.5319 3.95959 14.0821 3.86794 13.6188C3.7645 13.0959 3.71013 12.5547 3.71013 12C3.71013 11.4453 3.7645 10.9041 3.86794 10.3812Z" fill="#646464"/>
<path d="M5.10592 16.6054C4.84321 16.213 4.31212 16.1078 3.9197 16.3705C3.52728 16.6333 3.42214 17.1643 3.68486 17.5568C4.41469 18.6469 5.3531 19.5853 6.44324 20.3151C6.83566 20.5779 7.36675 20.4727 7.62947 20.0803C7.89218 19.6879 7.78704 19.1568 7.39462 18.8941C6.49023 18.2886 5.7114 17.5098 5.10592 16.6054Z" fill="#646464"/>
</svg>
