<svg width="24" height="24" viewBox="0 0 24 24" fill="none" xmlns="http://www.w3.org/2000/svg">
<path d="M19.9293 4.0714C18.5907 2.74507 16.7825 2.00098 14.898 2.00098C13.0136 2.00098 11.2054 2.74507 9.86678 4.0714C7.88594 6.05223 7.23594 10.6622 7.02511 13.2381C6.96713 13.9618 7.13764 14.6855 7.51261 15.3072L4.34594 18.4739C4.22836 18.2588 4.05012 18.083 3.83342 17.9685C3.61672 17.8539 3.37111 17.8056 3.12714 17.8295C2.88318 17.8534 2.65164 17.9485 2.46133 18.103C2.27101 18.2575 2.13032 18.4646 2.05676 18.6984C1.9832 18.9322 1.98001 19.1825 2.0476 19.4182C2.11519 19.6538 2.25056 19.8643 2.43688 20.0236C2.62321 20.1829 2.85225 20.2839 3.09553 20.314C3.3388 20.3442 3.58556 20.3021 3.80511 20.1931C3.69608 20.4126 3.65402 20.6594 3.68414 20.9026C3.71427 21.1459 3.81525 21.375 3.97454 21.5613C4.13383 21.7476 4.34439 21.883 4.58002 21.9506C4.81565 22.0182 5.06595 22.015 5.29978 21.9414C5.53361 21.8679 5.74066 21.7272 5.89515 21.5368C6.04965 21.3465 6.14477 21.115 6.1687 20.871C6.19262 20.6271 6.14429 20.3815 6.02971 20.1648C5.91513 19.948 5.73936 19.7698 5.52428 19.6522L8.69094 16.4856C9.31164 16.8642 10.0362 17.0369 10.7609 16.9789C13.3326 16.7681 17.9418 16.1189 19.9276 14.1372C21.2554 12.7988 22.0005 10.99 22.0009 9.10466C22.0012 7.21935 21.2566 5.41028 19.9293 4.0714ZM18.7501 12.9564C17.5943 14.1106 14.5593 14.9931 10.6301 15.3156C10.369 15.3382 10.1061 15.3034 9.85985 15.2136C9.6136 15.1239 9.38997 14.9814 9.20464 14.796C9.01931 14.6107 8.87678 14.3871 8.78703 14.1408C8.69728 13.8946 8.66249 13.6317 8.68511 13.3706C9.00761 9.4414 9.89011 6.40473 11.0443 5.25056C11.5482 4.73556 12.1493 4.32562 12.8128 4.04448C13.4762 3.76333 14.1889 3.61656 14.9094 3.61266C15.63 3.60876 16.3441 3.7478 17.0106 4.02174C17.6771 4.29569 18.2826 4.69909 18.7921 5.2086C19.3016 5.71812 19.705 6.32362 19.9789 6.99008C20.2529 7.65654 20.3919 8.37071 20.388 9.09126C20.3841 9.81181 20.2373 10.5244 19.9562 11.1879C19.6751 11.8513 19.2651 12.4524 18.7501 12.9564Z" fill="#646464"/>
</svg>
