<svg width="24" height="24" viewBox="0 0 24 24" fill="none" xmlns="http://www.w3.org/2000/svg">
<path d="M21.1667 18.6666C20.9457 18.6666 20.7337 18.7544 20.5774 18.9107C20.4211 19.067 20.3333 19.2789 20.3333 19.4999C20.3333 19.7866 19.765 20.3333 18.875 20.3333C18.625 20.3421 18.3762 20.2951 18.1465 20.1958C17.9169 20.0965 17.7123 19.9473 17.5475 19.7591C17.5801 19.706 17.6157 19.6548 17.6542 19.6058C19.0132 18.1805 19.9271 16.39 20.2842 14.4533C20.3899 13.8706 20.2853 13.2693 19.9891 12.7566C19.6928 12.2438 19.2242 11.8528 18.6667 11.6533V9.49994C18.6667 8.61588 18.3155 7.76804 17.6904 7.14292C17.0652 6.5178 16.2174 6.16661 15.3333 6.16661V5.33327C15.3333 4.44922 14.9821 3.60137 14.357 2.97625C13.7319 2.35113 12.8841 1.99994 12 1.99994C11.1159 1.99994 10.2681 2.35113 9.64298 2.97625C9.01786 3.60137 8.66667 4.44922 8.66667 5.33327V6.16661C7.78261 6.16661 6.93476 6.5178 6.30964 7.14292C5.68452 7.76804 5.33333 8.61588 5.33333 9.49994V11.6424C4.76883 11.8374 4.29278 12.2281 3.99135 12.7437C3.68991 13.2592 3.58302 13.8657 3.69 14.4533C4.05596 16.3923 4.97883 18.1827 6.34583 19.6058C6.38582 19.6561 6.42283 19.7087 6.45667 19.7633C6.2917 19.9521 6.08634 20.1014 5.85581 20.2001C5.62529 20.2988 5.37551 20.3443 5.125 20.3333C4.2175 20.3333 3.66667 19.7549 3.66667 19.4999C3.66667 19.2789 3.57887 19.067 3.42259 18.9107C3.26631 18.7544 3.05435 18.6666 2.83333 18.6666C2.61232 18.6666 2.40036 18.7544 2.24408 18.9107C2.0878 19.067 2 19.2789 2 19.4999C2 20.8549 3.43167 21.9999 5.125 21.9999C5.96765 22.0076 6.78492 21.7118 7.4275 21.1666C8.06842 21.7019 8.87631 21.9962 9.71134 21.9986C10.5464 22.0011 11.356 21.7115 12 21.1799C12.6464 21.7109 13.4576 22.0001 14.2941 21.9976C15.1306 21.9952 15.9401 21.7013 16.5833 21.1666C17.2221 21.7088 18.0338 22.0045 18.8717 21.9999C20.5683 21.9999 22 20.8549 22 19.4999C22 19.2789 21.9122 19.067 21.7559 18.9107C21.5996 18.7544 21.3877 18.6666 21.1667 18.6666ZM10.3333 5.33327C10.3333 4.89124 10.5089 4.46732 10.8215 4.15476C11.134 3.8422 11.558 3.66661 12 3.66661C12.442 3.66661 12.8659 3.8422 13.1785 4.15476C13.4911 4.46732 13.6667 4.89124 13.6667 5.33327V6.16661H10.3333V5.33327ZM8.66667 7.83327H15.3333C15.7754 7.83327 16.1993 8.00887 16.5118 8.32143C16.8244 8.63399 17 9.05791 17 9.49994V11.0999L12.79 9.71827C12.2782 9.54993 11.726 9.54993 11.2142 9.71827L7 11.0941V9.49994C7 9.05791 7.17559 8.63399 7.48816 8.32143C7.80072 8.00887 8.22464 7.83327 8.66667 7.83327ZM9.70833 20.3333C9.42981 20.3485 9.15208 20.2914 8.9022 20.1674C8.65233 20.0434 8.43883 19.8568 8.2825 19.6258C8.10892 19.2097 7.8704 18.8238 7.57583 18.4824C6.42701 17.293 5.64801 15.7958 5.33333 14.1724C5.29486 13.9728 5.32939 13.7659 5.43065 13.5895C5.53191 13.4132 5.69315 13.279 5.885 13.2116L11.1667 11.4858V19.4999C11.1667 19.7866 10.5983 20.3333 9.70833 20.3333ZM14.2917 20.3333C13.3842 20.3333 12.8333 19.7549 12.8333 19.4999V11.4866L18.0875 13.2108C18.28 13.2781 18.4419 13.4123 18.5438 13.5889C18.6457 13.7656 18.6807 13.973 18.6425 14.1733C18.3369 15.7945 17.5661 17.2918 16.4242 18.4824C16.1277 18.8242 15.889 19.2121 15.7175 19.6308C15.5611 19.8614 15.3475 20.0474 15.0975 20.1706C14.8475 20.2937 14.5698 20.3498 14.2917 20.3333Z" fill="#646464"/>
</svg>
