<svg width="24" height="24" viewBox="0 0 24 24" fill="none" xmlns="http://www.w3.org/2000/svg">
<path fill-rule="evenodd" clip-rule="evenodd" d="M14.896 2.42852C12.8393 1.80624 10.6368 1.86299 8.61493 2.59036C6.59301 3.31774 4.85916 4.67705 3.67023 6.46693C2.4813 8.25682 1.90052 10.3821 2.01395 12.5278C2.12737 14.6736 2.92895 16.7258 4.29995 18.3804C5.67094 20.0349 7.53843 21.2039 9.62577 21.7141C11.7131 22.2242 13.9092 22.0485 15.8889 21.2128C16.2803 21.0476 16.4636 20.5964 16.2984 20.205C16.1332 19.8136 15.682 19.6303 15.2906 19.7955C13.6155 20.5026 11.7572 20.6513 9.99103 20.2196C8.22483 19.7879 6.64465 18.7988 5.48457 17.3988C4.3245 15.9987 3.64623 14.2623 3.55026 12.4466C3.45429 10.631 3.94571 8.83269 4.95173 7.31817C5.95775 5.80366 7.42485 4.65347 9.13571 4.038C10.8466 3.42253 12.7102 3.37451 14.4504 3.90105C16.1907 4.4276 17.7151 5.5007 18.7978 6.96139C19.8805 8.42209 20.4639 10.1937 20.4615 12.0119V13.5503C20.4615 14.0263 20.2724 14.4829 19.9358 14.8195C19.5992 15.1561 19.1427 15.3452 18.6667 15.3452C18.1906 15.3452 17.7341 15.1561 17.3975 14.8195C17.0609 14.4829 16.8718 14.0263 16.8718 13.5503L16.8718 12.0119C16.8718 10.7198 16.3585 9.48065 15.4449 8.56701C14.5312 7.65337 13.2921 7.1401 12 7.1401C10.7079 7.1401 9.46876 7.65337 8.55512 8.56701C7.64148 9.48065 7.1282 10.7198 7.1282 12.0119C7.1282 13.304 7.64148 14.5431 8.55512 15.4568C9.46876 16.3704 10.7079 16.8837 12 16.8837C13.2921 16.8837 14.5312 16.3704 15.4449 15.4568C15.547 15.3547 15.6441 15.2485 15.736 15.1386C15.8878 15.4187 16.0803 15.678 16.3096 15.9073C16.9348 16.5325 17.7826 16.8837 18.6667 16.8837C19.5507 16.8837 20.3986 16.5325 21.0237 15.9073C21.6488 15.2822 22 14.4344 22 13.5503V12.0128C22.0028 9.86407 21.3133 7.77156 20.0338 6.04529C18.7542 4.31901 16.9527 3.0508 14.896 2.42852ZM15.3333 12.0099L15.3333 12.0119V12.0163C15.3322 12.8988 14.9811 13.7448 14.357 14.3689C13.7319 14.994 12.8841 15.3452 12 15.3452C11.1159 15.3452 10.2681 14.994 9.64297 14.3689C9.01785 13.7438 8.66666 12.8959 8.66666 12.0119C8.66666 11.1278 9.01785 10.28 9.64297 9.65487C10.2681 9.02975 11.1159 8.67856 12 8.67856C12.8841 8.67856 13.7319 9.02975 14.357 9.65487C14.9817 10.2795 15.3328 11.1266 15.3333 12.0099Z" fill="#646464"/>
</svg>
