<svg width="24" height="24" viewBox="0 0 24 24" fill="none" xmlns="http://www.w3.org/2000/svg">
<path fill-rule="evenodd" clip-rule="evenodd" d="M8.93853 4.60896C9.90914 4.20693 10.9494 4 12 4C13.0506 4 14.0909 4.20693 15.0615 4.60896C16.0321 5.011 16.914 5.60028 17.6569 6.34315C18.3997 7.08601 18.989 7.96793 19.391 8.93853C19.7931 9.90914 20 10.9494 20 12C20 13.0506 19.7931 14.0909 19.391 15.0615C18.989 16.0321 18.3997 16.914 17.6569 17.6569C16.914 18.3997 16.0321 18.989 15.0615 19.391C14.0909 19.7931 13.0506 20 12 20C10.9494 20 9.90914 19.7931 8.93853 19.391C7.96793 18.989 7.08601 18.3997 6.34315 17.6569C5.60028 16.914 5.011 16.0321 4.60896 15.0615C4.20693 14.0909 4 13.0506 4 12C4 10.9494 4.20693 9.90914 4.60896 8.93853C5.011 7.96793 5.60028 7.08601 6.34315 6.34315C7.08601 5.60028 7.96793 5.011 8.93853 4.60896ZM12 5.54839C11.1528 5.54839 10.3138 5.71526 9.53107 6.03949C8.74833 6.36371 8.03711 6.83893 7.43802 7.43802C6.83893 8.03711 6.36371 8.74833 6.03949 9.53107C5.71526 10.3138 5.54839 11.1528 5.54839 12C5.54839 12.8472 5.71526 13.6862 6.03949 14.4689C6.36371 15.2517 6.83893 15.9629 7.43802 16.562C8.03711 17.1611 8.74833 17.6363 9.53107 17.9605C10.3138 18.2847 11.1528 18.4516 12 18.4516C12.8472 18.4516 13.6862 18.2847 14.4689 17.9605C15.2517 17.6363 15.9629 17.1611 16.562 16.562C17.1611 15.9629 17.6363 15.2517 17.9605 14.4689C18.2847 13.6862 18.4516 12.8472 18.4516 12C18.4516 11.1528 18.2847 10.3138 17.9605 9.53107C17.6363 8.74833 17.1611 8.03711 16.562 7.43802C15.9629 6.83893 15.2517 6.36371 14.4689 6.03949C13.6862 5.71526 12.8472 5.54839 12 5.54839Z" fill="#646464"/>
</svg>
