<svg width="24" height="24" viewBox="0 0 24 24" fill="none" xmlns="http://www.w3.org/2000/svg">
<path d="M18.2549 9.49015H17.8379V7.82217C17.8379 7.60098 17.7501 7.38885 17.5937 7.23245C17.4373 7.07605 17.2251 6.98818 17.0039 6.98818C17.0145 6.39662 16.8636 5.81336 16.5673 5.30122C16.2711 4.78908 15.8407 4.36745 15.3226 4.08173C14.7236 3.74832 14.038 3.60301 13.3552 3.66473C13.2705 3.67525 13.1845 3.66364 13.1056 3.63105C13.0266 3.59846 12.9575 3.54599 12.9049 3.47875C12.5419 3.00322 12.0707 2.62115 11.5304 2.36428C10.9901 2.10741 10.3963 1.98316 9.79836 2.00183C9.20041 2.02051 8.61554 2.18158 8.09233 2.47166C7.56912 2.76175 7.12267 3.17248 6.79006 3.66974C5.94402 3.72068 5.14923 4.09231 4.56767 4.70889C3.98611 5.32547 3.66154 6.1406 3.6601 6.98818C3.43891 6.98818 3.22678 7.07605 3.07038 7.23245C2.91398 7.38885 2.82611 7.60098 2.82611 7.82217V17.8301C2.82744 18.9356 3.26719 19.9955 4.04892 20.7772C4.83065 21.5589 5.89053 21.9987 6.99606 22H13.668C14.7735 21.9987 15.8334 21.5589 16.6151 20.7772C17.3968 19.9955 17.8366 18.9356 17.8379 17.8301H18.2549C19.0291 17.8301 19.7715 17.5225 20.3189 16.9751C20.8664 16.4277 21.1739 15.6852 21.1739 14.9111V12.4091C21.1739 11.635 20.8664 10.8925 20.3189 10.3451C19.7715 9.79768 19.0291 9.49015 18.2549 9.49015ZM6.99606 5.3202C7.04403 5.32177 7.09175 5.32763 7.13867 5.33772C7.3184 5.36694 7.50276 5.33654 7.66359 5.25115C7.82442 5.16577 7.95289 5.03009 8.02937 4.86484C8.18185 4.54114 8.41508 4.26212 8.70661 4.05464C8.99813 3.84716 9.33815 3.71819 9.69395 3.68016C10.0497 3.64213 10.4093 3.6963 10.7381 3.83747C11.0669 3.97864 11.3539 4.20205 11.5713 4.48621C11.7948 4.78308 12.0915 5.0169 12.4324 5.16483C12.7733 5.31276 13.1467 5.36974 13.5162 5.33021C13.8724 5.30215 14.229 5.38083 14.5403 5.55622C14.7885 5.70237 14.9931 5.91218 15.133 6.16394C15.2729 6.41569 15.343 6.70026 15.336 6.98818H12C11.3364 6.98818 10.7001 7.25178 10.2308 7.72099C9.76163 8.1902 9.49803 8.82659 9.49803 9.49015V11.9921C9.49803 12.2133 9.41016 12.4254 9.25376 12.5818C9.09736 12.7382 8.88523 12.8261 8.66404 12.8261C8.44285 12.8261 8.23072 12.7382 8.07432 12.5818C7.91792 12.4254 7.83005 12.2133 7.83005 11.9921V9.49015C7.83005 8.82659 7.56645 8.1902 7.09724 7.72099C6.62803 7.25178 5.99164 6.98818 5.32808 6.98818C5.32808 6.54581 5.50381 6.12155 5.81662 5.80874C6.12943 5.49593 6.55368 5.3202 6.99606 5.3202ZM16.1699 17.8301C16.1699 18.4936 15.9064 19.13 15.4371 19.5992C14.9679 20.0684 14.3315 20.332 13.668 20.332H6.99606C6.3325 20.332 5.69611 20.0684 5.2269 19.5992C4.75769 19.13 4.49409 18.4936 4.49409 17.8301V8.65616H5.32808C5.54927 8.65616 5.7614 8.74403 5.9178 8.90043C6.0742 9.05684 6.16207 9.26896 6.16207 9.49015V11.9921C6.16207 12.6557 6.42567 13.2921 6.89488 13.7613C7.36409 14.2305 8.00048 14.4941 8.66404 14.4941C9.3276 14.4941 9.96399 14.2305 10.4332 13.7613C10.9024 13.2921 11.166 12.6557 11.166 11.9921V9.49015C11.166 9.26896 11.2539 9.05684 11.4103 8.90043C11.5667 8.74403 11.7788 8.65616 12 8.65616H16.1699V17.8301ZM19.5059 14.9111C19.5059 15.2429 19.3741 15.5611 19.1395 15.7957C18.9049 16.0303 18.5867 16.1621 18.2549 16.1621H17.8379V11.1581H18.2549C18.5867 11.1581 18.9049 11.2899 19.1395 11.5245C19.3741 11.7591 19.5059 12.0773 19.5059 12.4091V14.9111Z" fill="#646464"/>
</svg>
