<svg width="24" height="24" viewBox="0 0 24 24" fill="none" xmlns="http://www.w3.org/2000/svg">
<path d="M9.625 8.065C10.018 7.472 10.25 6.763 10.25 6C10.25 3.932 8.568 2.25 6.5 2.25C4.432 2.25 2.75 3.932 2.75 6C2.75 8.068 4.432 9.75 6.5 9.75C7.263 9.75 7.972 9.518 8.565 9.125L11.44 12L8.565 14.875C7.972 14.482 7.263 14.25 6.5 14.25C4.432 14.25 2.75 15.932 2.75 18C2.75 20.068 4.432 21.75 6.5 21.75C8.568 21.75 10.25 20.068 10.25 18C10.25 17.237 10.018 16.528 9.625 15.935L12.5 13.06L19.97 20.53C20.116 20.676 20.308 20.75 20.5 20.75C20.692 20.75 20.884 20.677 21.03 20.53C21.323 20.237 21.323 19.762 21.03 19.469L9.625 8.065ZM6.5 20.25C5.259 20.25 4.25 19.241 4.25 18C4.25 16.759 5.259 15.75 6.5 15.75C7.12 15.75 7.68099 16.002 8.08899 16.408C8.08899 16.408 8.09003 16.409 8.09003 16.41C8.09003 16.411 8.09098 16.411 8.09198 16.411C8.49898 16.818 8.75 17.38 8.75 18C8.75 19.241 7.741 20.25 6.5 20.25ZM4.25 6C4.25 4.759 5.259 3.75 6.5 3.75C7.741 3.75 8.75 4.759 8.75 6C8.75 6.62 8.49798 7.18099 8.09198 7.58899C8.09198 7.58899 8.09103 7.59 8.09003 7.59C8.08903 7.59 8.08899 7.59101 8.08899 7.59201C7.68199 7.99801 7.12 8.25 6.5 8.25C5.259 8.25 4.25 7.241 4.25 6ZM14.47 10.03C14.177 9.737 14.177 9.26199 14.47 8.96899L19.97 3.46899C20.263 3.17599 20.738 3.17599 21.031 3.46899C21.324 3.76199 21.324 4.237 21.031 4.53L15.531 10.03C15.385 10.176 15.193 10.25 15.001 10.25C14.809 10.25 14.616 10.177 14.47 10.03Z" fill="#646464"/>
</svg>
