<svg width="24" height="24" viewBox="0 0 24 24" fill="none" xmlns="http://www.w3.org/2000/svg">
<path d="M5.68991 15.8225C5.02437 15.8174 4.37013 16.0758 3.86662 16.5793C3.03392 17.412 2.24737 20.1941 2.02689 21.0278C1.95716 21.2904 2.03099 21.5693 2.2207 21.7631C2.36735 21.9128 2.56528 21.9939 2.77037 21.9939C2.83088 21.9939 2.89238 21.9867 2.95289 21.9723C3.75276 21.7775 6.42828 21.074 7.2661 20.2362C8.31517 19.1871 8.38182 17.5463 7.41581 16.5793C6.94204 16.1066 6.32981 15.8379 5.68991 15.8225ZM6.17805 19.1492C5.91758 19.4096 4.95056 19.7901 3.89841 20.1152C4.26348 18.9841 4.68495 17.9371 4.95363 17.6674C5.16077 17.4602 5.39354 17.3535 5.65401 17.3607C5.89603 17.3659 6.13498 17.4756 6.32777 17.6674C6.69489 18.0345 6.62722 18.699 6.17805 19.1492ZM13.5369 7.38379C11.8408 7.38379 10.4605 8.76409 10.4605 10.4602C10.4605 12.1564 11.8408 13.5367 13.5369 13.5367C15.2331 13.5367 16.6134 12.1564 16.6134 10.4602C16.6134 8.76409 15.2331 7.38379 13.5369 7.38379ZM13.5369 11.9985C12.6888 11.9985 11.9987 11.3083 11.9987 10.4602C11.9987 9.61217 12.6888 8.92202 13.5369 8.92202C14.385 8.92202 15.0751 9.61217 15.0751 10.4602C15.0751 11.3083 14.385 11.9985 13.5369 11.9985ZM21.9972 2.76911C21.9972 2.34456 21.6526 2 21.228 2C16.1396 2 12.1238 3.53105 9.48831 6.34087L7.5481 6.66594C5.51969 6.99409 3.79176 8.38363 3.04008 10.2869L2.05559 12.7378C1.94996 13.0004 1.99716 13.2988 2.17764 13.5162C2.32531 13.6946 2.54271 13.7941 2.76934 13.7941C2.81959 13.7941 2.86984 13.789 2.92009 13.7797L6.23445 13.1183C6.23342 13.1265 6.23034 13.1347 6.22931 13.1429C6.10318 13.8648 6.34726 14.6145 6.88051 15.1477L8.85148 17.1197C9.29244 17.5597 9.88108 17.8027 10.48 17.8027C10.6051 17.8027 10.7312 17.7924 10.8563 17.7709C10.8645 17.7699 10.8727 17.7668 10.8809 17.7658L10.2195 21.0801C10.1641 21.357 10.2646 21.6421 10.482 21.8226C10.6225 21.9395 10.7968 22 10.9732 22C11.0696 22 11.167 21.9816 11.2593 21.9446L13.7071 20.9622C15.6145 20.2085 17.0031 18.4805 17.3312 16.4562L17.6563 14.5119C20.4661 11.8733 21.9972 7.85756 21.9972 2.76911ZM19.9072 7.35713C19.2622 5.90402 18.0931 4.73496 16.64 4.08993C18.0429 3.74024 19.3791 3.59567 20.4435 3.55362C20.4015 4.6191 20.2569 5.95426 19.9072 7.35713ZM4.01223 11.9913L4.46858 10.8561C5.02439 9.45013 6.29805 8.42671 7.7973 8.18367L8.10903 8.13137C7.47734 9.13224 6.98099 10.248 6.62617 11.4693L4.01223 11.9913ZM10.5928 16.2522C10.3661 16.2901 10.1149 16.206 9.93849 16.0296L7.96752 14.0576C7.79011 13.8813 7.70501 13.63 7.74398 13.4044C8.52744 8.8892 11.0747 6.42598 13.8559 5.08465C13.9205 5.08157 13.983 5.07645 14.0497 5.07645C16.7354 5.07645 18.9207 7.26176 18.9207 9.9475C18.9207 10.008 18.9187 10.0706 18.9156 10.1341C17.5753 12.9173 15.1121 15.4687 10.5928 16.2522ZM15.8135 16.203C15.5715 17.6981 14.548 18.9718 13.138 19.5296L12.0059 19.9839L12.5268 17.371C13.7492 17.0151 14.8649 16.5188 15.8658 15.8871L15.8135 16.203Z" fill="#646464"/>
</svg>
