<svg width="24" height="24" viewBox="0 0 24 24" fill="none" xmlns="http://www.w3.org/2000/svg">
<path d="M12 10.7179C11.5742 10.7179 11.2286 10.3733 11.2286 9.94872V2.76923C11.2286 2.34462 11.5742 2 12 2C12.4258 2 12.7714 2.34462 12.7714 2.76923V9.94872C12.7714 10.3733 12.4258 10.7179 12 10.7179ZM21 13.0256C21 9.84103 19.2761 6.86246 16.502 5.2522C16.1358 5.0399 15.6628 5.16399 15.4478 5.53015C15.2339 5.89733 15.3583 6.36825 15.7266 6.58158C18.0275 7.91594 19.4571 10.3846 19.4571 13.0246C19.4571 17.1252 16.1122 20.4605 12 20.4605C7.88777 20.4605 4.54286 17.1252 4.54286 13.0246C4.54286 10.3857 5.97252 7.91697 8.27344 6.58158C8.64167 6.36825 8.76612 5.89733 8.55218 5.53015C8.33823 5.16297 7.86622 5.03887 7.49799 5.2522C4.72393 6.86143 3 9.84 3 13.0256C3 17.9744 7.03714 22 12 22C16.9629 22 21 17.9744 21 13.0256Z" fill="#646464"/>
</svg>
