<svg width="24" height="24" viewBox="0 0 24 24" fill="none" xmlns="http://www.w3.org/2000/svg">
<path d="M19.0734 4.92563C17.674 3.52804 15.8916 2.57656 13.9514 2.19147C12.0112 1.80637 10.0003 2.00495 8.17303 2.7621C6.34572 3.51925 4.78397 4.80098 3.68521 6.44527C2.58645 8.08956 2 10.0226 2 12C2 13.9774 2.58645 15.9104 3.68521 17.5547C4.78397 19.199 6.34572 20.4807 8.17303 21.2379C10.0003 21.995 12.0112 22.1936 13.9514 21.8085C15.8916 21.4234 17.674 20.472 19.0734 19.0744C20.9475 17.1967 22 14.6525 22 12C22 9.3475 20.9475 6.80332 19.0734 4.92563ZM20.2819 11.1096C19.2817 11.2308 18.2671 11.1231 17.3148 10.7945C16.3624 10.4659 15.4973 9.925 14.785 9.21281C14.0726 8.50061 13.5317 7.63576 13.2031 6.6837C12.8745 5.73164 12.7668 4.71733 12.8882 3.71753C14.7812 3.91649 16.5485 4.75924 17.8944 6.10481C19.2402 7.45038 20.083 9.21715 20.2819 11.1096ZM3.71148 12.8904C4.71162 12.7692 5.72625 12.8769 6.67859 13.2055C7.63092 13.5341 8.496 14.075 9.20835 14.7872C9.9207 15.4994 10.4616 16.3642 10.7903 17.3163C11.1189 18.2684 11.2265 19.2827 11.1051 20.2825C9.21209 20.0835 7.44484 19.2408 6.09898 17.8952C4.75312 16.5496 3.91029 14.7829 3.71148 12.8904ZM17.894 17.8929C16.5238 19.2657 14.7157 20.1151 12.784 20.2933C12.9037 19.0704 12.7507 17.8362 12.3361 16.6795C11.9215 15.5228 11.2555 14.4724 10.3862 13.6038C9.51681 12.7352 8.46566 12.07 7.30835 11.6562C6.15103 11.2424 4.91635 11.0901 3.69313 11.2104C3.87454 9.27971 4.7249 7.47298 6.09727 6.10243C7.46964 4.73188 9.27781 3.88361 11.2094 3.70419C11.0972 4.86023 11.2282 6.02694 11.594 7.12933C11.9598 8.23172 12.5523 9.2454 13.3334 10.1052C14.1145 10.9651 15.0669 11.652 16.1294 12.1219C17.1919 12.5918 18.341 12.8343 19.5029 12.8337C19.7673 12.8337 20.0325 12.8204 20.2977 12.7954C20.1166 14.7238 19.2662 16.528 17.894 17.8954V17.8929Z" fill="#646464"/>
</svg>
