<svg width="24" height="24" viewBox="0 0 24 24" fill="none" xmlns="http://www.w3.org/2000/svg">
<path fill-rule="evenodd" clip-rule="evenodd" d="M12.3782 2.09879C12.1434 1.96707 11.8566 1.96707 11.6218 2.09879L3.40338 6.70855C3.28989 6.76986 3.19057 6.86024 3.11783 6.97621C3.10456 6.99733 3.09233 7.01908 3.08117 7.04139C3.02403 7.15545 2.99795 7.27759 3.00013 7.39779V16.6154C3.00013 16.8933 3.15045 17.1496 3.39335 17.2858L11.6097 21.8944C11.7242 21.9615 11.8576 22 12 22C12.1424 22 12.2758 21.9615 12.3903 21.8944L20.6066 17.2858C20.8495 17.1496 20.9999 16.8933 20.9999 16.6154V7.39898C21.0025 7.26642 20.9707 7.13143 20.9008 7.0075C20.8267 6.87622 20.7198 6.77497 20.5961 6.70825L12.3782 2.09879ZM4.54296 8.69989V16.1655L11.2286 19.9155V12.4499L4.54296 8.69989ZM12 11.1174L18.655 7.38462L12 3.65181L5.34502 7.38462L12 11.1174ZM19.457 16.1655L12.7714 19.9155V12.4499L19.457 8.6999V16.1655Z" fill="#646464"/>
</svg>
