<svg width="24" height="24" viewBox="0 0 24 24" fill="none" xmlns="http://www.w3.org/2000/svg">
<path d="M18.1528 6.08571H13.3437L10.4923 3.22629C10.3477 3.08126 10.1528 3 9.94872 3H5.84615C3.36615 3 2 4.37006 2 6.85714V17.1429C2 19.6299 3.36615 21 5.84615 21H18.1538C20.6338 21 22 19.6299 22 17.1429V9.94286C21.999 7.45577 20.6328 6.08571 18.1528 6.08571ZM20.4605 17.1429C20.4605 18.7649 19.7703 19.4571 18.1528 19.4571H5.84515C4.22772 19.4571 3.53746 18.7649 3.53746 17.1429V6.85714C3.53746 5.23509 4.22772 4.54286 5.84515 4.54286H9.62871L12.48 7.40228C12.6246 7.54731 12.8195 7.62857 13.0236 7.62857H18.1518C19.7693 7.62857 20.4595 8.3208 20.4595 9.94286V17.1429H20.4605ZM14.0493 15.0219C14.437 14.4284 14.6678 13.7218 14.6678 12.9617C14.6678 10.8819 12.9806 9.18995 10.9068 9.18995C8.83393 9.18995 7.14674 10.8819 7.14674 12.9617C7.14674 15.0415 8.83393 16.7335 10.9068 16.7335C11.6657 16.7335 12.3702 16.5031 12.962 16.1133L14.5518 17.7076C14.7016 17.8577 14.8985 17.9338 15.0955 17.9338C15.2924 17.9338 15.4893 17.8588 15.6391 17.7076C15.9396 17.4062 15.9396 16.9176 15.6391 16.6162L14.0493 15.0219ZM8.6852 12.9617C8.6852 11.7326 9.68214 10.7328 10.9068 10.7328C12.1324 10.7328 13.1293 11.7326 13.1293 12.9617C13.1293 14.1909 12.1324 15.1906 10.9068 15.1906C9.68111 15.1906 8.6852 14.1909 8.6852 12.9617Z" fill="#646464"/>
</svg>
