<svg width="24" height="24" viewBox="0 0 24 24" fill="none" xmlns="http://www.w3.org/2000/svg">
<path d="M18.1392 14.2725C18.7684 14.0259 19.3116 13.6003 19.7016 13.0483C20.0915 12.4963 20.3112 11.8421 20.3333 11.1667C20.3333 8.98167 18.25 7.53833 14.6667 7.12583C15.0983 6.62861 15.3352 5.99179 15.3333 5.33333C15.3333 3.30833 13.3708 2 10.3333 2C7.29583 2 5.33333 3.30833 5.33333 5.33333C5.33942 5.86142 5.49027 6.37771 5.76944 6.82601C6.04862 7.2743 6.44542 7.63742 6.91667 7.87583C5.02 8.71 4.5 10.005 4.5 11.1667C4.49572 11.7924 4.66766 12.4067 4.99615 12.9393C5.32464 13.4719 5.79641 13.9013 6.3575 14.1783C3.49417 14.8167 2 16.0475 2 17.8333C2 20.5592 5.4575 22 12 22C18.6358 22 22 20.5983 22 17.8333C22 16.1192 20.7042 14.93 18.1392 14.2725ZM10.3333 3.66667C11.9925 3.66667 13.6667 4.1825 13.6667 5.33333C13.6667 6.48417 11.9925 7 10.3333 7C8.67417 7 7 6.48417 7 5.33333C7 4.1825 8.67417 3.66667 10.3333 3.66667ZM12.4167 8.66667C15.3 8.66667 18.6667 9.32167 18.6667 11.1667C18.6667 13.0117 15.3 13.6667 12.4167 13.6667C10.5375 13.6667 6.16667 13.4233 6.16667 11.1667C6.16667 8.91 10.5375 8.66667 12.4167 8.66667ZM12 20.3333C6.9375 20.3333 3.66667 19.3517 3.66667 17.8333C3.66667 16.315 6.9375 15.3333 12 15.3333C17.2183 15.3333 20.3333 16.2683 20.3333 17.8333C20.3333 19.3983 17.2183 20.3333 12 20.3333Z" fill="#646464"/>
</svg>
