<svg width="24" height="24" viewBox="0 0 24 24" fill="none" xmlns="http://www.w3.org/2000/svg">
<path d="M17.1429 22H6.85714C4.37006 22 3 20.6338 3 18.1538V5.84615C3 3.36615 4.37006 2 6.85714 2H17.1429C19.6299 2 21 3.36615 21 5.84615V18.1538C21 20.6338 19.6299 22 17.1429 22ZM6.85714 3.53846C5.23509 3.53846 4.54286 4.22872 4.54286 5.84615V18.1538C4.54286 19.7713 5.23509 20.4615 6.85714 20.4615H17.1429C18.7649 20.4615 19.4571 19.7713 19.4571 18.1538V5.84615C19.4571 4.22872 18.7649 3.53846 17.1429 3.53846H6.85714ZM16.8857 12C16.8857 11.5754 16.5401 11.2308 16.1143 11.2308H7.88571C7.45989 11.2308 7.11429 11.5754 7.11429 12C7.11429 12.4246 7.45989 12.7692 7.88571 12.7692H16.1143C16.5401 12.7692 16.8857 12.4246 16.8857 12ZM13.8 16.1026C13.8 15.6779 13.4544 15.3333 13.0286 15.3333H7.88571C7.45989 15.3333 7.11429 15.6779 7.11429 16.1026C7.11429 16.5272 7.45989 16.8718 7.88571 16.8718H13.0286C13.4544 16.8718 13.8 16.5272 13.8 16.1026ZM16.8857 7.89744C16.8857 7.47282 16.5401 7.12821 16.1143 7.12821H7.88571C7.45989 7.12821 7.11429 7.47282 7.11429 7.89744C7.11429 8.32205 7.45989 8.66667 7.88571 8.66667H16.1143C16.5401 8.66667 16.8857 8.32205 16.8857 7.89744Z" fill="#646464"/>
</svg>
