<svg width="24" height="24" viewBox="0 0 24 24" fill="none" xmlns="http://www.w3.org/2000/svg">
<path d="M21.1484 2.77912C20.6151 2.4499 19.9628 2.42 19.4018 2.69999L15.8871 4.457C15.7363 4.53187 15.5568 4.54202 15.3958 4.48254L9.14164 2.13711C8.58269 1.92686 7.95499 1.95957 7.4227 2.22725L3.55823 4.15953C2.59621 4.64054 1.99929 5.60765 1.99929 6.68249V19.6954C1.99929 20.322 2.31725 20.8923 2.85056 21.2215C3.38388 21.5507 4.03617 21.5806 4.59718 21.3007L8.11194 19.5436C8.2627 19.4688 8.44215 19.4586 8.60317 19.5181L14.8574 21.8635C15.1004 21.9548 15.3568 22 15.6132 22C15.6358 22 15.6573 21.9927 15.6799 21.9927C15.685 21.9927 15.6881 21.995 15.6932 21.995C15.7107 21.995 15.725 21.9868 15.7414 21.9847C16.0296 21.9673 16.3147 21.9037 16.5773 21.7724L20.4418 19.8401C21.4038 19.3591 22.0007 18.392 22.0007 17.3172V4.30426C21.9997 3.67864 21.6818 3.10834 21.1484 2.77912ZM3.91 19.9242C3.79924 19.9786 3.7059 19.9417 3.66077 19.913C3.61564 19.8853 3.53874 19.8195 3.53874 19.6954V6.68249C3.53874 6.19327 3.81053 5.7544 4.24744 5.53594L7.5386 3.89086V18.1262C7.50065 18.1426 7.46065 18.1488 7.42373 18.1682L3.91 19.9242ZM9.14265 18.0771C9.12111 18.0689 9.09855 18.0668 9.07701 18.0586V3.7554L14.8574 5.92255C14.8789 5.93075 14.9015 5.93289 14.923 5.94007V20.2442L9.14265 18.0771ZM20.4613 17.3182C20.4613 17.8074 20.1895 18.2463 19.7526 18.4647L16.4614 20.1098V5.87647C16.4993 5.86006 16.5393 5.85187 16.5763 5.83341L20.09 4.0764C20.1997 4.02102 20.2941 4.05895 20.3392 4.08767C20.3844 4.11639 20.4613 4.18116 20.4613 4.30526V17.3182Z" fill="#646464"/>
</svg>
