<svg width="24" height="24" viewBox="0 0 24 24" fill="none" xmlns="http://www.w3.org/2000/svg">
<path d="M12.149 2.00261C11.699 1.98326 11.2509 2.07181 10.8421 2.26087C10.4333 2.44993 10.0757 2.73402 9.79899 3.08943C9.78053 3.11314 9.76348 3.13791 9.74791 3.16361L9.14093 4.166C8.92058 4.5299 9.03695 5.00353 9.40085 5.22388C9.76475 5.44423 10.2384 5.32786 10.4587 4.96396L11.0396 4.00469C11.1616 3.85761 11.315 3.73949 11.4888 3.65914C11.6746 3.5732 11.8783 3.53295 12.0828 3.54174C12.2874 3.55054 12.4868 3.60812 12.6646 3.70969C12.8372 3.80834 12.9845 3.9457 13.0949 4.11087L16.7756 10.4858L15.766 10.2153C15.3551 10.1052 14.9327 10.3491 14.8226 10.76C14.7125 11.1709 14.9564 11.5933 15.3673 11.7034L18.1732 12.4552C18.183 12.4578 18.1929 12.4602 18.2028 12.4625C18.3852 12.5037 18.583 12.4791 18.7577 12.3782C18.9431 12.2712 19.0671 12.0987 19.1175 11.9068L19.8683 9.1046C19.9784 8.69369 19.7346 8.27132 19.3237 8.16122C18.9127 8.05112 18.4904 8.29498 18.3803 8.7059L18.1098 9.7155L14.4179 3.32123C14.4113 3.30968 14.4043 3.29832 14.397 3.28713C14.1519 2.90929 13.8199 2.59555 13.4289 2.37209C13.0378 2.14864 12.599 2.02196 12.149 2.00261Z" fill="#646464"/>
<path d="M8.44446 7.95746C8.394 7.7657 8.26997 7.59337 8.08468 7.48639C7.90959 7.38529 7.71131 7.36076 7.52859 7.40239C7.51909 7.40455 7.50962 7.4069 7.50017 7.40943L4.6943 8.16122C4.28338 8.27132 4.03952 8.69369 4.14962 9.10461C4.25972 9.51553 4.68209 9.75939 5.09301 9.64929L6.10263 9.37878L2.41078 15.7731C2.40413 15.7846 2.39779 15.7963 2.39174 15.8081C2.18704 16.2093 2.08123 16.6536 2.08316 17.1039C2.08508 17.5543 2.19468 17.9977 2.40281 18.3971C2.61093 18.7965 2.91156 19.1403 3.27959 19.3999C3.64763 19.6595 4.07241 19.8273 4.51849 19.8893C4.54828 19.8934 4.5783 19.8958 4.60838 19.8965L5.78023 19.9211C6.20555 19.9301 6.55759 19.5925 6.56654 19.1672C6.57549 18.7419 6.23795 18.3898 5.81263 18.3809L4.69124 18.3573C4.5029 18.3251 4.32395 18.2513 4.16754 18.1409C4.00025 18.023 3.8636 17.8667 3.769 17.6851C3.67439 17.5036 3.62458 17.302 3.6237 17.0973C3.62285 16.8985 3.6682 16.7023 3.75607 16.5241L7.43678 10.1491L7.70728 11.1587C7.81738 11.5696 8.23975 11.8135 8.65067 11.7034C9.06159 11.5933 9.30545 11.1709 9.19535 10.76L8.44446 7.95746Z" fill="#646464"/>
<path d="M21.1056 14.953C20.9006 14.5803 20.4323 14.4443 20.0595 14.6493C19.6867 14.8543 19.5508 15.3227 19.7558 15.6955L20.2964 16.6783C20.3628 16.8576 20.3884 17.0496 20.3711 17.2403C20.3526 17.4442 20.2855 17.6408 20.1756 17.8135C20.0657 17.9863 19.916 18.1303 19.7391 18.2334C19.5672 18.3336 19.3745 18.3924 19.1761 18.4054H11.8145L12.5537 17.6662C12.8545 17.3654 12.8545 16.8777 12.5537 16.5769C12.2528 16.2761 11.7651 16.2761 11.4643 16.5769L9.41024 18.631C9.3343 18.7069 9.27754 18.7948 9.23994 18.8885C9.20894 18.9656 9.19005 19.0489 9.18563 19.136C9.18497 19.1491 9.18463 19.1624 9.18463 19.1757C9.18463 19.2834 9.20676 19.386 9.24672 19.4791C9.27944 19.5556 9.32509 19.6278 9.38367 19.6924C9.39326 19.703 9.40313 19.7133 9.41329 19.7234L11.4643 21.7744C11.7651 22.0752 12.2528 22.0752 12.5537 21.7744C12.8545 21.4736 12.8545 20.9859 12.5537 20.6851L11.8145 19.9459H19.1983C19.2115 19.9459 19.2247 19.9456 19.2379 19.9449C19.6879 19.9217 20.1257 19.7912 20.5149 19.5643C20.9041 19.3374 21.2334 19.0207 21.4753 18.6406C21.7172 18.2605 21.8646 17.8281 21.9053 17.3794C21.946 16.9307 21.8788 16.4788 21.7092 16.0614C21.6979 16.0336 21.685 16.0064 21.6705 15.9801L21.1056 14.953Z" fill="#646464"/>
</svg>
