<svg width="24" height="24" viewBox="0 0 24 24" fill="none" xmlns="http://www.w3.org/2000/svg">
<path d="M20.03 8.47L14.03 2.47C13.889 2.329 13.699 2.25 13.5 2.25H7.5C5.082 2.25 3.75 3.582 3.75 6V18C3.75 20.418 5.082 21.75 7.5 21.75H16.5C18.918 21.75 20.25 20.418 20.25 18V9C20.25 8.801 20.171 8.61 20.03 8.47ZM14.25 4.811L17.689 8.25H16.5C14.923 8.25 14.25 7.577 14.25 6V4.811ZM16.5 20.25H7.5C5.923 20.25 5.25 19.577 5.25 18V6C5.25 4.423 5.923 3.75 7.5 3.75H12.75V6C12.75 8.418 14.082 9.75 16.5 9.75H18.75V18C18.75 19.577 18.077 20.25 16.5 20.25Z" fill="#646464"/>
<path fill-rule="evenodd" clip-rule="evenodd" d="M7.97613 12.0003H6.93747C6.91073 11.9992 6.75348 11.9954 6.62678 12.1187C6.49355 12.2483 6.49911 12.4161 6.50041 12.4416V16.1542C6.50041 16.3979 6.698 16.5955 6.94171 16.5955C7.18541 16.5955 7.38301 16.398 7.38301 16.1542V14.98H7.97613C8.79896 14.98 9.46599 14.313 9.46599 13.4901C9.46599 12.6673 8.79896 12.0003 7.97613 12.0003ZM7.97608 12.8826H7.38438L7.38861 14.0999H7.97608C8.31147 14.1001 8.58347 13.8283 8.58363 13.493C8.5838 13.1576 8.31206 12.8856 7.97667 12.8854L7.97608 12.8826Z" fill="#646464"/>
<path d="M11.6789 16.5984C12.4075 16.632 13.056 16.1399 13.2196 15.4291C13.2891 14.9985 13.1288 14.563 12.7967 14.2802C12.6098 14.1165 12.3924 13.9915 12.157 13.9123C12.0299 13.869 11.8997 13.8386 11.7693 13.8082C11.702 13.7924 11.6345 13.7767 11.5674 13.7591C11.4109 13.7279 11.2659 13.6546 11.1479 13.5473C11.0299 13.4354 10.9881 13.2647 11.0413 13.1109C11.1082 12.9785 11.2394 12.8906 11.3873 12.8793C11.533 12.8702 11.6789 12.8917 11.8159 12.9422C12.0129 13.0037 12.2063 13.0765 12.3949 13.1604C12.6025 13.2493 12.8475 13.3058 13.0149 13.1081C13.1388 12.9595 13.148 12.7464 13.0375 12.5877C12.9644 12.4812 12.8655 12.395 12.7501 12.337C12.2332 12.0335 11.6164 11.9493 11.0371 12.1033C10.7311 12.2001 10.4725 12.4083 10.3126 12.6865C10.2376 12.8185 10.188 12.9634 10.1664 13.1137C10.1271 13.3841 10.1857 13.6596 10.3317 13.8905C10.4964 14.1317 10.7343 14.3136 11.0102 14.4095C11.299 14.5281 11.5878 14.6432 11.8808 14.7505C12.0069 14.7905 12.1229 14.8569 12.2212 14.9454C12.3312 15.0505 12.3721 15.209 12.3264 15.3542C12.2669 15.4933 12.1487 15.5988 12.0037 15.6423C11.7833 15.7252 11.5418 15.7339 11.316 15.667C11.0962 15.5875 10.8932 15.4678 10.7172 15.314C10.6981 15.2977 10.6388 15.2511 10.6275 15.2434C10.463 15.1257 10.2383 15.1408 10.0909 15.2794C9.90901 15.4416 9.89266 15.721 10.0549 15.9029C10.4762 16.3502 11.0645 16.6022 11.6789 16.5984Z" fill="#646464"/>
<path fill-rule="evenodd" clip-rule="evenodd" d="M14.5987 16.5433C14.5987 16.5433 15.3556 16.5405 15.6479 16.5348C16.7282 16.5165 17.505 15.576 17.5049 14.2993C17.5049 12.9578 16.7452 12.0554 15.6126 12.0554H14.5909C14.3469 12.0562 14.1496 12.2541 14.1496 12.4981L14.1574 16.1034C14.1581 16.3466 14.3555 16.5433 14.5987 16.5433ZM15.0336 12.9383H15.6112C16.3589 12.9383 16.6216 13.6345 16.6216 14.2996C16.6216 14.9648 16.3151 15.6412 15.6295 15.6525C15.4918 15.6589 15.2496 15.6589 15.0336 15.6589V12.9383Z" fill="#646464"/>
</svg>
