<svg width="24" height="24" viewBox="0 0 24 24" fill="none" xmlns="http://www.w3.org/2000/svg">
<path fill-rule="evenodd" clip-rule="evenodd" d="M8.65232 3.20777C8.78415 3.033 8.99038 2.93024 9.2093 2.93024H12C12.2504 2.93024 12.4815 3.06439 12.6058 3.28177L16.1258 9.44186H19.4419C20.1203 9.44186 20.771 9.71138 21.2507 10.1911C21.7305 10.6709 22 11.3215 22 12C22 12.6785 21.7305 13.3291 21.2507 13.8089C20.771 14.2886 20.1203 14.5581 19.4419 14.5581H16.1258L12.6058 20.7182C12.4815 20.9356 12.2504 21.0698 12 21.0698H9.2093C8.99038 21.0698 8.78415 20.967 8.65232 20.7922C8.52048 20.6175 8.47833 20.3909 8.53847 20.1804L10.1448 14.5581H7.63782L5.9817 16.2143C5.85086 16.3451 5.67341 16.4186 5.48837 16.4186H2.69768C2.45588 16.4186 2.23132 16.2934 2.1042 16.0877C1.97708 15.882 1.96552 15.6252 2.07366 15.4089L3.77812 12L2.07366 8.59108C1.96552 8.37481 1.97708 8.11797 2.1042 7.91228C2.23132 7.7066 2.45588 7.5814 2.69768 7.5814H5.48837C5.67341 7.5814 5.85086 7.6549 5.9817 7.78574L7.63782 9.44186H10.1448L8.53847 3.81958C8.47833 3.60908 8.52048 3.38255 8.65232 3.20777ZM10.1342 4.32559L11.7406 9.94787C11.8007 10.1584 11.7586 10.3849 11.6268 10.5597C11.4949 10.7345 11.2887 10.8372 11.0698 10.8372H7.34884C7.1638 10.8372 6.98635 10.7637 6.85551 10.6329L5.19939 8.97675H3.82654L5.18216 11.688C5.28037 11.8844 5.28037 12.1156 5.18216 12.312L3.82654 15.0233H5.19939L6.85551 13.3671C6.98635 13.2363 7.1638 13.1628 7.34884 13.1628H11.0698C11.2887 13.1628 11.4949 13.2656 11.6268 13.4403C11.7586 13.6151 11.8007 13.8416 11.7406 14.0521L10.1342 19.6744H11.5951L15.1152 13.5143C15.2394 13.2969 15.4706 13.1628 15.7209 13.1628H19.4419C19.7503 13.1628 20.046 13.0403 20.2641 12.8222C20.4821 12.6042 20.6047 12.3084 20.6047 12C20.6047 11.6916 20.4821 11.3959 20.2641 11.1778C20.046 10.9597 19.7503 10.8372 19.4419 10.8372H15.7209C15.4706 10.8372 15.2394 10.7031 15.1152 10.4857L11.5951 4.32559H10.1342Z" fill="#646464"/>
</svg>
