<svg width="24" height="24" viewBox="0 0 24 24" fill="none" xmlns="http://www.w3.org/2000/svg">
<path fill-rule="evenodd" clip-rule="evenodd" d="M12.7792 3.82525C12.3305 3.44284 11.6698 3.44284 11.2211 3.82525L9.96863 4.89198C9.5303 5.26553 8.9849 5.49218 8.40983 5.53807L6.79578 5.66687C6.78745 5.66781 6.77908 5.66861 6.77066 5.66928C6.18295 5.71618 5.71626 6.18287 5.66936 6.77058C5.66832 6.7837 5.66695 6.79672 5.66526 6.80963L5.53725 8.41028C5.53725 8.41032 5.53725 8.41023 5.53725 8.41028C5.49148 8.9835 5.26741 9.5292 4.89273 9.96886L3.82503 11.2209C3.82498 11.221 3.82509 11.2208 3.82503 11.2209C3.44293 11.6695 3.44283 12.3303 3.82533 12.7792L4.89207 14.0312C4.89205 14.0312 4.89209 14.0312 4.89207 14.0312C5.26548 14.4694 5.49222 15.0146 5.53814 15.5897C5.53814 15.5896 5.53814 15.5897 5.53814 15.5897L5.66935 17.2303C5.71546 17.8081 6.16726 18.269 6.7409 18.329C6.75051 18.3294 6.76015 18.33 6.76982 18.3308L8.41036 18.462C8.41031 18.462 8.4104 18.462 8.41036 18.462C8.98548 18.5079 9.53073 18.7346 9.96894 19.1081L11.2209 20.1748C11.6696 20.5571 12.3305 20.5572 12.7792 20.1747L14.0311 19.1072C14.47 18.7331 15.0156 18.5075 15.5899 18.4617L17.23 18.3308C17.2405 18.33 17.2509 18.3293 17.2613 18.3289C17.8242 18.2696 18.2696 17.8242 18.329 17.2613C18.3294 17.2508 18.33 17.2402 18.3309 17.2296L18.4621 15.5897C18.508 15.0144 18.7347 14.4694 19.1082 14.0313L20.1746 12.7784C20.557 12.3297 20.5573 11.6698 20.1748 11.221L19.1081 9.96855C19.108 9.96849 19.1081 9.9686 19.1081 9.96855C18.7348 9.53046 18.5077 8.98503 18.4618 8.40975L18.3314 6.76991C18.2845 6.18219 17.8176 5.71528 17.2299 5.66838L15.5898 5.53717C15.5897 5.53716 15.5898 5.53717 15.5898 5.53717C15.0161 5.49136 14.4709 5.26685 14.0316 4.89245L12.7792 3.82525ZM19.8676 17.3129C19.8673 17.3262 19.8665 17.3395 19.8655 17.3528C19.7585 18.6937 18.6938 19.7584 17.3529 19.8654C17.3396 19.8665 17.3263 19.8672 17.3131 19.8676L15.7123 19.9953C15.4601 20.0154 15.2212 20.1143 15.0292 20.278L13.7774 21.3455C12.7537 22.2179 11.247 22.2183 10.2231 21.3459C10.2231 21.3458 10.2232 21.3459 10.2231 21.3459L8.97111 20.2791C8.77835 20.1149 8.53922 20.0157 8.28797 19.9956L6.68556 19.8675C6.67318 19.8671 6.66075 19.8664 6.64828 19.8654C5.3075 19.7584 4.2428 18.6937 4.13574 17.353C4.13574 17.3529 4.13575 17.353 4.13574 17.353L4.00453 15.7123C3.98448 15.4611 3.88535 15.2219 3.72109 15.0291L2.65435 13.7771C2.65433 13.777 2.65437 13.7771 2.65435 13.7771C1.7821 12.7535 1.78148 11.2469 2.65405 10.223L3.72175 8.97096C3.88478 8.77965 3.98342 8.54104 4.00362 8.28789L4.13484 6.64708C4.13608 6.63157 4.13777 6.6162 4.1399 6.60099C4.26682 5.29275 5.3068 4.25766 6.61729 4.1383C6.62723 4.13712 6.63723 4.13612 6.6473 4.13532L8.28745 4.00444C8.5388 3.98438 8.77806 3.8852 8.97073 3.721L10.2232 2.65427C10.2231 2.65431 10.2232 2.65422 10.2232 2.65427C11.2469 1.78196 12.7534 1.78187 13.7771 2.65427L15.0295 3.72147C15.2211 3.88478 15.4594 3.98337 15.7122 4.00354L17.3522 4.13475C17.3522 4.13474 17.3523 4.13475 17.3522 4.13475C18.693 4.24182 19.758 5.30676 19.865 6.64752L19.9954 8.28737C19.9954 8.28729 19.9954 8.28744 19.9954 8.28737C20.0155 8.53835 20.1147 8.77781 20.279 8.97064L21.3458 10.2231C21.3457 10.2231 21.3458 10.2232 21.3458 10.2231C22.218 11.2468 22.2183 12.7522 21.3459 13.776L20.2794 15.0288C20.1151 15.2217 20.0158 15.4609 19.9957 15.7121L19.8676 17.3129Z" fill="#646464"/>
</svg>
