<svg width="24" height="24" viewBox="0 0 24 24" fill="none" xmlns="http://www.w3.org/2000/svg">
<path fill-rule="evenodd" clip-rule="evenodd" d="M3.11111 13.1037C3.72476 13.1037 4.22222 13.6012 4.22222 14.2148V18.6593C4.22222 19.2729 3.72476 19.7704 3.11111 19.7704C2.49746 19.7704 2 19.2729 2 18.6593V14.2148C2 13.6012 2.49746 13.1037 3.11111 13.1037Z" fill="#646464"/>
<path fill-rule="evenodd" clip-rule="evenodd" d="M9.03701 8.65924C9.65066 8.65924 10.1481 9.1567 10.1481 9.77035V18.6592C10.1481 19.2729 9.65066 19.7704 9.03701 19.7704C8.42336 19.7704 7.9259 19.2729 7.9259 18.6592V9.77035C7.9259 9.1567 8.42336 8.65924 9.03701 8.65924Z" fill="#646464"/>
<path fill-rule="evenodd" clip-rule="evenodd" d="M14.963 4.21484C15.5766 4.21484 16.0741 4.71231 16.0741 5.32595V18.6593C16.0741 19.2729 15.5766 19.7704 14.963 19.7704C14.3493 19.7704 13.8519 19.2729 13.8519 18.6593V5.32595C13.8519 4.71231 14.3493 4.21484 14.963 4.21484Z" fill="#646464"/>
<path fill-rule="evenodd" clip-rule="evenodd" d="M20.8889 17.5482C21.5025 17.5482 22 18.0456 22 18.6593V18.6741C22 19.2877 21.5025 19.7852 20.8889 19.7852C20.2752 19.7852 19.7778 19.2877 19.7778 18.6741V18.6593C19.7778 18.0456 20.2752 17.5482 20.8889 17.5482Z" fill="#646464"/>
</svg>
