<svg width="24" height="24" viewBox="0 0 24 24" fill="none" xmlns="http://www.w3.org/2000/svg">
<path d="M20.4426 16.8111L13.3256 6.61571C14.495 5.88358 14.8495 4.34212 14.1173 3.17276C13.3852 2.00339 11.8438 1.64894 10.6744 2.38111C9.50502 3.11327 9.15057 4.65469 9.88274 5.82406C10.0833 6.14443 10.354 6.41512 10.6744 6.61571L3.55738 16.8111C2.78286 17.8254 2.63501 19.1855 3.1735 20.3425C3.80855 21.4395 5.01246 22.0794 6.27695 21.9921H17.723C18.9875 22.0794 20.1914 21.4395 20.8265 20.3425C21.3649 19.1855 21.2171 17.8254 20.4426 16.8111ZM11.776 20.3267L16.3208 13.8159L17.4957 15.5038L14.1325 20.3267H11.776V20.3267ZM7.45271 20.3267L14.1592 10.7192L15.305 12.3612L9.74507 20.3267H7.45271ZM4.64739 19.5723C4.40043 18.9646 4.5059 18.2706 4.92218 17.7637L12 7.62574L13.1499 9.27278C13.1383 9.28777 13.1216 9.29527 13.1108 9.31025L5.50505 20.2093C5.14443 20.1224 4.83475 19.8924 4.64739 19.5723ZM19.3526 19.5723C18.9957 20.1116 18.3652 20.4035 17.723 20.3267H16.1634L18.5133 16.9593L19.0754 17.7637C19.4925 18.2701 19.5989 18.9642 19.3526 19.5723Z" fill="#646464"/>
</svg>
