<svg width="24" height="24" viewBox="0 0 24 24" fill="none" xmlns="http://www.w3.org/2000/svg">
<path d="M12.1179 22C11.6256 22 11.1282 21.9651 10.6266 21.8933C6.12484 21.2512 2.60774 17.6829 2.07232 13.216C1.80564 10.9902 2.26823 8.80855 3.41188 6.90692C5.23146 3.88009 8.57418 2 12.1364 2C12.6195 2.00103 13.0298 2.28618 13.1929 2.7262C13.358 3.17032 13.2319 3.65752 12.8718 3.96728C11.2533 5.36017 10.5292 7.45565 10.9364 9.57166C11.4082 12.0313 13.4329 13.9114 15.9725 14.2509C17.508 14.455 18.986 14.1114 20.2384 13.2519C20.6312 12.9842 21.1359 12.9862 21.5225 13.258C21.9082 13.5278 22.0816 13.9965 21.9656 14.4509C20.8138 18.9537 16.7233 21.999 12.1179 22ZM11.0615 3.60625C8.44699 3.93549 6.08686 5.44121 4.72987 7.69979C3.76572 9.305 3.37391 11.1492 3.59956 13.0324C4.0519 16.809 7.03052 19.8255 10.843 20.3702C14.8884 20.9466 18.7101 18.7147 20.146 15.0807C18.8044 15.733 17.2854 15.9792 15.7663 15.7771C12.5693 15.3504 10.0204 12.9729 9.42346 9.86296C8.98652 7.57873 9.59371 5.31403 11.0615 3.60625ZM4.07138 7.30285H4.08164H4.07138Z" fill="#646464"/>
</svg>
