<svg width="24" height="24" viewBox="0 0 24 24" fill="none" xmlns="http://www.w3.org/2000/svg">
<path d="M21.9457 12.515C21.9457 12.51 21.9487 12.506 21.9487 12.501C21.9487 12.487 21.9416 12.476 21.9405 12.462C21.9293 12.394 21.9139 12.326 21.8985 12.258C21.8913 12.238 21.8893 12.217 21.8811 12.198C21.839 12.024 21.7959 11.85 21.7282 11.679L20.6637 9.11499C20.1929 7.95199 19.7058 6.75 17.0967 6.75H14.8199V5C14.8199 3.759 13.784 2.75 12.5123 2.75H4.30758C3.03585 2.75 2 3.759 2 5V16C2 17.165 2.9158 18.114 4.07985 18.228C4.07062 18.319 4.05118 18.407 4.05118 18.5C4.05118 20.016 5.31573 21.25 6.87155 21.25C8.42737 21.25 9.69192 20.016 9.69192 18.5C9.69192 18.414 9.67344 18.333 9.66626 18.25H14.3337C14.3255 18.333 14.3081 18.414 14.3081 18.5C14.3081 20.016 15.5726 21.25 17.1284 21.25C18.6843 21.25 19.9488 20.016 19.9488 18.5C19.9488 18.407 19.9304 18.318 19.9202 18.228C21.0842 18.114 22 17.165 22 16V13.08C22 12.891 21.9744 12.703 21.9457 12.515ZM17.0977 8.25098C18.6596 8.25098 18.8053 8.608 19.2361 9.672L20.0986 11.751H14.8209V8.25098H17.0977ZM6.87255 19.751C6.16592 19.751 5.59057 19.19 5.59057 18.501C5.59057 17.812 6.16592 17.251 6.87255 17.251C7.57918 17.251 8.15454 17.812 8.15454 18.501C8.15454 19.19 7.57918 19.751 6.87255 19.751ZM17.1284 19.751C16.4218 19.751 15.8465 19.19 15.8465 18.501C15.8465 17.812 16.4218 17.251 17.1284 17.251C17.8351 17.251 18.4104 17.812 18.4104 18.501C18.4104 19.19 17.8351 19.751 17.1284 19.751ZM19.6924 16.751H19.2863C18.7684 16.145 17.9992 15.751 17.1284 15.751C16.2577 15.751 15.4885 16.145 14.9706 16.751H9.0294C8.51147 16.145 7.74228 15.751 6.87155 15.751C6.00083 15.751 5.23163 16.145 4.71371 16.751H4.30758C3.88401 16.751 3.53838 16.415 3.53838 16.001V13.251H9.94832C10.3729 13.251 10.7175 12.915 10.7175 12.501C10.7175 12.087 10.3729 11.751 9.94832 11.751H3.53838V5.00098C3.53838 4.58698 3.88401 4.25098 4.30758 4.25098H12.5123C12.9359 4.25098 13.2815 4.58698 13.2815 5.00098V13.251H20.4606V16.001C20.4616 16.415 20.116 16.751 19.6924 16.751Z" fill="#646464"/>
</svg>
