<svg width="24" height="24" viewBox="0 0 24 24" fill="none" xmlns="http://www.w3.org/2000/svg">
<path d="M17.8333 13.6603C17.1475 13.6648 16.4736 13.8411 15.8733 14.1732L13.0833 10.8247L19.3058 3.35234C19.4411 3.18179 19.5043 2.96508 19.482 2.74851C19.4597 2.53194 19.3536 2.33268 19.1865 2.1933C19.0194 2.05392 18.8044 1.98547 18.5875 2.00258C18.3707 2.01969 18.1691 2.12099 18.0258 2.28486L12 9.52208L5.97333 2.28486C5.83009 2.12099 5.6285 2.01969 5.41162 2.00258C5.19474 1.98547 4.97978 2.05392 4.81265 2.1933C4.64552 2.33268 4.53949 2.53194 4.51719 2.74851C4.4949 2.96508 4.55811 3.18179 4.69333 3.35234L10.9167 10.8247L8.12667 14.1732C7.52621 13.8415 6.85249 13.6652 6.16667 13.6603C5.34258 13.6603 4.537 13.9048 3.85179 14.363C3.16659 14.8212 2.63254 15.4724 2.31717 16.2344C2.00181 16.9963 1.91929 17.8348 2.08006 18.6436C2.24083 19.4525 2.63767 20.1955 3.22039 20.7787C3.80311 21.3618 4.54554 21.759 5.35379 21.9199C6.16205 22.0808 6.99982 21.9982 7.76118 21.6826C8.52254 21.367 9.17328 20.8325 9.63112 20.1468C10.089 19.4611 10.3333 18.6549 10.3333 17.8301C10.3286 16.8877 10.0015 15.9754 9.40667 15.2448L12 12.1274L14.5925 15.2448C13.9984 15.9757 13.6717 16.8879 13.6667 17.8301C13.6667 18.6549 13.911 19.4611 14.3689 20.1468C14.8267 20.8325 15.4775 21.367 16.2388 21.6826C17.0002 21.9982 17.838 22.0808 18.6462 21.9199C19.4545 21.759 20.1969 21.3618 20.7796 20.7787C21.3623 20.1955 21.7592 19.4525 21.9199 18.6436C22.0807 17.8348 21.9982 16.9963 21.6828 16.2344C21.3675 15.4724 20.8334 14.8212 20.1482 14.363C19.463 13.9048 18.6574 13.6603 17.8333 13.6603ZM6.16667 20.3321C5.67221 20.3321 5.18887 20.1853 4.77774 19.9104C4.36662 19.6355 4.04619 19.2447 3.85697 18.7876C3.66775 18.3304 3.61824 17.8274 3.7147 17.342C3.81117 16.8567 4.04927 16.4109 4.3989 16.061C4.74853 15.7111 5.19399 15.4728 5.67894 15.3763C6.16389 15.2797 6.66656 15.3293 7.12338 15.5187C7.58019 15.708 7.97064 16.0287 8.24534 16.4401C8.52004 16.8516 8.66667 17.3353 8.66667 17.8301C8.66667 18.4937 8.40328 19.1301 7.93443 19.5993C7.46559 20.0685 6.82971 20.3321 6.16667 20.3321ZM17.8333 20.3321C17.3389 20.3321 16.8555 20.1853 16.4444 19.9104C16.0333 19.6355 15.7129 19.2447 15.5236 18.7876C15.3344 18.3304 15.2849 17.8274 15.3814 17.342C15.4778 16.8567 15.7159 16.4109 16.0656 16.061C16.4152 15.7111 16.8607 15.4728 17.3456 15.3763C17.8306 15.2797 18.3332 15.3293 18.79 15.5187C19.2469 15.708 19.6373 16.0287 19.912 16.4401C20.1867 16.8516 20.3333 17.3353 20.3333 17.8301C20.3333 18.4937 20.0699 19.1301 19.6011 19.5993C19.1323 20.0685 18.4964 20.3321 17.8333 20.3321Z" fill="#646464"/>
</svg>
