<svg width="24" height="24" viewBox="0 0 24 24" fill="none" xmlns="http://www.w3.org/2000/svg">
<path d="M9.75 18.5V15.5C9.75 14.091 8.909 13.25 7.5 13.25H4.5C3.091 13.25 2.25 14.091 2.25 15.5V18.5C2.25 19.909 3.091 20.75 4.5 20.75H7.5C8.909 20.75 9.75 19.909 9.75 18.5ZM8.25 18.5C8.25 19.089 8.089 19.25 7.5 19.25H4.5C3.911 19.25 3.75 19.089 3.75 18.5V15.5C3.75 14.911 3.911 14.75 4.5 14.75H7.5C8.089 14.75 8.25 14.911 8.25 15.5V18.5ZM9.75 8.5V5.5C9.75 4.091 8.909 3.25 7.5 3.25H4.5C3.091 3.25 2.25 4.091 2.25 5.5V8.5C2.25 9.909 3.091 10.75 4.5 10.75H7.5C8.909 10.75 9.75 9.909 9.75 8.5ZM8.25 8.5C8.25 9.089 8.089 9.25 7.5 9.25H4.5C3.911 9.25 3.75 9.089 3.75 8.5V5.5C3.75 4.911 3.911 4.75 4.5 4.75H7.5C8.089 4.75 8.25 4.911 8.25 5.5V8.5Z" fill="#646464"/>
<path d="M21.5298 15.4701C21.8228 15.7631 21.8228 16.2381 21.5298 16.5311L17.5298 20.5311C17.4608 20.6001 17.3779 20.6552 17.2869 20.6932C17.1959 20.7312 17.0978 20.7511 16.9998 20.7511C16.9018 20.7511 16.8047 20.7312 16.7127 20.6932C16.6207 20.6552 16.5387 20.6001 16.4697 20.5311L12.4698 16.5311C12.1768 16.2381 12.1768 15.7631 12.4698 15.4701C12.7628 15.1771 13.2378 15.1771 13.5308 15.4701L16.2508 18.1901V5.81115L13.5308 8.53112C13.2378 8.82412 12.7628 8.82412 12.4698 8.53112C12.1768 8.23812 12.1768 7.76309 12.4698 7.47009L16.4697 3.47009C16.5387 3.40109 16.6219 3.34622 16.7139 3.30822C16.8969 3.23222 17.1039 3.23222 17.2869 3.30822C17.3789 3.34622 17.4618 3.40109 17.5308 3.47009L21.5308 7.47009C21.8238 7.76309 21.8238 8.23812 21.5308 8.53112C21.3848 8.67712 21.1928 8.75109 21.0008 8.75109C20.8088 8.75109 20.6167 8.67812 20.4707 8.53112L17.7508 5.81115V18.1901L20.4707 15.4701C20.7627 15.1771 21.2368 15.1771 21.5298 15.4701Z" fill="#646464"/>
</svg>
