<svg width="24" height="24" viewBox="0 0 24 24" fill="none" xmlns="http://www.w3.org/2000/svg">
<path fill-rule="evenodd" clip-rule="evenodd" d="M12 2C10.6868 2 9.38642 2.25866 8.17317 2.7612C6.95991 3.26375 5.85752 4.00035 4.92893 4.92893C4.00035 5.85752 3.26375 6.95991 2.7612 8.17317C2.25866 9.38642 2 10.6868 2 12C2 13.3132 2.25866 14.6136 2.7612 15.8268C3.26375 17.0401 4.00035 18.1425 4.92893 19.0711C5.85752 19.9997 6.95991 20.7362 8.17317 21.2388C9.38642 21.7413 10.6868 22 12 22C13.3132 22 14.6136 21.7413 15.8268 21.2388C17.0401 20.7362 18.1425 19.9997 19.0711 19.0711C19.9997 18.1425 20.7362 17.0401 21.2388 15.8268C21.7413 14.6136 22 13.3132 22 12C22 10.6868 21.7413 9.38642 21.2388 8.17317C20.7362 6.95991 19.9997 5.85752 19.0711 4.92893C18.1425 4.00035 17.0401 3.26375 15.8268 2.7612C14.6136 2.25866 13.3132 2 12 2ZM20.4615 12C20.4615 10.8888 20.2427 9.78851 19.8174 8.76191C19.3922 7.73531 18.7689 6.80252 17.9832 6.01679C17.1975 5.23106 16.2647 4.60779 15.2381 4.18256C14.2115 3.75733 13.1112 3.53846 12 3.53846C10.8888 3.53846 9.78851 3.75733 8.76191 4.18256C7.73531 4.60779 6.80252 5.23106 6.01679 6.01679C5.23106 6.80252 4.60779 7.73531 4.18256 8.76191C3.75733 9.78851 3.53846 10.8888 3.53846 12C3.53846 12.0881 3.59134 12.2945 3.97082 12.5936C4.34163 12.8858 4.92585 13.1825 5.71631 13.446C7.2892 13.9703 9.51095 14.3077 12 14.3077C14.489 14.3077 16.7108 13.9703 18.2837 13.446C19.0742 13.1825 19.6584 12.8858 20.0292 12.5936C20.4087 12.2945 20.4615 12.0881 20.4615 12ZM3.86873 14.341C4.27607 14.5528 4.73521 14.7407 5.22984 14.9055C6.99798 15.4949 9.39161 15.8462 12 15.8462C14.6084 15.8462 17.002 15.4949 18.7702 14.9055C19.2648 14.7407 19.7239 14.5528 20.1313 14.341C20.0437 14.6451 19.939 14.9446 19.8174 15.2381C19.3922 16.2647 18.7689 17.1975 17.9832 17.9832C17.1975 18.7689 16.2647 19.3922 15.2381 19.8174C14.2115 20.2427 13.1112 20.4615 12 20.4615C10.8888 20.4615 9.78851 20.2427 8.76191 19.8174C7.73531 19.3922 6.80252 18.7689 6.01679 17.9832C5.23106 17.1975 4.60779 16.2647 4.18256 15.2381C4.06098 14.9446 3.95628 14.6451 3.86873 14.341Z" fill="#646464"/>
</svg>
