<svg width="24" height="24" viewBox="0 0 24 24" fill="none" xmlns="http://www.w3.org/2000/svg">
<path fill-rule="evenodd" clip-rule="evenodd" d="M16.4081 1.77576C16.5319 2.17104 16.3118 2.59185 15.9166 2.71566L13.164 3.57789L12.8853 5.24996H15.5C17.5711 5.24996 19.25 6.92889 19.25 8.99996V9.99996C19.25 10.0413 19.2466 10.0825 19.2398 10.1233L17.6576 19.6165C17.3562 21.4247 15.7918 22.75 13.9586 22.75H10.0414C8.20823 22.75 6.64377 21.4247 6.3424 19.6165L4.7602 10.1233C4.75341 10.0825 4.75 10.0413 4.75 9.99996V8.99996C4.75 6.92889 6.42893 5.24996 8.5 5.24996H11.3647L11.6844 3.33129C11.7774 2.77356 12.1761 2.31549 12.7156 2.14647L15.4682 1.28425C15.8634 1.16043 16.2842 1.38049 16.4081 1.77576ZM8.5 6.74996C7.25736 6.74996 6.25 7.75732 6.25 8.99996V9.24996H17.75V8.99996C17.75 7.75732 16.7426 6.74996 15.5 6.74996H8.5ZM17.6147 10.75H6.38535L7.822 19.3699C8.00282 20.4548 8.94149 21.25 10.0414 21.25H13.9586C15.0585 21.25 15.9972 20.4548 16.178 19.3699L17.6147 10.75Z" fill="#646464"/>
</svg>
