<svg width="24" height="24" viewBox="0 0 24 24" fill="none" xmlns="http://www.w3.org/2000/svg">
<path d="M11.3707 21C10.8507 21 10.3401 20.8183 9.92149 20.4666L6.48812 17.58C6.27883 17.4037 6.01188 17.3069 5.73654 17.3069H4.09293C2.93949 17.3069 2 16.3755 2 15.23V8.76959C2 7.62409 2.93949 6.69273 4.09293 6.69273H5.73654C6.01188 6.69273 6.27881 6.5959 6.48903 6.4196L9.9224 3.53304C10.5996 2.96352 11.5187 2.84087 12.3233 3.21101C13.1279 3.58116 13.6274 4.35748 13.6274 5.23807V18.7634C13.6274 19.644 13.1279 20.4203 12.3233 20.7904C12.0172 20.9307 11.6926 21 11.3707 21ZM4.09384 8.0764C3.70967 8.0764 3.39619 8.38655 3.39619 8.76869V15.2291C3.39619 15.6113 3.70967 15.9214 4.09384 15.9214H5.73745C6.34208 15.9214 6.92901 16.1345 7.39038 16.5231L10.8237 19.4097C11.0833 19.6284 11.4255 19.6763 11.7362 19.5323C12.0469 19.3892 12.2321 19.1012 12.2321 18.7616V5.23627C12.2321 4.89659 12.0469 4.6084 11.7362 4.46533C11.4265 4.32226 11.0842 4.36846 10.8247 4.58815L7.39038 7.47448C6.92901 7.86216 6.34208 8.0764 5.73745 8.0764H4.09384ZM16.4346 16.4032C17.6244 15.2282 18.2792 13.6636 18.2792 11.9994C18.2792 10.3351 17.6244 8.77054 16.4346 7.5955C16.1612 7.32597 15.7194 7.32592 15.4478 7.5973C15.1752 7.86775 15.1771 8.30716 15.4496 8.57669C16.3742 9.49051 16.884 10.7071 16.884 12.0003C16.884 13.2935 16.3742 14.51 15.4496 15.4238C15.1771 15.6934 15.1752 16.1319 15.4478 16.4032C15.5836 16.5389 15.7631 16.6072 15.9417 16.6072C16.1203 16.6053 16.2979 16.538 16.4346 16.4032ZM19.0672 19.0155C20.9582 17.1436 22 14.6513 22 11.9994C22 9.34744 20.9582 6.85514 19.0672 4.9832C18.7937 4.71274 18.3518 4.71364 18.0802 4.9841C17.8086 5.25455 17.8085 5.69303 18.082 5.96349C19.7089 7.57328 20.6047 9.71666 20.6047 11.9994C20.6047 14.2821 19.7089 16.4245 18.082 18.0352C17.8085 18.3057 17.8086 18.7442 18.0802 19.0146C18.216 19.1503 18.3955 19.2177 18.5741 19.2177C18.7527 19.2177 18.9304 19.1503 19.0672 19.0155Z" fill="#646464"/>
</svg>
