<svg width="24" height="24" viewBox="0 0 24 24" fill="none" xmlns="http://www.w3.org/2000/svg">
<path fill-rule="evenodd" clip-rule="evenodd" d="M16.0652 5.12699C16.2789 4.80753 16.7121 4.72124 17.0326 4.93426C18.0474 5.60858 18.9152 6.47997 19.5842 7.49629C20.2011 8.43346 20.6373 9.47612 20.8713 10.5708C21.208 10.8406 21.4838 11.1801 21.6788 11.5672C21.9205 12.0471 22.0291 12.5827 21.9933 13.1186C21.9576 13.6544 21.7787 14.171 21.4754 14.6148C21.2307 14.9727 20.9123 15.2727 20.5427 15.4958C19.9315 17.205 18.8173 18.6937 17.3425 19.7652C15.7908 20.8925 13.9202 21.4999 12 21.4999C10.0798 21.4999 8.20916 20.8925 6.65753 19.7652C5.18271 18.6937 4.06845 17.205 3.4573 15.4958C3.08769 15.2727 2.76926 14.9727 2.52464 14.6148C2.22126 14.171 2.04243 13.6544 2.00667 13.1186C1.9709 12.5827 2.07951 12.0471 2.32124 11.5672C2.51618 11.1801 2.79197 10.8406 3.12874 10.5708C3.3577 9.49961 3.78028 8.47805 4.37662 7.55628C5.02443 6.55497 5.86449 5.69118 6.84848 5.0146C7.1656 4.79655 7.60005 4.87599 7.81885 5.19203C8.03764 5.50808 7.95793 5.94105 7.64081 6.1591C6.8082 6.73159 6.09738 7.46249 5.54924 8.30975C5.0011 9.15702 4.62645 10.1039 4.44685 11.096C4.41259 11.2853 4.30118 11.452 4.13912 11.5564C3.89547 11.7134 3.69835 11.9325 3.56819 12.1909C3.43803 12.4493 3.37955 12.7378 3.3988 13.0263C3.41806 13.3148 3.51435 13.593 3.67772 13.832C3.84108 14.0709 4.06557 14.2621 4.32794 14.3855C4.50254 14.4677 4.63516 14.6183 4.69423 14.8015C5.19129 16.3431 6.16652 17.6877 7.47944 18.6416C8.79237 19.5955 10.3752 20.1095 12 20.1095C13.6248 20.1095 15.2076 19.5955 16.5206 18.6416C17.8335 17.6877 18.8087 16.3431 19.3058 14.8015C19.3648 14.6183 19.4975 14.4677 19.6721 14.3855C19.9344 14.2621 20.1589 14.0709 20.3223 13.832C20.4856 13.593 20.5819 13.3148 20.6012 13.0263C20.6205 12.7378 20.562 12.4493 20.4318 12.1909C20.3016 11.9325 20.1045 11.7134 19.8609 11.5564C19.6988 11.452 19.5874 11.2853 19.5532 11.096C19.3699 10.0839 18.9837 9.11895 18.4176 8.25899C17.8515 7.39903 17.1172 6.66171 16.2586 6.09112C15.938 5.87811 15.8514 5.44645 16.0652 5.12699Z" fill="#646464"/>
<path fill-rule="evenodd" clip-rule="evenodd" d="M9.18131 15.6764C9.45651 15.4077 9.89818 15.4122 10.1678 15.6865C10.406 15.9287 10.6903 16.1211 11.004 16.2525C11.3177 16.3839 11.6546 16.4516 11.9949 16.4516C12.3352 16.4516 12.6721 16.3839 12.9858 16.2525C13.2995 16.1211 13.5838 15.9287 13.822 15.6865C14.0916 15.4122 14.5333 15.4077 14.8085 15.6764C15.0837 15.9451 15.0882 16.3853 14.8185 16.6596C14.4505 17.034 14.0111 17.3314 13.5263 17.5344C13.0414 17.7375 12.5208 17.842 11.9949 17.842C11.469 17.842 10.9483 17.7375 10.4635 17.5344C9.97863 17.3314 9.53931 17.034 9.17124 16.6596C8.9016 16.3853 8.90611 15.9451 9.18131 15.6764Z" fill="#646464"/>
<path fill-rule="evenodd" clip-rule="evenodd" d="M8.15892 2.80966C8.37264 2.49018 8.80576 2.40385 9.12633 2.61684C9.97131 3.17824 10.622 4.11509 11.0574 5.04493C11.4943 5.97784 11.7623 7.00628 11.7623 7.83019C11.7623 8.21415 11.45 8.52542 11.0647 8.52542C10.6794 8.52542 10.3671 8.21415 10.3671 7.83019C10.3671 7.26363 10.1701 6.43811 9.79309 5.63294C9.41463 4.8247 8.90264 4.13935 8.35241 3.77377C8.03183 3.56079 7.94521 3.12914 8.15892 2.80966Z" fill="#646464"/>
<path fill-rule="evenodd" clip-rule="evenodd" d="M12.0414 2.63921C12.3496 2.40883 12.7869 2.47108 13.0181 2.77826C14.4753 4.71464 15.0179 6.24804 15.0179 7.83028C15.0179 8.21424 14.7055 8.52551 14.3203 8.52551C13.935 8.52551 13.6227 8.21424 13.6227 7.83028C13.6227 6.63158 13.2351 5.38406 11.9019 3.61253C11.6707 3.30536 11.7332 2.86959 12.0414 2.63921Z" fill="#646464"/>
<path fill-rule="evenodd" clip-rule="evenodd" d="M8.50687 12.4651C8.50687 12.0812 8.8192 11.7699 9.20447 11.7699H9.21378C9.59905 11.7699 9.91138 12.0812 9.91138 12.4651C9.91138 12.8491 9.59905 13.1604 9.21378 13.1604H9.20447C8.8192 13.1604 8.50687 12.8491 8.50687 12.4651Z" fill="#646464"/>
<path fill-rule="evenodd" clip-rule="evenodd" d="M14.0877 12.4651C14.0877 12.0812 14.4 11.7699 14.7853 11.7699H14.7946C15.1799 11.7699 15.4922 12.0812 15.4922 12.4651C15.4922 12.8491 15.1799 13.1604 14.7946 13.1604H14.7853C14.4 13.1604 14.0877 12.8491 14.0877 12.4651Z" fill="#646464"/>
</svg>
