<svg width="24" height="24" viewBox="0 0 24 24" fill="none" xmlns="http://www.w3.org/2000/svg">
<path d="M7.64971 2.91132C6.15131 2.91132 4.71429 3.50655 3.65476 4.56608C2.59524 5.6256 2 7.06263 2 8.56102C2 10.0594 2.59524 11.4964 3.65476 12.556C4.53907 13.4403 5.68634 14.0012 6.91279 14.1625V16.6671H4.70203C4.29504 16.6671 3.96512 16.9971 3.96512 17.404C3.96512 17.811 4.29504 18.141 4.70203 18.141H6.91279V20.3517C6.91279 20.7587 7.24272 21.0886 7.64971 21.0886C8.05669 21.0886 8.38662 20.7587 8.38662 20.3517V18.141H10.5974C11.0044 18.141 11.3343 17.811 11.3343 17.404C11.3343 16.9971 11.0044 16.6671 10.5974 16.6671H8.38662V14.1625C9.17796 14.0584 9.93631 13.788 10.6123 13.3717C10.9589 13.1583 11.0668 12.7043 10.8534 12.3578C10.64 12.0112 10.186 11.9033 9.83949 12.1167C9.18632 12.5189 8.42924 12.7369 7.64971 12.7369C6.5422 12.7369 5.48005 12.2969 4.69692 11.5138C3.91379 10.7307 3.47384 9.66853 3.47384 8.56102C3.47384 7.45351 3.91379 6.39136 4.69692 5.60824C5.48005 4.82511 6.5422 4.38515 7.64971 4.38515C8.42924 4.38515 9.18632 4.60311 9.83949 5.00534C10.186 5.21875 10.64 5.11082 10.8534 4.76427C11.0668 4.41772 10.9589 3.96378 10.6123 3.75037C9.72872 3.20625 8.70443 2.91132 7.64971 2.91132Z" fill="#646464"/>
<path fill-rule="evenodd" clip-rule="evenodd" d="M16.3503 2.91132C14.8519 2.91132 13.4149 3.50655 12.3553 4.56608C11.2958 5.6256 10.7006 7.06263 10.7006 8.56102C10.7006 10.0594 11.2958 11.4964 12.3553 12.556C13.2397 13.4403 14.3869 14.0012 15.6134 14.1625V16.6671H13.4026C12.9956 16.6671 12.6657 16.9971 12.6657 17.404C12.6657 17.811 12.9956 18.141 13.4026 18.141H15.6134V20.3517C15.6134 20.7587 15.9433 21.0886 16.3503 21.0886C16.7573 21.0886 17.0872 20.7587 17.0872 20.3517V18.141H19.298C19.705 18.141 20.0349 17.811 20.0349 17.404C20.0349 16.9971 19.705 16.6671 19.298 16.6671H17.0872V14.1625C18.3137 14.0012 19.4609 13.4403 20.3452 12.556C21.4048 11.4964 22 10.0594 22 8.56102C22 7.06263 21.4048 5.6256 20.3452 4.56608C19.2857 3.50655 17.8487 2.91132 16.3503 2.91132ZM19.3031 11.5138C18.52 12.2969 17.4578 12.7369 16.3503 12.7369C15.2428 12.7369 14.1806 12.2969 13.3975 11.5138C12.6144 10.7307 12.1744 9.66853 12.1744 8.56102C12.1744 7.45351 12.6144 6.39136 13.3975 5.60824C14.1806 4.82511 15.2428 4.38515 16.3503 4.38515C17.4578 4.38515 18.52 4.82511 19.3031 5.60824C20.0862 6.39136 20.5262 7.45351 20.5262 8.56102C20.5262 9.66853 20.0862 10.7307 19.3031 11.5138Z" fill="#646464"/>
</svg>
