<svg width="24" height="24" viewBox="0 0 24 24" fill="none" xmlns="http://www.w3.org/2000/svg">
<path d="M12.769 10.4571V13.5429C12.769 13.9687 12.4244 14.3143 11.9998 14.3143C11.5752 14.3143 11.2305 13.9687 11.2305 13.5429V10.4571C11.2305 10.0313 11.5752 9.68571 11.9998 9.68571C12.4244 9.68571 12.769 10.0313 12.769 10.4571ZM21.2645 19.7502C20.6286 20.5443 19.6809 21 18.6655 21H5.33407C4.31868 21 3.37096 20.5443 2.73506 19.7502C2.09916 18.9561 1.86019 17.9298 2.07968 16.9352L4.48688 6.02394C4.89201 4.18691 6.27972 3 8.02332 3H15.9773C17.7209 3 19.1086 4.18691 19.5137 6.02394L21.9209 16.9352C22.1394 17.9298 21.9004 18.9561 21.2645 19.7502ZM20.4183 17.2684L18.0111 6.35717C17.7609 5.2206 17.0009 4.54286 15.9773 4.54286H12.77V6.85714C12.77 7.28297 12.4254 7.62857 12.0008 7.62857C11.5762 7.62857 11.2316 7.28297 11.2316 6.85714V4.54286H8.02434C7.00074 4.54286 6.24075 5.2206 5.99049 6.35717L3.58328 17.2684C3.46533 17.8043 3.59354 18.3565 3.9361 18.7844C4.27764 19.2123 4.78842 19.4571 5.33509 19.4571H11.2316V17.1429C11.2316 16.717 11.5762 16.3714 12.0008 16.3714C12.4254 16.3714 12.77 16.717 12.77 17.1429V19.4571H18.6665C19.2132 19.4571 19.724 19.2123 20.0655 18.7844C20.407 18.3565 20.5363 17.8043 20.4183 17.2684Z" fill="#646464"/>
</svg>
