<svg width="24" height="24" viewBox="0 0 24 24" fill="none" xmlns="http://www.w3.org/2000/svg">
<path fill-rule="evenodd" clip-rule="evenodd" d="M5.94872 2.91053C6.51238 2.48184 7.23082 2.25 8.1309 2.25H15.8627C16.7628 2.25 17.4806 2.48184 18.0438 2.90858C18.5959 3.32695 18.9339 3.88347 19.1685 4.41724L19.1691 4.41847L21.4714 9.6812C21.4717 9.68195 21.4721 9.6827 21.4724 9.68345C21.7547 10.3196 21.805 11.0609 21.6979 11.7367C21.5907 12.4136 21.3133 13.1031 20.8509 13.6216L14.6849 20.5257C13.2245 22.1589 10.7958 22.156 9.32893 20.5282L9.32738 20.5265L3.15464 13.634C3.15427 13.6336 3.1539 13.6332 3.15354 13.6328C2.68865 13.117 2.41184 12.4259 2.30371 11.7505C2.19544 11.0743 2.24302 10.3314 2.51977 9.69578L4.82399 4.42883C4.8239 4.42903 4.82408 4.42863 4.82399 4.42883C5.05845 3.89048 5.39643 3.33056 5.94872 2.91053ZM6.85675 4.10446C6.58566 4.31063 6.37886 4.61517 6.19929 5.02761L5.0742 7.59934H18.9234L17.7953 5.0209C17.7952 5.02068 17.7954 5.02113 17.7953 5.0209C17.616 4.61319 17.4092 4.30972 17.1379 4.10412C16.8775 3.90678 16.4927 3.75 15.8627 3.75H8.1309C7.50084 3.75 7.11667 3.90678 6.85675 4.10446ZM19.5796 9.09934H4.41797L3.89507 10.2946C3.89498 10.2948 3.89515 10.2944 3.89507 10.2946C3.75797 10.6099 3.71089 11.0515 3.78484 11.5134C3.85889 11.9759 4.04077 12.377 4.26829 12.6291L4.27017 12.6312L10.4432 19.5241C10.4435 19.5244 10.4438 19.5247 10.4441 19.5251C11.3176 20.4932 12.7049 20.4896 13.5664 19.5262L19.7313 12.6233C19.7312 12.6234 19.7315 12.6231 19.7313 12.6233C19.9619 12.3645 20.1437 11.9611 20.2164 11.502C20.2892 11.0425 20.2407 10.6052 20.1009 10.2909L20.099 10.2866L19.5796 9.09934Z" fill="#646464"/>
</svg>
