<svg width="24" height="24" viewBox="0 0 24 24" fill="none" xmlns="http://www.w3.org/2000/svg">
<path fill-rule="evenodd" clip-rule="evenodd" d="M9.39458 2.81595C10.2183 2.44303 11.1038 2.25 12 2.25C12.8962 2.25 13.7817 2.44303 14.6054 2.81595C15.4289 3.18877 16.1726 3.73316 16.796 4.41449C17.4192 5.09569 17.9105 5.90085 18.2446 6.7825C18.3071 6.94754 18.364 7.11471 18.415 7.28364C19.182 7.75891 19.75 8.59366 19.75 9.61848C19.75 10.6994 19.0842 11.739 17.9714 12.0538C17.8195 12.0967 17.6654 12.1381 17.5093 12.1778L12.9239 21.0373L12.9192 21.0458C12.9156 21.0525 12.9117 21.0595 12.9077 21.0668C12.8615 21.1509 12.7929 21.2762 12.7178 21.3749C12.6347 21.4842 12.4039 21.75 12 21.75C11.5961 21.75 11.3653 21.4842 11.2822 21.3749C11.2072 21.2762 11.1385 21.1509 11.0923 21.0668C11.0883 21.0595 11.0844 21.0525 11.0808 21.0458L11.0761 21.0373L6.49069 12.1778C6.33457 12.1381 6.1805 12.0967 6.02859 12.0538C4.91581 11.739 4.25 10.6994 4.25 9.61848C4.25 8.59367 4.81803 7.75891 5.58496 7.28364C5.63602 7.11471 5.69285 6.94754 5.7554 6.7825C6.08952 5.90085 6.58077 5.09569 7.20402 4.41449C7.82739 3.73316 8.57108 3.18877 9.39458 2.81595ZM8.37721 12.5594L12 19.5591L15.6228 12.5594C14.4813 12.7354 13.2632 12.8302 12 12.8302C10.7368 12.8302 9.51868 12.7354 8.37721 12.5594ZM12 3.75C11.3203 3.75 10.6454 3.89622 10.0132 4.18243C9.38081 4.46874 8.80164 4.89045 8.3107 5.42703C7.81965 5.96374 7.42698 6.60445 7.15805 7.31407C7.09117 7.49054 7.03231 7.67033 6.98161 7.85277C6.98105 7.85477 6.98043 7.85701 6.97975 7.85945C6.97246 7.88583 6.95853 7.93623 6.94196 7.98278C6.92115 8.04125 6.88038 8.14174 6.79856 8.24464C6.71362 8.35145 6.62059 8.41479 6.57076 8.44628C6.52914 8.47257 6.48276 8.49757 6.45703 8.51145C6.45467 8.51271 6.45249 8.51389 6.45051 8.51496C6.01878 8.74834 5.75 9.15679 5.75 9.61848C5.75 10.112 6.04712 10.5001 6.43692 10.6104C6.675 10.6778 6.91991 10.741 7.17118 10.7999C8.61146 11.1376 10.2532 11.3302 12 11.3302C13.7468 11.3302 15.3885 11.1376 16.8288 10.7999C17.0801 10.741 17.325 10.6778 17.5631 10.6104C17.9529 10.5001 18.25 10.112 18.25 9.61848C18.25 9.23918 18.0686 8.89581 17.7645 8.65594C17.7091 8.67101 17.6514 8.68685 17.5915 8.70331C16.734 8.93879 15.4223 9.29901 14 9.29901C13.5858 9.29901 13.25 8.96322 13.25 8.54901C13.25 8.13479 13.5858 7.79901 14 7.79901C15.0591 7.79901 16.0429 7.56558 16.8548 7.34834C16.8506 7.33691 16.8463 7.32548 16.842 7.31407C16.573 6.60445 16.1804 5.96374 15.6893 5.42703C15.1984 4.89045 14.6192 4.46874 13.9868 4.18243C13.3546 3.89622 12.6797 3.75 12 3.75Z" fill="#646464"/>
</svg>
