<svg width="24" height="24" viewBox="0 0 24 24" fill="none" xmlns="http://www.w3.org/2000/svg">
<path d="M15.5435 22C13.2172 22 12.8491 19.5908 12.5787 17.8318C12.4799 17.1877 12.2753 15.8462 12.0007 15.8462C11.7261 15.8462 11.5204 17.1867 11.4227 17.8318C11.1522 19.5908 10.7841 22 8.45791 22C6.70037 22 6.23246 19.9549 5.73677 17.7888C5.40151 16.3221 5.02202 14.6606 4.25895 13.4298C2.69681 10.9108 2.57648 7.4175 3.96482 4.93545C5.02201 3.04211 6.79804 2 8.96281 2C10.2267 2 11.3733 2.36308 12.3246 3.05744C12.9838 2.37026 13.9186 2 15.0375 2C17.2023 2 18.9783 3.04211 20.0355 4.93545C21.4239 7.4175 21.3025 10.9108 19.7414 13.4308C18.9794 14.6616 18.5999 16.3231 18.2636 17.7898C17.7689 19.9549 17.301 22 15.5435 22ZM12.0007 14.3077C13.6009 14.3077 13.8672 16.0564 14.1048 17.599C14.4082 19.5784 14.6868 20.4615 15.5435 20.4615C16.071 20.4615 16.4537 18.7898 16.7602 17.4472C17.1232 15.8647 17.5324 14.0697 18.4302 12.6215C19.691 10.5876 19.799 7.66979 18.6894 5.68414C18.1423 4.70466 17.0645 3.53846 15.0375 3.53846C14.3331 3.53846 13.8055 3.73033 13.4353 4.12315C13.8642 4.64622 14.149 5.14879 14.3249 5.51187C14.51 5.89443 14.3485 6.3539 13.965 6.53851C13.5772 6.7221 13.1206 6.56098 12.9344 6.17944C12.7565 5.81123 12.4337 5.25945 11.9082 4.72611C11.9071 4.72509 11.9071 4.72411 11.906 4.72411C11.1286 3.93744 10.1383 3.53846 8.96281 3.53846C6.93584 3.53846 5.85806 4.70568 5.31095 5.68414C4.20131 7.66979 4.30924 10.5866 5.57006 12.6205C6.46785 14.0687 6.87717 15.8637 7.2402 17.4462C7.54666 18.7898 7.92921 20.4605 8.45678 20.4605C9.31343 20.4605 9.59218 19.5774 9.89555 17.598C10.1341 16.0564 10.4005 14.3077 12.0007 14.3077Z" fill="#646464"/>
</svg>
