<svg width="24" height="24" viewBox="0 0 24 24" fill="none" xmlns="http://www.w3.org/2000/svg">
<path fill-rule="evenodd" clip-rule="evenodd" d="M12.6006 3.78846C11.4894 3.78846 10.3891 4.00733 9.3625 4.43256C8.33589 4.85779 7.4031 5.48106 6.61737 6.26679C5.83165 7.05252 5.20838 7.98531 4.78314 9.01191C4.35791 10.0385 4.13905 11.1388 4.13905 12.25C4.13905 13.3612 4.35791 14.4615 4.78314 15.4881C5.20838 16.5147 5.83165 17.4475 6.61737 18.2332C7.4031 19.0189 8.3359 19.6422 9.3625 20.0674C10.3891 20.4927 11.4894 20.7115 12.6006 20.7115C14.8447 20.7115 16.997 19.8201 18.5838 18.2332C20.1706 16.6464 21.0621 14.4941 21.0621 12.25C21.0621 10.0059 20.1706 7.85364 18.5838 6.26679C16.997 4.67994 14.8447 3.78846 12.6006 3.78846ZM8.77375 3.0112C9.98701 2.50866 11.2874 2.25 12.6006 2.25C15.2528 2.25 17.7963 3.30357 19.6717 5.17893C21.547 7.0543 22.6006 9.59784 22.6006 12.25C22.6006 14.9022 21.547 17.4457 19.6717 19.3211C17.7963 21.1964 15.2528 22.25 12.6006 22.25C11.2874 22.25 9.98701 21.9913 8.77375 21.4888C7.5605 20.9862 6.4581 20.2497 5.52952 19.3211C4.60093 18.3925 3.86434 17.2901 3.36179 16.0768C2.85924 14.8636 2.60059 13.5632 2.60059 12.25C2.60059 10.9368 2.85924 9.63642 3.36179 8.42317C3.86434 7.20991 4.60093 6.10752 5.52952 5.17893C6.4581 4.25035 7.5605 3.51375 8.77375 3.0112Z" fill="#646464"/>
<path fill-rule="evenodd" clip-rule="evenodd" d="M8.74414 10.1987C8.74414 9.7739 9.08854 9.4295 9.51337 9.4295H9.52363C9.94846 9.4295 10.2929 9.7739 10.2929 10.1987C10.2929 10.6236 9.94846 10.968 9.52363 10.968H9.51337C9.08854 10.968 8.74414 10.6236 8.74414 10.1987Z" fill="#646464"/>
<path fill-rule="evenodd" clip-rule="evenodd" d="M9.49815 14.7775C9.80161 14.4801 10.2886 14.4851 10.586 14.7886C10.8486 15.0566 11.162 15.2695 11.508 15.4149C11.8539 15.5602 12.2254 15.6351 12.6006 15.6351C12.9758 15.6351 13.3473 15.5602 13.6933 15.4149C14.0392 15.2695 14.3526 15.0566 14.6153 14.7886C14.9126 14.4851 15.3996 14.4801 15.7031 14.7775C16.0065 15.0748 16.0115 15.5618 15.7142 15.8653C15.3083 16.2795 14.8239 16.6086 14.2892 16.8332C13.7546 17.0579 13.1805 17.1736 12.6006 17.1736C12.0207 17.1736 11.4466 17.0579 10.912 16.8332C10.3773 16.6086 9.89291 16.2795 9.48705 15.8653C9.18973 15.5618 9.1947 15.0748 9.49815 14.7775Z" fill="#646464"/>
<path fill-rule="evenodd" clip-rule="evenodd" d="M16.7343 8.11635C17.0347 8.41676 17.0347 8.90381 16.7343 9.20421L15.7397 10.1987L16.7343 11.1933C17.0347 11.4937 17.0347 11.9807 16.7343 12.2811C16.4338 12.5815 15.9468 12.5815 15.6464 12.2811L14.1079 10.7427C13.8075 10.4423 13.8075 9.95522 14.1079 9.65482L15.6464 8.11635C15.9468 7.81595 16.4338 7.81595 16.7343 8.11635Z" fill="#646464"/>
</svg>
