<svg width="24" height="24" viewBox="0 0 24 24" fill="none" xmlns="http://www.w3.org/2000/svg">
<path d="M21.0255 2.17179C20.4245 1.88359 19.7271 1.96156 19.2091 2.37899L18.1506 3.22407C16.6563 4.41993 14.7794 5.07836 12.8666 5.07836H7.38476C4.4156 5.07836 2.00128 7.49371 2.00128 10.4618C2.00128 13.2597 4.15301 15.5386 6.88422 15.795L9.20725 20.441C9.68826 21.4031 10.6555 22 11.7303 22H13.0256C13.2523 22 13.4667 21.9005 13.6123 21.7282C13.7579 21.5559 13.8215 21.3272 13.7846 21.1047L12.9087 15.8473C14.8071 15.8576 16.6665 16.513 18.1496 17.6996L19.206 18.5447C19.5198 18.7949 19.8962 18.9232 20.2767 18.9232C20.53 18.9232 20.7854 18.8667 21.0244 18.7508C21.6254 18.4626 21.9988 17.8688 21.9988 17.2022V3.72047C21.9998 3.05485 21.6265 2.46101 21.0255 2.17179ZM3.5387 10.4618C3.5387 8.34189 5.26381 6.61678 7.38375 6.61678H12.8656C13.7015 6.61678 14.5302 6.5091 15.3333 6.30398V14.6197C14.5302 14.4146 13.7005 14.3069 12.8656 14.3069H7.38375C5.26381 14.3069 3.5387 12.5818 3.5387 10.4618ZM11.7292 20.4616C11.24 20.4616 10.8011 20.1898 10.5827 19.7529L8.62884 15.8453H11.3477L12.117 20.4616H11.7292ZM20.4613 17.2022C20.4613 17.2771 20.4275 17.3324 20.3588 17.3653C20.2911 17.3971 20.2244 17.3909 20.167 17.3437L19.1106 16.4986C18.4245 15.9499 17.6696 15.4997 16.8707 15.151V5.7727C17.6686 5.424 18.4235 4.97376 19.1096 4.42608L20.168 3.57994C20.2254 3.53379 20.2891 3.52559 20.3588 3.55841C20.405 3.58097 20.4613 3.62712 20.4613 3.72147V17.2022Z" fill="#646464"/>
</svg>
