<svg width="24" height="24" viewBox="0 0 24 24" fill="none" xmlns="http://www.w3.org/2000/svg">
<path d="M13.0417 11.5967C13.3034 10.7504 13.8286 10.0098 14.5406 9.48283C15.2525 8.95581 16.1142 8.66987 17 8.66667C17.663 8.66667 18.2989 8.40327 18.7678 7.93443C19.2366 7.46559 19.5 6.82971 19.5 6.16667C19.5 5.50363 19.2366 4.86774 18.7678 4.3989C18.2989 3.93006 17.663 3.66667 17 3.66667C16.2232 3.66648 15.4542 3.82207 14.7385 4.12423C14.0228 4.42639 13.375 4.86898 12.8333 5.42583V2H11.1667V5.425C10.6248 4.86845 9.97694 4.42611 9.2613 4.12411C8.54566 3.82211 7.77676 3.66656 7 3.66667C6.33696 3.66667 5.70107 3.93006 5.23223 4.3989C4.76339 4.86774 4.5 5.50363 4.5 6.16667C4.5 6.82971 4.76339 7.46559 5.23223 7.93443C5.70107 8.40327 6.33696 8.66667 7 8.66667C7.88581 8.66987 8.74746 8.95581 9.45944 9.48283C10.1714 10.0098 10.6966 10.7504 10.9583 11.5967C8.32555 10.784 5.58858 10.3584 2.83333 10.3333H2V11.1667C2 20.5925 5.655 22 7.83333 22C8.76293 21.9502 9.65342 21.6097 10.3792 21.0267C10.8382 20.6391 11.4027 20.3977 12 20.3333C12.5973 20.3977 13.1618 20.6391 13.6208 21.0267C14.3466 21.6097 15.2371 21.9502 16.1667 22C18.345 22 22 20.5925 22 11.1667V10.3333H21.1667C18.4114 10.3583 15.6744 10.7839 13.0417 11.5967ZM17 5.33333C17.221 5.33333 17.433 5.42113 17.5893 5.57741C17.7455 5.73369 17.8333 5.94565 17.8333 6.16667C17.8333 6.38768 17.7455 6.59964 17.5893 6.75592C17.433 6.9122 17.221 7 17 7C15.4721 6.99878 14.0051 7.59934 12.9167 8.67167C13.1089 7.73018 13.6202 6.88389 14.3641 6.27568C15.1081 5.66748 16.0391 5.33463 17 5.33333ZM7 7C6.77899 7 6.56702 6.9122 6.41074 6.75592C6.25446 6.59964 6.16667 6.38768 6.16667 6.16667C6.16667 5.94565 6.25446 5.73369 6.41074 5.57741C6.56702 5.42113 6.77899 5.33333 7 5.33333C7.96087 5.33478 8.89182 5.66769 9.63572 6.27587C10.3796 6.88405 10.8909 7.73025 11.0833 8.67167C9.99459 7.5998 8.52783 6.99932 7 7ZM16.1667 20.3333C15.5693 20.269 15.0049 20.0276 14.5458 19.64C13.8201 19.057 12.9296 18.7165 12 18.6667C11.0704 18.7165 10.1799 19.057 9.45417 19.64C8.99511 20.0276 8.43066 20.269 7.83333 20.3333C5.27833 20.3333 3.815 17.3892 3.6775 12.0167C6.4137 12.1386 9.11557 12.6749 11.6908 13.6075L12 13.7308L12.31 13.6075C14.8842 12.672 17.5862 12.1356 20.3225 12.0167C20.185 17.3883 18.7217 20.3333 16.1667 20.3333Z" fill="#646464"/>
<path d="M17.5717 14.8092C16.0924 15.0461 14.6388 15.422 13.23 15.9317L12.5634 16.1942C14.1117 16.3459 15.1259 17.625 15.9409 17.8334C17.0075 18.1067 17.2442 16.7609 17.5717 14.8092Z" fill="#646464"/>
<path d="M6.42834 14.8092C6.75584 16.7609 6.99251 18.1067 8.06001 17.8334C8.87501 17.625 9.89334 16.3459 11.4375 16.1942L10.7708 15.9317C9.36183 15.4219 7.9079 15.0461 6.42834 14.8092Z" fill="#646464"/>
</svg>
