<svg width="24" height="24" viewBox="0 0 24 24" fill="none" xmlns="http://www.w3.org/2000/svg">
<path fill-rule="evenodd" clip-rule="evenodd" d="M21 17.6012C20.9975 17.6013 20.995 17.6015 20.9925 17.6016V17.9022C20.9925 20.5444 19.5159 22 16.8352 22H7.15735C4.47669 22 3 20.5444 3 17.9022V11.8498C3 11.0969 3.62194 10.4838 4.38578 10.4838H16.8007C14.5614 10.4838 17.3542 10.4852 19.3404 10.4878C20.2725 10.4891 21 11.22 21 12.1521C20.9975 12.1518 20.995 12.1516 20.9925 12.1514V15.9625C20.995 15.9622 20.9975 15.962 21 15.9618V17.6012ZM16.8352 20.3609C18.5835 20.3609 19.3296 19.6254 19.3296 17.9022V12.123H4.66294V17.9022C4.66294 19.6254 5.40904 20.3609 7.15735 20.3609H16.8352Z" fill="#646464"/>
<path d="M13.6524 2.40679C12.8154 3.23728 12.8154 4.58794 13.6524 5.41734L13.9861 5.74843C14.1812 5.94185 14.1812 6.25439 13.9861 6.44781L13.8198 6.61282C13.4961 6.93409 13.4983 7.45312 13.8232 7.77221C13.9861 7.93066 14.1979 8.01045 14.4096 8.01045C14.6236 8.01045 14.8364 7.92957 14.9994 7.76894L15.1657 7.60393C16.0027 6.77343 16.0027 5.42278 15.1657 4.59337L14.832 4.26229C14.6369 4.06887 14.6369 3.75633 14.832 3.56291L14.9983 3.3979C15.322 3.07663 15.3198 2.5576 14.995 2.23851C14.669 1.91833 14.1424 1.9216 13.8187 2.24178L13.6524 2.40679Z" fill="#646464"/>
<path d="M8.10931 2.40679C7.2723 3.23728 7.2723 4.58794 8.10931 5.41734L8.443 5.74843C8.63812 5.94185 8.63812 6.25439 8.443 6.44781L8.27671 6.61282C7.953 6.93409 7.9552 7.45312 8.28003 7.77221C8.443 7.93066 8.65475 8.01045 8.8665 8.01045C9.08047 8.01045 9.29332 7.92957 9.45629 7.76894L9.62259 7.60393C10.4596 6.77343 10.4596 5.42278 9.62259 4.59337L9.28888 4.26229C9.09377 4.06887 9.09377 3.75633 9.28888 3.56291L9.45519 3.3979C9.77891 3.07663 9.77668 2.5576 9.45185 2.23851C9.12592 1.91833 8.59932 1.9216 8.2756 2.24178L8.10931 2.40679Z" fill="#646464"/>
</svg>
