<svg width="24" height="24" viewBox="0 0 24 24" fill="none" xmlns="http://www.w3.org/2000/svg">
<path d="M21.5581 11.801L19.396 5.314C18.869 3.732 17.568 2.75 16 2.75H8C6.433 2.75 5.132 3.732 4.604 5.314L2.44312 11.8C2.31512 12.182 2.25 12.582 2.25 12.987V17.5C2.25 19.918 3.582 21.25 6 21.25H18C20.418 21.25 21.75 19.918 21.75 17.5V12.987C21.75 12.582 21.6851 12.182 21.5581 11.801ZM6.02808 5.78799C6.34808 4.82499 7.086 4.25 8 4.25H16C16.914 4.25 17.6509 4.82499 17.9719 5.78799L19.96 11.75H17.0459C15.7959 11.75 14.6371 12.455 13.9441 13.637C13.5431 14.323 12.798 14.75 12.001 14.75C11.204 14.75 10.4591 14.323 10.0581 13.636C9.36611 12.455 8.20605 11.75 6.95605 11.75H4.04199L6.02808 5.78799ZM18 19.75H6C4.423 19.75 3.75 19.077 3.75 17.5V13.25H6.95508C7.66708 13.25 8.34196 13.678 8.76196 14.394C9.43096 15.539 10.672 16.25 12 16.25C13.328 16.25 14.569 15.539 15.238 14.395C15.658 13.678 16.3329 13.25 17.0449 13.25H20.25V17.5C20.25 19.077 19.577 19.75 18 19.75Z" fill="#646464"/>
</svg>
