<svg width="24" height="24" viewBox="0 0 24 24" fill="none" xmlns="http://www.w3.org/2000/svg">
<path d="M20.2553 10.3928L20.165 9.69231H21.2307C21.6553 9.69231 21.9999 9.34769 21.9999 8.92308C21.9999 8.49846 21.6553 8.15385 21.2307 8.15385H19.9691L19.8553 7.26871C19.605 5.75999 19.322 4.05128 16.0594 4.05128H7.9394C4.67683 4.05128 4.39375 5.76103 4.13939 7.29744L4.02966 8.15385H2.76914C2.34452 8.15385 1.99991 8.49846 1.99991 8.92308C1.99991 9.34769 2.34452 9.69231 2.76914 9.69231H3.83375L3.74453 10.3928C3.23991 10.5692 2.87786 10.839 2.6553 11.0913C2.14043 11.6749 1.91786 12.4862 2.02863 13.3754L2.42863 16.5795C2.61427 18.0656 3.38658 19.118 4.56504 19.6174V21.2308C4.56504 21.6554 4.90966 22 5.33427 22C5.75889 22 6.10351 21.6554 6.10351 21.2308V19.9385C6.15171 19.9395 6.19478 19.9487 6.24401 19.9487H17.7579C17.805 19.9487 17.8471 19.9395 17.8932 19.9385V21.2308C17.8932 21.6554 18.2379 22 18.6625 22C19.0871 22 19.4317 21.6554 19.4317 21.2308V19.6195C20.6132 19.121 21.3866 18.0677 21.5722 16.5795L21.9722 13.3754C22.083 12.4862 21.8614 11.6749 21.3455 11.0903C21.123 10.839 20.7609 10.5692 20.2553 10.3928ZM7.94043 5.58974H16.0604C18.0184 5.58974 18.0994 6.07591 18.3343 7.49232L18.6922 10.2944C17.843 10.478 15.2389 10.9744 11.9999 10.9744C8.76093 10.9744 6.15581 10.478 5.30761 10.2954L5.66145 7.52102C5.90145 6.07589 5.98145 5.58974 7.94043 5.58974ZM20.045 16.3887C19.8768 17.7302 19.1076 18.4103 17.7568 18.4103H6.24298C4.89221 18.4103 4.12197 17.7302 3.95479 16.3887L3.55479 13.1846C3.4994 12.7395 3.58863 12.3579 3.80811 12.1097C4.00914 11.882 4.32196 11.76 4.74042 11.7457C5.31888 11.881 8.21734 12.5139 11.9999 12.5139C15.7825 12.5139 18.6809 11.8821 19.2594 11.7457C19.6779 11.76 19.9907 11.882 20.1917 12.1097C20.4112 12.3579 20.5004 12.7395 20.445 13.1856L20.045 16.3887ZM9.69222 2.76923C9.69222 2.34462 10.0368 2 10.4614 2H13.5384C13.963 2 14.3076 2.34462 14.3076 2.76923C14.3076 3.19385 13.963 3.53846 13.5384 3.53846H10.4614C10.0368 3.53846 9.69222 3.19385 9.69222 2.76923ZM17.6409 15.0769C17.6409 15.5015 17.2963 15.8462 16.8717 15.8462H15.3332C14.9086 15.8462 14.564 15.5015 14.564 15.0769C14.564 14.6523 14.9086 14.3077 15.3332 14.3077H16.8717C17.2963 14.3077 17.6409 14.6523 17.6409 15.0769ZM9.43581 15.0769C9.43581 15.5015 9.09119 15.8462 8.66657 15.8462H7.12811C6.7035 15.8462 6.35888 15.5015 6.35888 15.0769C6.35888 14.6523 6.7035 14.3077 7.12811 14.3077H8.66657C9.09119 14.3077 9.43581 14.6523 9.43581 15.0769Z" fill="#646464"/>
</svg>
