<svg width="24" height="24" viewBox="0 0 24 24" fill="none" xmlns="http://www.w3.org/2000/svg">
<path d="M12 2C6.48558 2 2 6.48558 2 12C2 17.5144 6.48558 22 12 22C17.5144 22 22 17.5144 22 12C22 6.48558 17.5144 2 12 2ZM12 20.6047C7.25488 20.6047 3.39535 16.7451 3.39535 12C3.39535 7.25488 7.25488 3.39535 12 3.39535C16.7451 3.39535 20.6047 7.25488 20.6047 12C20.6047 16.7451 16.7451 20.6047 12 20.6047ZM12 8.51163C10.8465 8.51163 9.90698 9.45023 9.90698 10.6047C9.90698 11.5126 10.4921 12.2801 11.3023 12.5694V15.7209C11.3023 16.106 11.6149 16.4186 12 16.4186C12.3851 16.4186 12.6977 16.106 12.6977 15.7209V12.5694C13.5079 12.2801 14.093 11.5135 14.093 10.6047C14.093 9.45023 13.1535 8.51163 12 8.51163ZM12 11.3023C11.6158 11.3023 11.3023 10.9898 11.3023 10.6047C11.3023 10.2195 11.6158 9.90698 12 9.90698C12.3842 9.90698 12.6977 10.2195 12.6977 10.6047C12.6977 10.9898 12.3842 11.3023 12 11.3023Z" fill="#646464"/>
</svg>
