<svg width="24" height="24" viewBox="0 0 24 24" fill="none" xmlns="http://www.w3.org/2000/svg">
<path fill-rule="evenodd" clip-rule="evenodd" d="M7.6045 3.82069C8.77027 2.65492 10.3514 2 12 2C13.6487 2 15.2298 2.65492 16.3956 3.82069C17.5613 4.98645 18.2162 6.56757 18.2162 8.21622C18.2162 9.86486 17.5613 11.446 16.3956 12.6117C15.4226 13.5847 14.1603 14.2018 12.8108 14.3794V17.1351H15.2433C15.6911 17.1351 16.0541 17.4981 16.0541 17.9459C16.0541 18.3937 15.6911 18.7568 15.2433 18.7568H12.8108V21.1892C12.8108 21.637 12.4478 22 12 22C11.5522 22 11.1892 21.637 11.1892 21.1892V18.7568H8.75679C8.30899 18.7568 7.94598 18.3937 7.94598 17.9459C7.94598 17.4981 8.30899 17.1351 8.75679 17.1351H11.1892V14.3794C9.8398 14.2018 8.57748 13.5847 7.6045 12.6117C6.43873 11.446 5.78381 9.86486 5.78381 8.21622C5.78381 6.56757 6.43873 4.98645 7.6045 3.82069ZM15.2489 11.4651C14.3872 12.3267 13.2186 12.8108 12 12.8108C10.7815 12.8108 9.61281 12.3267 8.75116 11.4651C7.88951 10.6034 7.40544 9.43478 7.40544 8.21622C7.40544 6.99765 7.88951 5.829 8.75116 4.96735C9.61281 4.10569 10.7815 3.62162 12 3.62162C13.2186 3.62162 14.3872 4.10569 15.2489 4.96735C16.1106 5.829 16.5946 6.99765 16.5946 8.21622C16.5946 9.43478 16.1106 10.6034 15.2489 11.4651Z" fill="#646464"/>
</svg>
