<svg width="24" height="24" viewBox="0 0 24 24" fill="none" xmlns="http://www.w3.org/2000/svg">
<path d="M8.37946 6.38977C8.07895 6.08926 8.07895 5.60204 8.37946 5.30153L11.4564 2.2246C11.5272 2.15383 11.6124 2.09744 11.7068 2.05846C11.8945 1.98051 12.1068 1.98051 12.2945 2.05846C12.3888 2.09744 12.4739 2.15383 12.5446 2.2246L15.6215 5.30153C15.9221 5.60204 15.9221 6.08926 15.6215 6.38977C15.4718 6.53951 15.2749 6.61538 15.0779 6.61538C14.881 6.61538 14.6841 6.54054 14.5343 6.38977L12.7702 4.62563V16.1026C12.7702 16.5272 12.4256 16.8718 12.001 16.8718C11.5764 16.8718 11.2318 16.5272 11.2318 16.1026V4.62663L9.4677 6.39077C9.16616 6.69026 8.67997 6.69028 8.37946 6.38977ZM18.1539 9.17948C17.7292 9.17948 17.3846 9.5241 17.3846 9.94871C17.3846 10.3733 17.7292 10.7179 18.1539 10.7179C19.7713 10.7179 20.4615 11.4082 20.4615 13.0256V18.1538C20.4615 19.7713 19.7713 20.4615 18.1539 20.4615H5.84616C4.22872 20.4615 3.53846 19.7713 3.53846 18.1538V13.0256C3.53846 11.4082 4.22872 10.7179 5.84616 10.7179C6.27077 10.7179 6.61539 10.3733 6.61539 9.94871C6.61539 9.5241 6.27077 9.17948 5.84616 9.17948C3.36615 9.17948 2 10.5456 2 13.0256V18.1538C2 20.6338 3.36615 22 5.84616 22H18.1539C20.6339 22 22 20.6338 22 18.1538V13.0256C22 10.5456 20.6339 9.17948 18.1539 9.17948Z" fill="#646464"/>
</svg>
