<svg width="24" height="24" viewBox="0 0 24 24" fill="none" xmlns="http://www.w3.org/2000/svg">
<path fill-rule="evenodd" clip-rule="evenodd" d="M2.25 6C2.25 3.92893 3.92893 2.25 6 2.25H18C20.0711 2.25 21.75 3.92893 21.75 6L21.75 18C21.75 20.0711 20.0711 21.75 18 21.75H6C3.92893 21.75 2.25 20.0711 2.25 18L2.25 6ZM6 3.75C4.75736 3.75 3.75 4.75736 3.75 6L3.75 18C3.75 19.2426 4.75736 20.25 6 20.25H18C19.2426 20.25 20.25 19.2426 20.25 18L20.25 6C20.25 4.75736 19.2426 3.75 18 3.75H6Z" fill="#646464"/>
<path d="M9 9.75C9.41422 9.75 9.75 9.41421 9.75 9C9.75 8.58579 9.41422 8.25 9 8.25C8.58579 8.25 8.25 8.58579 8.25 9C8.25 9.41421 8.58579 9.75 9 9.75Z" fill="#646464"/>
<path d="M12 12.75C12.4142 12.75 12.75 12.4142 12.75 12C12.75 11.5858 12.4142 11.25 12 11.25C11.5858 11.25 11.25 11.5858 11.25 12C11.25 12.4142 11.5858 12.75 12 12.75Z" fill="#646464"/>
<path d="M15 9.75C15.4142 9.75 15.75 9.41421 15.75 9C15.75 8.58579 15.4142 8.25 15 8.25C14.5858 8.25 14.25 8.58579 14.25 9C14.25 9.41421 14.5858 9.75 15 9.75Z" fill="#646464"/>
<path d="M9 15.75C9.41422 15.75 9.75 15.4142 9.75 15C9.75 14.5858 9.41422 14.25 9 14.25C8.58579 14.25 8.25 14.5858 8.25 15C8.25 15.4142 8.58579 15.75 9 15.75Z" fill="#646464"/>
<path d="M15 15.75C15.4142 15.75 15.75 15.4142 15.75 15C15.75 14.5858 15.4142 14.25 15 14.25C14.5858 14.25 14.25 14.5858 14.25 15C14.25 15.4142 14.5858 15.75 15 15.75Z" fill="#646464"/>
</svg>
