<svg width="24" height="24" viewBox="0 0 24 24" fill="none" xmlns="http://www.w3.org/2000/svg">
<path d="M12.2498 18.724V20.25H15.4998C15.9138 20.25 16.2498 20.586 16.2498 21C16.2498 21.414 15.9138 21.75 15.4998 21.75H7.49978C7.08578 21.75 6.74978 21.414 6.74978 21C6.74978 20.586 7.08578 20.25 7.49978 20.25H10.7498V18.6961C8.81078 18.4981 6.99885 17.718 5.51785 16.434L4.03079 17.921C3.73779 18.214 3.26275 18.214 2.96975 17.921C2.67675 17.628 2.67675 17.153 2.96975 16.86L4.96975 14.86C5.11075 14.719 5.30078 14.64 5.49978 14.64C5.50078 14.64 5.50173 14.64 5.50173 14.64C5.70173 14.64 5.89374 14.7211 6.03274 14.8631C7.55374 16.4021 9.57676 17.25 11.7298 17.25C16.1518 17.25 19.7498 13.657 19.7498 9.24001C19.7498 7.09001 18.9009 5.063 17.3609 3.532C17.0669 3.24 17.0647 2.76496 17.3567 2.47096C17.6497 2.17696 18.1267 2.17703 18.4177 2.46803C20.2437 4.28203 21.2498 6.68801 21.2498 9.24001C21.2498 14.309 17.2568 18.452 12.2498 18.724ZM5.24978 9.25002C5.24978 5.80402 8.05378 3.00002 11.4998 3.00002C14.9458 3.00002 17.7498 5.80402 17.7498 9.25002C17.7498 12.696 14.9458 15.5 11.4998 15.5C8.05378 15.5 5.24978 12.696 5.24978 9.25002ZM6.74978 9.25002C6.74978 11.869 8.88078 14 11.4998 14C14.1188 14 16.2498 11.869 16.2498 9.25002C16.2498 6.63102 14.1188 4.50002 11.4998 4.50002C8.88078 4.50002 6.74978 6.63102 6.74978 9.25002Z" fill="#646464"/>
</svg>
