<svg width="24" height="24" viewBox="0 0 24 24" fill="none" xmlns="http://www.w3.org/2000/svg">
<path d="M17.294 6.39744H15.483C15.077 6.39744 14.7475 6.72482 14.7475 7.1282C14.7475 7.53159 15.077 7.85897 15.483 7.85897H19.4053C19.8112 7.85897 20.1407 7.53159 20.1407 7.1282V3.23077C20.1407 2.82738 19.8112 2.5 19.4053 2.5C18.9993 2.5 18.6698 2.82738 18.6698 3.23077V5.70948C16.8744 3.68282 14.2917 2.5 11.5353 2.5C6.2774 2.5 2 6.76185 2 12C2 17.2382 6.27839 21.5 11.5353 21.5C12.6162 21.5 13.6634 21.323 14.6438 20.9893C15.02 20.8613 15.1929 20.4388 15.0447 20.0701C14.8914 19.6887 14.4543 19.5122 14.0635 19.6396C13.2631 19.9004 12.4117 20.0385 11.5341 20.0385C7.08715 20.0385 3.46991 16.4324 3.46991 12C3.46991 7.56764 7.08813 3.96154 11.5341 3.96154C13.7316 3.96154 15.7918 4.85892 17.294 6.39744Z" fill="#646464"/>
<path d="M11.6343 7.35571C12.0595 7.35571 12.4045 7.70033 12.4045 8.12494V12.2275C12.4045 12.4316 12.3234 12.6275 12.1786 12.7711L10.1246 14.8224C9.97464 14.9722 9.77742 15.048 9.58023 15.048C9.38304 15.048 9.18583 14.9732 9.03588 14.8224C8.73496 14.5219 8.73496 14.0347 9.03588 13.7342L10.864 11.9085V8.12494C10.864 7.70033 11.2091 7.35571 11.6343 7.35571Z" fill="#646464"/>
<path d="M16.1158 13.4454C15.9154 13.4453 15.7164 13.4794 15.5274 13.546V13.4454C15.5274 13.2893 15.5894 13.1396 15.6998 13.0293C15.8101 12.9189 15.9598 12.8569 16.1158 12.8569C16.1994 12.8564 16.2821 12.8739 16.3583 12.9084C16.4345 12.9428 16.5023 12.9933 16.5571 13.0564C16.6076 13.1165 16.6695 13.1659 16.7394 13.2017C16.8092 13.2375 16.8855 13.259 16.9637 13.2649C17.0419 13.2707 17.1206 13.2609 17.195 13.2359C17.2693 13.211 17.338 13.1714 17.3969 13.1195C17.4557 13.0677 17.5036 13.0045 17.5377 12.9339C17.5718 12.8632 17.5915 12.7864 17.5955 12.7081C17.5995 12.6297 17.5877 12.5513 17.561 12.4776C17.5343 12.4038 17.493 12.3361 17.4398 12.2785C17.2026 12.0097 16.8893 11.8194 16.5414 11.7329C16.1934 11.6465 15.8274 11.6681 15.4921 11.7948C15.1567 11.9214 14.8679 12.1472 14.664 12.4421C14.46 12.7369 14.3507 13.0869 14.3506 13.4454V15.2106C14.3507 15.5938 14.4756 15.9666 14.7063 16.2727C14.937 16.5787 15.261 16.8013 15.6295 16.9069C15.9979 17.0125 16.3907 16.9953 16.7485 16.858C17.1062 16.7206 17.4096 16.4706 17.6127 16.1456C17.7766 15.8818 17.8693 15.58 17.8817 15.2697C17.8942 14.9594 17.8261 14.6512 17.6839 14.375C17.5349 14.0896 17.3092 13.8513 17.0322 13.6871C16.7552 13.5228 16.4378 13.4391 16.1158 13.4454ZM16.6154 15.5219C16.5612 15.6088 16.4853 15.6801 16.3951 15.7286C16.3049 15.7772 16.2036 15.8014 16.1012 15.7988C15.9988 15.7962 15.8988 15.767 15.8112 15.7139C15.7236 15.6608 15.6513 15.5858 15.6016 15.4962C15.5519 15.4067 15.5264 15.3057 15.5277 15.2033C15.529 15.1008 15.5569 15.0005 15.6089 14.9122C15.6608 14.8239 15.7349 14.7507 15.8238 14.6999C15.9127 14.649 16.0134 14.6222 16.1158 14.6222C16.217 14.6167 16.3178 14.6386 16.4075 14.6858C16.4973 14.7329 16.5725 14.8034 16.6254 14.8899C16.6797 14.9867 16.7074 15.0962 16.7056 15.2072C16.7039 15.3182 16.6727 15.4268 16.6154 15.5219ZM20.2347 11.6801C19.7665 11.6801 19.3175 11.8661 18.9865 12.1971C18.6555 12.5282 18.4695 12.9772 18.4695 13.4454V15.2106C18.4695 15.6788 18.6555 16.1278 18.9865 16.4588C19.3175 16.7899 19.7665 16.9758 20.2347 16.9758C20.7029 16.9758 21.1519 16.7899 21.4829 16.4588C21.814 16.1278 22 15.6788 22 15.2106V13.4454C22 12.9772 21.814 12.5282 21.4829 12.1971C21.1519 11.8661 20.7029 11.6801 20.2347 11.6801ZM20.8231 15.2106C20.8231 15.3666 20.7611 15.5163 20.6508 15.6267C20.5404 15.737 20.3908 15.799 20.2347 15.799C20.0787 15.799 19.929 15.737 19.8186 15.6267C19.7083 15.5163 19.6463 15.3666 19.6463 15.2106V13.4454C19.6463 13.2893 19.7083 13.1396 19.8186 13.0293C19.929 12.9189 20.0787 12.8569 20.2347 12.8569C20.3908 12.8569 20.5404 12.9189 20.6508 13.0293C20.7611 13.1396 20.8231 13.2893 20.8231 13.4454V15.2106Z" fill="#646464"/>
</svg>
