<svg width="24" height="24" viewBox="0 0 24 24" fill="none" xmlns="http://www.w3.org/2000/svg">
<path fill-rule="evenodd" clip-rule="evenodd" d="M8.17317 2.7612C9.38642 2.25866 10.6868 2 12 2C13.3132 2 14.6136 2.25866 15.8268 2.7612C17.0401 3.26375 18.1425 4.00035 19.0711 4.92893C19.9997 5.85752 20.7362 6.95991 21.2388 8.17317C21.7413 9.38642 22 10.6868 22 12C22 13.3132 21.7413 14.6136 21.2388 15.8268C20.7362 17.0401 19.9997 18.1425 19.0711 19.0711C18.1425 19.9997 17.0401 20.7362 15.8268 21.2388C14.6136 21.7413 13.3132 22 12 22C10.6868 22 9.38642 21.7413 8.17317 21.2388C6.95991 20.7362 5.85752 19.9997 4.92893 19.0711C4.00035 18.1425 3.26375 17.0401 2.7612 15.8268C2.25866 14.6136 2 13.3132 2 12C2 10.6868 2.25866 9.38642 2.7612 8.17317C3.26375 6.95991 4.00035 5.85752 4.92893 4.92893C5.85752 4.00035 6.95991 3.26375 8.17317 2.7612ZM3.57711 12.8079C3.65712 13.642 3.86074 14.4612 4.18256 15.2381C4.50935 16.027 4.9531 16.7606 5.49766 17.4145L8.18378 14.7284C6.8763 13.6396 5.27025 12.9702 3.57711 12.8079ZM9.27546 13.6367C7.67224 12.2631 5.67454 11.432 3.57063 11.2629C3.6457 10.4043 3.85164 9.56081 4.18256 8.76191C4.50934 7.97298 4.95309 7.23945 5.49764 6.58549L10.9122 12L9.27546 13.6367ZM9.27164 15.8163L6.58552 18.5024C7.23947 19.0469 7.97299 19.4907 8.76191 19.8174C9.53885 20.1393 10.358 20.3429 11.1921 20.4229C11.0298 18.7298 10.3604 17.1237 9.27164 15.8163ZM12.7371 20.4294C12.568 18.3255 11.737 16.3278 10.3633 14.7246L12 13.0879L17.4145 18.5024C16.7606 19.0469 16.027 19.4907 15.2381 19.8174C14.4392 20.1484 13.5957 20.3543 12.7371 20.4294ZM8.76191 4.18256C9.56081 3.85164 10.4043 3.6457 11.2629 3.57063C11.432 5.67454 12.2631 7.67224 13.6367 9.27546L12 10.9122L6.58549 5.49764C7.23945 4.95309 7.97298 4.50934 8.76191 4.18256ZM12.8079 3.57711C12.9702 5.27025 13.6396 6.8763 14.7284 8.18378L17.4145 5.49766C16.7606 4.9531 16.027 4.50935 15.2381 4.18256C14.4612 3.86074 13.642 3.65712 12.8079 3.57711ZM13.0879 12L14.7246 10.3633C16.3278 11.737 18.3255 12.568 20.4294 12.7371C20.3543 13.5957 20.1484 14.4392 19.8174 15.2381C19.4907 16.027 19.0469 16.7606 18.5024 17.4145L13.0879 12ZM15.8163 9.27164C17.1237 10.3604 18.7298 11.0298 20.4229 11.1921C20.3429 10.358 20.1393 9.53885 19.8174 8.76191C19.4907 7.97299 19.0469 7.23947 18.5024 6.58552L15.8163 9.27164Z" fill="#646464"/>
</svg>
