<svg width="24" height="24" viewBox="0 0 24 24" fill="none" xmlns="http://www.w3.org/2000/svg">
<path d="M10.4346 13.5646C10.7352 13.8652 10.7352 14.3526 10.4346 14.6532L9.41563 15.6709C9.26584 15.8207 9.06805 15.8955 8.87209 15.8955C8.6751 15.8955 8.47809 15.8207 8.32829 15.6699C8.02769 15.3693 8.02769 14.8819 8.32829 14.5813L9.347 13.5636C9.64761 13.264 10.135 13.264 10.4346 13.5646ZM20.2284 11.6614L20.0736 11.8165C20.0643 11.8267 20.0613 11.8401 20.052 11.8493C20.0428 11.8585 20.0295 11.8626 20.0192 11.8708L19.2713 12.6178C18.1325 13.7576 16.9731 14.3075 15.6814 14.3075C15.5203 14.3075 15.3519 14.2786 15.1867 14.2612L7.1072 21.2511C6.52856 21.7528 5.80628 22 5.08708 22C4.29196 22 3.49802 21.6974 2.89989 21.0993C1.76004 19.9584 1.69237 18.1096 2.74809 16.8907L9.72873 8.82248C9.57073 7.3256 10.0958 6.01344 11.3824 4.72688L12.3397 3.76979C14.7005 1.41007 17.8717 1.41007 20.2294 3.76979C21.4185 4.95889 22.031 6.35506 22.0003 7.80578C21.9705 9.20007 21.358 10.5318 20.2284 11.6614ZM13.8171 4.52674L19.4734 10.1831C20.0921 9.43619 20.4428 8.61524 20.4613 7.77497C20.4829 6.75311 20.0252 5.74479 19.1408 4.85938C17.5054 3.22502 15.5068 3.1263 13.8171 4.52674ZM13.8101 13.4188L10.5824 10.1901L3.91258 17.8994C3.38215 18.5119 3.41701 19.4402 3.98847 20.0127C4.56199 20.5852 5.4893 20.6182 6.10077 20.0888L13.8101 13.4188ZM18.1827 11.5302L18.4134 11.2992L12.6999 5.58578L12.469 5.81647C11.2963 6.98915 11.1608 7.91982 11.2522 8.68622L15.3119 12.746C16.0794 12.8383 17.011 12.7039 18.1827 11.5302Z" fill="#646464"/>
</svg>
