<svg width="24" height="24" viewBox="0 0 24 24" fill="none" xmlns="http://www.w3.org/2000/svg">
<path fill-rule="evenodd" clip-rule="evenodd" d="M14.5714 7.42855C14.5714 6.95517 14.9552 6.57141 15.4286 6.57141H15.44C15.9134 6.57141 16.2972 6.95517 16.2972 7.42855C16.2972 7.90194 15.9134 8.2857 15.44 8.2857H15.4286C14.9552 8.2857 14.5714 7.90194 14.5714 7.42855Z" fill="#646464"/>
<path fill-rule="evenodd" clip-rule="evenodd" d="M9.14285 10.5728C9.07377 10.5728 9.00537 10.5864 8.94155 10.6129C8.87774 10.6393 8.81976 10.6781 8.77094 10.727L5.74894 13.749C5.4142 14.0837 4.87149 14.0837 4.53676 13.749C4.20202 13.4142 4.20202 12.8715 4.53676 12.5368L7.55819 9.51534C7.76616 9.30725 8.01337 9.14188 8.28515 9.02923C8.55706 8.91653 8.84851 8.85852 9.14285 8.85852C9.43719 8.85852 9.72864 8.91653 10.0005 9.02923C10.2723 9.14188 10.5193 9.30697 10.7272 9.51506L14.8918 13.6796C15.2265 14.0144 15.2265 14.5571 14.8918 14.8918C14.5571 15.2265 14.0143 15.2265 13.6796 14.8918L9.51504 10.7272C9.46622 10.6784 9.40796 10.6393 9.34414 10.6129C9.28033 10.5864 9.21193 10.5728 9.14285 10.5728Z" fill="#646464"/>
<path fill-rule="evenodd" clip-rule="evenodd" d="M16 11.7156C15.9309 11.7156 15.8625 11.7292 15.7987 11.7557C15.7349 11.7821 15.6769 11.8209 15.6281 11.8698L13.7489 13.7489C13.4142 14.0837 12.8715 14.0837 12.5368 13.7489C12.202 13.4142 12.202 12.8715 12.5368 12.5367L14.4153 10.6582C14.6233 10.4501 14.8705 10.2847 15.1423 10.1721C15.4142 10.0594 15.7057 10.0013 16 10.0013C16.2943 10.0013 16.5858 10.0594 16.8577 10.1721C17.1295 10.2847 17.3764 10.4498 17.5844 10.6579C17.5843 10.6578 17.5845 10.658 17.5844 10.6579L19.4632 12.5367C19.798 12.8715 19.798 13.4142 19.4632 13.7489C19.1285 14.0837 18.5858 14.0837 18.251 13.7489L16.3722 11.8701C16.3234 11.8212 16.2651 11.7821 16.2013 11.7557C16.1375 11.7292 16.0691 11.7156 16 11.7156Z" fill="#646464"/>
<path fill-rule="evenodd" clip-rule="evenodd" d="M5.14286 3.71429C4.76398 3.71429 4.40061 3.8648 4.1327 4.1327C3.8648 4.40061 3.71429 4.76398 3.71429 5.14286V7.42857C3.71429 7.90196 3.33053 8.28571 2.85714 8.28571C2.38376 8.28571 2 7.90196 2 7.42857V5.14286C2 4.30932 2.33112 3.50992 2.92052 2.92052C3.50992 2.33112 4.30932 2 5.14286 2H7.42857C7.90196 2 8.28571 2.38376 8.28571 2.85714C8.28571 3.33053 7.90196 3.71429 7.42857 3.71429H5.14286Z" fill="#646464"/>
<path fill-rule="evenodd" clip-rule="evenodd" d="M2.85714 15.7142C3.33053 15.7142 3.71429 16.098 3.71429 16.5714V18.8571C3.71429 19.236 3.8648 19.5993 4.1327 19.8672C4.40061 20.1352 4.76398 20.2857 5.14286 20.2857H7.42857C7.90196 20.2857 8.28571 20.6694 8.28571 21.1428C8.28571 21.6162 7.90196 21.9999 7.42857 21.9999H5.14286C4.30932 21.9999 3.50992 21.6688 2.92052 21.0794C2.33112 20.49 2 19.6906 2 18.8571V16.5714C2 16.098 2.38376 15.7142 2.85714 15.7142Z" fill="#646464"/>
<path fill-rule="evenodd" clip-rule="evenodd" d="M15.7143 2.85714C15.7143 2.38376 16.0981 2 16.5714 2H18.8572C19.6907 2 20.4901 2.33112 21.0795 2.92052C21.6689 3.50992 22 4.30932 22 5.14286V7.42857C22 7.90196 21.6163 8.28571 21.1429 8.28571C20.6695 8.28571 20.2857 7.90196 20.2857 7.42857V5.14286C20.2857 4.76398 20.1352 4.40061 19.8673 4.1327C19.5994 3.8648 19.236 3.71429 18.8572 3.71429H16.5714C16.0981 3.71429 15.7143 3.33053 15.7143 2.85714Z" fill="#646464"/>
<path fill-rule="evenodd" clip-rule="evenodd" d="M21.1429 15.7142C21.6163 15.7142 22 16.098 22 16.5714V18.8571C22 19.6906 21.6689 20.49 21.0795 21.0794C20.4901 21.6688 19.6907 21.9999 18.8572 21.9999H16.5714C16.0981 21.9999 15.7143 21.6162 15.7143 21.1428C15.7143 20.6694 16.0981 20.2857 16.5714 20.2857H18.8572C19.236 20.2857 19.5994 20.1352 19.8673 19.8672C20.1352 19.5993 20.2857 19.236 20.2857 18.8571V16.5714C20.2857 16.098 20.6695 15.7142 21.1429 15.7142Z" fill="#646464"/>
</svg>
