<svg width="24" height="24" viewBox="0 0 24 24" fill="none" xmlns="http://www.w3.org/2000/svg">
<path d="M15.3111 22H13.6445C13.4235 22 13.2115 21.9122 13.0552 21.7559C12.8989 21.5996 12.8111 21.3877 12.8111 21.1667C12.8111 20.9457 12.8989 20.7337 13.0552 20.5774C13.2115 20.4211 13.4235 20.3333 13.6445 20.3333H15.3111C15.5322 20.3333 15.7441 20.2455 15.9004 20.0893C16.0567 19.933 16.1445 19.721 16.1445 19.5C16.1445 19.279 16.0567 19.067 15.9004 18.9107C15.7441 18.7545 15.5322 18.6667 15.3111 18.6667H11.9778C11.3148 18.6667 10.6789 18.4033 10.21 17.9344C9.7412 17.4656 9.47781 16.8297 9.47781 16.1667C9.47781 15.5036 9.7412 14.8677 10.21 14.3989C10.6789 13.9301 11.3148 13.6667 11.9778 13.6667H17.8111C18.0322 13.6667 18.2441 13.5789 18.4004 13.4226C18.5567 13.2663 18.6445 13.0543 18.6445 12.8333C18.6445 12.6123 18.5567 12.4004 18.4004 12.2441C18.2441 12.0878 18.0322 12 17.8111 12H6.97781C0.367811 11.7892 0.372811 2.20833 6.97781 2H18.6445C19.5285 2 20.3764 2.35119 21.0015 2.97631C21.6266 3.60143 21.9778 4.44928 21.9778 5.33333C21.9778 6.21739 21.6266 7.06523 21.0015 7.69036C20.3764 8.31548 19.5285 8.66667 18.6445 8.66667H6.97781C6.7568 8.66667 6.54484 8.57887 6.38856 8.42259C6.23228 8.26631 6.14448 8.05435 6.14448 7.83333C6.14448 7.61232 6.23228 7.40036 6.38856 7.24408C6.54484 7.0878 6.7568 7 6.97781 7H18.6445C19.0865 7 19.5104 6.82441 19.823 6.51184C20.1355 6.19928 20.3111 5.77536 20.3111 5.33333C20.3111 4.89131 20.1355 4.46738 19.823 4.15482C19.5104 3.84226 19.0865 3.66667 18.6445 3.66667H6.97781C6.09376 3.66667 5.24591 4.01786 4.62079 4.64298C3.99567 5.2681 3.64448 6.11594 3.64448 7C3.64448 7.88405 3.99567 8.7319 4.62079 9.35702C5.24591 9.98214 6.09376 10.3333 6.97781 10.3333H17.8111C18.4742 10.3333 19.1101 10.5967 19.5789 11.0656C20.0478 11.5344 20.3111 12.1703 20.3111 12.8333C20.3111 13.4964 20.0478 14.1323 19.5789 14.6011C19.1101 15.0699 18.4742 15.3333 17.8111 15.3333H11.9778C11.7568 15.3333 11.5448 15.4211 11.3886 15.5774C11.2323 15.7337 11.1445 15.9457 11.1445 16.1667C11.1445 16.3877 11.2323 16.5996 11.3886 16.7559C11.5448 16.9122 11.7568 17 11.9778 17H15.3111C15.9742 17 16.6101 17.2634 17.0789 17.7322C17.5478 18.2011 17.8111 18.837 17.8111 19.5C17.8111 20.163 17.5478 20.7989 17.0789 21.2678C16.6101 21.7366 15.9742 22 15.3111 22Z" fill="#646464"/>
</svg>
