<svg width="24" height="24" viewBox="0 0 24 24" fill="none" xmlns="http://www.w3.org/2000/svg">
<path d="M12 2C6.48558 2 2 6.48651 2 12C2 17.5135 6.48558 22 12 22C17.5144 22 22 17.5135 22 12C22 6.48651 17.5144 2 12 2ZM20.6047 12C20.6047 12.0316 20.6 12.0623 20.6 12.094C20.1833 12.1916 19.7656 12.4046 19.4419 12.7358C19.3005 12.6232 18.9768 12.2874 18.453 11.3209C17.8744 10.2539 18.1042 9.75813 18.4521 9.00743C18.5702 8.75348 18.6865 8.49766 18.7721 8.23348C18.9089 7.82883 18.8865 7.29115 18.7888 6.73022C19.9218 8.18883 20.6047 10.014 20.6047 12ZM3.39535 12C3.39535 11.5442 3.44092 11.1005 3.50975 10.6642C4.32185 12.9972 6.14418 13.9219 7.16 14.4344C7.33116 14.5209 7.53393 14.6232 7.64555 14.693C7.6902 14.9414 7.68281 15.1163 7.66792 15.4205C7.65397 15.7247 7.63627 16.1042 7.66418 16.6949C7.71999 17.8437 8.65398 18.3321 9.33677 18.6884C9.74607 18.9023 10.1339 19.1042 10.3321 19.3972C10.4316 19.5395 10.5237 19.986 10.4912 20.4632C6.46511 19.7479 3.39535 16.2298 3.39535 12ZM11.8772 20.5982C11.9358 19.84 11.7963 19.0539 11.4828 18.6065C11.093 18.0307 10.5042 17.7228 9.98419 17.4521C9.2921 17.0902 9.07348 16.9293 9.05953 16.6288C9.03441 16.1005 9.05118 15.76 9.06327 15.4874C9.08188 15.0949 9.09767 14.7554 8.97674 14.2354C8.8586 13.7284 8.38698 13.4902 7.78977 13.1889C6.52372 12.5507 4.42328 11.4828 4.50142 7.79442C5.9777 5.1721 8.78323 3.39535 12.0009 3.39535C12.3665 3.39535 12.7246 3.42604 13.079 3.47069C12.9293 3.66697 12.7154 3.82977 12.4958 3.9014C10.573 4.53117 10.5526 6.24093 10.5386 7.37302C10.5275 8.32279 10.4661 8.49582 10.3275 8.52838C10.2112 8.52001 9.88371 8.34324 9.68929 8.2372C9.18976 7.96557 8.67444 7.68466 8.1377 7.81489C7.6949 7.91908 7.15625 8.33025 6.98416 8.91443C6.89858 9.20466 6.83813 9.77954 7.39534 10.3572C7.73208 10.7061 7.74419 10.8428 7.77024 11.1154C7.78977 11.3237 7.8177 11.6084 7.97026 11.9581C8.55724 13.2549 10.3181 13.0549 10.9879 12.9767C12.0279 12.8465 12.2158 12.8409 12.7377 13.3842C12.9498 13.6047 13.0735 13.8856 13.2037 14.1832C13.4521 14.747 13.7907 15.5191 14.8391 15.64C15.6577 15.7414 16.1823 15.9991 16.3395 16.2102C16.3777 16.2614 16.387 16.2968 16.3768 16.3563C16.3275 16.6484 15.961 16.9972 15.5358 17.4019C14.8307 18.0716 13.8968 18.9702 13.5591 20.4577C13.053 20.5507 12.533 20.6065 12 20.6065C11.9581 20.6047 11.9181 20.5991 11.8772 20.5982ZM15.1991 19.9814C15.5247 19.3423 16.0139 18.8698 16.4967 18.4112C17.0781 17.8586 17.626 17.3377 17.7535 16.586C17.827 16.1498 17.7256 15.7302 17.4596 15.374C16.8754 14.5898 15.6753 14.3349 15.0065 14.2521C14.787 14.227 14.7284 14.1777 14.4828 13.6195C14.3256 13.2614 14.1293 12.8149 13.7451 12.4158C12.7228 11.3516 11.88 11.4567 10.8232 11.5898C9.54696 11.7349 9.293 11.4912 9.24649 11.3888C9.18696 11.253 9.17672 11.1451 9.16184 10.9823C9.11719 10.5107 9.0251 10.0335 8.40091 9.38699C8.34882 9.33303 8.32745 9.29581 8.32466 9.30511C8.33955 9.26511 8.42231 9.18791 8.40557 9.17768C8.51813 9.18791 8.83441 9.36 9.02324 9.46233C9.51906 9.7321 10.0325 10.0093 10.5712 9.8986C11.9088 9.62325 11.9237 8.33209 11.9349 7.38884C11.9507 6.10698 12.0493 5.51534 12.9311 5.22697C13.573 5.01674 14.2158 4.47722 14.5051 3.76931C15.2577 3.99908 15.9628 4.3321 16.6121 4.74698C17.0688 5.44837 17.6251 7.27348 17.4493 7.79627C17.3786 8.01394 17.2828 8.21768 17.1879 8.42047C16.7991 9.25861 16.3153 10.3023 17.2279 11.986C18.0158 13.4381 18.6484 14.0912 19.3442 14.1712C19.3823 14.1758 19.4261 14.1786 19.4754 14.1786C19.7237 14.1786 20.093 14.0986 20.4326 13.7209C19.8493 16.5758 17.8465 18.9163 15.1991 19.9814Z" fill="#646464"/>
</svg>
