<svg width="24" height="24" viewBox="0 0 24 24" fill="none" xmlns="http://www.w3.org/2000/svg">
<path d="M15.54 18.541C14.78 19.301 13.777 19.722 12.71 19.743V21C12.71 21.414 12.374 21.75 11.96 21.75C11.546 21.75 11.21 21.414 11.21 21V19.735C9.18298 19.656 7.50398 18.119 7.27498 16.084C7.22898 15.672 7.52497 15.301 7.93597 15.255C8.35097 15.203 8.71898 15.505 8.76498 15.916C8.91498 17.247 10.035 18.25 11.37 18.25H12.63C13.326 18.25 13.983 17.977 14.479 17.479C14.977 16.982 15.25 16.326 15.25 15.629C15.25 14.428 14.434 13.3821 13.266 13.0861L10.37 12.3669C9.47597 12.1399 8.67798 11.619 8.11898 10.899C7.56098 10.192 7.25098 9.29302 7.25098 8.36902C7.25098 6.15202 9.01498 4.35101 11.211 4.26501V3C11.211 2.586 11.547 2.25 11.961 2.25C12.375 2.25 12.711 2.586 12.711 3V4.25696C14.774 4.29796 16.494 5.85302 16.726 7.91602C16.772 8.32802 16.476 8.699 16.065 8.745C15.644 8.79399 15.282 8.49498 15.236 8.08398C15.086 6.75298 13.966 5.75 12.631 5.75H11.371C9.92598 5.75 8.75098 6.92499 8.75098 8.37C8.75098 8.957 8.94597 9.52698 9.29897 9.97498C9.65797 10.438 10.167 10.769 10.735 10.913L13.632 11.632C15.47 12.098 16.751 13.742 16.751 15.63C16.75 16.727 16.32 17.761 15.54 18.541Z" fill="#646464"/>
</svg>
