<svg width="24" height="24" viewBox="0 0 24 24" fill="none" xmlns="http://www.w3.org/2000/svg">
<path d="M12 21.9399C11.4529 21.9406 10.9109 21.8334 10.4053 21.6244C9.89962 21.4153 9.44021 21.1085 9.05335 20.7215L3.27835 14.9457C2.49722 14.1643 2.05841 13.1047 2.05841 11.9999C2.05841 10.895 2.49722 9.8354 3.27835 9.05404L9.05335 3.2782C9.83565 2.49819 10.8953 2.06018 12 2.06018C13.1047 2.06018 14.1644 2.49819 14.9467 3.2782L20.7217 9.05404C21.5028 9.8354 21.9416 10.895 21.9416 11.9999C21.9416 13.1047 21.5028 14.1643 20.7217 14.9457L14.9467 20.7215C14.5598 21.1085 14.1004 21.4153 13.5948 21.6244C13.0891 21.8334 12.5472 21.9406 12 21.9399ZM12 3.7257C11.6717 3.72508 11.3464 3.78932 11.043 3.91474C10.7395 4.04016 10.4638 4.22428 10.2317 4.45654L4.45669 10.2324C3.98801 10.7012 3.72472 11.337 3.72472 11.9999C3.72472 12.6628 3.98801 13.2985 4.45669 13.7674L10.2317 19.5432C10.4639 19.7755 10.7395 19.9598 11.0429 20.0855C11.3464 20.2113 11.6716 20.276 12 20.276C12.3285 20.276 12.6537 20.2113 12.9571 20.0855C13.2605 19.9598 13.5362 19.7755 13.7684 19.5432L19.5434 13.7674C20.012 13.2985 20.2753 12.6628 20.2753 11.9999C20.2753 11.337 20.012 10.7012 19.5434 10.2324L13.7684 4.45654C13.5362 4.22428 13.2605 4.04016 12.9571 3.91474C12.6536 3.78932 12.3284 3.72508 12 3.7257Z" fill="#646464"/>
</svg>
