<svg width="24" height="24" viewBox="0 0 24 24" fill="none" xmlns="http://www.w3.org/2000/svg">
<path fill-rule="evenodd" clip-rule="evenodd" d="M12 22C6.47363 22 2 17.5272 2 12C2 6.47363 6.47278 2 12 2C17.5264 2 22 6.47275 22 12C22 17.5264 17.5273 22 12 22ZM7.64049 19.5958C8.92381 20.3333 10.4122 20.7549 12 20.7549C15.7729 20.7549 18.9841 18.3748 20.2163 15.0329C19.6448 14.1943 18.8958 13.4867 18.0239 12.9645C15.9641 16.6862 12.1136 19.2879 7.64049 19.5958ZM5.97633 18.3561C4.83114 17.2705 3.97959 15.8783 3.55249 14.3101C4.53514 14.7267 5.61507 14.9572 6.74708 14.9572C9.20908 14.9572 11.4214 13.868 12.9263 12.1487C13.4183 12.038 13.9303 11.9794 14.4563 11.9794C15.3158 11.9794 16.1397 12.136 16.9007 12.4222C14.9059 15.9766 11.1007 18.3813 6.74706 18.3813C6.48804 18.3813 6.23103 18.3728 5.97633 18.3561ZM3.27985 12.786C3.25687 12.5271 3.24514 12.2649 3.24514 12C3.24514 9.71018 4.12195 7.62699 5.55857 6.06764C5.54681 6.29269 5.54086 6.51921 5.54086 6.74706C5.54086 9.29072 6.2825 11.6655 7.56035 13.6649C7.2935 13.696 7.02212 13.7121 6.74708 13.7121C5.48499 13.7121 4.30134 13.375 3.27985 12.786ZM8.8683 13.382C9.98515 13.0242 10.9805 12.3916 11.7745 11.5632C10.7913 10.2098 10.2101 8.54464 10.2101 6.74708C10.2101 5.51929 10.4813 4.35282 10.9668 3.30531C9.47779 3.47997 8.10368 4.02751 6.94019 4.85216C6.8388 5.46867 6.78599 6.10161 6.78599 6.74706C6.78599 9.21143 7.5558 11.4985 8.8683 13.382ZM12.3964 3.25393C11.8502 4.19181 11.5169 5.26771 11.463 6.41629C12.4243 6.18662 13.4267 6.06506 14.4563 6.06506C16.1138 6.06506 17.6998 6.38001 19.1571 6.9532C17.6438 4.80987 15.1915 3.37816 12.3964 3.25393ZM12.8296 10.8962C12.143 9.97379 11.6794 8.87727 11.5182 7.68587C12.4566 7.4408 13.4411 7.31019 14.4563 7.31019C16.5257 7.31019 18.4694 7.85297 20.1542 8.80356C20.542 9.79353 20.7549 10.8716 20.7549 12C20.7549 12.5215 20.7094 13.0323 20.6222 13.5286C19.1174 11.8175 16.9116 10.7343 14.4563 10.7343C13.9 10.7343 13.3559 10.79 12.8296 10.8962Z" fill="#646464"/>
</svg>
