<svg width="24" height="24" viewBox="0 0 24 24" fill="none" xmlns="http://www.w3.org/2000/svg">
<path d="M18.6595 12.0001H17.5462C16.7436 10.111 15.5081 8.43706 13.9395 7.11342C13.1918 6.5021 12.2561 6.1677 11.2903 6.16675H9.35032L8.76032 3.92925C8.67359 3.6004 8.52294 3.29185 8.31697 3.02122C8.111 2.75059 7.85374 2.52318 7.55988 2.35197C7.26602 2.18076 6.94132 2.06911 6.60431 2.02339C6.2673 1.97767 5.92459 1.99877 5.59573 2.0855C5.26688 2.17223 4.95833 2.32288 4.6877 2.52885C4.41707 2.73482 4.18966 2.99208 4.01845 3.28594C3.84724 3.5798 3.73559 3.9045 3.68987 4.24151C3.64415 4.57852 3.66526 4.92123 3.75198 5.25008L3.99698 6.16675H2.83532C2.6143 6.16675 2.40234 6.25455 2.24606 6.41083C2.08978 6.56711 2.00198 6.77907 2.00198 7.00008C2.00198 7.2211 2.08978 7.43306 2.24606 7.58934C2.40234 7.74562 2.6143 7.83342 2.83532 7.83342H11.2903C11.8718 7.83494 12.4349 8.03716 12.8845 8.40592C14.063 9.39806 15.0237 10.6231 15.7062 12.0042H15.0228C14.5219 12.0005 14.0312 12.1456 13.6128 12.4209L11.9595 13.5226C11.8245 13.6147 11.6654 13.6649 11.502 13.6667H2.83532C2.6143 13.6667 2.40234 13.7545 2.24606 13.9108C2.08978 14.0671 2.00198 14.2791 2.00198 14.5001C2.00198 14.7211 2.08978 14.9331 2.24606 15.0893C2.40234 15.2456 2.6143 15.3334 2.83532 15.3334H11.502C11.9952 15.3348 12.4778 15.1897 12.8887 14.9167L14.5412 13.8151C14.6813 13.718 14.8491 13.6689 15.0195 13.6751H18.6603C18.9432 13.6741 19.2216 13.7451 19.4695 13.8814C19.7173 14.0177 19.9264 14.2148 20.077 14.4542C20.2298 14.6885 20.3196 14.9583 20.3375 15.2375C20.3555 15.5166 20.3011 15.7957 20.1795 16.0476C19.568 17.3298 18.6061 18.4127 17.4049 19.1711C16.2038 19.9296 14.8125 20.3325 13.392 20.3334H2.83532C2.6143 20.3334 2.40234 20.4212 2.24606 20.5775C2.08978 20.7338 2.00198 20.9457 2.00198 21.1667C2.00198 21.3878 2.08978 21.5997 2.24606 21.756C2.40234 21.9123 2.6143 22.0001 2.83532 22.0001H13.392C15.1284 21.9965 16.8284 21.5016 18.2954 20.5726C19.7623 19.6435 20.9365 18.3183 21.682 16.7501C21.9207 16.2417 22.0271 15.6812 21.9912 15.1207C21.9554 14.5602 21.7785 14.0178 21.4769 13.5439C21.1754 13.0701 20.759 12.6801 20.2665 12.4102C19.7739 12.1403 19.2211 11.9992 18.6595 12.0001ZM5.36615 4.82342C5.31171 4.58963 5.35055 4.34383 5.47441 4.13821C5.59827 3.93259 5.7974 3.78335 6.02952 3.72217C6.26163 3.661 6.50845 3.69271 6.71757 3.81057C6.92668 3.92844 7.08162 4.12317 7.14948 4.35342L7.62698 6.16675H5.72032L5.36615 4.82342ZM2.00198 10.3334C2.00198 10.1124 2.08978 9.90044 2.24606 9.74416C2.40234 9.58788 2.6143 9.50008 2.83532 9.50008H10.3353C10.5563 9.50008 10.7683 9.58788 10.9246 9.74416C11.0809 9.90044 11.1687 10.1124 11.1687 10.3334C11.1687 10.5544 11.0809 10.7664 10.9246 10.9227C10.7683 11.079 10.5563 11.1667 10.3353 11.1667H2.83532C2.6143 11.1667 2.40234 11.079 2.24606 10.9227C2.08978 10.7664 2.00198 10.5544 2.00198 10.3334ZM5.33532 18.6667C5.1705 18.6667 5.00938 18.6179 4.87234 18.5263C4.7353 18.4347 4.62849 18.3046 4.56542 18.1523C4.50234 18 4.48584 17.8325 4.518 17.6708C4.55015 17.5092 4.62952 17.3607 4.74606 17.2442C4.86261 17.1276 5.01109 17.0483 5.17274 17.0161C5.33439 16.9839 5.50195 17.0004 5.65422 17.0635C5.80649 17.1266 5.93664 17.2334 6.02821 17.3704C6.11978 17.5075 6.16865 17.6686 6.16865 17.8334C6.16865 18.0544 6.08085 18.2664 5.92457 18.4227C5.76829 18.579 5.55633 18.6667 5.33532 18.6667ZM8.66865 18.6667C8.50383 18.6667 8.34272 18.6179 8.20568 18.5263C8.06863 18.4347 7.96182 18.3046 7.89875 18.1523C7.83568 18 7.81918 17.8325 7.85133 17.6708C7.88348 17.5092 7.96285 17.3607 8.0794 17.2442C8.19594 17.1276 8.34442 17.0483 8.50608 17.0161C8.66773 16.9839 8.83528 17.0004 8.98755 17.0635C9.13983 17.1266 9.26997 17.2334 9.36154 17.3704C9.45311 17.5075 9.50198 17.6686 9.50198 17.8334C9.50198 18.0544 9.41419 18.2664 9.25791 18.4227C9.10163 18.579 8.88966 18.6667 8.66865 18.6667ZM12.002 18.6667C11.8372 18.6667 11.676 18.6179 11.539 18.5263C11.402 18.4347 11.2952 18.3046 11.2321 18.1523C11.169 18 11.1525 17.8325 11.1847 17.6708C11.2168 17.5092 11.2962 17.3607 11.4127 17.2442C11.5293 17.1276 11.6778 17.0483 11.8394 17.0161C12.0011 16.9839 12.1686 17.0004 12.3209 17.0635C12.4732 17.1266 12.6033 17.2334 12.6949 17.3704C12.7864 17.5075 12.8353 17.6686 12.8353 17.8334C12.8353 18.0544 12.7475 18.2664 12.5912 18.4227C12.435 18.579 12.223 18.6667 12.002 18.6667Z" fill="#646464"/>
</svg>
