<svg width="24" height="24" viewBox="0 0 24 24" fill="none" xmlns="http://www.w3.org/2000/svg">
<path fill-rule="evenodd" clip-rule="evenodd" d="M21.2839 6.88195L21.2834 6.87896L21.283 6.87597C21.282 6.87347 21.2802 6.87147 21.2784 6.86947C21.2767 6.86747 21.2749 6.86547 21.2739 6.86297C20.8869 6.15997 20.284 5.57996 19.522 5.24096L13.522 2.57396C12.553 2.14396 11.444 2.14396 10.475 2.57396L4.47498 5.24096C3.71198 5.57996 3.1099 6.15997 2.7229 6.86297C2.7219 6.86547 2.72017 6.86747 2.71844 6.86947C2.71672 6.87147 2.71499 6.87347 2.71399 6.87597L2.71344 6.87896L2.71289 6.88195C2.41989 7.42095 2.25 8.02895 2.25 8.66695V15.334C2.25 16.814 3.12393 18.1589 4.47693 18.7609L10.4769 21.428C10.9589 21.642 11.4759 21.748 11.9929 21.75L11.9969 21.7505L12.001 21.751L12.0049 21.7505L12.0089 21.75C12.5259 21.749 13.0429 21.642 13.5249 21.428L19.5249 18.7609C20.8779 18.1599 21.752 16.815 21.752 15.334V8.66695C21.747 8.02895 21.5769 7.41995 21.2839 6.88195ZM11.083 3.94396C11.373 3.81496 11.6859 3.74996 11.9969 3.74996C12.3079 3.74996 12.6209 3.81395 12.9109 3.94295L18.9109 6.60995C19.0809 6.68595 19.2299 6.79097 19.3729 6.90197L16.6399 8.11696L14.829 8.92196L12.917 9.77196C12.331 10.027 11.6599 10.0269 11.0819 9.77395L4.62097 6.90197C4.76397 6.79097 4.91301 6.68495 5.08301 6.60995L7.56995 5.50496L9.38098 4.69997L11.083 3.94396ZM5.08301 17.389C4.27101 17.028 3.74695 16.221 3.74695 15.333V8.66595C3.74695 8.50736 3.78015 8.35526 3.81292 8.20517L3.81689 8.18697L10.4769 11.147C10.7259 11.255 10.9839 11.3339 11.2469 11.3859V20.108C11.2252 20.1003 11.203 20.094 11.1808 20.0876C11.1478 20.0782 11.1147 20.0687 11.083 20.055L5.08301 17.389ZM20.2469 15.333C20.2469 16.221 19.7229 17.028 18.9109 17.389L12.9109 20.056C12.8788 20.0705 12.8452 20.0799 12.8117 20.0893C12.79 20.0954 12.7682 20.1015 12.7469 20.109V11.3859C13.0109 11.3329 13.271 11.2539 13.521 11.1449L20.1759 8.18795C20.2109 8.34495 20.246 8.50195 20.246 8.66695L20.2469 15.333Z" fill="#646464"/>
</svg>
