<svg width="24" height="24" viewBox="0 0 24 24" fill="none" xmlns="http://www.w3.org/2000/svg">
<path d="M12 22C11.8509 22 11.7017 21.9569 11.5721 21.8708L11.028 21.5107C7.83119 19.4051 3 16.2236 3 10.9744C3 6.02564 7.03714 2 12 2C16.9629 2 21 6.02564 21 10.9744C21 16.2236 16.1688 19.4051 12.972 21.5107L12.4279 21.8708C12.2983 21.9569 12.1491 22 12 22ZM12 3.53846C7.88777 3.53846 4.54286 6.87385 4.54286 10.9744C4.54286 15.3959 8.78264 18.1887 11.8776 20.2267L12 20.3078L12.1224 20.2267C15.2184 18.1877 19.4571 15.3959 19.4571 10.9744C19.4571 6.87385 16.1122 3.53846 12 3.53846ZM15.3429 10.9744C15.3429 10.5497 14.9973 10.2051 14.5714 10.2051H9.42857C9.00274 10.2051 8.65714 10.5497 8.65714 10.9744C8.65714 11.399 9.00274 11.7436 9.42857 11.7436H14.5714C14.9973 11.7436 15.3429 11.399 15.3429 10.9744Z" fill="#646464"/>
</svg>
