<svg width="24" height="24" viewBox="0 0 24 24" fill="none" xmlns="http://www.w3.org/2000/svg">
<path fill-rule="evenodd" clip-rule="evenodd" d="M12.8284 14.313C13.8349 14.7119 14.9113 14.9084 15.9951 14.8913C16.7292 14.8755 17.4529 14.7165 18.1249 14.4233C18.7969 14.1302 19.4041 13.7087 19.9118 13.183C23.4202 10.01 22.1618 3.12865 18.6985 3.34261C17.4602 3.34261 16.2329 3.94404 15.0902 4.816C14.6449 5.15573 14.2126 5.53653 13.7974 5.93883C13.4625 6.26344 13.1387 6.60204 12.8284 6.94435V14.313ZM18.6985 4.82955H18.7452L18.7918 4.82667C19.0827 4.8087 19.3735 4.91307 19.683 5.28697C20.0166 5.68992 20.3091 6.35359 20.4354 7.20825C20.6922 8.94572 20.1951 10.9139 18.9008 12.0845L18.8633 12.1184L18.8282 12.1548C18.4568 12.5395 18.0125 12.8479 17.5208 13.0623C17.0304 13.2762 16.5024 13.3925 15.9667 13.4046C15.4141 13.413 14.8639 13.3533 14.3284 13.2279V7.52461C15.0141 6.80561 15.728 6.16061 16.4452 5.67801C17.3062 5.09872 18.0587 4.82955 18.6985 4.82955Z" fill="#646464"/>
<path d="M13.1736 5.32044C12.8988 5.59289 12.5378 5.76035 12.1542 5.79681C12.1015 5.80181 12.0484 5.80435 11.9951 5.80435C11.9471 5.80435 11.8993 5.80229 11.8518 5.79823C11.4623 5.76492 11.0952 5.59662 10.8166 5.32044C10.504 5.01059 10.3284 4.59036 10.3284 4.15217C10.3284 4.11173 10.3299 4.07145 10.3329 4.03138C10.362 3.63736 10.5329 3.26516 10.8166 2.98391C11.1291 2.67407 11.5531 2.5 11.9951 2.5C12.4371 2.5 12.861 2.67407 13.1736 2.98391C13.4622 3.27003 13.6341 3.65029 13.6587 4.05188C13.6607 4.08518 13.6618 4.11862 13.6618 4.15217C13.6618 4.59036 13.4862 5.01059 13.1736 5.32044Z" fill="#646464"/>
<path fill-rule="evenodd" clip-rule="evenodd" d="M11.1617 6.93857V14.313C10.1567 14.7107 9.08211 14.9072 8.00005 14.8913C6.51993 14.8497 5.11463 14.2371 4.08335 13.1838C2.80052 11.9578 2.05273 10.2828 2 8.51722C2.1517 2.15926 5.88858 2.62587 8.89897 4.81122C9.35971 5.14569 9.80343 5.52041 10.2147 5.91709C10.5556 6.24597 10.8742 6.58994 11.1617 6.93857ZM9.66175 7.48957V13.2275C9.12929 13.3521 8.58222 13.4119 8.03271 13.4047C6.9469 13.3716 5.9165 12.9211 5.15972 12.1482L5.14237 12.1304L5.12443 12.1133C4.133 11.1658 3.55126 9.8745 3.50062 8.51128C3.55048 6.6418 3.93644 5.69869 4.28225 5.26514C4.55542 4.92267 4.88743 4.78615 5.42141 4.83748C6.0316 4.89613 6.82826 5.21243 7.69745 5.79144C8.40405 6.26213 9.08594 6.85842 9.66175 7.48957Z" fill="#646464"/>
<path fill-rule="evenodd" clip-rule="evenodd" d="M4.72523 15.733C6.89582 16.8474 9.66598 16.6005 11.3284 16.005C11.5566 15.9232 11.764 15.8349 11.946 15.7427C11.9626 15.7343 11.9789 15.7259 11.9951 15.7174L12.0454 15.7393C12.2483 15.827 12.4539 15.9077 12.6617 15.9813C13.7272 16.3585 14.8526 16.5493 15.9876 16.5435C17.137 16.5294 18.2581 16.2409 19.2596 15.7117C19.7028 15.4775 20.1226 15.1962 20.511 14.8707C20.7605 15.3355 20.9404 15.8327 21.0459 16.3466C21.087 16.5468 21.1168 16.7496 21.135 16.9539C21.2 17.6828 21.1164 18.4172 20.8893 19.1134C20.749 19.5865 20.5042 20.0227 20.1727 20.3904C19.8412 20.758 19.4313 21.0479 18.9726 21.239C18.5277 21.4277 18.0459 21.5158 17.5623 21.497C17.0787 21.4781 16.6054 21.3527 16.1768 21.1299C15.53 20.7981 14.912 20.416 14.3284 19.9876C13.7986 19.5986 13.2972 19.1716 12.8284 18.7095V20.6739C12.8284 20.68 12.8284 20.6862 12.8282 20.6923C12.8281 20.6988 12.8278 20.7053 12.8275 20.7118C12.8181 20.9171 12.7316 21.1121 12.5843 21.258C12.4281 21.413 12.2161 21.5 11.9951 21.5C11.7741 21.5 11.5621 21.413 11.4058 21.258C11.2588 21.1123 11.1724 20.9177 11.1627 20.7127C11.1621 20.6998 11.1617 20.6869 11.1617 20.6739V18.7095C10.693 19.1721 10.1916 19.5996 9.66175 19.9889C9.07973 20.4166 8.46341 20.7983 7.81838 21.1299C7.38977 21.3527 6.91647 21.4781 6.43286 21.497C5.94925 21.5158 5.46748 21.4277 5.02253 21.239C4.56392 21.0479 4.15398 20.758 3.82245 20.3904C3.49092 20.0227 3.24613 19.5865 3.10584 19.1134C2.87874 18.4172 2.7952 17.6828 2.8602 16.9539C2.87784 16.7561 2.90631 16.5599 2.94538 16.3659C3.05027 15.8452 3.2315 15.3413 3.48418 14.8707C3.86311 15.2207 4.28165 15.5053 4.72523 15.733ZM7.99048 17.9943C8.63098 18.0089 9.26593 17.9671 9.8695 17.8805C9.05071 18.6462 8.12805 19.2957 7.12783 19.8099L7.12175 19.8131C6.89039 19.9333 6.63492 20.001 6.37389 20.0112C6.11286 20.0214 5.85281 19.9738 5.61264 19.8719L5.60365 19.8681C5.35033 19.7626 5.1239 19.6025 4.94078 19.3994C4.75766 19.1964 4.62245 18.9554 4.54496 18.6941L4.53928 18.6749L4.53308 18.656C4.38025 18.1874 4.31679 17.6951 4.34556 17.2042C5.54072 17.7506 6.82268 17.9677 7.99048 17.9943ZM16.8662 19.8093C15.8667 19.2966 14.9445 18.6488 14.1258 17.8849C14.7422 17.9847 15.3675 18.0336 15.9954 18.0304L16.0061 18.0303C17.2768 18.0148 18.519 17.722 19.6483 17.1831C19.6802 17.681 19.6171 18.1807 19.4621 18.656L19.4559 18.6749L19.4502 18.6941C19.3727 18.9554 19.2375 19.1964 19.0544 19.3994C18.8713 19.6025 18.6448 19.7626 18.3915 19.8681L18.3825 19.8719C18.1424 19.9738 17.8823 20.0214 17.6213 20.0112C17.3603 20.001 17.1048 19.9333 16.8734 19.8131L16.8662 19.8093Z" fill="#646464"/>
</svg>
