<svg width="24" height="24" viewBox="0 0 24 24" fill="none" xmlns="http://www.w3.org/2000/svg">
<path d="M17.294 6.40964H15.483C15.077 6.40964 14.7475 6.73703 14.7475 7.14041C14.7475 7.5438 15.077 7.87118 15.483 7.87118H19.4053C19.8112 7.87118 20.1407 7.5438 20.1407 7.14041V3.24298C20.1407 2.83959 19.8112 2.51221 19.4053 2.51221C18.9993 2.51221 18.6698 2.83959 18.6698 3.24298V5.72169C16.8744 3.69503 14.2917 2.51221 11.5353 2.51221C6.2774 2.51221 2 6.77405 2 12.0122C2 17.2504 6.27839 21.5122 11.5353 21.5122C12.6162 21.5122 13.6634 21.3352 14.6438 21.0015C15.02 20.8735 15.1929 20.451 15.0447 20.0823C14.8914 19.7009 14.4543 19.5244 14.0635 19.6518C13.2631 19.9126 12.4117 20.0507 11.5341 20.0507C7.08715 20.0507 3.46991 16.4446 3.46991 12.0122C3.46991 7.57985 7.08813 3.97375 11.5341 3.97375C13.7316 3.97375 15.7918 4.87113 17.294 6.40964Z" fill="#646464"/>
<path d="M11.6343 7.36792C12.0595 7.36792 12.4045 7.71254 12.4045 8.13715V12.2397C12.4045 12.4438 12.3234 12.6397 12.1786 12.7833L10.1246 14.8346C9.97464 14.9844 9.77742 15.0602 9.58023 15.0602C9.38304 15.0602 9.18583 14.9854 9.03588 14.8346C8.73496 14.5341 8.73496 14.0469 9.03588 13.7464L10.864 11.9207V8.13715C10.864 7.71254 11.2091 7.36792 11.6343 7.36792Z" fill="#646464"/>
<path d="M16.7902 15.3378C16.624 15.4631 16.4472 15.595 16.297 15.7258H17.5662C17.7132 15.7258 17.8541 15.7841 17.9581 15.8881C18.062 15.992 18.1204 16.133 18.1204 16.28C18.1204 16.427 18.062 16.5679 17.9581 16.6719C17.8541 16.7758 17.7132 16.8342 17.5662 16.8342H15.3493C15.2023 16.8342 15.0613 16.7758 14.9574 16.6719C14.8534 16.5679 14.795 16.427 14.795 16.28C14.795 15.4486 15.5017 14.9188 16.1252 14.451C16.5408 14.1396 17.0119 13.786 17.0119 13.5089C17.0119 13.3619 16.9535 13.2209 16.8496 13.117C16.7457 13.013 16.6047 12.9546 16.4577 12.9546C16.3107 12.9546 16.1698 13.013 16.0658 13.117C15.9619 13.2209 15.9035 13.3619 15.9035 13.5089C15.9035 13.6559 15.8451 13.7968 15.7412 13.9008C15.6372 14.0047 15.4963 14.0631 15.3493 14.0631C15.2023 14.0631 15.0613 14.0047 14.9574 13.9008C14.8534 13.7968 14.795 13.6559 14.795 13.5089C14.795 13.0679 14.9702 12.645 15.282 12.3332C15.5938 12.0214 16.0167 11.8462 16.4577 11.8462C16.8987 11.8462 17.3216 12.0214 17.6334 12.3332C17.9452 12.645 18.1204 13.0679 18.1204 13.5089C18.1204 14.3402 17.4137 14.87 16.7902 15.3378ZM21.4457 11.8462C21.2987 11.8462 21.1578 11.9046 21.0538 12.0085C20.9499 12.1125 20.8915 12.2534 20.8915 12.4004V14.0631H20.3373C20.1903 14.0631 20.0493 14.0047 19.9454 13.9008C19.8414 13.7968 19.7831 13.6559 19.7831 13.5089V12.4004C19.7831 12.2534 19.7247 12.1125 19.6207 12.0085C19.5168 11.9046 19.3758 11.8462 19.2288 11.8462C19.0818 11.8462 18.9409 11.9046 18.8369 12.0085C18.733 12.1125 18.6746 12.2534 18.6746 12.4004V13.5089C18.6746 13.9498 18.8498 14.3727 19.1616 14.6845C19.4734 14.9964 19.8963 15.1715 20.3373 15.1715H20.8915V16.28C20.8915 16.427 20.9499 16.5679 21.0538 16.6719C21.1578 16.7758 21.2987 16.8342 21.4457 16.8342C21.5927 16.8342 21.7337 16.7758 21.8376 16.6719C21.9416 16.5679 21.9999 16.427 21.9999 16.28V12.4004C21.9999 12.2534 21.9416 12.1125 21.8376 12.0085C21.7337 11.9046 21.5927 11.8462 21.4457 11.8462Z" fill="#646464"/>
</svg>
