<svg width="24" height="24" viewBox="0 0 24 24" fill="none" xmlns="http://www.w3.org/2000/svg">
<path fill-rule="evenodd" clip-rule="evenodd" d="M10.0611 7.26763C10.6806 7.01092 11.3446 6.87878 12.0152 6.87878C12.6857 6.87878 13.3497 7.01092 13.9692 7.26763C14.5887 7.52434 15.1515 7.90059 15.6255 8.37489C16.5829 9.33275 17.1207 10.6316 17.1207 11.9859C17.1207 13.3402 16.5829 14.639 15.6255 15.5969C14.8543 16.3683 13.658 17.1428 12.355 17.86C11.038 18.5849 9.55625 19.2809 8.17249 19.8849C6.78711 20.4896 5.49074 21.0061 4.54119 21.3712C4.06614 21.5539 3.67725 21.6989 3.40662 21.7985C3.2713 21.8483 3.1655 21.8867 3.09325 21.9128L3.0398 21.932C2.81941 22.0343 2.55594 22.0227 2.34103 21.887C2.05196 21.7045 1.92787 21.3461 2.04218 21.0239L2.7316 21.2685C2.04218 21.0239 2.04214 21.024 2.04218 21.0239L2.04498 21.016L2.05268 20.9945L2.08241 20.9118C2.10848 20.8395 2.14689 20.7338 2.19666 20.5985C2.29619 20.328 2.4412 19.9393 2.62385 19.4645C2.98895 18.5153 3.50544 17.2193 4.11047 15.8339C4.7148 14.4502 5.41143 12.9682 6.13738 11.6502C6.85566 10.3461 7.63152 9.14854 8.40484 8.37493M3.97756 20.0205C3.98148 20.0102 3.98542 20 3.98938 19.9897C4.34916 19.0543 4.85729 17.7794 5.45124 16.4195C6.04588 15.0579 6.72257 13.6202 7.4189 12.356C8.12286 11.078 8.8182 10.0309 9.43963 9.4092C9.77777 9.07085 10.1793 8.80236 10.6212 8.61923C11.0632 8.4361 11.5368 8.34184 12.0152 8.34184C12.4935 8.34184 12.9672 8.4361 13.4091 8.61923C13.851 8.80236 14.2525 9.07077 14.5906 9.40912C15.2738 10.0926 15.6576 11.0195 15.6576 11.9859C15.6576 12.9523 15.2738 13.8791 14.5907 14.5626C13.9719 15.1816 12.9268 15.8753 11.6495 16.5783C10.3863 17.2736 8.94886 17.9497 7.5872 18.544C6.22716 19.1377 4.95185 19.6458 4.01608 20.0057C4.00317 20.0106 3.99033 20.0155 3.97756 20.0205ZM10.0611 7.26763C9.4417 7.52433 8.87882 7.90065 8.40484 8.37493L10.0611 7.26763Z" fill="#646464"/>
<path fill-rule="evenodd" clip-rule="evenodd" d="M6.60838 11.4803C6.89406 11.1946 7.35724 11.1946 7.64291 11.4803L9.10597 12.9433C9.39165 13.229 9.39165 13.6922 9.10597 13.9778C8.82029 14.2635 8.35711 14.2635 8.07143 13.9778L6.60838 12.5148C6.3227 12.2291 6.3227 11.7659 6.60838 11.4803Z" fill="#646464"/>
<path fill-rule="evenodd" clip-rule="evenodd" d="M12.9483 11.9679C13.234 11.6822 13.6971 11.6822 13.9828 11.9679L15.9336 13.9187C16.2192 14.2043 16.2192 14.6675 15.9336 14.9532C15.6479 15.2389 15.1847 15.2389 14.899 14.9532L12.9483 13.0025C12.6626 12.7168 12.6626 12.2536 12.9483 11.9679Z" fill="#646464"/>
<path fill-rule="evenodd" clip-rule="evenodd" d="M16.959 6.29417C17.3555 6.08001 17.8327 5.90149 18.3424 5.90149C19.5204 5.90149 20.4254 6.53288 20.9941 7.0823C21.2845 7.3629 21.5077 7.64136 21.6587 7.84957C21.7346 7.95427 21.7934 8.04282 21.8343 8.10717C21.8548 8.13938 21.871 8.16567 21.8826 8.18502L21.8967 8.20878L21.9012 8.21656L21.9028 8.21939L21.9035 8.22054C21.9036 8.22077 21.904 8.2215 21.2685 8.58376C21.904 8.94601 21.9039 8.94624 21.9038 8.94647L21.9028 8.94812L21.9012 8.95095L21.8967 8.95873L21.8826 8.98249C21.871 9.00185 21.8548 9.02813 21.8343 9.06034C21.7934 9.12469 21.7346 9.21324 21.6587 9.31794C21.5077 9.52615 21.2845 9.80461 20.9941 10.0852C20.4254 10.6346 19.5204 11.266 18.3424 11.266C17.1644 11.266 16.2594 10.6346 15.6907 10.0852C15.4003 9.80461 15.1771 9.52615 15.0261 9.31794C14.9502 9.21324 14.8914 9.12469 14.8505 9.06034C14.83 9.02813 14.8139 9.00185 14.8022 8.98249L14.7881 8.95873L14.7836 8.95095L14.782 8.94812L14.7813 8.94697C14.7812 8.94674 14.7808 8.94601 15.4163 8.58376C14.8442 8.12782 14.8443 8.12769 14.8444 8.12756L14.8453 8.1265L14.8469 8.12446L14.8519 8.11829L14.8685 8.09786C14.8826 8.08076 14.9024 8.05684 14.9276 8.02707C14.978 7.96758 15.0502 7.8844 15.1407 7.78538C15.3209 7.58831 15.5781 7.32362 15.8847 7.05668C16.1891 6.79166 16.557 6.51131 16.959 6.29417ZM15.4163 8.58376L14.8444 8.12756C14.6579 8.36162 14.6325 8.68598 14.7808 8.94601L15.4163 8.58376ZM16.3469 8.63742C16.4457 8.76005 16.5665 8.89701 16.7073 9.03304C17.1482 9.45899 17.7062 9.80297 18.3424 9.80297C18.9786 9.80297 19.5366 9.45899 19.9775 9.03304C20.1392 8.87679 20.2746 8.71933 20.3804 8.58376C20.2746 8.44819 20.1392 8.29072 19.9775 8.13447C19.5366 7.70853 18.9786 7.36454 18.3424 7.36454C18.1664 7.36454 17.935 7.42987 17.6543 7.58147C17.3791 7.73009 17.1012 7.93743 16.8455 8.16009C16.655 8.32593 16.4851 8.49303 16.3469 8.63742ZM21.2685 8.58376L21.9038 8.94647C22.0318 8.72192 22.032 8.44605 21.904 8.2215L21.2685 8.58376Z" fill="#646464"/>
<path fill-rule="evenodd" clip-rule="evenodd" d="M15.7785 2.09599L15.4163 2.73153L15.054 2.09599C15.2786 1.968 15.554 1.968 15.7785 2.09599ZM15.4163 8.58375C15.054 9.21928 15.0538 9.21915 15.0536 9.21902L15.0519 9.21807L15.0491 9.21644L15.0413 9.21192L15.0176 9.19782C14.9982 9.18619 14.9719 9.17007 14.9397 9.14957C14.8754 9.10861 14.7868 9.04982 14.6821 8.97391C14.4739 8.82296 14.1954 8.59973 13.9148 8.30931C13.3654 7.74065 12.734 6.83566 12.734 5.65764C12.734 4.47961 13.3654 3.57462 13.9148 3.00597C14.1954 2.71555 14.4739 2.49231 14.6821 2.34136C14.7868 2.26545 14.8754 2.20666 14.9397 2.16571C14.9719 2.1452 14.9982 2.12909 15.0176 2.11745L15.0413 2.10335L15.0491 2.09883L15.0519 2.0972L15.0531 2.09654C15.0533 2.09641 15.054 2.09599 15.4163 2.73153C15.7785 2.09599 15.7783 2.09586 15.7785 2.09599L15.7807 2.0972L15.7835 2.09883L15.7913 2.10335L15.815 2.11745C15.8344 2.12909 15.8607 2.1452 15.8929 2.16571C15.9572 2.20666 16.0458 2.26545 16.1505 2.34136C16.3587 2.49231 16.6371 2.71555 16.9177 3.00597C17.4672 3.57462 18.0986 4.47961 18.0986 5.65764C18.0986 6.17017 17.921 6.64887 17.7062 7.0474C17.4888 7.4509 17.208 7.81876 16.9425 8.12255C16.6751 8.4285 16.41 8.68449 16.2126 8.86355C16.1134 8.95353 16.03 9.02521 15.9704 9.07526C15.9406 9.10031 15.9166 9.12002 15.8994 9.13396L15.8789 9.15052L15.8726 9.15548L15.8706 9.15712L15.8695 9.15797C15.8694 9.15808 15.8692 9.15818 15.4163 8.58375ZM15.4163 8.58375L15.0536 9.21902C15.3124 9.36655 15.6356 9.34243 15.8695 9.15797L15.4163 8.58375ZM15.3645 7.65463C15.5086 7.51773 15.6754 7.34914 15.8408 7.15979C16.063 6.90555 16.2699 6.62863 16.4182 6.35336C16.5693 6.07313 16.6355 5.83908 16.6355 5.65764C16.6355 5.02148 16.2915 4.46341 15.8656 4.02256C15.7093 3.86084 15.5519 3.72543 15.4163 3.61962C15.2807 3.72543 15.1233 3.86084 14.967 4.02256C14.5411 4.46341 14.1971 5.02148 14.1971 5.65764C14.1971 6.2938 14.5411 6.85186 14.967 7.29271C15.1037 7.43424 15.2414 7.55562 15.3645 7.65463Z" fill="#646464"/>
</svg>
