<svg width="24" height="24" viewBox="0 0 24 24" fill="none" xmlns="http://www.w3.org/2000/svg">
<path fill-rule="evenodd" clip-rule="evenodd" d="M4.13249 2.42522C4.26279 2.16462 4.52915 2 4.82051 2H19.1795C19.4708 2 19.7372 2.16462 19.8675 2.42522L21.9188 6.52778C21.9722 6.6346 22 6.75238 22 6.8718V7.89744C22 8.9175 21.5948 9.89578 20.8735 10.6171C20.5986 10.892 20.2864 11.121 19.9487 11.2991V20.4615H21.2308C21.6556 20.4615 22 20.8059 22 21.2308C22 21.6556 21.6556 22 21.2308 22H2.76923C2.3444 22 2 21.6556 2 21.2308C2 20.8059 2.3444 20.4615 2.76923 20.4615H4.05128V11.2991C3.71364 11.121 3.40141 10.892 3.12651 10.6171C2.40522 9.89578 2 8.9175 2 7.89744V6.8718C2 6.75238 2.0278 6.6346 2.08121 6.52778L4.13249 2.42522ZM9.69231 20.4615H14.3077V17.1282C14.3077 16.7882 14.1726 16.4621 13.9322 16.2217C13.6918 15.9812 13.3657 15.8462 13.0256 15.8462H10.9744C10.6343 15.8462 10.3082 15.9812 10.0678 16.2217C9.82738 16.4621 9.69231 16.7882 9.69231 17.1282V20.4615ZM15.8462 20.4615V17.1282C15.8462 16.3802 15.549 15.6628 15.02 15.1338C14.4911 14.6049 13.7737 14.3077 13.0256 14.3077H10.9744C10.2263 14.3077 9.5089 14.6049 8.97996 15.1338C8.45101 15.6628 8.15385 16.3802 8.15385 17.1282V20.4615H5.58974V11.735C5.67483 11.7407 5.76035 11.7436 5.84615 11.7436C6.86622 11.7436 7.8445 11.3384 8.5658 10.6171C8.69524 10.4876 8.81451 10.3499 8.92308 10.2052C9.03165 10.3499 9.15091 10.4876 9.28036 10.6171C10.0017 11.3384 10.9799 11.7436 12 11.7436C13.0201 11.7436 13.9983 11.3384 14.7196 10.6171C14.8491 10.4876 14.9684 10.3499 15.0769 10.2052C15.1855 10.3499 15.3048 10.4876 15.4342 10.6171C16.1555 11.3384 17.1338 11.7436 18.1538 11.7436C18.2397 11.7436 18.3252 11.7407 18.4103 11.735V20.4615H15.8462ZM9.69231 7.89744C9.69231 8.50947 9.93544 9.09645 10.3682 9.52922C10.801 9.962 11.388 10.2051 12 10.2051C12.612 10.2051 13.199 9.962 13.6318 9.52922C14.0646 9.09645 14.3077 8.50947 14.3077 7.89744V7.64103H9.69231V7.89744ZM8.15385 7.64103V7.89744C8.15385 8.50947 7.91072 9.09645 7.47794 9.52922C7.04516 9.962 6.45819 10.2051 5.84615 10.2051C5.23412 10.2051 4.64715 9.962 4.21437 9.52922C3.78159 9.09645 3.53846 8.50947 3.53846 7.89744V7.64103H8.15385ZM19.9861 6.10256L18.7041 3.53846H5.29592L4.01387 6.10256H19.9861ZM20.4615 7.64103H15.8462V7.89744C15.8462 8.50947 16.0893 9.09645 16.5221 9.52922C16.9548 9.962 17.5418 10.2051 18.1538 10.2051C18.7659 10.2051 19.3529 9.962 19.7856 9.52922C20.2184 9.09645 20.4615 8.50947 20.4615 7.89744V7.64103Z" fill="#646464"/>
</svg>
