<svg width="24" height="24" viewBox="0 0 24 24" fill="none" xmlns="http://www.w3.org/2000/svg">
<path d="M17.0885 3.68703C16.816 3.41547 16.816 2.97521 17.0885 2.70366C17.3611 2.43211 17.8029 2.43211 18.0755 2.70366L19.9359 4.55725C20.2084 4.8288 20.2084 5.26906 19.9359 5.54062C19.8001 5.67593 19.6215 5.74448 19.4429 5.74448C19.2643 5.74448 19.0856 5.67685 18.9498 5.54062L17.0885 3.68703ZM5.05179 3.68703C5.32433 3.41547 5.32433 2.97521 5.05179 2.70366C4.77924 2.43211 4.33736 2.43211 4.06481 2.70366L2.20441 4.55725C1.93186 4.8288 1.93186 5.26906 2.20441 5.54062C2.34022 5.67593 2.51885 5.74448 2.69744 5.74448C2.87604 5.74448 3.05467 5.67685 3.19048 5.54062L5.05179 3.68703ZM22 16.1709V18.0245C22 20.2655 20.761 21.5 18.5117 21.5H16.6514C14.4021 21.5 13.1631 20.2655 13.1631 18.0245V16.1709C13.1631 13.9299 14.4021 12.6954 16.6514 12.6954H18.5117C20.761 12.6954 22 13.9299 22 16.1709ZM20.6047 16.1709C20.6047 14.7094 19.9787 14.0856 18.5117 14.0856H16.6514C15.1844 14.0856 14.5584 14.7094 14.5584 16.1709V18.0245C14.5584 19.4861 15.1844 20.1098 16.6514 20.1098H18.5117C19.9787 20.1098 20.6047 19.4861 20.6047 18.0245V16.1709ZM18.2513 15.8336L17.1937 16.8864L16.9118 16.6056C16.6393 16.335 16.1974 16.3331 15.9249 16.6056C15.6523 16.8762 15.6523 17.3174 15.9249 17.589L16.6997 18.361C16.8309 18.4917 17.0076 18.5648 17.1928 18.5648C17.3779 18.5648 17.5556 18.4917 17.6858 18.361L19.2364 16.816C19.509 16.5445 19.509 16.1042 19.2364 15.8327C18.9639 15.5611 18.5238 15.562 18.2513 15.8336ZM11.0981 18.2562C9.90278 18.2562 8.73914 17.9439 7.72429 17.3471C5.64623 16.1598 4.35414 13.9336 4.35414 11.537C4.35414 7.83163 7.37915 4.81769 11.0981 4.81769C13.5036 4.81769 15.7379 6.10406 16.9332 8.18286C17.3843 8.94562 17.6737 9.79268 17.7909 10.6991C17.8402 11.08 18.1917 11.3498 18.5722 11.2988C18.9545 11.2497 19.2242 10.9011 19.1749 10.5202C19.0326 9.42567 18.683 8.40158 18.1398 7.48313C16.6998 4.98078 14.0022 3.42659 11.0981 3.42659C6.60987 3.42659 2.95884 7.06426 2.95884 11.536C2.95884 14.1459 4.23597 16.5796 6.32241 18.0829L4.99978 19.3824C4.72537 19.6521 4.7216 20.0921 4.99229 20.3655C5.12809 20.5036 5.30942 20.5732 5.48895 20.5732C5.66569 20.5732 5.84232 20.5064 5.97813 20.373L7.56146 18.8178C8.65259 19.3507 9.85813 19.6464 11.0981 19.6464C11.4832 19.6464 11.7957 19.335 11.7957 18.9513C11.7957 18.5676 11.4832 18.2562 11.0981 18.2562ZM10.3725 7.86688V11.5741C10.3725 11.9578 10.685 12.2692 11.0702 12.2692C11.4553 12.2692 11.7678 11.9578 11.7678 11.5741V7.86688C11.7678 7.48319 11.4553 7.17178 11.0702 7.17178C10.685 7.17178 10.3725 7.48319 10.3725 7.86688Z" fill="#646464"/>
</svg>
