<svg width="24" height="24" viewBox="0 0 24 24" fill="none" xmlns="http://www.w3.org/2000/svg">
<path fill-rule="evenodd" clip-rule="evenodd" d="M20.83 2.70373C20.8326 2.70461 20.8948 2.72586 20.9611 2.76414C21.072 2.82827 21.1647 2.91975 21.2302 3.02986C21.2572 3.0753 21.2736 3.11401 21.2784 3.12535C21.2857 3.14262 21.2912 3.1574 21.2947 3.16708C21.3019 3.18667 21.3078 3.20493 21.3121 3.21867C21.321 3.24719 21.3302 3.2795 21.3393 3.31314C21.3578 3.38156 21.3802 3.47208 21.4049 3.58163C21.4544 3.80135 21.5149 4.10697 21.5714 4.47937C21.684 5.22283 21.7824 6.24482 21.7399 7.38827C21.6557 9.65814 21.0095 12.5238 18.6773 14.5644C17.0827 15.9596 14.7738 16.9019 11.5092 17.0591L9.69615 21.2951C9.57123 21.587 9.27609 21.7686 8.95926 21.7485C8.64243 21.7284 8.37255 21.5111 8.28544 21.2058L7.06621 16.933L2.79348 15.7091C2.48843 15.6217 2.27138 15.3518 2.25148 15.0351C2.23159 14.7184 2.41315 14.4235 2.70487 14.2986L6.93513 12.4878C7.09541 9.19499 8.05444 6.87493 9.47044 5.27991C11.5157 2.97613 14.3707 2.34037 16.6302 2.25941C17.7686 2.21862 18.7853 2.31692 19.525 2.42915C19.8955 2.48536 20.1996 2.54554 20.4183 2.59474C20.5273 2.61927 20.6174 2.64158 20.6855 2.65993C20.719 2.66895 20.751 2.67805 20.7793 2.68683C20.7929 2.69106 20.8109 2.69684 20.83 2.70373ZM10.7549 6.09896C10.7331 6.51736 10.7838 7.0329 10.8925 7.36363C11.0264 7.77104 11.2505 8.14294 11.5481 8.45163C11.8457 8.76031 12.2091 8.9978 12.6112 9.14642C13.0133 9.29505 13.4437 9.35096 13.8704 9.31C14.0933 9.28861 14.3141 9.36792 14.4724 9.52625C14.6307 9.68459 14.71 9.90538 14.6886 10.1283C14.6476 10.5554 14.7036 10.9862 14.8523 11.3886C15.001 11.7911 15.2386 12.1547 15.5475 12.4524C15.8563 12.7501 16.2283 12.9742 16.6358 13.1079C16.9865 13.2231 17.475 13.2883 17.8675 13.2741C19.6153 11.6307 20.1664 9.34032 20.241 7.33263C20.2791 6.30398 20.1905 5.37827 20.0883 4.70414C20.0474 4.43451 20.0047 4.20712 19.9678 4.03181C19.7935 3.99517 19.5677 3.95278 19.3 3.91218C18.6293 3.81042 17.7082 3.72175 16.6839 3.75845C14.685 3.83007 12.4017 4.37274 10.7549 6.09896ZM16.0722 14.5004C15.4875 14.2933 14.9536 13.9634 14.5064 13.5323C14.035 13.0779 13.6722 12.5228 13.4453 11.9086C13.3134 11.5519 13.2294 11.1805 13.1943 10.8042C12.8184 10.7691 12.4475 10.6851 12.0911 10.5534C11.4772 10.3265 10.9225 9.96391 10.4682 9.4927C10.0361 9.04446 9.70547 8.50892 9.49835 7.92252C8.88074 9.1828 8.46985 10.8363 8.41709 13.0084C8.40996 13.3019 8.2323 13.5642 7.96245 13.6797L5.23373 14.8477L7.87967 15.6056C8.12869 15.677 8.32328 15.8718 8.39435 16.1209L9.14829 18.7631L10.3174 16.0315C10.433 15.7615 10.6955 15.5838 10.9891 15.5769C13.1596 15.5253 14.8122 15.1161 16.0722 14.5004Z" fill="#646464"/>
<path d="M15 8.5C15.8284 8.5 16.5 7.82843 16.5 7C16.5 6.17157 15.8284 5.5 15 5.5C14.1716 5.5 13.5 6.17157 13.5 7C13.5 7.82843 14.1716 8.5 15 8.5Z" fill="#646464"/>
</svg>
