<svg width="24" height="24" viewBox="0 0 24 24" fill="none" xmlns="http://www.w3.org/2000/svg">
<path fill-rule="evenodd" clip-rule="evenodd" d="M17.2608 18.2667C17.8789 18.6239 18.6176 18.7325 19.3179 18.5692C20.0181 18.4059 20.6239 17.9837 21.0046 17.3936C21.3854 16.8035 21.5107 16.0927 21.3535 15.4143C21.1964 14.7359 20.7693 14.1442 20.1644 13.7667L17.1563 12L20.1644 10.2342C20.4773 10.0533 20.7498 9.81416 20.9659 9.53063C21.182 9.24711 21.3374 8.92489 21.4231 8.58279C21.5088 8.24069 21.523 7.88554 21.465 7.53808C21.4069 7.19061 21.2777 6.85778 21.0849 6.559C20.8922 6.26022 20.6396 6.00148 20.3421 5.79786C20.0446 5.59425 19.7081 5.44984 19.3521 5.37306C18.9961 5.29628 18.6279 5.28866 18.2688 5.35066C17.9098 5.41266 17.5671 5.54303 17.2608 5.73417L14.5508 7.40833V4.5C14.5508 3.83696 14.2778 3.20107 13.7919 2.73223C13.306 2.26339 12.647 2 11.9598 2C11.2727 2 10.6137 2.26339 10.1278 2.73223C9.64191 3.20107 9.36894 3.83696 9.36894 4.5V7.49L6.65885 5.73417C6.04081 5.37698 5.3021 5.26834 4.60184 5.43164C3.90159 5.59495 3.29583 6.01713 2.91507 6.60725C2.53431 7.19736 2.40902 7.90818 2.56618 8.58658C2.72334 9.26498 3.15038 9.85666 3.75531 10.2342L6.76335 12L3.75531 13.7658C3.15038 14.1433 2.72334 14.735 2.56618 15.4134C2.40902 16.0918 2.53431 16.8026 2.91507 17.3927C3.29583 17.9829 3.90159 18.4051 4.60184 18.5684C5.3021 18.7317 6.04081 18.623 6.65885 18.2658L9.36894 16.5675V19.5C9.36894 20.163 9.64191 20.7989 10.1278 21.2678C10.6137 21.7366 11.2727 22 11.9598 22C12.647 22 13.306 21.7366 13.7919 21.2678C14.2778 20.7989 14.5508 20.163 14.5508 19.5V16.5167L17.2608 18.2667ZM5.97613 17.2032L10.6644 14.2652V19.5C10.6644 19.8315 10.8009 20.1495 11.0438 20.3839C11.2868 20.6183 11.6163 20.75 11.9598 20.75C12.3034 20.75 12.6329 20.6183 12.8759 20.3839C13.1188 20.1495 13.2553 19.8315 13.2553 19.5V14.1761L17.9501 17.2077C18.2718 17.3857 18.6523 17.4384 19.0135 17.3542C19.3836 17.2679 19.7037 17.0448 19.9049 16.7329C20.1061 16.4211 20.1723 16.0454 20.0893 15.6869C20.0062 15.3284 19.7805 15.0158 19.4609 14.8163L19.4533 14.8116L14.6639 12L19.4987 9.16178C19.6641 9.06621 19.8081 8.93985 19.9223 8.79002C20.0365 8.64019 20.1186 8.46992 20.1639 8.28913C20.2092 8.10835 20.2167 7.92067 20.186 7.73705C20.1554 7.55344 20.0871 7.37755 19.9852 7.21966C19.8833 7.06177 19.7499 6.92504 19.5927 6.81744C19.4354 6.70984 19.2576 6.63352 19.0695 6.59295C18.8814 6.55237 18.6868 6.54835 18.497 6.58112C18.3073 6.61388 18.1262 6.68277 17.9644 6.78378L17.9593 6.78691L13.2553 9.69283V4.5C13.2553 4.16848 13.1188 3.85054 12.8759 3.61612C12.6329 3.3817 12.3034 3.25 11.9598 3.25C11.6163 3.25 11.2868 3.3817 11.0438 3.61612C10.8009 3.85054 10.6644 4.16848 10.6644 4.5V9.83494L5.96888 6.79278C5.64733 6.61503 5.26709 6.56249 4.90618 6.64666C4.53613 6.73296 4.21602 6.95606 4.0148 7.26791C3.81359 7.57976 3.74738 7.95539 3.83043 8.31389C3.91239 8.66767 4.13324 8.97683 4.44627 9.17663L9.25579 12L4.44627 14.8234C4.13324 15.0232 3.91239 15.3323 3.83043 15.6861C3.74738 16.0446 3.81359 16.4202 4.0148 16.7321C4.21602 17.0439 4.53613 17.267 4.90618 17.3533C5.2698 17.4381 5.65304 17.3842 5.97613 17.2032Z" fill="#646464"/>
</svg>
