<svg width="24" height="24" viewBox="0 0 24 24" fill="none" xmlns="http://www.w3.org/2000/svg">
<path fill-rule="evenodd" clip-rule="evenodd" d="M13.4986 5.70028C13.0421 5.4005 12.5066 5.24378 11.9606 5.25019L11.9518 5.25029C10.4348 5.25029 9.17857 6.53473 9.17857 8.07161C9.17857 9.02788 9.59606 9.94997 10.2925 10.893H13.7857C14.4582 10.893 15.1032 11.1601 15.5787 11.6357C16.0543 12.1112 16.3214 12.7562 16.3214 13.4287C16.3214 13.6075 16.3026 13.7843 16.2659 13.9565L17.1966 13.7424C18.1233 13.0496 19.1304 12.1881 19.9123 11.2191C20.7349 10.1997 21.25 9.13405 21.25 8.07161C21.25 6.53473 19.9937 5.25024 18.4768 5.25024H18.468C17.922 5.24383 17.3864 5.4005 16.93 5.70028C16.4736 6.00006 16.117 6.42925 15.906 6.93289C15.7892 7.21165 15.5165 7.39306 15.2143 7.39306C14.9121 7.39306 14.6393 7.21165 14.5226 6.93289C14.3115 6.42925 13.955 6.00006 13.4986 5.70028ZM17.6471 15.178C17.6721 15.1736 17.697 15.1679 17.7217 15.1608L20.2931 14.5694C20.3032 14.5671 20.3132 14.5646 20.3232 14.5618C20.4319 14.532 20.5461 14.5277 20.6567 14.5492C20.7674 14.5707 20.8716 14.6174 20.9612 14.6857C21.0509 14.754 21.1236 14.8421 21.1737 14.9431C21.2237 15.0439 21.2498 15.1548 21.25 15.2673C21.2501 15.4033 21.2122 15.5365 21.1408 15.6521C21.0725 15.7625 20.9762 15.8526 20.8618 15.9134L17.4747 17.3583L11.9077 18.75L6.32143 18.75V14.8107L8.33298 12.7992C8.33289 12.7993 8.33306 12.7992 8.33298 12.7992C8.46261 12.6701 8.61666 12.5676 8.78584 12.4979C8.95513 12.4282 9.13651 12.3925 9.31959 12.393L9.32143 12.393H9.92077C9.92213 12.393 9.9235 12.393 9.92486 12.393H13.7857C14.0604 12.393 14.3238 12.5021 14.5181 12.6963C14.7123 12.8906 14.8214 13.154 14.8214 13.4287C14.8214 13.7034 14.7123 13.9668 14.5181 14.161C14.3238 14.3552 14.0604 14.4644 13.7857 14.4644H11.2857C10.8715 14.4644 10.5357 14.8001 10.5357 15.2144C10.5357 15.6286 10.8715 15.9644 11.2857 15.9644H14.1429C14.1994 15.9644 14.2558 15.958 14.311 15.9453L17.6471 15.178ZM8.55819 10.9941C8.44162 11.0257 8.32689 11.0647 8.21472 11.1109C7.86312 11.2557 7.54351 11.4683 7.27417 11.7367L7.27325 11.7377L5.26077 13.7501H2.71429C2.32594 13.7501 1.95349 13.9043 1.67888 14.179C1.40428 14.4536 1.25 14.826 1.25 15.2144V18.7857C1.25 19.1741 1.40428 19.5465 1.67888 19.8211C1.95349 20.0957 2.32594 20.25 2.71429 20.25L12 20.25C12.0613 20.25 12.1224 20.2425 12.1819 20.2276L17.8962 18.7991C17.9346 18.7895 17.9722 18.7768 18.0086 18.7613L21.4746 17.2828C21.4884 17.2769 21.502 17.2706 21.5153 17.2639C21.8864 17.0787 22.1985 16.7937 22.4166 16.4409C22.6347 16.0881 22.7502 15.6815 22.75 15.2667C22.7496 14.9234 22.67 14.5841 22.5174 14.2765C22.3649 13.9689 22.1434 13.7007 21.8703 13.4926C21.5971 13.2845 21.2797 13.1422 20.9426 13.0767C20.7268 13.0348 20.5066 13.0251 20.2892 13.0474C20.5649 12.7651 20.831 12.4692 21.0797 12.1611C22.007 11.0118 22.75 9.61894 22.75 8.07161C22.75 5.73678 20.8532 3.75269 18.4812 3.75024C17.6381 3.74122 16.8113 3.98362 16.1065 4.44653C15.7719 4.66632 15.472 4.93107 15.2143 5.23174C14.9566 4.93107 14.6567 4.66632 14.322 4.44653C13.6172 3.98362 12.7905 3.74122 11.9474 3.75024C9.57532 3.7527 7.67857 5.73678 7.67857 8.07161C7.67857 9.14368 8.0358 10.1157 8.55819 10.9941ZM4.82143 15.2501H2.75V18.75H4.82143V15.2501Z" fill="#646464"/>
</svg>
