<svg width="24" height="24" viewBox="0 0 24 24" fill="none" xmlns="http://www.w3.org/2000/svg">
<path d="M21.2306 2H2.76934C2.34473 2 2.00012 2.34461 2.00012 2.76922C2.00012 3.19383 2.34473 3.53844 2.76934 3.53844H3.53856V13.0255C3.53856 15.5055 4.9047 16.8716 7.38466 16.8716H11.2308V18.768L8.49643 20.5905C8.14259 20.8264 8.0472 21.3033 8.28309 21.6572C8.51796 22.011 8.99594 22.1064 9.34978 21.8705L12 20.1033L14.6502 21.8705C14.7815 21.9577 14.9292 21.9997 15.0769 21.9997C15.3251 21.9997 15.5692 21.8797 15.7179 21.6572C15.9538 21.3033 15.8584 20.8264 15.5045 20.5905L12.7702 18.768V16.8716H16.6163C19.0963 16.8716 20.4624 15.5055 20.4624 13.0255V3.53844H21.2306C21.6552 3.53844 21.9999 3.19383 21.9999 2.76922C21.9999 2.34461 21.6552 2 21.2306 2ZM18.923 13.0255C18.923 14.6429 18.2327 15.3332 16.6153 15.3332H7.38466C5.76725 15.3332 5.077 14.6429 5.077 13.0255V3.53844H18.923V13.0255ZM7.12826 7.89736C7.12826 7.47275 7.47287 7.12814 7.89748 7.12814H16.1025C16.5271 7.12814 16.8717 7.47275 16.8717 7.89736C16.8717 8.32197 16.5271 8.66658 16.1025 8.66658H7.89748C7.47287 8.66658 7.12826 8.32197 7.12826 7.89736ZM7.12826 10.9742C7.12826 10.5496 7.47287 10.205 7.89748 10.205H12C12.4246 10.205 12.7692 10.5496 12.7692 10.9742C12.7692 11.3988 12.4246 11.7435 12 11.7435H7.89748C7.47287 11.7435 7.12826 11.3988 7.12826 10.9742Z" fill="#646464"/>
</svg>
