<svg width="24" height="24" viewBox="0 0 24 24" fill="none" xmlns="http://www.w3.org/2000/svg">
<path d="M12 2C7.03714 2 3 6.02564 3 10.9744C3 16.2236 7.83119 19.4051 11.028 21.5107L11.5721 21.8708C11.7017 21.9569 11.8509 22 12 22C12.1491 22 12.2983 21.9569 12.4279 21.8708L12.972 21.5107C16.1688 19.4051 21 16.2236 21 10.9744C21 6.02564 16.9629 2 12 2ZM12.1224 20.2267L12 20.3078L11.8776 20.2267C8.7816 18.1877 4.54286 15.3959 4.54286 10.9744C4.54286 6.87385 7.88777 3.53846 12 3.53846C16.1122 3.53846 19.4571 6.87385 19.4571 10.9744C19.4571 15.3959 15.2174 18.1887 12.1224 20.2267ZM14.6023 9.4667L13.0903 10.9744L14.6023 12.482C14.9037 12.7825 14.9037 13.2698 14.6023 13.5703C14.4521 13.72 14.2546 13.7959 14.0571 13.7959C13.8597 13.7959 13.6622 13.721 13.512 13.5703L12 12.0626L10.488 13.5703C10.3378 13.72 10.1403 13.7959 9.94286 13.7959C9.74537 13.7959 9.54789 13.721 9.39772 13.5703C9.09634 13.2698 9.09634 12.7825 9.39772 12.482L10.9097 10.9744L9.39772 9.4667C9.09634 9.16618 9.09634 8.67897 9.39772 8.37846C9.69909 8.07794 10.1877 8.07794 10.489 8.37846L12.001 9.88612L13.513 8.37846C13.8144 8.07794 14.303 8.07794 14.6043 8.37846C14.9057 8.67897 14.9037 9.16618 14.6023 9.4667Z" fill="#646464"/>
</svg>
