<svg width="24" height="24" viewBox="0 0 24 24" fill="none" xmlns="http://www.w3.org/2000/svg">
<path d="M12.0005 10.7181C13.3676 10.7181 14.4792 9.6064 14.4792 8.23936C14.4792 6.87232 13.3676 5.76064 12.0005 5.76064C10.6335 5.76064 9.5218 6.87232 9.5218 8.23936C9.5218 9.6064 10.6335 10.7181 12.0005 10.7181ZM12.0005 7.29895C12.5184 7.29895 12.9409 7.72044 12.9409 8.23936C12.9409 8.75828 12.5194 9.17977 12.0005 9.17977C11.4816 9.17977 11.0601 8.75828 11.0601 8.23936C11.0601 7.72044 11.4826 7.29895 12.0005 7.29895ZM21.1934 7.25689C20.6725 6.93282 20.0018 6.91343 19.3987 7.20982L18.2163 7.80145C17.9897 4.56588 15.2915 2 11.9995 2C8.79468 2 6.14981 4.42953 5.80216 7.54306L3.4424 8.72759C2.55326 9.1737 2.00049 10.069 2.00049 11.0648V19.6905C2.00049 20.3192 2.31841 20.8913 2.84963 21.2226C3.37984 21.5528 4.03415 21.5847 4.60229 21.3047L8.09219 19.5491C8.17525 19.5101 8.25114 19.4885 8.34754 19.4875C8.45112 19.4813 8.52498 19.4915 8.60292 19.5223L14.8495 21.8575C15.0956 21.9529 15.3448 22 15.5509 22C15.6012 22 15.6484 21.9979 15.6925 21.9917C15.9827 21.9917 16.2678 21.9241 16.5816 21.7764L20.5597 19.7767C21.4478 19.3295 21.9995 18.4342 21.9995 17.4404V8.81072C21.9995 8.14207 21.7062 7.57583 21.1934 7.25689ZM12.0005 3.53831C14.5921 3.53831 16.7006 5.64782 16.7006 8.23936C16.7006 8.44344 16.6821 8.64042 16.6544 8.83425V8.83525C16.3047 11.2832 13.8567 12.9282 12.0005 14.1557C9.99661 12.8318 7.30047 11.0216 7.30047 8.23936C7.30047 5.64782 9.40898 3.53831 12.0005 3.53831ZM3.91824 19.9274C3.8044 19.9838 3.70903 19.9459 3.66289 19.9161C3.61674 19.8874 3.53983 19.8198 3.53983 19.6905V11.0648C3.53983 10.6557 3.76751 10.2862 4.13362 10.1027L5.85652 9.23836C6.08111 10.5285 6.72104 11.6124 7.53942 12.5323V18.1234C7.49942 18.1398 7.46045 18.147 7.41943 18.1665L3.91824 19.9274ZM9.15055 18.0846C9.12697 18.0754 9.10131 18.0733 9.07773 18.0651V13.968C9.80996 14.5505 10.5617 15.048 11.2129 15.4787L11.5739 15.7176C11.7031 15.8037 11.8518 15.8468 12.0005 15.8468C12.1492 15.8468 12.2979 15.8037 12.4271 15.7176L12.7881 15.4787C13.4394 15.049 14.1911 14.5505 14.9233 13.968V20.2424L9.15055 18.0846ZM20.4612 17.4404C20.4612 17.8496 20.2335 18.2188 19.8684 18.4024L16.4616 20.1152V12.5323C17.2051 11.6975 17.8061 10.7272 18.0789 9.58988L20.0828 8.58713C20.2141 8.52252 20.3269 8.5285 20.3812 8.56234C20.453 8.60747 20.4612 8.75124 20.4612 8.81072V17.4404Z" fill="#646464"/>
</svg>
