<svg width="24" height="24" viewBox="0 0 24 24" fill="none" xmlns="http://www.w3.org/2000/svg">
<path d="M17.1486 2H7.39189C4.90854 2 3.54054 3.36615 3.54054 5.84615V7.12821H2.77027C2.34508 7.12821 2 7.47282 2 7.89744C2 8.32205 2.34508 8.66667 2.77027 8.66667H3.54054V15.3333H2.77027C2.34508 15.3333 2 15.6779 2 16.1026C2 16.5272 2.34508 16.8718 2.77027 16.8718H3.54054V18.1538C3.54054 20.6338 4.90854 22 7.39189 22H17.1486C19.632 22 21 20.6338 21 18.1538V5.84615C21 3.36615 19.632 2 17.1486 2ZM19.4595 18.1538C19.4595 19.7713 18.7683 20.4615 17.1486 20.4615H7.39189C5.77227 20.4615 5.08108 19.7713 5.08108 18.1538V16.8718H5.85135C6.27654 16.8718 6.62162 16.5272 6.62162 16.1026C6.62162 15.6779 6.27654 15.3333 5.85135 15.3333H5.08108V8.66667H5.85135C6.27654 8.66667 6.62162 8.32205 6.62162 7.89744C6.62162 7.47282 6.27654 7.12821 5.85135 7.12821H5.08108V5.84615C5.08108 4.22872 5.77227 3.53846 7.39189 3.53846H17.1486C18.7683 3.53846 19.4595 4.22872 19.4595 5.84615V18.1538ZM15.0946 6.10256H9.95946C8.8513 6.10256 8.16216 6.78974 8.16216 7.89744V10.9744C8.16216 12.0821 8.8513 12.7692 9.95946 12.7692H15.0946C16.2028 12.7692 16.8919 12.0821 16.8919 10.9744V7.89744C16.8919 6.78974 16.2028 6.10256 15.0946 6.10256ZM15.3514 10.9744C15.3514 11.1344 15.3215 11.1939 15.3235 11.197C15.3153 11.2011 15.2548 11.2308 15.0946 11.2308H9.95946C9.80438 11.2308 9.74269 11.2031 9.73756 11.2031C9.73653 11.2031 9.73655 11.2031 9.73655 11.2031C9.73244 11.1939 9.7027 11.1344 9.7027 10.9744V7.89744C9.7027 7.73744 9.73259 7.67791 9.73053 7.67483C9.73875 7.67073 9.79924 7.64103 9.95946 7.64103H15.0946C15.2815 7.64103 15.3175 7.66972 15.3175 7.6687C15.3216 7.67793 15.3514 7.73744 15.3514 7.89744V10.9744Z" fill="#646464"/>
</svg>
