<svg width="24" height="24" viewBox="0 0 24 24" fill="none" xmlns="http://www.w3.org/2000/svg">
<path d="M17.8092 8.2148L22 4.02396L20.8092 2.83313L16.6042 7.0373L14.7658 5.24063C14.4642 4.94742 14.0632 4.77839 13.6427 4.76712C13.2222 4.75585 12.8128 4.90316 12.4958 5.1798C10.949 6.5805 9.14939 7.67361 7.19333 8.40063L2 9.92313V10.5531C2.03429 13.3973 3.19505 16.1117 5.22773 18.1013C7.26042 20.0908 9.99913 21.1931 12.8433 21.1665H13.8775L14.095 21.0148C15.7941 19.9256 17.2037 18.4406 18.2031 16.6872C19.2025 14.9338 19.7619 12.9643 19.8333 10.9473C19.8397 10.715 19.7977 10.484 19.71 10.2688C19.6224 10.0537 19.491 9.85903 19.3242 9.6973L17.8092 8.2148ZM13.5883 6.4448L18.1525 10.8956C18.1276 11.7454 18 12.589 17.7725 13.4081L11.9558 7.7448C12.5216 7.33936 13.0665 6.90546 13.5883 6.4448ZM13.3433 19.4823H12.8433C11.6153 19.4824 10.3993 19.2391 9.26583 18.7665C10.7223 18.0347 11.969 16.9451 12.8892 15.5998L13.3208 14.9665L11.93 14.0198L11.4983 14.654C10.7376 15.7635 9.70763 16.6618 8.505 17.2648L7.48083 17.7798C6.64813 17.1936 5.91992 16.4716 5.32667 15.644C6.68592 15.1838 7.92604 14.4275 8.9575 13.4298L7.78167 12.2256C6.85035 13.1278 5.71391 13.7904 4.47 14.1565C4.03855 13.2171 3.77862 12.2082 3.7025 11.1773L7.665 10.0156C8.66708 9.69391 9.62527 9.24883 10.5175 8.69063L17.11 15.1073C16.2383 16.856 14.9442 18.3597 13.345 19.4823H13.3433Z" fill="#646464"/>
</svg>
