<svg width="24" height="24" viewBox="0 0 24 24" fill="none" xmlns="http://www.w3.org/2000/svg">
<path d="M8.08823 16.9989L10.5349 14.5522C10.5359 14.5512 10.5359 14.5512 10.5369 14.5512C10.5369 14.5502 10.5379 14.5502 10.5379 14.5491L21.7737 3.31334C22.0742 3.01289 22.0742 2.5258 21.7737 2.22534C21.4733 1.92489 20.9862 1.92489 20.6857 2.22534L10.0099 12.9013C9.37108 12.1711 8.82737 11.358 8.39566 10.4648L9.55755 9.6957C10.8342 8.83946 11.22 7.14645 10.4365 5.84516L8.83478 3.13287C8.33539 2.30226 7.38069 1.86645 6.44241 2.03667C6.4219 2.03872 6.40133 2.04283 6.38082 2.04693C4.89803 2.34841 3.5927 3.26104 2.80003 4.55002C2.01454 5.82772 1.79915 7.31771 2.19292 8.74718C2.98252 11.6174 4.45805 14.2579 6.46895 16.4421L2.22772 20.6833C1.92727 20.9838 1.92727 21.4709 2.22772 21.7713C2.37744 21.921 2.57435 21.9969 2.77124 21.9969C2.96812 21.9969 3.16504 21.9221 3.31475 21.7713L8.0727 17.0133C8.07886 17.0082 8.0831 17.0041 8.08823 16.9989ZM3.67576 8.34008C3.39787 7.32591 3.55148 6.26663 4.11138 5.35603C4.67434 4.44031 5.59637 3.78811 6.64745 3.56354C6.6659 3.56149 6.68231 3.55844 6.70077 3.55434C7.01763 3.48768 7.34062 3.63329 7.51392 3.92042L9.11667 6.6327C9.47968 7.23464 9.29703 8.01911 8.70535 8.41493L7.0032 9.54293C6.69556 9.74699 6.57551 10.1407 6.71805 10.4812C7.26563 11.7876 8.01421 12.9577 8.92891 13.9852L7.55798 15.3561C5.73474 13.3606 4.39562 10.9529 3.67576 8.34008ZM21.9993 17.1589C21.9993 17.3148 21.983 17.4696 21.9522 17.6214C21.659 19.096 20.7534 20.3993 19.4695 21.193C18.6051 21.7262 17.6433 22 16.6661 22C16.1954 22 15.7214 21.9364 15.2528 21.8083C13.0789 21.2053 11.0813 20.2475 9.31245 18.9606C8.96893 18.7104 8.893 18.2295 9.14321 17.8859C9.39239 17.5434 9.8724 17.4655 10.218 17.7167C11.8372 18.895 13.6687 19.7727 15.6621 20.3255C16.6855 20.6044 17.749 20.4485 18.6616 19.8845C19.5835 19.3144 20.2346 18.3792 20.4459 17.3168C20.4572 17.2625 20.4622 17.2122 20.4622 17.1589C20.4622 16.9036 20.3115 16.6451 20.0756 16.4995L17.3715 14.8865C16.7676 14.5235 15.982 14.703 15.581 15.2936L14.4347 17.003C14.2316 17.3076 13.842 17.4265 13.5036 17.286C12.9663 17.0646 12.4237 16.7928 11.8956 16.477C11.5305 16.2596 11.4106 15.7868 11.628 15.4228C11.8464 15.0588 12.3192 14.9388 12.6822 15.1562C12.9601 15.3213 13.239 15.472 13.5179 15.6084L14.3055 14.4343C15.1669 13.1638 16.8588 12.7843 18.1622 13.5678L20.8755 15.187C21.5738 15.6197 21.9993 16.3724 21.9993 17.1589Z" fill="#646464"/>
</svg>
