<svg width="24" height="24" viewBox="0 0 24 24" fill="none" xmlns="http://www.w3.org/2000/svg">
<path d="M21.3262 11.6668C20.8837 11.0757 20.2548 10.6511 19.5411 10.4614C19.889 9.45032 20.146 8.41025 20.3092 7.35353C20.3625 6.96941 20.3259 6.57815 20.2023 6.21057C20.0787 5.84299 19.8715 5.5091 19.597 5.23521C19.3224 4.96131 18.9881 4.75488 18.6202 4.63217C18.2523 4.50945 17.861 4.4738 17.477 4.52802C17.372 4.54218 17.0605 4.588 16.6348 4.67046C16.8984 4.08692 17.0233 3.45027 16.9997 2.8104C16.9962 2.70101 16.9712 2.59338 16.9261 2.49365C16.881 2.39393 16.8167 2.30406 16.7369 2.22919C16.657 2.15431 16.5633 2.0959 16.4608 2.05727C16.3584 2.01864 16.2494 2.00056 16.14 2.00406C16.0307 2.00756 15.923 2.03257 15.8233 2.07767C15.7236 2.12276 15.6337 2.18706 15.5588 2.26689C15.484 2.34671 15.4255 2.4405 15.3869 2.54291C15.3483 2.64531 15.3302 2.75432 15.3337 2.86371C15.3479 3.2661 15.2654 3.66602 15.093 4.02989C14.9725 3.70474 14.8007 3.40101 14.584 3.13026C14.2158 2.71118 13.7484 2.39111 13.2245 2.19932C12.7006 2.00752 12.137 1.95013 11.5853 2.03238C10.9802 2.08095 10.4019 2.30243 9.91927 2.67045C9.37362 2.25995 8.71349 2.02991 8.03088 2.01239C7.16473 1.92844 6.3006 2.19113 5.62771 2.74292C5.28604 3.04711 5.01018 3.41794 4.81708 3.83265C4.62398 4.24735 4.51772 4.69716 4.50484 5.15443C4.48198 5.88665 4.69516 6.60681 5.11292 7.20859C4.60471 7.64432 4.21021 8.19722 3.96349 8.81953C3.71678 9.44184 3.62525 10.1149 3.69683 10.7804C3.03807 11.1476 2.52469 11.7289 2.24194 12.4281C1.95919 13.1272 1.9241 13.902 2.14247 14.6239C2.71308 16.6093 3.77512 18.4188 5.23037 19.885C6.62647 21.2463 8.50165 22.0044 10.4516 21.9958H13.5519C15.5016 22.0046 17.3766 21.2464 18.7723 19.885C20.2281 18.4191 21.2904 16.6095 21.861 14.6239C22.0097 14.1235 22.0388 13.5952 21.9459 13.0816C21.8531 12.568 21.6408 12.0833 21.3262 11.6668ZM17.7086 6.17734C17.8375 6.15995 17.9687 6.17259 18.0919 6.21429C18.2151 6.25598 18.327 6.3256 18.4189 6.4177C18.5107 6.5098 18.58 6.62189 18.6214 6.74521C18.6628 6.86854 18.6751 6.99976 18.6573 7.12862C18.4827 8.22249 18.1994 9.29624 17.8119 10.334H15.6786L16.7556 9.25691C16.9074 9.09981 16.9913 8.88939 16.9894 8.67098C16.9875 8.45258 16.8999 8.24365 16.7455 8.08921C16.591 7.93476 16.3821 7.84716 16.1637 7.84526C15.9453 7.84336 15.7349 7.92733 15.5778 8.07906L13.3229 10.334H12.0326C11.9717 9.89585 12.0135 9.4496 12.1546 9.03039C12.2957 8.61118 12.5322 8.23047 12.8456 7.91829C13.2013 7.55928 14.5649 6.58551 17.7086 6.17734ZM6.17082 5.21024C6.17582 4.98092 6.22753 4.75502 6.32277 4.54635C6.41801 4.33768 6.55479 4.15061 6.72476 3.99657C7.06843 3.74255 7.49536 3.62771 7.9201 3.67504C8.12525 3.6666 8.32986 3.70165 8.52051 3.77788C8.71116 3.85411 8.88353 3.9698 9.02631 4.11736C9.13871 4.24294 9.27634 4.34339 9.43021 4.41215C9.58409 4.48091 9.75074 4.51642 9.91927 4.51636C10.0874 4.51553 10.2535 4.47936 10.4068 4.41019C10.56 4.34102 10.697 4.2404 10.8089 4.11486C10.9331 3.98344 11.0822 3.878 11.2475 3.80464C11.4128 3.73129 11.591 3.69148 11.7718 3.68753C12.0472 3.63849 12.3304 3.65847 12.5961 3.74569C12.8619 3.83291 13.1018 3.98465 13.2946 4.18733C13.5474 4.51107 13.6794 4.9129 13.6677 5.32353C13.6677 5.37767 13.6677 5.49596 13.6677 5.49596C12.5619 5.89415 11.6173 6.64416 10.9788 7.63091C10.4528 7.00823 9.75299 6.55669 8.96886 6.3341C8.18474 6.1115 7.35202 6.12798 6.57732 6.38143C6.30088 6.05517 6.15595 5.6376 6.17082 5.21024ZM5.33783 10.334C5.33783 9.6712 5.60111 9.03557 6.06976 8.56693C6.53841 8.09828 7.17403 7.83499 7.8368 7.83499C8.49957 7.83499 9.13519 8.09828 9.60384 8.56693C10.0725 9.03557 10.3358 9.6712 10.3358 10.334H5.33783ZM20.2617 14.1566C19.764 15.8702 18.848 17.4331 17.5961 18.7047C16.5137 19.7563 15.0611 20.3401 13.5519 20.3299H10.4516C8.94199 20.3397 7.48899 19.7561 6.40572 18.7047C5.15381 17.4331 4.23779 15.8702 3.74015 14.1566C3.66547 13.9044 3.65099 13.6382 3.69786 13.3794C3.74473 13.1205 3.85166 12.8763 4.01004 12.6663C4.16372 12.459 4.36393 12.2907 4.59456 12.175C4.82519 12.0593 5.07978 11.9993 5.33783 11.9999H18.6657C18.9246 11.9985 19.1801 12.0581 19.4117 12.1739C19.6433 12.2896 19.8443 12.4584 19.9985 12.6663C20.1557 12.8769 20.2614 13.1214 20.3072 13.3802C20.3529 13.639 20.3373 13.9049 20.2617 14.1566Z" fill="#646464"/>
</svg>
