<svg width="24" height="24" viewBox="0 0 24 24" fill="none" xmlns="http://www.w3.org/2000/svg">
<path fill-rule="evenodd" clip-rule="evenodd" d="M7.21581 2.08121C6.97735 1.96198 6.69417 1.97473 6.46739 2.11488C6.2406 2.25504 6.10256 2.50263 6.10256 2.76923V7.89744C6.10256 8.32227 6.44696 8.66667 6.8718 8.66667H17.1282C17.485 8.66667 17.7949 8.42138 17.8769 8.07417C17.9588 7.72696 17.7913 7.36896 17.4722 7.20942L7.21581 2.08121ZM7.64103 7.12821V4.01387L13.8697 7.12821H7.64103Z" fill="#646464"/>
<path d="M2 12C2 11.5752 2.3444 11.2308 2.76923 11.2308H21.2308C21.6556 11.2308 22 11.5752 22 12C22 12.4248 21.6556 12.7692 21.2308 12.7692H2.76923C2.3444 12.7692 2 12.4248 2 12Z" fill="#646464"/>
<path fill-rule="evenodd" clip-rule="evenodd" d="M6.10256 16.1026C6.10256 15.6777 6.44696 15.3333 6.8718 15.3333H17.1282C17.485 15.3333 17.7949 15.5786 17.8769 15.9258C17.9588 16.273 17.7913 16.631 17.4722 16.7906L7.21581 21.9188C6.97735 22.038 6.69417 22.0253 6.46739 21.8851C6.2406 21.745 6.10256 21.4974 6.10256 21.2308V16.1026ZM7.64103 16.8718V19.9861L13.8697 16.8718H7.64103Z" fill="#646464"/>
</svg>
