<svg width="24" height="24" viewBox="0 0 24 24" fill="none" xmlns="http://www.w3.org/2000/svg">
<path d="M16.62 21.75H7.39C6.37 21.75 5.4 21.34 4.68 20.61C3.96 19.88 3.56 18.9 3.56 17.87V17.31L2.26 17.79C1.87 17.94 1.44 17.74 1.3 17.35C1.16 16.96 1.35 16.53 1.74 16.39L5.97 14.82C6.15 14.75 6.34 14.76 6.51 14.83L10.07 16.28L13.63 14.83C13.81 14.76 14.02 14.76 14.2 14.83L17.78 16.29L21.74 14.83C22.13 14.69 22.56 14.88 22.7 15.27C22.84 15.66 22.65 16.09 22.26 16.23L20.44 16.9V17.87C20.44 18.9 20.04 19.88 19.32 20.61C18.6 21.34 17.64 21.75 16.62 21.75ZM5.06 16.75V17.86C5.06 18.5 5.3 19.1 5.75 19.55C6.18 20 6.77 20.25 7.39 20.25H16.62C17.24 20.25 17.82 20 18.26 19.56C18.7 19.11 18.95 18.51 18.95 17.87V17.45L18.04 17.79C17.86 17.86 17.67 17.85 17.5 17.78L13.94 16.33L10.38 17.78C10.2 17.85 10 17.85 9.81 17.78L6.23 16.32L5.06 16.75ZM22 13.14H2C1.59 13.14 1.25 12.81 1.25 12.39C1.25 11.97 1.59 11.64 2 11.64H22C22.41 11.64 22.75 11.98 22.75 12.39C22.75 12.8 22.41 13.14 22 13.14ZM19.69 10.01H19.68H4.32C4.1 10.03 3.86 9.96 3.66 9.86C3.45 9.76 3.27 9.62 3.12 9.44C2.98 9.26 2.88 9.05 2.83 8.83C2.78 8.61 2.78 8.38 2.83 8.15C3.53 4.73 7.39 2.25 12 2.25C16.61 2.25 20.47 4.73 21.18 8.16C21.23 8.38 21.22 8.61 21.17 8.83C21.12 9.05 21.02 9.27 20.87 9.44C20.73 9.61 20.55 9.76 20.34 9.86C20.14 9.96 19.92 10.01 19.69 10.01ZM12 3.75C8.16 3.75 4.85 5.78 4.29 8.46L4.31 8.51H19.68C19.15 5.78 15.84 3.75 12 3.75Z" fill="#646464"/>
</svg>
