<svg width="24" height="24" viewBox="0 0 24 24" fill="none" xmlns="http://www.w3.org/2000/svg">
<path fill-rule="evenodd" clip-rule="evenodd" d="M3.11111 15.3333C3.72476 15.3333 4.22222 15.8308 4.22222 16.4444V20.8889C4.22222 21.5025 3.72476 22 3.11111 22C2.49746 22 2 21.5025 2 20.8889V16.4444C2 15.8308 2.49746 15.3333 3.11111 15.3333Z" fill="#646464"/>
<path fill-rule="evenodd" clip-rule="evenodd" d="M9.03701 10.8889C9.65066 10.8889 10.1481 11.3864 10.1481 12V20.8889C10.1481 21.5026 9.65066 22 9.03701 22C8.42336 22 7.9259 21.5026 7.9259 20.8889V12C7.9259 11.3864 8.42336 10.8889 9.03701 10.8889Z" fill="#646464"/>
<path fill-rule="evenodd" clip-rule="evenodd" d="M14.963 6.44446C15.5766 6.44446 16.0741 6.94192 16.0741 7.55557V20.8889C16.0741 21.5026 15.5766 22 14.963 22C14.3493 22 13.8519 21.5026 13.8519 20.8889V7.55557C13.8519 6.94192 14.3493 6.44446 14.963 6.44446Z" fill="#646464"/>
<path fill-rule="evenodd" clip-rule="evenodd" d="M20.8889 2C21.5025 2 22 2.49746 22 3.11111V20.8889C22 21.5025 21.5025 22 20.8889 22C20.2752 22 19.7778 21.5025 19.7778 20.8889V3.11111C19.7778 2.49746 20.2752 2 20.8889 2Z" fill="#646464"/>
</svg>
