<svg width="24" height="24" viewBox="0 0 24 24" fill="none" xmlns="http://www.w3.org/2000/svg">
<path fill-rule="evenodd" clip-rule="evenodd" d="M4.92893 4.92893C6.8043 3.05357 9.34784 2 12 2C14.6522 2 17.1957 3.05357 19.0711 4.92893C19.9997 5.85752 20.7362 6.95991 21.2388 8.17317C21.7413 9.38642 22 10.6868 22 12C22 13.3132 21.7413 14.6136 21.2388 15.8268C20.7362 17.0401 19.9997 18.1425 19.0711 19.0711C18.1425 19.9997 17.0401 20.7362 15.8268 21.2388C14.6136 21.7413 13.3132 22 12 22C10.6868 22 9.38642 21.7413 8.17317 21.2388C6.95991 20.7362 5.85752 19.9997 4.92893 19.0711C3.05357 17.1957 2 14.6522 2 12C2 9.34784 3.05357 6.8043 4.92893 4.92893ZM6.01678 6.01678C7.54421 4.48935 9.59547 3.60619 11.7483 3.54219C11.7218 4.43255 11.5549 5.31433 11.2526 6.15462C10.8866 6.01212 10.4655 6.1695 10.2863 6.5278C10.1008 6.8989 10.2434 7.34828 10.6041 7.54606C10.3667 7.95404 10.0954 8.34175 9.79291 8.70501L9.46702 8.37911C9.16662 8.07871 8.67957 8.07871 8.37917 8.37911C8.07877 8.67951 8.07877 9.16656 8.37917 9.46696L8.70506 9.79286C8.34179 10.0954 7.95407 10.3667 7.54607 10.6041C7.34829 10.2434 6.89891 10.1008 6.52781 10.2863C6.16951 10.4655 6.01212 10.8865 6.15462 11.2526C5.31433 11.5549 4.43255 11.7218 3.54219 11.7483C3.6062 9.59546 4.48936 7.54421 6.01678 6.01678ZM6.84362 12.638C5.81549 13.0288 4.73181 13.2466 3.63648 13.2845C3.9081 15.0531 4.73591 16.7023 6.01678 17.9832C6.80251 18.7689 7.7353 19.3922 8.76191 19.8175C9.39028 20.0777 10.0463 20.2607 10.7155 20.3635C10.7534 19.2682 10.9712 18.1845 11.362 17.1564L10.6304 16.7905C10.2504 16.6006 10.0964 16.1385 10.2863 15.7585C10.4763 15.3785 10.9384 15.2245 11.3184 15.4145L12.0178 15.7642C12.3328 15.2106 12.7002 14.6878 13.1154 14.2032L12.4817 13.5695C12.1813 13.2691 12.1813 12.7821 12.4817 12.4817C12.7821 12.1813 13.2692 12.1813 13.5696 12.4817L14.2033 13.1153C14.6878 12.7002 15.2106 12.3327 15.7642 12.0177L15.4145 11.3184C15.2245 10.9384 15.3785 10.4763 15.7585 10.2863C16.1385 10.0963 16.6006 10.2504 16.7906 10.6303L17.1563 11.3619C18.1845 10.9711 19.2681 10.7533 20.3635 10.7154C20.2607 10.0462 20.0777 9.39025 19.8175 8.76191C19.3922 7.7353 18.7689 6.80251 17.9832 6.01678C16.7024 4.73592 15.0531 3.9081 13.2845 3.63649C13.2466 4.73181 13.0288 5.81548 12.638 6.84361L13.3696 7.20943C13.7496 7.39942 13.9036 7.86147 13.7136 8.24145C13.5237 8.62144 13.0616 8.77545 12.6816 8.58546L11.9822 8.23574C11.6672 8.78935 11.2997 9.31212 10.8846 9.79668L11.5183 10.4304C11.8187 10.7308 11.8187 11.2178 11.5183 11.5182C11.2179 11.8186 10.7308 11.8186 10.4304 11.5182L9.79674 10.8845C9.31216 11.2997 8.78938 11.6672 8.23574 11.9822L8.58547 12.6816C8.77546 13.0616 8.62144 13.5236 8.24146 13.7136C7.86148 13.9036 7.39943 13.7496 7.20944 13.3696L6.84362 12.638ZM12.7474 17.8453C13.1134 17.9879 13.5345 17.8305 13.7136 17.4722C13.8992 17.1011 13.7566 16.6517 13.3959 16.4539C13.6333 16.0459 13.9046 15.6582 14.2071 15.2949L14.533 15.6208C14.8334 15.9212 15.3204 15.9212 15.6208 15.6208C15.9212 15.3204 15.9212 14.8333 15.6208 14.5329L15.2949 14.207C15.6582 13.9045 16.0459 13.6332 16.4539 13.3958C16.6516 13.7566 17.1011 13.8992 17.4722 13.7136C17.8305 13.5345 17.9879 13.1134 17.8453 12.7473C18.6856 12.445 19.5674 12.2781 20.4578 12.2516C20.4273 13.277 20.2106 14.289 19.8175 15.2381C19.3922 16.2647 18.7689 17.1975 17.9832 17.9832C17.1975 18.7689 16.2647 19.3922 15.2381 19.8175C14.2891 20.2106 13.2771 20.4273 12.2517 20.4578C12.2782 19.5674 12.4451 18.6856 12.7474 17.8453Z" fill="#646464"/>
</svg>
