<svg width="24" height="24" viewBox="0 0 24 24" fill="none" xmlns="http://www.w3.org/2000/svg">
<path fill-rule="evenodd" clip-rule="evenodd" d="M12.9302 5C12.5449 5 12.2325 5.31236 12.2325 5.69767C12.2325 6.08299 12.5449 6.39535 12.9302 6.39535H14.3595L15.5223 8.72095H6.41862C6.03331 8.72095 5.72095 9.03331 5.72095 9.41862C5.72095 9.80394 6.03331 10.1163 6.41862 10.1163H9.85057L7.68047 12.2864C7.06279 11.7874 6.2898 11.5116 5.48837 11.5116C4.5632 11.5116 3.67592 11.8791 3.02172 12.5333C2.36752 13.1875 2 14.0748 2 15C2 15.9251 2.36752 16.8124 3.02172 17.4666C3.67592 18.1208 4.5632 18.4883 5.48837 18.4883C6.41355 18.4883 7.30083 18.1208 7.95502 17.4666C8.60922 16.8124 8.97674 15.9251 8.97674 15C8.97674 14.6001 8.90807 14.2072 8.77726 13.8372H12.4651C12.6502 13.8372 12.8276 13.7637 12.9585 13.6329L16.305 10.2863L17.0729 11.8221C16.6938 11.9937 16.3449 12.2334 16.045 12.5333C15.3908 13.1875 15.0233 14.0748 15.0233 15C15.0233 15.9251 15.3908 16.8124 16.045 17.4666C16.6992 18.1208 17.5865 18.4883 18.5116 18.4883C19.4368 18.4883 20.3241 18.1208 20.9783 17.4666C21.6325 16.8124 22 15.9251 22 15C22 14.0748 21.6325 13.1875 20.9783 12.5333C20.3241 11.8791 19.4368 11.5116 18.5116 11.5116C18.5003 11.5116 18.489 11.5117 18.4778 11.5118L15.4147 5.38566C15.2965 5.1493 15.0549 5 14.7907 5H12.9302ZM11.8239 10.1163L9.49831 12.4419H12.1761L14.5017 10.1163H11.8239ZM4.00838 13.52C4.4009 13.1275 4.93327 12.9069 5.48837 12.9069C6.04348 12.9069 6.57585 13.1275 6.96836 13.52C7.36088 13.9125 7.5814 14.4449 7.5814 15C7.5814 15.5551 7.36088 16.0874 6.96836 16.48C6.57585 16.8725 6.04348 17.093 5.48837 17.093C4.93327 17.093 4.4009 16.8725 4.00838 16.48C3.61586 16.0874 3.39535 15.5551 3.39535 15C3.39535 14.4449 3.61586 13.9125 4.00838 13.52ZM17.0316 13.52C17.4242 13.1275 17.9565 12.9069 18.5116 12.9069C19.0667 12.9069 19.5991 13.1275 19.9916 13.52C20.3841 13.9125 20.6047 14.4449 20.6047 15C20.6047 15.5551 20.3841 16.0874 19.9916 16.48C19.5991 16.8725 19.0667 17.093 18.5116 17.093C17.9565 17.093 17.4242 16.8725 17.0316 16.48C16.6391 16.0874 16.4186 15.5551 16.4186 15C16.4186 14.4449 16.6391 13.9125 17.0316 13.52Z" fill="#646464"/>
</svg>
