<svg width="24" height="24" viewBox="0 0 24 24" fill="none" xmlns="http://www.w3.org/2000/svg">
<path d="M14.0571 6.61539H9.94286C9.51703 6.61539 9.17143 6.27077 9.17143 5.84615C9.17143 5.42154 9.51703 5.07692 9.94286 5.07692H14.0571C14.483 5.07692 14.8286 5.42154 14.8286 5.84615C14.8286 6.27077 14.483 6.61539 14.0571 6.61539ZM21 18.1538V5.84615C21 3.36615 19.6299 2 17.1429 2H6.85714C4.37006 2 3 3.36615 3 5.84615V18.1538C3 20.6338 4.37006 22 6.85714 22H17.1429C19.6299 22 21 20.6338 21 18.1538ZM17.1429 3.53846C18.7649 3.53846 19.4571 4.22872 19.4571 5.84615V18.1538C19.4571 19.7713 18.7649 20.4615 17.1429 20.4615H6.85714C5.23509 20.4615 4.54286 19.7713 4.54286 18.1538V5.84615C4.54286 4.22872 5.23509 3.53846 6.85714 3.53846H17.1429ZM12 17.1282C11.4322 17.1282 10.9714 17.5877 10.9714 18.1538C10.9714 18.72 11.4322 19.1795 12 19.1795C12.5678 19.1795 13.0286 18.72 13.0286 18.1538C13.0286 17.5877 12.5678 17.1282 12 17.1282Z" fill="#646464"/>
</svg>
