<svg width="24" height="24" viewBox="0 0 24 24" fill="none" xmlns="http://www.w3.org/2000/svg">
<path fill-rule="evenodd" clip-rule="evenodd" d="M14.8557 1.25C15.2699 1.25 15.6057 1.58579 15.6057 2V3.53172C15.6057 3.94594 15.2699 4.28172 14.8557 4.28172C14.4415 4.28172 14.1057 3.94594 14.1057 3.53172V2C14.1057 1.58579 14.4415 1.25 14.8557 1.25ZM9.16059 3.51183C9.45356 3.21901 9.92843 3.21914 10.2212 3.51211L11.3038 4.5952C11.5966 4.88817 11.5965 5.36304 11.3035 5.65586C11.0105 5.94867 10.5356 5.94855 10.2428 5.65558L9.16031 4.57249C8.86749 4.27952 8.86762 3.80464 9.16059 3.51183ZM20.489 3.51183C20.7819 3.80464 20.7821 4.27952 20.4893 4.57249L19.4067 5.65558C19.1139 5.94855 18.639 5.94868 18.3461 5.65586C18.0531 5.36304 18.053 4.88817 18.3458 4.5952L19.4283 3.51211C19.7211 3.21914 20.196 3.21901 20.489 3.51183ZM12.767 7.37601C13.1227 7.26038 13.5058 7.26038 13.8615 7.37601C14.1097 7.45671 14.305 7.59489 14.4706 7.73558C14.6245 7.86623 14.7947 8.0366 14.9808 8.22278L15.7705 9.01291C15.9566 9.19907 16.1269 9.36941 16.2574 9.52332C16.3981 9.68905 16.5361 9.88436 16.6167 10.1326C16.7322 10.4882 16.7322 10.8713 16.6167 11.227C16.5361 11.4752 16.3981 11.6705 16.2574 11.8362C16.1269 11.9901 15.9566 12.1604 15.7705 12.3466L13.3348 14.7836L6.30559 21.8165C6.11954 22.0027 5.94929 22.1731 5.79547 22.3037C5.62983 22.4444 5.43456 22.5826 5.18634 22.6633C4.83065 22.7789 4.4475 22.7789 4.09182 22.6633C3.8436 22.5826 3.64832 22.4444 3.48269 22.3037C3.32886 22.1731 3.15862 22.0027 2.97256 21.8165L2.95392 21.7979L2.18285 21.0264C1.99676 20.8402 1.82648 20.6699 1.69589 20.516C1.55527 20.3502 1.41723 20.1549 1.33662 19.9067C1.22113 19.5511 1.22113 19.168 1.33662 18.8123C1.41723 18.5641 1.55527 18.3688 1.69589 18.2031C1.82647 18.0492 1.99674 17.8788 2.18282 17.6927L11.6477 8.22279C11.8338 8.0366 12.004 7.86624 12.1579 7.73558C12.3235 7.59489 12.5188 7.45671 12.767 7.37601ZM9.74212 12.2513L3.26241 18.7344C3.05157 18.9454 2.92574 19.0721 2.83965 19.1735C2.78413 19.239 2.76654 19.2699 2.76258 19.2778C2.74581 19.331 2.74581 19.3881 2.76258 19.4412C2.76654 19.4492 2.78413 19.4801 2.83965 19.5455C2.92574 19.647 3.05157 19.7737 3.26241 19.9846L4.01486 20.7375C4.2257 20.9484 4.35235 21.0743 4.45375 21.1605C4.51901 21.2159 4.54989 21.2335 4.55781 21.2375C4.61071 21.2542 4.66745 21.2542 4.72035 21.2375C4.72828 21.2335 4.75916 21.2159 4.8244 21.1605C4.9258 21.0743 5.05246 20.9484 5.2633 20.7375L11.7436 14.2538L9.74212 12.2513ZM12.804 13.1928L10.8025 11.1903L12.69 9.30181C12.9009 9.09086 13.0275 8.96496 13.1289 8.87883C13.1942 8.82341 13.2251 8.80579 13.233 8.80181C13.2859 8.78512 13.3426 8.78512 13.3955 8.80181C13.4035 8.80579 13.4343 8.82341 13.4996 8.87883C13.601 8.96496 13.7276 9.09086 13.9385 9.30181L14.6909 10.0547C14.9018 10.2656 15.0276 10.3923 15.1137 10.4938C15.1692 10.5592 15.1868 10.5901 15.1908 10.598C15.2075 10.6512 15.2075 10.7083 15.1908 10.7615C15.1868 10.7694 15.1692 10.8003 15.1137 10.8657C15.0276 10.9672 14.9018 11.0939 14.6909 11.3049L12.804 13.1928ZM15.1917 10.7594C15.1917 10.7594 15.1913 10.7604 15.1908 10.7615L15.1917 10.7594ZM15.1917 10.6002C15.1917 10.6002 15.1911 10.5991 15.1908 10.598L15.1917 10.6002ZM13.3934 8.80084C13.3934 8.80082 13.3945 8.80129 13.3955 8.80181L13.3934 8.80084ZM13.2351 8.80084C13.2351 8.80088 13.234 8.8014 13.233 8.80181L13.2351 8.80084ZM4.71823 21.2384C4.71824 21.2384 4.7193 21.2379 4.72035 21.2375L4.71823 21.2384ZM4.55993 21.2384C4.55995 21.2385 4.55889 21.238 4.55781 21.2375L4.55993 21.2384ZM2.76163 19.4391C2.76166 19.4392 2.76218 19.4402 2.76258 19.4412L2.76163 19.4391ZM2.76163 19.2799C2.7616 19.2799 2.76206 19.2789 2.76258 19.2778L2.76163 19.2799ZM19.7191 9.14804C19.7191 8.73383 20.0549 8.39804 20.4691 8.39804H22C22.4142 8.39804 22.75 8.73383 22.75 9.14804C22.75 9.56225 22.4142 9.89804 22 9.89804H20.4691C20.0549 9.89804 19.7191 9.56225 19.7191 9.14804ZM18.3461 12.7022C18.639 12.4093 19.1139 12.4095 19.4067 12.7024L20.4893 13.7855C20.7821 14.0785 20.7819 14.5534 20.489 14.8462C20.196 15.139 19.7211 15.1389 19.4283 14.8459L18.3458 13.7628C18.053 13.4699 18.0531 12.995 18.3461 12.7022Z" fill="#646464"/>
</svg>
