<svg width="24" height="24" viewBox="0 0 24 24" fill="none" xmlns="http://www.w3.org/2000/svg">
<path d="M12 3.66693C14.2413 3.67427 16.3866 4.57443 17.9576 6.16683H15.346C14.884 6.16683 14.5095 6.5399 14.5095 7.00012C14.5095 7.46033 14.884 7.8334 15.346 7.8334H18.8117C19.6694 7.83294 20.3646 7.14038 20.3651 6.28596V2.8336C20.3651 2.37338 19.9906 2.00031 19.5286 2.00031C19.0666 2.00031 18.6921 2.37338 18.6921 2.8336V4.56521C14.5791 0.875238 8.24198 1.20538 4.53778 5.3026C3.08817 6.90606 2.19905 8.93422 2.00366 11.0833C1.96068 11.5447 2.30139 11.9535 2.76464 11.9963C2.78973 11.9986 2.81495 11.9998 2.8402 11.9999C3.26419 12.0053 3.62263 11.6883 3.66752 11.2683C4.05344 6.96906 7.66699 3.67259 12 3.66693Z" fill="#646464"/>
<path d="M21.1607 12.0001C20.7367 11.9947 20.3782 12.3117 20.3333 12.7317C19.9342 17.3102 15.8846 20.6995 11.2884 20.3018C9.29982 20.1297 7.4388 19.254 6.04236 17.8332H8.65397C9.11596 17.8332 9.49047 17.4601 9.49047 16.9999C9.49047 16.5397 9.11596 16.1666 8.65397 16.1666H5.18829C4.33081 16.1661 3.63536 16.8582 3.63489 17.7123C3.63489 17.7129 3.63489 17.7134 3.63489 17.714V21.1664C3.63489 21.6266 4.0094 21.9997 4.47139 21.9997C4.93338 21.9997 5.30789 21.6266 5.30789 21.1664V19.4348C9.42091 23.1248 15.758 22.7946 19.4622 18.6974C20.9118 17.0939 21.8009 15.0658 21.9963 12.9167C22.0393 12.4552 21.6986 12.0464 21.2354 12.0036C21.2105 12.0014 21.1856 12.0001 21.1607 12.0001Z" fill="#646464"/>
</svg>
