<svg width="24" height="24" viewBox="0 0 24 24" fill="none" xmlns="http://www.w3.org/2000/svg">
<path fill-rule="evenodd" clip-rule="evenodd" d="M21.5647 11.614C21.8737 10.02 21.7968 8.46901 21.3388 7.12801C21.2048 6.73601 20.7767 6.52503 20.3867 6.66103C19.9937 6.79503 19.7847 7.221 19.9187 7.613C20.2917 8.706 20.3528 9.99003 20.0918 11.328C19.1398 16.252 13.4048 19.449 11.9988 20.165C11.5008 19.912 10.4638 19.353 9.29079 18.527C8.95079 18.288 8.48175 18.371 8.24575 18.709C8.00775 19.048 8.08876 19.5161 8.42776 19.7541C10.1838 20.9901 11.6258 21.655 11.6868 21.683C11.7858 21.728 11.8928 21.751 11.9988 21.751C12.1048 21.751 12.2108 21.729 12.3098 21.684C12.6368 21.535 20.3357 17.97 21.5647 11.614Z" fill="#646464"/>
<path fill-rule="evenodd" clip-rule="evenodd" d="M2.52981 22.5301C2.38381 22.6761 2.19178 22.75 1.99978 22.75C1.80778 22.75 1.61575 22.6771 1.46975 22.5301C1.17675 22.2371 1.17675 21.762 1.46975 21.469L5.61184 17.327C3.89584 15.543 2.82376 13.624 2.43276 11.612C1.95576 9.14802 2.43479 6.74705 3.71279 5.18905C4.74779 3.92905 6.23479 3.25805 8.01479 3.24905H8.03384C10.0718 3.24905 11.3118 4.40803 11.9998 5.39303C12.6868 4.40803 13.9278 3.24905 15.9638 3.24905H15.9828C17.0958 3.25805 18.0718 3.52902 18.9108 4.02902L20.1897 2.75H19.0945H17.9995C17.5855 2.75 17.2495 2.414 17.2495 2C17.2495 1.586 17.5855 1.25 17.9995 1.25H21.9995C22.0975 1.25 22.1946 1.27011 22.2866 1.30811C22.4696 1.38411 22.6157 1.53011 22.6926 1.71411C22.7297 1.80511 22.7495 1.902 22.7495 2V6C22.7495 6.53516 22.4135 6.75 21.9995 6.75C21.5855 6.75 21.2495 6.414 21.2495 6V3.81033L2.52981 22.5301ZM17.8008 5.13802L6.6708 16.268C5.1708 14.701 4.23881 13.042 3.90481 11.329C3.51281 9.298 3.87373 7.36003 4.87173 6.14303C5.62473 5.22603 6.68378 4.758 8.02078 4.751H8.03274C10.4107 4.751 11.2538 7.13005 11.2868 7.22805C11.3898 7.53305 11.6748 7.73804 11.9958 7.73904H11.9998C12.3198 7.73904 12.6057 7.533 12.7097 7.23C12.7437 7.129 13.5868 4.75002 15.9608 4.75002H15.9728C16.6588 4.75502 17.2658 4.89302 17.8008 5.13802Z" fill="#646464"/>
</svg>
