<svg width="24" height="24" viewBox="0 0 24 24" fill="none" xmlns="http://www.w3.org/2000/svg">
<path fill-rule="evenodd" clip-rule="evenodd" d="M13.0215 2.04386C13.6313 1.94372 14.2567 2.01585 14.8278 2.25217C15.3989 2.48849 15.8931 2.87964 16.2548 3.38176C16.6166 3.88389 16.8316 4.47712 16.8758 5.09491C16.92 5.71271 16.7917 6.33064 16.5052 6.87939C16.2186 7.42815 15.7853 7.88602 15.2537 8.20166C14.7243 8.51597 14.1184 8.67686 13.5034 8.66651H4.81361C4.38982 8.66651 4.04626 8.3221 4.04626 7.89724C4.04626 7.47239 4.38982 7.12798 4.81361 7.12798H13.5102L13.5249 7.12812C13.8575 7.1345 14.1854 7.04785 14.4716 6.87789C14.7578 6.70793 14.9912 6.46138 15.1455 6.1659C15.2998 5.87042 15.3689 5.53769 15.3451 5.20503C15.3212 4.87237 15.2055 4.55293 15.0107 4.28256C14.8159 4.01219 14.5498 3.80156 14.2423 3.67432C13.9348 3.54707 13.598 3.50823 13.2697 3.56215C12.9414 3.61608 12.6345 3.76063 12.3836 3.9796C12.1327 4.19858 11.9476 4.48331 11.849 4.80186C11.7235 5.20765 11.2936 5.4346 10.8888 5.30876C10.484 5.18293 10.2577 4.75196 10.3832 4.34617C10.5662 3.75457 10.91 3.22579 11.376 2.81913C11.842 2.41246 12.4118 2.144 13.0215 2.04386Z" fill="#646464"/>
<path fill-rule="evenodd" clip-rule="evenodd" d="M19.5873 13.0194C19.301 12.8494 18.9732 12.7628 18.6406 12.7691L18.6259 12.7693H2.76735C2.34355 12.7693 2 12.4249 2 12C2 11.5752 2.34355 11.2308 2.76735 11.2308H18.619C19.2341 11.2204 19.84 11.3813 20.3693 11.6956C20.9009 12.0112 21.3343 12.4691 21.6208 13.0179C21.9073 13.5666 22.0357 14.1846 21.9915 14.8024C21.9473 15.4202 21.7322 16.0134 21.3705 16.5155C21.0087 17.0176 20.5146 17.4088 19.9435 17.6451C19.3724 17.8814 18.7469 17.9536 18.1372 17.8534C17.5275 17.7533 16.9577 17.4848 16.4916 17.0781C16.0256 16.6715 15.6818 16.1427 15.4988 15.5511C15.3733 15.1453 15.5997 14.7143 16.0045 14.5885C16.4093 14.4627 16.8392 14.6896 16.9647 15.0954C17.0632 15.414 17.2483 15.6987 17.4993 15.9177C17.7502 16.1366 18.057 16.2812 18.3853 16.3351C18.7136 16.389 19.0504 16.3502 19.358 16.2229C19.6655 16.0957 19.9315 15.8851 20.1263 15.6147C20.3211 15.3443 20.4369 15.0249 20.4607 14.6922C20.4845 14.3596 20.4154 14.0268 20.2611 13.7314C20.1068 13.4359 19.8735 13.1893 19.5873 13.0194Z" fill="#646464"/>
<path fill-rule="evenodd" clip-rule="evenodd" d="M10.3791 17.1221C10.0928 16.9521 9.76501 16.8655 9.43238 16.8719L9.4177 16.872H3.79048C3.36669 16.872 3.02313 16.5276 3.02313 16.1027C3.02313 15.6779 3.36669 15.3335 3.79048 15.3335H9.41084C10.0259 15.3231 10.6318 15.484 11.1612 15.7983C11.6927 16.114 12.1261 16.5718 12.4126 17.1206C12.6992 17.6693 12.8275 18.2873 12.7833 18.9051C12.7391 19.5229 12.524 20.1161 12.1623 20.6182C11.8006 21.1203 11.3064 21.5115 10.7353 21.7478C10.1642 21.9841 9.53873 22.0563 8.92902 21.9561C8.3193 21.856 7.74948 21.5875 7.28346 21.1809C6.81744 20.7742 6.47365 20.2454 6.29066 19.6538C6.16514 19.248 6.39152 18.8171 6.7963 18.6912C7.20108 18.5654 7.63097 18.7923 7.75649 19.1981C7.85503 19.5167 8.04015 19.8014 8.29108 20.0204C8.54202 20.2394 8.84884 20.3839 9.17715 20.4378C9.50545 20.4918 9.84225 20.4529 10.1498 20.3257C10.4573 20.1984 10.7234 19.9878 10.9181 19.7174C11.1129 19.4471 11.2287 19.1276 11.2525 18.795C11.2763 18.4623 11.2072 18.1296 11.0529 17.8341C10.8987 17.5386 10.6653 17.2921 10.3791 17.1221Z" fill="#646464"/>
</svg>
