<svg width="24" height="24" viewBox="0 0 24 24" fill="none" xmlns="http://www.w3.org/2000/svg">
<path fill-rule="evenodd" clip-rule="evenodd" d="M12.3117 2.28465C12.285 2.28591 12.2587 2.28857 12.2328 2.29256C11.0856 2.41335 9.97804 2.78929 8.99304 3.39512C7.87568 4.08235 6.95297 5.04267 6.31286 6.18521C5.70354 7.27281 5.36965 8.49102 5.33894 9.7344L3.39148 13.4594C3.38273 13.4762 3.37461 13.4932 3.36715 13.5106C3.22156 13.8491 3.21128 14.2303 3.33849 14.5762C3.46566 14.922 3.72026 15.2053 4.0492 15.3694C4.05705 15.3733 4.06496 15.3771 4.07294 15.3807L6.03228 16.2737V18.9231C6.03228 19.3068 6.18548 19.674 6.45699 19.9442C6.72839 20.2143 7.0957 20.3654 7.47795 20.3654H11.652C12.0662 20.3654 12.402 20.0296 12.402 19.6154C12.402 19.2012 12.0662 18.8654 11.652 18.8654H7.53228V15.7913C7.53228 15.4974 7.36068 15.2306 7.0933 15.1088L4.77433 14.052L6.75126 10.2706C6.80733 10.1633 6.83661 10.0441 6.83661 9.92308C6.83661 8.87152 7.1067 7.83722 7.62149 6.91836C8.13628 5.99948 8.8788 5.22638 9.77887 4.6728C10.343 4.3258 10.9573 4.07231 11.5977 3.91977V5.15394C10.7864 5.45651 10.2064 6.23583 10.2064 7.15385C10.2064 8.33618 11.1685 9.28846 12.3477 9.28846C13.5269 9.28846 14.489 8.33618 14.489 7.15385C14.489 6.23583 13.909 5.45651 13.0977 5.15394V3.75024C14.042 3.75846 14.9734 3.98093 15.8203 4.40236C16.7668 4.87333 17.5763 5.57706 18.172 6.44635C18.4592 6.86548 18.6922 7.31642 18.8671 7.78846H17.2172C16.9953 7.78846 16.7847 7.88677 16.6422 8.05694L14.4477 10.6775C14.2257 10.5999 13.9872 10.5577 13.739 10.5577C12.5598 10.5577 11.5977 11.51 11.5977 12.6923C11.5977 13.8746 12.5598 14.8269 13.739 14.8269C14.9182 14.8269 15.8804 13.8746 15.8804 12.6923C15.8804 12.3079 15.7787 11.9478 15.6008 11.6368L17.5674 9.28846H19.2171C19.2199 9.31529 19.2225 9.34214 19.2249 9.36903C19.3198 10.4164 19.1442 11.4705 18.7144 12.4316C18.2847 13.3926 17.6151 14.2288 16.7687 14.8605C16.5524 15.0219 16.4395 15.2872 16.4732 15.555L17.1688 21.0935C17.2205 21.5045 17.5955 21.7958 18.0065 21.7442C18.4174 21.6925 18.7088 21.3175 18.6571 20.9065L18.0141 15.7868C18.9014 15.0411 19.6098 14.1039 20.0838 13.0439C20.6183 11.8486 20.8369 10.537 20.7188 9.23367C20.6007 7.93037 20.1499 6.67901 19.4093 5.5984C18.6688 4.51781 17.6633 3.64395 16.4885 3.05942C15.3138 2.47491 14.0087 2.19902 12.6971 2.25775C12.5682 2.26352 12.4397 2.2725 12.3117 2.28465ZM14.1372 12.1947C14.1407 12.1977 14.1442 12.2008 14.1478 12.2038C14.1531 12.2082 14.1584 12.2125 14.1637 12.2167C14.297 12.3336 14.3804 12.5042 14.3804 12.6923C14.3804 13.0394 14.0967 13.3269 13.739 13.3269C13.3814 13.3269 13.0977 13.0394 13.0977 12.6923C13.0977 12.3452 13.3814 12.0577 13.739 12.0577C13.8903 12.0577 14.0283 12.1091 14.1372 12.1947ZM12.3477 6.51923C11.9901 6.51923 11.7064 6.80678 11.7064 7.15385C11.7064 7.50091 11.9901 7.78846 12.3477 7.78846C12.7053 7.78846 12.989 7.50091 12.989 7.15385C12.989 6.80678 12.7053 6.51923 12.3477 6.51923Z" fill="#646464"/>
</svg>
