<svg width="24" height="24" viewBox="0 0 24 24" fill="none" xmlns="http://www.w3.org/2000/svg">
<path fill-rule="evenodd" clip-rule="evenodd" d="M4.60973 14.8423C5.08947 14.3626 5.74014 14.0931 6.41861 14.0931C7.09707 14.0931 7.74774 14.3626 8.22748 14.8423C8.70723 15.3221 8.97674 15.9728 8.97674 16.6512C8.97674 17.3297 8.70723 17.9804 8.22748 18.4601C7.74774 18.9398 7.09707 19.2094 6.41861 19.2094C5.74014 19.2094 5.08947 18.9398 4.60973 18.4601C4.12998 17.9804 3.86047 17.3297 3.86047 16.6512C3.86047 15.9728 4.12998 15.3221 4.60973 14.8423ZM6.41861 15.4884C6.11021 15.4884 5.81445 15.6109 5.59639 15.829C5.37832 16.0471 5.25581 16.3428 5.25581 16.6512C5.25581 16.9596 5.37832 17.2554 5.59639 17.4734C5.81445 17.6915 6.11021 17.814 6.41861 17.814C6.727 17.814 7.02276 17.6915 7.24082 17.4734C7.45889 17.2554 7.5814 16.9596 7.5814 16.6512C7.5814 16.3428 7.45889 16.0471 7.24082 15.829C7.02276 15.6109 6.727 15.4884 6.41861 15.4884Z" fill="#646464"/>
<path fill-rule="evenodd" clip-rule="evenodd" d="M15.7725 14.8423C16.2523 14.3626 16.9029 14.0931 17.5814 14.0931C18.2599 14.0931 18.9105 14.3626 19.3903 14.8423C19.87 15.3221 20.1395 15.9728 20.1395 16.6512C20.1395 17.3297 19.87 17.9804 19.3903 18.4601C18.9105 18.9398 18.2599 19.2094 17.5814 19.2094C16.9029 19.2094 16.2523 18.9398 15.7725 18.4601C15.2928 17.9804 15.0233 17.3297 15.0233 16.6512C15.0233 15.9728 15.2928 15.3221 15.7725 14.8423ZM17.5814 15.4884C17.273 15.4884 16.9772 15.6109 16.7592 15.829C16.5411 16.0471 16.4186 16.3428 16.4186 16.6512C16.4186 16.9596 16.5411 17.2554 16.7592 17.4734C16.9772 17.6915 17.273 17.814 17.5814 17.814C17.8898 17.814 18.1855 17.6915 18.4036 17.4734C18.6217 17.2554 18.7442 16.9596 18.7442 16.6512C18.7442 16.3428 18.6217 16.0471 18.4036 15.829C18.1855 15.6109 17.8898 15.4884 17.5814 15.4884Z" fill="#646464"/>
<path fill-rule="evenodd" clip-rule="evenodd" d="M3.62791 6.18612C3.56623 6.18612 3.50708 6.21062 3.46346 6.25424C3.41985 6.29785 3.39535 6.357 3.39535 6.41868V15.9536H4.55814C4.94345 15.9536 5.25581 16.2659 5.25581 16.6512C5.25581 17.0366 4.94345 17.3489 4.55814 17.3489H2.69767C2.31236 17.3489 2 17.0366 2 16.6512V6.41868C2 5.98693 2.17151 5.57287 2.4768 5.26757C2.78209 4.96228 3.19616 4.79077 3.62791 4.79077H16.6512C18.16 4.79077 19.5366 5.63046 20.5078 6.99014C21.4768 8.34686 22 10.1504 22 12.0001V16.6512C22 17.0366 21.6876 17.3489 21.3023 17.3489H19.4419C19.0565 17.3489 18.7442 17.0366 18.7442 16.6512C18.7442 16.2659 19.0565 15.9536 19.4419 15.9536H20.6046V12.0001C20.6046 10.3958 20.1477 8.88678 19.3723 7.80117C18.599 6.71852 17.6094 6.18612 16.6512 6.18612H3.62791ZM7.58139 16.6512C7.58139 16.2659 7.89375 15.9536 8.27907 15.9536H15.7209C16.1062 15.9536 16.4186 16.2659 16.4186 16.6512C16.4186 17.0366 16.1062 17.3489 15.7209 17.3489H8.27907C7.89375 17.3489 7.58139 17.0366 7.58139 16.6512Z" fill="#646464"/>
<path fill-rule="evenodd" clip-rule="evenodd" d="M15.5747 4.80622C15.9515 4.72548 16.3224 4.96546 16.4031 5.34222L17.6803 11.3024H21.3023C21.6876 11.3024 22 11.6147 22 12C22 12.3853 21.6876 12.6977 21.3023 12.6977H17.1163C16.7873 12.6977 16.503 12.4679 16.4341 12.1462L15.0387 5.63459C14.958 5.25783 15.198 4.88695 15.5747 4.80622Z" fill="#646464"/>
<path fill-rule="evenodd" clip-rule="evenodd" d="M2 10.1396C2 9.75432 2.31236 9.44196 2.69767 9.44196H16.6512C17.0365 9.44196 17.3488 9.75432 17.3488 10.1396C17.3488 10.5249 17.0365 10.8373 16.6512 10.8373H2.69767C2.31236 10.8373 2 10.5249 2 10.1396Z" fill="#646464"/>
<path fill-rule="evenodd" clip-rule="evenodd" d="M7.34884 4.79077C7.73415 4.79077 8.04651 5.10313 8.04651 5.48845V10.1396C8.04651 10.5249 7.73415 10.8373 7.34884 10.8373C6.96352 10.8373 6.65116 10.5249 6.65116 10.1396V5.48845C6.65116 5.10313 6.96352 4.79077 7.34884 4.79077Z" fill="#646464"/>
<path fill-rule="evenodd" clip-rule="evenodd" d="M12 4.79077C12.3853 4.79077 12.6977 5.10313 12.6977 5.48845V10.1396C12.6977 10.5249 12.3853 10.8373 12 10.8373C11.6147 10.8373 11.3023 10.5249 11.3023 10.1396V5.48845C11.3023 5.10313 11.6147 4.79077 12 4.79077Z" fill="#646464"/>
</svg>
