<svg width="24" height="24" viewBox="0 0 24 24" fill="none" xmlns="http://www.w3.org/2000/svg">
<path d="M18.2827 7.8595L19.2441 6.90259C19.5459 6.60208 19.5459 6.11487 19.2441 5.81435C18.9422 5.51384 18.4528 5.51384 18.1509 5.81435L17.1432 6.81746C15.7132 5.73028 13.9339 5.07692 12 5.07692C7.31315 5.07692 3.5 8.87282 3.5 13.5385C3.5 18.2041 7.31315 22 12 22C16.6868 22 20.5 18.2041 20.5 13.5385C20.5 11.3518 19.655 9.36309 18.2827 7.8595ZM12 20.4615C8.16521 20.4615 5.04545 17.3559 5.04545 13.5385C5.04545 9.72103 8.16521 6.61539 12 6.61539C15.8348 6.61539 18.9545 9.72103 18.9545 13.5385C18.9545 17.3559 15.8348 20.4615 12 20.4615ZM8.65152 2.76923C8.65152 2.34462 8.9977 2 9.42424 2H14.5758C15.0023 2 15.3485 2.34462 15.3485 2.76923C15.3485 3.19385 15.0023 3.53846 14.5758 3.53846H9.42424C8.9977 3.53846 8.65152 3.19385 8.65152 2.76923Z" fill="#646464"/>
</svg>
