<svg width="24" height="24" viewBox="0 0 24 24" fill="none" xmlns="http://www.w3.org/2000/svg">
<path d="M15.927 8.52002L19.606 3.46094C19.772 3.23294 19.796 2.93093 19.668 2.67993C19.54 2.42893 19.282 2.27002 19 2.27002H8C5.582 2.27002 4.25 3.60202 4.25 6.02002V20.978C4.25 21.392 4.586 21.728 5 21.728C5.414 21.728 5.75 21.392 5.75 20.978V14.77H19C19.282 14.77 19.541 14.6121 19.668 14.3601C19.795 14.1081 19.772 13.8071 19.606 13.5791L15.927 8.52002ZM5.75 13.27V6.02002C5.75 4.44302 6.423 3.77002 8 3.77002H17.527L14.393 8.0791C14.202 8.3421 14.202 8.69794 14.393 8.96094L17.527 13.27H5.75Z" fill="#646464"/>
</svg>
