<svg width="24" height="24" viewBox="0 0 24 24" fill="none" xmlns="http://www.w3.org/2000/svg">
<path fill-rule="evenodd" clip-rule="evenodd" d="M15.4286 2C15.1641 2 14.9144 2.12212 14.752 2.33091L7.34809 11.8502L6.32038 10.8225C5.98564 10.4877 5.44293 10.4877 5.10819 10.8225C4.77346 11.1572 4.77346 11.6999 5.10819 12.0347L6.21639 13.1429L2.25105 17.1082C1.91632 17.4429 1.91632 17.9856 2.25105 18.3204L5.67962 21.749C6.01436 22.0837 6.55707 22.0837 6.89181 21.749L10.8571 17.7836L11.9653 18.8918C12.3001 19.2265 12.8428 19.2265 13.1775 18.8918C13.5123 18.5571 13.5123 18.0144 13.1775 17.6796L12.1498 16.6519L21.6691 9.24802C21.8779 9.08563 22 8.83594 22 8.57143V2.85714C22 2.38376 21.6162 2 21.1429 2H15.4286ZM10.9282 15.4303L20.2857 8.15221V3.71429H15.8478L8.56971 13.0718L10.9282 15.4303ZM7.42857 14.355L4.06933 17.7143L6.28571 19.9307L9.64496 16.5714L7.42857 14.355Z" fill="#646464"/>
</svg>
