<svg width="24" height="24" viewBox="0 0 24 24" fill="none" xmlns="http://www.w3.org/2000/svg">
<path d="M10.4687 10.7179C12.8761 10.7179 14.8336 8.76205 14.8336 6.35897C14.8336 3.9559 12.8761 2 10.4687 2C8.06139 2 6.10387 3.9559 6.10387 6.35897C6.10387 8.76205 8.06139 10.7179 10.4687 10.7179ZM10.4687 3.53846C12.0267 3.53846 13.2931 4.80308 13.2931 6.35897C13.2931 7.91487 12.0267 9.17949 10.4687 9.17949C8.91074 9.17949 7.64441 7.91487 7.64441 6.35897C7.64441 4.80308 8.91074 3.53846 10.4687 3.53846ZM4.04054 18.1744C4.04054 19.7775 4.73173 20.4615 6.35135 20.4615H13.5405C13.9657 20.4615 14.3108 20.8062 14.3108 21.2308C14.3108 21.6554 13.9657 22 13.5405 22H6.35135C3.868 22 2.5 20.641 2.5 18.1744C2.5 15.4441 4.0467 12.2564 8.40541 12.2564H12.5135C14.0633 12.2564 15.3512 12.6585 16.3433 13.4513C16.675 13.717 16.7294 14.2 16.4634 14.5323C16.1974 14.8646 15.7127 14.917 15.38 14.6524C14.6693 14.0842 13.7038 13.7959 12.5135 13.7959H8.40541C4.35584 13.7948 4.04054 17.1477 4.04054 18.1744ZM21.5 19.1795C21.5 19.6041 21.1549 19.9487 20.7297 19.9487H19.4459V21.2308C19.4459 21.6554 19.1009 22 18.6757 22C18.2505 22 17.9054 21.6554 17.9054 21.2308V19.9487H16.6216C16.1964 19.9487 15.8514 19.6041 15.8514 19.1795C15.8514 18.7549 16.1964 18.4103 16.6216 18.4103H17.9054V17.1282C17.9054 16.7036 18.2505 16.359 18.6757 16.359C19.1009 16.359 19.4459 16.7036 19.4459 17.1282V18.4103H20.7297C21.1549 18.4103 21.5 18.7549 21.5 19.1795Z" fill="#646464"/>
</svg>
