<svg width="24" height="24" viewBox="0 0 24 24" fill="none" xmlns="http://www.w3.org/2000/svg">
<path d="M11.2635 20.1775C11.3104 20.5795 11.0233 20.9424 10.6223 20.9902C10.4272 21.0136 10.2439 21.0244 10.0488 21.0244C5.61073 21.0244 2 17.4137 2 12.9756C2 8.53756 5.61073 4.92683 10.0488 4.92683C11.8527 4.92683 13.5445 5.54439 14.9133 6.5883L15.8731 5.62829C16.159 5.34243 16.6224 5.34243 16.9083 5.62829C17.1942 5.91414 17.1942 6.37759 16.9083 6.66344L15.9882 7.58344C16.6926 8.36002 17.2674 9.26434 17.6274 10.2946C17.761 10.6761 17.5601 11.0937 17.1786 11.2273C16.7933 11.3581 16.3805 11.1591 16.2459 10.7786C15.3269 8.15419 12.8361 6.39024 10.0488 6.39024C6.41756 6.39024 3.46341 9.34439 3.46341 12.9756C3.46341 16.6068 6.41756 19.561 10.0488 19.561C10.1854 19.561 10.3143 19.5531 10.4508 19.5375C10.8508 19.4809 11.2167 19.7765 11.2635 20.1775ZM9.31707 9.56098V12.9756C9.31707 13.3795 9.64488 13.7073 10.0488 13.7073C10.4527 13.7073 10.7805 13.3795 10.7805 12.9756V9.56098C10.7805 9.15707 10.4527 8.82927 10.0488 8.82927C9.64488 8.82927 9.31707 9.15707 9.31707 9.56098ZM7.60976 3.46341H12.4878C12.8917 3.46341 13.2195 3.13561 13.2195 2.73171C13.2195 2.3278 12.8917 2 12.4878 2H7.60976C7.20585 2 6.87805 2.3278 6.87805 2.73171C6.87805 3.13561 7.20585 3.46341 7.60976 3.46341ZM22 16.3902V18.3415C22 20.7005 20.7005 22 18.3415 22H16.3902C14.0312 22 12.7317 20.7005 12.7317 18.3415V16.3902C12.7317 14.0312 14.0312 12.7317 16.3902 12.7317H18.3415C20.7005 12.7317 22 14.0312 22 16.3902ZM20.5366 16.3902C20.5366 14.8517 19.88 14.1951 18.3415 14.1951H16.3902C14.8517 14.1951 14.1951 14.8517 14.1951 16.3902V18.3415C14.1951 19.88 14.8517 20.5366 16.3902 20.5366H18.3415C19.88 20.5366 20.5366 19.88 20.5366 18.3415V16.3902ZM18.5854 16.6341H18.0976V16.1463C18.0976 15.7424 17.7698 15.4146 17.3659 15.4146C16.962 15.4146 16.6341 15.7424 16.6341 16.1463V16.6341H16.1463C15.7424 16.6341 15.4146 16.962 15.4146 17.3659C15.4146 17.7698 15.7424 18.0976 16.1463 18.0976H16.6341V18.5854C16.6341 18.9893 16.962 19.3171 17.3659 19.3171C17.7698 19.3171 18.0976 18.9893 18.0976 18.5854V18.0976H18.5854C18.9893 18.0976 19.3171 17.7698 19.3171 17.3659C19.3171 16.962 18.9893 16.6341 18.5854 16.6341Z" fill="#646464"/>
</svg>
