<svg width="24" height="24" viewBox="0 0 24 24" fill="none" xmlns="http://www.w3.org/2000/svg">
<path d="M21.2308 10.7143H22V6.85714C22 4.37006 20.6338 3 18.1538 3H5.84615C3.36615 3 2 4.37006 2 6.85714V10.7143H2.76923C3.4759 10.7143 4.05128 11.2913 4.05128 12C4.05128 12.7087 3.4759 13.2857 2.76923 13.2857H2V17.1429C2 19.6299 3.36615 21 5.84615 21H18.1538C20.6338 21 22 19.6299 22 17.1429V13.2857H21.2308C20.5241 13.2857 19.9487 12.7087 19.9487 12C19.9487 11.2913 20.5241 10.7143 21.2308 10.7143ZM20.4615 14.7216V17.1429C20.4615 18.7649 19.7713 19.4571 18.1538 19.4571H15.8462V16.6286C15.8462 16.2027 15.5015 15.8571 15.0769 15.8571C14.6523 15.8571 14.3077 16.2027 14.3077 16.6286V19.4571H5.84615C4.22872 19.4571 3.53846 18.7649 3.53846 17.1429V14.7216C4.72103 14.3853 5.58974 13.2929 5.58974 12C5.58974 10.7071 4.72103 9.61475 3.53846 9.2784V6.85714C3.53846 5.23509 4.22872 4.54286 5.84615 4.54286H14.3077V7.37143C14.3077 7.79726 14.6523 8.14286 15.0769 8.14286C15.5015 8.14286 15.8462 7.79726 15.8462 7.37143V4.54286H18.1538C19.7713 4.54286 20.4615 5.23509 20.4615 6.85714V9.2784C19.279 9.61475 18.4103 10.7071 18.4103 12C18.4103 13.2929 19.279 14.3853 20.4615 14.7216ZM15.8462 10.7143V13.2857C15.8462 13.7115 15.5015 14.0571 15.0769 14.0571C14.6523 14.0571 14.3077 13.7115 14.3077 13.2857V10.7143C14.3077 10.2885 14.6523 9.94286 15.0769 9.94286C15.5015 9.94286 15.8462 10.2885 15.8462 10.7143Z" fill="#646464"/>
</svg>
