<svg width="24" height="24" viewBox="0 0 24 24" fill="none" xmlns="http://www.w3.org/2000/svg">
<path fill-rule="evenodd" clip-rule="evenodd" d="M3.79487 5.58973C3.72687 5.58973 3.66165 5.61675 3.61356 5.66483C3.56548 5.71292 3.53846 5.77814 3.53846 5.84614V16.359H4.1582C4.28833 15.8999 4.53402 15.4772 4.87739 15.1338C5.40634 14.6048 6.12375 14.3077 6.87179 14.3077C7.61984 14.3077 8.33725 14.6048 8.8662 15.1338C9.20956 15.4772 9.45526 15.8999 9.58539 16.359H12.2564V5.58973H3.79487ZM2.76923 17.8974H4.1582C4.28833 18.3564 4.53403 18.7792 4.87739 19.1226C5.40634 19.6515 6.12375 19.9487 6.87179 19.9487C7.61984 19.9487 8.33725 19.6515 8.8662 19.1226C9.20956 18.7792 9.45526 18.3564 9.58539 17.8974H14.4146C14.5447 18.3564 14.7904 18.7792 15.1338 19.1226C15.6628 19.6515 16.3802 19.9487 17.1282 19.9487C17.8763 19.9487 18.5937 19.6515 19.1226 19.1226C19.466 18.7792 19.7117 18.3564 19.8418 17.8974H21.2308C21.6556 17.8974 22 17.553 22 17.1282V10.9743C22 10.8349 21.9621 10.6981 21.8904 10.5786L18.8135 5.45038C18.6744 5.21868 18.424 5.07691 18.1538 5.07691H13.7949V4.8205C13.7949 4.39567 13.4505 4.05127 13.0256 4.05127H3.79487C3.31884 4.05127 2.86231 4.24037 2.52571 4.57698C2.1891 4.91358 2 5.37011 2 5.84614V17.1282C2 17.553 2.3444 17.8974 2.76923 17.8974ZM13.7949 16.359H14.4146C14.5447 15.8999 14.7904 15.4772 15.1338 15.1338C15.6628 14.6048 16.3802 14.3077 17.1282 14.3077C17.8763 14.3077 18.5937 14.6048 19.1226 15.1338C19.466 15.4772 19.7117 15.8999 19.8418 16.359H20.4615V11.7436H13.7949V16.359ZM16.2217 18.0347C15.9812 17.7943 15.8462 17.4682 15.8462 17.1282C15.8462 16.7882 15.9812 16.4621 16.2217 16.2216C16.4621 15.9812 16.7882 15.8461 17.1282 15.8461C17.4682 15.8461 17.7943 15.9812 18.0348 16.2216C18.2752 16.4621 18.4103 16.7882 18.4103 17.1282C18.4103 17.4682 18.2752 17.7943 18.0348 18.0347C17.7943 18.2752 17.4682 18.4102 17.1282 18.4102C16.7882 18.4102 16.4621 18.2752 16.2217 18.0347ZM5.96525 18.0347C5.72482 17.7943 5.58974 17.4682 5.58974 17.1282C5.58974 16.7882 5.72482 16.4621 5.96525 16.2216C6.20568 15.9812 6.53177 15.8461 6.87179 15.8461C7.21182 15.8461 7.53791 15.9812 7.77834 16.2216C8.01877 16.4621 8.15385 16.7882 8.15385 17.1282C8.15385 17.4682 8.01877 17.7943 7.77834 18.0347C7.53791 18.2752 7.21182 18.4102 6.87179 18.4102C6.53177 18.4102 6.20568 18.2752 5.96525 18.0347ZM13.7949 6.61537V10.2051H19.8722L17.7183 6.61537H13.7949ZM8.66667 7.89742C8.66667 7.47259 8.32227 7.12819 7.89744 7.12819C7.4726 7.12819 7.12821 7.47259 7.12821 7.89742V9.17947H5.84615C5.42132 9.17947 5.07692 9.52387 5.07692 9.94871C5.07692 10.3735 5.42132 10.7179 5.84615 10.7179H7.12821V12C7.12821 12.4248 7.4726 12.7692 7.89744 12.7692C8.32227 12.7692 8.66667 12.4248 8.66667 12V10.7179H9.94872C10.3736 10.7179 10.7179 10.3735 10.7179 9.94871C10.7179 9.52387 10.3736 9.17947 9.94872 9.17947H8.66667V7.89742Z" fill="#646464"/>
</svg>
