<svg width="24" height="24" viewBox="0 0 24 24" fill="none" xmlns="http://www.w3.org/2000/svg">
<path d="M17.8355 2H13.6709C13.45 2 13.2382 2.08775 13.082 2.24395C12.9258 2.40015 12.838 2.61201 12.838 2.83291C12.838 3.05381 12.9258 3.26566 13.082 3.42186C13.2382 3.57806 13.45 3.66581 13.6709 3.66581H17.8355C18.2065 3.66725 18.5724 3.75268 18.9058 3.91569L2.25428 20.568C2.17473 20.6448 2.11127 20.7367 2.06762 20.8384C2.02397 20.94 2.00099 21.0493 2.00003 21.1599C1.99907 21.2704 2.02014 21.3801 2.06202 21.4825C2.1039 21.5848 2.16575 21.6778 2.24395 21.756C2.32216 21.8342 2.41515 21.8961 2.51751 21.938C2.61987 21.9799 2.72955 22.0009 2.84014 22C2.95074 21.999 3.06003 21.976 3.16165 21.9324C3.26327 21.8887 3.35517 21.8253 3.43201 21.7457L20.0843 5.09425C20.2473 5.42758 20.3328 5.79349 20.3342 6.16453V10.3291C20.3342 10.55 20.4219 10.7618 20.5781 10.918C20.7343 11.0742 20.9462 11.162 21.1671 11.162C21.388 11.162 21.5998 11.0742 21.756 10.918C21.9122 10.7618 22 10.55 22 10.3291V6.16453C21.9987 5.06044 21.5595 4.00194 20.7788 3.22122C19.9981 2.44051 18.9396 2.00132 17.8355 2V2Z" fill="#646464"/>
<path d="M7.00759 10.3291C7.66653 10.3291 8.31066 10.1338 8.85854 9.76767C9.40643 9.40158 9.83345 8.88126 10.0856 8.27248C10.3378 7.66371 10.4038 6.99383 10.2752 6.34755C10.1467 5.70128 9.82934 5.10764 9.36341 4.64171C8.89747 4.17577 8.30383 3.85846 7.65756 3.72991C7.01129 3.60136 6.34141 3.66734 5.73263 3.9195C5.12386 4.17166 4.60353 4.59869 4.23744 5.14657C3.87136 5.69445 3.67596 6.33859 3.67596 6.99752C3.67596 7.88112 4.02697 8.72854 4.65178 9.35334C5.27658 9.97814 6.12399 10.3291 7.00759 10.3291ZM7.00759 5.33171C7.33706 5.33171 7.65913 5.42941 7.93307 5.61245C8.20701 5.79549 8.42052 6.05566 8.5466 6.36004C8.67268 6.66443 8.70567 6.99937 8.6414 7.32251C8.57712 7.64564 8.41847 7.94246 8.1855 8.17543C7.95253 8.4084 7.65571 8.56705 7.33258 8.63133C7.00944 8.6956 6.6745 8.66261 6.37011 8.53653C6.06572 8.41045 5.80556 8.19694 5.62252 7.923C5.43948 7.64906 5.34178 7.32699 5.34178 6.99752C5.34178 6.55572 5.51728 6.13201 5.82968 5.81961C6.14208 5.50721 6.56579 5.33171 7.00759 5.33171Z" fill="#646464"/>
<path d="M17.0026 13.6608C16.3437 13.6608 15.6996 13.8562 15.1517 14.2222C14.6038 14.5883 14.1768 15.1087 13.9246 15.7174C13.6725 16.3262 13.6065 16.9961 13.735 17.6424C13.8636 18.2886 14.1809 18.8823 14.6468 19.3482C15.1128 19.8141 15.7064 20.1315 16.3527 20.26C16.999 20.3886 17.6688 20.3226 18.2776 20.0704C18.8864 19.8183 19.4067 19.3912 19.7728 18.8433C20.1389 18.2955 20.3343 17.6513 20.3343 16.9924C20.3343 16.1088 19.9833 15.2614 19.3585 14.6366C18.7337 14.0118 17.8863 13.6608 17.0026 13.6608ZM17.0026 18.6582C16.6732 18.6582 16.3511 18.5605 16.0772 18.3775C15.8032 18.1944 15.5897 17.9343 15.4636 17.6299C15.3376 17.3255 15.3046 16.9905 15.3688 16.6674C15.4331 16.3443 15.5918 16.0475 15.8247 15.8145C16.0577 15.5815 16.3545 15.4229 16.6777 15.3586C17.0008 15.2943 17.3357 15.3273 17.6401 15.4534C17.9445 15.5795 18.2047 15.793 18.3877 16.0669C18.5708 16.3409 18.6685 16.6629 18.6685 16.9924C18.6685 17.4342 18.493 17.8579 18.1806 18.1703C17.8682 18.4827 17.4445 18.6582 17.0026 18.6582Z" fill="#646464"/>
</svg>
