<svg width="24" height="24" viewBox="0 0 24 24" fill="none" xmlns="http://www.w3.org/2000/svg">
<path d="M20.03 8.47L14.03 2.47C13.889 2.329 13.699 2.25 13.5 2.25H7.5C5.082 2.25 3.75 3.582 3.75 6V18C3.75 20.418 5.082 21.75 7.5 21.75H16.5C18.918 21.75 20.25 20.418 20.25 18V9C20.25 8.801 20.171 8.61 20.03 8.47ZM14.25 4.811L17.689 8.25H16.5C14.923 8.25 14.25 7.577 14.25 6V4.811ZM16.5 20.25H7.5C5.923 20.25 5.25 19.577 5.25 18V6C5.25 4.423 5.923 3.75 7.5 3.75H12.75V6C12.75 8.418 14.082 9.75 16.5 9.75H18.75V18C18.75 19.577 18.077 20.25 16.5 20.25Z" fill="#646464"/>
<path d="M9.30134 14.2992C9.30134 14.0555 9.10465 13.8579 8.86199 13.8579L7.87149 13.8578V12.8996H8.97587C9.2185 12.8996 9.41522 12.702 9.41522 12.4583C9.41522 12.2146 9.21853 12.0169 8.97587 12.0169H7.42934C7.18671 12.0169 6.98999 12.2145 6.98999 12.4583V16.1401C6.98999 16.3838 7.18668 16.5814 7.42934 16.5814H8.97587C9.2185 16.5814 9.41522 16.3838 9.41522 16.1401C9.41522 15.8964 9.21853 15.6987 8.97587 15.6987H7.87149V14.7405H8.86199C9.10462 14.7405 9.30134 14.5429 9.30134 14.2992Z" fill="#646464"/>
<path fill-rule="evenodd" clip-rule="evenodd" d="M11.7723 12H10.7432C10.7082 12.0013 10.5636 12.0108 10.4424 12.1282C10.314 12.2527 10.3044 12.4086 10.3031 12.4413V16.1542C10.3031 16.3979 10.4998 16.5955 10.7425 16.5955C10.9851 16.5955 11.1818 16.398 11.1818 16.1542V14.9799H11.7716C12.5908 14.9799 13.2556 14.3128 13.2556 13.49C13.2556 12.6671 12.5915 12 11.7723 12ZM11.1818 12.8824H11.7716L11.7666 12.8852C12.1005 12.8853 12.3717 13.1573 12.3715 13.4928C12.3713 13.8282 12.1005 14.0999 11.7666 14.0998H11.1818V12.8824Z" fill="#646464"/>
<path d="M15.4587 16.5984C16.1841 16.632 16.8297 16.1398 16.9926 15.429C17.0601 14.9997 16.9003 14.5661 16.5708 14.2844C16.3848 14.1207 16.1683 13.9956 15.9339 13.9164C15.8074 13.8732 15.6778 13.8428 15.548 13.8123C15.481 13.7966 15.4137 13.7808 15.3469 13.7632C15.1912 13.732 15.0469 13.6588 14.9294 13.5514C14.8118 13.4394 14.7701 13.2689 14.8225 13.115C14.8892 12.9823 15.0202 12.8944 15.1677 12.8834C15.3127 12.8743 15.458 12.8957 15.5944 12.9462C15.7904 13.0076 15.9826 13.0805 16.1701 13.1644C16.3775 13.2534 16.6207 13.3099 16.788 13.1122C16.9109 12.9634 16.9201 12.7506 16.8105 12.5917C16.7376 12.4854 16.6392 12.3992 16.5244 12.3411C16.0098 12.0376 15.3957 11.9534 14.819 12.1073C14.5143 12.2042 14.257 12.4123 14.0977 12.6906C14.0231 12.8226 13.9737 12.9675 13.9522 13.1178C13.913 13.3882 13.9714 13.6637 14.1167 13.8946C14.2807 14.1358 14.5175 14.3178 14.7923 14.4136C15.0798 14.5323 15.3666 14.6473 15.6583 14.7547C15.784 14.7944 15.8996 14.8608 15.9972 14.9496C16.1073 15.0544 16.1482 15.2131 16.1026 15.3584C16.0416 15.4958 15.9232 15.5992 15.7793 15.6409C15.5591 15.7249 15.3176 15.734 15.0918 15.667C14.873 15.5875 14.6708 15.4677 14.4956 15.3139C14.4767 15.2977 14.4176 15.2511 14.4064 15.2433C14.2426 15.1257 14.0188 15.1407 13.8721 15.2793C13.6924 15.4431 13.6788 15.7223 13.8419 15.9028C14.2613 16.3502 14.847 16.6022 15.4587 16.5984Z" fill="#646464"/>
</svg>
