<svg width="24" height="24" viewBox="0 0 24 24" fill="none" xmlns="http://www.w3.org/2000/svg">
<path d="M20.6432 5.15314C19.3974 4.44357 18.0269 3.9799 16.6063 3.78731C16.3913 3.37321 16.092 3.00873 15.7277 2.71731C15.3353 2.40517 14.8772 2.18645 14.3879 2.07774C13.8985 1.96902 13.3909 1.97315 12.9034 2.08981C11.8615 2.35287 10.851 2.72754 9.88929 3.20731C9.20661 2.88255 8.44408 2.76405 7.69511 2.86632C6.94614 2.9686 6.24324 3.28722 5.6725 3.78314C5.36684 4.04564 5.05951 4.31981 4.75635 4.60231C4.4382 4.90148 4.11421 5.24148 3.79106 5.61064C3.38616 6.07382 3.09719 6.62674 2.94803 7.22373C2.79887 7.82071 2.79379 8.44464 2.93321 9.04398C2.99758 9.3269 3.09282 9.60188 3.21722 9.86398C2.73446 10.833 2.35696 11.8511 2.09119 12.9006C1.97409 13.3884 1.96971 13.8964 2.07839 14.3861C2.18706 14.8758 2.40593 15.3342 2.71833 15.7265C3.01262 16.0948 3.38165 16.3964 3.80106 16.6115C3.99405 18.0308 4.45714 19.3999 5.16529 20.6448C5.44004 21.1387 5.86594 21.5312 6.38033 21.7648C6.89473 21.9984 7.47047 22.0606 8.02284 21.9423C8.59423 21.8291 9.11406 21.5349 9.50551 21.1034C9.89696 20.6718 10.1393 20.1256 10.1966 19.5456C10.3521 18.4728 10.6339 17.4222 11.0361 16.4156C11.0361 16.4156 11.4901 16.1356 11.6974 15.9665C12.1968 15.5474 12.5512 14.9814 12.7102 14.349C13.0953 14.2214 13.4454 14.006 13.733 13.7198C14.013 13.4346 14.2249 13.0896 14.3526 12.7106C14.9825 12.5508 15.546 12.1965 15.9634 11.6981C16.1299 11.4906 16.4131 11.0356 16.4131 11.0356C17.4169 10.6223 18.4692 10.3387 19.5447 10.1915C20.1243 10.1341 20.6702 9.89165 21.1015 9.49998C21.5329 9.10831 21.8268 8.58819 21.94 8.01648C22.0601 7.46314 21.9989 6.8858 21.7653 6.37005C21.5317 5.85429 21.1382 5.42757 20.6432 5.15314ZM8.53672 19.3598C8.51667 19.5896 8.42234 19.8067 8.26801 19.9781C8.11368 20.1495 7.90774 20.266 7.68137 20.3098C7.47306 20.3572 7.25494 20.3348 7.06064 20.246C6.86633 20.1571 6.70663 20.0068 6.60614 19.8181C6.10526 18.9404 5.7463 17.9889 5.54258 16.999H8.79074C8.88153 16.999 8.96981 16.9806 9.05976 16.9756C8.82156 17.7115 8.53672 19.3565 8.53672 19.3598ZM10.6439 14.6715C10.1209 15.0981 9.46712 15.3314 8.79241 15.3323H5.33936C5.08601 15.3329 4.83587 15.2756 4.60798 15.1648C4.38009 15.054 4.18046 14.8927 4.02427 14.6931C3.86847 14.4978 3.75922 14.2696 3.70481 14.0257C3.6504 13.7818 3.65227 13.5287 3.71028 13.2856C3.87702 12.6129 4.0999 11.9553 4.37657 11.3198C4.63368 11.5211 4.9152 11.6891 5.21443 11.8198L10.7755 14.2565C10.8271 14.2806 10.8821 14.2898 10.9345 14.3098C10.86 14.4468 10.7616 14.5693 10.6439 14.6715ZM12.547 12.5448C12.4078 12.686 12.2283 12.7806 12.0332 12.8155C11.8381 12.8504 11.637 12.824 11.4576 12.7398L5.88322 10.2973C5.55085 10.1516 5.25785 9.92897 5.02833 9.64775C4.79882 9.36653 4.63937 9.03478 4.56313 8.67981C4.48229 8.33573 4.48439 7.97735 4.56925 7.63424C4.65411 7.29113 4.8193 6.97313 5.05119 6.70648C5.33936 6.37814 5.6242 6.07814 5.90321 5.81564C6.18221 5.55314 6.47122 5.29481 6.75856 5.04898C7.02373 4.81806 7.33958 4.65295 7.68047 4.56704C8.02136 4.48114 8.37769 4.47685 8.72055 4.55454C9.06341 4.63222 9.38313 4.78969 9.65378 5.01416C9.92442 5.23863 10.1384 5.52379 10.2782 5.84648L12.7468 11.4215C12.8294 11.6073 12.8545 11.8136 12.8189 12.0138C12.7833 12.214 12.6886 12.3989 12.547 12.5448ZM15.3337 8.78731C15.3332 9.46231 15.1002 10.1165 14.6741 10.6398C14.5767 10.7526 14.461 10.8481 14.3318 10.9223C14.3101 10.864 14.2943 10.804 14.2693 10.7465L11.8015 5.17231C11.6768 4.8893 11.5197 4.62169 11.3335 4.37481C11.9654 4.09868 12.6193 3.87569 13.2882 3.70814C13.5311 3.64998 13.7841 3.64805 14.0279 3.70249C14.2716 3.75694 14.4998 3.86632 14.6949 4.02231C14.8948 4.17894 15.0563 4.37922 15.167 4.60785C15.2778 4.83649 15.3348 5.08742 15.3337 5.34148V8.78731ZM20.3084 7.67564C20.2646 7.90215 20.1482 8.1082 19.9769 8.26262C19.8056 8.41704 19.5887 8.51142 19.3589 8.53148C19.3589 8.53148 17.7115 8.81648 16.9761 9.05648C16.982 8.96648 16.9994 8.87814 16.9994 8.78731V5.53731C17.9888 5.74115 18.9398 6.10031 19.817 6.60148C20.0049 6.70226 20.1547 6.86183 20.2434 7.0558C20.3322 7.24977 20.355 7.46747 20.3084 7.67564Z" fill="#646464"/>
</svg>
