<svg width="24" height="24" viewBox="0 0 24 24" fill="none" xmlns="http://www.w3.org/2000/svg">
<path d="M8.16553 7.0223C8.08863 6.89313 7.97949 6.78616 7.84881 6.71186C7.71812 6.63757 7.57037 6.59851 7.42005 6.59851C7.26972 6.59851 7.12197 6.63757 6.99129 6.71186C6.8606 6.78616 6.75146 6.89313 6.67456 7.0223L2.09083 16.1898C2.0409 16.2878 2.01086 16.3947 2.00244 16.5044C1.99403 16.614 2.00741 16.7243 2.0418 16.8288C2.0762 16.9332 2.13094 17.0299 2.20287 17.1131C2.27479 17.1963 2.36247 17.2645 2.46086 17.3136C2.55925 17.3628 2.6664 17.392 2.77613 17.3996C2.88586 17.4071 2.99601 17.3929 3.10021 17.3577C3.20441 17.3225 3.30061 17.267 3.38327 17.1944C3.46592 17.1218 3.53339 17.0336 3.58179 16.9348L5.01442 14.0621H9.81817L11.255 16.9348C11.3034 17.0336 11.3708 17.1218 11.4535 17.1944C11.5361 17.267 11.6323 17.3225 11.7365 17.3577C11.8408 17.3929 11.9509 17.4071 12.0606 17.3996C12.1704 17.392 12.2775 17.3628 12.3759 17.3136C12.4743 17.2645 12.562 17.1963 12.6339 17.1131C12.7058 17.0299 12.7606 16.9332 12.795 16.8288C12.8294 16.7243 12.8427 16.614 12.8343 16.5044C12.8259 16.3947 12.7959 16.2878 12.7459 16.1898L8.16553 7.0223ZM5.84782 12.3953L7.41546 9.25833L8.98477 12.3953H5.84782Z" fill="#646464"/>
<path d="M21.1666 9.06165C20.9456 9.06165 20.7336 9.14945 20.5773 9.30574C20.421 9.46204 20.3332 9.67402 20.3332 9.89505V9.91672C19.6161 9.36517 18.7376 9.06471 17.833 9.06165C16.7278 9.06165 15.6679 9.50067 14.8864 10.2821C14.105 11.0636 13.666 12.1235 13.666 13.2287C13.666 14.3338 14.105 15.3937 14.8864 16.1752C15.6679 16.9567 16.7278 17.3957 17.833 17.3957C18.7376 17.3926 19.6161 17.0922 20.3332 16.5406V16.5623C20.3332 16.7833 20.421 16.9953 20.5773 17.1516C20.7336 17.3079 20.9456 17.3957 21.1666 17.3957C21.3876 17.3957 21.5996 17.3079 21.7559 17.1516C21.9122 16.9953 22 16.7833 22 16.5623V9.89505C22 9.67402 21.9122 9.46204 21.7559 9.30574C21.5996 9.14945 21.3876 9.06165 21.1666 9.06165ZM17.833 15.7289C17.3385 15.7289 16.8551 15.5823 16.4439 15.3075C16.0328 15.0328 15.7123 14.6423 15.5231 14.1855C15.3338 13.7286 15.2843 13.2259 15.3808 12.7409C15.4773 12.2559 15.7154 11.8104 16.0651 11.4608C16.4147 11.1111 16.8602 10.873 17.3452 10.7765C17.8302 10.68 18.3329 10.7295 18.7898 10.9188C19.2466 11.108 19.6371 11.4285 19.9118 11.8396C20.1866 12.2508 20.3332 12.7342 20.3332 13.2287C20.3332 13.8918 20.0698 14.5277 19.6009 14.9966C19.132 15.4655 18.4961 15.7289 17.833 15.7289Z" fill="#646464"/>
</svg>
