<svg width="24" height="24" viewBox="0 0 24 24" fill="none" xmlns="http://www.w3.org/2000/svg">
<path d="M9.2 22.7528C7.35999 22.7528 5.33 21.9123 3.72 20.2914C2.41 18.9806 1.55 17.3497 1.32 15.6987C1.07 13.9777 1.53 12.4368 2.6 11.3662C3.43 10.5357 4.55 10.0654 5.85 10.0254C5.86 10.0254 5.85999 10.0254 5.87 10.0254C6 10.0254 6.12999 9.98538 6.24 9.90534C6.35 9.8353 6.43 9.72523 6.48 9.60516C6.65 9.1449 6.93 8.71465 7.29 8.35444C8.65 6.99365 10.9 6.89359 12.91 7.92419L18.13 2.70115L17.96 2.53105C17.67 2.24088 17.67 1.7606 17.96 1.47043C18.25 1.18027 18.73 1.18027 19.02 1.47043L19.71 2.16084C19.72 2.17084 19.72 2.17084 19.73 2.18085C19.74 2.19085 19.74 2.19085 19.75 2.20086L22.54 4.99248C22.83 5.28265 22.83 5.76293 22.54 6.0531C22.25 6.34327 21.77 6.34327 21.48 6.0531L21.31 5.883L18.7 8.49452L18.69 8.50452L18.68 8.51453L16.11 11.086C16.44 11.7264 16.66 12.3968 16.76 13.0672C16.97 14.518 16.58 15.8088 15.68 16.7093C15.31 17.0795 14.88 17.3597 14.4 17.5398C14.29 17.5798 14.19 17.6699 14.12 17.7799C14.05 17.89 14.01 18.0201 14 18.1501C13.96 19.4509 13.5 20.5715 12.66 21.412C11.74 22.3226 10.52 22.7528 9.2 22.7528ZM5.89 11.5263C4.99 11.5563 4.21 11.8765 3.66 12.4268C2.93 13.1572 2.63 14.2479 2.81 15.4886C3 16.8194 3.7 18.1401 4.79 19.2308C6.97 21.412 10.02 21.9223 11.59 20.3514C12.15 19.7911 12.46 19.0206 12.49 18.1101C12.5 17.6899 12.63 17.2796 12.87 16.9294C13.11 16.5792 13.44 16.3091 13.83 16.139C14.13 16.0189 14.39 15.8488 14.61 15.6287C15.17 15.0683 15.4 14.2279 15.26 13.2573C15.21 12.8971 15.11 12.5369 14.97 12.1867L13.27 13.8877C13.11 15.3085 11.9 16.4191 10.43 16.4191C8.86 16.4191 7.58 15.1384 7.58 13.5575C7.58 12.0966 8.68999 10.8859 10.11 10.7158L11.81 9.01482C10.51 8.48451 9.18 8.57456 8.37 9.37503C8.15 9.59516 7.98 9.85531 7.87 10.1355C7.69 10.5757 7.42 10.9159 7.07 11.1561C6.72 11.3862 6.31 11.5163 5.89 11.5263ZM10.42 12.2267C9.67 12.2267 9.07 12.837 9.07 13.5875C9.07 14.3379 9.68 14.9483 10.42 14.9483C11.17 14.9483 11.78 14.3379 11.78 13.5875C11.78 12.837 11.17 12.2267 10.42 12.2267ZM11.85 11.116C12.28 11.3662 12.64 11.7264 12.89 12.1566L14.17 10.8759C14.02 10.6858 13.86 10.4957 13.68 10.3256C13.5 10.1455 13.32 9.98538 13.13 9.8353L11.85 11.116ZM14.19 8.76468C14.38 8.91476 14.56 9.08486 14.74 9.26497C14.92 9.44507 15.08 9.62518 15.24 9.81529L17.08 7.97422L16.04 6.93361L14.19 8.76468ZM17.1 5.86299L18.14 6.90359L20.24 4.80237L19.2 3.76177L17.1 5.86299ZM8.32 19.2508C8.13 19.2508 7.94 19.1807 7.79 19.0306L4.98 16.219C4.69 15.9288 4.69 15.4486 4.98 15.1584C5.27 14.8682 5.75 14.8682 6.04 15.1584L8.85 17.97C9.14 18.2602 9.14 18.7405 8.85 19.0306C8.7 19.1807 8.51 19.2508 8.32 19.2508Z" fill="#646464"/>
</svg>
