<svg width="24" height="24" viewBox="0 0 24 24" fill="none" xmlns="http://www.w3.org/2000/svg">
<path fill-rule="evenodd" clip-rule="evenodd" d="M4.25806 5.22571C4.17251 5.22571 4.09046 5.25969 4.02997 5.32019C3.96947 5.38068 3.93548 5.46273 3.93548 5.54829V9.41925C3.93548 9.50481 3.96947 9.58686 4.02997 9.64735C4.09046 9.70785 4.17251 9.74184 4.25806 9.74184H8.45161V5.54829C8.45161 5.46273 8.41763 5.38068 8.35713 5.32019C8.29663 5.25969 8.21459 5.22571 8.12903 5.22571H4.25806ZM10.3871 5.54829C10.3871 4.94941 10.1492 4.37506 9.72572 3.95159C9.30226 3.52813 8.72791 3.29022 8.12903 3.29022H4.25806C3.65919 3.29022 3.08484 3.52813 2.66137 3.95159C2.2379 4.37506 2 4.94941 2 5.54829V9.41925C2 10.0181 2.2379 10.5925 2.66137 11.0159C3.08484 11.4394 3.65919 11.6773 4.25806 11.6773H8.45161V13.2902C8.45161 14.8473 8.06501 16.0149 7.37353 16.8792C6.67959 17.7466 5.59806 18.4092 4.02327 18.803C3.50477 18.9327 3.18956 19.4581 3.31924 19.9766C3.44891 20.4951 3.97436 20.8103 4.49286 20.6807C6.35936 20.2139 7.85847 19.3713 8.88486 18.0883C9.9137 16.8023 10.3871 15.1745 10.3871 13.2902V5.54829Z" fill="#646464"/>
<path fill-rule="evenodd" clip-rule="evenodd" d="M15.871 5.22571C15.7854 5.22571 15.7034 5.25969 15.6429 5.32019C15.5824 5.38068 15.5484 5.46273 15.5484 5.54829V9.41925C15.5484 9.50481 15.5824 9.58686 15.6429 9.64735C15.7034 9.70785 15.7854 9.74184 15.871 9.74184H20.0645V5.54829C20.0645 5.46273 20.0305 5.38068 19.97 5.32019C19.9095 5.25969 19.8275 5.22571 19.7419 5.22571H15.871ZM22 5.54829C22 4.94941 21.7621 4.37506 21.3386 3.95159C20.9152 3.52812 20.3408 3.29022 19.7419 3.29022H15.871C15.2721 3.29022 14.6977 3.52813 14.2743 3.95159C13.8508 4.37506 13.6129 4.94941 13.6129 5.54829V9.41925C13.6129 10.0181 13.8508 10.5925 14.2743 11.0159C14.6977 11.4394 15.2721 11.6773 15.871 11.6773H20.0645V13.2902C20.0645 14.8473 19.6779 16.0149 18.9864 16.8792C18.2925 17.7466 17.211 18.4092 15.6362 18.803C15.1177 18.9327 14.8025 19.4581 14.9321 19.9766C15.0618 20.4951 15.5873 20.8103 16.1058 20.6807C17.9723 20.2139 19.4714 19.3713 20.4978 18.0883C21.5266 16.8023 22 15.1745 22 13.2902V5.54829Z" fill="#646464"/>
</svg>
