<svg width="24" height="24" viewBox="0 0 24 24" fill="none" xmlns="http://www.w3.org/2000/svg">
<path fill-rule="evenodd" clip-rule="evenodd" d="M12 2C12.4248 2 12.7692 2.3444 12.7692 2.76923V21.2308C12.7692 21.6556 12.4248 22 12 22C11.5752 22 11.2308 21.6556 11.2308 21.2308V2.76923C11.2308 2.3444 11.5752 2 12 2Z" fill="#646464"/>
<path fill-rule="evenodd" clip-rule="evenodd" d="M15.9258 6.12309C16.273 6.04113 16.631 6.20865 16.7906 6.52773L21.9188 16.7841C22.038 17.0226 22.0253 17.3058 21.8851 17.5326C21.745 17.7593 21.4974 17.8974 21.2308 17.8974H16.1026C15.6777 17.8974 15.3333 17.553 15.3333 17.1282V6.87174C15.3333 6.51499 15.5786 6.20506 15.9258 6.12309ZM16.8718 10.1303V16.3589H19.9861L16.8718 10.1303Z" fill="#646464"/>
<path fill-rule="evenodd" clip-rule="evenodd" d="M8.07417 6.12309C8.42138 6.20506 8.66667 6.51499 8.66667 6.87174V17.1282C8.66667 17.553 8.32227 17.8974 7.89744 17.8974H2.76923C2.50263 17.8974 2.25504 17.7593 2.11488 17.5326C1.97473 17.3058 1.96198 17.0226 2.08121 16.7841L7.20942 6.52773C7.36896 6.20865 7.72696 6.04113 8.07417 6.12309ZM4.01387 16.3589H7.12821V10.1303L4.01387 16.3589Z" fill="#646464"/>
</svg>
