<svg width="24" height="24" viewBox="0 0 24 24" fill="none" xmlns="http://www.w3.org/2000/svg">
<path fill-rule="evenodd" clip-rule="evenodd" d="M12 3.75C7.44365 3.75 3.75 7.44365 3.75 12C3.75 16.5563 7.44365 20.25 12 20.25C16.5563 20.25 20.25 16.5563 20.25 12C20.25 7.44365 16.5563 3.75 12 3.75ZM2.25 12C2.25 6.61522 6.61522 2.25 12 2.25C17.3848 2.25 21.75 6.61522 21.75 12C21.75 17.3848 17.3848 21.75 12 21.75C6.61522 21.75 2.25 17.3848 2.25 12ZM7.96967 8.46967C8.26256 8.17678 8.73744 8.17678 9.03033 8.46967L10.5303 9.96967C10.8232 10.2626 10.8232 10.7374 10.5303 11.0303L9.03033 12.5303C8.73744 12.8232 8.26256 12.8232 7.96967 12.5303C7.67678 12.2374 7.67678 11.7626 7.96967 11.4697L8.93934 10.5L7.96967 9.53033C7.67678 9.23744 7.67678 8.76256 7.96967 8.46967ZM16.0303 8.46967C16.3232 8.76256 16.3232 9.23744 16.0303 9.53033L15.0607 10.5L16.0303 11.4697C16.3232 11.7626 16.3232 12.2374 16.0303 12.5303C15.7374 12.8232 15.2626 12.8232 14.9697 12.5303L13.4697 11.0303C13.1768 10.7374 13.1768 10.2626 13.4697 9.96967L14.9697 8.46967C15.2626 8.17678 15.7374 8.17678 16.0303 8.46967ZM10.0308 14.5564C10.6408 14.3531 11.319 14.25 12 14.25C12.681 14.25 13.3592 14.3531 13.9692 14.5564C14.5752 14.7584 15.1236 15.0629 15.5303 15.4697C15.8232 15.7626 15.8232 16.2374 15.5303 16.5303C15.2374 16.8232 14.7626 16.8232 14.4697 16.5303C14.2684 16.329 13.9421 16.1285 13.4949 15.9795C13.0517 15.8317 12.5351 15.75 12 15.75C11.4649 15.75 10.9483 15.8317 10.5051 15.9795C10.0579 16.1285 9.73164 16.329 9.53033 16.5303C9.23744 16.8232 8.76256 16.8232 8.46967 16.5303C8.17678 16.2374 8.17678 15.7626 8.46967 15.4697C8.87643 15.0629 9.42478 14.7584 10.0308 14.5564Z" fill="#646464"/>
</svg>
