<svg width="24" height="24" viewBox="0 0 24 24" fill="none" xmlns="http://www.w3.org/2000/svg">
<path d="M10.4028 16.4204C10.0772 16.4204 9.75164 16.3367 9.45117 16.1683C8.83071 15.8204 8.46042 15.1889 8.46042 14.4782V9.5218C8.46042 8.8111 8.83071 8.17957 9.45117 7.83167C10.0754 7.48283 10.8084 7.4968 11.4168 7.86982L15.5833 10.4187C16.1387 10.7591 16.4707 11.3497 16.4707 12.0009C16.4707 12.6521 16.1387 13.2427 15.5833 13.5832L11.4168 16.132C11.1014 16.3236 10.7525 16.4204 10.4028 16.4204ZM10.4047 8.97674C10.2819 8.97674 10.1833 9.02035 10.1331 9.04919C10.0493 9.0957 9.85486 9.23622 9.85486 9.5218V14.4782C9.85486 14.7647 10.0493 14.9043 10.1331 14.9508C10.2177 14.9983 10.44 15.0929 10.6883 14.9404L14.8549 12.3915C15.0539 12.2697 15.0754 12.0772 15.0754 12C15.0754 11.9228 15.0539 11.7303 14.8549 11.6094L10.6883 9.06055C10.5869 8.99729 10.4903 8.97674 10.4047 8.97674ZM12 22C6.48558 22 2 17.5144 2 12C2 6.48558 6.48558 2 12 2C17.5144 2 22 6.48558 22 12C22 17.5144 17.5144 22 12 22ZM12 3.39535C7.25488 3.39535 3.39535 7.25488 3.39535 12C3.39535 16.7451 7.25488 20.6047 12 20.6047C16.7451 20.6047 20.6047 16.7451 20.6047 12C20.6047 7.25488 16.7451 3.39535 12 3.39535Z" fill="#646464"/>
</svg>
