<svg width="24" height="24" viewBox="0 0 24 24" fill="none" xmlns="http://www.w3.org/2000/svg">
<path d="M12 8.12903C9.87897 8.12903 8.15385 9.86529 8.15385 12C8.15385 14.1347 9.87897 15.871 12 15.871C14.121 15.871 15.8462 14.1347 15.8462 12C15.8462 9.86529 14.121 8.12903 12 8.12903ZM12 14.3226C10.7272 14.3226 9.69231 13.281 9.69231 12C9.69231 10.719 10.7272 9.67742 12 9.67742C13.2728 9.67742 14.3077 10.719 14.3077 12C14.3077 13.281 13.2728 14.3226 12 14.3226ZM18.1538 4H5.84615C3.36615 4 2 5.37497 2 7.87097V16.129C2 18.625 3.36615 20 5.84615 20H18.1538C20.6338 20 22 18.625 22 16.129V7.87097C22 5.37497 20.6338 4 18.1538 4ZM20.4615 16.129C20.4615 17.7569 19.7713 18.4516 18.1538 18.4516H5.84615C4.22872 18.4516 3.53846 17.7569 3.53846 16.129V7.87097C3.53846 6.2431 4.22872 5.54839 5.84615 5.54839H18.1538C19.7713 5.54839 20.4615 6.2431 20.4615 7.87097V16.129ZM6.8718 12C6.8718 12.5698 6.41231 13.0323 5.84615 13.0323C5.28 13.0323 4.82051 12.5698 4.82051 12C4.82051 11.4302 5.28 10.9677 5.84615 10.9677C6.41231 10.9677 6.8718 11.4302 6.8718 12ZM19.1795 12C19.1795 12.5698 18.72 13.0323 18.1538 13.0323C17.5877 13.0323 17.1282 12.5698 17.1282 12C17.1282 11.4302 17.5877 10.9677 18.1538 10.9677C18.72 10.9677 19.1795 11.4302 19.1795 12Z" fill="#646464"/>
</svg>
