<svg width="24" height="24" viewBox="0 0 24 24" fill="none" xmlns="http://www.w3.org/2000/svg">
<rect width="24" height="24" rx="12" fill="#E5F7F5"/>
<path d="M12.6381 7.03788C12.6381 6.68553 12.3525 6.3999 12.0001 6.3999C11.6478 6.3999 11.3621 6.68553 11.3621 7.03788V11.3621H7.03837C6.68602 11.3621 6.40039 11.6477 6.40039 12C6.40039 12.3524 6.68602 12.638 7.03837 12.638H11.3621V16.9619C11.3621 17.3143 11.6478 17.5999 12.0001 17.5999C12.3525 17.5999 12.6381 17.3143 12.6381 16.9619V12.638H16.9624C17.3148 12.638 17.6004 12.3524 17.6004 12C17.6004 11.6477 17.3148 11.3621 16.9624 11.3621H12.6381V7.03788Z" fill="#28ad99"/>
</svg>
