<svg width="24" height="24" viewBox="0 0 24 24" fill="none" xmlns="http://www.w3.org/2000/svg">
<path d="M17.5911 3.70784C15.9951 2.6296 14.0711 2 12 2C12 2 12 2 12 2C6.4771 2 2 6.47707 2 12C2 14.136 2.66973 16.1157 3.81064 17.7403C5.61962 20.3163 8.61317 22 12 22C12 22 12 22 12 22C17.5228 22 22 17.5228 22 12C22 12 22 12 22 12C22 8.5482 20.2511 5.5049 17.5911 3.70784Z" fill="white"/>
<path fill-rule="evenodd" clip-rule="evenodd" d="M11.9986 17.6665C11.2967 17.6665 10.7277 17.0975 10.7277 16.3956V11.6852C10.7277 10.9833 11.2967 10.4143 11.9986 10.4143C12.7005 10.4143 13.2695 10.9833 13.2695 11.6852V16.3956C13.2695 17.0975 12.7005 17.6665 11.9986 17.6665Z" fill="#2e90fa"/>
<path fill-rule="evenodd" clip-rule="evenodd" d="M13.2695 7.60236C13.2695 8.30429 12.7005 8.87335 11.9986 8.87335H11.9859C11.284 8.87335 10.715 8.30429 10.715 7.60236C10.715 6.90042 11.284 6.33155 11.9859 6.33155H11.9986C12.7005 6.33155 13.2695 6.90042 13.2695 7.60236Z" fill="#2e90fa"/>
</svg>
