<svg width="21" height="20" viewBox="0 0 21 20" fill="none" xmlns="http://www.w3.org/2000/svg">
<path fill-rule="evenodd" clip-rule="evenodd" d="M12.2662 3.91462L15.9209 7.56931C16.1451 7.79358 16.1451 8.15719 15.9209 8.38146L12.2662 12.0361C12.0419 12.2604 11.6783 12.2604 11.454 12.0361C11.2298 11.8119 11.2298 11.4483 11.454 11.224L14.1284 8.54966H6.52931C6.26981 8.54966 6.05945 8.76003 6.05945 9.01953V15.6793C6.05945 15.9965 5.80233 16.2536 5.48517 16.2536C5.168 16.2536 4.91089 15.9965 4.91089 15.6793V9.01953C4.91089 8.1257 5.63548 7.4011 6.52931 7.4011H14.1284L11.454 4.72677C11.2298 4.5025 11.2298 4.13889 11.454 3.91462C11.6783 3.69035 12.0419 3.69035 12.2662 3.91462Z" fill="#A6A6A6"/>
</svg>
