<svg width="37" height="36" viewBox="0 0 37 36" fill="none" xmlns="http://www.w3.org/2000/svg">
<rect x="0.5" width="36" height="36" rx="18" fill="#F2F5F7"/>
<path fill-rule="evenodd" clip-rule="evenodd" d="M15.1666 9.06641C15.4979 9.06641 15.7666 9.33504 15.7666 9.66641V10.7331H21.2332V9.66641C21.2332 9.33504 21.5019 9.06641 21.8332 9.06641C22.1646 9.06641 22.4332 9.33504 22.4332 9.66641V10.7331H24.3332C25.5851 10.7331 26.5999 11.7479 26.5999 12.9997V24.6664C26.5999 25.9183 25.5851 26.9331 24.3332 26.9331H12.6666C11.4147 26.9331 10.3999 25.9183 10.3999 24.6664V12.9997C10.3999 11.7479 11.4147 10.7331 12.6666 10.7331H14.5666V9.66641C14.5666 9.33504 14.8352 9.06641 15.1666 9.06641ZM14.5666 11.9331H12.6666C12.0775 11.9331 11.5999 12.4106 11.5999 12.9997V15.7331H25.3999V12.9997C25.3999 12.4106 24.9223 11.9331 24.3332 11.9331H22.4332V12.9997C22.4332 13.3311 22.1646 13.5997 21.8332 13.5997C21.5019 13.5997 21.2332 13.3311 21.2332 12.9997V11.9331H15.7666V12.9997C15.7666 13.3311 15.4979 13.5997 15.1666 13.5997C14.8352 13.5997 14.5666 13.3311 14.5666 12.9997V11.9331ZM25.3999 16.9331H11.5999V24.6664C11.5999 25.2555 12.0775 25.7331 12.6666 25.7331H24.3332C24.9223 25.7331 25.3999 25.2555 25.3999 24.6664V16.9331Z" fill="#999999"/>
</svg>
