<svg xmlns="http://www.w3.org/2000/svg" width="16" height="16" viewBox="0 0 16 16">
    <g fill="none" fill-rule="evenodd">
        <g>
            <g>
                <path d="M0 0L16 0 16 16 0 16z" transform="translate(-52.000000, -470.000000) translate(52.000000, 470.000000)"/>
                <path fill="#009688" fill-rule="nonzero" d="M8 1.333C4.32 1.333 1.333 4.32 1.333 8c0 3.68 2.987 6.667 6.667 6.667 3.68 0 6.667-2.987 6.667-6.667 0-3.68-2.987-6.667-6.667-6.667zm0 12c-2.94 0-5.333-2.393-5.333-5.333C2.667 5.06 5.06 2.667 8 2.667c2.94 0 5.333 2.393 5.333 5.333 0 2.94-2.393 5.333-5.333 5.333zm3.06-8.28L6.667 9.447 4.94 7.727l-.94.94 2.667 2.666L12 6l-.94-.947z" transform="translate(-52.000000, -470.000000) translate(52.000000, 470.000000)"/>
            </g>
        </g>
    </g>
</svg>
