<svg width="16" height="18" viewBox="0 0 16 18" fill="none" xmlns="http://www.w3.org/2000/svg">
<path fill-rule="evenodd" clip-rule="evenodd" d="M0 3.96237C0 3.62853 0.265313 3.35789 0.592593 3.35789H15.4074C15.7347 3.35789 16 3.62853 16 3.96237C16 4.29621 15.7347 4.56685 15.4074 4.56685H0.592593C0.265313 4.56685 0 4.29621 0 3.96237Z" fill="#646464"/>
<path fill-rule="evenodd" clip-rule="evenodd" d="M6.35414 1.20896C6.07473 1.20896 5.80677 1.32217 5.6092 1.52371C5.41164 1.72524 5.30064 1.99857 5.30064 2.28358V3.96269C5.30064 4.29653 5.03533 4.56716 4.70805 4.56716C4.38077 4.56716 4.11546 4.29653 4.11546 3.96269V2.28358C4.11546 1.67794 4.35132 1.0971 4.77115 0.668846C5.19099 0.240591 5.7604 0 6.35414 0H9.64632C10.2401 0 10.8095 0.240591 11.2293 0.668846C11.6491 1.0971 11.885 1.67794 11.885 2.28358V3.96269C11.885 4.29653 11.6197 4.56716 11.2924 4.56716C10.9651 4.56716 10.6998 4.29653 10.6998 3.96269V2.28358C10.6998 1.99857 10.5888 1.72524 10.3913 1.52371C10.1937 1.32217 9.92573 1.20896 9.64632 1.20896H6.35414ZM2.23891 3.35821C2.56619 3.35821 2.83151 3.62884 2.83151 3.96269V15.7164C2.83151 16.0014 2.9425 16.2748 3.14007 16.4763C3.33764 16.6778 3.6056 16.791 3.885 16.791H12.1155C12.3949 16.791 12.6628 16.6778 12.8604 16.4763C13.058 16.2748 13.169 16.0014 13.169 15.7164V3.96269C13.169 3.62884 13.4343 3.35821 13.7615 3.35821C14.0888 3.35821 14.3541 3.62884 14.3541 3.96269V15.7164C14.3541 16.3221 14.1183 16.9029 13.6984 17.3312C13.2786 17.7594 12.7092 18 12.1155 18H3.885C3.29127 18 2.72185 17.7594 2.30202 17.3312C1.88218 16.9029 1.64632 16.3221 1.64632 15.7164V3.96269C1.64632 3.62884 1.91163 3.35821 2.23891 3.35821Z" fill="#646464"/>
<path fill-rule="evenodd" clip-rule="evenodd" d="M6.35379 7.55593C6.68107 7.55593 6.94638 7.82656 6.94638 8.1604V13.1977C6.94638 13.5316 6.68107 13.8022 6.35379 13.8022C6.02651 13.8022 5.7612 13.5316 5.7612 13.1977V8.1604C5.7612 7.82656 6.02651 7.55593 6.35379 7.55593Z" fill="#646464"/>
<path fill-rule="evenodd" clip-rule="evenodd" d="M9.64581 7.55593C9.97309 7.55593 10.2384 7.82656 10.2384 8.1604V13.1977C10.2384 13.5316 9.97309 13.8022 9.64581 13.8022C9.31853 13.8022 9.05322 13.5316 9.05322 13.1977V8.1604C9.05322 7.82656 9.31853 7.55593 9.64581 7.55593Z" fill="#646464"/>
</svg>
