<svg xmlns="http://www.w3.org/2000/svg" width="10" height="15" viewBox="0 0 10 15">
    <path fill="#747474" fill-rule="nonzero" d="M4.464 12.984c-.95-.075-1.747-.301-2.392-.68a4.18 4.18 0 0 1-1.544-1.592l1.296-1.216c.192.512.525.933 1 1.264.475.33 1.021.544 1.64.64V8.488A11.38 11.38 0 0 1 2.648 8a3 3 0 0 1-1.24-.856c-.33-.384-.496-.896-.496-1.536 0-.843.315-1.55.944-2.12.63-.57 1.499-.91 2.608-1.016V.968H5.84v1.504c.864.064 1.57.261 2.12.592.55.33 1.043.805 1.48 1.424L8.208 5.752c-.299-.533-.632-.933-1-1.2-.368-.267-.824-.432-1.368-.496v2.976c.715.15 1.32.32 1.816.512s.91.485 1.24.88c.33.395.496.917.496 1.568 0 .843-.325 1.528-.976 2.056-.65.528-1.51.835-2.576.92v1.504H4.464v-1.488zm0-8.912c-.501.075-.883.232-1.144.472-.261.24-.392.547-.392.92 0 .341.13.608.392.8.261.192.643.352 1.144.48V4.072zM5.84 11.4c1.035-.117 1.552-.55 1.552-1.296 0-.352-.133-.627-.4-.824-.267-.197-.65-.36-1.152-.488V11.4z"/>
</svg>
