<svg width="20" height="20" viewBox="0 0 20 20" fill="none" xmlns="http://www.w3.org/2000/svg">
<path fill-rule="evenodd" clip-rule="evenodd" d="M12.4111 3.13754C13.3947 2.15402 14.9893 2.15402 15.9728 3.13754C16.9563 4.12106 16.9563 5.71566 15.9728 6.69917L7.01526 15.6567C7.00449 15.6674 6.99384 15.6781 6.9833 15.6887C6.81514 15.857 6.67414 15.9982 6.50699 16.1084C6.35982 16.2055 6.2002 16.2822 6.03248 16.3365C5.84199 16.3982 5.64366 16.4201 5.40713 16.4462C5.3923 16.4478 5.37732 16.4495 5.36219 16.4512L3.06665 16.7062C2.8855 16.7264 2.70501 16.6631 2.57613 16.5342C2.44725 16.4053 2.38394 16.2248 2.40406 16.0436L2.65912 13.7481C2.66081 13.733 2.66246 13.718 2.6641 13.7032C2.69022 13.4666 2.71213 13.2683 2.7738 13.0778C2.82809 12.9101 2.9048 12.7505 3.00185 12.6033C3.11208 12.4362 3.25327 12.2952 3.42165 12.127C3.4322 12.1165 3.44287 12.1058 3.45364 12.095L12.4111 3.13754ZM15.1242 3.98607C14.6094 3.47118 13.7746 3.47118 13.2597 3.98607L4.30216 12.9436C4.08563 13.1601 4.0382 13.2115 4.00365 13.2639C3.96612 13.3208 3.93646 13.3825 3.91546 13.4474C3.89613 13.5071 3.8856 13.5763 3.85178 13.8806L3.67955 15.4307L5.22967 15.2585C5.53402 15.2247 5.60319 15.2142 5.6629 15.1948C5.72775 15.1738 5.78947 15.1442 5.84638 15.1067C5.89877 15.0721 5.9502 15.0247 6.16674 14.8081L15.1242 5.85064C15.6391 5.33576 15.6391 4.50096 15.1242 3.98607Z" fill="#646464"/>
</svg>
