<svg xmlns="http://www.w3.org/2000/svg" width="16" height="16" viewBox="0 0 16 16">
    <g fill="none" fill-rule="evenodd">
        <g fill-rule="nonzero">
            <g>
                <path fill="#979797" d="M7.4 9.8h1.2V11H7.4V9.8zm0-4.8h1.2v3.6H7.4V5zm.594-3C4.682 2 2 4.688 2 8s2.682 6 5.994 6C11.312 14 14 11.312 14 8s-2.688-6-6.006-6zM8 12.8c-2.652 0-4.8-2.148-4.8-4.8 0-2.652 2.148-4.8 4.8-4.8 2.652 0 4.8 2.148 4.8 4.8 0 2.652-2.148 4.8-4.8 4.8z" transform="translate(-84.000000, -470.000000) translate(84.000000, 470.000000)"/>
                <path d="M0 0H16V16H0z" transform="translate(-84.000000, -470.000000) translate(84.000000, 470.000000)"/>
            </g>
        </g>
    </g>
</svg>
