<svg width="12" height="12" viewBox="0 0 12 12" fill="none" xmlns="http://www.w3.org/2000/svg">
    <path d="M2.64534 10.9753C3.60295 11.6222 4.75736 12 6 12C6.00001 12 5.99999 12 6 12C9.31374 12 12 9.31376 12 6.00002C12 4.7184 11.5982 3.5306 10.9136 2.5558C9.82823 1.01021 8.0321 7.4104e-06 6.00002 0C6.00001 0 6.00003 0 6.00002 0C2.68631 0 0 2.68629 0 6C0 6.00001 0 5.99999 0 6C0 8.07108 1.04933 9.89706 2.64534 10.9753Z" fill="#fa3939"/>
    <path fill-rule="evenodd" clip-rule="evenodd" d="M6 3.17188C6.27614 3.17188 6.5 3.44031 6.5 3.77145V5.99362C6.5 6.32476 6.27614 6.5932 6 6.5932C5.72386 6.5932 5.5 6.32476 5.5 5.99362V3.77145C5.5 3.44031 5.72386 3.17188 6 3.17188Z" fill="white"/>
    <path fill-rule="evenodd" clip-rule="evenodd" d="M5.5 8.32621C5.5 8.05005 5.72275 7.82617 5.99751 7.82617H6.00249C6.27726 7.82617 6.5 8.05005 6.5 8.32621C6.5 8.60237 6.27726 8.82617 6.00249 8.82617H5.99751C5.72275 8.82617 5.5 8.60237 5.5 8.32621Z" fill="white"/>
</svg>
