<svg width="36" height="36" viewBox="0 0 36 36" fill="none" xmlns="http://www.w3.org/2000/svg">
<rect width="36" height="36" rx="4" fill="#23A566"/>
<g clip-path="url(#clip0_24086_1387)">
<path d="M24.615 13.2934V26.0278C24.615 26.7135 24.0611 27.2674 23.3754 27.2674H11.9145C11.2288 27.2674 10.6749 26.7135 10.6749 26.0278V9.26212C10.6749 8.57642 11.2288 8.02258 11.9145 8.02258H19.3441L24.615 13.2934Z" fill="white"/>
<path d="M20.693 17.6036H14.597C14.3785 17.6036 14.2014 17.7807 14.2014 17.9992V23.3077C14.2014 23.5262 14.3785 23.7033 14.597 23.7033H20.6967C20.9152 23.7033 21.0923 23.5262 21.0923 23.3077V18.0029C21.0885 17.7844 20.9115 17.6036 20.693 17.6036ZM14.9926 20.1505H17.2494V21.1564H14.9926V20.1505ZM18.0406 20.1505H20.2974V21.1564H18.0406V20.1505ZM20.2974 19.3593H18.0406V18.3985H20.2974V19.3593ZM17.2494 18.3985V19.3593H14.9926V18.3985H17.2494ZM14.9926 21.9514H17.2494V22.9121H14.9926V21.9514ZM18.0406 22.9121V21.9514H20.2974V22.9121H18.0406Z" fill="#23A566"/>
<path d="M24.6151 13.2934H20.5838C19.8981 13.2934 19.3442 12.7396 19.3442 12.0539V8.02258L24.6151 13.2934Z" fill="#8ED1B1"/>
</g>
<defs>
<clipPath id="clip0_24086_1387">
<rect width="19.29" height="19.29" fill="white" transform="translate(8 8)"/>
</clipPath>
</defs>
</svg>
