<svg width="24" height="22" viewBox="0 0 24 22" fill="none" xmlns="http://www.w3.org/2000/svg">
<path d="M23.8362 10.4963C22.3794 8.5877 20.6298 6.92166 18.6522 5.56002L22.0345 2.17777C22.375 1.84891 22.3844 1.3063 22.0556 0.965792C21.7267 0.625282 21.1841 0.61584 20.8436 0.944699C20.8365 0.951579 20.8294 0.95861 20.8225 0.965792L17.1274 4.65747C15.5546 3.79183 13.795 3.32119 12 3.28603C5.48577 3.28603 0.378115 10.2014 0.163814 10.4962C-0.0546047 10.7967 -0.0546047 11.2037 0.163814 11.5042C1.62058 13.4127 3.37019 15.0788 5.34776 16.4404L1.96551 19.8227C1.62499 20.1515 1.61555 20.6941 1.94441 21.0347C2.27327 21.3752 2.81588 21.3846 3.15639 21.0557C3.16352 21.0489 3.17055 21.0418 3.17748 21.0347L6.87257 17.343C8.4454 18.2086 10.205 18.6793 12 18.7144C18.5142 18.7144 23.6219 11.799 23.8362 11.5042C24.0546 11.2037 24.0546 10.7967 23.8362 10.4963ZM6.59404 15.1968C4.84794 14.0338 3.2828 12.6198 1.94923 11.0002C3.21093 9.47197 7.30288 5.00029 12 5.00029C13.3364 5.02731 14.6503 5.34928 15.8477 5.94312L14.3597 7.43112C12.3909 6.12407 9.73537 6.66045 8.42832 8.62918C7.4762 10.0633 7.4762 11.9284 8.42832 13.3625L6.59404 15.1968ZM14.3143 9.89881C14.482 10.2418 14.57 10.6184 14.5714 11.0002C14.5714 12.4204 13.4202 13.5717 12 13.5717C11.6182 13.5702 11.2416 13.4823 10.8986 13.3145L14.3143 9.89881ZM9.68575 12.1016C9.518 11.7586 9.43006 11.382 9.42861 11.0002C9.42861 9.58005 10.5799 8.42879 12 8.42879C12.3819 8.43025 12.7584 8.51819 13.1014 8.68593L9.68575 12.1016ZM12 17.0002C10.6636 16.9731 9.34981 16.6512 8.15235 16.0573L9.64035 14.5693C11.6091 15.8764 14.2647 15.34 15.5717 13.3713C16.5238 11.9372 16.5238 10.0721 15.5717 8.63797L17.406 6.80368C19.1521 7.96664 20.7172 9.38071 22.0508 11.0002C20.789 12.5285 16.6971 17.0002 12 17.0002Z" fill="#646464" fill-opacity="0.6"/>
</svg>
