<svg width="20" height="20" viewBox="0 0 20 20" fill="none" xmlns="http://www.w3.org/2000/svg">
<path fill-rule="evenodd" clip-rule="evenodd" d="M18.3421 5.72087V14.2912C18.3421 15.5805 17.297 16.6257 16.0077 16.6257H3.99216C2.70288 16.6257 1.65771 15.5805 1.65771 14.2912V5.70871C1.65771 4.41943 2.70288 3.37427 3.99216 3.37427H16.0077C17.2916 3.37427 18.3334 4.41074 18.3421 5.69261C18.3423 5.70204 18.3423 5.71146 18.3421 5.72087ZM2.93581 5.40608C3.06722 4.94653 3.49041 4.61015 3.99216 4.61015H16.0077C16.5095 4.61015 16.9327 4.94657 17.0641 5.40615L9.99999 10.1155L2.93581 5.40608ZM2.8936 6.86329V14.2912C2.8936 14.898 3.38544 15.3898 3.99216 15.3898H16.0077C16.6144 15.3898 17.1063 14.898 17.1063 14.2912V6.86337L10.3428 11.3724C10.1352 11.5107 9.86479 11.5107 9.65722 11.3724L2.8936 6.86329Z" fill="#646464"/>
</svg>
