<svg width="22" height="22" viewBox="0 0 22 22" fill="none" xmlns="http://www.w3.org/2000/svg">
<path d="M21.0655 9.09668H12.1358C11.7421 9.09668 11.4233 9.41543 11.4233 9.80918V12.6639C11.4233 13.0576 11.7421 13.3764 12.1358 13.3764H17.1655C16.6171 14.8061 15.5858 16.0014 14.278 16.7607L16.4202 20.4732C19.8562 18.4857 21.8905 14.9936 21.8905 11.0889C21.8905 10.5311 21.8483 10.1326 21.7687 9.6873C21.703 9.34512 21.4077 9.09668 21.0655 9.09668Z" fill="#167EE6"/>
<path d="M10.9451 17.6609C8.48418 17.6609 6.33731 16.3156 5.18418 14.3281L1.47168 16.4656C3.36074 19.7422 6.89981 21.9453 10.9451 21.9453C12.9326 21.9453 14.8029 21.4109 16.4201 20.4781V20.4734L14.2779 16.7609C13.2936 17.3328 12.1592 17.6609 10.9451 17.6609Z" fill="#12B347"/>
<path d="M16.4156 20.4779V20.4732L14.2734 16.7607C13.2938 17.3279 12.1594 17.6607 10.9453 17.6607V21.9451C12.9328 21.9451 14.8031 21.4107 16.4156 20.4779Z" fill="#0F993E"/>
<path d="M4.28438 10.9998C4.28438 9.78574 4.61719 8.65137 5.18438 7.67168L1.47188 5.53418C0.534375 7.14199 0 9.00762 0 10.9998C0 12.992 0.534375 14.8576 1.47188 16.4654L5.18438 14.3279C4.6125 13.3482 4.28438 12.2139 4.28438 10.9998Z" fill="#FFD500"/>
<path d="M10.9451 4.33906C12.5482 4.33906 14.0248 4.91094 15.1732 5.85781C15.4592 6.09219 15.8717 6.07344 16.1295 5.81562L18.1498 3.79531C18.4451 3.5 18.4217 3.01719 18.1076 2.74531C16.1811 1.06719 13.6732 0.0546875 10.9451 0.0546875C6.89981 0.0546875 3.36074 2.25781 1.47168 5.53437L5.18418 7.67188C6.33731 5.68437 8.48418 4.33906 10.9451 4.33906Z" fill="#FF4B26"/>
<path d="M15.1734 5.85781C15.4594 6.09219 15.8719 6.07344 16.1297 5.81562L18.15 3.79531C18.4453 3.5 18.4219 3.01719 18.1078 2.74531C16.1812 1.06719 13.6734 0.0546875 10.9453 0.0546875V4.33906C12.5484 4.33906 14.025 4.90625 15.1734 5.85781Z" fill="#D93F21"/>
</svg>
