<svg xmlns="http://www.w3.org/2000/svg" width="50" height="46" viewBox="0 0 50 46">
    <path fill="#FFF" fill-rule="evenodd" d="M26.767.71l22.5 21.79c.715.692.93 1.733.543 2.638-.388.906-1.3 1.494-2.31 1.494h-5V44c0 1.105-.9 2-2.008 2H9.508A2.005 2.005 0 0 1 7.5 44V26.632h-5c-1.01 0-1.922-.588-2.31-1.494A2.365 2.365 0 0 1 .733 22.5L23.233.71a2.555 2.555 0 0 1 3.534 0zm-2.965 36.706V40h2.98v-2.584c2.109-.172 3.808-.737 5.099-1.694 1.29-.956 1.935-2.2 1.935-3.732 0-1.224-.333-2.205-.999-2.942a6.145 6.145 0 0 0-2.472-1.65c-.983-.365-2.17-.68-3.563-.948v-4.507c1.023.095 1.904.368 2.641.818.737.45 1.393 1.115 1.966 1.995L34 22c-.901-1.033-1.9-1.833-2.995-2.397-1.095-.565-2.503-.904-4.223-1.02V16h-2.98v2.584c-2.232.191-3.978.813-5.237 1.866-1.26 1.052-1.89 2.344-1.89 3.875 0 1.206.334 2.168 1 2.886.665.717 1.494 1.248 2.487 1.593.993.344 2.207.65 3.64.918v4.364c-1.188-.153-2.237-.493-3.148-1.019-.912-.526-1.593-1.21-2.043-2.053L16 33.856a8.62 8.62 0 0 0 3.133 2.498c1.25.593 2.806.947 4.669 1.062zm0-15.387v3.847c-.758-.192-1.341-.426-1.75-.704-.41-.277-.615-.655-.615-1.134 0-.536.205-.976.614-1.32.41-.345.993-.574 1.751-.69zm2.98 12v-3.704c.757.192 1.33.426 1.72.704.389.277.583.665.583 1.162 0 1.015-.768 1.627-2.303 1.838z"/>
</svg>
