<svg xmlns="http://www.w3.org/2000/svg" xmlns:xlink="http://www.w3.org/1999/xlink" width="25" height="25" viewBox="0 0 25 25">
    <defs>
        <path id="a" d="M19.23 15.629a8.9 8.9 0 0 1-2.746-.436.76.76 0 0 0-.785.187l-1.221 1.532c-2.201-1.05-4.262-3.033-5.36-5.312l1.518-1.291a.794.794 0 0 0 .186-.793 8.674 8.674 0 0 1-.435-2.746c0-.42-.35-.77-.77-.77H6.926C6.506 6 6 6.187 6 6.77 6 13.996 12.012 20 19.23 20c.552 0 .77-.49.77-.918V16.4c0-.42-.35-.77-.77-.77z"/>
    </defs>
    <g fill="none" fill-rule="evenodd">
        <path fill="#D500F9" d="M12.5 0C5.608 0 0 5.608 0 12.5 0 19.393 5.608 25 12.5 25S25 19.393 25 12.5C25 5.608 19.392 0 12.5 0z"/>
        <use fill="#FFF" fill-rule="nonzero" xlink:href="#a"/>
    </g>
</svg>
