<svg width="24" height="24" viewBox="0 0 24 24" fill="none" xmlns="http://www.w3.org/2000/svg">
<rect width="24" height="24" rx="12" fill="#DADDDE"/>
<path d="M12.6377 7.03739C12.6377 6.68505 12.352 6.39941 11.9997 6.39941C11.6473 6.39941 11.3617 6.68505 11.3617 7.03739V11.3616H7.03794C6.68559 11.3616 6.39996 11.6472 6.39996 11.9996C6.39996 12.3519 6.68559 12.6375 7.03794 12.6375H11.3617V16.9614C11.3617 17.3138 11.6473 17.5994 11.9997 17.5994C12.352 17.5994 12.6377 17.3138 12.6377 16.9614V12.6375H16.962C17.3143 12.6375 17.6 12.3519 17.6 11.9996C17.6 11.6472 17.3143 11.3616 16.962 11.3616H12.6377V7.03739Z" fill="#B6B8B9"/>
</svg>
