<svg width="20" height="20" viewBox="0 0 20 20" fill="none" xmlns="http://www.w3.org/2000/svg">
<g clip-path="url(#clip0_27163_317483)">
<path fill-rule="evenodd" clip-rule="evenodd" d="M0 10C0 4.4864 4.4864 0 10 0C15.5136 0 20 4.4864 20 10C20 15.5144 15.5136 20 10 20C4.4864 20 0 15.5144 0 10ZM15.1023 8.32759C15.5594 7.84767 15.5409 7.0881 15.0609 6.63103C14.581 6.17397 13.8215 6.1925 13.3644 6.67241L8.67781 11.5933L6.76899 9.58909C6.31192 9.10917 5.55235 9.09065 5.07244 9.54771C4.59252 10.0048 4.574 10.7644 5.03106 11.2443L7.80885 14.1609C8.03534 14.3987 8.3494 14.5333 8.67781 14.5333C9.00622 14.5333 9.32028 14.3987 9.54678 14.1609L15.1023 8.32759Z" fill="white"/>
</g>
<defs>
<clipPath id="clip0_27163_317483">
<rect width="20" height="20" fill="white"/>
</clipPath>
</defs>
</svg>
