<svg width="16" height="14" viewBox="0 0 16 14" fill="none" xmlns="http://www.w3.org/2000/svg">
  <path d="M10.0095 7.9288C9.6187 8.31943 9.61877 8.95296 10.0097 9.34349L10.2029 9.5366C10.5936 9.92686 11.2266 9.92667 11.6169 9.53617L15.2179 5.93412C15.6084 5.5436 15.6083 4.91054 15.2179 4.52005L11.6162 0.918006C11.2257 0.527491 10.5926 0.527427 10.202 0.917864L10.0092 1.11069C9.6185 1.50122 9.61849 2.13453 10.0091 2.52508L11.5752 4.09082H5.22656C2.71777 4.09375 0.68457 6.12695 0.681641 8.63623C0.68457 11.1455 2.71777 13.1792 5.22656 13.1821H5.36426C5.91654 13.1821 6.36426 12.7344 6.36426 12.1821V11.9092C6.36426 11.3569 5.91654 10.9092 5.36426 10.9092H5.22656C3.97266 10.9067 2.95703 9.89014 2.95508 8.63623C2.95605 7.9126 3.29492 7.26807 3.82227 6.85156C4.20898 6.54688 4.69629 6.36475 5.22656 6.36377H11.5752L10.0095 7.9288Z" fill="white"/>
</svg>
