<svg width="20" height="21" viewBox="0 0 20 21" fill="none" xmlns="http://www.w3.org/2000/svg">
  <path fill-rule="evenodd" clip-rule="evenodd" d="M10 20.6685C7.92893 20.6685 6.00491 20.0389 4.4089 18.9606C1.74889 17.1636 0 14.1203 0 10.6685C0 5.14561 4.47719 0.668457 10 0.668457C13.3868 0.668469 16.3804 2.35213 18.1894 4.92813C19.3303 6.5528 20 8.53245 20 10.6685C20 16.1914 15.5229 20.6685 10 20.6685ZM11.2723 6.27287C11.2723 5.57096 10.7033 5.00195 10.0014 5.00195C9.29949 5.00195 8.73047 5.57096 8.73047 6.27287V10.9832C8.73047 11.6851 9.29949 12.2542 10.0014 12.2542C10.7033 12.2542 11.2723 11.6851 11.2723 10.9832V6.27287ZM10.0014 13.7951C9.29949 13.7951 8.73047 14.3641 8.73047 15.0661C8.73047 15.768 9.29949 16.3369 10.0014 16.3369H10.0141C10.716 16.3369 11.285 15.768 11.285 15.0661C11.285 14.3641 10.716 13.7951 10.0141 13.7951H10.0014Z" fill="white"/>
</svg>
