<svg width="20" height="20" viewBox="0 0 20 20" fill="none" xmlns="http://www.w3.org/2000/svg">
<path d="M4.4089 18.2922C6.00491 19.3704 7.92893 20 10 20C10 20 9.99999 20 10 20C15.5229 20 20 15.5229 20 10C20 7.864 19.3303 5.88434 18.1894 4.25967C16.3804 1.68368 13.3868 1.23507e-05 10 0C10 0 10 0 10 0C4.47719 0 0 4.47715 0 10C0 10 0 9.99999 0 10C0 13.4518 1.74889 16.4951 4.4089 18.2922Z" fill="white"/>
<path fill-rule="evenodd" clip-rule="evenodd" d="M10.0014 4.33398C10.7033 4.33398 11.2723 4.90299 11.2723 5.6049V10.3153C11.2723 11.0172 10.7033 11.5862 10.0014 11.5862C9.29949 11.5862 8.73047 11.0172 8.73047 10.3153V5.6049C8.73047 4.90299 9.29949 4.33398 10.0014 4.33398Z" fill="#fa3939"/>
<path fill-rule="evenodd" clip-rule="evenodd" d="M8.73047 14.3979C8.73047 13.696 9.29949 13.127 10.0014 13.127H10.0141C10.716 13.127 11.285 13.696 11.285 14.3979C11.285 15.0999 10.716 15.6688 10.0141 15.6688H10.0014C9.29949 15.6688 8.73047 15.0999 8.73047 14.3979Z" fill="#fa3939"/>
</svg>
