<svg width="20" height="20" viewBox="0 0 20 20" fill="none" xmlns="http://www.w3.org/2000/svg">
<g id="icon_alert (1) copy 3">
<path id="Union" d="M4.4089 18.2922C6.00491 19.3704 7.92893 20 10 20C9.99999 20 10 20 10 20C15.5229 20 20 15.5229 20 10C20 7.864 19.3303 5.88434 18.1894 4.25967C16.3804 1.68368 13.3868 1.23507e-05 10 0C10 0 10 0 10 0C4.47719 0 0 4.47715 0 10C0 9.99999 0 10 0 10C0 13.4518 1.74889 16.4951 4.4089 18.2922Z" fill="#2e90fa"/>
<g id="Group 7482">
<path id="Path" fill-rule="evenodd" clip-rule="evenodd" d="M10.0014 4.3335C10.7033 4.3335 11.2723 4.9025 11.2723 5.60441V10.3148C11.2723 11.0167 10.7033 11.5857 10.0014 11.5857C9.29949 11.5857 8.73047 11.0167 8.73047 10.3148V5.60441C8.73047 4.9025 9.29949 4.3335 10.0014 4.3335Z" fill="#DFEAFA"/>
<path id="Path_2" fill-rule="evenodd" clip-rule="evenodd" d="M8.73047 14.3976C8.73047 13.6957 9.29949 13.1266 10.0014 13.1266H10.0141C10.716 13.1266 11.285 13.6957 11.285 14.3976C11.285 15.0996 10.716 15.6684 10.0141 15.6684H10.0014C9.29949 15.6684 8.73047 15.0996 8.73047 14.3976Z" fill="#DFEAFA"/>
</g>
</g>
</svg>
