<svg xmlns="http://www.w3.org/2000/svg" width="55" height="55" viewBox="0 0 55 55">
    <path fill="#000000" fill-rule="evenodd" d="M48.64 26.354H35.965a4.876 4.876 0 0 0-.588-.773c-.937-1.009-2.097-1.761-3.481-2.259s-3.057-.93-5.017-1.296v-6.168c1.441.131 2.681.505 3.72 1.12 1.037.615 1.96 1.525 2.767 2.73l3.676-3.771c-1.268-1.414-2.674-2.508-4.217-3.28-1.542-.773-3.524-1.237-5.946-1.395V7.727h-4.196v3.535c-3.143.262-5.6 1.113-7.374 2.554-1.773 1.44-2.66 3.208-2.66 5.303 0 1.65.469 2.966 1.406 3.948.937.982 2.105 1.708 3.503 2.18 1.398.471 3.107.89 5.125 1.257v5.97c-1.672-.209-3.15-.674-4.433-1.394-1.283-.72-2.242-1.656-2.876-2.808l-3.676 3.888c1.182 1.467 2.652 2.606 4.411 3.418 1.759.812 3.95 1.296 6.574 1.453v3.536h.005v7.683C10.03 47.496 0 36.993 0 24.147 0 10.81 10.811 0 24.147 0h.446C37.93 0 48.74 10.81 48.74 24.147c0 .744-.034 1.48-.1 2.207zM22.683 15.976v5.264c-1.067-.262-1.888-.583-2.465-.962-.577-.38-.865-.897-.865-1.552 0-.733.288-1.336.865-1.807.577-.471 1.398-.786 2.465-.943zM48 29.082h4.063a2.72 2.72 0 0 1 2.708 2.729v20.46A2.72 2.72 0 0 1 52.062 55H27.689a2.72 2.72 0 0 1-2.709-2.728V31.81a2.72 2.72 0 0 1 2.709-2.729h2.708v2.729h-2.709v20.46h24.375v-20.46H48v2.728h-2.708V27.5H48v1.582zm-13.542 2.729v2.728H31.75V27.5h2.708v1.582h9.48v2.729h-9.48zm1.355 5.456v5.456h-5.417v-5.456h5.416zm6.77 0v5.456h-5.416v-5.456h5.416zm6.771 0v5.456h-5.416v-5.456h5.416zM30.396 49.544v-5.457h5.416v5.457h-5.416zm6.77 0v-5.457h5.417v5.457h-5.416zm6.772 0v-5.457h5.416v5.457h-5.416z"/>
</svg>
