<svg xmlns="http://www.w3.org/2000/svg" width="25" height="25" viewBox="0 0 25 25">
    <g fill="none" fill-rule="evenodd">
        <path fill="#00A99F" d="M12.5 0C5.608 0 0 5.608 0 12.5 0 19.393 5.608 25 12.5 25S25 19.393 25 12.5C25 5.608 19.392 0 12.5 0z"/>
        <path fill="#FAFAFA" d="M12.5 10.227h-1.136V7.955H12.5v2.272zm-2.273 0H9.091V7.955h1.136v2.272zm7.626-.844l-3.174-4.265a1.36 1.36 0 0 0-1.092-.573H8.24c-.784 0-1.42.714-1.42 1.591v12.728c0 .877.636 1.59 1.42 1.59h8.522c.71 0 1.42-.796 1.42-1.59v-8.462c0-.371-.116-.733-.328-1.019z"/>
    </g>
</svg>
