<svg width="36" height="36" viewBox="0 0 36 36" fill="none" xmlns="http://www.w3.org/2000/svg">
<rect width="36" height="36" fill="#F2F5F7"/>
<g clip-path="url(#clip0_29001_888)">
<path d="M24.1912 10.5007H11.8096C10.8116 10.5007 10 11.3121 10 12.3113V23.6907C10 24.6887 10.8116 25.4992 11.8096 25.4992H24.1912C25.1892 25.4992 25.9999 24.6887 25.9999 23.6907V12.3113C26 11.3121 25.1893 10.5007 24.1912 10.5007ZM20.3464 13.1934C21.3116 13.1934 22.0943 13.9761 22.0943 14.9412C22.0943 15.9063 21.3115 16.6891 20.3464 16.6891C19.381 16.6891 18.5985 15.9063 18.5985 14.9412C18.5985 13.9761 19.381 13.1934 20.3464 13.1934ZM23.6237 23.8264H17.9998H12.6265C12.1438 23.8264 11.9288 23.4772 12.1464 23.0463L15.1461 17.1048C15.3635 16.674 15.7777 16.6356 16.071 17.0189L19.0873 20.9607C19.3807 21.3441 19.8934 21.3767 20.2328 21.0332L20.9707 20.286C21.3097 19.9425 21.8094 19.985 22.0861 20.3804L23.9969 23.1097C24.2731 23.5057 24.1064 23.8264 23.6237 23.8264Z" fill="white"/>
</g>
<defs>
<clipPath id="clip0_29001_888">
<rect width="16" height="16" fill="white" transform="translate(10 10)"/>
</clipPath>
</defs>
</svg>
