<svg xmlns="http://www.w3.org/2000/svg" width="40" height="40" viewBox="0 0 40 40">
    <g fill="none" fill-rule="evenodd">
        <circle cx="20" cy="20" r="20" fill="#747474" fill-opacity=".5"/>
        <path d="M6.667 7.333h26v26h-26z"/>
        <path fill="#FFF" fill-rule="nonzero" d="M27.983 24.356c-1.332 0-2.622-.217-3.824-.607a1.059 1.059 0 0 0-1.094.26l-1.701 2.135c-3.066-1.463-5.937-4.225-7.464-7.4l2.112-1.798c.293-.303.38-.726.26-1.105a12.082 12.082 0 0 1-.606-3.824c0-.585-.488-1.073-1.073-1.073h-3.748c-.585 0-1.29.26-1.29 1.073 0 10.064 8.375 18.427 18.428 18.427.77 0 1.073-.682 1.073-1.278V25.43c0-.585-.488-1.073-1.073-1.073z"/>
    </g>
</svg>
