<svg width="36" height="36" viewBox="0 0 36 36" fill="none" xmlns="http://www.w3.org/2000/svg">
<rect width="36" height="36" rx="4" fill="#E53659"/>
<path fill-rule="evenodd" clip-rule="evenodd" d="M9.82937 14.25C10.8657 14.25 11.6619 14.464 12.218 14.892C12.7741 15.3201 13.0521 15.9357 13.0521 16.7387C13.0521 17.5038 12.7741 18.0965 12.218 18.5171C11.6619 18.9375 10.8657 19.1477 9.82937 19.1477H8.17377V21.75H6V14.25H9.82937ZM9.4882 17.7166C9.96003 17.7166 10.3076 17.6351 10.5309 17.4723C10.7541 17.3094 10.8658 17.0575 10.8658 16.7165C10.8658 16.3833 10.7541 16.1351 10.5309 15.9723C10.3076 15.8093 9.96003 15.728 9.4882 15.728H8.17383V17.7166H9.4882ZM20.9826 15.2215C20.2875 14.5738 19.287 14.25 17.981 14.25H14.4423V21.75H17.981C19.287 21.75 20.2875 21.4262 20.9826 20.7783C21.6777 20.1306 22.0251 19.2046 22.0251 18C22.0251 16.7954 21.6777 15.8694 20.9826 15.2215ZM17.7664 20.2735C18.4657 20.2735 18.9797 20.084 19.3083 19.7052C19.637 19.3265 19.8011 18.7582 19.8011 18.0007C19.8011 17.2431 19.637 16.675 19.3083 16.2961C18.9797 15.9173 18.4657 15.728 17.7664 15.728H16.6165V20.2735H17.7664ZM25.6903 17.3523V15.7613H29.9999V14.25H23.5166V21.75H25.6903V18.8636H29.128V17.3523H25.6903Z" fill="white"/>
</svg>
