<svg width="36" height="36" viewBox="0 0 36 36" fill="none" xmlns="http://www.w3.org/2000/svg">
<rect width="36" height="36" fill="#74737E"/>
<path d="M18.3558 24.8197H17.2933C16.5449 24.8197 15.9368 25.4279 15.9368 26.1762V27.6435C15.9368 28.3918 16.5449 29 17.2933 29H18.3558C19.1042 29 19.7123 28.3918 19.7123 27.6435V26.1762C19.7123 25.4256 19.1042 24.8197 18.3558 24.8197Z" fill="white"/>
<path d="M10.8635 13.4614L12.8236 13.7056C13.4453 13.7824 14.0354 13.4252 14.2592 12.8397C14.5418 12.1004 14.9352 11.5171 15.4394 11.0921C16.1538 10.4907 17.0423 10.1878 18.1049 10.1878C19.2059 10.1878 20.0831 10.4771 20.7342 11.0536C21.3853 11.6324 21.7086 12.3242 21.7086 13.1359C21.7086 13.7191 21.5255 14.2527 21.1592 14.7365C20.9219 15.044 20.1916 15.6906 18.973 16.6786C17.7522 17.6665 16.9406 18.5573 16.5336 19.3486C16.1176 20.1579 15.973 21.0555 15.9368 21.9553C15.9052 22.7262 16.5201 23.3683 17.2933 23.3683H18.4011C19.1064 23.3683 19.6897 22.828 19.753 22.1271C19.7983 21.623 19.8819 21.2409 20.0085 20.9809C20.221 20.5355 20.7704 19.9477 21.6521 19.2152C23.359 17.8022 24.4713 16.6853 24.9936 15.8624C25.5136 15.0417 25.7759 14.1713 25.7759 13.2512C25.7759 11.5895 25.0682 10.1312 23.6507 8.87874C22.2354 7.62625 20.3273 7 17.9308 7C15.6519 7 13.8139 7.6172 12.4122 8.85387C11.2185 9.90741 10.4927 11.1554 10.2373 12.5955C10.1581 13.016 10.4452 13.4094 10.8635 13.4614Z" fill="white"/>
</svg>
