<svg xmlns="http://www.w3.org/2000/svg" width="19" height="19" viewBox="0 0 19 19">
    <g fill="none" fill-rule="evenodd">
        <path fill="none" d="M-124-66h1178v174H-124z"/>
        <path fill="#b6b6b6" fill-rule="nonzero" d="M2.321 9.286L0 6.964h1.548A6.973 6.973 0 0 1 8.512 0c2.727 0 5.087 1.58 6.228 3.869h-1.79a5.41 5.41 0 0 0-4.438-2.321 5.424 5.424 0 0 0-5.417 5.416h1.548L2.32 9.286zm12.381-4.643l2.322 2.321h-1.548c0 .533-.066 1.049-.18 1.548H13.7a5.36 5.36 0 0 0 .229-1.548H12.38l2.321-2.321zM4.073 10.06a5.424 5.424 0 0 0 3.665 2.261v1.553a6.972 6.972 0 0 1-5.455-3.814h1.79zm13.725 0c.428 0 .773.346.773.773v6.965a.774.774 0 0 1-.773.773H10.06a.774.774 0 0 1-.774-.773v-6.965c0-.427.346-.773.774-.773h7.738zm-4.643 4.642h1.547v-1.547h-1.547v1.547zm1.547.774h-1.547v1.548h1.547v-1.548zm-2.321-2.321h-1.548v1.547h1.548v-1.547zm3.095 0v1.547h1.548v-1.547h-1.548zm-4.643 2.321v1.548h1.548v-1.548h-1.548zm4.643 1.548h1.548v-1.548h-1.548v1.548zM8.9 8.512a.387.387 0 0 0 0-.775h-.774A1.937 1.937 0 0 1 6.19 5.803c0-.934.666-1.716 1.548-1.895v-.813h1.547v.774h1.548v1.548H8.126a.388.388 0 0 0 0 .773H8.9a1.937 1.937 0 0 1 1.895 2.322H8.9zm-2.709 0h1.547v1.548H6.191V8.512z"/>
    </g>
</svg>
