<svg xmlns="http://www.w3.org/2000/svg" width="16" height="19" viewBox="0 0 16 19">
    <path fill="#000000" fill-rule="nonzero" d="M15.481 4.433v11.4A3.163 3.163 0 0 1 12.322 19H3.159A3.163 3.163 0 0 1 0 15.833V1.583C0 .71.707 0 1.58 0h10.11c.814 0 1.484.616 1.57 1.409a3.167 3.167 0 0 1 2.221 3.024zM13.27 15.2c0 .874-.707 1.583-1.58 1.583H2.756a.476.476 0 0 0 0 .951h9.566c1.047 0 1.896-.851 1.896-1.9V4.048a.474.474 0 0 0-.948 0V15.2zm-6.94-3.205v.988h1.15v-.988c.815-.066 1.472-.282 1.97-.648.498-.367.747-.843.747-1.428 0-.47-.128-.844-.385-1.126a2.374 2.374 0 0 0-.955-.632c-.38-.14-.838-.26-1.376-.363V6.074c.395.036.735.14 1.02.313.285.172.538.427.76.763l1.007-1.054a3.91 3.91 0 0 0-1.156-.917c-.423-.216-.967-.346-1.631-.39V3.8H6.33v.989c-.863.073-1.537.31-2.023.714-.486.402-.73.897-.73 1.483 0 .461.129.829.386 1.104.257.274.577.477.96.61a9.99 9.99 0 0 0 1.406.35v1.67a3.251 3.251 0 0 1-1.216-.39 1.994 1.994 0 0 1-.788-.785l-1.009 1.088c.325.41.728.728 1.21.955.483.227 1.084.363 1.803.407zm0-5.888v1.472c-.292-.073-.518-.163-.676-.27a.497.497 0 0 1-.237-.433c0-.205.079-.374.237-.506.158-.131.384-.22.676-.263zm1.15 4.591V9.281c.293.074.515.163.665.27.15.106.225.254.225.444 0 .389-.296.623-.89.703z"/>
</svg>
