<svg xmlns="http://www.w3.org/2000/svg" width="20" height="18" viewBox="0 0 20 18">
    <g fill="none" fill-rule="evenodd">
        <path d="M-2-3h24v24H-2z"/>
        <path fill="#b6b6b6" d="M10.69.278a.994.994 0 0 0-1.38 0L.537 8.804a.928.928 0 0 0-.212 1.033.976.976 0 0 0 .901.584h1.95v5.588c0 1.1.896 1.991 2 1.991h9.65a2 2 0 0 0 2-1.991V10.42h1.95c.394 0 .75-.23.9-.584a.928.928 0 0 0-.21-1.033L10.688.278z"/>
        <path fill="#F2F3F2" fill-rule="nonzero" d="M10.91 15v-.866c1.037-.192 1.82-1.025 1.82-2.021 0-1.137-1.02-2.063-2.275-2.063h-.91c-.25 0-.455-.185-.455-.413 0-.227.205-.412.455-.412h3.185v-1.65h-1.82V6.75H9.09v.866c-1.037.192-1.82 1.025-1.82 2.021 0 1.137 1.02 2.063 2.275 2.063h.91c.25 0 .455.185.455.413 0 .227-.205.412-.455.412H7.27v1.65h1.82V15h1.82z"/>
    </g>
</svg>
