<svg width="80" height="80" viewBox="0 0 80 80" fill="none" xmlns="http://www.w3.org/2000/svg">
<rect width="80" height="80" fill="white"/>
<path d="M36.8088 46.6863C36.6569 46.0784 36.6569 45.4706 36.6569 44.7108C36.6569 42.1274 37.7206 39.848 40.4559 37.8726L42.7353 36.201C44.1029 35.1373 44.7108 33.9216 44.7108 32.402C44.7108 30.2745 43.1912 28.1471 40 28.1471C36.6569 28.1471 35.1373 30.8824 35.1373 33.4657C35.1373 34.0735 35.1373 34.5294 35.2892 34.9853L29.2108 34.8333C29.0588 34.2255 28.9069 33.4657 28.9069 32.7059C28.9069 27.5392 32.7059 22.6765 39.848 22.6765C47.1421 22.6765 51.0931 27.3873 51.0931 32.0981C51.0931 35.8971 49.1176 38.4804 46.3823 40.4559L44.4069 41.8235C42.7353 43.0392 41.8235 44.5588 41.8235 46.3823V46.6863H36.8088ZM39.3922 49.7255C41.5196 49.7255 43.1912 51.397 43.1912 53.5245C43.1912 55.6519 41.5196 57.3235 39.3922 57.3235C37.2647 57.3235 35.5932 55.6519 35.5932 53.5245C35.7451 51.549 37.2647 49.7255 39.3922 49.7255Z" fill="#989FB0"/>
</svg>
