<svg width="36" height="36" viewBox="0 0 36 36" fill="none" xmlns="http://www.w3.org/2000/svg">
<rect width="36" height="36" fill="#28ad99"/>
<path fill-rule="evenodd" clip-rule="evenodd" d="M21.5305 7.70245C21.7646 7.70245 21.9891 7.79545 22.1546 7.96097C22.3202 8.1265 22.4132 8.35101 22.4132 8.5851V27.4149C22.4132 27.649 22.3202 27.8735 22.1546 28.039C21.9891 28.2046 21.7646 28.2975 21.5305 28.2975C21.2964 28.2975 21.0719 28.2046 20.9064 28.039C20.7409 27.8735 20.6479 27.649 20.6479 27.4149V8.5851C20.6479 8.35101 20.7409 8.1265 20.9064 7.96097C21.0719 7.79545 21.2964 7.70245 21.5305 7.70245ZM17.9999 11.233C18.234 11.233 18.4585 11.326 18.624 11.4916C18.7896 11.6571 18.8826 11.8816 18.8826 12.1157V23.8843C18.8826 24.1184 18.7896 24.3429 18.624 24.5084C18.4585 24.674 18.234 24.767 17.9999 24.767C17.7658 24.767 17.5413 24.674 17.3758 24.5084C17.2103 24.3429 17.1173 24.1184 17.1173 23.8843V12.1157C17.1173 11.8816 17.2103 11.6571 17.3758 11.4916C17.5413 11.326 17.7658 11.233 17.9999 11.233ZM10.9387 12.4099C11.1728 12.4099 11.3973 12.5029 11.5629 12.6684C11.7284 12.834 11.8214 13.0585 11.8214 13.2926V22.7074C11.8214 22.9415 11.7284 23.166 11.5629 23.3316C11.3973 23.4971 11.1728 23.5901 10.9387 23.5901C10.7047 23.5901 10.4802 23.4971 10.3146 23.3316C10.1491 23.166 10.0561 22.9415 10.0561 22.7074V13.2926C10.0561 13.0585 10.1491 12.834 10.3146 12.6684C10.4802 12.5029 10.7047 12.4099 10.9387 12.4099ZM25.0611 13.5868C25.2952 13.5868 25.5197 13.6798 25.6852 13.8453C25.8508 14.0108 25.9437 14.2353 25.9437 14.4694V21.5306C25.9437 21.7647 25.8508 21.9892 25.6852 22.1547C25.5197 22.3202 25.2952 22.4132 25.0611 22.4132C24.827 22.4132 24.6025 22.3202 24.437 22.1547C24.2714 21.9892 24.1785 21.7647 24.1785 21.5306V14.4694C24.1785 14.2353 24.2714 14.0108 24.437 13.8453C24.6025 13.6798 24.827 13.5868 25.0611 13.5868ZM14.4693 14.7636C14.7034 14.7636 14.9279 14.8566 15.0935 15.0222C15.259 15.1877 15.352 15.4122 15.352 15.6463V20.3537C15.352 20.5878 15.259 20.8123 15.0935 20.9778C14.9279 21.1434 14.7034 21.2364 14.4693 21.2364C14.2352 21.2364 14.0107 21.1434 13.8452 20.9778C13.6797 20.8123 13.5867 20.5878 13.5867 20.3537V15.6463C13.5867 15.4122 13.6797 15.1877 13.8452 15.0222C14.0107 14.8566 14.2352 14.7636 14.4693 14.7636ZM7.40816 15.9405C7.64225 15.9405 7.86676 16.0335 8.03229 16.199C8.19781 16.3645 8.29081 16.589 8.29081 16.8231V19.1769C8.29081 19.411 8.19781 19.6355 8.03229 19.801C7.86676 19.9665 7.64225 20.0595 7.40816 20.0595C7.17407 20.0595 6.94956 19.9665 6.78403 19.801C6.61851 19.6355 6.52551 19.411 6.52551 19.1769V16.8231C6.52551 16.589 6.61851 16.3645 6.78403 16.199C6.94956 16.0335 7.17407 15.9405 7.40816 15.9405ZM28.5917 15.9405C28.8258 15.9405 29.0503 16.0335 29.2158 16.199C29.3813 16.3645 29.4743 16.589 29.4743 16.8231V19.1769C29.4743 19.411 29.3813 19.6355 29.2158 19.801C29.0503 19.9665 28.8258 20.0595 28.5917 20.0595C28.3576 20.0595 28.1331 19.9665 27.9676 19.801C27.802 19.6355 27.709 19.411 27.709 19.1769V16.8231C27.709 16.589 27.802 16.3645 27.9676 16.199C28.1331 16.0335 28.3576 15.9405 28.5917 15.9405Z" fill="white"/>
</svg>
